<svg xmlns="http://www.w3.org/2000/svg" xmlns:xlink="http://www.w3.org/1999/xlink" width="73" height="73" viewBox="0 0 73 73">
  <defs>
    <clipPath id="clip-path">
      <rect id="Rectángulo_31345" data-name="Rectángulo 31345" width="73" height="73" transform="translate(1083 1345.492)" fill="#da269c" stroke="#707070" stroke-width="1"/>
    </clipPath>
  </defs>
  <g id="Enmascarar_grupo_52" data-name="Enmascarar grupo 52" transform="translate(-1083 -1345.492)" clip-path="url(#clip-path)">
    <g id="Page-1" transform="translate(1095.166 1345.492)">
      <g id="_047---Broken-Light-Bulb" data-name="047---Broken-Light-Bulb">
        <path id="Shape" d="M23.955,1.664a1.236,1.236,0,0,1,.973-.448,23.1,23.1,0,0,1,14.656,40.46,16.648,16.648,0,0,0-5.518,12.547v1.742a1.217,1.217,0,0,1-1.217,1.217H15.817A1.217,1.217,0,0,1,14.6,55.967V54.222A16.645,16.645,0,0,0,9.085,41.678,23.013,23.013,0,0,1,1.217,24.333V23.117A1.217,1.217,0,0,1,2.433,21.9h7.3l1.048-6.283a1.217,1.217,0,0,1,1.2-1.017h7.486l-1.1-5.519a1.217,1.217,0,0,1,.258-1.018Z" fill="#e2f6c6"/>
        <path id="Shape-2" data-name="Shape" d="M15.817,57.183H32.85V69.35a2.433,2.433,0,0,1-2.433,2.433H18.25a2.433,2.433,0,0,1-2.433-2.433Z" fill="#7f8e94"/>
        <path id="Shape-3" data-name="Shape" d="M21.9,42.583h4.867A1.217,1.217,0,0,1,27.983,43.8V57.183h-7.3V43.8A1.217,1.217,0,0,1,21.9,42.583Z" fill="#fb9e36"/>
        <path id="Shape-4" data-name="Shape" d="M9.58,15.418,8.7,20.683H2.433A2.433,2.433,0,0,0,0,23.117v1.217A24.307,24.307,0,0,0,8.283,42.6a15.4,15.4,0,0,1,5.1,11.624v1.745a2.425,2.425,0,0,0,1.217,2.1v2.772a1.217,1.217,0,1,0,0,2.433V65.7a1.217,1.217,0,1,0,0,2.433V69.35A3.65,3.65,0,0,0,18.25,73H30.417a3.65,3.65,0,0,0,3.65-3.65V68.133a1.217,1.217,0,1,0,0-2.433V63.267a1.217,1.217,0,0,0,0-2.433V58.062a2.425,2.425,0,0,0,1.217-2.1V54.223a15.4,15.4,0,0,1,5.1-11.631A24.319,24.319,0,0,0,24.959,0a2.5,2.5,0,0,0-1.937.882l-5.334,6.4a2.419,2.419,0,0,0-.517,2.037l.812,4.064h-6a2.433,2.433,0,0,0-2.4,2.034ZM31.633,69.35a1.217,1.217,0,0,1-1.217,1.217H18.25a1.217,1.217,0,0,1-1.217-1.217V68.133h14.6Zm0-3.65h-14.6V63.267h14.6Zm-14.6-4.867V58.4h14.6v2.433ZM21.9,43.8h4.867V55.967H21.9ZM19.467,15.817h4.867a1.217,1.217,0,0,0,1.012-.541l2.072-3.109h4.216a1.217,1.217,0,1,0,0-2.433H26.767a1.217,1.217,0,0,0-1.012.541l-2.072,3.109H20.464l-.908-4.541,5.333-6.4-.936-.779.943.77A21.884,21.884,0,0,1,38.78,40.758a17.839,17.839,0,0,0-5.93,13.465v1.743H29.2V43.8a2.424,2.424,0,0,0-1.183-2.076c.168-2.684,1.129-4.446,2.943-5.353a1.217,1.217,0,0,0-1.088-2.178c-2.576,1.288-4,3.7-4.267,7.178H23.061c-.266-3.469-1.691-5.884-4.267-7.172a1.217,1.217,0,1,0-1.088,2.178c1.814.906,2.775,2.668,2.943,5.353a2.424,2.424,0,0,0-1.183,2.07V55.967h-3.65V54.222a17.835,17.835,0,0,0-5.93-13.464A21.873,21.873,0,0,1,2.433,24.333V23.117H13.848l2.1,4.194a1.217,1.217,0,0,0,1.089.673h6.083a1.217,1.217,0,1,0,0-2.433H17.785l-2.09-4.194a1.217,1.217,0,0,0-1.095-.673H11.169l.812-4.867Z"/>
      </g>
    </g>
  </g>
</svg>
