<svg xmlns="http://www.w3.org/2000/svg" width="35.645" height="73" viewBox="0 0 35.645 73">
  <g id="botella-rota" transform="translate(-18.678)">
    <path id="Trazado_107018" data-name="Trazado 107018" d="M42.916,12.161V8.519H30.084v3.642a14.258,14.258,0,0,1-3.345,9.176,28.282,28.282,0,0,0-6.635,18.2V71.574l5.7-3.85,4.848,3.85L37.926,67.3l3.564,2.566,4.99-2.139,6.416,3.85V39.539a28.282,28.282,0,0,0-6.635-18.2,14.258,14.258,0,0,1-3.345-9.176Z" fill="#17c878"/>
    <path id="Trazado_107019" data-name="Trazado 107019" d="M30.084,1.426H42.916V8.555H30.084Z" fill="#fb9e36"/>
    <g id="Grupo_82616" data-name="Grupo 82616">
      <path id="Trazado_107020" data-name="Trazado 107020" d="M52.526,29.364c-.171-.469-.556-1.409-.56-1.42a29.565,29.565,0,0,0-4.614-7.524,12.859,12.859,0,0,1-3.01-8.258V1.426A1.426,1.426,0,0,0,42.916,0H30.084a1.426,1.426,0,0,0-1.426,1.426V12.162a12.852,12.852,0,0,1-3.011,8.258,29.706,29.706,0,0,0-6.969,19.118V71.574A1.426,1.426,0,0,0,20.9,72.756l4.838-3.265,4.029,3.2a1.426,1.426,0,0,0,1.61.113L37.847,69l2.81,2.025a1.44,1.44,0,0,0,1.394.153l4.32-1.851L52.164,72.8a1.413,1.413,0,0,0,.733.2,1.426,1.426,0,0,0,1.426-1.426V56.832a1.426,1.426,0,0,0-2.852,0V69.056l-3.845-2.308-2.1-5.256a1.426,1.426,0,1,0-2.648,1.059l1.765,4.411-2.97,1.273-2.559-1.842L36.184,58.5l2.9-6.6a1.426,1.426,0,1,0-2.61-1.148l-3.137,7.129a1.426,1.426,0,0,0-.032,1.07l2.864,7.72-5.4,3.176L27.867,67.54l3.145-3.579a1.426,1.426,0,1,0-2.142-1.882l-4.014,4.568-3.327,2.245V39.538a26.881,26.881,0,0,1,2.349-10.975l4.5-.721,3.648,1.3a1.425,1.425,0,0,0,1.81-.831L36.69,20.9a1.426,1.426,0,0,0-2.662-1.024l-2.352,6.115L29,25.034a1.428,1.428,0,0,0-.7-.065l-2.74.439a26.779,26.779,0,0,1,2.28-3.153,15.709,15.709,0,0,0,3.68-10.093V9.98h9.98v2.181a15.71,15.71,0,0,0,3.68,10.093,26.82,26.82,0,0,1,3.238,4.835h-3.56l-3.423-3.931a1.426,1.426,0,1,0-2.15,1.873l3.259,3.742-1.5,3.452a1.426,1.426,0,1,0,2.617,1.134l1.481-3.419h4.558a26.859,26.859,0,0,1,1.778,9.6V44a1.426,1.426,0,0,0,2.852,0V39.538a29.627,29.627,0,0,0-1.8-10.174ZM41.49,2.852V7.093H31.51V2.852Z"/>
      <circle id="Elipse_4400" data-name="Elipse 4400" cx="1.426" cy="1.426" r="1.426" transform="translate(51.471 48.99)"/>
      <path id="Trazado_107021" data-name="Trazado 107021" d="M26.719,50.233a1.426,1.426,0,0,0-1.826,2.191l3.422,2.852a1.426,1.426,0,0,0,1.826-2.191Z"/>
      <path id="Trazado_107022" data-name="Trazado 107022" d="M37.492,41.473l.428-4.848a1.426,1.426,0,0,0-2.841-.251l-.344,3.9L28.08,42.414a1.426,1.426,0,1,0,.871,2.715l7.557-2.424a1.426,1.426,0,0,0,.985-1.232Z"/>
      <path id="Trazado_107023" data-name="Trazado 107023" d="M45.242,40.213,42.961,44.2a1.426,1.426,0,1,0,2.476,1.415l2.281-3.992a1.426,1.426,0,1,0-2.476-1.415Z"/>
    </g>
  </g>
</svg>
