<svg id="chicken-left" xmlns="http://www.w3.org/2000/svg" width="270.807" height="336.402" viewBox="0 0 270.807 336.402">
  <path id="Path_106758" data-name="Path 106758" d="M275.345,213.975a68.638,68.638,0,0,1-10.5,26.527c-12.8,19.156-31.642,25.952-38.133,27.966a88.386,88.386,0,0,1,11.525-42.042c9.78-16.871,27.8-34.125,34.683-30.433C275.2,197.217,277.182,201.246,275.345,213.975Z" transform="translate(-197.098 -137.144)" fill="#baa53d"/>
  <path id="Path_106759" data-name="Path 106759" d="M303.779,294.073a41.4,41.4,0,0,1-15.879-9.925c-10.645-10.768-11.686-24.131-11.958-27.623-2.139-27.492,24.175-46.136,25.559-47.085a29.691,29.691,0,0,0-1.391-10.349,31.044,31.044,0,0,0-11.419-15.413c-1.722,3.784-4.5,9.8-8.081,17.112-14.13,28.877-18.667,32.987-21.685,45.754-2.411,10.206-5.749,24.336,1.992,36.648,9.852,15.673,30.554,17.108,33.787,17.284Q299.241,297.273,303.779,294.073Z" transform="translate(-168.984 -148.443)" fill="#baa53d"/>
  <path id="Path_106760" data-name="Path 106760" d="M285.012,317.984a23.937,23.937,0,0,0,5.465,4.984c13.079,8.586,29.461.031,34.574,7.185.777,1.086,1.581,2.937,1.219,6.152a236.975,236.975,0,0,1-29.345-5.166c-3-.763-7.136-1.912-9.715-5.622A13.241,13.241,0,0,1,285.012,317.984Z" transform="translate(-141.32 -19.948)" fill="#f2b07b"/>
  <path id="Path_106761" data-name="Path 106761" d="M246.743,183.154a60.1,60.1,0,0,1,31.323-17.483,62.9,62.9,0,0,1,13.145,11.312,63.759,63.759,0,0,1,13.265,24.262,86.555,86.555,0,0,1-3.886,16.939c-6.487,19.16-16.92,27.443-22.391,36.963-5.99,10.424-9.33,28.067,3.52,59.567-6-5.375-14.537-14.57-18.793-27.964-7.132-22.454,4.025-36.982.468-63.175C262.086,213.942,258.378,199.718,246.743,183.154Z" transform="translate(-177.933 -165.671)" fill="#f7ae68"/>
  <path id="Path_106762" data-name="Path 106762" d="M272.042,238.372a28.757,28.757,0,0,1-.368-15.628c1.818-6.757,7.484-17.141,14.918-16.773,3.962.2,8.293,3.44,8.072,6.111-.358,4.344-12.441,3.336-18.849,11.629C272.143,228.459,271.811,234.345,272.042,238.372Z" transform="translate(-154.959 -127.124)" fill="#baa53d"/>
  <path id="Path_106763" data-name="Path 106763" d="M239.116,188.315a170.647,170.647,0,0,0-10.678,17.249c-7.166,13.28-16.219,30.063-16.828,46.11-1.192,31.453,30.721,42.039,27.735,70.286-1.305,12.339-8.617,21.626-13.907,27.1a27.741,27.741,0,0,0,15.951.79c11.431-2.986,16.9-12.961,17.861-14.724,8.739-15.951-3.911-32.255-6.573-51.722-2.237-16.352,1.894-39.925,29.819-71.62a37.589,37.589,0,0,0-12.122-16.591C257.163,185.024,241.7,187.806,239.116,188.315Z" transform="translate(-211.577 -144.705)" fill="#127c4c"/>
  <path id="Path_106764" data-name="Path 106764" d="M218.726,262.059c.716-.37,4.853-2.411,8.792-.706,5.23,2.266,3.882,8.527,9.33,11.5,3.935,2.15,8.441.971,10.817.348a20.51,20.51,0,0,0,10.846-7.269A28.673,28.673,0,0,1,251,279.268c-.9.892-9.349,9.007-21.72,8.06-4.058-.309-13.263-1.014-16.352-8.044C210.352,273.437,212.844,265.11,218.726,262.059Z" transform="translate(-211.254 -74.77)" fill="#17c878"/>
  <path id="Path_106765" data-name="Path 106765" d="M245.588,270.45c.28,3.336.092,7.905-2.824,10.9-4.677,4.808-12.836,1.933-13.955,5.019-.929,2.565,3.44,8.058,8.359,8.03,3.974-.025,6.541-3.638,7.479-4.96C249.932,282,246.192,272,245.588,270.45Z" transform="translate(-195.212 -65.425)" fill="#baa53d"/>
  <path id="Path_106766" data-name="Path 106766" d="M277.314,296.758c-3.428-.02-15.527-.511-25.412-9.635-12.92-11.93-11.613-28.975-11.312-32.922,1.548-20.207,16.669-31.826,19.184-33.695a43.909,43.909,0,0,0,.313,24.381c5.6,18.049,21.348,25.764,24.166,27.087Z" transform="translate(-183.994 -113.208)" fill="#ed8c2b"/>
  <path id="Path_106767" data-name="Path 106767" d="M281.746,295.9a60.037,60.037,0,0,1,5.3,12.065A61.538,61.538,0,0,1,289.13,335.1a6.9,6.9,0,0,1-3.968,3.231c-2.55.618-4.317-1.143-5.886-.292-.912.493-1.757,1.867-1.612,5.632a5.427,5.427,0,0,1,3.105-1.18c2.135-.047,3.094,1.485,5.25,1.593a6.028,6.028,0,0,0,3.874-1.331,11.607,11.607,0,0,0-.188,7.606c1.873,5.136,7.919,6.917,16.123,9.709,5.63,1.916,13.973,4.878,24.393,9.062.225-2.4.117-5.718-1.871-8.373-2.178-2.91-5.316-3.508-10.333-4.653-7.248-1.653-17.053-3.892-20.647-9.733-2.227-3.618-1.481-7.667-1.045-10.617,1.286-8.678,2.051-21.473-.319-39.526Z" transform="translate(-148.365 -41.075)" fill="#f2b07b"/>
  <path id="Path_106768" data-name="Path 106768" d="M307.628,312.985a22.82,22.82,0,0,0,5.236,4.774c12.535,8.23,28.236.031,33.137,6.888.743,1.041,1.512,2.816,1.166,5.9a226.738,226.738,0,0,1-28.124-4.951c-2.876-.73-6.839-1.831-9.31-5.387A12.671,12.671,0,0,1,307.628,312.985Z" transform="translate(-119.682 -24.731)" fill="#e89c5f"/>
  <path id="Path_106769" data-name="Path 106769" d="M308.548,311.789a17.707,17.707,0,0,0,3.647,6.475c.894,1,4.256,4.493,14.047,6.444,10.827,2.156,14.889-.493,19.965,3.041a15.443,15.443,0,0,1,5.387,7.246c-5.271-.654-13.173-1.646-22.843-2.912-14.135-1.849-18.718-2.538-21.037-6.242C305.022,321.537,306.9,315.568,308.548,311.789Z" transform="translate(-120.897 -25.875)" fill="#f2b07b"/>
  <path id="Path_106770" data-name="Path 106770" d="M303.205,292.875a57.456,57.456,0,0,1,5.082,11.564,58.949,58.949,0,0,1,2,26.005,6.608,6.608,0,0,1-3.8,3.1c-2.444.593-4.138-1.094-5.643-.28-.873.474-1.683,1.79-1.544,5.4a5.208,5.208,0,0,1,2.974-1.129c2.049-.045,2.966,1.423,5.033,1.526a5.779,5.779,0,0,0,3.712-1.276,11.126,11.126,0,0,0-.178,7.289c1.507,4.131,5.827,6.2,15.452,9.306,5.819,1.88,13.576,4.142,22.953,6.2a9.168,9.168,0,0,0-1.366-5.541c-2.062-3.062-5.727-3.506-9.905-4.459-6.946-1.585-16.345-3.73-19.789-9.328-2.135-3.467-1.421-7.348-1-10.175,1.233-8.316,1.965-20.579-.305-37.882Q310.037,293.032,303.205,292.875Z" transform="translate(-127.671 -43.97)" fill="#f2b07b"/>
  <path id="Path_106771" data-name="Path 106771" d="M264.871,276.1a34.275,34.275,0,0,0,1.059,9.381c4.072,15.828,18.479,23.8,22.512,25.862a2.316,2.316,0,1,0,3.068,3.389,3.65,3.65,0,0,0,6.723,2.616c.679,1.113,3.43,5.522,4.892,5,.327-.115,1.02-.63.947-3.759q4.9,5.624,6.232,4.876.983-.549.035-4.567a18.149,18.149,0,0,0,5.9.1,18.959,18.959,0,0,0,9.948-4.839Q295.526,295.129,264.871,276.1Z" transform="translate(-160.599 -60.023)" fill="#baa53d"/>
  <path id="Path_106772" data-name="Path 106772" d="M281.91,289.371a34.309,34.309,0,0,0,5.469,7.694c11.232,11.873,27.7,11.868,32.226,11.717a2.316,2.316,0,1,0,4.324,1.477,3.651,3.651,0,0,0,7.15-.967c1.133.646,5.676,3.168,6.7,2.006.229-.26.587-1.047-.992-3.749q7.006,2.548,7.813,1.248.6-.96-2.18-4.013a18.2,18.2,0,0,0,5.207-2.767,18.948,18.948,0,0,0,6.359-9.05Z" transform="translate(-144.288 -47.323)" fill="#baa53d"/>
  <path id="Path_106773" data-name="Path 106773" d="M301.946,331.725c-7.367-1.554-25.246-6.393-30.979-20.192-3.389-8.152-1.769-17.581,1.409-36.1,2.266-13.212,3.549-12.633,3.144-17.358-1.423-16.566-17.708-29.633-31.386-35.059a55.264,55.264,0,0,0-22.275-3.769A113.068,113.068,0,0,1,262.512,167.2c22.107,10.484,30.731,22.964,34.574,32.171,13.672,32.76-16.155,64.93.248,94.812,6.046,11.011,15.887,17.194,22.587,20.536Z" transform="translate(-201.741 -164.205)" fill="#17c878"/>
  <path id="Path_106774" data-name="Path 106774" d="M259,277.663a64.335,64.335,0,0,0,3.371,24.152c16.65,47.989,87.165,56.62,91.211,57.06a130.425,130.425,0,0,0,54.523-32.323,84.985,84.985,0,0,0,11.631-19.6,88.078,88.078,0,0,0,6.039-45.007c-10.639-8.019-30.93-20.829-58.953-24.242C307.509,230.48,265.024,271.636,259,277.663Z" transform="translate(-166.272 -97.568)" fill="#f1d54e"/>
  <path id="Path_106775" data-name="Path 106775" d="M273.534,303.846c6.907,5.547,13.118,6.78,16.493,7.1,15.677,1.485,32.384-10.844,40.947-31.093a14.274,14.274,0,0,0,4.872,5.381c6.733,4.309,14.648.822,15.4.477a19.446,19.446,0,0,0,8.32,4.982c10.764,3.078,20.045-5.091,20.847-5.819a32.025,32.025,0,0,0,8.588-.432C402.98,281.8,410.969,270.4,413.286,266.8c-4.909-3.029-42.4-25.293-86.04-9.69C293.105,269.318,277.314,296.8,273.534,303.846Z" transform="translate(-152.301 -83.447)" fill="#baa53d"/>
  <path id="Path_106776" data-name="Path 106776" d="M279.792,243.908c-2.794-.292-6.774-.763-11.537-1.524-9.138-1.456-11.6-2.448-13.282-.847-3.3,3.143.712,12.208,1.068,13a22.958,22.958,0,0,0,4.256,6.3,16.554,16.554,0,0,0-2.389,5.974c-1.687,9.253,5.547,16.652,6.549,17.646a27.472,27.472,0,0,0,2.407,9.068c4.99,10.78,15.609,14.791,18.444,15.762Q282.552,276.6,279.792,243.908Z" transform="translate(-171.296 -93.872)" fill="#e38e2f"/>
  <path id="Path_106777" data-name="Path 106777" d="M342.547,280.541a53.779,53.779,0,0,1-6.637,18.706c-2.949,5.042-11.32,19.354-28.171,22.97-10.009,2.147-25.764,1.111-34.527-10.087a28.864,28.864,0,0,1-5.741-14.752,15.265,15.265,0,0,1-5.718-7.518c-2.677-8.017,3.041-14.981,3.43-15.439a36.764,36.764,0,0,1,4.033-27.594,145.181,145.181,0,0,0,48.132-10.938,38.5,38.5,0,0,1,14.758,9.488C345.112,258.948,342.939,277.592,342.547,280.541Z" transform="translate(-164.252 -98.49)" fill="#f1d54e"/>
  <path id="Path_106778" data-name="Path 106778" d="M286.068,243.123c-.55-.139-1.086-.327-1.648-.428a13.59,13.59,0,0,0-1.706-.254,12.824,12.824,0,0,0-1.736-.037,14.061,14.061,0,0,0-1.736.194,11.141,11.141,0,0,0-6.3,3.258,7.538,7.538,0,0,0-1.074,1.587,5.6,5.6,0,0,0-.56,2.959,6.837,6.837,0,0,0,.172.986,7.66,7.66,0,0,0,.7,1.814,13.364,13.364,0,0,0,5.277,5.127l.468-2.407a12.191,12.191,0,0,0-1.675.276,10.467,10.467,0,0,0-1.63.522,10.064,10.064,0,0,0-2.9,1.837,9.629,9.629,0,0,0-3.244,6.109,7.919,7.919,0,0,0,.008,1.839l.023.231a1.366,1.366,0,0,0,.027.186l.02.09.074.368c.051.243.174.634.272.929a9.266,9.266,0,0,0,1.925,3.056A10.851,10.851,0,0,0,277,274.537l-.113-3.211a13.209,13.209,0,0,0-2.16.7,12.66,12.66,0,0,0-1.982,1.117,11.448,11.448,0,0,0-3.084,3.3,11.407,11.407,0,0,0-1.571,4.234,10.84,10.84,0,0,0-.112,2.28,10.408,10.408,0,0,0,1.217,4.369,10.787,10.787,0,0,0,1.272,1.875,11.379,11.379,0,0,0,7.756,3.988,11.675,11.675,0,0,0,2.219-.065,12.908,12.908,0,0,0,2.151-.5l-1.229-2.192a11.959,11.959,0,0,0-3.71,6.383,8.152,8.152,0,0,0,.127,3.82,6.074,6.074,0,0,0,.362.953,7.439,7.439,0,0,0,1.677,2.26,9.977,9.977,0,0,0,1.493,1.09,11.124,11.124,0,0,0,1.648.753,10.107,10.107,0,0,0,1.728.45,10.871,10.871,0,0,0,1.757.174,11.285,11.285,0,0,0,1.747-.112,10.4,10.4,0,0,0,3.291-1.006,14.309,14.309,0,0,0,1.485-.834,14.012,14.012,0,0,1-1.575.6,10.38,10.38,0,0,1-1.62.387,11.3,11.3,0,0,1-1.638.166,10.763,10.763,0,0,1-1.63-.072,10,10,0,0,1-1.581-.335,9.16,9.16,0,0,1-1.489-.565,9.58,9.58,0,0,1-1.348-.8,8.386,8.386,0,0,1-1.131-1.033,6.856,6.856,0,0,1-.832-1.162,6.11,6.11,0,0,1-.335-.736,4.662,4.662,0,0,1-.182-.644,6.143,6.143,0,0,1,.145-2.876,9.992,9.992,0,0,1,3.3-4.929,1.273,1.273,0,0,0-1.109-2.219l-.121.029a10.292,10.292,0,0,1-1.663.284,8.848,8.848,0,0,1-1.673-.049,8.5,8.5,0,0,1-3.154-1.019,8.317,8.317,0,0,1-2.5-2.127,7.678,7.678,0,0,1-.865-1.374,7.969,7.969,0,0,1-.568-1.544,7.284,7.284,0,0,1-.231-1.552,7.628,7.628,0,0,1,.1-1.607,8.158,8.158,0,0,1,1.158-3.013,8.547,8.547,0,0,1,3.634-3.144,10.27,10.27,0,0,1,1.536-.521l.065-.016a1.632,1.632,0,0,0-.176-3.2,7.625,7.625,0,0,1-4.334-2.152,6.176,6.176,0,0,1-1.278-1.959c-.055-.178-.108-.256-.168-.5l-.088-.364-.023-.09c.025.115,0-.01.006,0l-.018-.141a4.848,4.848,0,0,1-.045-1.145,6.687,6.687,0,0,1,2.133-4.3,7.275,7.275,0,0,1,.978-.8,9.136,9.136,0,0,1,1.1-.644,7.747,7.747,0,0,1,1.2-.458,9.67,9.67,0,0,1,1.262-.286l.16-.033a1.267,1.267,0,0,0,.307-2.374,11.581,11.581,0,0,1-4.614-3.929,5.584,5.584,0,0,1-.628-1.3,4.86,4.86,0,0,1-.178-.671,3.2,3.2,0,0,1-.047-.675,4.105,4.105,0,0,1,.27-1.335,7.055,7.055,0,0,1,.718-1.288,9.932,9.932,0,0,1,5.25-3.426,13.023,13.023,0,0,1,3.264-.509,13.684,13.684,0,0,1,1.677,0C284.943,242.957,285.5,243.065,286.068,243.123Z" transform="translate(-157.638 -92.269)" fill="#baa53d"/>
  <path id="Path_106779" data-name="Path 106779" d="M289.123,244.372a13.537,13.537,0,0,0-1.438-.108,8.6,8.6,0,0,0-1.471.082,10.686,10.686,0,0,0-1.456.3,8.719,8.719,0,0,0-1.417.517,9.24,9.24,0,0,0-4.485,4.2,7.1,7.1,0,0,0-.591,1.536,6.593,6.593,0,0,0-.235,1.691,5.6,5.6,0,0,0,.037.822,7.983,7.983,0,0,0,.139.855,8.845,8.845,0,0,0,.534,1.6,10.58,10.58,0,0,0,4.422,4.722l-.278-2.428a8.93,8.93,0,0,0-2.593,9.925l.123.325c.1.231.1.209.149.327a6.17,6.17,0,0,0,.292.571,7.523,7.523,0,0,0,.792,1.176,9.1,9.1,0,0,0,2.037,1.839,9.2,9.2,0,0,0,5.17,1.511l-1.342-2.46a10.811,10.811,0,0,0-1.536,7.414,9.094,9.094,0,0,0,1.374,3.6,8.362,8.362,0,0,0,1.239,1.5,4.87,4.87,0,0,0,.4.366l.333.254a6.435,6.435,0,0,0,.789.528,7.662,7.662,0,0,0,1.769.763,8.163,8.163,0,0,0,1.824.36,9.334,9.334,0,0,0,3.591-.358,10.691,10.691,0,0,0,1.65-.657,9.84,9.84,0,0,0,1.466-.959,7.62,7.62,0,0,0,1.245-1.188,11.249,11.249,0,0,0,.988-1.372,9.749,9.749,0,0,1-5.633,2.871,8.994,8.994,0,0,1-3.027-.145,6.292,6.292,0,0,1-1.4-.468,5.4,5.4,0,0,1-1.207-.712,5.713,5.713,0,0,1-1.051-.953,5.832,5.832,0,0,1-.775-1.141,7.231,7.231,0,0,1-.761-2.665,7.758,7.758,0,0,1,.227-2.775,9.023,9.023,0,0,1,.475-1.311,12.3,12.3,0,0,1,.687-1.213l.006-.01a1.6,1.6,0,0,0-.5-2.205,1.624,1.624,0,0,0-.843-.245A5.958,5.958,0,0,1,285.5,269.6a5.727,5.727,0,0,1-1.272-1.2,5.549,5.549,0,0,1-.477-.683,3.332,3.332,0,0,1-.229-.427,1.794,1.794,0,0,1-.088-.182l-.082-.2a6.091,6.091,0,0,1,1.524-6.526l.069-.065a1.463,1.463,0,0,0,.047-2.07,1.485,1.485,0,0,0-.393-.293,8.609,8.609,0,0,1-3.53-3.252,6.192,6.192,0,0,1-.475-1.07c-.051-.18-.115-.386-.143-.546a3.028,3.028,0,0,1-.084-.6,5.746,5.746,0,0,1,.327-2.321,8.361,8.361,0,0,1,3.221-3.974A11.349,11.349,0,0,1,289.123,244.372Z" transform="translate(-148.002 -90.483)" fill="#baa53d"/>
  <path id="Path_106780" data-name="Path 106780" d="M340.08,185.143a44.61,44.61,0,0,0-9.283-4.489c-5.647-1.949-9.883-2.088-11.6-5.354-.9-1.718-.657-3.448-1.495-3.6-.933-.176-2.442,1.745-2.845,3.806-.585,2.988,1.458,4.729.628,5.919-.957,1.37-3.775-.781-6.921.049-5.858,1.546-5.95,11.6-11.341,12.4-2.166.323-3.859-1.045-4.628-.11-.753.918-.051,3.35,1.517,4.628,2.749,2.244,6.776-.2,7.944,1.554.757,1.137-.057,3.489-1.487,4.518-1.773,1.274-3.51-.192-5.7,1.115-1.7,1.014-2.628,3.076-2.18,3.651.4.509,1.577-.53,3.561-.292,2.1.252,2.6,1.642,4.319,2.021,1.17.26,2.915.053,5.428-2.027-3.348,2.851-4.3,5.408-4.534,7.234-.366,2.8.9,4.178-.063,6.676-1.145,2.959-3.825,3.37-3.669,4.921.168,1.673,3.516,3.4,6.5,3.244,5.972-.313,7.939-8.038,13.543-13.406,4.24-4.06,11.877-8.034,26.788-7.029Q342.325,197.86,340.08,185.143Z" transform="translate(-134.351 -159.917)" fill="#15a564"/>
  <path id="Path_106781" data-name="Path 106781" d="M288.113,285.688a12.284,12.284,0,0,0,8.3,1.556c-.346,2.464-1.859,15.065,6.729,25.463a30.937,30.937,0,0,0,11.936,8.768,12.536,12.536,0,0,0,16.861,13.218c.014.327.485,7.322,6.712,10.611a12.705,12.705,0,0,0,13.169-.869,21.575,21.575,0,0,0,10.989,1.117c10.036-1.689,15.065-10.279,15.8-11.6a7.606,7.606,0,0,0,5.966,2.583,7.811,7.811,0,0,0,6.1-4.076,11.651,11.651,0,0,0,5.248,1.6c8.14.342,15.3-9.011,17.779-16.828,1.949-6.15,1.1-11.643-.055-16.192-.239-.941-.481-1.83-.724-2.689-2.507-8.954-5.9-12.216-17.761-29.431-12-17.405-14.721-23.043-16.378-26.891a98.732,98.732,0,0,1-5.919-18.757c-5.436,6.109-9.782,6.659-11.75,6.643-10.122-.072-21.006-15.668-23.976-39.974A48.331,48.331,0,0,0,320.1,204.4c-9.723,13.533-5.739,24.377-16.4,49.541-2.671,6.3-6.16,13.259-11.142,16.392a10.766,10.766,0,0,1-4.039,1.565c-2.254.368-4.53-.061-5.7,1.534C280.842,276.121,283.372,282.729,288.113,285.688Z" transform="translate(-144.065 -142.455)" fill="#fb9e36"/>
  <path id="Path_106782" data-name="Path 106782" d="M352.077,232.59a44.807,44.807,0,0,1,2.16-9.03c1.978-5.612,3.816-7.224,4.763-11.566a21.744,21.744,0,0,0-.413-10.872c-3.221-9.9-14.386-13.47-15.873-13.92-11.15-3.387-20.8,2.127-23.99,3.951a37.082,37.082,0,0,0-14.255,14.9,97.628,97.628,0,0,0-1.266,14.024c-.137,7.663.7,11.523.986,18.515a112.515,112.515,0,0,1-.988,19.937Z" transform="translate(-123.93 -146.104)" fill="#bf7726"/>
  <path id="Path_106783" data-name="Path 106783" d="M328.249,206.716a11.387,11.387,0,0,1-.927-5.318c.035-2.242.747-4.1,2.172-7.8.564-1.464.849-2.008,1.383-2.143,1.323-.337,3.066,2.135,3.823,3.506a13.448,13.448,0,0,1,.967,9.66c-.207.808-1.509,5.855-3.78,5.937C330.059,210.619,328.585,207.442,328.249,206.716Z" transform="translate(-100.847 -141.036)" fill="#17c878"/>
  <path id="Path_106784" data-name="Path 106784" d="M318.364,241.119c2.779,5.1,8.707,9.433,15.094,9.312a14.312,14.312,0,0,0,5.052-1.035,11.883,11.883,0,0,0,4.794,1.094,12.625,12.625,0,0,0,11.183-6.723,12.818,12.818,0,0,0,1.436-5.706,10.694,10.694,0,0,0-.933-4.4,11.77,11.77,0,0,0-6.972-6.2,17.868,17.868,0,0,1-3.957-3.759c-4.354-5.676-3.931-12.322-3.7-14.462.354-1.622,1.2-6.526-1.671-10.478a5.012,5.012,0,0,0-1.967-1.863c-2.925-1.288-7.8,1.83-12.255,7.837-.507.313-1,.614-1.495.927a34.107,34.107,0,0,1-.534,4.974c-1.059,5.929-3.15,8.8-4.452,12.2a27.889,27.889,0,0,0-1.593,6.577A19.672,19.672,0,0,0,318.364,241.119Z" transform="translate(-111.454 -136.078)" fill="#15a564"/>
  <path id="Path_106785" data-name="Path 106785" d="M327.066,205.639c-.358-3.019-6.036-4.53-7.608-4.947-3.714-.988-10.12-1.378-11.648,1.706-.9,1.812.182,4.227.344,4.587A6.916,6.916,0,0,0,311,210.124a6.507,6.507,0,0,0,2.849,3C318.9,215.576,327.533,209.574,327.066,205.639Z" transform="translate(-119.846 -132.849)" fill="#17c878"/>
  <path id="Path_106786" data-name="Path 106786" d="M330.579,207.216a10.769,10.769,0,0,0,2.057-4.039c.806-4.117-2.186-9.486-7.013-11.2a10.4,10.4,0,0,0-13.725,9.028c-.364,7.175,8.508,13.085,13.278,11.508C327.509,211.746,329.354,209.022,330.579,207.216Z" transform="translate(-115.607 -141.037)" fill="#17c878"/>
  <path id="Path_106787" data-name="Path 106787" d="M313.791,202.948c1.767,4.047,6.029,6.089,9.52,4.565s4.888-6.038,3.121-10.085-6.029-6.089-9.52-4.565S312.024,198.9,313.791,202.948Z" transform="translate(-114.518 -140.139)" fill="#fff"/>
  <path id="Path_106788" data-name="Path 106788" d="M314.258,202.185c1.36,3.117,4.577,4.72,7.185,3.581s3.618-4.589,2.256-7.7-4.577-4.72-7.185-3.581S312.9,199.07,314.258,202.185Z" transform="translate(-113.919 -138.458)" fill="#203245"/>
  <path id="Path_106789" data-name="Path 106789" d="M340.871,215.109c-1.514.344-2.548-.992-7.778-5.234-4.242-3.44-6.4-5.174-8.132-5.847-2.448-.953-6.393-1.47-12.566,1.248a11.8,11.8,0,0,1-1.816-7.109c.53-5.316,5.27-7.218,4.784-11.631-.346-3.148-2.912-3.307-3.117-6.246-.4-5.7,8.6-11.046,9.273-10.39.444.429-2.894,3.26-1.974,5.232.933,2,4.9.254,9.592,2.379,5.144,2.327,7.091,7.461,8.224,6.878,1.08-.552-.767-5.178.284-5.7.929-.46,3.706,2.282,5.631,5.418,5.473,8.913,2.959,19.145,2.117,22.569S343.427,214.526,340.871,215.109Z" transform="translate(-116.904 -161.677)" fill="#15a564"/>
  <path id="Path_106790" data-name="Path 106790" d="M315.613,195.888a2.429,2.429,0,1,0,2.534-2.158A2.356,2.356,0,0,0,315.613,195.888Z" transform="translate(-112.045 -138.829)" fill="#fff"/>
  <path id="Path_106791" data-name="Path 106791" d="M327.658,199.472c-.18,3.661,1.17,6.7,3.019,6.794s3.493-2.8,3.675-6.461-1.17-6.7-3.017-6.792S327.84,195.813,327.658,199.472Z" transform="translate(-100.535 -139.514)" fill="#fff"/>
  <path id="Path_106792" data-name="Path 106792" d="M284.8,320.04a14.421,14.421,0,0,0-2.019,6.181c-.354,4.387,1.571,7.647,3.992,11.619A48.749,48.749,0,0,0,298.29,350.4a65.885,65.885,0,0,0,5.371,3.978,12.423,12.423,0,0,0,.417-5.547c-.74-4.54-4.082-7.436-5.287-8.543C295.4,337.177,290.662,331.475,284.8,320.04Z" transform="translate(-143.491 -17.981)" fill="#f2b07b"/>
  <path id="Path_106793" data-name="Path 106793" d="M275.982,289.762a59.026,59.026,0,0,0,22.086,7.567,60.36,60.36,0,0,0,34.368-5.911,53.485,53.485,0,0,1-30.958,10.077,45.321,45.321,0,0,1-8.1-1.734A46.955,46.955,0,0,1,275.982,289.762Z" transform="translate(-149.959 -46.949)" fill="#baa53d"/>
  <path id="Path_106794" data-name="Path 106794" d="M328.571,270.805c-.881-.225-1.908,5.763-7.639,15.977-6.395,11.4-12.278,16.707-11.423,17.589s7.9-3,12.807-9.494C330.115,284.557,329.859,271.136,328.571,270.805Z" transform="translate(-117.963 -65.091)" fill="#baa53d"/>
  <path id="Path_106795" data-name="Path 106795" d="M346.536,264.572c-.755-.127-1.409,4.346-4.608,12.335-6.377,15.92-13.969,23.59-12.922,24.487,1.012.863,9.6-4.935,14.421-14.419C348.78,276.436,347.732,264.774,346.536,264.572Z" transform="translate(-99.323 -71.051)" fill="#baa53d"/>
  <path id="Path_106796" data-name="Path 106796" d="M288.113,246.379a12.283,12.283,0,0,0,8.3,1.556c-.346,2.464-1.859,15.065,6.729,25.463a30.938,30.938,0,0,0,11.936,8.768,12.536,12.536,0,0,0,16.861,13.218c.014.327.485,7.322,6.712,10.611a12.705,12.705,0,0,0,13.169-.869,21.575,21.575,0,0,0,10.989,1.117c10.036-1.689,15.065-10.279,15.8-11.6a7.606,7.606,0,0,0,5.966,2.583,7.811,7.811,0,0,0,6.1-4.076,11.651,11.651,0,0,0,5.248,1.6c8.14.342,15.3-9.011,17.779-16.828,1.949-6.15,1.1-11.643-.055-16.192-.771,4.861-2.886,8.41-5.776,9.87-4.68,2.362-11.02-.9-13.658-2.464,1.3,6.128-1.753,12.091-6.829,14.208a12.075,12.075,0,0,1-11.9-1.867c-.826,1.235-4.007,5.68-9.25,6.432-6.7.965-14.347-4.436-16.934-13.6q-6.513,14.329-11.144,13.736-7.622-.96-10.15-42.352c-6.606,11.175-16.153,15.562-20.053,13.3-3.729-2.176-4.551-11.76.335-22.186-5.044,2.119-10.713.93-13.9-2.73a10.337,10.337,0,0,1-1.837-3.051,10.766,10.766,0,0,1-4.039,1.565c-2.254.368-4.53-.061-5.7,1.534C280.842,236.812,283.372,243.42,288.113,246.379Z" transform="translate(-144.065 -103.145)" fill="#bf7726"/>
  <path id="Path_106797" data-name="Path 106797" d="M277.877,274.773c-14.47,2.544-18.616,5.2-18.745,7.492-.141,2.536,4.626,4.929,7.882,5.749,9.776,2.464,18.2-6.158,18.975-6.97a8.81,8.81,0,0,1-5.755-2.327A8.6,8.6,0,0,1,277.877,274.773Z" transform="translate(-166.084 -61.289)" fill="#ffb869"/>
  <path id="Path_106798" data-name="Path 106798" d="M320.121,275.559a49.9,49.9,0,0,0,1.078-11.431c-.239-10.337-3.659-15.4-5.97-28.876-.755-4.409-1.1-8.028-1.276-10.271a99.714,99.714,0,0,1,6.483,13.337c3.252,8.179,5.567,14,5.062,21.43A33.654,33.654,0,0,1,320.121,275.559Z" transform="translate(-113.631 -108.927)" fill="#bf7726"/>
  <path id="Path_106799" data-name="Path 106799" d="M327.62,228.137a28.546,28.546,0,0,0,4.064,10.662c4.544,7.064,9.889,8,14.591,14.5a29.269,29.269,0,0,1,5.174,14.038c2.07-5.78,3.1-12.206.082-17.094-2.366-3.829-5.833-4.475-11.318-8.471A49.4,49.4,0,0,1,327.62,228.137Z" transform="translate(-100.555 -105.908)" fill="#bf7726"/>
  <path id="Path_106800" data-name="Path 106800" d="M346.544,200.048a61.992,61.992,0,0,0-5.05-6.2c-3.17-3.418-4.933-5.318-7.747-6.762-1.841-.947-7.434-3.818-11.658-1.6-3.7,1.941-3.608,6.348-9.461,11.1a10.739,10.739,0,0,1-2.006,1.428c-4.033,2.072-8.025.906-8.545,2.51-.231.706.229,1.914,3.113,4.109a22.7,22.7,0,0,0,5.358-2.542c3.534-2.291,3.608-3.776,7.04-6.455,1.929-1.507,5.4-4.219,10-4.354,1.127-.031,2.714.078,6.058,1.323A45.993,45.993,0,0,1,346.544,200.048Z" transform="translate(-125.042 -147.504)" fill="#530040" opacity="0.39" style="mix-blend-mode: multiply;isolation: isolate"/>
  <path id="Path_106801" data-name="Path 106801" d="M304,179.019c.6-.276,1.428,2.8,4.244,3.614,2.857.83,4.313-1.663,7.543-1.158,3.493.548,5.866,4.1,5.559,4.53-.27.376-2.4-1.976-5.686-1.984-4.317-.01-5.972,4.029-8.5,3.323C304.057,186.472,303.108,179.428,304,179.019Z" transform="translate(-123.46 -152.918)" fill="#530040" opacity="0.39" style="mix-blend-mode: multiply;isolation: isolate"/>
  <path id="Path_106802" data-name="Path 106802" d="M327.623,199.517c-.145,2.935.965,5.377,2.477,5.451s2.857-2.244,3-5.181-.963-5.377-2.477-5.451S327.77,196.58,327.623,199.517Z" transform="translate(-100.564 -138.248)" fill="#203245"/>
  <path id="Path_106803" data-name="Path 106803" d="M320.583,204.9a4.926,4.926,0,0,0,4.876,3.381,14.363,14.363,0,0,0,1.131,2.15,15.217,15.217,0,0,0,5,4.817c.888-1.006,1.888-2.045,3.009-3.088a44.315,44.315,0,0,1,7.218-5.448c1.105.391,2.084.376,2.383-.072.405-.609-.55-1.839-.931-2.33a8.737,8.737,0,0,0-3.021-2.434c-5.315-2.657-5.555-4.935-8.044-4.778-1.423.092-1.945.875-4.917,3.184A70.1,70.1,0,0,1,320.583,204.9Z" transform="translate(-107.288 -135.613)" fill="#fb9e36"/>
  <path id="Path_106804" data-name="Path 106804" d="M321.307,202.841a16.625,16.625,0,0,0,4.379.472c3.248-.088,4.34-1.1,7.477-1.544a16.268,16.268,0,0,1,7.563.567,22.6,22.6,0,0,0-6.119-.114c-3.205.432-6.563,2.045-9.287,2.029a6.494,6.494,0,0,1-2.15-.362A6.392,6.392,0,0,1,321.307,202.841Z" transform="translate(-106.595 -131.303)" fill="#8f6e5b"/>
  <path id="Path_106805" data-name="Path 106805" d="M325.229,198.844c1.514,1.121,1.726,1.554,1.638,1.74-.223.466-2.671.053-2.777-.648C324.035,199.564,324.642,199.153,325.229,198.844Z" transform="translate(-103.936 -133.933)" fill="#8f6e5b"/>
  <path id="Path_106806" data-name="Path 106806" d="M329.123,195.795a1.653,1.653,0,0,0,1.28,1.892c.757.037,1.411-.749,1.462-1.757a1.65,1.65,0,0,0-1.28-1.892C329.828,194,329.174,194.787,329.123,195.795Z" transform="translate(-99.12 -138.533)" fill="#fff"/>
  <path id="Path_106807" data-name="Path 106807" d="M318.364,225.08c2.779,5.1,8.707,9.433,15.094,9.312a14.313,14.313,0,0,0,5.052-1.035,11.883,11.883,0,0,0,4.794,1.094,12.625,12.625,0,0,0,11.183-6.723,12.818,12.818,0,0,0,1.436-5.706,13.052,13.052,0,0,1-11.738,7.171,12.833,12.833,0,0,1-8.647-4.043,13.929,13.929,0,0,1-11.74.055,13.537,13.537,0,0,1-7.406-11.838A19.672,19.672,0,0,0,318.364,225.08Z" transform="translate(-111.454 -120.039)" fill="#530040" opacity="0.39" style="mix-blend-mode: multiply;isolation: isolate"/>
  <path id="Path_106808" data-name="Path 106808" d="M279.252,265.21a43.23,43.23,0,0,1-18.415-6.017c-13.376-8.234-17.748-22.023-21.426-20.8-2.411.8-2.589,7.418-1.947,11.813,2.438,16.685,20.231,25.827,24.144,27.735-1.278-.278-10.572-2.254-11.574.108-.738,1.738,3.207,5.387,6.792,7.14,8.522,4.168,18.477-.685,21.552-2.334Z" transform="translate(-187.116 -96.165)" fill="#baa53d"/>
  <path id="Path_106809" data-name="Path 106809" d="M279.971,251.684c-20.305-8.7-27-8.5-28.791-6.021-2.239,3.092,2.5,10.586,3.007,11.378a21.271,21.271,0,0,0,10.06,8.154c-3.841-1.456-7.469-1.462-8.948.321-2.334,2.816,1.642,8.936,2.55,10.333,5.669,8.727,16.444,11.238,21.859,12.057-.477-.393-5.422-4.608-4.815-10.958a12.318,12.318,0,0,1,3.152-6.988,19.822,19.822,0,0,1-1.389-7.98A20.062,20.062,0,0,1,279.971,251.684Z" transform="translate(-174.26 -90.558)" fill="#ffb869"/>
</svg>
