<svg xmlns="http://www.w3.org/2000/svg" width="70.153" height="86.305" viewBox="0 0 70.153 86.305">
  <g id="egg" transform="translate(-47.912)">
    <circle id="Elipse_4067" data-name="Elipse 4067" cx="11.014" cy="11.014" r="11.014" transform="translate(73.556 38.048)" fill="#f1d54e"/>
    <path id="Trazado_105014" data-name="Trazado 105014" d="M97.048,235.192H90a2.43,2.43,0,0,1-2.43-2.43v-7.046a2.43,2.43,0,0,0-2.43-2.43H78.1a2.43,2.43,0,0,1-2.43-2.43V213.81a2.43,2.43,0,0,0-2.43-2.43h-3.6a5.353,5.353,0,0,0-3.057.956,32.621,32.621,0,0,0-4.413,3.628A23.141,23.141,0,0,0,94.895,248.69a32.633,32.633,0,0,0,3.628-4.413,5.353,5.353,0,0,0,.956-3.057v-3.6A2.431,2.431,0,0,0,97.048,235.192Z" transform="translate(-6.218 -175.749)" fill="#ffd4a5"/>
    <path id="Trazado_105015" data-name="Trazado 105015" d="M179.643,269.05H172.6a2.43,2.43,0,0,1-2.43-2.43v-7.046a2.43,2.43,0,0,0-2.43-2.43h-7.046a2.43,2.43,0,0,1-2.43-2.43V252.1a7.128,7.128,0,0,0-3.531,6.156,6.736,6.736,0,0,0,5.289,6.579,5.078,5.078,0,0,1,5.062,4.678h0a10.206,10.206,0,0,0,10.174,9.4h0a3.3,3.3,0,0,1,3.219,2.587,35.244,35.244,0,0,0,2.643-3.368,5.353,5.353,0,0,0,.956-3.057v-3.6A2.431,2.431,0,0,0,179.643,269.05Z" transform="translate(-88.813 -209.607)" opacity="0.1"/>
    <path id="Trazado_105016" data-name="Trazado 105016" d="M221.707,7.5c-9.837,0-18.239,13.5-21.589,25.541a.753.753,0,0,0,1.259.73L203.151,32a2.43,2.43,0,0,1,3.437,0l4.982,4.982a2.43,2.43,0,0,0,3.437,0L219.988,32a2.43,2.43,0,0,1,3.437,0l4.982,4.982a2.43,2.43,0,0,0,3.437,0L236.826,32a2.43,2.43,0,0,1,3.437,0l1.773,1.773a.753.753,0,0,0,1.259-.73C239.946,21,231.543,7.5,221.707,7.5Z" transform="translate(-126.525 -6.236)" fill="#ffd4a5"/>
    <path id="Trazado_105017" data-name="Trazado 105017" d="M200.119,34.532a.753.753,0,0,0,1.259.73l1.773-1.773a2.43,2.43,0,0,1,3.437,0l4.982,4.982a2.416,2.416,0,0,0,1.188.651c-3.843-13.22,2.077-25.136,6.4-29.828C210.439,11.344,203.175,23.541,200.119,34.532Z" transform="translate(-126.526 -7.727)" opacity="0.1"/>
    <path id="Trazado_105018" data-name="Trazado 105018" d="M192.172,241.318h0a8.189,8.189,0,0,1-7.328-4.534l-.923-1.852a5.65,5.65,0,0,0-5.056-3.128H174.52a7.133,7.133,0,0,0-7.133,7.133,6.736,6.736,0,0,0,5.289,6.579h0a5.078,5.078,0,0,1,5.062,4.678h0a10.206,10.206,0,0,0,10.174,9.4h0a3.3,3.3,0,0,1,3.3,3.3v10.27a4.607,4.607,0,0,0,4.607,4.607h0a4.607,4.607,0,0,0,4.607-4.607V249.57A8.251,8.251,0,0,0,192.172,241.318Z" transform="translate(-99.336 -192.73)" fill="#f0f1f1"/>
    <path id="Trazado_105019" data-name="Trazado 105019" d="M70.916,211.379H69.637a5.353,5.353,0,0,0-3.057.956,32.619,32.619,0,0,0-4.413,3.628,23.144,23.144,0,0,0,23.859,38.261C58.583,247.982,65.716,222.458,70.916,211.379Z" transform="translate(-6.217 -175.748)" opacity="0.1"/>
    <path id="Trazado_105020" data-name="Trazado 105020" d="M195.7,270.948c.7-7.04-.173-12.155-3.387-14.437-4.875-3.461-8.412-3.623-10-8.776-1.029-3.348-2.356-5.444-6.987-6.988-3.76-1.253-2.956-6.2-1.27-8.846a7.132,7.132,0,0,0-6.678,7.117,6.736,6.736,0,0,0,5.289,6.579h0a5.078,5.078,0,0,1,5.062,4.678h0a10.206,10.206,0,0,0,10.174,9.4h0a3.3,3.3,0,0,1,3.3,3.3v10.27a4.607,4.607,0,0,0,4.607,4.607h0a4.6,4.6,0,0,0,3.793-1.993C197.354,276.008,195.364,274.346,195.7,270.948Z" transform="translate(-99.336 -192.811)" opacity="0.05"/>
    <path id="Trazado_105021" data-name="Trazado 105021" d="M96.814,48.2A12.293,12.293,0,0,0,84.57,36.785a12.162,12.162,0,0,0-4.912,1.03c-.043,0-.086,0-.129,0H75.184A8.344,8.344,0,0,0,70.713,39.1V38.061a3.7,3.7,0,0,0-3.695-3.694h-3.6a6.584,6.584,0,0,0-3.779,1.182,33.811,33.811,0,0,0-4.585,3.771,24.2,24.2,0,0,0-6.9,13.755A24.613,24.613,0,0,0,50.7,67.928a1.264,1.264,0,1,0,2.238-1.176,22.062,22.062,0,0,1-2.277-13.315,21.692,21.692,0,0,1,6.182-12.328,31.271,31.271,0,0,1,4.241-3.484A4.067,4.067,0,0,1,63.42,36.9h3.6a1.167,1.167,0,0,1,1.166,1.166v3.515a8.347,8.347,0,0,0-1.4,4.631,8.05,8.05,0,0,0,6.282,7.814,1.267,1.267,0,0,0,.272.029,3.833,3.833,0,0,1,3.8,3.513A11.47,11.47,0,0,0,88.576,68.13a2.033,2.033,0,0,1,1.738.983,28.837,28.837,0,0,1-2.532,2.934,21.9,21.9,0,0,1-30.939,0c-.246-.246-.488-.5-.722-.757a1.264,1.264,0,1,0-1.87,1.7c.26.286.531.57.8.843a24.433,24.433,0,0,0,34.514,0c.346-.346.693-.716,1.04-1.1v7.7a5.871,5.871,0,0,0,11.742,0V56.839A9.527,9.527,0,0,0,96.814,48.2ZM84.57,39.313a9.764,9.764,0,0,1,9.608,8.107,9.54,9.54,0,0,0-1.341-.1,6.886,6.886,0,0,1-6.2-3.834l-.924-1.852a6.928,6.928,0,0,0-1.842-2.3C84.1,39.324,84.336,39.313,84.57,39.313ZM99.824,80.434a3.343,3.343,0,0,1-6.685,0V70.163A4.567,4.567,0,0,0,88.576,65.6a8.987,8.987,0,0,1-8.914-8.237,6.375,6.375,0,0,0-6.17-5.841,5.507,5.507,0,0,1-4.177-5.317,5.875,5.875,0,0,1,5.869-5.868h4.345c.095,0,.188,0,.282.01l.039,0a4.359,4.359,0,0,1,3.6,2.417l.923,1.852a9.4,9.4,0,0,0,8.46,5.234,7,7,0,0,1,6.987,6.987V80.434h0Zm18.165-53.967a57.553,57.553,0,0,0-4.26-10.848,1.264,1.264,0,1,0-2.246,1.161,55.076,55.076,0,0,1,3.491,8.43l-.342-.342a3.7,3.7,0,0,0-5.225,0l-4.982,4.982a1.167,1.167,0,0,1-1.649,0l-4.982-4.982a3.7,3.7,0,0,0-5.225,0L87.588,29.85a1.167,1.167,0,0,1-1.649,0l-4.982-4.982a3.7,3.7,0,0,0-5.225,0l-.342.342a50.358,50.358,0,0,1,7.568-14.922c2.72-3.54,7.048-7.76,12.225-7.76,4.474,0,9.22,3.312,13.363,9.326a1.264,1.264,0,1,0,2.082-1.434C105.931,3.6,100.59,0,95.182,0,90.27,0,85.349,3.025,80.953,8.748a53.759,53.759,0,0,0-8.577,17.719,2.017,2.017,0,0,0,3.371,1.963l1.773-1.773a1.167,1.167,0,0,1,1.649,0l4.982,4.982a3.7,3.7,0,0,0,5.225,0l4.982-4.982a1.167,1.167,0,0,1,1.649,0l4.982,4.982a3.7,3.7,0,0,0,5.225,0l4.982-4.982a1.167,1.167,0,0,1,1.649,0l1.773,1.773a2.017,2.017,0,0,0,3.371-1.963Z" transform="translate(0 0)"/>
  </g>
</svg>
