<svg xmlns="http://www.w3.org/2000/svg" width="73" height="73" viewBox="0 0 73 73">
  <g id="escoba" transform="translate(-2.433 -2.433)">
    <path id="Trazado_107073" data-name="Trazado 107073" d="M23.117,6.083V51.1H18.25V6.083a2.433,2.433,0,1,1,4.867,0Z" fill="#bf7726"/>
    <path id="Trazado_107074" data-name="Trazado 107074" d="M36.1,69.35H5.268L9.733,55.967h21.9Z" fill="#15a564"/>
    <path id="Trazado_107075" data-name="Trazado 107075" d="M36.1,69.35l1.618,4.867H3.65L5.268,69.35Z" fill="#17c878"/>
    <path id="Trazado_107076" data-name="Trazado 107076" d="M37.717,55.967v18.25L36.1,69.35,31.633,55.967H9.733L5.268,69.35,3.65,74.217V55.967A4.867,4.867,0,0,1,8.517,51.1H32.85A4.867,4.867,0,0,1,37.717,55.967Z" fill="#17c878"/>
    <path id="Trazado_107077" data-name="Trazado 107077" d="M60.833,6.083V45.017H55.967V6.083a2.433,2.433,0,0,1,4.867,0Z" fill="#bf7726"/>
    <path id="Trazado_107078" data-name="Trazado 107078" d="M74.217,74.217H42.583l6.083-25.55c.085.012,19.381.012,19.467,0Z" fill="#f1d54e"/>
    <rect id="Rectángulo_31387" data-name="Rectángulo 31387" width="24.333" height="4.867" rx="2.433" transform="translate(46.233 45.017)" fill="#c0ab91"/>
    <path id="Trazado_107079" data-name="Trazado 107079" d="M32.85,49.883H24.333V6.083a3.65,3.65,0,1,0-7.3,0v43.8H8.517a6.083,6.083,0,0,0-6.083,6.083v18.25A1.217,1.217,0,0,0,3.65,75.433H37.717a1.217,1.217,0,0,0,1.217-1.217V55.967A6.083,6.083,0,0,0,32.85,49.883ZM19.467,6.083a1.217,1.217,0,1,1,2.433,0v43.8H19.467ZM5.341,73l.8-2.433H35.222l.8,2.433Zm1.618-4.867,3.65-10.95H30.757l3.65,10.95ZM36.5,66.722,32.789,55.577a1.234,1.234,0,0,0-1.156-.827H9.733a1.234,1.234,0,0,0-1.156.827L4.867,66.722V55.967a3.661,3.661,0,0,1,3.65-3.65H32.85a3.661,3.661,0,0,1,3.65,3.65Z"/>
    <path id="Trazado_107080" data-name="Trazado 107080" d="M75.4,73.937,69.849,50.65a3.637,3.637,0,0,0-1.715-6.85H62.05V6.083a3.65,3.65,0,1,0-7.3,0V43.8H48.667a3.637,3.637,0,0,0-1.715,6.85L41.4,73.937a1.2,1.2,0,0,0,1.18,1.5H74.217a1.2,1.2,0,0,0,1.18-1.5ZM57.183,6.083a1.217,1.217,0,1,1,2.433,0V43.8H57.183Zm-8.517,40.15H68.133a1.217,1.217,0,1,1,0,2.433H48.667a1.217,1.217,0,0,1,0-2.433ZM69.35,73V65.7H66.917V73H64.483V60.833H62.05V73H59.617V57.183H57.183V73H54.75V60.833H52.317V73H49.883V65.7H47.45V73H44.128l5.207-21.9H67.464L72.671,73Z"/>
  </g>
</svg>
