<svg id="haz" xmlns="http://www.w3.org/2000/svg" width="73" height="73" viewBox="0 0 73 73">
  <path id="Trazado_107024" data-name="Trazado 107024" d="M71.783,31.633l-7.3,7.3L40.15,64.483H31.025a6.688,6.688,0,0,1-6.692-6.692V46.842a6.688,6.688,0,0,1,6.692-6.692H40.15L55.358,24.941a6.688,6.688,0,0,0,6.692,6.692h9.733Z" fill="#afafaf"/>
  <path id="Trazado_107025" data-name="Trazado 107025" d="M71.783,1.217,40.15,32.85H1.217L32.85,1.217Z" fill="#fff"/>
  <path id="Trazado_107026" data-name="Trazado 107026" d="M71.783,1.217,40.15,32.85H1.931L33.17,1.217Z" fill="#e8e8e8"/>
  <g id="Grupo_82617" data-name="Grupo 82617">
    <path id="Trazado_107027" data-name="Trazado 107027" d="M71.783,1.217,40.15,32.85H35.283L66.916,1.217Z" fill="#e8e8e8"/>
    <path id="Trazado_107028" data-name="Trazado 107028" d="M24.333,46.842v10.95a6.688,6.688,0,0,0,6.692,6.692H40.15v7.3H1.217v-7.3h9.125a6.688,6.688,0,0,0,6.692-6.692V46.842a6.688,6.688,0,0,0-6.692-6.692H1.217v-7.3H40.15v7.3H31.025a6.688,6.688,0,0,0-6.692,6.692Z" fill="#e8e8e8"/>
  </g>
  <path id="Trazado_107029" data-name="Trazado 107029" d="M20.683,46.842v10.95a6.688,6.688,0,0,0,6.692,6.692H36.5v7.3H1.217v-7.3h9.125a6.688,6.688,0,0,0,6.692-6.692V46.842a6.688,6.688,0,0,0-6.692-6.692H1.217v-7.3H36.5v7.3H27.375a6.688,6.688,0,0,0-6.692,6.692Z" fill="#e8e8e8"/>
  <g id="Grupo_82618" data-name="Grupo 82618">
    <path id="Trazado_107030" data-name="Trazado 107030" d="M40.15,34.067H1.217a1.217,1.217,0,0,1-.86-2.077L21.04,11.306a1.217,1.217,0,0,1,1.72,1.72L4.154,31.633H39.646l29.2-29.2H33.354L30.06,5.727a1.217,1.217,0,0,1-1.72-1.72L31.99.356A1.217,1.217,0,0,1,32.85,0H71.783a1.217,1.217,0,0,1,.86,2.077L41.01,33.71a1.217,1.217,0,0,1-.86.356Z"/>
    <path id="Trazado_107031" data-name="Trazado 107031" d="M25.671,9.611a1.167,1.167,0,0,1-1.119-.755,1.216,1.216,0,0,1-.1-.462,1.28,1.28,0,0,1,.353-.864A1.228,1.228,0,0,1,25.915,7.2a.754.754,0,0,1,.219.073.914.914,0,0,1,.219.109,1.88,1.88,0,0,1,.183.146,1.28,1.28,0,0,1,.352.864,1.215,1.215,0,0,1-.1.462,1.268,1.268,0,0,1-.256.4,1.979,1.979,0,0,1-.183.146.917.917,0,0,1-.219.109.794.794,0,0,1-.219.073,1.7,1.7,0,0,1-.244.024Z"/>
  </g>
  <path id="Trazado_107032" data-name="Trazado 107032" d="M60.833,42.583l3.65-3.65L40.15,64.483h-.17Z" fill="#ffa800"/>
  <path id="Trazado_107033" data-name="Trazado 107033" d="M68.133,35.283l-7.3,7.3L39.98,64.483H31.025a6.688,6.688,0,0,1-6.692-6.692V46.842a6.764,6.764,0,0,1,.5-2.543,6.691,6.691,0,0,1,6.193-4.149H40.15L51.708,28.591A6.688,6.688,0,0,0,58.4,35.283h9.733Z" fill="#afafaf"/>
  <path id="Trazado_107034" data-name="Trazado 107034" d="M40.15,65.7H31.025a7.918,7.918,0,0,1-7.908-7.908V46.842a7.918,7.918,0,0,1,7.908-7.908h8.621L54.5,24.081a1.217,1.217,0,0,1,2.077.86,5.481,5.481,0,0,0,5.475,5.475h9.733a1.217,1.217,0,0,1,.86,2.077l-7.3,7.3L41.031,65.322a1.217,1.217,0,0,1-.881.378ZM31.025,41.367a5.481,5.481,0,0,0-5.475,5.475v10.95a5.481,5.481,0,0,0,5.475,5.475h8.6L63.6,38.094l5.244-5.244h-6.8a7.923,7.923,0,0,1-7.5-5.384L41.01,41.01a1.217,1.217,0,0,1-.86.356H31.025Z"/>
  <g id="Grupo_82619" data-name="Grupo 82619">
    <path id="Trazado_107035" data-name="Trazado 107035" d="M71.783,1.217v7.3L40.15,40.15v-7.3Z" fill="#afafaf"/>
    <path id="Trazado_107036" data-name="Trazado 107036" d="M71.783,31.633v7.3l-7.3,7.3L40.15,71.783v-7.3l24.333-25.55Z" fill="#afafaf"/>
  </g>
  <g id="Grupo_82620" data-name="Grupo 82620">
    <path id="Trazado_107037" data-name="Trazado 107037" d="M68.133,4.867v7.3L40.15,40.15v-7.3Z" fill="#afafaf"/>
    <path id="Trazado_107038" data-name="Trazado 107038" d="M68.133,35.283v7.3l-7.3,7.3L40.15,71.6V64.483l24.333-25.55Z" fill="#afafaf"/>
  </g>
  <path id="Trazado_107039" data-name="Trazado 107039" d="M40.15,41.367a1.217,1.217,0,0,1-1.217-1.217v-7.3a1.217,1.217,0,0,1,.356-.86L70.923.356A1.217,1.217,0,0,1,73,1.217v7.3a1.217,1.217,0,0,1-.356.86L41.01,41.01A1.215,1.215,0,0,1,40.15,41.367Zm1.217-8.013v3.859l29.2-29.2V4.154Z"/>
  <g id="Grupo_82622" data-name="Grupo 82622">
    <path id="Trazado_107040" data-name="Trazado 107040" d="M40.15,73H1.217A1.217,1.217,0,0,1,0,71.783v-7.3a1.217,1.217,0,0,1,1.217-1.217h9.125a5.481,5.481,0,0,0,5.475-5.475V46.842a5.481,5.481,0,0,0-5.475-5.475H1.217A1.217,1.217,0,0,1,0,40.15v-7.3a1.217,1.217,0,0,1,1.217-1.217H40.15a1.217,1.217,0,0,1,1.217,1.217v7.3a1.217,1.217,0,0,1-1.217,1.217H31.025a5.481,5.481,0,0,0-5.475,5.475v10.95a5.481,5.481,0,0,0,5.475,5.475H40.15a1.217,1.217,0,0,1,1.217,1.217v7.3A1.217,1.217,0,0,1,40.15,73ZM2.433,70.566h36.5V65.7H31.025a7.918,7.918,0,0,1-7.908-7.908V46.842a7.918,7.918,0,0,1,7.908-7.908h7.908V34.067H2.433v4.867h7.908a7.918,7.918,0,0,1,7.908,7.908v10.95A7.918,7.918,0,0,1,10.342,65.7H2.433Z"/>
    <path id="Trazado_107041" data-name="Trazado 107041" d="M40.15,73a1.216,1.216,0,0,1-1.217-1.217v-7.3a1.214,1.214,0,0,1,.336-.839L63.6,38.095l7.321-7.321a1.217,1.217,0,0,1,2.077.86v7.3a1.217,1.217,0,0,1-.356.86l-7.3,7.3L41.031,72.622A1.217,1.217,0,0,1,40.15,73Zm1.217-8.03v3.772L63.6,45.394l6.965-6.965V34.57l-5.223,5.223Z"/>
  </g>
  <path id="Trazado_107043" data-name="Trazado 107043" d="M20.358,53.533v5.551a8.719,8.719,0,0,1-8.723,8.723H6.083Z" transform="translate(-3.499 -3.325)" fill="#e8e8e8"/>
  <g id="Grupo_82623" data-name="Grupo 82623">
    <path id="Trazado_107044" data-name="Trazado 107044" d="M10.342,65.7H1.217a1.217,1.217,0,0,1-.86-2.077L16.173,47.806a1.217,1.217,0,0,1,2.077.86v9.125A7.918,7.918,0,0,1,10.342,65.7ZM4.154,63.266h6.188a5.481,5.481,0,0,0,5.475-5.475V51.6Z"/>
    <path id="Trazado_107045" data-name="Trazado 107045" d="M30.417,59.555a1.205,1.205,0,1,1,.864-.353,1.2,1.2,0,0,1-.864.353Z"/>
    <path id="Trazado_107046" data-name="Trazado 107046" d="M34.067,55.735a1.217,1.217,0,0,1-.88-2.057L34.4,52.4a1.217,1.217,0,0,1,1.761,1.68l-1.217,1.275a1.213,1.213,0,0,1-.88.377Z"/>
    <path id="Trazado_107047" data-name="Trazado 107047" d="M38.933,50.637a1.217,1.217,0,0,1-.88-2.057L39.27,47.3a1.217,1.217,0,0,1,1.761,1.68L39.814,50.26a1.214,1.214,0,0,1-.88.377Z"/>
    <path id="Trazado_107048" data-name="Trazado 107048" d="M43.8,45.538a1.217,1.217,0,0,1-.88-2.057l1.217-1.275a1.217,1.217,0,0,1,1.761,1.68L44.68,45.162A1.214,1.214,0,0,1,43.8,45.538Z"/>
    <path id="Trazado_107049" data-name="Trazado 107049" d="M48.667,40.44a1.217,1.217,0,0,1-.88-2.057L49,37.108a1.217,1.217,0,0,1,1.761,1.68l-1.217,1.275a1.213,1.213,0,0,1-.88.377Z"/>
    <path id="Trazado_107050" data-name="Trazado 107050" d="M53.533,35.344a1.216,1.216,0,0,1-.864-.365,1.156,1.156,0,0,1-.353-.852,1.217,1.217,0,0,1,2.08-.864,1.259,1.259,0,0,1,.353.864,1.158,1.158,0,0,1-.353.852,1.216,1.216,0,0,1-.864.365Z"/>
  </g>
</svg>
