<svg xmlns="http://www.w3.org/2000/svg" width="73" height="72.333" viewBox="0 0 73 72.333">
  <g id="Page-1" transform="translate(0 -0.667)">
    <g id="_005---Factory-" data-name="005---Factory-">
      <g id="Icons" transform="translate(1.217 1.217)">
        <path id="Shape" d="M46.83,29.09,36.5,35.283V30.137a1.217,1.217,0,0,0-1.837-1.046l-10.33,6.193V30.137A1.217,1.217,0,0,0,22.5,29.09L12.167,35.283V30.137A1.217,1.217,0,0,0,10.33,29.09L0,35.283v2.433H48.667v-7.58A1.217,1.217,0,0,0,46.83,29.09Z" fill="#636363"/>
        <path id="Shape-2" data-name="Shape" d="M30.477,2.251a8.443,8.443,0,0,1,1.132-.183l-.158.45c-.024-.012-.061-.024-.085-.036A7.321,7.321,0,0,0,30.477,2.251Z" fill="#607d8b"/>
        <path id="Shape-3" data-name="Shape" d="M58.4,2.421A8.674,8.674,0,0,0,51.343.876l-.742.146A12.7,12.7,0,0,0,47.45,2.166l-.28.256a7.581,7.581,0,0,0-1.728-.973,11.558,11.558,0,0,0-5.913-.6,10.562,10.562,0,0,0-1.083.17,15.654,15.654,0,0,0-3.163.985l-.182.511c-.024-.012-.061-.024-.085-.036a9.209,9.209,0,0,0-3.407-.414l-.158.45c-.024-.012-.061-.024-.085-.036a7.321,7.321,0,0,0-.888-.231,6.215,6.215,0,0,0-1.947.8,6.789,6.789,0,0,0-2.689,7.58,5.83,5.83,0,0,0,4.611,3.759l-.037.207s0,6.083,9.733,6.083l.073-.049a5.746,5.746,0,0,0,2.19,1.728,7.16,7.16,0,0,0,1.886.584,10.4,10.4,0,0,0,1.934.17,8.717,8.717,0,0,0,7.422-4.149L60.833,7.3A6.767,6.767,0,0,0,58.4,2.421Z" fill="#afafaf"/>
        <path id="Shape-4" data-name="Shape" d="M63.267,13.651v5.816h-7.3V13.651a1.49,1.49,0,0,1,1.484-1.484h4.331A1.49,1.49,0,0,1,63.267,13.651Z" fill="#fb9e36"/>
        <path id="Shape-5" data-name="Shape" d="M66.917,45.017h-14.6l3.334-25.55.316-2.433h7.3Z" fill="#fb9e36"/>
        <path id="Shape-6" data-name="Shape" d="M70.567,45.053V66.917H46.233V43.8h23.08a1.252,1.252,0,0,1,1.253,1.253Z" fill="#fb9e36"/>
        <rect id="Rectangle-path" width="48.667" height="31.633" transform="translate(0 35.283)" fill="#fb9e36"/>
        <rect id="Rectangle-path-2" data-name="Rectangle-path" width="8.517" height="7.3" rx="1.217" transform="translate(4.867 49.883)" fill="#12263f"/>
        <rect id="Rectangle-path-3" data-name="Rectangle-path" width="8.517" height="7.3" rx="1.217" transform="translate(18.25 49.883)" fill="#12263f"/>
        <path id="Shape-7" data-name="Shape" d="M43.8,47.527v19.39H31.633V47.527a1.26,1.26,0,0,1,1.217-1.293h9.733A1.26,1.26,0,0,1,43.8,47.527Z" fill="#afafaf"/>
        <path id="Shape-8" data-name="Shape" d="M57.183,57.183H62.05A1.217,1.217,0,0,1,63.267,58.4v7.3h-7.3V58.4A1.217,1.217,0,0,1,57.183,57.183Z" fill="#12263f"/>
        <path id="Shape-9" data-name="Shape" d="M70.567,65.7v3.65a1.217,1.217,0,0,1-1.217,1.217H1.217A1.217,1.217,0,0,1,0,69.35V65.7Z" fill="#fdd834"/>
        <path id="Shape-10" data-name="Shape" d="M66.917,65.7v3.65A1.217,1.217,0,0,1,65.7,70.567H1.217A1.217,1.217,0,0,1,0,69.35V65.7Z" fill="#f1d54e"/>
      </g>
      <g id="Outline">
        <path id="Shape-11" data-name="Shape" d="M2.433,73H70.567A2.433,2.433,0,0,0,73,70.567V45.017A1.217,1.217,0,0,0,71.783,43.8H69.2L65.7,18.164v-4.78a1.217,1.217,0,0,0-1.217-1.217h-7.3a1.217,1.217,0,0,0-1.217,1.217v4.785L52.471,43.8H51.1V29.2a1.217,1.217,0,0,0-1.843-1.043L38.933,34.351V29.2a1.217,1.217,0,0,0-1.843-1.043L26.767,34.351V29.2a1.217,1.217,0,0,0-1.843-1.043l-6.083,3.65a1.217,1.217,0,0,0,1.253,2.085l4.24-2.544v3.935H14.6V29.2a1.217,1.217,0,0,0-1.843-1.043L.59,35.457a1.114,1.114,0,0,0-.1.095A1.2,1.2,0,0,0,.3,35.72a1.119,1.119,0,0,0-.129.191,1.132,1.132,0,0,0-.1.206,1.119,1.119,0,0,0-.05.243A1.077,1.077,0,0,0,0,36.5V70.567A2.433,2.433,0,0,0,2.433,73ZM48.667,37.717V65.7H46.233V48.667A2.433,2.433,0,0,0,43.8,46.233H34.067a2.433,2.433,0,0,0-2.433,2.433V65.7H2.433V43.8H10.95a1.217,1.217,0,0,0,0-2.433H2.433v-3.65Zm-14.6,25.55H40.15a1.217,1.217,0,0,0,0-2.433H34.067V58.4H40.15a1.217,1.217,0,1,0,0-2.433H34.067V53.533H40.15a1.217,1.217,0,1,0,0-2.433H34.067V48.667H43.8V65.7H34.067Zm36.5,7.3H2.433V68.133H70.567Zm-7.3-4.867H58.4V59.617h4.867ZM58.4,14.6h4.867v2.433H58.4Zm-.155,4.867h5.176L66.739,43.8H54.928ZM70.567,46.233V65.7H65.7V59.617a2.433,2.433,0,0,0-2.433-2.433H58.4a2.433,2.433,0,0,0-2.433,2.433V65.7H51.1V52.317h4.867a1.217,1.217,0,0,0,0-2.433H51.1v-3.65Zm-21.9-10.95H42.109l6.558-3.935Zm-12.167,0H29.942L36.5,31.349Zm-24.333,0H5.609l6.558-3.935Z"/>
        <path id="Shape-12" data-name="Shape" d="M15.817,43.8H29.2a1.217,1.217,0,0,0,0-2.433H15.817a1.217,1.217,0,0,0,0,2.433Z"/>
        <path id="Shape-13" data-name="Shape" d="M4.867,52.317v4.867A2.433,2.433,0,0,0,7.3,59.617h6.083a2.433,2.433,0,0,0,2.433-2.433V52.317a2.433,2.433,0,0,0-2.433-2.433H7.3A2.433,2.433,0,0,0,4.867,52.317Zm8.517,4.867H7.3V52.317h6.083Z"/>
        <path id="Shape-14" data-name="Shape" d="M26.767,49.883H20.683a2.433,2.433,0,0,0-2.433,2.433v4.867a2.433,2.433,0,0,0,2.433,2.433h6.083A2.433,2.433,0,0,0,29.2,57.183V52.317A2.433,2.433,0,0,0,26.767,49.883Zm-6.083,7.3V52.317h6.083v4.867Z"/>
        <path id="Shape-15" data-name="Shape" d="M60.833,52.317h6.083a1.217,1.217,0,0,0,0-2.433H60.833a1.217,1.217,0,0,0,0,2.433Z"/>
        <path id="Shape-16" data-name="Shape" d="M30.5,16.521c.335,1.8,2.034,6.4,10.4,6.576A8.558,8.558,0,0,0,47.45,25.55l1.3-.785a1.217,1.217,0,0,0,1.138.785h1.589l-2.011-1.217,2.011-1.217H49.883a1.217,1.217,0,0,0-1.138.785l-1.3-.785c-5.84,0-6.076-4.367-6.083-4.873a1.217,1.217,0,0,0-2.433.006,7.057,7.057,0,0,0,.427,2.318c-4.171-.457-5.681-2.3-6.212-3.565.185.01.375.03.554.03a1.217,1.217,0,1,0,0-2.433c-2.088,0-4.778-.813-5.486-3.106A5.561,5.561,0,0,1,30.406,5.3a6.586,6.586,0,0,1,5.456-.445,15.309,15.309,0,0,1,2.508,1.085A1.217,1.217,0,0,0,39.51,3.792c-.122-.064-.232-.11-.352-.169.251-.064.5-.14.749-.191,1.834-.365,5.277-.685,7.745,1.177a5.322,5.322,0,0,1,2.23,3.943A1.217,1.217,0,0,0,51.1,9.733h.035a1.217,1.217,0,0,0,1.181-1.252A7.412,7.412,0,0,0,50.45,3.923a11.479,11.479,0,0,1,1.633-.5c1.6-.35,4.606-.667,6.749,1.145a5.513,5.513,0,0,1,2,3.975A1.217,1.217,0,0,0,62.05,9.733h.03a1.217,1.217,0,0,0,1.186-1.247A7.987,7.987,0,0,0,60.4,2.712,10.084,10.084,0,0,0,51.564,1.05a13.658,13.658,0,0,0-3.185,1.135,12.585,12.585,0,0,0-8.949-1.14,16.837,16.837,0,0,0-3.415,1.063,1.217,1.217,0,0,0-.286.2,8.831,8.831,0,0,0-6.63.937,7.958,7.958,0,0,0-3.208,8.967A6.681,6.681,0,0,0,30.5,16.521Z"/>
      </g>
    </g>
  </g>
</svg>
