<svg xmlns="http://www.w3.org/2000/svg" width="54.465" height="73" viewBox="0 0 54.465 73">
  <g id="magazine" transform="translate(-9.268)">
    <g id="Grupo_82613" data-name="Grupo 82613">
      <rect id="Rect치ngulo_31381" data-name="Rect치ngulo 31381" width="39.661" height="58.147" transform="translate(22.987 7.401)" fill="#f1f5ec"/>
      <path id="Trazado_106960" data-name="Trazado 106960" d="M10.351,65.6c0-.055,0-.108,0-.163V65.6Z" fill="#e5e9ea"/>
      <path id="Trazado_106961" data-name="Trazado 106961" d="M22.987,7.4V65.6a6.318,6.318,0,0,0-12.634-.163V7.4h0a6.318,6.318,0,0,1,12.636,0Z" fill="#f1f5ec"/>
      <path id="Trazado_106963" data-name="Trazado 106963" d="M59.956,71.916H16.67A6.317,6.317,0,1,1,22.987,65.6l39.661-.052" fill="#d1d1d1"/>
      <path id="Trazado_106964" data-name="Trazado 106964" d="M19.78,65.6V68.71H16.669A3.111,3.111,0,1,1,19.78,65.6Z" fill="#566368"/>
      <path id="Trazado_106986" data-name="Trazado 106986" d="M0,0H13.381V22.7H0Z" transform="translate(26.51 14.856)" fill="#26e690"/>
      <path id="Trazado_106965" data-name="Trazado 106965" d="M34.652,31.36H31.761l-.348,6.191h-4.9V23.432s5.182,0,7.628-1.395Z" fill="#fff"/>
      <rect id="Rect치ngulo_31383" data-name="Rect치ngulo 31383" width="13.381" height="22.695" transform="translate(44.417 28.051)" fill="#53bce9"/>
      <path id="Trazado_106966" data-name="Trazado 106966" d="M35.328,20.735a2.333,2.333,0,0,1-1.19,1.3c-2.446,1.395-7.628,1.395-7.628,1.395V14.856h7.083S36.1,18.036,35.328,20.735Z" fill="#fb9e36"/>
      <path id="Trazado_106967" data-name="Trazado 106967" d="M57.8,38.595V50.746H44.418V46.4l4.788-5.493,3.331,2.949Z" fill="#566368"/>
      <path id="Trazado_106987" data-name="Trazado 106987" d="M3.036,0A3.036,3.036,0,1,1,0,3.036,3.036,3.036,0,0,1,3.036,0Z" transform="translate(47.036 31.624)" fill="#f1d54e"/>
      <path id="Trazado_106968" data-name="Trazado 106968" d="M10.351,65.6c0-.055,0-.108,0-.163V65.6Z" fill="#e5e9ea"/>
    </g>
    <g id="Grupo_82614" data-name="Grupo 82614">
      <path id="Trazado_106969" data-name="Trazado 106969" d="M62.648,58.439a1.084,1.084,0,0,0,1.084-1.084V7.4a1.084,1.084,0,0,0-1.084-1.084H23.991A7.4,7.4,0,0,0,9.268,7.4c0,.012,0,.023,0,.035V65.577c0,.008,0,.015,0,.022a7.41,7.41,0,0,0,7.4,7.4H59.956a1.084,1.084,0,0,0,0-2.168H16.67a5.239,5.239,0,0,1-5.234-5.225s0-.005,0-.008v-.022A5.233,5.233,0,0,1,21.9,65.6a1.084,1.084,0,0,0,1.416,1.032H62.648a1.084,1.084,0,0,0,1.084-1.084V60.969a1.084,1.084,0,1,0-2.168,0v3.494H24.072V29.745a1.084,1.084,0,0,0-2.168,0V60.37a7.39,7.39,0,0,0-10.467,0V7.4c0-.011,0-.021,0-.032A5.234,5.234,0,0,1,21.9,7.4v18.73a1.084,1.084,0,1,0,2.168,0V8.485H61.564v48.87A1.084,1.084,0,0,0,62.648,58.439Z"/>
      <path id="Trazado_106970" data-name="Trazado 106970" d="M39.891,41.006H26.51a1.084,1.084,0,1,0,0,2.168H39.891a1.084,1.084,0,1,0,0-2.168Z"/>
      <path id="Trazado_106971" data-name="Trazado 106971" d="M39.891,45.545H26.51a1.084,1.084,0,1,0,0,2.168H39.891a1.084,1.084,0,1,0,0-2.168Z"/>
      <path id="Trazado_106972" data-name="Trazado 106972" d="M39.891,50.084H26.51a1.084,1.084,0,0,0,0,2.168H39.891a1.084,1.084,0,0,0,0-2.168Z"/>
      <path id="Trazado_106973" data-name="Trazado 106973" d="M39.891,54.623H26.51a1.084,1.084,0,0,0,0,2.168H39.891a1.084,1.084,0,0,0,0-2.168Z"/>
      <path id="Trazado_106974" data-name="Trazado 106974" d="M39.891,59.162H26.51a1.084,1.084,0,1,0,0,2.168H39.891a1.084,1.084,0,1,0,0-2.168Z"/>
      <path id="Trazado_106975" data-name="Trazado 106975" d="M44.417,15.94H57.8a1.084,1.084,0,1,0,0-2.168H44.417a1.084,1.084,0,1,0,0,2.168Z"/>
      <path id="Trazado_106976" data-name="Trazado 106976" d="M44.417,20.479H57.8a1.084,1.084,0,1,0,0-2.168H44.417a1.084,1.084,0,1,0,0,2.168Z"/>
      <path id="Trazado_106977" data-name="Trazado 106977" d="M44.417,25.018H57.8a1.084,1.084,0,1,0,0-2.168H44.417a1.084,1.084,0,1,0,0,2.168Z"/>
      <path id="Trazado_106978" data-name="Trazado 106978" d="M57.8,54.623H44.417a1.084,1.084,0,0,0,0,2.168H57.8a1.084,1.084,0,0,0,0-2.168Z"/>
      <path id="Trazado_106979" data-name="Trazado 106979" d="M57.8,59.162H44.417a1.084,1.084,0,1,0,0,2.168H57.8a1.084,1.084,0,0,0,0-2.168Z"/>
      <path id="Trazado_106980" data-name="Trazado 106980" d="M60.678,67.625H36.195a1.084,1.084,0,1,0,0,2.168H60.678a1.084,1.084,0,1,0,0-2.168Z"/>
      <path id="Trazado_106981" data-name="Trazado 106981" d="M16.67,63.572A2.029,2.029,0,0,1,18.7,65.6a1.084,1.084,0,1,0,2.168,0,4.2,4.2,0,1,0-4.195,4.195H32.581a1.084,1.084,0,0,0,0-2.168H16.67a2.027,2.027,0,1,1,0-4.053Z"/>
      <path id="Trazado_106982" data-name="Trazado 106982" d="M40.975,14.856a1.084,1.084,0,0,0-1.084-1.084H26.51a1.084,1.084,0,0,0-1.084,1.084v22.7a1.084,1.084,0,0,0,1.084,1.084H39.891a1.084,1.084,0,0,0,1.084-1.084ZM33.036,15.94c.673,1.012,1.682,2.981,1.249,4.5-.134.47-1.211,1.167-3.8,1.585a27.431,27.431,0,0,1-2.887.293V15.94h5.443Zm-5.443,8.546a29.786,29.786,0,0,0,3.207-.32,16.183,16.183,0,0,0,2.339-.535l.367,6.644H31.761A1.084,1.084,0,0,0,30.679,31.3l-.291,5.168H27.594ZM38.806,36.467H32.56l.226-4.023h1.866A1.084,1.084,0,0,0,35.735,31.3l-.48-8.7a3.016,3.016,0,0,0,1.115-1.565,6.713,6.713,0,0,0-.639-4.709c-.062-.133-.125-.26-.189-.384h3.264Z"/>
      <path id="Trazado_106983" data-name="Trazado 106983" d="M58.882,28.051A1.084,1.084,0,0,0,57.8,26.967H44.417a1.084,1.084,0,0,0-1.084,1.084v22.7a1.084,1.084,0,0,0,1.084,1.084H57.8a1.084,1.084,0,0,0,1.084-1.084Zm-2.168,1.084v9.01L52.49,42.368,49.923,40.1a1.084,1.084,0,0,0-1.536.1L45.5,43.506V29.135ZM45.5,49.662V46.806l3.8-4.363,4.7,4.163a1.084,1.084,0,0,0,1.437-1.623l-1.327-1.175,2.6-2.6v8.45H45.5Z"/>
      <path id="Trazado_106984" data-name="Trazado 106984" d="M50.072,38.779a4.12,4.12,0,1,0-4.12-4.12A4.124,4.124,0,0,0,50.072,38.779Zm0-6.071A1.951,1.951,0,1,1,48.12,34.66,1.954,1.954,0,0,1,50.072,32.708Z"/>
      <path id="Trazado_106985" data-name="Trazado 106985" d="M31.9,26.737a1.084,1.084,0,0,0-.761-2.03l-1.542.578a1.084,1.084,0,1,0,.761,2.03Z"/>
    </g>
  </g>
</svg>
