<svg xmlns="http://www.w3.org/2000/svg" width="73" height="72.289" viewBox="0 0 73 72.289">
  <g id="papel" transform="translate(0 -0.355)">
    <g id="Grupo_82596" data-name="Grupo 82596">
      <path id="Trazado_106932" data-name="Trazado 106932" d="M10.438,47.542,1.11,21.613a.736.736,0,0,1,.443-.934c12.264-4.41,26.083-8.511,37.9-13.549.528-.333.942,0,1.17.625L55.273,45.52l3.98,11.064a.732.732,0,0,1-.439.934L30.77,67.6l-10.932,3.93a.731.731,0,0,1-.934-.439Z" fill="#fff" fill-rule="evenodd"/>
    </g>
    <g id="Grupo_82597" data-name="Grupo 82597">
      <path id="Trazado_106933" data-name="Trazado 106933" d="M18.214,38.938,13.556,11.783a.731.731,0,0,1,.593-.844l32.076-5.5,7.346-1.21c.4-.175,1.056.028,1.21.926l7.935,39.613L64.7,56.357a.734.734,0,0,1-.593.844L34.738,62.237,23.286,64.2a.74.74,0,0,1-.845-.6Z" fill="#fff" fill-rule="evenodd"/>
    </g>
    <g id="Grupo_82598" data-name="Grupo 82598">
      <path id="Trazado_106934" data-name="Trazado 106934" d="M27.2,30.931V57.039a.764.764,0,0,0,.759.763H71.172a.764.764,0,0,0,.759-.763v-46.5H64.215c-.743,0-2.286.106-2.286-1.579l-.016-7.532H27.96a.761.761,0,0,0-.759.759V30.931Z" fill="#fff" fill-rule="evenodd"/>
    </g>
    <g id="Grupo_82599" data-name="Grupo 82599">
      <path id="Trazado_106935" data-name="Trazado 106935" d="M14.328,16.286C9.983,17.747,5.678,19.2,1.553,20.679a.736.736,0,0,0-.443.934l9.328,25.929L18.9,71.092a.731.731,0,0,0,.934.439L30.771,67.6,55.68,58.647Z" fill="#f1f5ec" fill-rule="evenodd"/>
    </g>
    <g id="Grupo_82600" data-name="Grupo 82600">
      <path id="Trazado_106936" data-name="Trazado 106936" d="M27.2,8.7,14.149,10.938a.731.731,0,0,0-.593.844l.771,4.5,3.886,22.653L22.441,63.6a.74.74,0,0,0,.845.6l11.451-1.965,20.942-3.589L60.6,57.8H58.027Z" fill="#f1f5ec" fill-rule="evenodd"/>
    </g>
    <g id="Grupo_82601" data-name="Grupo 82601">
      <path id="Trazado_106937" data-name="Trazado 106937" d="M71.931,44.773V10.418c0-.219-.093-.256-.43-.585L63.172,1.891c-.394-.374-.459-.467-.69-.467H27.96a.761.761,0,0,0-.759.759V57.039a.764.764,0,0,0,.759.763H71.171a.764.764,0,0,0,.759-.763Z" fill="#f1f5ec" fill-rule="evenodd"/>
    </g>
    <g id="Grupo_82602" data-name="Grupo 82602">
      <path id="Trazado_106938" data-name="Trazado 106938" d="M27.2,8.7l-3.058.524v50.62a.762.762,0,0,0,.759.763H44.236l11.443-1.961,4.926-.844H27.96a.764.764,0,0,1-.759-.763V8.7Z" fill="#d1e2b9" fill-rule="evenodd"/>
    </g>
    <g id="Grupo_82603" data-name="Grupo 82603">
      <path id="Trazado_106939" data-name="Trazado 106939" d="M18.214,38.938,14.328,16.286q-1.578.53-3.143,1.06l.483,2.814,3.886,22.653,4.231,24.667a.733.733,0,0,0,.841.6L32.078,66.11l5.433-.93,16.365-5.887-.195-.3-9.446,1.62-9.5,1.628L23.286,64.2a.74.74,0,0,1-.845-.6Z" fill="#d1e2b9" fill-rule="evenodd"/>
    </g>
    <g id="Grupo_82605" data-name="Grupo 82605">
      <path id="Trazado_106941" data-name="Trazado 106941" d="M61.929,8.957c0,1.685,1.543,1.579,2.286,1.579h7.716v-.118c0-.219-.093-.256-.43-.585L63.172,1.892c-.394-.374-.459-.467-.69-.467h-.568Z" fill="#fff" fill-rule="evenodd"/>
    </g>
    <g id="Grupo_82606" data-name="Grupo 82606">
      <path id="Trazado_106942" data-name="Trazado 106942" d="M71.5,9.834,63.172,1.892c-.394-.374-.459-.467-.69-.467h-.568l.016,7.532c0,1.685,1.543,1.579,2.286,1.579h7.715v-.118c0-.219-.093-.256-.43-.585Z" fill="#eaf7d7" fill-rule="evenodd"/>
    </g>
    <path id="Trazado_106943" data-name="Trazado 106943" d="M72.4,9.213,63.781,1a1.748,1.748,0,0,0-1.3-.64H27.96a1.831,1.831,0,0,0-1.829,1.829V7.8L13.965,9.885A1.8,1.8,0,0,0,12.5,11.963l.618,3.6c-3.955,1.331-8.015,2.7-11.935,4.111A1.81,1.81,0,0,0,.1,21.975L7.9,43.649a1.069,1.069,0,0,0,2.012-.724L2.231,21.571c3.693-1.322,7.517-2.616,11.254-3.874L17.16,39.119,21.388,63.79a1.811,1.811,0,0,0,2.079,1.466l11.451-1.965,8.948-1.534L30.409,66.594,19.8,70.41,11.554,47.485a1.069,1.069,0,0,0-2.012.724L17.9,71.459a1.806,1.806,0,0,0,1.692,1.186,1.769,1.769,0,0,0,.608-.108l10.932-3.93,24.822-8.922,4.742-.813H71.171A1.833,1.833,0,0,0,73,57.039V10.418a1.538,1.538,0,0,0-.6-1.2Zm-2.833.253H64.083c-.256,0-.856.006-1.008-.145A.6.6,0,0,1,63,8.954l-.012-5.762Zm1.3,47.266H28.27V35.893a1.069,1.069,0,1,0-2.139,0V57.039a1.833,1.833,0,0,0,1.829,1.833H48.037l-13.48,2.311L23.438,63.09l-4.17-24.333-4.6-26.823L26.131,9.969V30.931a1.069,1.069,0,1,0,2.139,0V2.494H60.846l.014,6.463a2.546,2.546,0,0,0,.708,1.883,3.27,3.27,0,0,0,2.376.767h6.918Z"/>
    <g id="Grupo_82607" data-name="Grupo 82607">
      <path id="Trazado_106944" data-name="Trazado 106944" d="M65.068,18.029H34.494a1.069,1.069,0,1,1,0-2.139H65.068a1.069,1.069,0,0,1,0,2.139Z"/>
    </g>
    <g id="Grupo_82608" data-name="Grupo 82608">
      <path id="Trazado_106945" data-name="Trazado 106945" d="M65.068,25.626H34.494a1.069,1.069,0,1,1,0-2.139H65.068a1.069,1.069,0,0,1,0,2.139Z"/>
    </g>
    <g id="Grupo_82609" data-name="Grupo 82609">
      <path id="Trazado_106946" data-name="Trazado 106946" d="M65.068,33.223H34.494a1.069,1.069,0,1,1,0-2.139H65.068a1.069,1.069,0,0,1,0,2.139Z"/>
    </g>
    <g id="Grupo_82610" data-name="Grupo 82610">
      <path id="Trazado_106947" data-name="Trazado 106947" d="M65.068,40.82H34.494a1.069,1.069,0,1,1,0-2.139H65.068a1.069,1.069,0,0,1,0,2.139Z"/>
    </g>
    <g id="Grupo_82611" data-name="Grupo 82611">
      <path id="Trazado_106948" data-name="Trazado 106948" d="M65.068,48.416H34.494a1.069,1.069,0,1,1,0-2.139H65.068a1.069,1.069,0,0,1,0,2.139Z"/>
    </g>
  </g>
</svg>
