<svg xmlns="http://www.w3.org/2000/svg" width="73" height="49.919" viewBox="0 0 73 49.919">
  <g id="paquete" transform="translate(0 -11.54)">
    <path id="Trazado_106949" data-name="Trazado 106949" d="M28.085,60.39h33.2a1.67,1.67,0,0,0,1.67-1.67V12.61H28.085Z" fill="#fb9e36"/>
    <path id="Trazado_106951" data-name="Trazado 106951" d="M28.085,60.39H11.712a1.67,1.67,0,0,1-1.67-1.67V12.61H28.085Z" fill="#ffb869"/>
    <path id="Trazado_106952" data-name="Trazado 106952" d="M19.113,26.175H1.069L10.042,12.61H28.085Z" fill="#ffb869"/>
    <path id="Trazado_106953" data-name="Trazado 106953" d="M37.058,26.175H71.931L62.958,12.61H28.085Z" fill="#ffb869"/>
    <path id="Trazado_106954" data-name="Trazado 106954" d="M40.955,54.116h9.134V60.39H40.955Z" fill="#15a564"/>
    <g id="Grupo_82612" data-name="Grupo 82612">
      <path id="Trazado_106956" data-name="Trazado 106956" d="M54.4,50.983a1.069,1.069,0,0,0,1.069-1.069v-3l.968.68a1.069,1.069,0,1,0,1.229-1.75l-2.652-1.862a1.069,1.069,0,0,0-1.229,0l-2.652,1.862a1.069,1.069,0,0,0,1.229,1.75l.968-.68v3A1.069,1.069,0,0,0,54.4,50.983Z"/>
      <path id="Trazado_106957" data-name="Trazado 106957" d="M34.126,32.872H44.263a1.069,1.069,0,0,0,0-2.139H34.126a1.069,1.069,0,0,0,0,2.139Z"/>
      <path id="Trazado_106958" data-name="Trazado 106958" d="M34.126,37.1H40.3a1.069,1.069,0,0,0,0-2.139h-6.17a1.069,1.069,0,0,0,0,2.139Z"/>
      <path id="Trazado_106959" data-name="Trazado 106959" d="M72.822,25.585,63.85,12.02a1.069,1.069,0,0,0-.892-.479H10.042a1.069,1.069,0,0,0-.892.479L5.877,16.968a1.069,1.069,0,1,0,1.784,1.18l2.956-4.469H26.1L18.538,25.106H3.059L5.3,21.715a1.069,1.069,0,1,0-1.784-1.18L.177,25.585a1.069,1.069,0,0,0,.892,1.659h7.9V58.721a2.742,2.742,0,0,0,2.739,2.739H32.518a1.069,1.069,0,0,0,0-2.139H29.155V16.165l7.011,10.6a1.069,1.069,0,0,0,.892.479H49.61a1.069,1.069,0,1,0,0-2.139H37.633L30.075,13.679H62.383l7.558,11.427H53.886a1.069,1.069,0,1,0,0,2.139h8V58.721a.6.6,0,0,1-.6.6H51.158V54.116a1.069,1.069,0,0,0-1.069-1.069H40.955a1.069,1.069,0,0,0-1.069,1.069v5.205H36.794a1.069,1.069,0,0,0,0,2.139H61.288a2.742,2.742,0,0,0,2.739-2.739V27.245h7.9a1.069,1.069,0,0,0,.892-1.659ZM11.111,58.721V27.245h8A1.069,1.069,0,0,0,20,26.765l7.012-10.6V59.321h-15.3a.6.6,0,0,1-.6-.6Zm30.913.6V55.185h7v4.136Z"/>
    </g>
  </g>
</svg>
