<svg xmlns="http://www.w3.org/2000/svg" width="112" height="302" viewBox="0 0 112 302">
  <g id="sprite-pollos" transform="translate(13977 21168)">
    <rect id="Rectangle_31436" data-name="Rectangle 31436" width="112" height="302" transform="translate(-13977 -21168)" fill="none"/>
    <g id="Group_83158" data-name="Group 83158" transform="translate(-13964 -20964.576)">
      <g id="Group_82471" data-name="Group 82471" transform="translate(0 86.18)">
        <g id="Group_82468" data-name="Group 82468" style="mix-blend-mode: multiply;isolation: isolate">
          <g id="Group_82467" data-name="Group 82467">
            <path id="Path_106813" data-name="Path 106813" d="M153.991,203.224c0,3.31-19.193,5.994-42.869,5.994s-42.869-2.683-42.869-5.994,19.193-5.994,42.869-5.994S153.991,199.914,153.991,203.224Z" transform="translate(-68.254 -197.23)" fill="#e6e6e6"/>
          </g>
        </g>
        <g id="Group_82470" data-name="Group 82470" transform="translate(15.561 1.001)" style="mix-blend-mode: multiply;isolation: isolate">
          <g id="Group_82469" data-name="Group 82469">
            <path id="Path_106814" data-name="Path 106814" d="M147.105,202.607c0,2.109-12.226,3.818-27.308,3.818s-27.308-1.71-27.308-3.818,12.226-3.818,27.308-3.818S147.105,200.5,147.105,202.607Z" transform="translate(-92.49 -198.789)" fill="#e8e8e8"/>
          </g>
        </g>
      </g>
      <g id="Group_82479" data-name="Group 82479" transform="translate(5.836 0)">
        <g id="Group_82475" data-name="Group 82475">
          <path id="Path_106815" data-name="Path 106815" d="M153.98,110.052c0,14.089-5.043,26.731-13.036,35.356-6.746,7.279-15.593,11.7-25.284,11.7-.686,0-1.369-.023-2.046-.065-.3-.019-.6-.046-.9-.074-.274-.023-.552-.056-.831-.088-.311-.037-.617-.079-.928-.125-.227-.033-.446-.07-.673-.112-.1-.013-.209-.032-.311-.055-.121-.019-.236-.042-.352-.065-.167-.032-.334-.065-.5-.1-.269-.056-.534-.116-.8-.181s-.525-.125-.784-.2a2.965,2.965,0,0,1-.353-.093.213.213,0,0,1-.079-.023,2.21,2.21,0,0,1-.246-.069.092.092,0,0,1-.051-.014c-.186-.051-.366-.107-.547-.162h0c-.214-.065-.422-.134-.636-.209a31.983,31.983,0,0,1-3.684-1.475c-.176-.079-.343-.162-.515-.246-.125-.06-.25-.126-.376-.191-.176-.083-.348-.176-.519-.269-.4-.209-.8-.426-1.192-.659-.153-.088-.3-.171-.446-.265-.431-.255-.863-.524-1.285-.8-.121-.074-.232-.153-.348-.236-1.007-.673-1.981-1.406-2.932-2.19-.06-.046-.116-.092-.167-.139q-.278-.23-.557-.473c-.134-.116-.265-.232-.394-.348-.673-.594-1.332-1.221-1.967-1.87-.195-.2-.385-.394-.57-.594a43.546,43.546,0,0,1-3.215-3.823c-.144-.186-.283-.376-.422-.571-.733-1.011-1.434-2.069-2.1-3.16-.149-.236-.288-.478-.427-.718-.292-.492-.571-.993-.844-1.5-.121-.227-.241-.46-.362-.691-.1-.186-.195-.376-.292-.566-.083-.171-.171-.343-.255-.519-.13-.269-.26-.538-.385-.812-.241-.51-.469-1.03-.692-1.554-.069-.162-.144-.334-.213-.5l-.278-.7c-.084-.2-.163-.408-.241-.617-.01-.023-.014-.042-.023-.065-.1-.256-.2-.515-.288-.775-.186-.506-.362-1.016-.525-1.531q-.153-.459-.292-.919c-.1-.32-.2-.64-.288-.965a.247.247,0,0,1-.019-.065c-.088-.292-.167-.585-.246-.882-.019-.06-.033-.121-.046-.181-.083-.306-.162-.607-.237-.918-.083-.339-.162-.677-.241-1.021s-.153-.687-.223-1.03c-.144-.691-.274-1.387-.39-2.092q-.188-1.107-.325-2.227c-.046-.358-.088-.719-.125-1.077-.023-.2-.046-.413-.065-.622-.023-.25-.046-.5-.065-.747-.024-.269-.047-.538-.06-.812-.024-.315-.042-.635-.056-.955-.009-.1-.014-.2-.019-.3-.023-.455-.037-.909-.046-1.368s-.019-.914-.019-1.373c0-.279,0-.557.009-.835,0-.3.01-.6.019-.9.005-.121.01-.232.01-.348,0-.042,0-.078,0-.116.014-.357.028-.715.051-1.067.014-.269.033-.534.051-.8l.056-.765c.032-.362.065-.719.1-1.081.023-.241.051-.487.078-.728.056-.487.121-.975.186-1.457.06-.408.125-.817.191-1.225s.134-.784.209-1.174q.1-.542.209-1.072c.1-.473.2-.946.311-1.415.088-.376.181-.751.274-1.122.107-.422.223-.844.339-1.262.009-.037.023-.074.032-.111v0c.07-.25.144-.5.218-.742s.144-.487.223-.724c.1-.311.195-.617.3-.923.223-.663.455-1.317.7-1.967.083-.213.162-.427.246-.636.024-.065.051-.125.074-.19.074-.186.148-.371.227-.552.111-.269.223-.538.338-.8.344-.8.71-1.587,1.09-2.357.186-.371.372-.738.562-1.1.013-.024.028-.047.042-.074.176-.334.357-.668.538-1,.051-.083.1-.171.144-.255.158-.274.315-.548.473-.817.042-.069.083-.134.121-.2.2-.334.4-.663.613-.993.19-.3.38-.6.575-.891.065-.093.126-.19.191-.283q.306-.459.626-.9c.162-.227.329-.455.5-.682.241-.325.487-.65.733-.965.167-.218.339-.431.51-.64.195-.241.39-.483.589-.715.236-.278.473-.548.709-.817.177-.2.357-.394.534-.589.315-.344.64-.677.965-1.007.144-.148.288-.292.436-.431.13-.135.265-.265.4-.39.209-.2.418-.4.631-.594.26-.236.525-.473.789-.7.139-.121.278-.241.417-.357.306-.265.617-.516.932-.766.172-.134.339-.264.51-.394.148-.116.3-.227.446-.338.074-.056.148-.112.227-.162.2-.153.4-.3.607-.436a.751.751,0,0,1,.112-.074c.278-.2.557-.385.84-.571.176-.121.357-.236.538-.348.218-.139.436-.274.659-.4.6-.367,1.215-.706,1.832-1.03.139-.074.278-.144.417-.214s.3-.153.455-.222c.209-.107.422-.2.636-.3.2-.093.394-.181.589-.265s.408-.181.617-.265.422-.176.64-.259c.167-.065.334-.13.5-.191L104.6,65c.149-.056.288-.107.437-.158l.023-.009q1.4-.494,2.848-.858c.191-.051.381-.1.575-.139s.381-.089.571-.13c.144-.028.283-.06.431-.088.213-.042.427-.083.645-.121.162-.033.325-.056.487-.083a.423.423,0,0,1,.074-.01c.329-.055.659-.1.993-.144.265-.032.524-.065.788-.088.116-.014.232-.023.348-.032q.459-.049.919-.07c.1-.009.209-.013.315-.019.223-.013.441-.023.663-.028h.033c.3-.009.6-.014.9-.014a31.555,31.555,0,0,1,8.1,1.053c9.334,2.468,17.4,9.1,22.844,18.242A54.283,54.283,0,0,1,153.98,110.052Z" transform="translate(-77.344 -63.005)" fill="#ffd4a5"/>
          <path id="Path_106816" data-name="Path 106816" d="M146.6,82.3c-5.447-9.139-13.51-15.773-22.844-18.242a31.555,31.555,0,0,0-8.1-1.053c-.306,0-.6.005-.9.014h-.033c-.222,0-.44.014-.663.028-.107.005-.213.01-.315.019q-.459.021-.919.07c-.116.009-.232.018-.348.032-.265.023-.524.056-.788.088-.334.042-.663.089-.993.144a.423.423,0,0,0-.074.01c-.162.028-.325.051-.487.083-.218.037-.431.079-.645.121-.148.028-.288.06-.431.088-.19.042-.38.083-.571.13s-.385.088-.575.139q-1.448.362-2.848.858l-.023.009c-.149.051-.288.1-.437.158l-.065.023c-.167.06-.334.125-.5.191-.218.083-.431.171-.64.259s-.413.171-.617.265-.394.171-.589.265c-.213.1-.427.195-.636.3-.153.069-.3.143-.455.222s-.278.139-.417.214c-.617.324-1.23.663-1.832,1.03-.223.13-.441.265-.659.4-.181.112-.362.227-.538.348-.283.186-.562.371-.84.571a.751.751,0,0,0-.112.074c-.2.139-.408.283-.607.436-.079.051-.153.107-.227.162-.148.111-.3.223-.446.338-.171.13-.338.26-.51.394-.315.25-.626.5-.932.766-.139.116-.279.236-.417.357-.265.227-.529.464-.789.7-.213.195-.422.39-.631.594-.134.125-.269.255-.4.39-.148.139-.292.283-.436.431-.325.329-.65.663-.965,1.007-.177.195-.357.39-.534.589-.237.269-.473.539-.709.817-.2.232-.395.473-.589.715-.171.209-.344.422-.51.64-.246.315-.492.64-.733.965-.167.227-.334.455-.5.682q-.32.445-.626.9c-.065.093-.125.19-.191.283-.195.292-.385.589-.575.891-.209.329-.413.659-.613.993-.037.07-.079.135-.121.2-.158.269-.315.543-.473.817-.046.083-.093.171-.144.255-.181.329-.362.664-.538,1-.014.028-.028.051-.042.074-.19.366-.376.733-.562,1.1-.38.77-.747,1.559-1.09,2.357-.116.265-.227.534-.338.8-.079.181-.153.367-.227.552-.023.065-.051.125-.074.19-.083.209-.162.422-.246.636-.246.649-.478,1.3-.7,1.967-.1.306-.2.613-.3.923q-.118.355-.223.724c-.074.246-.148.492-.218.742v0c-.009.037-.023.074-.032.111-.116.418-.232.84-.339,1.262-.092.371-.186.747-.274,1.122-.111.469-.213.942-.311,1.415q-.112.529-.209,1.072c-.074.39-.144.779-.209,1.174s-.13.817-.191,1.225c-.065.482-.13.97-.186,1.457-.028.241-.055.487-.078.728-.037.362-.07.719-.1,1.081l-.056.765c-.019.269-.037.534-.051.8-.023.352-.037.71-.051,1.067,0,.037,0,.074,0,.116,0,.116,0,.227-.01.348-.009.3-.019.6-.019.9-.009.279-.009.557-.009.835,0,.459,0,.919.019,1.373s.023.914.046,1.368c0,.1.01.2.019.3.014.32.032.64.056.955.013.274.037.543.06.812.019.25.042.5.065.747.019.209.042.418.065.622.037.358.079.719.125,1.077q.139,1.12.325,2.227c.116.705.246,1.4.39,2.092q.1.514.223,1.03c.078.344.157.682.241,1.021.074.311.153.612.237.918.013.06.028.121.046.181.079.3.158.589.246.882a.247.247,0,0,0,.019.065c.092.325.186.645.288.965s.19.613.292.919c.162.515.339,1.025.525,1.531.092.26.19.519.288.775.009.023.013.042.023.065.078.209.157.413.241.617l.278.7c.069.167.144.338.213.5.223.525.45,1.044.692,1.554.125.273.255.543.385.812.083.177.171.348.255.519.1.191.2.381.292.566.121.232.241.464.362.691.274.51.552,1.011.844,1.5.139.241.278.482.427.718.663,1.091,1.364,2.148,2.1,3.16.139.2.278.385.422.571a43.546,43.546,0,0,0,3.215,3.823c.186.2.376.4.57.594.636.649,1.294,1.276,1.967,1.87.13.116.26.232.394.348q.278.244.557.473c.051.046.107.092.167.139.952.784,1.926,1.517,2.932,2.19.116.083.227.162.348.236.422.279.853.548,1.285.8.149.093.292.177.446.265.394.232.794.45,1.192.659.171.093.344.186.519.269.125.065.25.13.376.191.172.083.339.167.515.246a31.983,31.983,0,0,0,3.684,1.475c.213.074.422.144.636.209h0c.181.056.361.112.547.162a.092.092,0,0,0,.051.014,2.21,2.21,0,0,0,.246.069.213.213,0,0,0,.079.023,2.965,2.965,0,0,0,.353.093c.259.074.524.139.784.2s.529.125.8.181c.167.037.334.069.5.1.116.024.232.047.352.065.1.023.209.042.311.055.227.042.446.079.673.112.311.046.617.088.928.125.279.032.557.065.831.088.3.028.6.056.9.074.677.042,1.359.065,2.046.065,9.691,0,18.538-4.417,25.284-11.7,7.994-8.624,13.036-21.266,13.036-35.356A54.283,54.283,0,0,0,146.6,82.3Zm-11.371,59.8a31.259,31.259,0,0,1-21.535,8.982c-17.245,0-31.607-15.152-34.734-35.2-.074-.45-.139-.9-.2-1.359a53.485,53.485,0,0,1,.84-18.482c0-.024.009-.042.014-.065.088-.385.181-.77.274-1.151,4.458-17.727,17.908-30.6,33.8-30.6a29.264,29.264,0,0,1,9.626,1.628,35.586,35.586,0,0,1,17.383,13.76,49.5,49.5,0,0,1,8.36,28.044C149.067,121.687,143.649,134.162,135.233,142.1Z" transform="translate(-77.344 -63.005)" fill="#ffd4a5" opacity="0.497" style="mix-blend-mode: multiply;isolation: isolate"/>
          <ellipse id="Ellipse_4396" data-name="Ellipse 4396" cx="30.211" cy="37.097" rx="30.211" ry="37.097" transform="translate(4.533 3.163)" fill="#969696" style="mix-blend-mode: overlay;isolation: isolate"/>
          <g id="Group_82472" data-name="Group 82472" transform="translate(10.895 4.974)" style="mix-blend-mode: screen;isolation: isolate">
            <path id="Path_106818" data-name="Path 106818" d="M97.286,81.441C99.952,79,103.2,78.2,104.549,79.67s.273,4.637-2.393,7.082-5.918,3.238-7.262,1.771S94.62,83.886,97.286,81.441Z" transform="translate(-94.313 -73.68)" fill="#969696"/>
            <path id="Path_106819" data-name="Path 106819" d="M111.893,71.517a2.911,2.911,0,1,1-.178,4.113A2.912,2.912,0,0,1,111.893,71.517Z" transform="translate(-100.268 -70.752)" fill="#969696"/>
          </g>
          <g id="Group_82474" data-name="Group 82474" transform="translate(47.134 71.576)" style="mix-blend-mode: multiply;isolation: isolate">
            <g id="Group_82473" data-name="Group 82473">
              <path id="Path_106820" data-name="Path 106820" d="M163.278,180.27c-2.023,1.761-4.448,2.287-5.417,1.174s-.114-3.442,1.909-5.2,4.448-2.287,5.416-1.174S165.3,178.509,163.278,180.27Z" transform="translate(-153.155 -174.483)" fill="#fcd6be"/>
              <path id="Path_106821" data-name="Path 106821" d="M154.331,189.2a2.158,2.158,0,1,1,.211-3.045A2.158,2.158,0,0,1,154.331,189.2Z" transform="translate(-150.755 -178.397)" fill="#fcd6be"/>
            </g>
          </g>
        </g>
        <g id="Group_82476" data-name="Group 82476" transform="translate(46.388 24.921)">
          <path id="Path_106822" data-name="Path 106822" d="M165.868,118.254a1.04,1.04,0,1,1-1.04-1.041A1.04,1.04,0,0,1,165.868,118.254Z" transform="translate(-154.674 -107.329)" fill="#fcd6be" style="mix-blend-mode: multiply;isolation: isolate"/>
          <path id="Path_106823" data-name="Path 106823" d="M157.345,113.22a1.04,1.04,0,1,1-1.04-1.04A1.04,1.04,0,0,1,157.345,113.22Z" transform="translate(-151.623 -105.528)" fill="#fcd6be" style="mix-blend-mode: multiply;isolation: isolate"/>
          <path id="Path_106824" data-name="Path 106824" d="M171.82,109.807a1.04,1.04,0,1,1-1.04-1.04A1.04,1.04,0,0,1,171.82,109.807Z" transform="translate(-156.804 -104.306)" fill="#fcd6be" style="mix-blend-mode: multiply;isolation: isolate"/>
          <path id="Path_106825" data-name="Path 106825" d="M163.606,113.125a.688.688,0,1,1-.688-.688A.688.688,0,0,1,163.606,113.125Z" transform="translate(-154.117 -105.62)" fill="#fcd6be" style="mix-blend-mode: multiply;isolation: isolate"/>
          <path id="Path_106826" data-name="Path 106826" d="M168.776,115.21a.687.687,0,1,1-.688-.687A.687.687,0,0,1,168.776,115.21Z" transform="translate(-155.967 -106.366)" fill="#fcd6be" style="mix-blend-mode: multiply;isolation: isolate"/>
          <path id="Path_106827" data-name="Path 106827" d="M163.239,123.776a.687.687,0,1,1-.687-.687A.687.687,0,0,1,163.239,123.776Z" transform="translate(-153.985 -109.432)" fill="#fcd6be" style="mix-blend-mode: multiply;isolation: isolate"/>
          <path id="Path_106828" data-name="Path 106828" d="M174.114,114.678a.687.687,0,1,1-.687-.687A.687.687,0,0,1,174.114,114.678Z" transform="translate(-157.878 -106.176)" fill="#fcd6be" style="mix-blend-mode: multiply;isolation: isolate"/>
          <path id="Path_106829" data-name="Path 106829" d="M160.667,119.672a.687.687,0,1,1-.687-.688A.687.687,0,0,1,160.667,119.672Z" transform="translate(-153.065 -107.963)" fill="#fcd6be" style="mix-blend-mode: multiply;isolation: isolate"/>
          <path id="Path_106830" data-name="Path 106830" d="M150.968,116.138a.687.687,0,1,1-.688-.688A.687.687,0,0,1,150.968,116.138Z" transform="translate(-149.593 -106.698)" fill="#fcd6be" style="mix-blend-mode: multiply;isolation: isolate"/>
          <ellipse id="Ellipse_4397" data-name="Ellipse 4397" cx="0.687" cy="0.687" rx="0.687" ry="0.687" transform="translate(1.44 3.994)" fill="#fcd6be" style="mix-blend-mode: multiply;isolation: isolate"/>
          <path id="Path_106831" data-name="Path 106831" d="M162.761,108.146a.687.687,0,1,1,.883.406A.687.687,0,0,1,162.761,108.146Z" transform="translate(-154.291 -103.752)" fill="#fcd6be" style="mix-blend-mode: multiply;isolation: isolate"/>
          <path id="Path_106832" data-name="Path 106832" d="M163.377,102.746a.687.687,0,1,1,.883.406A.687.687,0,0,1,163.377,102.746Z" transform="translate(-154.511 -101.819)" fill="#fcd6be" style="mix-blend-mode: multiply;isolation: isolate"/>
          <path id="Path_106833" data-name="Path 106833" d="M158.678,106.567a1.04,1.04,0,1,1-1.04-1.04A1.04,1.04,0,0,1,158.678,106.567Z" transform="translate(-152.1 -103.146)" fill="#fcd6be" style="mix-blend-mode: multiply;isolation: isolate"/>
          <path id="Path_106834" data-name="Path 106834" d="M156.032,119.874a1.04,1.04,0,1,1-1.04-1.04A1.04,1.04,0,0,1,156.032,119.874Z" transform="translate(-151.153 -107.909)" fill="#fcd6be" style="mix-blend-mode: multiply;isolation: isolate"/>
        </g>
        <g id="Group_82477" data-name="Group 82477" transform="translate(1.758 24.71)">
          <path id="Path_106835" data-name="Path 106835" d="M83.372,118.082a1.04,1.04,0,1,1,.607-1.34A1.041,1.041,0,0,1,83.372,118.082Z" transform="translate(-80.756 -106.709)" fill="#fcd6be" style="mix-blend-mode: multiply;isolation: isolate"/>
          <path id="Path_106836" data-name="Path 106836" d="M85.079,108.331a1.04,1.04,0,1,1,.607-1.339A1.04,1.04,0,0,1,85.079,108.331Z" transform="translate(-81.367 -103.219)" fill="#fcd6be" style="mix-blend-mode: multiply;isolation: isolate"/>
          <path id="Path_106837" data-name="Path 106837" d="M93.375,120.676a1.04,1.04,0,1,1,.607-1.34A1.04,1.04,0,0,1,93.375,120.676Z" transform="translate(-84.336 -107.637)" fill="#fcd6be" style="mix-blend-mode: multiply;isolation: isolate"/>
          <path id="Path_106838" data-name="Path 106838" d="M87.686,114.1a.687.687,0,1,1,.4-.885A.688.688,0,0,1,87.686,114.1Z" transform="translate(-82.471 -105.528)" fill="#fcd6be" style="mix-blend-mode: multiply;isolation: isolate"/>
          <path id="Path_106839" data-name="Path 106839" d="M87.556,119.674a.687.687,0,1,1,.4-.886A.688.688,0,0,1,87.556,119.674Z" transform="translate(-82.424 -107.523)" fill="#fcd6be" style="mix-blend-mode: multiply;isolation: isolate"/>
          <path id="Path_106840" data-name="Path 106840" d="M89.936,124.482a.687.687,0,1,1,.4-.885A.687.687,0,0,1,89.936,124.482Z" transform="translate(-83.276 -109.244)" fill="#fcd6be" style="mix-blend-mode: multiply;isolation: isolate"/>
          <path id="Path_106841" data-name="Path 106841" d="M80.75,113.637a.179.179,0,0,1-.051.023.548.548,0,0,1-.111.033.7.7,0,0,1-.5-.1h-.005c.107-.422.223-.844.339-1.262a.694.694,0,0,1,.677.441A.685.685,0,0,1,80.75,113.637Z" transform="translate(-80.082 -105.371)" fill="#fcd6be" style="mix-blend-mode: multiply;isolation: isolate"/>
          <path id="Path_106842" data-name="Path 106842" d="M88.139,102.823a.688.688,0,1,1,.4-.886A.688.688,0,0,1,88.139,102.823Z" transform="translate(-82.633 -101.491)" fill="#fcd6be" style="mix-blend-mode: multiply;isolation: isolate"/>
          <path id="Path_106843" data-name="Path 106843" d="M92.047,111.556a.687.687,0,1,1-.068.97A.687.687,0,0,1,92.047,111.556Z" transform="translate(-84.28 -105.033)" fill="#fcd6be" style="mix-blend-mode: multiply;isolation: isolate"/>
          <path id="Path_106844" data-name="Path 106844" d="M97.318,110.229a.687.687,0,1,1-.067.97A.688.688,0,0,1,97.318,110.229Z" transform="translate(-86.167 -104.559)" fill="#fcd6be" style="mix-blend-mode: multiply;isolation: isolate"/>
          <path id="Path_106845" data-name="Path 106845" d="M91.775,107.234a1.04,1.04,0,1,1,.607-1.34A1.04,1.04,0,0,1,91.775,107.234Z" transform="translate(-83.764 -102.826)" fill="#fcd6be" style="mix-blend-mode: multiply;isolation: isolate"/>
        </g>
        <g id="Group_82478" data-name="Group 82478" transform="translate(0.009 37.717)">
          <path id="Path_106846" data-name="Path 106846" d="M83.011,140.748a1.04,1.04,0,1,1,.607-1.341A1.04,1.04,0,0,1,83.011,140.748Z" transform="translate(-78.878 -127.829)" fill="#fcd6be" style="mix-blend-mode: multiply;isolation: isolate"/>
          <path id="Path_106847" data-name="Path 106847" d="M77.669,134.174a.713.713,0,0,1-.311.042c0-.3.01-.6.019-.9.005-.121.01-.232.01-.348,0-.042,0-.078,0-.116a.686.686,0,0,1,.278,1.326Z" transform="translate(-77.358 -125.721)" fill="#fcd6be" style="mix-blend-mode: multiply;isolation: isolate"/>
          <path id="Path_106848" data-name="Path 106848" d="M77.591,139.745a.573.573,0,0,1-.171.042c-.023-.455-.037-.909-.046-1.368a.68.68,0,0,1,.617.44A.688.688,0,0,1,77.591,139.745Z" transform="translate(-77.363 -127.716)" fill="#fcd6be" style="mix-blend-mode: multiply;isolation: isolate"/>
          <path id="Path_106849" data-name="Path 106849" d="M79.572,144.554a.687.687,0,1,1,.4-.885A.687.687,0,0,1,79.572,144.554Z" transform="translate(-77.817 -129.436)" fill="#fcd6be" style="mix-blend-mode: multiply;isolation: isolate"/>
          <path id="Path_106850" data-name="Path 106850" d="M78.267,122.96l-.042.014c.06-.408.125-.817.191-1.225a.665.665,0,0,1,.255.325A.686.686,0,0,1,78.267,122.96Z" transform="translate(-77.668 -121.749)" fill="#fcd6be" style="mix-blend-mode: multiply;isolation: isolate"/>
          <path id="Path_106851" data-name="Path 106851" d="M81.683,131.628a.687.687,0,1,1-.068.969A.687.687,0,0,1,81.683,131.628Z" transform="translate(-78.821 -125.225)" fill="#fcd6be" style="mix-blend-mode: multiply;isolation: isolate"/>
          <path id="Path_106852" data-name="Path 106852" d="M86.955,130.3a.687.687,0,1,1-.068.97A.687.687,0,0,1,86.955,130.3Z" transform="translate(-80.708 -124.75)" fill="#fcd6be" style="mix-blend-mode: multiply;isolation: isolate"/>
          <path id="Path_106853" data-name="Path 106853" d="M81.412,127.306a1.04,1.04,0,1,1,.607-1.34A1.04,1.04,0,0,1,81.412,127.306Z" transform="translate(-78.305 -123.017)" fill="#fcd6be" style="mix-blend-mode: multiply;isolation: isolate"/>
        </g>
      </g>
    </g>
    <g id="Group_83159" data-name="Group 83159" transform="translate(-13963.149 -21168)">
      <g id="Group_82485" data-name="Group 82485" transform="translate(0 113.952)">
        <g id="Group_82482" data-name="Group 82482" style="mix-blend-mode: multiply;isolation: isolate">
          <g id="Group_82481" data-name="Group 82481">
            <path id="Path_106854" data-name="Path 106854" d="M381.255,424.259c0,3.277-19,5.934-42.443,5.934s-42.444-2.657-42.444-5.934,19-5.934,42.444-5.934S381.255,420.982,381.255,424.259Z" transform="translate(-296.368 -418.325)" fill="#e6e6e6"/>
          </g>
        </g>
        <g id="Group_82484" data-name="Group 82484" transform="translate(15.406 0.991)" style="mix-blend-mode: multiply;isolation: isolate">
          <g id="Group_82483" data-name="Group 82483">
            <path id="Path_106855" data-name="Path 106855" d="M374.677,423.664c0,2.088-12.1,3.78-27.037,3.78s-27.037-1.693-27.037-3.78,12.1-3.78,27.037-3.78S374.677,421.576,374.677,423.664Z" transform="translate(-320.603 -419.884)" fill="#e8e8e8"/>
          </g>
        </g>
      </g>
      <g id="Group_82556" data-name="Group 82556" transform="translate(2.507 0)">
        <g id="Group_82549" data-name="Group 82549" transform="translate(2.044 23.751)">
          <g id="Group_82489" data-name="Group 82489" transform="translate(0 7.479)">
            <path id="Path_106856" data-name="Path 106856" d="M374.783,323.824c0,19.677-15.951,26.994-35.628,26.994s-35.628-7.317-35.628-26.994a35.628,35.628,0,0,1,71.255,0Z" transform="translate(-303.527 -288.195)" fill="#f1d54e"/>
            <path id="Path_106857" data-name="Path 106857" d="M362.239,318.046c0,14.287-11.582,19.6-25.868,19.6s-25.869-5.313-25.869-19.6a25.869,25.869,0,1,1,51.738,0Z" transform="translate(-306.067 -289.646)" fill="#8e8e8e" style="mix-blend-mode: overlay;isolation: isolate"/>
            <path id="Path_106858" data-name="Path 106858" d="M339.154,288.2a35.63,35.63,0,0,0-35.628,35.629c0,19.675,15.953,26.993,35.628,26.993s35.629-7.318,35.629-26.993A35.63,35.63,0,0,0,339.154,288.2Zm-2,57.07c-17.634,0-31.927-6.558-31.927-24.2a31.929,31.929,0,0,1,63.858,0C369.082,338.707,354.786,345.265,337.152,345.265Z" transform="translate(-303.526 -288.195)" fill="#ffe780" style="mix-blend-mode: multiply;isolation: isolate"/>
            <g id="Group_82486" data-name="Group 82486" transform="translate(12.099 5.125)" style="mix-blend-mode: screen;isolation: isolate">
              <path id="Path_106859" data-name="Path 106859" d="M325.258,302.681c2.163-1.5,4.584-1.748,5.407-.558s-.261,3.367-2.424,4.865-4.583,1.748-5.407.559S323.1,304.179,325.258,302.681Z" transform="translate(-322.558 -298.12)" fill="#969696"/>
              <path id="Path_106860" data-name="Path 106860" d="M337.176,296.633a2.117,2.117,0,1,1-.535,2.946A2.117,2.117,0,0,1,337.176,296.633Z" transform="translate(-327.551 -296.256)" fill="#969696"/>
            </g>
            <g id="Group_82488" data-name="Group 82488" transform="translate(53.821 42.288)" style="mix-blend-mode: multiply;isolation: isolate">
              <g id="Group_82487" data-name="Group 82487">
                <path id="Path_106861" data-name="Path 106861" d="M395.967,358.526c-1.177,1.3-2.713,1.835-3.43,1.187s-.343-2.229.833-3.533,2.713-1.835,3.43-1.187S397.144,357.223,395.967,358.526Z" transform="translate(-389.641 -354.718)" fill="#ffe780"/>
                <path id="Path_106862" data-name="Path 106862" d="M390.654,365.3a1.414,1.414,0,1,1-.1-2A1.413,1.413,0,0,1,390.654,365.3Z" transform="translate(-388.191 -357.712)" fill="#ffe780"/>
              </g>
            </g>
          </g>
          <g id="Group_82490" data-name="Group 82490" transform="translate(31.528 36.782)">
            <path id="Path_106863" data-name="Path 106863" d="M360.973,340.707c-.039.081-.085.163-.131.241-.025.043-.053.085-.078.124a2.181,2.181,0,0,1-.181.226,1.378,1.378,0,0,1-.1.1.141.141,0,0,1-.025.028c-.06.057-.124.113-.191.167a2.4,2.4,0,0,1-.492.3,1.73,1.73,0,0,1-.266.1h0a1.735,1.735,0,0,1-.273.064,1.924,1.924,0,0,1-.517.007,1.767,1.767,0,0,1-1.033-.545c-.036-.039-.067-.074-.1-.113a2.231,2.231,0,0,1-.163-.244,1.316,1.316,0,0,1-.064-.135,1.55,1.55,0,0,1-.089-.276,1.315,1.315,0,0,1-.025-.439,1.74,1.74,0,0,1-1.769,1.43,2.277,2.277,0,0,1-1.62-.814,2.671,2.671,0,0,1-.358-.513,3.543,3.543,0,0,1-.375-1.475,5.474,5.474,0,0,1,.057-.962c.022-.124.039-.255.06-.386.043-.276.088-.559.149-.835.028-.12.057-.24.092-.361a3.562,3.562,0,0,1,.149-.432,1.07,1.07,0,0,1,.05-.116c.029-.06.053-.117.085-.17l.01-.021c.029-.046.053-.092.085-.134a1.107,1.107,0,0,1,.106-.149,1.32,1.32,0,0,1,.117-.131,1.36,1.36,0,0,1,.131-.121,1.628,1.628,0,0,1,1.008-.35c.329-.01.662-.021.991-.028.152,0,.308-.011.46-.014.311-.008.626-.018.938-.025a3.287,3.287,0,0,1,.987.071,2.574,2.574,0,0,1,1.317,1.086,1.12,1.12,0,0,1,.078.109c.053.074.1.149.149.227a10.315,10.315,0,0,1,.619,1.107c.046.1.089.191.128.29a5.473,5.473,0,0,1,.283.9,3.972,3.972,0,0,1,.067.418A3.369,3.369,0,0,1,360.973,340.707Z" transform="translate(-353.122 -334.439)" fill="#17c878"/>
            <path id="Path_106864" data-name="Path 106864" d="M360.973,340.707c-.039.081-.085.163-.131.241-.025.043-.053.085-.078.124a2.181,2.181,0,0,1-.181.226,1.378,1.378,0,0,1-.1.1.141.141,0,0,1-.025.028c-.06.057-.124.113-.191.167a2.4,2.4,0,0,1-.492.3,1.73,1.73,0,0,1-.266.1h0a1.735,1.735,0,0,1-.273.064,1.924,1.924,0,0,1-.517.007,1.767,1.767,0,0,1-1.033-.545c-.036-.039-.067-.074-.1-.113a2.231,2.231,0,0,1-.163-.244,1.316,1.316,0,0,1-.064-.135,1.55,1.55,0,0,1-.089-.276,1.315,1.315,0,0,1-.025-.439,1.74,1.74,0,0,1-1.769,1.43,2.277,2.277,0,0,1-1.62-.814,2.671,2.671,0,0,1-.358-.513,3.543,3.543,0,0,1-.375-1.475,5.474,5.474,0,0,1,.057-.962c.022-.124.039-.255.06-.386.043-.276.088-.559.149-.835.028-.12.057-.24.092-.361a3.562,3.562,0,0,1,.149-.432,1.07,1.07,0,0,1,.05-.116c.029-.06.053-.117.085-.17l.01-.021c.029-.046.053-.092.085-.134a1.107,1.107,0,0,1,.106-.149,1.32,1.32,0,0,1,.117-.131,1.36,1.36,0,0,1,.131-.121,1.628,1.628,0,0,1,1.008-.35c.329-.01.662-.021.991-.028.152,0,.308-.011.46-.014.311-.008.626-.018.938-.025a3.287,3.287,0,0,1,.987.071,2.574,2.574,0,0,1,1.317,1.086,1.12,1.12,0,0,1,.078.109c.053.074.1.149.149.227a10.315,10.315,0,0,1,.619,1.107c.046.1.089.191.128.29a5.473,5.473,0,0,1,.283.9,3.972,3.972,0,0,1,.067.418A3.369,3.369,0,0,1,360.973,340.707Z" transform="translate(-353.122 -334.439)" fill="#17c878"/>
            <path id="Path_106865" data-name="Path 106865" d="M355.119,337.078a2.753,2.753,0,0,0,.222,1.692,1.671,1.671,0,0,0,1.372.924,1.212,1.212,0,0,0,1.229-.994,1.176,1.176,0,0,0,1.022,1.216,1.561,1.561,0,0,0,1.474-.773,2.362,2.362,0,0,0,.23-1.7,5.007,5.007,0,0,0-.715-1.6,2.074,2.074,0,0,0-1.073-.986,2.239,2.239,0,0,0-.683-.051l-1.66.046C355.391,334.882,355.264,336.137,355.119,337.078Z" transform="translate(-353.834 -334.476)" fill="#17c878" style="mix-blend-mode: overlay;isolation: isolate"/>
            <path id="Path_106866" data-name="Path 106866" d="M361.263,339.617a3.2,3.2,0,0,1-.289,1.332c-.039.081-.085.163-.131.241-.025.043-.053.085-.078.124-.057.078-.117.152-.181.226a1.379,1.379,0,0,1-.1.1.25.25,0,0,1-.032.028,2.078,2.078,0,0,1-.184.167,2.4,2.4,0,0,1-.492.3,2.643,2.643,0,0,1-.266.1h0a1.736,1.736,0,0,1-.273.064,1.923,1.923,0,0,1-.517.007,1.767,1.767,0,0,1-1.033-.545c-.036-.039-.067-.074-.1-.113a2.231,2.231,0,0,1-.163-.244,1.319,1.319,0,0,1-.064-.135,1.545,1.545,0,0,1-.089-.276,1.315,1.315,0,0,1-.025-.439,1.74,1.74,0,0,1-1.769,1.43,2.277,2.277,0,0,1-1.62-.814,2.432,2.432,0,0,1-.354-.516,3.419,3.419,0,0,1-.375-1.472,4.831,4.831,0,0,1,.057-.962c.018-.124.039-.255.057-.386.043-.276.088-.559.149-.835.028-.12.057-.24.092-.361a3.558,3.558,0,0,1,.149-.432,1.064,1.064,0,0,1,.05-.116c.029-.06.053-.117.085-.17l.01-.021c.029-.046.053-.092.085-.134a1.1,1.1,0,0,1,.106-.149,1.32,1.32,0,0,1,.117-.131,1.363,1.363,0,0,1,.131-.121,5.751,5.751,0,0,0-.605,2.194,3.833,3.833,0,0,0,.067,1.606,2.64,2.64,0,0,0,.219.566,2.14,2.14,0,0,0,1.766,1.189,1.617,1.617,0,0,0,1.475-.9,1.227,1.227,0,0,0,.106-.378,1.27,1.27,0,0,0,.149.739,1.6,1.6,0,0,0,.952.782,1.937,1.937,0,0,0,.212.043,2.006,2.006,0,0,0,1.9-.994,3.011,3.011,0,0,0,.294-2.191,6.045,6.045,0,0,0-.831-1.918,1.128,1.128,0,0,1,.078.109c.053.078.1.153.153.227a9.349,9.349,0,0,1,.615,1.107c.046.1.089.191.128.29a5.136,5.136,0,0,1,.283.9,3.971,3.971,0,0,1,.067.418A3.856,3.856,0,0,1,361.263,339.617Z" transform="translate(-353.123 -334.681)" fill="#17c878" style="mix-blend-mode: multiply;isolation: isolate"/>
            <path id="Path_106867" data-name="Path 106867" d="M360.462,341.282c-.06.057-.124.113-.191.167a2.4,2.4,0,0,1-.492.3,1.73,1.73,0,0,1-.266.1h0a1.741,1.741,0,0,1-.273.064,1.925,1.925,0,0,1-.517.007,1.767,1.767,0,0,1-1.033-.545c-.036-.039-.067-.074-.1-.113a2.225,2.225,0,0,1-.163-.244,1.3,1.3,0,0,1-.064-.135,1.55,1.55,0,0,1-.089-.276,1.315,1.315,0,0,1-.025-.439,1.74,1.74,0,0,1-1.769,1.43,2.276,2.276,0,0,1-1.62-.814,2.667,2.667,0,0,1-.358-.513,3.543,3.543,0,0,1-.375-1.475h0a3.094,3.094,0,0,0,.549-.018,3.371,3.371,0,0,0,.927-.24,2.985,2.985,0,0,0,1.132-.828,3.2,3.2,0,0,0,.492-3.051.526.526,0,0,1-.014-.06l-.074-.3c.135-.032.325.088.535.284.018.021.039.039.057.06a19.863,19.863,0,0,1,1.277,1.592,2.236,2.236,0,0,0-1.267,2.074,2.531,2.531,0,0,0,.163.842,2.973,2.973,0,0,0,.233.481,2.5,2.5,0,0,0,.255.361,3.165,3.165,0,0,0,.531.513,3.054,3.054,0,0,0,.421.269,4.37,4.37,0,0,0,1.992.51h.124Z" transform="translate(-353.123 -334.291)" fill="#17c878" style="mix-blend-mode: overlay;isolation: isolate"/>
          </g>
          <g id="Group_82491" data-name="Group 82491" transform="translate(26.75)">
            <path id="Path_106868" data-name="Path 106868" d="M360.6,283.665c-.014.117-.028.233-.046.35-.036.233-.071.474-.11.715a17.164,17.164,0,0,1-.449,2.24c-.024.081-.049.16-.074.237a.686.686,0,0,1-.025.081c-.043.131-.089.255-.139.382-.028.074-.06.149-.092.22s-.064.138-.1.205-.06.113-.092.173a1.62,1.62,0,0,1-.085.149c-.028.046-.057.1-.088.142-.05.078-.1.149-.156.219a3.444,3.444,0,0,1-.283.322,2.386,2.386,0,0,1-.219.2,2.291,2.291,0,0,1-.287.205,3.048,3.048,0,0,1-1.582.446q-2.208.059-4.42.124a6.052,6.052,0,0,1-1.823-.134,5.094,5.094,0,0,1-2.636-2.293c-.036-.053-.067-.1-.1-.153s-.081-.124-.12-.184c-.208-.329-.411-.666-.605-1.005a14.311,14.311,0,0,1-.658-1.313q-.117-.265-.223-.541c-.032-.085-.064-.17-.092-.259h0c0-.007,0-.01,0-.014-.1-.276-.181-.556-.251-.842-.025-.1-.046-.188-.067-.283-.028-.128-.05-.255-.071-.383a6.131,6.131,0,0,1,.683-4.15,4.635,4.635,0,0,1,.3-.442,4.686,4.686,0,0,1,.357-.4,4.382,4.382,0,0,1,1.557-1.009,3.186,3.186,0,0,1,.315-.1,3.559,3.559,0,0,1,1.369-.113l.025,0a3.128,3.128,0,0,1,1.161.407,3.6,3.6,0,0,1,.449.318,2.623,2.623,0,0,1,.205.188,3.257,3.257,0,0,1,.641.882c.007.017.017.039.025.057a2.128,2.128,0,0,1,.123.315,2.39,2.39,0,0,1,.114.528,0,0,0,0,1,0,0v.014a2.463,2.463,0,0,1,.011.267v.01a1.373,1.373,0,0,1-.007.17.083.083,0,0,1,0,.028,2.492,2.492,0,0,1,.106-.456c.018-.053.039-.109.06-.163.036-.088.078-.174.117-.255s.092-.159.142-.237a3.394,3.394,0,0,1,2.845-1.479,3.749,3.749,0,0,1,1.416.326,4.757,4.757,0,0,1,2.236,2.137,5.663,5.663,0,0,1,.319.725,6.317,6.317,0,0,1,.329,1.451A8.341,8.341,0,0,1,360.6,283.665Z" transform="translate(-345.606 -276.43)" fill="#e8271e"/>
            <path id="Path_106869" data-name="Path 106869" d="M360.6,283.665c-.014.117-.028.233-.046.35-.036.233-.071.474-.11.715a17.164,17.164,0,0,1-.449,2.24c-.024.081-.049.16-.074.237a.686.686,0,0,1-.025.081c-.043.131-.089.255-.139.382-.028.074-.06.149-.092.22s-.064.138-.1.205-.06.113-.092.173a1.62,1.62,0,0,1-.085.149c-.028.046-.057.1-.088.142-.05.078-.1.149-.156.219a3.444,3.444,0,0,1-.283.322,2.386,2.386,0,0,1-.219.2,2.291,2.291,0,0,1-.287.205,3.048,3.048,0,0,1-1.582.446q-2.208.059-4.42.124a6.052,6.052,0,0,1-1.823-.134,5.094,5.094,0,0,1-2.636-2.293c-.036-.053-.067-.1-.1-.153s-.081-.124-.12-.184c-.208-.329-.411-.666-.605-1.005a14.311,14.311,0,0,1-.658-1.313q-.117-.265-.223-.541c-.032-.085-.064-.17-.092-.259h0c0-.007,0-.01,0-.014-.1-.276-.181-.556-.251-.842-.025-.1-.046-.188-.067-.283-.028-.128-.05-.255-.071-.383a6.131,6.131,0,0,1,.683-4.15,4.635,4.635,0,0,1,.3-.442,4.686,4.686,0,0,1,.357-.4,4.382,4.382,0,0,1,1.557-1.009,3.186,3.186,0,0,1,.315-.1,3.559,3.559,0,0,1,1.369-.113l.025,0a3.128,3.128,0,0,1,1.161.407,3.6,3.6,0,0,1,.449.318,2.623,2.623,0,0,1,.205.188,3.257,3.257,0,0,1,.641.882c.007.017.017.039.025.057a2.128,2.128,0,0,1,.123.315,2.39,2.39,0,0,1,.114.528,0,0,0,0,1,0,0v.014a2.463,2.463,0,0,1,.011.267v.01a1.373,1.373,0,0,1-.007.17.083.083,0,0,1,0,.028,2.492,2.492,0,0,1,.106-.456c.018-.053.039-.109.06-.163.036-.088.078-.174.117-.255s.092-.159.142-.237a3.394,3.394,0,0,1,2.845-1.479,3.749,3.749,0,0,1,1.416.326,4.757,4.757,0,0,1,2.236,2.137,5.663,5.663,0,0,1,.319.725,6.317,6.317,0,0,1,.329,1.451A8.341,8.341,0,0,1,360.6,283.665Z" transform="translate(-345.606 -276.43)" fill="#17c878"/>
            <path id="Path_106870" data-name="Path 106870" d="M359.6,288.067a5.085,5.085,0,0,0-.411-3.128,3.089,3.089,0,0,0-2.539-1.709,2.24,2.24,0,0,0-2.273,1.837,2.174,2.174,0,0,0-1.891-2.248,2.888,2.888,0,0,0-2.725,1.429,4.363,4.363,0,0,0-.424,3.15,9.222,9.222,0,0,0,1.321,2.957,3.837,3.837,0,0,0,1.985,1.824,4.168,4.168,0,0,0,1.264.093l3.07-.085C359.1,292.129,359.336,289.808,359.6,288.067Z" transform="translate(-346.924 -278.751)" fill="#afafaf" style="mix-blend-mode: overlay;isolation: isolate"/>
          </g>
          <g id="Group_82492" data-name="Group 82492" transform="translate(27.816 29.706)">
            <path id="Path_106872" data-name="Path 106872" d="M362.247,327.619l-4.413,4.742-.945,1.015a2.448,2.448,0,0,1-3.589,0q-2.3-2.468-4.6-4.944c-.251-.269-.506-.541-.757-.814a2.45,2.45,0,0,1,1.475-4.1c.811-.1,1.66-.188,2.548-.247,1-.071,2.043-.11,3.129-.11.364,0,.722,0,1.076.014a46.118,46.118,0,0,1,4.6.343A2.45,2.45,0,0,1,362.247,327.619Z" transform="translate(-347.282 -323.16)" fill="#f8b61a"/>
            <path id="Path_106873" data-name="Path 106873" d="M354.344,330.523l3.531-3.8a1.616,1.616,0,0,0-.973-2.7,30.117,30.117,0,0,0-7.483,0,1.616,1.616,0,0,0-.973,2.7l3.531,3.8A1.616,1.616,0,0,0,354.344,330.523Z" transform="translate(-347.547 -323.389)" fill="#8e8e8e" style="mix-blend-mode: overlay;isolation: isolate"/>
            <path id="Path_106874" data-name="Path 106874" d="M360.772,323.517a46.118,46.118,0,0,0-4.6-.343c-.354-.011-.711-.014-1.076-.014-1.086,0-2.131.039-3.129.11-.888.06-1.737.145-2.548.247a2.45,2.45,0,0,0-1.475,4.1c.251.273.506.545.757.814q2.3,2.474,4.6,4.944a2.448,2.448,0,0,0,3.589,0l.945-1.015,4.413-4.742A2.45,2.45,0,0,0,360.772,323.517Zm-.284,3.705-4.14,4.452-.534.573a2.144,2.144,0,0,1-3.136,0q-1.841-1.981-3.687-3.967c-.329-.35-.655-.7-.984-1.058a2.137,2.137,0,0,1,1.289-3.578c.853-.106,1.755-.191,2.707-.241.722-.046,1.472-.067,2.244-.067.548,0,1.083.011,1.606.036,1.186.046,2.3.142,3.344.273A2.139,2.139,0,0,1,360.488,327.223Z" transform="translate(-347.282 -323.16)" fill="#f7d084" style="mix-blend-mode: multiply;isolation: isolate"/>
          </g>
          <g id="Group_82493" data-name="Group 82493" transform="translate(21.191 17.747)">
            <path id="Path_106875" data-name="Path 106875" d="M346.715,309.275a4.927,4.927,0,1,1-4.927-4.927A4.927,4.927,0,0,1,346.715,309.275Z" transform="translate(-336.861 -304.348)" fill="#fffae3"/>
            <path id="Path_106876" data-name="Path 106876" d="M376.144,309.275a4.927,4.927,0,1,1-4.927-4.927A4.927,4.927,0,0,1,376.144,309.275Z" transform="translate(-347.582 -304.348)" fill="#fffae3"/>
          </g>
          <g id="Group_82498" data-name="Group 82498" transform="translate(17.114 28.355)" opacity="0.3">
            <g id="Group_82495" data-name="Group 82495" transform="translate(29.179)">
              <g id="Group_82494" data-name="Group 82494">
                <path id="Path_106877" data-name="Path 106877" d="M384.587,322.554c0,.849-1.837,1.547-4.112,1.558s-4.123-.669-4.128-1.518,1.837-1.547,4.112-1.558S384.582,321.7,384.587,322.554Z" transform="translate(-376.347 -321.036)" fill="#baa53d"/>
              </g>
            </g>
            <g id="Group_82497" data-name="Group 82497" transform="translate(0 0.141)">
              <g id="Group_82496" data-name="Group 82496">
                <path id="Path_106878" data-name="Path 106878" d="M338.686,322.776c0,.85-1.837,1.547-4.112,1.558s-4.123-.669-4.127-1.518,1.837-1.547,4.112-1.558S338.682,321.927,338.686,322.776Z" transform="translate(-330.447 -321.258)" fill="#baa53d"/>
              </g>
            </g>
          </g>
          <g id="Group_82523" data-name="Group 82523" transform="translate(23.447 20.118)">
            <g id="Group_82502" data-name="Group 82502" transform="translate(0 0.001)">
              <g id="Group_82501" data-name="Group 82501">
                <g id="Group_82500" data-name="Group 82500">
                  <g id="Group_82499" data-name="Group 82499">
                    <path id="Path_106879" data-name="Path 106879" d="M346.592,311.156a3.091,3.091,0,1,1-3.106-3.076A3.091,3.091,0,0,1,346.592,311.156Z" transform="translate(-340.41 -308.08)" fill="#282828"/>
                  </g>
                </g>
              </g>
            </g>
            <g id="Group_82506" data-name="Group 82506" transform="translate(0.421 1.093)" style="mix-blend-mode: overlay;isolation: isolate">
              <g id="Group_82505" data-name="Group 82505">
                <g id="Group_82504" data-name="Group 82504">
                  <g id="Group_82503" data-name="Group 82503">
                    <path id="Path_106880" data-name="Path 106880" d="M344.416,311.461a1.672,1.672,0,1,1-1.681-1.664A1.673,1.673,0,0,1,344.416,311.461Z" transform="translate(-341.072 -309.797)" fill="#c9c9c9"/>
                  </g>
                </g>
              </g>
            </g>
            <g id="Group_82510" data-name="Group 82510" transform="translate(0.001)" style="mix-blend-mode: multiply;isolation: isolate">
              <g id="Group_82509" data-name="Group 82509">
                <g id="Group_82508" data-name="Group 82508">
                  <g id="Group_82507" data-name="Group 82507">
                    <path id="Path_106881" data-name="Path 106881" d="M343.486,308.078a3.091,3.091,0,1,0,3.108,3.077A3.091,3.091,0,0,0,343.486,308.078Zm-.64,4.976a2.212,2.212,0,1,1,2.2-2.223A2.211,2.211,0,0,1,342.846,313.054Z" transform="translate(-340.412 -308.078)"/>
                  </g>
                </g>
              </g>
            </g>
            <g id="Group_82514" data-name="Group 82514" transform="translate(1.061 1.527)">
              <g id="Group_82513" data-name="Group 82513">
                <g id="Group_82512" data-name="Group 82512">
                  <g id="Group_82511" data-name="Group 82511">
                    <path id="Path_106882" data-name="Path 106882" d="M343.895,311.383a.908.908,0,1,1-.912-.9A.907.907,0,0,1,343.895,311.383Z" transform="translate(-342.079 -310.48)" fill="#fff"/>
                  </g>
                </g>
              </g>
            </g>
            <g id="Group_82518" data-name="Group 82518" transform="translate(3.725 4.381)">
              <g id="Group_82517" data-name="Group 82517">
                <g id="Group_82516" data-name="Group 82516">
                  <g id="Group_82515" data-name="Group 82515">
                    <path id="Path_106883" data-name="Path 106883" d="M347.342,315.5a.536.536,0,1,1-.539-.534A.537.537,0,0,1,347.342,315.5Z" transform="translate(-346.27 -314.97)" fill="#fff"/>
                  </g>
                </g>
              </g>
            </g>
            <g id="Group_82522" data-name="Group 82522" transform="translate(0.96 3.865)" opacity="0.3" style="mix-blend-mode: screen;isolation: isolate">
              <g id="Group_82521" data-name="Group 82521">
                <g id="Group_82520" data-name="Group 82520">
                  <g id="Group_82519" data-name="Group 82519">
                    <path id="Path_106884" data-name="Path 106884" d="M342.81,314.916c-.514-.056-.912-.268-.89-.473s.457-.327.971-.271.912.268.89.473S343.324,314.972,342.81,314.916Z" transform="translate(-341.92 -314.158)" fill="#bfbfbf"/>
                  </g>
                </g>
              </g>
            </g>
          </g>
          <g id="Group_82548" data-name="Group 82548" transform="translate(41.931 20.029)">
            <g id="Group_82527" data-name="Group 82527" transform="translate(0 0.001)">
              <g id="Group_82526" data-name="Group 82526">
                <g id="Group_82525" data-name="Group 82525">
                  <g id="Group_82524" data-name="Group 82524">
                    <path id="Path_106885" data-name="Path 106885" d="M375.669,311.015a3.091,3.091,0,1,1-3.106-3.076A3.091,3.091,0,0,1,375.669,311.015Z" transform="translate(-369.487 -307.939)" fill="#282828"/>
                  </g>
                </g>
              </g>
            </g>
            <g id="Group_82531" data-name="Group 82531" transform="translate(0.421 1.093)" style="mix-blend-mode: overlay;isolation: isolate">
              <g id="Group_82530" data-name="Group 82530">
                <g id="Group_82529" data-name="Group 82529">
                  <g id="Group_82528" data-name="Group 82528">
                    <path id="Path_106886" data-name="Path 106886" d="M373.493,311.32a1.672,1.672,0,1,1-1.68-1.664A1.673,1.673,0,0,1,373.493,311.32Z" transform="translate(-370.149 -309.656)" fill="#c9c9c9"/>
                  </g>
                </g>
              </g>
            </g>
            <g id="Group_82535" data-name="Group 82535" transform="translate(0.001)" style="mix-blend-mode: multiply;isolation: isolate">
              <g id="Group_82534" data-name="Group 82534">
                <g id="Group_82533" data-name="Group 82533">
                  <g id="Group_82532" data-name="Group 82532">
                    <path id="Path_106887" data-name="Path 106887" d="M372.563,307.937a3.091,3.091,0,1,0,3.108,3.077A3.091,3.091,0,0,0,372.563,307.937Zm-.64,4.976a2.213,2.213,0,1,1,2.2-2.224A2.212,2.212,0,0,1,371.923,312.913Z" transform="translate(-369.489 -307.937)"/>
                  </g>
                </g>
              </g>
            </g>
            <g id="Group_82539" data-name="Group 82539" transform="translate(1.061 1.527)">
              <g id="Group_82538" data-name="Group 82538">
                <g id="Group_82537" data-name="Group 82537">
                  <g id="Group_82536" data-name="Group 82536">
                    <path id="Path_106888" data-name="Path 106888" d="M372.972,311.242a.908.908,0,1,1-.912-.9A.908.908,0,0,1,372.972,311.242Z" transform="translate(-371.156 -310.339)" fill="#fff"/>
                  </g>
                </g>
              </g>
            </g>
            <g id="Group_82543" data-name="Group 82543" transform="translate(3.725 4.382)">
              <g id="Group_82542" data-name="Group 82542">
                <g id="Group_82541" data-name="Group 82541">
                  <g id="Group_82540" data-name="Group 82540">
                    <path id="Path_106889" data-name="Path 106889" d="M376.419,315.363a.536.536,0,1,1-.539-.533A.537.537,0,0,1,376.419,315.363Z" transform="translate(-375.347 -314.83)" fill="#fff"/>
                  </g>
                </g>
              </g>
            </g>
            <g id="Group_82547" data-name="Group 82547" transform="translate(0.96 3.865)" opacity="0.3" style="mix-blend-mode: screen;isolation: isolate">
              <g id="Group_82546" data-name="Group 82546">
                <g id="Group_82545" data-name="Group 82545">
                  <g id="Group_82544" data-name="Group 82544">
                    <path id="Path_106890" data-name="Path 106890" d="M371.887,314.775c-.514-.056-.912-.268-.89-.473s.457-.327.971-.271.912.268.89.473S372.4,314.831,371.887,314.775Z" transform="translate(-370.997 -314.017)" fill="#bfbfbf"/>
                  </g>
                </g>
              </g>
            </g>
          </g>
          <path id="Path_106891" data-name="Path 106891" d="M358.647,332.361l-.945,1.015a2.448,2.448,0,0,1-3.589,0q-2.3-2.468-4.6-4.944c.1-.049.2-.1.29-.152.184-.1.364-.212.538-.332a7.318,7.318,0,0,0,1.069-.856,4.812,4.812,0,0,0,1.4-2.247,3.093,3.093,0,0,0,.039-1.271.956.956,0,0,0-.036-.17.77.77,0,0,0-.036-.134c1-.071,2.043-.11,3.129-.11.364,0,.722,0,1.076.014-.106.064-.212.131-.318.2-.153.092-.3.191-.449.294-.244.17-.478.35-.7.538a4.052,4.052,0,0,0-1.21,1.483,3.655,3.655,0,0,0,.106,2.657,6.539,6.539,0,0,0,.846,1.561,6.885,6.885,0,0,0,1.907,1.77,6.486,6.486,0,0,0,1.189.584C358.449,332.294,358.548,332.329,358.647,332.361Z" transform="translate(-320.279 -293.454)" fill="#8e8e8e" style="mix-blend-mode: overlay;isolation: isolate"/>
        </g>
        <g id="Group_82552" data-name="Group 82552" transform="translate(0 59.199)">
          <path id="Path_106893" data-name="Path 106893" d="M376.191,348.161c0,13.948-5,26.465-12.908,35-6.678,7.207-15.437,11.582-25.035,11.582-.679,0-1.353-.024-2.023-.067-.3-.015-.6-.043-.9-.073-.27-.024-.549-.053-.824-.086-.308-.039-.612-.077-.92-.125-.222-.029-.439-.067-.665-.111-.1-.014-.207-.029-.308-.053s-.231-.043-.347-.062l-.5-.1c-.264-.058-.53-.116-.79-.183s-.52-.12-.776-.2a2.32,2.32,0,0,1-.352-.092.413.413,0,0,1-.077-.02,2,2,0,0,1-.241-.072.1.1,0,0,1-.053-.015c-.183-.048-.361-.106-.54-.159h0c-.212-.063-.42-.135-.631-.207a32.2,32.2,0,0,1-3.648-1.46c-.173-.077-.337-.159-.51-.245-.12-.058-.245-.121-.371-.188-.173-.082-.342-.174-.515-.265-.4-.207-.79-.424-1.181-.65-.149-.086-.294-.174-.439-.265q-.644-.376-1.272-.795c-.12-.072-.231-.149-.347-.231a35.344,35.344,0,0,1-2.9-2.168c-.063-.048-.116-.092-.169-.14-.183-.149-.366-.308-.549-.467-.135-.116-.26-.231-.39-.346-.665-.588-1.32-1.2-1.946-1.85-.193-.193-.38-.39-.563-.588a43.234,43.234,0,0,1-3.185-3.782c-.145-.183-.28-.376-.42-.568-.727-1-1.416-2.048-2.076-3.127-.145-.231-.284-.472-.424-.713-.289-.487-.564-.983-.833-1.484-.121-.227-.241-.458-.357-.685l-.289-.563c-.086-.169-.174-.338-.256-.516-.13-.265-.255-.53-.38-.8-.241-.505-.463-1.021-.685-1.542-.067-.159-.144-.327-.212-.5-.092-.226-.183-.458-.275-.688-.082-.2-.164-.4-.241-.612a.252.252,0,0,1-.02-.063c-.1-.25-.2-.51-.289-.766-.183-.5-.357-1.007-.516-1.517-.1-.3-.2-.607-.289-.906-.1-.318-.193-.636-.284-.959a.26.26,0,0,1-.02-.063c-.086-.289-.168-.578-.245-.872-.019-.062-.029-.12-.043-.178-.087-.3-.164-.6-.236-.911-.081-.337-.159-.669-.241-1.011s-.149-.68-.217-1.022c-.144-.684-.275-1.373-.385-2.072-.125-.727-.231-1.465-.323-2.2-.048-.357-.086-.713-.125-1.065-.024-.2-.043-.409-.062-.617-.024-.25-.048-.491-.067-.742s-.044-.53-.058-.8c-.024-.313-.044-.631-.053-.949-.009-.1-.015-.2-.019-.3-.024-.448-.039-.9-.048-1.354s-.019-.906-.019-1.358c0-.275,0-.554.01-.829,0-.3.01-.6.019-.9.005-.116.009-.226.009-.342,0-.043.005-.077.005-.116.015-.352.029-.708.053-1.055.01-.27.029-.53.048-.8s.039-.506.053-.756c.034-.361.067-.713.1-1.074.024-.237.053-.482.082-.718.053-.482.115-.964.183-1.446.029-.207.057-.41.1-.617s.058-.4.092-.593c.053-.323.106-.645.168-.968l.569.453,3.006,2.385,7.213,5.719,14.025-13.862,8.494,4.621,13.091,7.125,7.232-6.576,5.6,6.938,4.157-3.889,5.7-5.333,3.575-3.344c.164.549.318,1.108.467,1.667A56.185,56.185,0,0,1,376.191,348.161Z" transform="translate(-300.311 -332.194)" fill="#ffd4a5"/>
          <path id="Path_106894" data-name="Path 106894" d="M367.2,341.7c0,.448-.005.9-.019,1.344-.39,13.289-6.529,24.779-15.456,30.826a25.557,25.557,0,0,1-14.435,4.558c-16.189,0-29.371-15.789-29.891-35.509-.015-.4-.019-.809-.019-1.219,0-.217,0-.429,0-.646l7.213,5.719,14.025-13.862,8.494,4.621L350.2,344.66l7.232-6.576,5.6,6.938,4.157-3.889C367.2,341.322,367.2,341.514,367.2,341.7Z" transform="translate(-302.884 -332.456)" fill="#969696" style="mix-blend-mode: overlay;isolation: isolate"/>
          <path id="Path_106895" data-name="Path 106895" d="M363.283,383.427c-6.678,7.208-15.437,11.582-25.035,11.582-.679,0-1.353-.024-2.023-.067-.3-.015-.6-.043-.9-.072-.27-.024-.549-.053-.824-.086-.308-.039-.612-.077-.92-.125-.222-.029-.439-.067-.665-.111-.1-.014-.207-.029-.308-.053s-.231-.043-.347-.062l-.5-.1c-.264-.058-.53-.116-.79-.183s-.52-.12-.776-.2a2.331,2.331,0,0,1-.352-.092.418.418,0,0,1-.077-.02,1.994,1.994,0,0,1-.241-.072.1.1,0,0,1-.053-.015c-.183-.048-.361-.106-.54-.159h0c-.212-.063-.42-.135-.631-.207a32.21,32.21,0,0,1-3.648-1.46c-.173-.077-.337-.159-.51-.245-.12-.058-.245-.121-.371-.188-.173-.082-.342-.174-.515-.265-.4-.207-.79-.424-1.181-.65-.149-.086-.294-.174-.439-.265q-.644-.376-1.272-.795c-.12-.072-.231-.149-.347-.231a35.344,35.344,0,0,1-2.9-2.168c-.063-.048-.116-.091-.169-.14-.183-.149-.366-.308-.549-.467-.135-.116-.26-.231-.39-.346-.665-.588-1.32-1.2-1.946-1.85-.193-.193-.38-.39-.563-.588a43.231,43.231,0,0,1-3.185-3.782c-.145-.183-.28-.376-.42-.568-.727-1-1.416-2.048-2.076-3.127-.145-.231-.284-.472-.424-.713-.289-.487-.564-.983-.833-1.484-.121-.227-.241-.458-.357-.685l-.289-.563c-.086-.169-.174-.338-.256-.516-.13-.265-.255-.53-.38-.8-.241-.505-.463-1.021-.685-1.542-.067-.159-.144-.327-.212-.5-.092-.226-.183-.458-.275-.688-.082-.2-.164-.4-.241-.612a.253.253,0,0,1-.02-.063c-.1-.25-.2-.51-.289-.766-.183-.5-.357-1.007-.516-1.517-.1-.3-.2-.607-.289-.906-.1-.318-.193-.636-.284-.959a.261.261,0,0,1-.02-.063c-.086-.289-.168-.578-.245-.872-.019-.062-.029-.12-.043-.178-.087-.3-.164-.6-.236-.911-.081-.337-.159-.669-.241-1.011s-.149-.68-.217-1.022c-.144-.684-.275-1.373-.385-2.072-.125-.727-.231-1.465-.323-2.2-.048-.357-.086-.713-.125-1.065-.024-.2-.043-.409-.062-.617-.024-.25-.048-.491-.067-.742s-.044-.53-.058-.8c-.024-.313-.044-.631-.053-.949-.009-.1-.015-.2-.019-.3-.024-.448-.039-.9-.048-1.354s-.019-.906-.019-1.358c0-.275,0-.554.01-.829,0-.3.01-.6.019-.9.005-.116.009-.226.009-.342,0-.043.005-.077.005-.116.015-.352.029-.708.053-1.055.01-.27.029-.53.048-.8s.039-.506.053-.756c.034-.361.067-.713.1-1.074.024-.237.053-.482.082-.718.053-.482.115-.964.183-1.446.029-.207.057-.41.1-.617s.058-.4.092-.593c.053-.323.106-.645.168-.968l.569.453,3.006,2.385,7.213,5.719,14.025-13.862,8.494,4.621c-.135.621-.25,1.252-.346,1.883a29.724,29.724,0,0,0-.2,7.483c1.06,10.363,7.049,19.773,14.835,26.7.111.1.212.188.319.275.929.814,1.874,1.595,2.847,2.346,1.325,1.031,2.684,2,4.076,2.925q.773.513,1.556,1.011Q360.395,381.9,363.283,383.427Z" transform="translate(-300.311 -332.456)" fill="#969696" opacity="0.5" style="mix-blend-mode: overlay;isolation: isolate"/>
          <g id="Group_82551" data-name="Group 82551" transform="translate(46.67 40.253)" style="mix-blend-mode: multiply;isolation: isolate">
            <g id="Group_82550" data-name="Group 82550">
              <path id="Path_106896" data-name="Path 106896" d="M386.19,401.246c-2,1.744-4.4,2.264-5.363,1.163s-.113-3.408,1.891-5.152,4.4-2.264,5.363-1.163S388.193,399.5,386.19,401.246Z" transform="translate(-376.169 -395.516)" fill="#fcd6be"/>
              <path id="Path_106897" data-name="Path 106897" d="M377.266,410.2a2.137,2.137,0,1,1,.209-3.015A2.137,2.137,0,0,1,377.266,410.2Z" transform="translate(-373.726 -399.499)" fill="#fcd6be"/>
            </g>
          </g>
        </g>
        <path id="Path_106898" data-name="Path 106898" d="M374.365,333.861c-.149-.559-.3-1.118-.467-1.667l-3.575,3.344-5.7,5.333-4.157,3.889-5.6-6.938-7.232,6.576-13.091-7.125-8.494-4.621-14.025,13.862-7.213-5.719-3.006-2.385-.569-.453c-.062.323-.116.645-.168.968-.034.2-.062.4-.092.593s-.067.409-.1.617c-.068.482-.13.964-.183,1.446-.029.236-.058.481-.082.718-.034.361-.067.713-.1,1.074-.015.25-.034.5-.053.756s-.039.525-.048.8c-.024.346-.038.7-.053,1.055,0,.039-.005.072-.005.116,0,.116,0,.226-.009.342-.01.3-.019.6-.019.9-.01.275-.01.554-.01.829,0,.453,0,.91.019,1.358s.024.906.048,1.354c0,.1.01.2.019.3.01.318.029.636.053.949.014.27.038.535.058.8s.043.491.067.742c.019.207.038.414.062.617.039.352.077.708.125,1.065.092.737.2,1.475.323,2.2.111.7.241,1.388.385,2.072.067.342.14.684.217,1.022s.16.674.241,1.011c.072.309.149.607.236.911.015.058.024.116.043.178.077.294.159.583.245.872a.26.26,0,0,0,.02.063c.092.323.183.641.284.959.092.3.188.6.289.906.159.51.332,1.016.516,1.517.092.256.188.516.289.766a.252.252,0,0,0,.02.063c.077.207.159.409.241.612.092.231.183.462.275.688.067.169.144.338.212.5.222.521.444,1.036.685,1.542.125.27.25.535.38.8.082.178.169.346.256.516l.289.563c.116.227.236.458.357.685.27.5.544,1,.833,1.484.14.241.279.482.424.713.66,1.079,1.349,2.13,2.076,3.127.14.193.275.385.42.568a43.234,43.234,0,0,0,3.185,3.782c.183.2.371.4.563.588.627.646,1.282,1.263,1.946,1.85.13.116.256.231.39.346.183.159.366.318.549.467.053.048.106.092.169.14a35.344,35.344,0,0,0,2.9,2.168c.116.082.227.159.347.231q.628.419,1.272.795c.144.092.289.179.439.265.39.226.785.443,1.181.65.173.092.342.183.515.265.126.067.251.13.371.188.174.086.338.168.51.245a32.2,32.2,0,0,0,3.648,1.46c.212.073.419.144.631.207h0c.179.053.357.111.54.159a.1.1,0,0,0,.053.015,2,2,0,0,0,.241.072.413.413,0,0,0,.077.02,2.32,2.32,0,0,0,.352.092c.256.077.521.139.776.2s.526.125.79.183l.5.1c.116.019.231.043.347.062s.207.039.308.053c.226.044.443.082.665.111.308.048.612.086.92.125.275.034.554.062.824.086.3.029.6.058.9.073.67.043,1.345.067,2.023.067,9.6,0,18.357-4.375,25.035-11.582,7.911-8.538,12.908-21.055,12.908-35A56.185,56.185,0,0,0,374.365,333.861Zm-16.738,46.031a30.955,30.955,0,0,1-21.32,8.89c-17.075,0-31.294-15-34.391-34.854-.072-.443-.135-.9-.193-1.344a52.632,52.632,0,0,1-.434-6.8,53.882,53.882,0,0,1,.308-5.758l3.224,2.631,7.391,6.03,14.551-13.681,7.429,4.149,13.187,7.358,6.832-6.119,5.6,6.764,4.789-4.375,6.032-5.511a52.446,52.446,0,0,1,.689,8.513C371.325,359.681,365.962,372.03,357.627,379.893Z" transform="translate(-300.311 -272.995)" fill="#ffd4a5" opacity="0.504" style="mix-blend-mode: multiply;isolation: isolate"/>
        <g id="Group_82555" data-name="Group 82555" transform="translate(21.324)">
          <g id="Group_82554" data-name="Group 82554">
            <path id="Path_106899" data-name="Path 106899" d="M394.005,276.929l-3.826.954-5.555,1.383-1.97.486-1.489-8.644-12.8,2.987-4.929-7.786-3.725-5.892-4.65-7.352-17.668,4.919-2.418-5.853L334,249.774l-.145-.332a.3.3,0,0,1,.029-.024c.053-.044.111-.082.159-.13.111-.087.222-.179.332-.27l.13-.1c.226-.173.453-.352.684-.53.679-.526,1.378-1.027,2.076-1.508.338-.231.675-.458,1.017-.689.024-.014.043-.024.072-.038.313-.207.627-.409.945-.607.086-.043.164-.1.245-.149.27-.164.54-.323.8-.477.072-.044.135-.078.2-.121.338-.193.67-.381,1.012-.564q.463-.253.925-.491c.1-.048.2-.1.3-.154.323-.164.65-.328.978-.477.25-.12.506-.241.756-.352.366-.168.737-.327,1.1-.486.255-.106.5-.207.751-.3.284-.116.568-.231.853-.337.342-.125.674-.246,1.007-.362.25-.092.5-.174.746-.25.444-.149.882-.28,1.32-.409.2-.058.39-.116.588-.164.174-.053.357-.1.535-.144.28-.078.549-.145.829-.212.337-.072.679-.154,1.016-.226.178-.029.361-.067.535-.1.39-.082.786-.149,1.176-.212.212-.038.419-.072.631-.1.183-.029.366-.053.549-.082.087-.01.184-.024.275-.029.245-.038.491-.058.737-.081a.393.393,0,0,1,.13-.01c.337-.038.665-.067,1-.092.207-.019.424-.029.636-.043.255-.014.506-.024.761-.029.7-.024,1.393-.024,2.081-.01.154,0,.308.01.463.019.174.005.332.01.5.024.231.01.467.029.7.048.212.014.424.034.636.058s.443.034.66.062.448.053.68.087c.174.019.352.048.525.077a.362.362,0,0,0,.062.01c.16.029.3.048.458.077.01,0,.015.005.024.005.964.159,1.927.371,2.877.626.188.048.376.1.564.159s.371.106.559.164c.135.043.275.082.414.13.2.063.409.135.617.207.154.048.3.106.463.16.019.01.043.019.067.029.308.116.617.226.929.352.241.1.482.2.723.3l.318.144c.279.121.554.241.824.381.092.039.187.092.279.14.2.092.4.188.592.294l.024.015c.265.135.526.275.79.424a31.1,31.1,0,0,1,6.5,4.813c6.88,6.635,10.658,16.261,10.966,26.789,0,.053,0,.1.005.154C394.015,275.522,394.02,276.225,394.005,276.929Z" transform="translate(-333.856 -239.068)" fill="#ffd4a5"/>
            <path id="Path_106900" data-name="Path 106900" d="M385.655,278.458c-.116.627-.245,1.248-.39,1.875l-1.97.486-1.489-8.644L369,275.163l-4.929-7.786-3.725-5.892-4.649-7.352-17.668,4.919-2.418-5.853c.193-.2.38-.39.578-.573a39.562,39.562,0,0,1,8.962-6.649h0a34.115,34.115,0,0,1,7.27-2.915c.005,0,.015,0,.019,0h.01a29.229,29.229,0,0,1,7.2-1.051h.005a26.39,26.39,0,0,1,3.71.179c0-.005,0,0,0,0a24.8,24.8,0,0,1,17.1,9.949v0A30.508,30.508,0,0,1,386.1,267,38.6,38.6,0,0,1,385.655,278.458Z" transform="translate(-334.497 -240.136)" fill="#969696" style="mix-blend-mode: overlay;isolation: isolate"/>
            <path id="Path_106901" data-name="Path 106901" d="M408.812,279.727a20.17,20.17,0,0,0-3.807-5.17,22.164,22.164,0,0,0-4.721-3.574h-.005a20.98,20.98,0,0,0-10.575-2.819,23.517,23.517,0,0,0-9.752,2.322c-.579.27-1.142.564-1.7.877l-3.725-5.892q1.056-.188,2.105-.434a43.416,43.416,0,0,0,6.731-2.149,44.473,44.473,0,0,0,11.144-6.649,1.833,1.833,0,0,0,.145-.116v0c.679-.569,1.32-1.19,1.956-1.841.414-.434.828-.886,1.238-1.339C404.726,259.573,408.5,269.2,408.812,279.727Z" transform="translate(-348.672 -244.121)" fill="#969696" opacity="0.5" style="mix-blend-mode: overlay;isolation: isolate"/>
            <g id="Group_82553" data-name="Group 82553" transform="translate(9.085 1.275)" style="mix-blend-mode: screen;isolation: isolate">
              <ellipse id="Ellipse_4398" data-name="Ellipse 4398" cx="6.485" cy="3.567" rx="6.485" ry="3.567" transform="translate(0 3.461) rotate(-13.389)" fill="#969696"/>
              <path id="Path_106902" data-name="Path 106902" d="M373.876,241.153a2.882,2.882,0,1,1-2.137,3.472A2.882,2.882,0,0,1,373.876,241.153Z" transform="translate(-356.714 -241.074)" fill="#969696"/>
            </g>
          </g>
          <path id="Path_106903" data-name="Path 106903" d="M394,274.828c-.005-.053-.005-.1-.005-.154-.308-10.528-4.086-20.154-10.966-26.789a31.1,31.1,0,0,0-6.5-4.813c-.264-.149-.525-.289-.79-.424l-.024-.015c-.2-.106-.39-.2-.592-.294-.092-.048-.188-.1-.279-.14-.27-.14-.545-.26-.824-.381l-.318-.144c-.241-.106-.482-.2-.723-.3-.313-.125-.621-.236-.929-.352-.024-.01-.048-.019-.067-.029-.159-.053-.308-.111-.463-.16-.207-.072-.414-.144-.617-.207-.14-.048-.28-.086-.414-.13-.188-.058-.371-.116-.559-.164s-.376-.111-.564-.159c-.949-.256-1.913-.467-2.877-.626-.01,0-.014-.005-.024-.005-.154-.029-.3-.048-.458-.077a.362.362,0,0,1-.062-.01c-.174-.029-.352-.058-.525-.077q-.347-.051-.68-.087c-.217-.029-.439-.043-.66-.062s-.424-.044-.636-.058c-.231-.02-.467-.039-.7-.048-.168-.015-.327-.019-.5-.024-.154-.01-.308-.015-.463-.019-.688-.015-1.383-.015-2.081.01-.255,0-.506.015-.761.029-.212.015-.429.024-.636.043-.337.024-.665.053-1,.092a.393.393,0,0,0-.13.01c-.245.024-.491.043-.737.081-.092.005-.188.02-.275.029-.183.029-.366.053-.549.082-.212.024-.419.058-.631.1-.39.063-.786.13-1.176.212-.174.034-.357.072-.535.1-.338.072-.68.154-1.016.226-.28.067-.549.135-.829.212-.178.043-.361.092-.535.144-.2.048-.39.106-.588.164-.439.13-.877.26-1.32.409-.245.077-.5.159-.746.25-.332.116-.665.236-1.007.362-.285.106-.569.221-.853.337-.25.1-.5.2-.751.3-.362.159-.732.318-1.1.486-.25.111-.506.231-.756.352-.328.149-.655.313-.978.477-.1.053-.2.106-.3.154q-.462.238-.925.491c-.342.183-.674.371-1.012.564-.067.043-.13.077-.2.121-.265.154-.535.313-.8.477-.081.048-.159.106-.245.149-.318.2-.631.4-.945.607-.029.015-.048.024-.072.038-.342.231-.68.458-1.017.689-.7.482-1.4.983-2.076,1.508-.231.178-.458.357-.684.53l-.13.1c-.111.092-.222.183-.332.27-.048.048-.106.086-.159.13a.3.3,0,0,0-.029.024l.145.332.973,2.357,2.418,5.853,17.668-4.919,4.65,7.352,3.725,5.892,4.929,7.786,12.8-2.987,1.489,8.644,1.97-.486,5.555-1.383,3.826-.954C394.02,276.225,394.015,275.522,394,274.828Zm-8.986,2.563-1.908.545-1.446-8.9-12.512,2.973-4.013-6.577-3.32-5.449-5.377-8.817-18.805,4.9-2.081-4.51-1.026-2.221c12-10.036,27.483-12.98,39.72-6.158a28.972,28.972,0,0,1,7.545,6.047,35.256,35.256,0,0,1,8.4,20.279,43.081,43.081,0,0,1,.13,6.375Z" transform="translate(-333.856 -239.068)" fill="#ffd4a5" opacity="0.503" style="mix-blend-mode: multiply;isolation: isolate"/>
        </g>
      </g>
    </g>
  </g>
</svg>
