<svg xmlns="http://www.w3.org/2000/svg" width="953.496" height="441.215" viewBox="0 0 953.496 441.215">
  <g id="t7-i2" transform="translate(-320 -14597.5)">
    <g id="Group_54877" data-name="Group 54877" transform="translate(-82.646 14160.271)">
      <g id="Group_54850" data-name="Group 54850" transform="translate(324.579 -329.06)">
        <path id="Rectangle_31053" data-name="Rectangle 31053" d="M27.346,0H166.3a0,0,0,0,1,0,0V98.365a0,0,0,0,1,0,0H27.346A27.346,27.346,0,0,1,0,71.019V27.346A27.346,27.346,0,0,1,27.346,0Z" transform="translate(138.781 942.772)" fill="#ffd4a5"/>
      </g>
      <g id="Group_54851" data-name="Group 54851" transform="translate(491.608 -326.503)">
        <path id="Rectangle_31054" data-name="Rectangle 31054" d="M27.346,0H165.336a0,0,0,0,1,0,0V98.365a0,0,0,0,1,0,0H27.346A27.346,27.346,0,0,1,0,71.019V27.346A27.346,27.346,0,0,1,27.346,0Z" transform="translate(814.389 1041.137) rotate(180)" fill="#bf7726"/>
      </g>
      <g id="Group_54852" data-name="Group 54852" transform="translate(320.542 -324.503)">
        <rect id="Rectangle_31055" data-name="Rectangle 31055" width="170.339" height="98.365" transform="translate(479.458 942.772)" fill="#fb9e36"/>
      </g>
      <g id="Group_54864" data-name="Group 54864" transform="translate(490.881 -324.503)">
        <rect id="Rectangle_31055-2" data-name="Rectangle 31055" width="170.339" height="98.365" transform="translate(479.458 942.772)" fill="#e38e2f"/>
      </g>
      <g id="Group_54853" data-name="Group 54853" transform="translate(320.542 -324.503)">
        <rect id="Rectangle_31056" data-name="Rectangle 31056" width="170.339" height="98.365" transform="translate(309.119 942.772)" fill="#ffb869"/>
      </g>
      <g id="Group_54861" data-name="Group 54861" transform="translate(320.542 -329.06)">
        <path id="Path_105459" data-name="Path 105459" d="M954.344,1045.693H174.351c-21.921,0-39.755-14.31-39.755-31.9V970.118c0-17.592,17.834-31.9,39.755-31.9H954.344c21.922,0,39.756,14.311,39.756,31.9v43.673C994.1,1031.383,976.266,1045.693,954.344,1045.693ZM174.351,947.329c-15.658,0-28.4,10.223-28.4,22.789v43.673c0,12.565,12.741,22.789,28.4,22.789H954.344c15.659,0,28.4-10.224,28.4-22.789V970.118c0-12.566-12.739-22.789-28.4-22.789Z" fill="#17c878"/>
      </g>
    </g>
    <circle id="Ellipse_4133" data-name="Ellipse 4133" cx="13" cy="13" r="13" transform="translate(1134.492 14810.166)" fill="#12263f"/>
    <circle id="Ellipse_4492" data-name="Ellipse 4492" cx="13" cy="13" r="13" transform="translate(1134.492 14936.166)" fill="#12263f"/>
    <circle id="Ellipse_4494" data-name="Ellipse 4494" cx="13" cy="13" r="13" transform="translate(789.244 14936.107)" fill="#12263f"/>
    <circle id="Ellipse_4496" data-name="Ellipse 4496" cx="13" cy="13" r="13" transform="translate(444.996 14936.107)" fill="#12263f"/>
    <circle id="Ellipse_4132" data-name="Ellipse 4132" cx="13" cy="13" r="13" transform="translate(961.492 14810.166)" fill="#12263f"/>
    <circle id="Ellipse_4493" data-name="Ellipse 4493" cx="13" cy="13" r="13" transform="translate(961.492 14684.166)" fill="#12263f"/>
    <circle id="Ellipse_4495" data-name="Ellipse 4495" cx="13" cy="13" r="13" transform="translate(618.492 14684.166)" fill="#12263f"/>
    <circle id="Ellipse_4129" data-name="Ellipse 4129" cx="13" cy="13" r="13" transform="translate(789.492 14810.166)" fill="#12263f"/>
    <circle id="Ellipse_4130" data-name="Ellipse 4130" cx="13" cy="13" r="13" transform="translate(618.492 14810.166)" fill="#12263f"/>
    <circle id="Ellipse_4131" data-name="Ellipse 4131" cx="13" cy="13" r="13" transform="translate(445.492 14810.166)" fill="#12263f"/>
    <path id="Line_175" data-name="Line 175" d="M2,126H-2V0H2Z" transform="translate(1147.992 14823.223)" fill="#12263f"/>
    <path id="Line_177" data-name="Line 177" d="M2,126H-2V0H2Z" transform="translate(802.744 14823.166)" fill="#12263f"/>
    <path id="Line_179" data-name="Line 179" d="M2,126H-2V0H2Z" transform="translate(458.496 14823.166)" fill="#12263f"/>
    <path id="Line_176" data-name="Line 176" d="M2,126H-2V0H2Z" transform="translate(974.492 14697.166)" fill="#12263f"/>
    <path id="Line_178" data-name="Line 178" d="M2,126H-2V0H2Z" transform="translate(631.492 14697.166)" fill="#12263f"/>
    <text id="Persistente_y_extendido_más_de_50_metros_por_fuera_del_perímetro_de_la_granja_." data-name="Persistente y extendido
(más de 50 metros por fuera del perímetro de la granja)." transform="translate(1047.496 14971.715)" fill="#12263f" font-size="16" font-family="Roboto-Bold, Roboto" font-weight="700"><tspan x="-84.797" y="15">Persistente y extendido</tspan><tspan font-family="Roboto-Regular, Roboto" font-weight="400"><tspan x="-101.125" y="39">(más de 50 metros por fuera </tspan><tspan x="-95.074" y="63">del perímetro de la granja).</tspan></tspan></text>
    <text id="Persistente_y_generalizado_hasta_50_metros_por_fuera_del_perímetro_de_la_granja." data-name="Persistente y generalizado hasta 50 metros por fuera del perímetro de la granja." transform="translate(858.492 14597.5)" fill="#12263f" font-size="16" font-family="Roboto-Bold, Roboto" font-weight="700"><tspan x="-94.547" y="15">Persistente </tspan><tspan y="15" font-family="Roboto-Regular, Roboto" font-weight="400">y generalizado </tspan><tspan x="-104.691" y="39" font-family="Roboto-Regular, Roboto" font-weight="400">hasta 50 metros por fuera del </tspan><tspan x="-79.621" y="63" font-family="Roboto-Regular, Roboto" font-weight="400">perímetro de la granja.</tspan></text>
    <text id="Persistente_pero_apenas_localizado." data-name="Persistente, pero apenas localizado." transform="translate(704.996 14971.715)" fill="#12263f" font-size="16" font-family="Roboto-Bold, Roboto" font-weight="700"><tspan x="-89.047" y="15">Persistente, </tspan><tspan y="15" font-family="Roboto-Regular, Roboto" font-weight="400">pero apenas </tspan><tspan x="-38.422" y="39" font-family="Roboto-Regular, Roboto" font-weight="400">localizado.</tspan></text>
    <text id="Olor_transitorio_pero_detectable_por_fuera_del_perímetro_de_la_granja." data-name="Olor transitorio pero detectable por fuera del perímetro de la granja." transform="translate(526.492 14597.5)" fill="#12263f" font-size="16" font-family="Roboto-Bold, Roboto" font-weight="700"><tspan x="-72.168" y="15">Olor transitorio </tspan><tspan y="15" font-family="Roboto-Regular, Roboto" font-weight="400">pero </tspan><tspan x="-84.141" y="39" font-family="Roboto-Regular, Roboto" font-weight="400">detectable por fuera del </tspan><tspan x="-79.621" y="63" font-family="Roboto-Regular, Roboto" font-weight="400">perímetro de la granja.</tspan></text>
    <text id="Olor_local_y_transitorio_sólo_percibido_dentro_de_los_galpones_o_en_el_perímetro_de_la_granja_." data-name="Olor local y transitorio
(sólo percibido dentro de los galpones o en el perímetro de la granja)." transform="translate(320 14971.715)" fill="#12263f" font-size="16" font-family="Roboto-Bold, Roboto" font-weight="700"><tspan x="-79.484" y="15">Olor local y transitorio</tspan><tspan font-family="Roboto-Regular, Roboto" font-weight="400"><tspan x="-135.777" y="39">(sólo percibido dentro de los galpones </tspan><tspan x="-107.738" y="63">o en el perímetro de la granja).</tspan></tspan></text>
  </g>
</svg>
