<svg xmlns="http://www.w3.org/2000/svg" width="921.996" height="528.717" viewBox="0 0 921.996 528.717">
  <g id="t7-i1" transform="translate(-347.5 -14011.276)">
    <text id="Olor_muy_fuerte_bastante_ofensivo_puede_causar_náusea_especialmente_si_el_receptor_no_está_acostumbrado_al_olor_." data-name="Olor muy fuerte
 (bastante ofensivo, puede causar náusea, especialmente si el receptor no está acostumbrado al olor)." transform="translate(1051.496 14424.992)" fill="#12263f" font-size="16" font-family="Roboto-Bold, Roboto" font-weight="700"><tspan x="-56.297" y="15">Olor muy fuerte</tspan><tspan font-family="Roboto-Regular, Roboto" font-weight="400"><tspan x="-93.672" y="39" xml:space="preserve"> (bastante ofensivo, puede </tspan><tspan x="-107.582" y="63">causar náusea, especialmente </tspan><tspan x="-74.063" y="87">si el receptor no está </tspan><tspan x="-80.641" y="111">acostumbrado al olor).</tspan></tspan></text>
    <g id="Group_54877" data-name="Group 54877" transform="translate(-73.642 13613.549)">
      <g id="Group_54850" data-name="Group 54850" transform="translate(324.579 -329.06)">
        <path id="Rectangle_31053" data-name="Rectangle 31053" d="M27.346,0H166.3a0,0,0,0,1,0,0V98.365a0,0,0,0,1,0,0H27.346A27.346,27.346,0,0,1,0,71.019V27.346A27.346,27.346,0,0,1,27.346,0Z" transform="translate(138.781 942.772)" fill="#ffd4a5"/>
      </g>
      <g id="Group_54851" data-name="Group 54851" transform="translate(491.608 -326.503)">
        <path id="Rectangle_31054" data-name="Rectangle 31054" d="M27.346,0H165.336a0,0,0,0,1,0,0V98.365a0,0,0,0,1,0,0H27.346A27.346,27.346,0,0,1,0,71.019V27.346A27.346,27.346,0,0,1,27.346,0Z" transform="translate(814.389 1041.137) rotate(180)" fill="#bf7726"/>
      </g>
      <g id="Group_54852" data-name="Group 54852" transform="translate(320.542 -324.503)">
        <rect id="Rectangle_31055" data-name="Rectangle 31055" width="170.339" height="98.365" transform="translate(479.458 942.772)" fill="#fb9e36"/>
      </g>
      <g id="Group_54864" data-name="Group 54864" transform="translate(490.881 -324.503)">
        <rect id="Rectangle_31055-2" data-name="Rectangle 31055" width="170.339" height="98.365" transform="translate(479.458 942.772)" fill="#e38e2f"/>
      </g>
      <g id="Group_54853" data-name="Group 54853" transform="translate(320.542 -324.503)">
        <rect id="Rectangle_31056" data-name="Rectangle 31056" width="170.339" height="98.365" transform="translate(309.119 942.772)" fill="#ffb869"/>
      </g>
      <g id="Group_54861" data-name="Group 54861" transform="translate(320.542 -329.06)">
        <path id="Path_105459" data-name="Path 105459" d="M954.344,1045.693H174.351c-21.921,0-39.755-14.31-39.755-31.9V970.118c0-17.592,17.834-31.9,39.755-31.9H954.344c21.922,0,39.756,14.311,39.756,31.9v43.673C994.1,1031.383,976.266,1045.693,954.344,1045.693ZM174.351,947.329c-15.658,0-28.4,10.223-28.4,22.789v43.673c0,12.565,12.741,22.789,28.4,22.789H954.344c15.659,0,28.4-10.224,28.4-22.789V970.118c0-12.566-12.739-22.789-28.4-22.789Z" fill="#17c878"/>
      </g>
    </g>
    <circle id="Ellipse_4133" data-name="Ellipse 4133" cx="13" cy="13" r="13" transform="translate(1143.496 14263.442)" fill="#12263f"/>
    <circle id="Ellipse_4492" data-name="Ellipse 4492" cx="13" cy="13" r="13" transform="translate(1143.496 14389.442)" fill="#12263f"/>
    <circle id="Ellipse_4494" data-name="Ellipse 4494" cx="13" cy="13" r="13" transform="translate(798.248 14389.385)" fill="#12263f"/>
    <circle id="Ellipse_4496" data-name="Ellipse 4496" cx="13" cy="13" r="13" transform="translate(454 14389.385)" fill="#12263f"/>
    <circle id="Ellipse_4132" data-name="Ellipse 4132" cx="13" cy="13" r="13" transform="translate(970.496 14263.442)" fill="#12263f"/>
    <circle id="Ellipse_4493" data-name="Ellipse 4493" cx="13" cy="13" r="13" transform="translate(970.496 14137.442)" fill="#12263f"/>
    <circle id="Ellipse_4495" data-name="Ellipse 4495" cx="13" cy="13" r="13" transform="translate(627.496 14137.442)" fill="#12263f"/>
    <circle id="Ellipse_4129" data-name="Ellipse 4129" cx="13" cy="13" r="13" transform="translate(798.496 14263.442)" fill="#12263f"/>
    <circle id="Ellipse_4130" data-name="Ellipse 4130" cx="13" cy="13" r="13" transform="translate(627.496 14263.442)" fill="#12263f"/>
    <circle id="Ellipse_4131" data-name="Ellipse 4131" cx="13" cy="13" r="13" transform="translate(454.496 14263.442)" fill="#12263f"/>
    <path id="Line_175" data-name="Line 175" d="M2,126H-2V0H2Z" transform="translate(1156.996 14276.5)" fill="#12263f"/>
    <path id="Line_177" data-name="Line 177" d="M2,126H-2V0H2Z" transform="translate(811.748 14276.442)" fill="#12263f"/>
    <path id="Line_179" data-name="Line 179" d="M2,126H-2V0H2Z" transform="translate(467.5 14276.442)" fill="#12263f"/>
    <path id="Line_176" data-name="Line 176" d="M2,126H-2V0H2Z" transform="translate(983.496 14150.442)" fill="#12263f"/>
    <path id="Line_178" data-name="Line 178" d="M2,126H-2V0H2Z" transform="translate(640.496 14150.442)" fill="#12263f"/>
    <text id="Olor_fuerte_fuerte_pero_tolerable_." data-name="Olor fuerte 
(fuerte pero tolerable)." transform="translate(800 14074.776)" fill="#12263f" font-size="16" font-family="Roboto-Bold, Roboto" font-weight="700"><tspan x="-38.887" y="15">Olor fuerte </tspan><tspan font-family="Roboto-Regular, Roboto" font-weight="400"><tspan x="-79.527" y="39">(fuerte pero tolerable).</tspan></tspan></text>
    <text id="Olor_moderado_fácilmente_detectable_durante_una_caminata_y_respirando_normalmente_." data-name="Olor moderado
(fácilmente detectable durante una caminata y respirando normalmente)." transform="translate(712 14435.051)" fill="#12263f" font-size="16" font-family="Roboto-Bold, Roboto" font-weight="700"><tspan x="-53.48" y="15">Olor moderado</tspan><tspan font-family="Roboto-Regular, Roboto" font-weight="400"><tspan x="-79.852" y="39">(fácilmente detectable </tspan><tspan x="-83.215" y="63">durante una caminata y </tspan><tspan x="-92.188" y="87">respirando normalmente).</tspan></tspan></text>
    <text id="Olor_tenue_apenas_detectable_se_requiere_permanecer_detenido_en_un_sitio_e_inhalar_en_contra_de_la_dirección_del_viento_." data-name="Olor tenue
(apenas detectable, se requiere permanecer detenido en un sitio e inhalar en contra de la dirección del viento)." transform="translate(527.496 14011.276)" fill="#12263f" font-size="16" font-family="Roboto-Bold, Roboto" font-weight="700"><tspan x="-37.387" y="15">Olor tenue</tspan><tspan font-family="Roboto-Regular, Roboto" font-weight="400"><tspan x="-110.879" y="39">(apenas detectable, se requiere </tspan><tspan x="-97.031" y="63">permanecer detenido en un </tspan><tspan x="-101.793" y="87">sitio e inhalar en contra de la </tspan><tspan x="-73.723" y="111">dirección del viento).</tspan></tspan></text>
    <text id="Olor_indetectable." data-name="Olor indetectable." transform="translate(347.5 14435.051)" fill="#12263f" font-size="16" font-family="Roboto-Bold, Roboto" font-weight="700"><tspan x="-63.977" y="15">Olor indetectable.</tspan></text>
  </g>
</svg>
