<svg xmlns="http://www.w3.org/2000/svg" width="29.905" height="51.29" viewBox="0 0 29.905 51.29">
  <g id="frasco" transform="translate(-106.737)">
    <g id="Grupo_54921" data-name="Grupo 54921" transform="translate(107.488 0.751)">
      <path id="Trazado_105572" data-name="Trazado 105572" d="M141.42,203.792l-5.9-7.77a7.834,7.834,0,0,1-1.594-4.736v-7.437L128.438,181l-5.491,2.849v7.437a7.834,7.834,0,0,1-1.594,4.736l-5.9,7.77a5.992,5.992,0,0,0-1.219,3.623h0a5.992,5.992,0,0,0,5.992,5.992h16.418a5.992,5.992,0,0,0,5.992-5.992h0A5.992,5.992,0,0,0,141.42,203.792Z" transform="translate(-114.237 -163.619)" fill="#d5ebf6"/>
      <path id="Trazado_105574" data-name="Trazado 105574" d="M186.586,152.565H175.6a2.849,2.849,0,0,0-2.849,2.849h0a2.849,2.849,0,0,0,2.849,2.849h10.981a2.849,2.849,0,0,0,2.849-2.849h0A2.849,2.849,0,0,0,186.586,152.565Z" transform="translate(-166.894 -138.033)" fill="#d5ebf6"/>
      <path id="Trazado_105575" data-name="Trazado 105575" d="M170.44,360.116l-5.2-6.854a2.317,2.317,0,0,0-1.846-.916h-6.221a2.317,2.317,0,0,0-1.846.916l-5.2,6.854a2.447,2.447,0,0,0,1.95,3.927H168.49a2.447,2.447,0,0,0,1.949-3.927Z" transform="translate(-146.08 -317.801)" fill="#fb9e36"/>
      <circle id="Elipse_4142" data-name="Elipse 4142" cx="2.903" cy="2.903" r="2.903" transform="translate(6.2 4.618)" fill="#fb9e36"/>
      <circle id="Elipse_4143" data-name="Elipse 4143" cx="2.161" cy="2.161" r="2.161" transform="translate(16.565 7.353)" fill="#ffb869"/>
      <circle id="Elipse_4144" data-name="Elipse 4144" cx="1.891" cy="1.891" r="1.891" transform="translate(13.661)" fill="#e38e2f"/>
    </g>
    <g id="Grupo_54922" data-name="Grupo 54922" transform="translate(106.737)">
      <path id="Trazado_105577" data-name="Trazado 105577" d="M148.114,346.057l-5.2,6.854a3.226,3.226,0,0,0,2.548,5.133h16.418a3.233,3.233,0,0,0,2.548-5.133l-1.036-1.364a.751.751,0,0,0-1.2.908l1.036,1.364a1.711,1.711,0,0,1-1.351,2.722H145.459a1.717,1.717,0,0,1-1.351-2.722l5.2-6.854a1.574,1.574,0,0,1,1.247-.619h6.221a1.575,1.575,0,0,1,1.247.619l2.364,3.115a.751.751,0,0,0,1.2-.908l-2.364-3.115a3.085,3.085,0,0,0-2.444-1.213h-6.221A3.086,3.086,0,0,0,148.114,346.057Z" transform="translate(-138.716 -310.299)"/>
      <path id="Trazado_105578" data-name="Trazado 105578" d="M197.133,404.584v.931a.751.751,0,0,0,1.5,0v-.931a.751.751,0,0,0-1.5,0Z" transform="translate(-188.077 -363.379)"/>
      <path id="Trazado_105579" data-name="Trazado 105579" d="M299.867,404.584v.931a.751.751,0,0,0,1.5,0v-.931a.751.751,0,1,0-1.5,0Z" transform="translate(-280.52 -363.379)"/>
      <path id="Trazado_105580" data-name="Trazado 105580" d="M238.547,412.741a.966.966,0,0,1-1.409,0,.751.751,0,0,0-1.131.989,2.467,2.467,0,0,0,3.671,0,.751.751,0,0,0-1.131-.989Z" transform="translate(-222.89 -371.163)"/>
      <path id="Trazado_105581" data-name="Trazado 105581" d="M172.282,53.408a3.655,3.655,0,1,0-3.655-3.655A3.659,3.659,0,0,0,172.282,53.408Zm0-5.807a2.152,2.152,0,1,1-2.152,2.152A2.155,2.155,0,0,1,172.282,47.6Z" transform="translate(-162.427 -41.481)"/>
      <path id="Trazado_105582" data-name="Trazado 105582" d="M272.091,76.308A2.912,2.912,0,1,0,275,73.4,2.915,2.915,0,0,0,272.091,76.308ZM275,74.9a1.409,1.409,0,1,1-1.409,1.409A1.411,1.411,0,0,1,275,74.9Z" transform="translate(-255.526 -66.043)"/>
      <path id="Trazado_105583" data-name="Trazado 105583" d="M245.749,0a2.642,2.642,0,1,0,2.642,2.642A2.645,2.645,0,0,0,245.749,0Zm0,3.781a1.139,1.139,0,1,1,1.139-1.139A1.141,1.141,0,0,1,245.749,3.781Z" transform="translate(-229.446)"/>
      <path id="Trazado_105584" data-name="Trazado 105584" d="M114.007,163.232l-5.9,7.77a6.744,6.744,0,0,0,5.372,10.821H129.9A6.744,6.744,0,0,0,135.27,171l-5.9-7.77a7.124,7.124,0,0,1-1.441-4.282v-6.765a3.6,3.6,0,0,0-.751-7.12h-6.448a.751.751,0,1,0,0,1.5h6.448a2.1,2.1,0,0,1,0,4.194H116.2a2.1,2.1,0,1,1,0-4.194h1.528a.751.751,0,1,0,0-1.5H116.2a3.6,3.6,0,0,0-.751,7.12v6.765A7.125,7.125,0,0,1,114.007,163.232Zm12.422-10.967v6.685a8.635,8.635,0,0,0,1.747,5.191l5.9,7.77a5.241,5.241,0,0,1-4.175,8.41H113.481a5.241,5.241,0,0,1-4.175-8.41l5.9-7.77a8.631,8.631,0,0,0,1.561-3.427h2.866a.751.751,0,1,0,0-1.5h-2.685c0-.087.005-1.356.005-1.356h1.667a.751.751,0,1,0,0-1.5H116.95V155h2.68a.751.751,0,1,0,0-1.5h-2.68v-1.229h9.479Z" transform="translate(-106.737 -130.533)"/>
    </g>
  </g>
</svg>
