<svg xmlns="http://www.w3.org/2000/svg" width="100" height="98.706" viewBox="0 0 100 98.706">
  <g id="pala" transform="translate(0 0)">
    <path id="Trazado_106091" data-name="Trazado 106091" d="M99.252,88.427A23.6,23.6,0,0,0,73.911,70.9L79.42,59.639l.008,0a1.953,1.953,0,1,0,1.714-3.51l-7.353-3.593,2.107-4.31a1.952,1.952,0,0,0-.9-2.613l-.468-.228,13.442-27.5c.326,0,.654-.021.983-.053a9.1,9.1,0,0,0,7.249-5.025l.237-.486a1.916,1.916,0,0,0,.359.034,1.954,1.954,0,0,0,.859-3.709L81.639.828h0L80.351.2A1.953,1.953,0,0,0,78.2,3.417l-.237.484a9.091,9.091,0,0,0,.486,8.806q.263.414.556.8l-13.444,27.5-.469-.23a1.953,1.953,0,0,0-2.612.9l-2.109,4.311-7.355-3.593A1.953,1.953,0,0,0,51.3,45.9l.007,0L43.717,61.432A28.375,28.375,0,0,0,22.823,75.675c-.559-.045-1.116-.067-1.667-.067A21.132,21.132,0,0,0,0,96.753a1.954,1.954,0,0,0,1.953,1.953H97.909A1.953,1.953,0,0,0,99.85,96.97a23.545,23.545,0,0,0-.6-8.543ZM92.7,11.1a5.167,5.167,0,0,1-4.116,2.853,7.226,7.226,0,0,1-6.831-3.336,5.158,5.158,0,0,1-.276-5l.207-.423L92.9,10.677ZM82.018,16.241a11.112,11.112,0,0,0,1.949.954L71.022,43.675l-1.951-.953Zm-16.885,28.9,6.4,3.125-1.25,2.557-6.4-3.125ZM75.91,57.925l-6.563,13.42A28.494,28.494,0,0,0,48.191,61.176l6.628-13.554ZM96.088,94.8H4.015a17.038,17.038,0,0,1,.922-3.931H20.119a1.953,1.953,0,0,0,0-3.906H6.955A17.276,17.276,0,0,1,23.647,79.7a1.953,1.953,0,0,0,2.026-1.061A24.473,24.473,0,0,1,67.4,75.19a1.954,1.954,0,0,0,2.253.686q.648-.237,1.307-.428L71,75.436A19.706,19.706,0,0,1,94.666,86.963H45.438a1.953,1.953,0,0,0,0,3.906H95.789a19.765,19.765,0,0,1,.305,3.466C96.094,94.489,96.091,94.644,96.088,94.8Zm0,0" transform="translate(0 0)" fill="#12263f"/>
    <path id="Trazado_106092" data-name="Trazado 106092" d="M250.723,364.3a1.95,1.95,0,0,1-1.582-.806,16.832,16.832,0,0,0-13.574-6.933,1.953,1.953,0,0,1,0-3.906A20.748,20.748,0,0,1,252.3,361.2a1.954,1.954,0,0,1-1.579,3.1Zm0,0" transform="translate(-187.986 -283.775)" fill="#12263f"/>
    <path id="Trazado_106093" data-name="Trazado 106093" d="M190.7,449.157a1.886,1.886,0,0,1-.381-.04,1.963,1.963,0,0,1-.365-.111,1.933,1.933,0,0,1-.338-.179,1.893,1.893,0,0,1-.3-.242,1.943,1.943,0,0,1-.533-1.764,2.035,2.035,0,0,1,.111-.365,1.919,1.919,0,0,1,.18-.336,1.857,1.857,0,0,1,.242-.3,2.046,2.046,0,0,1,.3-.244,1.933,1.933,0,0,1,.338-.179,2.085,2.085,0,0,1,.365-.111,1.976,1.976,0,0,1,1.762.535,1.857,1.857,0,0,1,.242.3,1.919,1.919,0,0,1,.18.336,2.041,2.041,0,0,1,.113.365,1.911,1.911,0,0,1,.037.383,1.954,1.954,0,0,1-1.953,1.953Zm0,0" transform="translate(-151.885 -358.288)" fill="#12263f"/>
  </g>
</svg>
