<svg id="metano" xmlns="http://www.w3.org/2000/svg" width="48.798" height="48.798" viewBox="0 0 48.798 48.798">
  <path id="Trazado_105585" data-name="Trazado 105585" d="M184.9,176.516a8.387,8.387,0,1,1-8.387-8.387A8.388,8.388,0,0,1,184.9,176.516Zm0,0" transform="translate(-152.105 -152.105)" fill="#fb9e36"/>
  <g id="Grupo_54923" data-name="Grupo 54923" transform="translate(0.953 0.953)">
    <path id="Trazado_105586" data-name="Trazado 105586" d="M207.867,15.718a5.668,5.668,0,1,0-5.668,5.719A5.693,5.693,0,0,0,207.867,15.718Zm0,0" transform="translate(-178.753 -10)" fill="#fff"/>
    <path id="Trazado_105587" data-name="Trazado 105587" d="M21.437,201.234A5.719,5.719,0,1,0,15.718,207,5.744,5.744,0,0,0,21.437,201.234Zm0,0" transform="translate(-10 -177.788)" fill="#fff"/>
    <path id="Trazado_105588" data-name="Trazado 105588" d="M71.437,386.7a5.719,5.719,0,1,0-5.718,5.77A5.744,5.744,0,0,0,71.437,386.7Zm0,0" transform="translate(-55.235 -345.577)" fill="#fff"/>
    <path id="Trazado_105589" data-name="Trazado 105589" d="M394.4,387.719a5.668,5.668,0,1,0-5.668,5.719A5.693,5.693,0,0,0,394.4,387.719Zm0,0" transform="translate(-347.507 -346.545)" fill="#fff"/>
  </g>
  <path id="Trazado_105590" data-name="Trazado 105590" d="M210.593,206.176a.953.953,0,0,0,1.348-1.348,5.03,5.03,0,1,0,0,7.116.953.953,0,0,0-1.348-1.348,3.126,3.126,0,1,1,0-4.42Zm0,0" transform="translate(-183.972 -183.975)"/>
  <path id="Trazado_105591" data-name="Trazado 105591" d="M25.364,15.119V13.271a6.622,6.622,0,1,0-1.906,0v1.844a9.357,9.357,0,0,0-8.339,8.341.971.971,0,0,0-.156-.014H13.275a6.723,6.723,0,1,0,0,1.906h1.688a.944.944,0,0,0,.153-.013,9.325,9.325,0,0,0,3.029,5.993L14.6,36.158a6.59,6.59,0,0,0-3.163-.805,6.706,6.706,0,1,0,4.69,1.947l3.553-4.838a9.339,9.339,0,1,0,5.684-17.343ZM6.672,29.215A4.817,4.817,0,1,1,11.437,24.4,4.8,4.8,0,0,1,6.672,29.215ZM16.2,42.075a4.766,4.766,0,1,1-4.765-4.816A4.8,4.8,0,0,1,16.2,42.075Zm3.482-35.4A4.715,4.715,0,1,1,24.4,11.437,4.746,4.746,0,0,1,19.684,6.672Zm4.727,25.174a7.434,7.434,0,1,1,7.434-7.434A7.442,7.442,0,0,1,24.411,31.845Zm0,0"/>
  <path id="Trazado_105592" data-name="Trazado 105592" d="M232.24,43.074v.953a.953.953,0,0,0,1.906,0V40.215a.953.953,0,0,0-1.906,0v.953h-1.334v-.953a.953.953,0,1,0-1.906,0v3.812a.953.953,0,1,0,1.906,0v-.953Zm0,0" transform="translate(-207.174 -35.52)"/>
  <path id="Trazado_105593" data-name="Trazado 105593" d="M47.194,226a.953.953,0,0,0-.953.953v.953H44.906v-.953a.953.953,0,0,0-1.906,0v3.812a.953.953,0,1,0,1.906,0v-.953H46.24v.953a.953.953,0,1,0,1.906,0v-3.812A.953.953,0,0,0,47.194,226Zm0,0" transform="translate(-38.902 -204.46)"/>
  <path id="Trazado_105594" data-name="Trazado 105594" d="M97.194,411.465a.953.953,0,0,0-.953.953v.953H94.906v-.953a.953.953,0,1,0-1.906,0v3.812a.953.953,0,1,0,1.906,0v-.953H96.24v.953a.953.953,0,1,0,1.906,0v-3.812A.953.953,0,0,0,97.194,411.465Zm0,0" transform="translate(-84.136 -372.249)"/>
  <path id="Trazado_105595" data-name="Trazado 105595" d="M419.725,412a.953.953,0,0,0-.953.953v.953h-1.334v-.953a.953.953,0,1,0-1.906,0v3.812a.953.953,0,1,0,1.906,0v-.953h1.334v.953a.953.953,0,1,0,1.906,0v-3.812A.953.953,0,0,0,419.725,412Zm0,0" transform="translate(-375.928 -372.733)"/>
  <path id="Trazado_105596" data-name="Trazado 105596" d="M371.774,365.055a6.553,6.553,0,0,0-4.008,1.366l-1.819-1.819a.953.953,0,1,0-1.348,1.348l1.836,1.836a6.608,6.608,0,1,0,5.339-2.732Zm0,11.437a4.766,4.766,0,1,1,4.715-4.765A4.746,4.746,0,0,1,371.774,376.492Zm0,0" transform="translate(-329.598 -329.6)"/>
  <path id="Trazado_105597" data-name="Trazado 105597" d="M337.172,336.211a.953.953,0,1,0,.674.279A.959.959,0,0,0,337.172,336.211Zm0,0" transform="translate(-304.174 -304.167)"/>
</svg>
