<svg xmlns="http://www.w3.org/2000/svg" width="347.5" height="186.836" viewBox="0 0 347.5 186.836">
  <g id="Grupo_54675" data-name="Grupo 54675" transform="translate(-1205.859 -137.904)">
    <path id="Trazado_105045" data-name="Trazado 105045" d="M1291.233,349.255c11.237,14.982,11.913,37.644,26.617,50.582,17.438,15.345,45.37,17.548,67.234,18.609,45.855,2.226,96.365,6.509,139.573-10.413,7.592-2.973,15.794-5.848,21.222-12.2,6.33-7.409,9.11-18.425,12.769-27.169,3.495-8.353,7.831-18.174,9.412-27.048,2-11.216-9.937-15.114-19.53-16.2Z" transform="translate(-43.654 -95.878)" fill="#fb9e36"/>
    <path id="Trazado_105046" data-name="Trazado 105046" d="M1260.769,299.863c-15.227,10.49-35.589,13.728-49.6,27.422a79.709,79.709,0,0,1,16.976-.05c-8.618,5.655-16.748,11.784-22.289,20.5a208.855,208.855,0,0,1,68.793-3.764c-8.276,7.467-16.431,19.2-20.357,29.765,4.276-1.6,8.591-3.24,12.988-4.677,6.877-2.248,29.114-8.175,29.114-8.175s3.668,12.24,4.21,16.98c4.623-4.643,10.207-8.785,15.294-13.049a147.626,147.626,0,0,1,27.394,26.8c.647-5.432.457-11.058,1.01-16.5,6.739,2.586,9.015,10.165,14.191,14.587,5.566-4.715,9.909-11.314,16.154-15.283,3.217,5.154,3.791,11.824,7.194,16.854,6.52-3.149,12.753-8.76,18.993-12.746,4.387-2.8,22.82-8.462,17.486-9.283-1.618-.249,11.346,4.944,15.529,6.93,5.857,2.78,12.38,4.994,18.1,7.469.918-3.994-.4-8.552-.879-12.229,6.4-1.764,31.346,1.419,36.215,2.465,5.708,1.225,11.458,4.509,17.109,5.1.865-8.569-8.542-13.189-13.43-18.205,13.427-4.217,27.812-2.539,41.578-2.612-4.749-6.544-16.3-8.775-23.466-12.151a165.061,165.061,0,0,0-30.022-10.944,274.5,274.5,0,0,1,40.327,1c10.245.946,20.569,3.657,30.846,3.506-4.321-6.929-10.591-11.081-16.9-15.586,6.6-.132,14.023,3.122,20.025,5.356-11.986-14.823-31.375-29.714-50.767-32.411-16.2-2.253-35.033-3.161-51.25-1.432-23.339,2.488-44,11.432-66.2,17.75-22.691,6.455-45.343.87-67.148-5.408-6.654-1.916-13.31-2.365-20.1-3.381-3.64-.544-13.238-.3-15.551-2.973Z" transform="translate(0 -80.119)" fill="#ddc347"/>
    <path id="Trazado_105047" data-name="Trazado 105047" d="M1522.307,305.606c11.59-2.937,13.024-2.782,25.022-1.987-6.284-5.5-14.306-7.428-21.293-10.531,17.183-2.195,33.58.915,50.024,4.633-.67-9.364-25.075-18.328-32.3-21.384-19.362-8.183-41.711-13.108-62.557-14.994-35.458-3.207-70.123,5.055-102.334,18.862.48-.461,1.146-1.489,1.693-2.049l.109-2.216c-6.883-.259-14.006-2.778-20.909-3.822-10.88-1.645-22.321.948-33.156-.942-16.9-2.947-37.232-5.535-58.674,5.926,6.829.249,23.271,5.876,28.467,12.2-1.23,2.532-11.091,6.285-20.6,17.217-5.422,6.235-11.955,12.567-15.244,20.07,17.666-8.228,41.01-13.083,60.457-12.947-5.484,8.837-10,19.032-14.467,28.526,5.525-1.4,11.881-3.792,17.457-5.859,3.756-1.393,23.291-11.607,27.51-9.114,3.589,2.12,2.488,20.314,4.428,25.2,6.065-3.713,10.072-10.52,15.486-15.085,5.281,5.292,5.346,14.671,10.817,19.544,3.379-3.408,5.035-8.539,8.342-11.876,3.4-3.436,1.561-3.147,6.177-2.074,8.339,1.939,17.554,10.079,24.9,14.482,5.352,3.208,10.537,7.391,16.022,10.133,3.484-7.605.184-18.744-.744-26.532,11.57,0,25.035,3.9,35.523,8.249-3-3.823-7.918-6.312-10.894-10.365,14.327-1.063,29.088,7.459,43.182,8.624.228-6.4-13.6-12.678-17.366-16.763a253.34,253.34,0,0,1,30.677-3.16c11.025-.409,22.929,2.643,33.681,1.7C1550.705,322.966,1526.743,310.005,1522.307,305.606Z" transform="translate(-27.967 -62.766)" fill="#baa53d"/>
    <path id="Trazado_105048" data-name="Trazado 105048" d="M1732.261,360.348a2.433,2.433,0,0,0-2.346,3.748c1.06,1.693,4.734,2.4,6.452,2.72,4.318.8,9.844.556,14.37.278,3.539-.218,10.542-4.41,4.7-7.551-3.548-1.908-11.386-1.074-15.263-.646-2.035.225-4.582.316-6.152,1.451Z" transform="translate(-267.75 -112.717)" fill="#ba9449"/>
    <path id="Trazado_105049" data-name="Trazado 105049" d="M1397.313,323.7c-4.017,1.65-1.958,6.8.529,8.87a18.8,18.8,0,0,0,8.855,3.725,41.739,41.739,0,0,0,21.652-1.413c1.79,11.271,15.513,15.064,25.2,16.964,12.241,2.4,24.743,1.678,36.716-.945,7.218-1.581,13.608-4.152,18.551-9.488,6.447,3.48,27.446,3.443,29.2-5.688,2.729-14.2-27.576-7-33.659-5.638-24.445,5.461-47.823-2.091-70.743-10.135-7.512-2.636-15.879-5.209-23.975-4.478-5.749.519-8.531,3.662-11.636,7.989.638-.564.518-1.112.778-1.815Z" transform="translate(-96.738 -90.733)" fill="#ba9449"/>
    <path id="Trazado_105050" data-name="Trazado 105050" d="M1679.97,289.736s1.72-6.206,4.872-7.959,10.834-1.792,10.834-1.792l2.122,6.186,3.378.5-5.759,4.462,1.374,5.144-10.66,1.389Z" transform="translate(-242.429 -72.65)" fill="#ffd4a5"/>
    <path id="Trazado_105051" data-name="Trazado 105051" d="M1599.528,271.515l7.039-13.49,5.279,7.625,5.865-2.639.587,4.692,13.2,1.173.586,10.851,12.024-7.038.587,7.332,5.865,2.053.483,8.158-5.468,5.039-24.927-4.4Z" transform="translate(-201.296 -61.421)" fill="#e38e2f"/>
    <path id="Trazado_105052" data-name="Trazado 105052" d="M1643.922,302.45l-4.986-10.558-14.663,6.159-4.986-16.129-9.091,4.985-2.933-9.678-9.838,2.623c-4.765,13.457-2.832,30.037,13.581,37.841,15.8,7.51,30.005.915,37.462-16.829q.169-.4.335-.814Z" transform="translate(-199.06 -71.241)" fill="#ffb869"/>
    <path id="Trazado_105053" data-name="Trazado 105053" d="M1388.229,199.771c-9.983,4.83-14.312,23.689-10.857,43.923,2.869,16.8,18.26,35.533,39.974,27.637,16.437-5.977,21.714-20.728,14.312-38.494C1423.756,213.872,1403.529,192.369,1388.229,199.771Z" transform="translate(-87.1 -30.87)" fill="#ffd4a5"/>
    <path id="Trazado_105054" data-name="Trazado 105054" d="M1547.69,310.07c1.612-10.973-11.558-25.147-30.238-33.656-15.513-7.066-39.654-4.854-45.32,17.546-4.289,16.956,4.95,29.608,23.807,33.464C1516.067,331.541,1545.221,326.886,1547.69,310.07Z" transform="translate(-135.624 -68.997)" fill="#ffd4a5"/>
    <path id="Trazado_105055" data-name="Trazado 105055" d="M1378.639,272.558l4.106-7.185,5.719,5.572.88-2.933,9.091,2.933,2.2-13.637,8.651,2.932.44-3.812,6.452,1.32,4.546-4.252,6.012,2.053,2.64-1.906-2.64,1.026-6.305-2.346-4.546,4.4-6.159-1.613-1.026,3.959-8.5-2.786-2.786,13.05-8.358-2.346-.88,2.346-5.572-5.719-4,7.716Z" transform="translate(-88.329 -58.506)" fill="#89857d"/>
    <path id="Trazado_105056" data-name="Trazado 105056" d="M1538.521,276.628l-9.971,2.786,3.226,2.493-3.666,3.226,9.238,7.625-5.033,2-10.8,4.3,1.466,3.812.733,9.091.146-9.531-1.173-2.932,16.716-6.892-10.265-7.771,3.959-2.493-2.933-2.64Z" transform="translate(-161.403 -70.934)" fill="#89857d"/>
    <path id="Trazado_105057" data-name="Trazado 105057" d="M1543.955,319.136c.44-.147,7.185-1.76,7.185-1.76l2.932,5.719-2.493-6.452-7.478,1.466-1.613-3.372-1.173.44Z" transform="translate(-171.53 -90.42)" fill="#89857d"/>
    <path id="Trazado_105058" data-name="Trazado 105058" d="M1525.846,278.521l-2.493-2.493-2.639,2.786-6.159-.147-2.346,4.692,2.932-3.959,5.719.147,2.053-2.346,1.906,2.053Z" transform="translate(-156.647 -70.627)" fill="#89857d"/>
    <g id="Grupo_54634" data-name="Grupo 54634" transform="translate(1436.872 137.904)">
      <path id="Trazado_105059" data-name="Trazado 105059" d="M1705.518,201.323c-1.523-3.781-9.512-8.574-16.292-4.047s-10.626,13.111-10.626,13.111l3.853-.568-2.1,7.863,5.24-2.162-.1,4.522S1711.953,217.3,1705.518,201.323Z" transform="translate(-1678.6 -167.323)" fill="#ffefa2"/>
      <path id="Trazado_105060" data-name="Trazado 105060" d="M1749.082,261.016l1.238,21.756,1.238.177.708-22.11Z" transform="translate(-1714.64 -200.765)" fill="#fb9e36"/>
      <path id="Trazado_105061" data-name="Trazado 105061" d="M1775.354,267.45l1.238,21.756,1.239.177.707-22.11Z" transform="translate(-1728.074 -204.055)" fill="#fb9e36"/>
      <path id="Trazado_105062" data-name="Trazado 105062" d="M1736.438,166.573c.511-8.009-6.414-14.208-15.2-13.52-12.052.944-14.385,14.1-15.223,21.9-2,18.637,4.663,37.026,24.656,40.888,15.763,3.044,31.225-3.489,34.073-20.976,1.374-8.439,4.182-13.046-1.762-19.137-3.96-4.058-18.423-8.484-26.547-8.635Z" transform="translate(-1692.446 -145.624)" fill="#ffe35c"/>
      <path id="Trazado_105063" data-name="Trazado 105063" d="M1732.115,151.283l-.077-10.745,2.058,2.764,3.481-5.4.581,3.516,1.29-.936,1.893,5.545Z" transform="translate(-1705.924 -137.904)" fill="#ffefa2"/>
      <path id="Trazado_105064" data-name="Trazado 105064" d="M1708.831,166.69c-2.666.1-6.288,1.434-6,2.559s4.825,4.274,5.751,3.677C1710.281,171.83,1711.327,166.593,1708.831,166.69Z" transform="translate(-1690.983 -152.623)" fill="#fb9e36"/>
      <path id="Trazado_105065" data-name="Trazado 105065" d="M1740.531,164.153a1.561,1.561,0,1,1-1.561-1.561A1.561,1.561,0,0,1,1740.531,164.153Z" transform="translate(-1708.671 -150.528)" fill="#564336"/>
      <circle id="Elipse_4068" data-name="Elipse 4068" cx="1.561" cy="1.561" r="1.561" transform="translate(20.254 8.913)" fill="#564336"/>
      <path id="Trazado_105066" data-name="Trazado 105066" d="M1742.526,300.662l-6.288-1.4-.349.873,5.24,1.747-7.336.873.175,1.572,7.686-.873-4.891,3.843,1.747.524,5.231-5.226Z" transform="translate(-1706.822 -220.413)" fill="#fb9e36"/>
      <path id="Trazado_105067" data-name="Trazado 105067" d="M1768.977,306.381l-6.288-1.4-.349.873,5.24,1.747-7.336.873.175,1.572,7.686-.873-4.891,3.843,1.746.524,5.232-5.226Z" transform="translate(-1720.347 -223.337)" fill="#fb9e36"/>
      <path id="Trazado_105068" data-name="Trazado 105068" d="M1809.766,194.558l10.181,3.636-.97,3.636,3.152,2.182-2.182,3.151,3.151,1.7-4.606,5.09,2.424.97s-7.272,12.363-13.817,16.242S1809.766,194.558,1809.766,194.558Z" transform="translate(-1743.105 -166.873)" fill="#ffe35c"/>
      <path id="Trazado_105069" data-name="Trazado 105069" d="M1765.617,196.4c-3.79,2.34-7.475,11.832-1.345,18.3s16.088,9.019,16.088,9.019l-1.325-4.045,8.858.808-3.3-5.243,4.889-.73S1781.634,186.512,1765.617,196.4Z" transform="translate(-1720.735 -166.733)" fill="#ffefa2"/>
    </g>
    <path id="Trazado_105070" data-name="Trazado 105070" d="M1724.057,347.269s7.7,7.039,21.995,5.5c10.934-1.177,16.276-14.077,16.276-14.077l-8.138,3.959-2.64-6.159s-10.777,6.818-11.437,6.818-7.918-2.859-7.918-2.859Z" transform="translate(-264.972 -101.544)" fill="#ffd4a5"/>
    <g id="Grupo_54674" data-name="Grupo 54674" transform="translate(1248.738 200.187)">
      <g id="Grupo_54635" data-name="Grupo 54635" transform="translate(47.247 55.453)">
        <path id="Trazado_105071" data-name="Trazado 105071" d="M1392.139,386.562a25.371,25.371,0,0,1,7.4-5.693c1.262-.648.149-2.545-1.11-1.9a27.055,27.055,0,0,0-7.848,6.038c-.942,1.054.608,2.615,1.555,1.555Z" transform="translate(-1390.292 -378.837)" fill="#ba9449"/>
      </g>
      <g id="Grupo_54636" data-name="Grupo 54636" transform="translate(66.839 49.61)">
        <path id="Trazado_105072" data-name="Trazado 105072" d="M1432.46,374.36a26.135,26.135,0,0,1,5.107-5.643c1.075-.928-.488-2.477-1.555-1.555a28.078,28.078,0,0,0-5.451,6.088c-.766,1.2,1.138,2.3,1.9,1.11Z" transform="translate(-1430.383 -366.879)" fill="#ba9449"/>
      </g>
      <g id="Grupo_54637" data-name="Grupo 54637" transform="translate(59.53 48.406)">
        <path id="Trazado_105073" data-name="Trazado 105073" d="M1417.309,369.511a47.364,47.364,0,0,1,3.813-3.226,1.1,1.1,0,0,0,0-1.555,1.125,1.125,0,0,0-1.556,0,47.332,47.332,0,0,0-3.812,3.226c-1.011,1,.545,2.552,1.555,1.555Z" transform="translate(-1415.426 -364.416)" fill="#ba9449"/>
      </g>
      <g id="Grupo_54638" data-name="Grupo 54638" transform="translate(0 45.773)">
        <path id="Trazado_105074" data-name="Trazado 105074" d="M1295.485,365.583a23.469,23.469,0,0,1,5.643-4.521c1.259-.654.146-2.552-1.11-1.9a25.407,25.407,0,0,0-6.088,4.864,1.1,1.1,0,0,0,1.555,1.555Z" transform="translate(-1293.605 -359.028)" fill="#ba9449"/>
      </g>
      <g id="Grupo_54639" data-name="Grupo 54639" transform="translate(15.561 41.595)">
        <path id="Trazado_105075" data-name="Trazado 105075" d="M1327.088,356.984c2.113-1.25,3.887-2.96,5.865-4.4,1.135-.825.039-2.736-1.11-1.9-1.977,1.438-3.754,3.151-5.865,4.4a1.1,1.1,0,0,0,1.11,1.9Z" transform="translate(-1325.448 -350.478)" fill="#ba9449"/>
      </g>
      <g id="Grupo_54640" data-name="Grupo 54640" transform="translate(32.5 39.274)">
        <path id="Trazado_105076" data-name="Trazado 105076" d="M1362.045,351.156a62.118,62.118,0,0,1,5.349-3.347c1.183-.771.082-2.675-1.11-1.9a67.216,67.216,0,0,0-5.795,3.691c-1.1.891.462,2.438,1.555,1.555Z" transform="translate(-1360.113 -345.728)" fill="#ba9449"/>
      </g>
      <g id="Grupo_54641" data-name="Grupo 54641" transform="translate(12.693 34.898)">
        <path id="Trazado_105077" data-name="Trazado 105077" d="M1320.892,341a55.147,55.147,0,0,1,6.158-2.053,1.1,1.1,0,0,0-.584-2.121,54.952,54.952,0,0,0-6.159,2.053c-1.288.539-.723,2.669.585,2.121Z" transform="translate(-1319.579 -336.774)" fill="#ba9449"/>
      </g>
      <g id="Grupo_54642" data-name="Grupo 54642" transform="translate(28.485 29.921)">
        <path id="Trazado_105078" data-name="Trazado 105078" d="M1352.961,328.788a1.1,1.1,0,0,0,0-2.2,1.1,1.1,0,0,0,0,2.2Z" transform="translate(-1351.897 -326.589)" fill="#ba9449"/>
      </g>
      <g id="Grupo_54643" data-name="Grupo 54643" transform="translate(29.671 29.034)">
        <path id="Trazado_105079" data-name="Trazado 105079" d="M1355.375,327.86l7.918-.88c1.393-.155,1.408-2.356,0-2.2l-7.918.88c-1.393.155-1.409,2.356,0,2.2Z" transform="translate(-1354.324 -324.773)" fill="#ba9449"/>
      </g>
      <g id="Grupo_54644" data-name="Grupo 54644" transform="translate(22.925 16.685)">
        <path id="Trazado_105080" data-name="Trazado 105080" d="M1341.863,302.289c2.379-.8,4.864-.564,7.332-.547a1.1,1.1,0,0,0,0-2.2c-2.665-.019-5.349-.24-7.917.626-1.337.451-.763,2.576.585,2.121Z" transform="translate(-1340.518 -299.504)" fill="#ba9449"/>
      </g>
      <g id="Grupo_54645" data-name="Grupo 54645" transform="translate(7.386 9.969)">
        <path id="Trazado_105081" data-name="Trazado 105081" d="M1309.768,289.435c2.669-.337,5.251-1.13,7.918-1.466,1.388-.175,1.4-2.377,0-2.2-2.669.337-5.251,1.13-7.918,1.466-1.388.175-1.4,2.377,0,2.2Z" transform="translate(-1308.721 -285.759)" fill="#ba9449"/>
      </g>
      <g id="Grupo_54646" data-name="Grupo 54646" transform="translate(29.071 10.859)">
        <path id="Trazado_105082" data-name="Trazado 105082" d="M1354.161,289.78h3.519a1.1,1.1,0,0,0,0-2.2h-3.519a1.1,1.1,0,0,0,0,2.2Z" transform="translate(-1353.097 -287.581)" fill="#ba9449"/>
      </g>
      <g id="Grupo_54647" data-name="Grupo 54647" transform="translate(84.169 66.318)">
        <path id="Trazado_105083" data-name="Trazado 105083" d="M1468.048,411.523c.093-3.173,1.446-6.081,2.306-9.092a1.1,1.1,0,0,0-2.121-.585c-.919,3.218-2.285,6.284-2.385,9.677-.042,1.419,2.157,1.415,2.2,0Z" transform="translate(-1465.848 -401.07)" fill="#ba9449"/>
      </g>
      <g id="Grupo_54648" data-name="Grupo 54648" transform="translate(83.314 56.036)">
        <path id="Trazado_105084" data-name="Trazado 105084" d="M1466.123,386.363c.776-1.568,1.459-3.183,2.346-4.692a1.1,1.1,0,0,0-1.9-1.11c-.887,1.51-1.57,3.125-2.346,4.692-.627,1.267,1.27,2.381,1.9,1.11Z" transform="translate(-1464.099 -380.03)" fill="#ba9449"/>
      </g>
      <g id="Grupo_54649" data-name="Grupo 54649" transform="translate(104.694 67.495)">
        <path id="Trazado_105085" data-name="Trazado 105085" d="M1508.147,404.544c0,3.524-.022,7.043-.293,10.558-.109,1.415,2.091,1.4,2.2,0,.271-3.515.292-7.034.293-10.558a1.1,1.1,0,0,0-2.2,0Z" transform="translate(-1507.85 -403.48)" fill="#ba9449"/>
      </g>
      <g id="Grupo_54650" data-name="Grupo 54650" transform="translate(121.375 69.259)">
        <path id="Trazado_105086" data-name="Trazado 105086" d="M1542.346,408.926a53.74,53.74,0,0,1,5.572,5.572c.928,1.076,2.477-.488,1.555-1.555a53.761,53.761,0,0,0-5.572-5.572c-1.068-.922-2.63.626-1.555,1.555Z" transform="translate(-1541.984 -407.088)" fill="#ba9449"/>
      </g>
      <g id="Grupo_54651" data-name="Grupo 54651" transform="translate(136.407 63.061)">
        <path id="Trazado_105087" data-name="Trazado 105087" d="M1573.81,396.6a1.1,1.1,0,0,0,0-2.2,1.1,1.1,0,0,0,0,2.2Z" transform="translate(-1572.746 -394.405)" fill="#ba9449"/>
      </g>
      <g id="Grupo_54652" data-name="Grupo 54652" transform="translate(137.024 63.59)">
        <path id="Trazado_105088" data-name="Trazado 105088" d="M1574.487,397.595c2.026,1.474,3.838,3.217,5.865,4.692,1.149.836,2.245-1.074,1.11-1.9-2.026-1.474-3.838-3.217-5.865-4.692-1.149-.836-2.245,1.074-1.11,1.9Z" transform="translate(-1574.009 -395.488)" fill="#ba9449"/>
      </g>
      <g id="Grupo_54653" data-name="Grupo 54653" transform="translate(146.962 83.847)">
        <path id="Trazado_105089" data-name="Trazado 105089" d="M1594.634,438.855a71.278,71.278,0,0,1,5.693,6.816c.793,1.165,2.7.066,1.9-1.11a75.84,75.84,0,0,0-6.037-7.261c-.939-1.066-2.489.5-1.555,1.555Z" transform="translate(-1594.346 -436.943)" fill="#ba9449"/>
      </g>
      <g id="Grupo_54654" data-name="Grupo 54654" transform="translate(152.779 58.684)">
        <path id="Trazado_105090" data-name="Trazado 105090" d="M1606.809,387.476l5.279,2.64c1.264.632,2.379-1.265,1.11-1.9l-5.279-2.639c-1.265-.632-2.379,1.265-1.11,1.9Z" transform="translate(-1606.25 -385.45)" fill="#ba9449"/>
      </g>
      <g id="Grupo_54655" data-name="Grupo 54655" transform="translate(169.162 71.331)">
        <path id="Trazado_105091" data-name="Trazado 105091" d="M1640.152,413.147c1.4,1.134,2.7,2.385,4.106,3.519,1.092.883,2.659-.663,1.555-1.555-1.4-1.134-2.7-2.385-4.105-3.519-1.093-.884-2.659.663-1.556,1.555Z" transform="translate(-1639.776 -411.328)" fill="#ba9449"/>
      </g>
      <g id="Grupo_54656" data-name="Grupo 54656" transform="translate(177.464 61.301)">
        <path id="Trazado_105092" data-name="Trazado 105092" d="M1657.828,393a1.1,1.1,0,0,0,0-2.2,1.1,1.1,0,0,0,0,2.2Z" transform="translate(-1656.764 -390.804)" fill="#ba9449"/>
      </g>
      <g id="Grupo_54657" data-name="Grupo 54657" transform="translate(177.481 61.255)">
        <path id="Trazado_105093" data-name="Trazado 105093" d="M1657.291,392.806a31.6,31.6,0,0,0,7.008,3.337c1.331.5,1.9-1.627.585-2.121a29.13,29.13,0,0,1-6.482-3.115c-1.17-.808-2.269,1.1-1.11,1.9Z" transform="translate(-1656.799 -390.711)" fill="#ba9449"/>
      </g>
      <g id="Grupo_54658" data-name="Grupo 54658" transform="translate(167.163 60.114)">
        <path id="Trazado_105094" data-name="Trazado 105094" d="M1636.23,390.438a43.657,43.657,0,0,0,3.519,2.639c1.213.743,2.317-1.16,1.11-1.9a43.83,43.83,0,0,1-3.519-2.64,1.1,1.1,0,0,0-1.5.395,1.125,1.125,0,0,0,.394,1.5Z" transform="translate(-1635.685 -388.374)" fill="#ba9449"/>
      </g>
      <g id="Grupo_54659" data-name="Grupo 54659" transform="translate(167.814 53.052)">
        <path id="Trazado_105095" data-name="Trazado 105095" d="M1637.761,376.121a25.829,25.829,0,0,0,4.985,1.173c1.387.232,1.982-1.888.585-2.121a25.832,25.832,0,0,1-4.986-1.173c-1.328-.506-1.9,1.621-.584,2.12Z" transform="translate(-1637.018 -373.923)" fill="#ba9449"/>
      </g>
      <g id="Grupo_54660" data-name="Grupo 54660" transform="translate(186.556 56.902)">
        <path id="Trazado_105096" data-name="Trazado 105096" d="M1676.433,384a1.1,1.1,0,0,0,0-2.2,1.1,1.1,0,0,0,0,2.2Z" transform="translate(-1675.37 -381.802)" fill="#ba9449"/>
      </g>
      <g id="Grupo_54661" data-name="Grupo 54661" transform="translate(186.569 56.859)">
        <path id="Trazado_105097" data-name="Trazado 105097" d="M1675.892,383.806a61.453,61.453,0,0,0,9.384,4.985c1.281.582,2.4-1.313,1.11-1.9a61.382,61.382,0,0,1-9.384-4.985c-1.175-.8-2.273,1.1-1.11,1.9Z" transform="translate(-1675.397 -381.713)" fill="#ba9449"/>
      </g>
      <g id="Grupo_54662" data-name="Grupo 54662" transform="translate(206.109 71.924)">
        <path id="Trazado_105098" data-name="Trazado 105098" d="M1715.764,414.355a31.6,31.6,0,0,0,5.208,3.4c1.26.643,2.374-1.254,1.11-1.9a28.805,28.805,0,0,1-4.763-3.054c-1.1-.869-2.668.676-1.555,1.555Z" transform="translate(-1715.383 -412.543)" fill="#ba9449"/>
      </g>
      <g id="Grupo_54663" data-name="Grupo 54663" transform="translate(195.312 48.995)">
        <path id="Trazado_105099" data-name="Trazado 105099" d="M1693.838,367.659c2.782,1.475,5.845,2.2,8.767,3.337,1.325.513,1.893-1.614.585-2.121-2.742-1.062-5.633-1.731-8.242-3.115-1.252-.664-2.363,1.235-1.11,1.9Z" transform="translate(-1693.288 -365.621)" fill="#ba9449"/>
      </g>
      <g id="Grupo_54664" data-name="Grupo 54664" transform="translate(215.86 58.089)">
        <path id="Trazado_105100" data-name="Trazado 105100" d="M1736.131,386.377c2.921.588,5.832,1.186,8.8,1.506,1.41.152,1.395-2.049,0-2.2-2.768-.3-5.486-.879-8.213-1.427-1.385-.279-1.974,1.841-.584,2.121Z" transform="translate(-1735.337 -384.231)" fill="#ba9449"/>
      </g>
      <g id="Grupo_54665" data-name="Grupo 54665" transform="translate(204.151 30.517)">
        <path id="Trazado_105101" data-name="Trazado 105101" d="M1712.441,331.172a42.646,42.646,0,0,0,8.5-1.212c1.385-.3.8-2.425-.585-2.121a39.687,39.687,0,0,1-7.919,1.134,1.1,1.1,0,0,0,0,2.2Z" transform="translate(-1711.377 -327.809)" fill="#ba9449"/>
      </g>
      <g id="Grupo_54666" data-name="Grupo 54666" transform="translate(225.266 32.268)">
        <path id="Trazado_105102" data-name="Trazado 105102" d="M1755.65,333.591a1.1,1.1,0,0,0,0-2.2,1.1,1.1,0,0,0,0,2.2Z" transform="translate(-1754.586 -331.391)" fill="#ba9449"/>
      </g>
      <g id="Grupo_54667" data-name="Grupo 54667" transform="translate(226.44 31.974)">
        <path id="Trazado_105103" data-name="Trazado 105103" d="M1758.051,333.284c1.57-.017,3.124-.273,4.692-.293a1.1,1.1,0,0,0,0-2.2c-1.569.02-3.122.276-4.692.293a1.1,1.1,0,0,0,0,2.2Z" transform="translate(-1756.988 -330.791)" fill="#ba9449"/>
      </g>
      <g id="Grupo_54668" data-name="Grupo 54668" transform="translate(246.675 17.018)">
        <path id="Trazado_105104" data-name="Trazado 105104" d="M1799.46,302.383a1.1,1.1,0,0,0,0-2.2,1.1,1.1,0,0,0,0,2.2Z" transform="translate(-1798.396 -300.184)" fill="#ba9449"/>
      </g>
      <g id="Grupo_54669" data-name="Grupo 54669" transform="translate(246.942 17.041)">
        <path id="Trazado_105105" data-name="Trazado 105105" d="M1799.741,302.368c3.509.563,7.048.9,10.558,1.466,1.387.222,1.982-1.9.584-2.121-3.509-.564-7.048-.9-10.557-1.466-1.387-.223-1.982,1.9-.585,2.121Z" transform="translate(-1798.943 -300.23)" fill="#ba9449"/>
      </g>
      <g id="Grupo_54670" data-name="Grupo 54670" transform="translate(271.312 22.263)">
        <path id="Trazado_105106" data-name="Trazado 105106" d="M1849.319,313c.954.625,1.978,1.135,2.932,1.759,1.191.779,2.292-1.126,1.11-1.9-.954-.625-1.978-1.135-2.933-1.76-1.19-.779-2.291,1.126-1.11,1.9Z" transform="translate(-1848.813 -310.918)" fill="#ba9449"/>
      </g>
      <g id="Grupo_54671" data-name="Grupo 54671" transform="translate(191.526 3.527)">
        <path id="Trazado_105107" data-name="Trazado 105107" d="M1686.912,275.324a16.884,16.884,0,0,1,3.814-.547,1.1,1.1,0,0,0,0-2.2,19.65,19.65,0,0,0-4.4.626c-1.377.338-.793,2.459.584,2.121Z" transform="translate(-1685.542 -272.577)" fill="#ba9449"/>
      </g>
      <g id="Grupo_54672" data-name="Grupo 54672" transform="translate(209.43 7.047)">
        <path id="Trazado_105108" data-name="Trazado 105108" d="M1723.243,281.978c1.084.017,2.144.271,3.226.293a1.1,1.1,0,0,0,0-2.2c-1.081-.022-2.142-.276-3.226-.293a1.1,1.1,0,0,0,0,2.2Z" transform="translate(-1722.18 -279.779)" fill="#ba9449"/>
      </g>
      <g id="Grupo_54673" data-name="Grupo 54673" transform="translate(174.545)">
        <path id="Trazado_105109" data-name="Trazado 105109" d="M1651.841,269.033c2.865-.327,5.642-1.139,8.5-1.466,1.392-.159,1.408-2.361,0-2.2-2.865.327-5.642,1.139-8.5,1.466-1.392.159-1.408,2.36,0,2.2Z" transform="translate(-1650.791 -265.359)" fill="#ba9449"/>
      </g>
    </g>
    <path id="Trazado_105110" data-name="Trazado 105110" d="M1395.027,207.268c-3.182.259-5.158,2.514-6.99,5.047a12.565,12.565,0,0,0-2.045,5.064c-.013.057-.026.115-.038.171-.41,2.051-.862,4.252.659,6.005,1.048,1.208,3.067,2.311,4.62,1.478,1.832-.982,1.585-3.784,2.027-5.461a16.72,16.72,0,0,1,3.031-6.152C1398.56,210.559,1401.053,206.778,1395.027,207.268Z" transform="translate(-91.886 -35.446)" fill="#eaf7d7"/>
  </g>
</svg>
