<svg xmlns="http://www.w3.org/2000/svg" width="400" height="292.969" viewBox="0 0 400 292.969">
  <g id="Grupo_82782" data-name="Grupo 82782" transform="translate(-810 -97.873)">
    <path id="Trazado_107553" data-name="Trazado 107553" d="M30,0H370a30,30,0,0,1,30,30V262.969a30,30,0,0,1-30,30H30a30,30,0,0,1-30-30V30A30,30,0,0,1,30,0Z" transform="translate(810 97.873)" fill="#e2f6c6"/>
    <path id="Trazado_107554" data-name="Trazado 107554" d="M115.342,13.971h-1.855V19h-3.428V4.781h5.6A6.246,6.246,0,0,1,119.609,5.9a3.8,3.8,0,0,1,1.426,3.17,4.616,4.616,0,0,1-.6,2.458,4.263,4.263,0,0,1-1.88,1.58l2.969,5.741V19h-3.672Zm-1.855-2.637h2.168a1.946,1.946,0,0,0,1.47-.514,1.987,1.987,0,0,0,.493-1.434,2.01,2.01,0,0,0-.5-1.444,1.928,1.928,0,0,0-1.465-.524h-2.168Zm14.58,7.861a5.432,5.432,0,0,1-3.936-1.45,5.008,5.008,0,0,1-1.5-3.774V13.7a6.489,6.489,0,0,1,.6-2.861,4.395,4.395,0,0,1,1.753-1.919,5.292,5.292,0,0,1,2.734-.679A4.574,4.574,0,0,1,131.23,9.62a5.43,5.43,0,0,1,1.289,3.853v1.279h-6.543a2.372,2.372,0,0,0,.771,1.4,2.3,2.3,0,0,0,1.543.508,2.958,2.958,0,0,0,2.441-1.094l1.5,1.777a4.2,4.2,0,0,1-1.743,1.353A5.891,5.891,0,0,1,128.066,19.2Zm-.371-8.418q-1.445,0-1.719,1.914h3.32v-.254a1.63,1.63,0,0,0-.4-1.226A1.593,1.593,0,0,0,127.7,10.777Zm11.68,5.254a.76.76,0,0,0-.439-.674,6.685,6.685,0,0,0-1.67-.527,7.615,7.615,0,0,1-2.031-.718,3.4,3.4,0,0,1-1.221-1.079,2.577,2.577,0,0,1-.42-1.455,2.92,2.92,0,0,1,1.2-2.4,4.948,4.948,0,0,1,3.145-.942,5.482,5.482,0,0,1,3.359.947,2.962,2.962,0,0,1,1.27,2.49h-3.3q0-1.27-1.338-1.27a1.326,1.326,0,0,0-.869.288.892.892,0,0,0-.352.718.819.819,0,0,0,.43.713,4.06,4.06,0,0,0,1.372.449,11.857,11.857,0,0,1,1.655.42,3.007,3.007,0,0,1,2.383,2.939,2.767,2.767,0,0,1-1.284,2.354,5.632,5.632,0,0,1-3.325.908,5.747,5.747,0,0,1-2.422-.488,4.05,4.05,0,0,1-1.66-1.328,3.007,3.007,0,0,1-.6-1.768h3.076a1.272,1.272,0,0,0,.488,1.069,2.009,2.009,0,0,0,1.2.337,1.58,1.58,0,0,0,1.011-.273A.875.875,0,0,0,139.375,16.031ZM147.559,19h-3.3V8.434h3.3Zm-3.5-13.3a1.482,1.482,0,0,1,.508-1.159,2.149,2.149,0,0,1,2.637,0,1.482,1.482,0,0,1,.508,1.159,1.482,1.482,0,0,1-.508,1.159,2.149,2.149,0,0,1-2.637,0A1.482,1.482,0,0,1,144.063,5.7Zm5.107,7.939a6.455,6.455,0,0,1,1.084-3.955,3.568,3.568,0,0,1,3.027-1.445,3.035,3.035,0,0,1,2.383,1.113V4h3.3V19h-2.959l-.166-1.133a3.116,3.116,0,0,1-2.578,1.328,3.562,3.562,0,0,1-2.988-1.445A6.659,6.659,0,0,1,149.17,13.639Zm3.291.205q0,2.813,1.641,2.813a1.62,1.62,0,0,0,1.563-.918V11.715a1.576,1.576,0,0,0-1.543-.937q-1.523,0-1.65,2.461Zm14.668,4.014a3.393,3.393,0,0,1-2.822,1.338,3.328,3.328,0,0,1-2.632-1.011,4.251,4.251,0,0,1-.894-2.905V8.434h3.291V15.3a1.183,1.183,0,0,0,1.318,1.357A1.72,1.72,0,0,0,167,15.846V8.434h3.311V19h-3.086Zm4.57-4.238a6.236,6.236,0,0,1,.615-2.817,4.4,4.4,0,0,1,1.768-1.9,5.323,5.323,0,0,1,2.705-.664,4.858,4.858,0,0,1,3.74,1.47,5.64,5.64,0,0,1,1.367,4v.117a5.472,5.472,0,0,1-1.372,3.921,4.871,4.871,0,0,1-3.716,1.45,4.927,4.927,0,0,1-3.623-1.353,5.29,5.29,0,0,1-1.475-3.667Zm3.291.205a3.932,3.932,0,0,0,.459,2.148,1.529,1.529,0,0,0,1.357.684q1.758,0,1.8-2.705v-.332q0-2.842-1.816-2.842-1.65,0-1.787,2.451Zm16.357-5.391.107,1.24a3.583,3.583,0,0,1,3.018-1.436,3.015,3.015,0,0,1,2.466.986,4.7,4.7,0,0,1,.845,2.969V19h-3.3V12.33a1.783,1.783,0,0,0-.322-1.177,1.491,1.491,0,0,0-1.172-.376,1.569,1.569,0,0,0-1.436.762V19h-3.291V8.434Zm7.842,5.186A6.236,6.236,0,0,1,199.8,10.8a4.4,4.4,0,0,1,1.768-1.9,5.323,5.323,0,0,1,2.705-.664,4.858,4.858,0,0,1,3.74,1.47,5.64,5.64,0,0,1,1.367,4v.117a5.472,5.472,0,0,1-1.372,3.921A4.871,4.871,0,0,1,204.3,19.2a4.927,4.927,0,0,1-3.623-1.353,5.29,5.29,0,0,1-1.475-3.667Zm3.291.205a3.932,3.932,0,0,0,.459,2.148,1.529,1.529,0,0,0,1.357.684q1.758,0,1.8-2.705v-.332q0-2.842-1.816-2.842-1.65,0-1.787,2.451Zm18.867,2.207a.76.76,0,0,0-.439-.674,6.685,6.685,0,0,0-1.67-.527,7.615,7.615,0,0,1-2.031-.718,3.4,3.4,0,0,1-1.221-1.079,2.577,2.577,0,0,1-.42-1.455,2.92,2.92,0,0,1,1.2-2.4,4.948,4.948,0,0,1,3.145-.942,5.482,5.482,0,0,1,3.359.947,2.962,2.962,0,0,1,1.27,2.49h-3.3q0-1.27-1.338-1.27a1.326,1.326,0,0,0-.869.288.892.892,0,0,0-.352.718.819.819,0,0,0,.43.713,4.06,4.06,0,0,0,1.372.449,11.857,11.857,0,0,1,1.655.42,3.007,3.007,0,0,1,2.383,2.939,2.767,2.767,0,0,1-1.284,2.354,5.632,5.632,0,0,1-3.325.908,5.747,5.747,0,0,1-2.422-.488,4.05,4.05,0,0,1-1.66-1.328,3.007,3.007,0,0,1-.6-1.768h3.076a1.272,1.272,0,0,0,.488,1.069,2.009,2.009,0,0,0,1.2.337,1.58,1.58,0,0,0,1.011-.273A.875.875,0,0,0,221.348,16.031ZM232.012,19a3.716,3.716,0,0,1-.312-.947A3.06,3.06,0,0,1,229.16,19.2a3.749,3.749,0,0,1-2.539-.9,2.875,2.875,0,0,1-1.045-2.271,2.955,2.955,0,0,1,1.27-2.6,6.468,6.468,0,0,1,3.691-.879h1.016v-.559q0-1.462-1.26-1.462a1.03,1.03,0,0,0-1.172,1.158H225.83a2.95,2.95,0,0,1,1.3-2.487,5.479,5.479,0,0,1,3.325-.956,4.8,4.8,0,0,1,3.193.986,3.429,3.429,0,0,1,1.2,2.705v4.678a4.79,4.79,0,0,0,.449,2.227V19Zm-2.061-2.148a1.836,1.836,0,0,0,1.021-.264,1.653,1.653,0,0,0,.581-.6V14.3H230.6q-1.719,0-1.719,1.543a.942.942,0,0,0,.3.728A1.1,1.1,0,0,0,229.951,16.852ZM239.7,8.434l.107,1.24a3.583,3.583,0,0,1,3.018-1.436,3.015,3.015,0,0,1,2.466.986,4.7,4.7,0,0,1,.845,2.969V19h-3.3V12.33a1.783,1.783,0,0,0-.322-1.177,1.491,1.491,0,0,0-1.172-.376,1.569,1.569,0,0,0-1.436.762V19h-3.291V8.434ZM253.066,19.2a5.432,5.432,0,0,1-3.936-1.45,5.008,5.008,0,0,1-1.5-3.774V13.7a6.489,6.489,0,0,1,.6-2.861,4.395,4.395,0,0,1,1.753-1.919,5.292,5.292,0,0,1,2.734-.679A4.574,4.574,0,0,1,256.23,9.62a5.43,5.43,0,0,1,1.289,3.853v1.279h-6.543a2.372,2.372,0,0,0,.771,1.4,2.3,2.3,0,0,0,1.543.508,2.958,2.958,0,0,0,2.441-1.094l1.5,1.777a4.2,4.2,0,0,1-1.743,1.353A5.891,5.891,0,0,1,253.066,19.2Zm-.371-8.418q-1.445,0-1.719,1.914h3.32v-.254a1.63,1.63,0,0,0-.4-1.226A1.593,1.593,0,0,0,252.7,10.777ZM264.795,19a3.716,3.716,0,0,1-.312-.947,3.06,3.06,0,0,1-2.539,1.143,3.749,3.749,0,0,1-2.539-.9,2.875,2.875,0,0,1-1.045-2.271,2.955,2.955,0,0,1,1.27-2.6,6.468,6.468,0,0,1,3.691-.879h1.016v-.559q0-1.462-1.26-1.462a1.03,1.03,0,0,0-1.172,1.158h-3.291a2.95,2.95,0,0,1,1.3-2.487,5.479,5.479,0,0,1,3.325-.956,4.8,4.8,0,0,1,3.193.986,3.429,3.429,0,0,1,1.2,2.705v4.678a4.79,4.79,0,0,0,.449,2.227V19Zm-2.061-2.148a1.836,1.836,0,0,0,1.021-.264,1.653,1.653,0,0,0,.581-.6V14.3h-.957q-1.719,0-1.719,1.543a.942.942,0,0,0,.3.728A1.1,1.1,0,0,0,262.734,16.852Zm6.309-3.213a6.455,6.455,0,0,1,1.084-3.955,3.568,3.568,0,0,1,3.027-1.445,3.035,3.035,0,0,1,2.383,1.113V4h3.3V19h-2.959l-.166-1.133a3.116,3.116,0,0,1-2.578,1.328,3.562,3.562,0,0,1-2.988-1.445A6.659,6.659,0,0,1,269.043,13.639Zm3.291.205q0,2.813,1.641,2.813a1.62,1.62,0,0,0,1.563-.918V11.715a1.576,1.576,0,0,0-1.543-.937q-1.523,0-1.65,2.461Zm7.959-.225a6.236,6.236,0,0,1,.615-2.817,4.4,4.4,0,0,1,1.768-1.9,5.323,5.323,0,0,1,2.705-.664,4.859,4.859,0,0,1,3.74,1.47,5.64,5.64,0,0,1,1.367,4v.117a5.472,5.472,0,0,1-1.372,3.921A4.871,4.871,0,0,1,285.4,19.2a4.927,4.927,0,0,1-3.623-1.353,5.29,5.29,0,0,1-1.475-3.667Zm3.291.205a3.931,3.931,0,0,0,.459,2.148,1.529,1.529,0,0,0,1.357.684q1.758,0,1.8-2.705v-.332q0-2.842-1.816-2.842-1.65,0-1.787,2.451ZM154.229,39.795a6.372,6.372,0,0,1-1.108,3.931,3.554,3.554,0,0,1-2.993,1.47,3.046,3.046,0,0,1-2.393-1.064v4.932h-3.291V34.434h3.076l.1.977a3.046,3.046,0,0,1,2.49-1.172,3.582,3.582,0,0,1,3.037,1.44,6.45,6.45,0,0,1,1.084,3.96Zm-3.291-.205q0-2.812-1.641-2.812a1.549,1.549,0,0,0-1.562.84v4.16a1.6,1.6,0,0,0,1.582.879q1.572,0,1.621-2.715Zm11.133-2.178-1.084-.078a1.947,1.947,0,0,0-1.992.977V45H155.7V34.434h3.086l.107,1.357a2.548,2.548,0,0,1,2.314-1.553,3.209,3.209,0,0,1,.918.117Zm6.113,7.783a5.432,5.432,0,0,1-3.936-1.45,5.008,5.008,0,0,1-1.5-3.774V39.7a6.489,6.489,0,0,1,.6-2.861,4.395,4.395,0,0,1,1.753-1.919,5.292,5.292,0,0,1,2.734-.679,4.574,4.574,0,0,1,3.516,1.382,5.43,5.43,0,0,1,1.289,3.853v1.279h-6.543a2.372,2.372,0,0,0,.771,1.4,2.3,2.3,0,0,0,1.543.508,2.958,2.958,0,0,0,2.441-1.094l1.5,1.777a4.2,4.2,0,0,1-1.743,1.353A5.891,5.891,0,0,1,168.184,45.2Zm-.371-8.418q-1.445,0-1.719,1.914h3.32v-.254a1.63,1.63,0,0,0-.4-1.226A1.593,1.593,0,0,0,167.813,36.777Zm10.234,4.307,1.67-6.65h3.467L179.736,45h-3.359L172.93,34.434h3.477ZM187.637,45h-3.3V34.434h3.3Zm-3.5-13.3a1.482,1.482,0,0,1,.508-1.159,2.149,2.149,0,0,1,2.637,0,1.577,1.577,0,0,1,0,2.319,2.149,2.149,0,0,1-2.637,0A1.482,1.482,0,0,1,184.141,31.7ZM195.615,45a3.716,3.716,0,0,1-.312-.947,3.06,3.06,0,0,1-2.539,1.143,3.749,3.749,0,0,1-2.539-.9,2.875,2.875,0,0,1-1.045-2.271,2.955,2.955,0,0,1,1.27-2.6,6.468,6.468,0,0,1,3.691-.879h1.016v-.559q0-1.462-1.26-1.462a1.03,1.03,0,0,0-1.172,1.158h-3.291a2.95,2.95,0,0,1,1.3-2.487,5.479,5.479,0,0,1,3.325-.956,4.8,4.8,0,0,1,3.193.986,3.429,3.429,0,0,1,1.2,2.705v4.678a4.79,4.79,0,0,0,.449,2.227V45Zm-2.061-2.148a1.836,1.836,0,0,0,1.021-.264,1.652,1.652,0,0,0,.581-.6V40.3H194.2q-1.719,0-1.719,1.543a.942.942,0,0,0,.3.728A1.1,1.1,0,0,0,193.555,42.852Zm9.834-8.418.107,1.24a3.633,3.633,0,0,1,3.018-1.436,2.675,2.675,0,0,1,2.705,1.592,3.516,3.516,0,0,1,3.105-1.592q3.213,0,3.3,3.887V45h-3.3V38.33a2.014,2.014,0,0,0-.273-1.182,1.164,1.164,0,0,0-1-.371,1.559,1.559,0,0,0-1.455.869l.01.137V45h-3.3V38.35a2.117,2.117,0,0,0-.264-1.2,1.161,1.161,0,0,0-1.006-.371,1.578,1.578,0,0,0-1.445.869V45H200.3V34.434ZM222.617,45.2a5.432,5.432,0,0,1-3.936-1.45,5.008,5.008,0,0,1-1.5-3.774V39.7a6.489,6.489,0,0,1,.6-2.861,4.395,4.395,0,0,1,1.753-1.919,5.292,5.292,0,0,1,2.734-.679,4.574,4.574,0,0,1,3.516,1.382,5.43,5.43,0,0,1,1.289,3.853v1.279h-6.543a2.372,2.372,0,0,0,.771,1.4,2.3,2.3,0,0,0,1.543.508,2.958,2.958,0,0,0,2.441-1.094l1.5,1.777a4.2,4.2,0,0,1-1.743,1.353A5.891,5.891,0,0,1,222.617,45.2Zm-.371-8.418q-1.445,0-1.719,1.914h3.32v-.254a1.63,1.63,0,0,0-.4-1.226A1.593,1.593,0,0,0,222.246,36.777Zm9.17-2.344.107,1.24a3.583,3.583,0,0,1,3.018-1.436,3.015,3.015,0,0,1,2.466.986,4.7,4.7,0,0,1,.845,2.969V45h-3.3V38.33a1.783,1.783,0,0,0-.322-1.177,1.491,1.491,0,0,0-1.172-.376,1.569,1.569,0,0,0-1.436.762V45H228.33V34.434Zm12.09-2.627v2.627h1.738v2.285h-1.738v4.834a1.234,1.234,0,0,0,.215.83,1.152,1.152,0,0,0,.85.234,4.828,4.828,0,0,0,.82-.059v2.354a6.074,6.074,0,0,1-1.855.283,3.448,3.448,0,0,1-2.51-.8,3.282,3.282,0,0,1-.811-2.432V36.719h-1.348V34.434h1.348V31.807ZM251.65,45.2a5.432,5.432,0,0,1-3.936-1.45,5.008,5.008,0,0,1-1.5-3.774V39.7a6.489,6.489,0,0,1,.6-2.861,4.395,4.395,0,0,1,1.753-1.919,5.292,5.292,0,0,1,2.734-.679,4.574,4.574,0,0,1,3.516,1.382,5.43,5.43,0,0,1,1.289,3.853v1.279h-6.543a2.372,2.372,0,0,0,.771,1.4,2.3,2.3,0,0,0,1.543.508,2.958,2.958,0,0,0,2.441-1.094l1.5,1.777a4.2,4.2,0,0,1-1.743,1.353A5.891,5.891,0,0,1,251.65,45.2Zm-.371-8.418q-1.445,0-1.719,1.914h3.32v-.254a1.63,1.63,0,0,0-.4-1.226A1.593,1.593,0,0,0,251.279,36.777Z" transform="translate(810 296.357)" fill="#12263f"/>
    <g id="egg" transform="translate(913.317 141.357)">
      <circle id="Elipse_4067" data-name="Elipse 4067" cx="15.314" cy="15.314" r="15.314" transform="translate(83.567 52.903)" fill="#f1d54e"/>
      <path id="Trazado_105014" data-name="Trazado 105014" d="M113.312,244.488h-9.8a3.379,3.379,0,0,1-3.379-3.379v-9.8a3.379,3.379,0,0,0-3.379-3.379h-9.8a3.379,3.379,0,0,1-3.379-3.379v-9.8A3.379,3.379,0,0,0,80.2,211.38h-5a7.442,7.442,0,0,0-4.25,1.329,45.356,45.356,0,0,0-6.136,5.044,32.176,32.176,0,0,0,45.5,45.5,45.375,45.375,0,0,0,5.044-6.136,7.443,7.443,0,0,0,1.329-4.25v-5A3.38,3.38,0,0,0,113.312,244.488Z" transform="translate(-5.725 -161.838)" fill="#ffd4a5"/>
      <path id="Trazado_105015" data-name="Trazado 105015" d="M189.369,275.666h-9.8a3.379,3.379,0,0,1-3.379-3.379v-9.8a3.379,3.379,0,0,0-3.379-3.379h-9.8a3.379,3.379,0,0,1-3.379-3.379V252.1a9.91,9.91,0,0,0-4.909,8.559,9.366,9.366,0,0,0,7.354,9.147,7.06,7.06,0,0,1,7.038,6.5h0a14.19,14.19,0,0,0,14.146,13.073h0a4.586,4.586,0,0,1,4.476,3.6,49,49,0,0,0,3.675-4.684,7.443,7.443,0,0,0,1.329-4.25v-5A3.38,3.38,0,0,0,189.369,275.666Z" transform="translate(-81.783 -193.016)" opacity="0.1"/>
      <path id="Trazado_105016" data-name="Trazado 105016" d="M230.147,7.5c-13.677,0-25.36,18.766-30.017,35.513a1.047,1.047,0,0,0,1.751,1.015l2.466-2.466a3.379,3.379,0,0,1,4.779,0l6.927,6.927a3.379,3.379,0,0,0,4.779,0l6.927-6.927a3.379,3.379,0,0,1,4.779,0l6.927,6.927a3.379,3.379,0,0,0,4.779,0l6.927-6.927a3.379,3.379,0,0,1,4.779,0l2.466,2.466a1.047,1.047,0,0,0,1.751-1.015C255.507,26.266,243.824,7.5,230.147,7.5Z" transform="translate(-116.51 -5.742)" fill="#ffd4a5"/>
      <path id="Trazado_105017" data-name="Trazado 105017" d="M200.131,44.385a1.047,1.047,0,0,0,1.751,1.015l2.466-2.466a3.379,3.379,0,0,1,4.779,0l6.927,6.927a3.36,3.36,0,0,0,1.652.905c-5.344-18.382,2.888-34.949,8.9-41.474C214.48,12.145,204.38,29.1,200.131,44.385Z" transform="translate(-116.511 -7.115)" opacity="0.1"/>
      <path id="Trazado_105018" data-name="Trazado 105018" d="M201.849,245.033h0a11.386,11.386,0,0,1-10.189-6.3l-1.284-2.574a7.856,7.856,0,0,0-7.03-4.35H177.3a9.918,9.918,0,0,0-9.918,9.918,9.366,9.366,0,0,0,7.354,9.147h0a7.06,7.06,0,0,1,7.038,6.5h0a14.19,14.19,0,0,0,14.146,13.073h0a4.586,4.586,0,0,1,4.586,4.586v14.28a6.405,6.405,0,0,0,6.405,6.405h0a6.405,6.405,0,0,0,6.405-6.405V256.505A11.472,11.472,0,0,0,201.849,245.033Z" transform="translate(-91.473 -177.475)" fill="#f0f1f1"/>
      <path id="Trazado_105019" data-name="Trazado 105019" d="M76.978,211.379H75.2a7.442,7.442,0,0,0-4.25,1.329,45.351,45.351,0,0,0-6.136,5.044,32.179,32.179,0,0,0,33.175,53.2C59.829,262.273,69.748,226.783,76.978,211.379Z" transform="translate(-5.725 -161.837)" opacity="0.1"/>
      <path id="Trazado_105020" data-name="Trazado 105020" d="M206.76,286.193c.979-9.788-.24-16.9-4.709-20.074-6.779-4.813-11.7-5.038-13.9-12.2-1.431-4.655-3.275-7.57-9.715-9.716-5.228-1.743-4.111-8.625-1.766-12.3a9.916,9.916,0,0,0-9.285,9.9,9.366,9.366,0,0,0,7.354,9.147h0a7.06,7.06,0,0,1,7.038,6.5h0a14.19,14.19,0,0,0,14.146,13.073h0a4.586,4.586,0,0,1,4.586,4.586v14.28a6.405,6.405,0,0,0,6.405,6.405h0a6.4,6.4,0,0,0,5.274-2.771C209.054,293.228,206.287,290.918,206.76,286.193Z" transform="translate(-91.473 -177.549)" opacity="0.05"/>
      <path id="Trazado_105021" data-name="Trazado 105021" d="M115.906,67.015A17.092,17.092,0,0,0,98.881,51.146a16.911,16.911,0,0,0-6.829,1.432c-.06,0-.119-.006-.18-.006H85.832a11.6,11.6,0,0,0-6.217,1.8V52.921a5.143,5.143,0,0,0-5.137-5.137h-5a9.154,9.154,0,0,0-5.254,1.644,47.011,47.011,0,0,0-6.375,5.244A33.651,33.651,0,0,0,48.256,73.8,34.222,34.222,0,0,0,51.79,94.448,1.758,1.758,0,1,0,54.9,92.812,30.676,30.676,0,0,1,51.735,74.3a30.161,30.161,0,0,1,8.6-17.141,43.481,43.481,0,0,1,5.9-4.844A5.655,5.655,0,0,1,69.474,51.3h5A1.623,1.623,0,0,1,76.1,52.921v4.887a11.605,11.605,0,0,0-1.943,6.439A11.192,11.192,0,0,0,82.89,75.111a1.762,1.762,0,0,0,.378.041,5.329,5.329,0,0,1,5.286,4.885,15.948,15.948,0,0,0,15.9,14.692,2.826,2.826,0,0,1,2.417,1.367,40.1,40.1,0,0,1-3.52,4.08,30.453,30.453,0,0,1-43.018,0c-.341-.341-.679-.7-1-1.053a1.758,1.758,0,1,0-2.6,2.367c.362.4.739.792,1.119,1.172a33.972,33.972,0,0,0,47.989,0c.481-.481.963-.995,1.445-1.534v10.71a8.163,8.163,0,0,0,16.326,0V79.03A13.246,13.246,0,0,0,115.906,67.015ZM98.881,54.662a13.577,13.577,0,0,1,13.36,11.272,13.264,13.264,0,0,0-1.865-.134,9.575,9.575,0,0,1-8.616-5.331l-1.284-2.575A9.633,9.633,0,0,0,97.914,54.7C98.235,54.677,98.557,54.662,98.881,54.662Zm21.209,57.175a4.648,4.648,0,0,1-9.3,0V97.557a6.351,6.351,0,0,0-6.344-6.343A12.5,12.5,0,0,1,92.058,79.76a8.864,8.864,0,0,0-8.579-8.121,7.657,7.657,0,0,1-5.808-7.392,8.169,8.169,0,0,1,8.16-8.16h6.041c.131,0,.262.005.392.014l.055,0a6.06,6.06,0,0,1,5.011,3.36l1.284,2.575a13.071,13.071,0,0,0,11.762,7.278,9.726,9.726,0,0,1,9.715,9.715v32.806h0ZM145.347,36.8a80.021,80.021,0,0,0-5.924-15.083,1.758,1.758,0,1,0-3.123,1.615,76.579,76.579,0,0,1,4.854,11.721l-.475-.475a5.143,5.143,0,0,0-7.265,0L126.489,41.5a1.623,1.623,0,0,1-2.293,0l-6.927-6.927a5.143,5.143,0,0,0-7.265,0L103.078,41.5a1.623,1.623,0,0,1-2.293,0l-6.927-6.927a5.143,5.143,0,0,0-7.265,0l-.476.476A70.018,70.018,0,0,1,96.64,14.305c3.782-4.922,9.8-10.789,17-10.789,6.22,0,12.819,4.605,18.581,12.967a1.758,1.758,0,1,0,2.895-1.995C128.582,5.01,121.156,0,113.637,0c-6.83,0-13.672,4.206-19.785,12.163A74.747,74.747,0,0,0,81.926,36.8a2.8,2.8,0,0,0,4.687,2.729l2.466-2.466a1.623,1.623,0,0,1,2.293,0L98.3,43.99a5.143,5.143,0,0,0,7.265,0l6.927-6.927a1.623,1.623,0,0,1,2.293,0l6.927,6.927a5.143,5.143,0,0,0,7.264,0l6.927-6.927a1.623,1.623,0,0,1,2.293,0l2.466,2.466a2.8,2.8,0,0,0,4.687-2.729Z" transform="translate(0 0)"/>
    </g>
  </g>
</svg>
