<svg xmlns="http://www.w3.org/2000/svg" xmlns:xlink="http://www.w3.org/1999/xlink" width="242.969" height="248.715" viewBox="0 0 242.969 248.715">
  <defs>
    <linearGradient id="linear-gradient" x1="0.623" y1="-0.328" x2="0.179" y2="2.683" gradientUnits="objectBoundingBox">
      <stop offset="0" stop-color="#ffc444"/>
      <stop offset="0.996" stop-color="#f36f56"/>
    </linearGradient>
    <clipPath id="clip-path">
      <path id="Trazado_104287" data-name="Trazado 104287" d="M1689.568,70.708c.507.045.992.1,1.434.14,1.372.134,4.381.967,5.419-.4,1.711-2.255-2.635-6.08-3.729-7.8-1.354-2.125-3.031-4.492-3.3-7.073-.413-3.926,2.276-9.236,5.595-11.287,4.578-2.828,10.973-.9,15.086,1.873a30.026,30.026,0,0,1,11.845,17.586c1.832,7.469-.695,15.2.029,22.77,1.138,11.9,18-3.26,14.706,28.028-.727,6.907-1.914,14.463-5.795,20.383-1.609,2.455-4.827,5.867-8.033,5.67-4.547-.279-4.344-6.712-5.754-9.681a20.7,20.7,0,0,0-7.723-8.264c-4.066-2.609-8.78-4.943-10.4-9.869-1.049-3.2.53-6.493,2.551-8.982,1.114-1.371,3.488-2.939,3.132-4.96-.3-1.676-2.65-2.907-3.879-3.791a99.42,99.42,0,0,1-10.808-8.869c-3.014-2.893-8.112-7.281-7.7-11.982C1682.581,70.417,1686.49,70.434,1689.568,70.708Z" transform="translate(-1682.225 -42.899)" fill="#ffe35c"/>
    </clipPath>
    <clipPath id="clip-path-2">
      <path id="Trazado_104294" data-name="Trazado 104294" d="M1666.442,124.261c1.591-5.733,6.628-10.075,12.39-11.574a28.4,28.4,0,0,1,11.37-.6c5.033.876,9.188,4.16,12.426,7.965,3.8,4.471,4.161,10.012,5.521,15.516.267,1.079,2.025,7.021,3.358,3.538,1.857-4.856,6-4,6-4a9.688,9.688,0,0,1,6.93,6.045c3.2,8,2.211,18.39,1.535,26.775-.318,3.944-.809,7.867-1.394,11.777a2.5,2.5,0,0,1-4.364,1.255c-.661-.772-1.354-1.481-2-2.1-6.166-6-15.821-6.889-23.967-7.248-4.756-.21-8.675-.512-12.819-3.066-1.722-1.061-3.593-2.365-4.392-4.3-.722-1.754-.863-4.759.225-6.391,1.355-2.032,4.363-1.9,6.154-3.4,2.894-2.418-4.675-4.1-6.2-4.592-2.431-.781-4.042-2.719-5.863-4.4a21.522,21.522,0,0,1-3.708-4.289C1664.565,136.252,1664.944,129.658,1666.442,124.261Z" transform="translate(-1665.313 -111.762)" fill="url(#linear-gradient)"/>
    </clipPath>
    <clipPath id="clip-path-3">
      <path id="Trazado_104319" data-name="Trazado 104319" d="M1901.941,218.439c-.507.045-.991.1-1.433.14-1.373.134-4.382.966-5.419-.4-1.711-2.255,2.635-6.08,3.729-7.8,1.353-2.125,3.03-4.492,3.3-7.074.413-3.925-2.276-9.236-5.594-11.286-4.578-2.828-10.974-.9-15.087,1.872a30.026,30.026,0,0,0-11.844,17.586c-1.832,7.469.694,15.2-.03,22.77-1.138,11.9-18-3.26-14.706,28.028.728,6.907,1.914,14.463,5.795,20.383,1.609,2.455,4.826,5.866,8.033,5.669,4.547-.279,4.344-6.712,5.754-9.681a20.7,20.7,0,0,1,7.722-8.264c4.066-2.609,8.78-4.943,10.4-9.869,1.05-3.2-.53-6.493-2.551-8.981-1.114-1.371-3.487-2.939-3.132-4.96.3-1.676,2.65-2.908,3.878-3.791a99.424,99.424,0,0,0,10.808-8.87c3.014-2.893,8.112-7.281,7.7-11.982C1908.929,218.148,1905.02,218.166,1901.941,218.439Z" transform="translate(-1854.432 -190.631)" fill="#ffe35c"/>
    </clipPath>
    <clipPath id="clip-path-4">
      <path id="Trazado_104326" data-name="Trazado 104326" d="M1920.079,271.992c-1.591-5.733-6.627-10.075-12.39-11.574a28.4,28.4,0,0,0-11.37-.6c-5.032.876-9.187,4.159-12.426,7.965-3.8,4.471-4.161,10.012-5.521,15.516-.267,1.079-2.026,7.021-3.357,3.539-1.858-4.856-6-4-6-4a9.689,9.689,0,0,0-6.93,6.045c-3.2,8-2.211,18.39-1.534,26.775.318,3.944.809,7.867,1.394,11.777a2.5,2.5,0,0,0,4.364,1.255c.661-.772,1.354-1.482,1.995-2.1,6.166-6,15.821-6.889,23.967-7.248,4.756-.209,8.675-.512,12.819-3.066,1.722-1.061,3.594-2.365,4.392-4.3.723-1.754.863-4.759-.225-6.39-1.354-2.032-4.363-1.9-6.154-3.4-2.894-2.418,4.674-4.1,6.2-4.591,2.43-.782,4.042-2.72,5.862-4.4a21.469,21.469,0,0,0,3.708-4.289C1921.955,283.984,1921.577,277.389,1920.079,271.992Z" transform="translate(-1859.856 -259.494)" fill="#ffb869"/>
    </clipPath>
    <linearGradient id="linear-gradient-2" x1="2.82" y1="68.913" x2="3.871" y2="70.362" gradientUnits="objectBoundingBox">
      <stop offset="0" stop-color="#444b8c"/>
      <stop offset="0.996" stop-color="#26264f"/>
    </linearGradient>
    <linearGradient id="linear-gradient-3" x1="4.074" y1="84.597" x2="5.406" y2="86.386" xlink:href="#linear-gradient-2"/>
    <linearGradient id="linear-gradient-4" x1="23.169" y1="-0.515" x2="24.264" y2="0.793" xlink:href="#linear-gradient-2"/>
    <linearGradient id="linear-gradient-5" x1="29.322" y1="-1.298" x2="30.682" y2="0.479" xlink:href="#linear-gradient-2"/>
  </defs>
  <g id="Grupo_54231" data-name="Grupo 54231" transform="translate(-1535.801 22.793)">
    <g id="Grupo_54157" data-name="Grupo 54157" transform="translate(1618.365 -22.793)">
      <g id="Grupo_54147" data-name="Grupo 54147" transform="translate(9.567)">
        <g id="Grupo_54146" data-name="Grupo 54146">
          <path id="Trazado_104281" data-name="Trazado 104281" d="M1689.568,70.708c.507.045.992.1,1.434.14,1.372.134,4.381.967,5.419-.4,1.711-2.255-2.635-6.08-3.729-7.8-1.354-2.125-3.031-4.492-3.3-7.073-.413-3.926,2.276-9.236,5.595-11.287,4.578-2.828,10.973-.9,15.086,1.873a30.026,30.026,0,0,1,11.845,17.586c1.832,7.469-.695,15.2.029,22.77,1.138,11.9,18-3.26,14.706,28.028-.727,6.907-1.914,14.463-5.795,20.383-1.609,2.455-4.827,5.867-8.033,5.67-4.547-.279-4.344-6.712-5.754-9.681a20.7,20.7,0,0,0-7.723-8.264c-4.066-2.609-8.78-4.943-10.4-9.869-1.049-3.2.53-6.493,2.551-8.982,1.114-1.371,3.488-2.939,3.132-4.96-.3-1.676-2.65-2.907-3.879-3.791a99.42,99.42,0,0,1-10.808-8.869c-3.014-2.893-8.112-7.281-7.7-11.982C1682.581,70.417,1686.49,70.434,1689.568,70.708Z" transform="translate(-1682.225 -42.899)" fill="#ffe35c"/>
          <g id="Grupo_54145" data-name="Grupo 54145" clip-path="url(#clip-path)">
            <g id="Grupo_54144" data-name="Grupo 54144" transform="translate(7.082 -3.718)" opacity="0.8" style="mix-blend-mode: soft-light;isolation: isolate">
              <g id="Grupo_54139" data-name="Grupo 54139" transform="translate(0)">
                <path id="Trazado_104282" data-name="Trazado 104282" d="M1719.237,145.917a.232.232,0,0,0,.134-.043c7.761-5.543,11.413-14.007,11.166-25.875-.215-10.346-3.248-21.572-6.182-32.428-2.31-8.549-4.491-16.625-4.888-23.111a29.068,29.068,0,0,0-4.41-14.01,30.784,30.784,0,0,0-8.337-8.6,37.6,37.6,0,0,0-11.693-5.516.231.231,0,0,0-.1.45,37.115,37.115,0,0,1,11.544,5.453,28.686,28.686,0,0,1,12.539,22.253c.4,6.533,2.588,14.63,4.9,23.2,5.771,21.364,12.313,45.579-4.807,57.808a.231.231,0,0,0,.134.419Z" transform="translate(-1694.744 -36.326)" fill="#ffe35c"/>
              </g>
              <g id="Grupo_54140" data-name="Grupo 54140" transform="translate(24.079 12.655)">
                <path id="Trazado_104283" data-name="Trazado 104283" d="M1737.539,72.421a.233.233,0,0,0,.071-.011,7.745,7.745,0,0,0,3.156-2.434c1.474-1.752,3.348-5.087,3.91-11.026a.231.231,0,1,0-.459-.044c-.548,5.8-2.357,9.041-3.779,10.742a7.489,7.489,0,0,1-2.969,2.322.231.231,0,0,0,.071.45Z" transform="translate(-1737.309 -58.697)" fill="#ffe35c"/>
              </g>
              <g id="Grupo_54141" data-name="Grupo 54141" transform="translate(0 23.423)">
                <path id="Trazado_104284" data-name="Trazado 104284" d="M1721.361,95.189a.231.231,0,0,0,.023-.46,34.1,34.1,0,0,1-9.185-2.719,40.473,40.473,0,0,1-17.034-14.178.231.231,0,1,0-.38.261,40.938,40.938,0,0,0,17.245,14.347,34.581,34.581,0,0,0,9.307,2.748Z" transform="translate(-1694.744 -77.731)" fill="#ffe35c"/>
              </g>
              <g id="Grupo_54142" data-name="Grupo 54142" transform="translate(34.715 50.495)">
                <path id="Trazado_104285" data-name="Trazado 104285" d="M1756.341,151.354a.23.23,0,0,0,.077-.014,17.784,17.784,0,0,0,7.12-5.283,17.465,17.465,0,0,0,3.64-7.872,26.525,26.525,0,0,0-.963-12.434.231.231,0,0,0-.443.131c2.987,10.141.247,16.4-2.578,19.866a17.661,17.661,0,0,1-6.93,5.157.231.231,0,0,0,.077.449Z" transform="translate(-1756.11 -125.587)" fill="#ffe35c"/>
              </g>
              <g id="Grupo_54143" data-name="Grupo 54143" transform="translate(10.219 58.467)">
                <path id="Trazado_104286" data-name="Trazado 104286" d="M1736.193,149.687a.231.231,0,0,0,.03-.459c-.184-.024-18.5-2.512-22.989-9.443a.231.231,0,1,0-.388.251c1.938,2.993,6.457,5.528,13.431,7.533a76.877,76.877,0,0,0,9.886,2.117Z" transform="translate(-1712.809 -139.679)" fill="#ffe35c"/>
              </g>
            </g>
          </g>
        </g>
      </g>
      <g id="Grupo_54156" data-name="Grupo 54156" transform="translate(0 38.956)">
        <g id="Grupo_54155" data-name="Grupo 54155">
          <path id="Trazado_104288" data-name="Trazado 104288" d="M1666.442,124.261c1.591-5.733,6.628-10.075,12.39-11.574a28.4,28.4,0,0,1,11.37-.6c5.033.876,9.188,4.16,12.426,7.965,3.8,4.471,4.161,10.012,5.521,15.516.267,1.079,2.025,7.021,3.358,3.538,1.857-4.856,6-4,6-4a9.688,9.688,0,0,1,6.93,6.045c3.2,8,2.211,18.39,1.535,26.775-.318,3.944-.809,7.867-1.394,11.777a2.5,2.5,0,0,1-4.364,1.255c-.661-.772-1.354-1.481-2-2.1-6.166-6-15.821-6.889-23.967-7.248-4.756-.21-8.675-.512-12.819-3.066-1.722-1.061-3.593-2.365-4.392-4.3-.722-1.754-.863-4.759.225-6.391,1.355-2.032,4.363-1.9,6.154-3.4,2.894-2.418-4.675-4.1-6.2-4.592-2.431-.781-4.042-2.719-5.863-4.4a21.522,21.522,0,0,1-3.708-4.289C1664.565,136.252,1664.944,129.658,1666.442,124.261Z" transform="translate(-1665.313 -111.762)" fill="#127c4c"/>
          <g id="Grupo_54154" data-name="Grupo 54154" clip-path="url(#clip-path-2)">
            <g id="Grupo_54153" data-name="Grupo 54153" transform="translate(-7.798 -0.231)" opacity="0.8" style="mix-blend-mode: soft-light;isolation: isolate">
              <g id="Grupo_54148" data-name="Grupo 54148" transform="translate(12.905 2.447)">
                <path id="Trazado_104289" data-name="Trazado 104289" d="M1729.452,185.5a.236.236,0,0,0,.1-.022.231.231,0,0,0,.11-.307,336.609,336.609,0,0,0-18.249-32.829,164.693,164.693,0,0,0-17.74-23.64c-7-7.485-13.407-11.863-19.054-13.013a.231.231,0,0,0-.092.453c5.552,1.13,11.879,5.462,18.809,12.875a164.276,164.276,0,0,1,17.688,23.573,335.955,335.955,0,0,1,18.22,32.777A.231.231,0,0,0,1729.452,185.5Z" transform="translate(-1674.34 -115.681)" fill="#fff"/>
              </g>
              <g id="Grupo_54149" data-name="Grupo 54149" transform="translate(38.791)">
                <path id="Trazado_104290" data-name="Trazado 104290" d="M1721.884,137.45l.037,0a.231.231,0,0,0,.192-.265c-.035-.217-3.435-21.8-.059-25.44a.231.231,0,1,0-.338-.314c-3.527,3.8-.2,24.93-.059,25.827A.231.231,0,0,0,1721.884,137.45Z" transform="translate(-1720.099 -111.354)" fill="#fff"/>
              </g>
              <g id="Grupo_54150" data-name="Grupo 54150" transform="translate(0 10.943)">
                <path id="Trazado_104291" data-name="Trazado 104291" d="M1651.76,134.677a.223.223,0,0,0,.121-.035c9.051-5.656,27.879-2.7,28.069-2.672a.231.231,0,1,0,.073-.455,79.282,79.282,0,0,0-10.687-.814c-5.415-.042-12.885.541-17.7,3.55a.23.23,0,0,0,.123.426Z" transform="translate(-1651.529 -130.698)" fill="#fff"/>
              </g>
              <g id="Grupo_54151" data-name="Grupo 54151" transform="translate(59.767 30.502)">
                <path id="Trazado_104292" data-name="Trazado 104292" d="M1757.832,192.3a.237.237,0,0,0,.052-.006.231.231,0,0,0,.172-.277c-2.47-10.674,6.792-26.237,6.886-26.394a.231.231,0,1,0-.4-.238,66.834,66.834,0,0,0-4.419,9.235c-1.876,4.848-3.836,11.819-2.521,17.5A.23.23,0,0,0,1757.832,192.3Z" transform="translate(-1757.179 -165.273)" fill="#fff"/>
              </g>
              <g id="Grupo_54152" data-name="Grupo 54152" transform="translate(4.258 37.02)">
                <path id="Trazado_104293" data-name="Trazado 104293" d="M1707.56,184.021a.231.231,0,0,0,.073-.45,172.318,172.318,0,0,0-18.454-4.726c-9.3-1.826-22.057-3.363-29.974-.324a.231.231,0,0,0,.165.431c7.815-3,20.476-1.468,29.72.346a171.763,171.763,0,0,1,18.4,4.711A.233.233,0,0,0,1707.56,184.021Z" transform="translate(-1659.056 -176.795)" fill="#fff"/>
              </g>
            </g>
          </g>
        </g>
      </g>
    </g>
    <g id="Grupo_54199" data-name="Grupo 54199" transform="translate(1574.162 54.344)">
      <g id="Grupo_54158" data-name="Grupo 54158" transform="translate(3.654 6.502)">
        <path id="Trazado_104295" data-name="Trazado 104295" d="M1693.334,182.286H1613.08L1617.5,162l35.659-38.229L1688.814,162Z" transform="translate(-1613.08 -123.772)" fill="#15a564"/>
      </g>
      <g id="Grupo_54159" data-name="Grupo 54159" transform="translate(79.388 44.731)">
        <path id="Trazado_104394" data-name="Trazado 104394" d="M0,0H107.577V100.152H0Z" fill="#15a564"/>
      </g>
      <g id="Grupo_54160" data-name="Grupo 54160">
        <path id="Trazado_104296" data-name="Trazado 104296" d="M1694.085,177.295h-3.556l-4.52-20.286-35.656-38.229-35.659,38.229-4.419,20.286h-3.654l6.4-24.991,37.332-40.025,37.332,40.025Z" transform="translate(-1606.62 -112.278)" fill="#bf7726"/>
      </g>
      <g id="Grupo_54161" data-name="Grupo 54161" transform="translate(8.073 6.502)">
        <path id="Trazado_104297" data-name="Trazado 104297" d="M1692.206,162V262.153h-71.315V162l35.659-38.229Z" transform="translate(-1620.891 -123.772)" fill="#17c878"/>
      </g>
      <g id="Grupo_54162" data-name="Grupo 54162" transform="translate(81.063 40.026)">
        <path id="Trazado_104298" data-name="Trazado 104298" d="M1756.316,208.022h107.577l-6.4-24.99H1749.917Z" transform="translate(-1749.917 -183.032)" fill="#e38e2f"/>
      </g>
      <g id="Grupo_54163" data-name="Grupo 54163" transform="translate(43.731 0.001)">
        <path id="Trazado_104299" data-name="Trazado 104299" d="M1828.833,152.3,1791.5,112.281H1683.924l37.332,40.024Z" transform="translate(-1683.924 -112.281)" fill="#fb9e36"/>
      </g>
      <g id="Grupo_54164" data-name="Grupo 54164" transform="translate(8.073 6.502)">
        <path id="Trazado_104300" data-name="Trazado 104300" d="M1620.891,162l35.659-38.229L1692.206,162v1.593l-35.657-38.221-35.658,37.739Z" transform="translate(-1620.891 -123.772)" fill="#15a564"/>
      </g>
      <g id="Grupo_54165" data-name="Grupo 54165" transform="translate(86.702 80.732)">
        <rect id="Rectángulo_30969" data-name="Rectángulo 30969" width="24.685" height="36.701" fill="#fff"/>
      </g>
      <g id="Grupo_54166" data-name="Grupo 54166" transform="translate(88.835 82.868)">
        <rect id="Rectángulo_30970" data-name="Rectángulo 30970" width="20.417" height="32.429" fill="#99dfeb"/>
      </g>
      <g id="Grupo_54167" data-name="Grupo 54167" transform="translate(36.193 26.413)">
        <rect id="Rectángulo_30971" data-name="Rectángulo 30971" width="15.075" height="22.413" fill="#fff"/>
      </g>
      <g id="Grupo_54168" data-name="Grupo 54168" transform="translate(37.496 27.716)">
        <rect id="Rectángulo_30972" data-name="Rectángulo 30972" width="12.469" height="19.807" fill="#c3edf4"/>
      </g>
      <g id="Grupo_54169" data-name="Grupo 54169" transform="translate(55.494 51.925)">
        <rect id="Rectángulo_30973" data-name="Rectángulo 30973" width="15.075" height="22.413" fill="#fff"/>
      </g>
      <g id="Grupo_54170" data-name="Grupo 54170" transform="translate(56.797 53.229)">
        <rect id="Rectángulo_30974" data-name="Rectángulo 30974" width="12.469" height="19.803" fill="#c3edf4"/>
      </g>
      <g id="Grupo_54171" data-name="Grupo 54171" transform="translate(16.896 51.925)">
        <rect id="Rectángulo_30975" data-name="Rectángulo 30975" width="15.075" height="22.413" transform="translate(15.075 22.413) rotate(180)" fill="#fff"/>
      </g>
      <g id="Grupo_54172" data-name="Grupo 54172" transform="translate(18.2 53.229)">
        <rect id="Rectángulo_30976" data-name="Rectángulo 30976" width="12.465" height="19.803" fill="#c3edf4"/>
      </g>
      <g id="Grupo_54173" data-name="Grupo 54173" transform="translate(120.834 80.732)">
        <rect id="Rectángulo_30977" data-name="Rectángulo 30977" width="24.685" height="36.701" fill="#fff"/>
      </g>
      <g id="Grupo_54174" data-name="Grupo 54174" transform="translate(122.969 82.868)">
        <rect id="Rectángulo_30978" data-name="Rectángulo 30978" width="20.413" height="32.429" fill="#61a3c5"/>
      </g>
      <g id="Grupo_54175" data-name="Grupo 54175" transform="translate(154.967 80.732)">
        <rect id="Rectángulo_30979" data-name="Rectángulo 30979" width="24.685" height="36.701" fill="#fff"/>
      </g>
      <g id="Grupo_54176" data-name="Grupo 54176" transform="translate(157.102 82.868)">
        <rect id="Rectángulo_30980" data-name="Rectángulo 30980" width="20.413" height="32.429" fill="#99dfeb"/>
      </g>
      <g id="Grupo_54181" data-name="Grupo 54181" transform="translate(20.874 99.083)">
        <g id="Grupo_54177" data-name="Grupo 54177">
          <rect id="Rectángulo_30981" data-name="Rectángulo 30981" width="22.907" height="45.8" fill="#fff"/>
        </g>
        <g id="Grupo_54178" data-name="Grupo 54178" transform="translate(2.136 2.135)">
          <rect id="Rectángulo_30982" data-name="Rectángulo 30982" width="18.636" height="41.529" fill="#15a564"/>
        </g>
        <g id="Grupo_54179" data-name="Grupo 54179" transform="translate(1.276 1.75)">
          <rect id="Rectángulo_30983" data-name="Rectángulo 30983" width="1.884" height="45.519" transform="translate(0 0.771) rotate(-24.168)" fill="#fff"/>
        </g>
        <g id="Grupo_54180" data-name="Grupo 54180" transform="translate(1.275 1.751)">
          <rect id="Rectángulo_30984" data-name="Rectángulo 30984" width="45.519" height="1.884" transform="translate(0 41.527) rotate(-65.828)" fill="#fff"/>
        </g>
      </g>
      <g id="Grupo_54186" data-name="Grupo 54186" transform="translate(41.646 99.083)">
        <g id="Grupo_54182" data-name="Grupo 54182">
          <rect id="Rectángulo_30985" data-name="Rectángulo 30985" width="22.907" height="45.8" fill="#fff"/>
        </g>
        <g id="Grupo_54183" data-name="Grupo 54183" transform="translate(2.135 2.135)">
          <rect id="Rectángulo_30986" data-name="Rectángulo 30986" width="18.636" height="41.529" fill="#15a564"/>
        </g>
        <g id="Grupo_54184" data-name="Grupo 54184" transform="translate(1.276 1.75)">
          <rect id="Rectángulo_30987" data-name="Rectángulo 30987" width="1.884" height="45.519" transform="translate(0 0.771) rotate(-24.168)" fill="#fff"/>
        </g>
        <g id="Grupo_54185" data-name="Grupo 54185" transform="translate(1.275 1.751)">
          <rect id="Rectángulo_30988" data-name="Rectángulo 30988" width="45.519" height="1.884" transform="translate(0 41.527) rotate(-65.828)" fill="#fff"/>
        </g>
      </g>
      <g id="Grupo_54187" data-name="Grupo 54187" transform="translate(18.2 53.229)">
        <path id="Trazado_104301" data-name="Trazado 104301" d="M1645.6,206.372l-6.051,19.8h-.758V214.369l2.445-8Z" transform="translate(-1638.793 -206.372)" fill="#e8f6fa"/>
      </g>
      <g id="Grupo_54188" data-name="Grupo 54188" transform="translate(21.551 53.229)">
        <path id="Trazado_104302" data-name="Trazado 104302" d="M1653.076,206.372l-6.051,19.8h-2.31l6.051-19.8Z" transform="translate(-1644.716 -206.372)" fill="#e8f6fa"/>
      </g>
      <g id="Grupo_54189" data-name="Grupo 54189" transform="translate(58.447 53.229)">
        <path id="Trazado_104303" data-name="Trazado 104303" d="M1720.353,206.372l-6.051,19.8h-4.364l6.051-19.8Z" transform="translate(-1709.938 -206.372)" fill="#e8f6fa"/>
      </g>
      <g id="Grupo_54190" data-name="Grupo 54190" transform="translate(65.404 60.392)">
        <path id="Trazado_104304" data-name="Trazado 104304" d="M1726.1,219.034V226.6l-1.552,5.077h-2.31Z" transform="translate(-1722.235 -219.034)" fill="#e8f6fa"/>
      </g>
      <g id="Grupo_54191" data-name="Grupo 54191" transform="translate(37.604 27.716)">
        <path id="Trazado_104305" data-name="Trazado 104305" d="M1683.508,161.273l-6.051,19.807h-4.364l6.051-19.807Z" transform="translate(-1673.093 -161.273)" fill="#e8f6fa"/>
      </g>
      <g id="Grupo_54192" data-name="Grupo 54192" transform="translate(44.565 29.838)">
        <path id="Trazado_104306" data-name="Trazado 104306" d="M1690.8,165.023v7.562l-3.09,10.123h-2.31Z" transform="translate(-1685.398 -165.023)" fill="#e8f6fa"/>
      </g>
      <g id="Grupo_54193" data-name="Grupo 54193" transform="translate(88.835 82.868)">
        <path id="Trazado_104307" data-name="Trazado 104307" d="M1775.685,258.765l-9.72,32.429h-2.31v-3.238l8.751-29.191Z" transform="translate(-1763.655 -258.765)" fill="#c3edf4"/>
      </g>
      <g id="Grupo_54194" data-name="Grupo 54194" transform="translate(93.814 82.868)">
        <path id="Trazado_104308" data-name="Trazado 104308" d="M1787.895,258.765v3.328l-8.724,29.1h-6.715l9.72-32.429Z" transform="translate(-1772.456 -258.765)" fill="#c3edf4"/>
      </g>
      <g id="Grupo_54195" data-name="Grupo 54195" transform="translate(122.969 82.868)">
        <path id="Trazado_104309" data-name="Trazado 104309" d="M1830.259,258.765l-6.266,20.915V268.718l2.983-9.953Z" transform="translate(-1823.993 -258.765)" fill="#c7bbbb"/>
      </g>
      <g id="Grupo_54196" data-name="Grupo 54196" transform="translate(122.969 82.868)">
        <path id="Trazado_104310" data-name="Trazado 104310" d="M1839.647,258.765l-9.72,32.429h-5.934v-2.61l8.939-29.819Z" transform="translate(-1823.993 -258.765)" fill="#c7bbbb"/>
      </g>
      <g id="Grupo_54197" data-name="Grupo 54197" transform="translate(162.18 82.868)">
        <path id="Trazado_104311" data-name="Trazado 104311" d="M1906.31,258.765l-9.72,32.429h-3.283l9.72-32.429Z" transform="translate(-1893.307 -258.765)" fill="#c7bbbb"/>
      </g>
      <g id="Grupo_54198" data-name="Grupo 54198" transform="translate(168.132 83.981)">
        <path id="Trazado_104312" data-name="Trazado 104312" d="M1913.212,260.731v22.422l-2.664,8.894h-6.719Z" transform="translate(-1903.828 -260.731)" fill="#c3edf4"/>
      </g>
    </g>
    <g id="Grupo_54218" data-name="Grupo 54218" transform="translate(1714.35 98.668)">
      <g id="Grupo_54208" data-name="Grupo 54208">
        <g id="Grupo_54207" data-name="Grupo 54207">
          <path id="Trazado_104313" data-name="Trazado 104313" d="M1901.941,218.439c-.507.045-.991.1-1.433.14-1.373.134-4.382.966-5.419-.4-1.711-2.255,2.635-6.08,3.729-7.8,1.353-2.125,3.03-4.492,3.3-7.074.413-3.925-2.276-9.236-5.594-11.286-4.578-2.828-10.974-.9-15.087,1.872a30.026,30.026,0,0,0-11.844,17.586c-1.832,7.469.694,15.2-.03,22.77-1.138,11.9-18-3.26-14.706,28.028.728,6.907,1.914,14.463,5.795,20.383,1.609,2.455,4.826,5.866,8.033,5.669,4.547-.279,4.344-6.712,5.754-9.681a20.7,20.7,0,0,1,7.722-8.264c4.066-2.609,8.78-4.943,10.4-9.869,1.05-3.2-.53-6.493-2.551-8.981-1.114-1.371-3.487-2.939-3.132-4.96.3-1.676,2.65-2.908,3.878-3.791a99.424,99.424,0,0,0,10.808-8.87c3.014-2.893,8.112-7.281,7.7-11.982C1908.929,218.148,1905.02,218.166,1901.941,218.439Z" transform="translate(-1854.432 -190.631)" fill="#ffe35c"/>
          <g id="Grupo_54206" data-name="Grupo 54206" clip-path="url(#clip-path-3)">
            <g id="Grupo_54205" data-name="Grupo 54205" transform="translate(1.626 -3.718)" opacity="0.8" style="mix-blend-mode: soft-light;isolation: isolate">
              <g id="Grupo_54200" data-name="Grupo 54200" transform="translate(10.341)">
                <path id="Trazado_104314" data-name="Trazado 104314" d="M1886.9,293.649a.232.232,0,0,1-.134-.043c-7.76-5.543-11.413-14.007-11.166-25.875.216-10.346,3.248-21.573,6.181-32.429,2.31-8.549,4.491-16.625,4.888-23.111a29.074,29.074,0,0,1,4.411-14.01,30.779,30.779,0,0,1,8.337-8.6,37.6,37.6,0,0,1,11.692-5.516.231.231,0,1,1,.1.45,37.1,37.1,0,0,0-11.544,5.452,28.685,28.685,0,0,0-12.539,22.254c-.4,6.533-2.588,14.63-4.9,23.2-5.772,21.364-12.313,45.579,4.807,57.808a.231.231,0,0,1-.135.419Z" transform="translate(-1875.585 -184.058)" fill="#ffe35c"/>
              </g>
              <g id="Grupo_54201" data-name="Grupo 54201" transform="translate(14.698 12.655)">
                <path id="Trazado_104315" data-name="Trazado 104315" d="M1890.425,220.153a.24.24,0,0,1-.071-.011,7.736,7.736,0,0,1-3.155-2.434c-1.474-1.752-3.349-5.087-3.91-11.027a.231.231,0,0,1,.459-.044c.548,5.8,2.357,9.041,3.778,10.743a7.486,7.486,0,0,0,2.969,2.322.231.231,0,0,1-.071.45Z" transform="translate(-1883.288 -206.429)" fill="#ffe35c"/>
              </g>
              <g id="Grupo_54202" data-name="Grupo 54202" transform="translate(19.297 23.422)">
                <path id="Trazado_104316" data-name="Trazado 104316" d="M1891.648,242.92a.231.231,0,0,1-.023-.46,34.1,34.1,0,0,0,9.186-2.719,40.478,40.478,0,0,0,17.033-14.178.231.231,0,1,1,.381.261,40.935,40.935,0,0,1-17.245,14.347,34.529,34.529,0,0,1-9.308,2.748Z" transform="translate(-1891.418 -225.462)" fill="#ffe35c"/>
              </g>
              <g id="Grupo_54203" data-name="Grupo 54203" transform="translate(0 50.495)">
                <path id="Trazado_104317" data-name="Trazado 104317" d="M1868.5,299.085a.225.225,0,0,1-.076-.013,17.786,17.786,0,0,1-7.12-5.284,17.467,17.467,0,0,1-3.64-7.871,26.521,26.521,0,0,1,.964-12.434.23.23,0,1,1,.442.13c-2.987,10.141-.247,16.4,2.578,19.866a17.667,17.667,0,0,0,6.93,5.158.231.231,0,0,1-.077.448Z" transform="translate(-1857.306 -273.318)" fill="#ffe35c"/>
              </g>
              <g id="Grupo_54204" data-name="Grupo 54204" transform="translate(12.311 58.467)">
                <path id="Trazado_104318" data-name="Trazado 104318" d="M1879.3,297.418a.231.231,0,0,1-.03-.459c.184-.024,18.5-2.513,22.99-9.444a.231.231,0,0,1,.388.251c-1.939,2.993-6.458,5.527-13.431,7.533a76.958,76.958,0,0,1-9.885,2.117Z" transform="translate(-1879.068 -287.41)" fill="#ffe35c"/>
              </g>
            </g>
          </g>
        </g>
      </g>
      <g id="Grupo_54217" data-name="Grupo 54217" transform="translate(3.069 38.956)">
        <g id="Grupo_54216" data-name="Grupo 54216">
          <path id="Trazado_104320" data-name="Trazado 104320" d="M1920.079,271.992c-1.591-5.733-6.627-10.075-12.39-11.574a28.4,28.4,0,0,0-11.37-.6c-5.032.876-9.187,4.159-12.426,7.965-3.8,4.471-4.161,10.012-5.521,15.516-.267,1.079-2.026,7.021-3.357,3.539-1.858-4.856-6-4-6-4a9.689,9.689,0,0,0-6.93,6.045c-3.2,8-2.211,18.39-1.534,26.775.318,3.944.809,7.867,1.394,11.777a2.5,2.5,0,0,0,4.364,1.255c.661-.772,1.354-1.482,1.995-2.1,6.166-6,15.821-6.889,23.967-7.248,4.756-.209,8.675-.512,12.819-3.066,1.722-1.061,3.594-2.365,4.392-4.3.723-1.754.863-4.759-.225-6.39-1.354-2.032-4.363-1.9-6.154-3.4-2.894-2.418,4.674-4.1,6.2-4.591,2.43-.782,4.042-2.72,5.862-4.4a21.469,21.469,0,0,0,3.708-4.289C1921.955,283.984,1921.577,277.389,1920.079,271.992Z" transform="translate(-1859.856 -259.494)" fill="#127c4c"/>
          <g id="Grupo_54215" data-name="Grupo 54215" clip-path="url(#clip-path-4)">
            <g id="Grupo_54214" data-name="Grupo 54214" transform="translate(0.903 -0.231)" opacity="0.8" style="mix-blend-mode: soft-light;isolation: isolate">
              <g id="Grupo_54209" data-name="Grupo 54209" transform="translate(0 2.448)">
                <path id="Trazado_104321" data-name="Trazado 104321" d="M1861.682,333.228a.224.224,0,0,1-.1-.022.231.231,0,0,1-.11-.307,336.58,336.58,0,0,1,18.248-32.828,164.7,164.7,0,0,1,17.741-23.64c7-7.485,13.406-11.863,19.054-13.013a.231.231,0,0,1,.092.452c-5.552,1.13-11.88,5.462-18.809,12.876a164.268,164.268,0,0,0-17.689,23.572,336.225,336.225,0,0,0-18.22,32.778A.23.23,0,0,1,1861.682,333.228Z" transform="translate(-1861.452 -263.413)" fill="#ffb869"/>
              </g>
              <g id="Grupo_54210" data-name="Grupo 54210" transform="translate(27.44)">
                <path id="Trazado_104322" data-name="Trazado 104322" d="M1910.188,285.181a.2.2,0,0,1-.037,0,.231.231,0,0,1-.191-.264c.034-.218,3.434-21.8.058-25.441a.231.231,0,1,1,.339-.313c3.527,3.8.2,24.929.058,25.827A.23.23,0,0,1,1910.188,285.181Z" transform="translate(-1909.957 -259.086)" fill="#ffb869"/>
              </g>
              <g id="Grupo_54211" data-name="Grupo 54211" transform="translate(39.557 10.943)">
                <path id="Trazado_104323" data-name="Trazado 104323" d="M1959.836,282.409a.23.23,0,0,1-.122-.035c-9.051-5.656-27.879-2.7-28.068-2.672a.231.231,0,0,1-.074-.456,79.346,79.346,0,0,1,10.688-.814c5.415-.042,12.884.541,17.7,3.55a.231.231,0,0,1-.122.427Z" transform="translate(-1931.378 -278.43)" fill="#ffb869"/>
              </g>
              <g id="Grupo_54212" data-name="Grupo 54212" transform="translate(0.683 30.502)">
                <path id="Trazado_104324" data-name="Trazado 104324" d="M1869.8,340.031a.241.241,0,0,1-.053-.006.231.231,0,0,1-.172-.277c2.47-10.675-6.792-26.238-6.886-26.394a.231.231,0,0,1,.4-.238,66.836,66.836,0,0,1,4.419,9.235c1.876,4.848,3.836,11.819,2.521,17.5A.231.231,0,0,1,1869.8,340.031Z" transform="translate(-1862.658 -313.005)" fill="#ffb869"/>
              </g>
              <g id="Grupo_54213" data-name="Grupo 54213" transform="translate(15.253 37.02)">
                <path id="Trazado_104325" data-name="Trazado 104325" d="M1888.646,331.752a.231.231,0,0,1-.072-.45,172.479,172.479,0,0,1,18.454-4.726c9.3-1.825,22.057-3.363,29.974-.324a.231.231,0,1,1-.165.431c-7.815-3-20.476-1.467-29.721.346a171.936,171.936,0,0,0-18.4,4.712A.227.227,0,0,1,1888.646,331.752Z" transform="translate(-1888.415 -324.526)" fill="#ffb869"/>
              </g>
            </g>
          </g>
        </g>
      </g>
    </g>
    <g id="Grupo_54225" data-name="Grupo 54225" transform="translate(1641.691 109.255)">
      <g id="Grupo_54219" data-name="Grupo 54219" transform="translate(57.663 93.083)">
        <path id="Trazado_104327" data-name="Trazado 104327" d="M1829.281,379.159l3.2-1.684,1.4.08a16.848,16.848,0,0,1,.316,1.886c-.682.985-3.627,1.6-5.441,1.556-.3-.007-.72-.029-.817-.253C1827.78,380.365,1828.645,379.638,1829.281,379.159Z" transform="translate(-1827.923 -375.446)" fill="#fb9e36"/>
        <path id="Trazado_104328" data-name="Trazado 104328" d="M1835.943,373.889a4.13,4.13,0,0,1-.438,2.169c-.2.226,1.6.864,1.665-.06a10.567,10.567,0,0,1,.312-1.949Z" transform="translate(-1831.209 -373.889)" fill="#ffd4a5"/>
      </g>
      <g id="Grupo_54220" data-name="Grupo 54220" transform="translate(37.056 93.17)">
        <path id="Trazado_104329" data-name="Trazado 104329" d="M1792.766,379.481l3.1-1.865h1.4a16.915,16.915,0,0,1,.423,1.865c-.624,1.023-3.53,1.8-5.343,1.865-.3.011-.721.012-.83-.206C1791.337,380.77,1792.158,380,1792.766,379.481Z" transform="translate(-1791.495 -375.595)" fill="#fb9e36"/>
        <path id="Trazado_104330" data-name="Trazado 104330" d="M1799.959,374.043a20.629,20.629,0,0,1-1.2,2.176c-.191.238,1.338.714,1.659-.155.26-.7.99-1.643,1.088-1.95Z" transform="translate(-1794.642 -374.043)" fill="#ffd4a5"/>
      </g>
      <path id="Trazado_104331" data-name="Trazado 104331" d="M1800.552,282.152a138.44,138.44,0,0,1-1.916,51.395l2.873.744a7.1,7.1,0,0,0,4.044-2.341c1.526-1.929.831-3.708,1.915-6.916,1.036-3.063,2.274-3.226,3.512-5.853,1.615-3.426.629-5.524.745-10.109.2-7.755,3.186-8.356,4.15-17.983.5-5.04.754-7.934-1.064-9.79C1812.266,278.7,1806.67,279.163,1800.552,282.152Z" transform="translate(-1757.541 -239.858)" fill="#f6f6f6"/>
      <path id="Trazado_104332" data-name="Trazado 104332" d="M1813.685,278.817a141.473,141.473,0,0,1,11.492,53.842h3.192a20.086,20.086,0,0,0,2.873-6.172c.734-2.737.272-3.443.745-7.768.644-5.895,1.488-6.166,1.383-9.683-.12-4.042-1.348-4.026-1.809-8.087-.681-6.008,1.8-7.862,1.7-13.408a21.373,21.373,0,0,0-3.405-10.853Z" transform="translate(-1764.076 -238.593)" fill="#fff"/>
      <path id="Trazado_104333" data-name="Trazado 104333" d="M1733.675,283.4l-1.251,1.109a21.041,21.041,0,0,0-3.737.143,18.429,18.429,0,0,0-2.7,1.109.928.928,0,0,0,1.032.391,5.07,5.07,0,0,1,1.72-.474,3.044,3.044,0,0,0,2.043,1.417c1.441.191,2.111-1.505,2.111-1.505l1.364-1.158Z" transform="translate(-1725.991 -241.506)" fill="#ffd4a5"/>
      <path id="Trazado_104334" data-name="Trazado 104334" d="M1752.974,231.758c-.507.062-1.5.369-3.751,4.549-2.912,5.41-3.675,9.405-4.788,12.689a35.645,35.645,0,0,1-7.023,11.971l2,2.075c5.7-.141,8.53-1.96,10.055-3.591,2.226-2.381,1.539-4.2,4.23-7.821,3.147-4.23,5.533-3.675,6.624-6.464C1762.36,239.935,1756.578,231.316,1752.974,231.758Z" transform="translate(-1730.951 -219.072)" fill="#fff"/>
      <path id="Trazado_104335" data-name="Trazado 104335" d="M1791.979,218.109c-3.264-1.046-5.819-.756-10.374-.239a38.735,38.735,0,0,0-14.6,4.868c-3.63,1.878-4.592,2.937-5.107,4.15-1.2,2.829.262,5.918,1.2,7.821,2.385,4.857,4.6,4.688,9.656,10.535,4.449,5.143,6.672,7.715,8.14,11.492.649,1.671,1.284,3.834,3.352,5.108a8.355,8.355,0,0,0,5.586.8c5.457-.715,5.941-4.237,9.5-3.991,2.833.2,3.448,2.5,8.3,3.272,2.169.347,2.8.008,3.113-.239,1.18-.938,1.043-3.179-.08-7.741-1.727-7.014-3.265-9.288-4.708-14.844-1.5-5.77-.345-5.263-1.6-8.539C1803.928,229.458,1800.482,220.833,1791.979,218.109Z" transform="translate(-1741.386 -212.845)" fill="#fff"/>
      <path id="Trazado_104336" data-name="Trazado 104336" d="M1807.552,263.285c1.135-1.386.523-3.049,2.075-4.469,2.528-2.314,7.1-.6,7.342-1.436.285-1-6.569-2.449-7.342-6.384-.351-1.784.94-2.088.8-4.469-.134-2.233-1.527-4.073-4.31-7.661-2.2-2.834-2.791-3.064-2.873-4.15-.247-3.264,3.877-5.535,5.586-6.7a15.649,15.649,0,0,1,6.316-2.508,23.984,23.984,0,0,1,5.814,8.573c1.252,3.277.1,2.77,1.6,8.539,1.443,5.556,2.982,7.83,4.708,14.844,1.123,4.562,1.261,6.8.08,7.741-.311.247-.944.586-3.113.239-4.851-.776-5.466-3.076-8.3-3.272-3.556-.246-4.04,3.276-9.5,3.99a8.354,8.354,0,0,1-5.586-.8,5.721,5.721,0,0,1-1.162-.95C1804.511,265.3,1806.6,264.448,1807.552,263.285Z" transform="translate(-1757.996 -216.363)" fill="#f6f6f6" opacity="0.3" style="mix-blend-mode: multiply;isolation: isolate"/>
      <g id="Grupo_54222" data-name="Grupo 54222" transform="translate(25.482 1.776)">
        <path id="Trazado_104337" data-name="Trazado 104337" d="M1777.745,215.379a4.943,4.943,0,0,0,6.659,2.851c1.123-.412,1.315-.267,1.38-.18.317.422-1.934,3.231-5.118,4.087-1.943.522-4.021.26-4.131-.281s1.277-.5,1.437-1.63c.111-.79-1.487-1.738-2.31-2.272C1775.8,216.921,1777.609,216.414,1777.745,215.379Z" transform="translate(-1773.044 -213.742)" fill="#ffd4a5"/>
        <g id="Grupo_54221" data-name="Grupo 54221">
          <path id="Trazado_104338" data-name="Trazado 104338" d="M1772.243,216.586a1.806,1.806,0,0,1-1.2-1.85,2.236,2.236,0,0,1,1.019-1.389,3.732,3.732,0,0,1,3.728-.572c.64.36.771,1.826.808,2.081.042.289-.1.483-.171.76-.094.385-.237.993-.46,2a4.868,4.868,0,0,0-.691-.511,4.531,4.531,0,0,0-1.037-.466C1773.264,216.361,1772.926,216.81,1772.243,216.586Z" transform="translate(-1771.035 -212.485)" fill="#12263f"/>
          <path id="Trazado_104339" data-name="Trazado 104339" d="M1777.438,218.225a2.691,2.691,0,0,1-1.485,2.236c-1.32.682-3.221-1.753-2.775-2.776a1.959,1.959,0,0,1,1.154-.894c.3-.091.458-.046.953-.2.457-.144.542-.251.722-.232.224.023.519.232.773,1.127a.814.814,0,0,1,.6-.66.535.535,0,0,1,.269.046C1778.019,217.053,1777.972,217.6,1777.438,218.225Z" transform="translate(-1771.937 -214.165)" fill="#ffd4a5"/>
        </g>
      </g>
      <g id="Grupo_54223" data-name="Grupo 54223" transform="translate(23.82)">
        <path id="Trazado_104340" data-name="Trazado 104340" d="M1769.5,214.68a52.009,52.009,0,0,1,5.874-2.311.618.618,0,0,0,.415-.83,3,3,0,0,0-3.989-1.976C1768.709,210.613,1768.743,212.939,1769.5,214.68Z" transform="translate(-1768.522 -209.346)" fill="#f1d54e"/>
        <path id="Trazado_104341" data-name="Trazado 104341" d="M1769.08,216.821s-1.218.875-.942,1.151,5.8-2.722,5.8-2.722Z" transform="translate(-1768.098 -211.91)" fill="#ffe35c"/>
        <path id="Trazado_104342" data-name="Trazado 104342" d="M1771.8,210.809a1.357,1.357,0,0,1,.407-1.287c-.132.032-.267.068-.407.117-2.741.931-3.027,2.862-2.528,4.5.661-.3,1.4-.618,1.818-.772C1771.969,213.046,1772.246,212.078,1771.8,210.809Z" transform="translate(-1768.522 -209.422)" fill="#ffe35c"/>
      </g>
      <g id="Grupo_54224" data-name="Grupo 54224" transform="translate(24.308 17.977)">
        <path id="Trazado_104343" data-name="Trazado 104343" d="M1769.076,244.428a11.386,11.386,0,0,1,1.568-3.305c.169,3.452,3.1,9.275,3.1,9.275S1769.468,247.88,1769.076,244.428Z" transform="translate(-1769.011 -241.123)" fill="#f3f9ff"/>
        <path id="Trazado_104344" data-name="Trazado 104344" d="M1795.965,268.846c-3.778,2.676-11.917.261-13.062-.943-1.231-1.3-8.1-9.422-11.759-16.775a22.063,22.063,0,0,1-2.093-5.306v-.006a4.7,4.7,0,0,0-.09-.767,3.577,3.577,0,0,0,3.106,2.347c4.986.682,13.666-4.845,13.666-4.845L1797.711,263C1798.248,265.978,1797.445,267.806,1795.965,268.846Z" transform="translate(-1768.961 -241.743)" fill="#f3f9ff"/>
      </g>
      <path id="Trazado_104345" data-name="Trazado 104345" d="M1809.218,260.78l-2.463-1.075s-.941-1.344-1.7-1.567a16.323,16.323,0,0,0-3.493.089s.269,1.075.806,1.254,2.194.313,2.462.851a1.662,1.662,0,0,0,1.612.761,9.645,9.645,0,0,1,2.641.582Z" transform="translate(-1758.811 -230.501)" fill="#ffd4a5"/>
      <path id="Trazado_104346" data-name="Trazado 104346" d="M1796.455,218.99c2.158-3.641,12.313-2.309,19.154,1.676,2.228,1.3,9.022,5.256,9.5,12.131a11.382,11.382,0,0,1-1.6,6.624c-2.995,4.778-10.076,6.886-17.557,5.027l.239-2.394a8.18,8.18,0,0,0,5.427-1.836c.451-.375,3.134-2.6,2.714-4.629-.707-3.4-9.187-1.546-14.685-7.263C1797.182,225.764,1795.035,221.387,1796.455,218.99Z" transform="translate(-1756.396 -212.609)" fill="#fff"/>
      <path id="Trazado_104347" data-name="Trazado 104347" d="M1797.691,275.429c-3.778,2.676-11.917.261-13.062-.943-1.231-1.3-8.035-9.422-11.693-16.775a11.449,11.449,0,0,0,6.4,3.42c6.59,1.078,6.59,3.331,9.137,7.836C1790.425,272.415,1793.208,275.853,1797.691,275.429Z" transform="translate(-1746.379 -230.351)" fill="#d2e1f1" opacity="0.2" style="mix-blend-mode: multiply;isolation: isolate"/>
    </g>
    <g id="Grupo_54227" data-name="Grupo 54227" transform="translate(1535.801 -10.794)">
      <g id="Grupo_54226" data-name="Grupo 54226" transform="translate(0 0)">
        <path id="Trazado_104348" data-name="Trazado 104348" d="M1582.21,104.113a11.182,11.182,0,0,1-6.084-1.574,117.651,117.651,0,0,1-21.142-16.023c-9.368-9.132-14.75-18.415-15.927-27.53l-.019-.143-.229-38.894c0-7.687,5.014-13.927,14.427-18.026,7.777-3.387,18.085-5.066,28.974-4.751,10.763.312,20.722,2.532,28.093,6.232,8.762,4.4,13.36,10.58,13.36,17.909l-.209,37.164-.017.137c-1.076,8.729-6.028,17.751-14.781,26.875a122.022,122.022,0,0,1-20.4,16.71A11.578,11.578,0,0,1,1582.21,104.113Z" transform="translate(-1538.809 2.866)" fill="#baa53d"/>
        <path id="Trazado_104349" data-name="Trazado 104349" d="M1586.426,104.113a10.923,10.923,0,0,1-6-1.574,116.232,116.232,0,0,1-20.862-16.023c-9.244-9.132-14.555-18.415-15.717-27.53l-.018-.143-.226-38.894c0-7.687,4.948-13.927,14.236-18.026,7.674-3.387,17.846-5.066,28.592-4.751,10.62.312,20.448,2.532,27.722,6.232,8.647,4.4,13.184,10.58,13.184,17.909l-.206,37.164-.016.137c-1.062,8.729-5.949,17.751-14.586,26.875a120.754,120.754,0,0,1-20.133,16.71A11.319,11.319,0,0,1,1586.426,104.113Z" transform="translate(-1540.889 2.866)" fill="#ddc347"/>
        <path id="Trazado_104350" data-name="Trazado 104350" d="M1548.138,21.811l.227,38.7c2.547,19.745,25.752,35.731,35.859,41.8a8.923,8.923,0,0,0,9.471-.255c9.9-6.512,31.829-22.9,34.173-41.888l.208-37.062C1628.076-4.388,1548.138-6.9,1548.138,21.811Z" transform="translate(-1542.86 1.032)" fill="#f1d54e"/>
        <path id="Trazado_104351" data-name="Trazado 104351" d="M1594.854,101.895a1.382,1.382,0,0,1-.749-.2,109.861,109.861,0,0,1-19.245-14.691c-7.58-7.446-11.952-14.685-12.954-21.484l-.222-38.057c.009-3.652,2.9-6.777,8.566-9.278,6.325-2.792,15.308-4.256,24.6-4.036,9.2.219,17.924,2.072,23.966,5.069,5.344,2.652,8.046,5.778,8.055,9.3l-.207,36.74c-.936,6.58-5.039,13.673-12.243,21.129a114.175,114.175,0,0,1-18.822,15.27A1.436,1.436,0,0,1,1594.854,101.895Z" transform="translate(-1548.743 -4.515)" fill="#baa53d"/>
        <path id="Trazado_104352" data-name="Trazado 104352" d="M1595.125,101.138a106.729,106.729,0,0,1-18.195-14c-7.123-7.01-11.246-13.738-12.215-19.963l-.221-37.836c.007-2.611,2.407-5.006,7.115-7.091,5.992-2.653,14.577-4.051,23.516-3.851,8.853.2,17.2,1.947,22.931,4.785,4.456,2.2,6.709,4.609,6.715,7.155l-.206,36.605c-.909,6.039-4.8,12.644-11.6,19.668A110.856,110.856,0,0,1,1595.125,101.138Z" transform="translate(-1549.964 -6.359)" fill="#17c878"/>
      </g>
      <path id="Trazado_104353" data-name="Trazado 104353" d="M1603.287,87.231a3.814,3.814,0,0,1-3.228-1.683L1589.615,69.3a3.541,3.541,0,0,1,1.1-4.61,3.176,3.176,0,0,1,4.605.431L1603.01,76.4l11.467-21.586a5.933,5.933,0,0,1,6.152-2.908,3.16,3.16,0,0,1,2.1,4.929l-15.939,28.415a4,4,0,0,1-3.368,1.977Z" transform="translate(-1560.676 -20.875)" fill="#fff"/>
    </g>
    <g id="Grupo_54229" data-name="Grupo 54229" transform="translate(1581.506 116.788)">
      <path id="Trazado_104354" data-name="Trazado 104354" d="M1629.827,247.686c-.515.195-8.365,3.316-9.979,11.51-.13.662-1.391,7.7,3.382,12.675,5.353,5.576,15.661,5.438,19.753.776a8.354,8.354,0,0,0,1.74-3.3h0l-1.078-2.864a7.017,7.017,0,0,0-4.063-2.2c-2.358-.581-4.139.47-5.489-.668a3.556,3.556,0,0,1-1.028-2.344c-.452-2.755,1.1-4.451,1.217-6.15.084-1.27.529-4.053-1.129-5.868A5.352,5.352,0,0,0,1629.827,247.686Z" transform="translate(-1619.602 -233.529)" fill="#fff"/>
      <path id="Trazado_104355" data-name="Trazado 104355" d="M1629.924,408.625c-.092-.5-1.721-.961-2.527-.285-.4.335-.677,1.015-.445,1.323.084.111-.261.308.07.312C1628.119,409.987,1630.015,409.126,1629.924,408.625Z" transform="translate(-1622.757 -303.153)" fill="url(#linear-gradient-2)"/>
      <path id="Trazado_104356" data-name="Trazado 104356" d="M1627.966,406.246l-1.676-.237c.776-.935.632-3.91.632-3.91l1.782.4s-.2.817-.549,2.022A7.893,7.893,0,0,0,1627.966,406.246Z" transform="translate(-1622.506 -300.59)" fill="#ffd4a5"/>
      <path id="Trazado_104357" data-name="Trazado 104357" d="M1627.682,408.891s-2.017-.464-2.235-.065-.387,1.471.892,1.436S1627.8,409.23,1627.682,408.891Z" transform="translate(-1622.074 -303.441)" fill="url(#linear-gradient-3)"/>
      <path id="Trazado_104358" data-name="Trazado 104358" d="M1670.655,412.11c-.161-.486-1.838-.711-2.542.071-.349.388-.527,1.1-.255,1.371.1.1-.215.342.113.3C1669.059,413.711,1670.815,412.593,1670.655,412.11Z" transform="translate(-1640.501 -304.746)" fill="url(#linear-gradient-4)"/>
      <path id="Trazado_104359" data-name="Trazado 104359" d="M1668.662,410.152h-1.692c.638-1.034.079-3.961.079-3.961l1.82.144s-.087.837-.26,2.078A7.88,7.88,0,0,0,1668.662,410.152Z" transform="translate(-1640.174 -302.368)" fill="#ffd4a5"/>
      <path id="Trazado_104360" data-name="Trazado 104360" d="M1655.618,299.035a78.19,78.19,0,0,1,2.624,12.007c2.055,14.949-2.313,15.426-1.5,31.992.261,5.288-4.581,17.481-5.008,17.75a5.155,5.155,0,0,1-.67.027,6.69,6.69,0,0,1-1.705-.285c-.767-.132-3.532-7.621-2.891-12.074.454-3.152.322-6.534.059-13.3-.042-1.1-2.847-21.325-2.847-21.325h0c-.853,7.488-1.834,13.85-2.684,18.783-2.733,15.848-11.617,25.44-12.081,25.594a1.879,1.879,0,0,1-1.607-.11,1.111,1.111,0,0,1-.407-.458c-.238-.186.07-15.822,2.78-27.589,3.934-17.081,2.221-21.077,3.467-28.707C1634.229,294.739,1655.618,299.035,1655.618,299.035Z" transform="translate(-1622.745 -255.233)" fill="#fff"/>
      <path id="Trazado_104361" data-name="Trazado 104361" d="M1642.025,245.215c2.611-.077,8.335-.7,12.851,1.374.07.032-1.551,1.015-1.217,1.406a21.587,21.587,0,0,1,2.335,3.35,22.52,22.52,0,0,1,1.962,4.853c.214.728.4,1.435.628,2.413a40.417,40.417,0,0,1,.921,6.053c.6,7.948.005,11.615-.539,14.109a27.511,27.511,0,0,1-15.7,2.3,24.5,24.5,0,0,1-7.824-2.577c1.881-5.7.405-8.744-.291-11.553-.993-4.005-1.009-3.7-1.827-6.885-1.349-5.25-1.57-10.615-.643-11.713C1635.184,245.391,1639.687,245.284,1642.025,245.215Z" transform="translate(-1625.04 -232.392)" fill="#fff"/>
      <path id="Trazado_104362" data-name="Trazado 104362" d="M1668.406,412.767s-2.062-.178-2.222.249-.178,1.511,1.085,1.3S1668.566,413.086,1668.406,412.767Z" transform="translate(-1639.799 -305.207)" fill="url(#linear-gradient-5)"/>
      <path id="Trazado_104363" data-name="Trazado 104363" d="M1653.933,235.355a4.538,4.538,0,0,0,.367-3.268c-.34-1.414-.467-1.628-.729-1.927l-.371-.393-.047-.034a5.338,5.338,0,0,0-1.429-.476c-.664-.033-2.016,2.349-2.79,6.019q-.094.2-.187.4-.424.917-.761,1.81a1.089,1.089,0,0,1-.911.7c-3.877.373-4.437.861-4.456,1.149-.042.64,2.516,1.38,4.439,1.662,4.2.614,8.507-.492,8.488-1.275-.008-.3-.672-.69-3.341-1.1a1.084,1.084,0,0,1-.907-1.222q.049-.346.1-.692C1651.685,236.642,1653.337,236.362,1653.933,235.355Z" transform="translate(-1629.598 -225.526)" fill="#ffd4a5"/>
      <path id="Trazado_104364" data-name="Trazado 104364" d="M1656.984,228c-.3,1.12-.369,1.826-.689,1.947a1.937,1.937,0,0,0-.525.335.6.6,0,0,0-.1.115c-.434.642.468,1.772.167,2.031-.219.187-.9-.323-1.044-.149s.4.72.24.917c-.118.149-.468-.109-.783.083-.157.1-.148.208-.383.566a3.669,3.669,0,0,1-.417.533c-.563.555-1.725.5-1.866.183-.039-.089.028-.137.033-.4a2.05,2.05,0,0,0-.083-.55,5.284,5.284,0,0,0-1.05-1.4,3.766,3.766,0,0,1-.965-1.948c-.01-.084-.013-.145-.015-.191a4.312,4.312,0,0,1,.848-2.76c.956-1.084,2.2-.117,3.681-1.049,1.707-1.076-.017.91.76.886C1655.65,227.126,1657.543,225.928,1656.984,228Z" transform="translate(-1632.587 -224.088)" fill="#12263f"/>
      <path id="Trazado_104365" data-name="Trazado 104365" d="M1659.412,236.563c-.174-.451-.752-.225-.885.263a.922.922,0,0,0,.69,1.148C1659.7,238,1659.647,237.17,1659.412,236.563Z" transform="translate(-1636.494 -228.593)" fill="#ffd4a5"/>
      <path id="Trazado_104366" data-name="Trazado 104366" d="M1646.078,280.072c2.606-.708,4.212,2.431,6.453,1.969,3.086-.637,4.186-7.45,4.484-9.3,1.076-6.666-.931-9.133.875-12.031a6.258,6.258,0,0,1,1.843-1.877,26.138,26.138,0,0,1,1.2,3.343,41.691,41.691,0,0,1,1.549,8.467c.6,7.948.005,11.615-.539,14.109a27.511,27.511,0,0,1-15.7,2.3,24.411,24.411,0,0,1-7.264-2.292,7.3,7.3,0,0,0,4.028-1.851C1644.2,281.774,1644.571,280.481,1646.078,280.072Z" transform="translate(-1628.021 -238.371)" fill="#f6f6f6" opacity="0.3" style="mix-blend-mode: multiply;isolation: isolate"/>
      <g id="Grupo_54228" data-name="Grupo 54228" transform="translate(35.928 17.763)">
        <path id="Trazado_104367" data-name="Trazado 104367" d="M1683.112,271.239l7.559-16.872a.518.518,0,0,1,.539-.3l13.218,1.667a.518.518,0,0,1,.4.742l-8.913,18.231a.519.519,0,0,1-.591.275l-11.769-2.91Z" transform="translate(-1683.112 -254.061)" fill="#fb9e36"/>
        <path id="Trazado_104368" data-name="Trazado 104368" d="M1686.789,270.138l6.121-13.662a.42.42,0,0,1,.436-.245l10.7,1.35a.42.42,0,0,1,.325.6l-7.217,14.761a.42.42,0,0,1-.478.223l-9.529-2.357Z" transform="translate(-1684.709 -255.002)" fill="#fff"/>
        <path id="Trazado_104369" data-name="Trazado 104369" d="M1701.507,255.507l.485-1.095a.38.38,0,0,1,.391-.223l5.5.647a.38.38,0,0,1,.3.534l-.542,1.192a.38.38,0,0,1-.4.219l-5.443-.744A.38.38,0,0,1,1701.507,255.507Z" transform="translate(-1691.086 -254.115)" fill="#f1d54e"/>
        <path id="Trazado_104370" data-name="Trazado 104370" d="M1707.184,261.76l-.025,0-9.694-1.243a.219.219,0,1,1,.055-.434l9.694,1.243a.219.219,0,0,1-.031.436Z" transform="translate(-1689.262 -256.674)" fill="#bfc8d6"/>
        <path id="Trazado_104371" data-name="Trazado 104371" d="M1706.343,263.418l-.027,0-9.646-1.338a.219.219,0,0,1,.06-.434l9.645,1.338a.219.219,0,0,1-.032.436Z" transform="translate(-1688.918 -257.353)" fill="#bfc8d6"/>
        <path id="Trazado_104372" data-name="Trazado 104372" d="M1701.131,266.493l-.033,0-5.26-.876a.219.219,0,0,1,.072-.432l5.26.876a.219.219,0,0,1-.039.435Z" transform="translate(-1688.559 -258.889)" fill="#bfc8d6"/>
      </g>
      <path id="Trazado_104373" data-name="Trazado 104373" d="M1709.529,278.463s2.153-1.465,2.4-2.5a14.919,14.919,0,0,0,.188-2.976l-1.256,2.738a1.473,1.473,0,0,1-.868-1.076c-.261-.9-.7-.076-.525.605A20.056,20.056,0,0,1,1709.529,278.463Z" transform="translate(-1658.615 -244.518)" fill="#ffd4a5"/>
      <path id="Trazado_104374" data-name="Trazado 104374" d="M1669.358,247.758a15.722,15.722,0,0,1,8.862,5.277c4.26,5.625,2.632,11.534,6.2,13.638,1.02.6,2.812,1.091,6.046-.053l1.239.659s1.514,7.7-7.837,7.989-14.01-11.337-14.01-11.337L1665.47,249.7Z" transform="translate(-1639.522 -233.561)" fill="#fff"/>
      <path id="Trazado_104375" data-name="Trazado 104375" d="M1648.295,225.9a3.523,3.523,0,0,1,.356-.546,5.425,5.425,0,0,1,1.956-1.451,4.08,4.08,0,0,1,3.928-.081,5.921,5.921,0,0,1,2.11,2.357,1.436,1.436,0,0,1,.022,1.332c-.791,1.568-3.009,5.344-5.82,4.851a3.3,3.3,0,0,1-2.486-1.854A5.571,5.571,0,0,1,1648.295,225.9Z" transform="translate(-1631.858 -222.961)" fill="#f1d54e"/>
      <path id="Trazado_104376" data-name="Trazado 104376" d="M1649.877,228.647c.456,2.191.911,2.55,1.811,2.451a.609.609,0,0,0,.286-.1.009.009,0,0,0,.006,0,.494.494,0,0,0,.175-.216c0-.006.006-.008.006-.011.24-.555-.026-1.843-.277-4.174-.342-3.166,3.006-3.289,3.006-3.289a2.442,2.442,0,0,0-.161-.351.565.565,0,0,0-.126-.108.71.71,0,0,0-.2-.091,4.029,4.029,0,0,0-2.991.6C1649.69,224.429,1649.518,226.933,1649.877,228.647Z" transform="translate(-1632.683 -222.661)" fill="#ffe35c"/>
      <path id="Trazado_104377" data-name="Trazado 104377" d="M1656.665,227.092a1.165,1.165,0,0,1,.869,1.416c-.147.97-2.181,5.641-5.742,5.659s-2.88-1.856-2.88-1.856a2.791,2.791,0,0,0,2.98,1.18c1.99-.457,3.061-1.479,4.327-3.718C1656.22,229.773,1657.213,227.8,1656.665,227.092Z" transform="translate(-1632.309 -224.585)" fill="#ffe35c"/>
      <path id="Trazado_104378" data-name="Trazado 104378" d="M1652.718,226.814a29.753,29.753,0,0,0,.552,4.332.009.009,0,0,0,.006,0,2.141,2.141,0,0,0,.175-.216c0-.006.005-.008.005-.011.24-.555-.026-1.843-.277-4.174-.342-3.166,3.006-3.289,3.006-3.289a2.429,2.429,0,0,0-.161-.351.567.567,0,0,0-.126-.108c-.646.105-2.211.444-2.67,1.326A3.856,3.856,0,0,0,1652.718,226.814Z" transform="translate(-1633.978 -222.805)" fill="#ddc347" opacity="0.823" style="mix-blend-mode: multiply;isolation: isolate"/>
    </g>
    <g id="Grupo_54230" data-name="Grupo 54230" transform="translate(1643.982 175.198)">
      <path id="Trazado_104379" data-name="Trazado 104379" d="M1744.415,390.645a.172.172,0,0,1-.06-.01.183.183,0,0,1-.113-.233l2.342-6.774a.183.183,0,0,1,.345.12l-2.342,6.774A.182.182,0,0,1,1744.415,390.645Z" transform="translate(-1736.205 -350.925)" fill="#e73a31"/>
      <path id="Trazado_104380" data-name="Trazado 104380" d="M1755.835,390.087l-.041,0a.183.183,0,0,1-.137-.219l1.716-7.5a.179.179,0,0,1,.22-.137.183.183,0,0,1,.137.219l-1.716,7.5A.184.184,0,0,1,1755.835,390.087Z" transform="translate(-1741.165 -350.367)" fill="#e73a31"/>
      <path id="Trazado_104381" data-name="Trazado 104381" d="M1755.66,395.846h-3.586a.182.182,0,1,1,0-.364h3.586a.182.182,0,1,1,0,.364Z" transform="translate(-1739.531 -356.126)" fill="#e73a31"/>
      <path id="Trazado_104382" data-name="Trazado 104382" d="M1744.832,395.846h-3.587a.182.182,0,0,1,0-.364h3.587a.182.182,0,1,1,0,.364Z" transform="translate(-1734.828 -356.126)" fill="#e73a31"/>
      <path id="Trazado_104383" data-name="Trazado 104383" d="M1749.088,331.418a7.693,7.693,0,0,0-1.12-5.38.273.273,0,0,0-.491.068,1.1,1.1,0,0,1-1.563.658.224.224,0,0,0-.3.1,1.5,1.5,0,0,1-1.952.691.226.226,0,0,0-.314.248,3.976,3.976,0,0,1-.148,2Z" transform="translate(-1735.755 -325.912)" fill="#e73a31"/>
      <path id="Trazado_104384" data-name="Trazado 104384" d="M1730.365,346.218c0,8.422,5.414,15.237,12.113,15.237,5.867,0,10.757-5.225,11.88-12.172,4.481-3.459,6.276-8.655,3.985-11.617a5.763,5.763,0,0,0-4.919-1.985.412.412,0,0,1-.014.131,6.727,6.727,0,0,1-13.267.548,2.564,2.564,0,0,1-1.752-1.248,5.117,5.117,0,0,1,4.685-.511,4.242,4.242,0,0,1,.978.511,4.849,4.849,0,0,0-3.269-3.05C1737.341,331.127,1730.365,335.623,1730.365,346.218Z" transform="translate(-1730.182 -328.531)" fill="#fb9e36"/>
      <path id="Trazado_104385" data-name="Trazado 104385" d="M1755.592,366.072a5.831,5.831,0,0,1-4.795-2.059.183.183,0,0,1,.291-.222c2.035,2.652,6.784,2.548,11.047-.244a.185.185,0,0,1,.252.053.182.182,0,0,1-.053.252A12.62,12.62,0,0,1,1755.592,366.072Z" transform="translate(-1739.039 -342.244)" fill="#fff"/>
      <path id="Trazado_104386" data-name="Trazado 104386" d="M1767.894,356.59a.183.183,0,0,1-.123-.318,5.626,5.626,0,0,0-.61-8.832.183.183,0,1,1,.205-.3,5.992,5.992,0,0,1,.65,9.4A.183.183,0,0,1,1767.894,356.59Z" transform="translate(-1746.128 -335.117)" fill="#fff"/>
      <path id="Trazado_104387" data-name="Trazado 104387" d="M1744.554,336.879a2.565,2.565,0,0,0,1.752,1.248,2.194,2.194,0,0,0,.759.036,2.557,2.557,0,0,0,2.175-1.795A5.019,5.019,0,0,0,1744.554,336.879Z" transform="translate(-1736.344 -330.297)" fill="#e73a31"/>
      <path id="Trazado_104388" data-name="Trazado 104388" d="M1770.353,345.252a.182.182,0,0,1-.1-.334,6.414,6.414,0,0,0,2.718-3.907.186.186,0,0,1,.219-.136.183.183,0,0,1,.137.219,6.789,6.789,0,0,1-2.872,4.127A.186.186,0,0,1,1770.353,345.252Z" transform="translate(-1747.47 -332.409)" fill="#fff"/>
      <path id="Trazado_104389" data-name="Trazado 104389" d="M1772.636,348.612a.187.187,0,0,1-.161-.1.183.183,0,0,1,.074-.247,8.223,8.223,0,0,0,3.521-3.742.185.185,0,0,1,.242-.089.183.183,0,0,1,.088.243,8.591,8.591,0,0,1-3.677,3.909A.183.183,0,0,1,1772.636,348.612Z" transform="translate(-1748.461 -333.952)" fill="#fff"/>
      <path id="Trazado_104390" data-name="Trazado 104390" d="M1772.822,352.457a.182.182,0,0,1-.027-.363,5.057,5.057,0,0,0,3.609-2.429.18.18,0,0,1,.25-.063.182.182,0,0,1,.064.25,5.422,5.422,0,0,1-3.868,2.6Z" transform="translate(-1748.542 -336.189)" fill="#fff"/>
      <path id="Trazado_104391" data-name="Trazado 104391" d="M1747.635,333.473a.37.37,0,1,0,.369-.371A.37.37,0,0,0,1747.635,333.473Z" transform="translate(-1737.682 -329.035)" fill="#e73a31"/>
    </g>
  </g>
</svg>
