<svg xmlns="http://www.w3.org/2000/svg" width="82.262" height="81.387" viewBox="0 0 82.262 81.387">
  <g id="Grupo_82781" data-name="Grupo 82781" transform="translate(-370 -3086.943)">
    <g id="granero" transform="translate(370 3086.5)">
      <path id="Trazado_105022" data-name="Trazado 105022" d="M79.843,26.009,71.424,14.521a8.185,8.185,0,0,0-3.565-2.764L44.043,2.23a8.19,8.19,0,0,0-6.085,0L14.14,11.757a8.184,8.184,0,0,0-3.565,2.764L2.157,26.009a4.934,4.934,0,0,0,1.215,7L14.7,17.547a3.073,3.073,0,0,1,1.338-1.037L39.859,6.983a3.072,3.072,0,0,1,2.283,0L65.958,16.51A3.074,3.074,0,0,1,67.3,17.547L78.628,33.012A4.934,4.934,0,0,0,79.843,26.009Z" fill="#e38e2f"/>
      <g id="Grupo_54630" data-name="Grupo 54630">
        <path id="Trazado_105024" data-name="Trazado 105024" d="M62.858,21.89,41,13.147,19.142,21.89,6.6,39V80.356H75.4V39Z" fill="#bf7726"/>
        <path id="Trazado_105026" data-name="Trazado 105026" d="M75.4,39,62.858,21.89,41,13.147,19.142,21.89,6.6,39,1.644,35.371,14.7,17.547a3.073,3.073,0,0,1,1.338-1.037L39.859,6.983a3.071,3.071,0,0,1,2.283,0L65.958,16.51A3.074,3.074,0,0,1,67.3,17.547L80.356,35.371Z" fill="#afafaf"/>
        <g id="Grupo_54628" data-name="Grupo 54628">
          <path id="Trazado_105028" data-name="Trazado 105028" d="M41,56.678H60.2V80.356H41Z" fill="#e38e2f"/>
        </g>
        <g id="Grupo_54629" data-name="Grupo 54629">
          <path id="Trazado_105030" data-name="Trazado 105030" d="M21.8,56.678H41V80.356H21.8Z" fill="#e38e2f"/>
        </g>
        <path id="Trazado_105032" data-name="Trazado 105032" d="M18.922,51.559H63.078v5.12H18.922Z" transform="translate(82 108.237) rotate(180)" fill="#afafaf"/>
        <path id="Trazado_105033" data-name="Trazado 105033" d="M21.642,51.559H60.358v-1.92a3.2,3.2,0,0,0-3.2-3.2H24.842a3.2,3.2,0,0,0-3.2,3.2v1.92Z" fill="#e2f4f9"/>
        <path id="Trazado_105034" data-name="Trazado 105034" d="M57.158,46.439h-3.84a3.2,3.2,0,0,1,3.2,3.2v1.92h3.84v-1.92A3.2,3.2,0,0,0,57.158,46.439Z" fill="#b1e4f9"/>
        <path id="Trazado_105036" data-name="Trazado 105036" d="M33,23.4H49V36.2H33Z" fill="#12263f"/>
        <path id="Trazado_105038" data-name="Trazado 105038" d="M31.4,36.2H50.6v5.12H31.4Z" fill="#afafaf"/>
      </g>
      <g id="Grupo_54631" data-name="Grupo 54631">
        <path id="Trazado_105040" data-name="Trazado 105040" d="M80.812,25.3,72.393,13.811a9.389,9.389,0,0,0-4.087-3.17L65.478,9.511a1.2,1.2,0,0,0-.892,2.231l2.827,1.13a6.99,6.99,0,0,1,3.042,2.359L78.874,26.72a3.738,3.738,0,0,1-.068,4.5L68.264,16.837a4.271,4.271,0,0,0-1.86-1.442L42.588,5.868a4.255,4.255,0,0,0-3.175,0L15.6,15.395a4.27,4.27,0,0,0-1.86,1.442L3.194,31.224a3.738,3.738,0,0,1-.068-4.5l8.42-11.49a6.987,6.987,0,0,1,3.04-2.358L38.4,3.346a6.989,6.989,0,0,1,5.193,0L59.383,9.659a1.2,1.2,0,1,0,.892-2.231L44.489,1.115a9.393,9.393,0,0,0-6.978,0L13.692,10.642a9.389,9.389,0,0,0-4.085,3.169L1.188,25.3a6.14,6.14,0,0,0,.552,7.907L.675,34.661A1.2,1.2,0,0,0,.934,36.34L5.4,39.612V44.6a1.2,1.2,0,0,0,2.4,0V39.4l12.106-16.52L41,14.44l21.092,8.437L74.2,39.4l0,27.377a1.2,1.2,0,0,0,2.4,0l0-27.163,4.466-3.272a1.2,1.2,0,0,0,.259-1.679L80.26,33.207a6.14,6.14,0,0,0,.552-7.907ZM75.657,37.325,63.827,21.18a1.2,1.2,0,0,0-.523-.405L41.446,12.031a1.2,1.2,0,0,0-.892,0L18.7,20.774a1.2,1.2,0,0,0-.523.405L6.343,37.325l-3.02-2.213L15.674,18.257a1.869,1.869,0,0,1,.815-.631L40.305,8.1a1.862,1.862,0,0,1,1.39,0l23.816,9.526a1.871,1.871,0,0,1,.815.632L78.677,35.112Z"/>
        <path id="Trazado_105041" data-name="Trazado 105041" d="M75.4,71.179h0a1.2,1.2,0,0,0-1.2,1.2v6.775H61.4V57.879h1.679a1.2,1.2,0,0,0,1.2-1.2v-5.12a1.2,1.2,0,0,0-1.2-1.2H61.559v-.719a4.406,4.406,0,0,0-4.4-4.4H24.841a4.406,4.406,0,0,0-4.4,4.4v.719H18.922a1.2,1.2,0,0,0-1.2,1.2v5.12a1.2,1.2,0,0,0,1.2,1.2H20.6V79.154H7.8V50.209a1.2,1.2,0,1,0-2.4,0V80.356a1.2,1.2,0,0,0,1.2,1.2H75.4a1.2,1.2,0,0,0,1.2-1.2l0-7.975a1.2,1.2,0,0,0-1.2-1.2ZM49.053,68.517,42.2,76.967v-16.9ZM39.8,76.967l-6.852-8.45,6.852-8.45ZM38.48,79.154H24.322l7.079-8.73Zm5.041,0,7.079-8.73,7.079,8.73ZM50.6,66.61,43.52,57.879H57.678ZM59,60.067v16.9l-6.852-8.45ZM31.4,66.61l-7.079-8.731H38.48Zm-1.546,1.907L23,76.967v-16.9ZM22.843,49.639a2,2,0,0,1,2-2H57.158a2,2,0,0,1,2,2v.719H22.843Zm-2.72,3.121H61.876v2.717H20.123Z"/>
        <path id="Trazado_105042" data-name="Trazado 105042" d="M49,22.2H33a1.2,1.2,0,0,0-1.2,1.2V35h-.4a1.2,1.2,0,0,0-1.2,1.2v5.12a1.2,1.2,0,0,0,1.2,1.2H50.6a1.2,1.2,0,0,0,1.2-1.2V36.2A1.2,1.2,0,0,0,50.6,35h-.4V23.4A1.2,1.2,0,0,0,49,22.2ZM34.2,24.6H47.8V35H34.2ZM49.4,40.119H32.6V37.4H49.4Z"/>
      </g>
    </g>
    <g id="hen" transform="translate(407.754 3120.055)">
      <path id="Trazado_104401" data-name="Trazado 104401" d="M9.046,182.205a31.591,31.591,0,0,0,.157-6.717s4.609,3.22,3.094,5.6a3.045,3.045,0,0,1-3.258,1.16C9.042,182.236,9.044,182.221,9.046,182.205Zm0,0" transform="translate(30.842 -159.036)" fill="#ff4755"/>
      <path id="Trazado_104402" data-name="Trazado 104402" d="M9.267,210.562a2.984,2.984,0,0,0,2.958-1.074A2.326,2.326,0,0,1,12.3,211.9a3.046,3.046,0,0,1-3.258,1.159l.006-.046Q9.2,211.72,9.267,210.562Zm0,0" transform="translate(30.837 -189.848)" fill="#fc2b3a"/>
      <path id="Trazado_104403" data-name="Trazado 104403" d="M12.3,128.754c2.5.692,4.266,1.332,4.108,2.5-.145,1.073-2.179,1.67-3.084,1.883A15.172,15.172,0,0,0,12.3,128.754Zm0,0" transform="translate(26.721 -116.683)" fill="#ffa812"/>
      <path id="Trazado_104404" data-name="Trazado 104404" d="M14.836,141.938c.552.354.842.759.774,1.262-.145,1.073-2.179,1.67-3.084,1.883q-.084-.859-.225-1.611C13.217,143.213,14.528,142.716,14.836,141.938Zm0,0" transform="translate(27.519 -128.63)" fill="#ff9a00"/>
      <path id="Trazado_104405" data-name="Trazado 104405" d="M71.93,16.248a6.411,6.411,0,0,0-3.283-1.038c-2.8-.067-4.319.96-5.318,2.451-.859-.453-2.62-1.585-2.085-3.041.761-2.07,2.845-.858,2.845-.858a2.075,2.075,0,0,1,.7-2.42,2.893,2.893,0,0,1,2.9-.06c.4-3.038,4.669-3.7,6.314-.535C75.312,13.263,72.822,15.541,71.93,16.248Zm0,0" transform="translate(-35.816 -7.852)" fill="#ff4755"/>
      <path id="Trazado_104406" data-name="Trazado 104406" d="M72.08,62.388a5.519,5.519,0,0,1-1.759-1.376,8.933,8.933,0,0,1,5.792-2.967,11.151,11.151,0,0,1,6.155,1.283,8.382,8.382,0,0,1-1.586,1.646A6.41,6.41,0,0,0,77.4,59.937C74.6,59.87,73.079,60.9,72.08,62.388Zm0,0" transform="translate(-44.567 -52.58)" fill="#fc2b3a"/>
      <path id="Trazado_104407" data-name="Trazado 104407" d="M76.127,78.45c1.288.031,8.839.684,7.057,15.812-1.563,13.273-10.947,17.468-18.3,17.446-10.68-.033-24-9.006-20.1-23.126,0,0,1.18-5.247,5.246-5.021s3.934,8.222,12.708,7.342C71.649,90.011,66.845,78.226,76.127,78.45Zm0,0" transform="translate(-43.296 -71.092)" fill="#f1d54e"/>
      <path id="Trazado_104408" data-name="Trazado 104408" d="M64.891,208.547c7.348.023,16.732-4.173,18.3-17.446.126-1.073.2-2.071.242-3a34.145,34.145,0,0,1-.242,5.535c-1.563,13.273-10.947,17.468-18.3,17.446-9.728-.03-21.641-7.477-20.742-19.473C44.962,202.108,55.867,208.519,64.891,208.547Zm0,0" transform="translate(-43.298 -170.463)" fill="#baa53d"/>
      <path id="Trazado_104409" data-name="Trazado 104409" d="M64.454,329.681a22.853,22.853,0,0,0,13.775,4.95h.058a18.256,18.256,0,0,0,8.4-2.011,16.094,16.094,0,0,0,6.975-7.1.706.706,0,1,1,1.258.643,17.482,17.482,0,0,1-7.578,7.714,19.079,19.079,0,0,1-5.676,1.889v3.9l3.411-1.186a.706.706,0,1,1,.464,1.335l-2.277.792,2.246.665a.706.706,0,1,1-.4,1.354l-4.349-1.289a.707.707,0,0,1-.506-.677v-4.707c-.718.07-1.379.1-1.964.1h-.062a22.051,22.051,0,0,1-4.47-.488v4.106l3.411-1.186a.706.706,0,0,1,.464,1.335l-2.277.791,2.246.666a.706.706,0,1,1-.4,1.354l-4.349-1.29a.706.706,0,0,1-.505-.677v-5.441a24.492,24.492,0,0,1-8.772-4.431.706.706,0,1,1,.885-1.1Zm0,0" transform="translate(-56.636 -294.647)" stroke="#000" stroke-width="0.5"/>
      <path id="Trazado_104410" data-name="Trazado 104410" d="M19.479,28.287a25.137,25.137,0,0,0,1.153-5.2c.714-6.063-.035-10.566-2.166-13.022a5.835,5.835,0,0,0-4.238-2.072A5.139,5.139,0,0,0,9.934,9.555a12.047,12.047,0,0,0-1.956,3.994C6.943,16.48,5.771,19.8,1.305,20.442a.706.706,0,0,1-.2-1.4c3.619-.52,4.553-3.165,5.541-5.965A20.291,20.291,0,0,1,7.93,10c-1.6-1.029-2.245-2.3-1.785-3.549A2.408,2.408,0,0,1,7.576,4.9a2.528,2.528,0,0,1,1.254-.1A2.653,2.653,0,0,1,9.953,2.827a3.25,3.25,0,0,1,2.841-.433A3.684,3.684,0,0,1,15.657.064a4.319,4.319,0,0,1,4.6,2.409c1.281,2.464-.413,4.673-1.589,5.808a7.776,7.776,0,0,1,.868.856,9.425,9.425,0,0,1,1.447,2.292c2.117.589,4.559,1.358,4.31,3.193-.136,1-1.161,1.661-2.306,2.088l.129.115a9.458,9.458,0,0,1,1.982,2.368,3.006,3.006,0,0,1,.1,3.233,3.4,3.4,0,0,1-3.054,1.559c-.067,0-.134,0-.2,0a26.008,26.008,0,0,1-1.124,4.766.706.706,0,1,1-1.336-.459ZM18.8,5.887A2.69,2.69,0,0,0,19,3.124a2.923,2.923,0,0,0-3.1-1.669,2.267,2.267,0,0,0-1.918,1.972.709.709,0,0,1-1.042.527,2.222,2.222,0,0,0-2.156.013,1.359,1.359,0,0,0-.468,1.592.707.707,0,0,1-1,.881,1.778,1.778,0,0,0-1.263-.208c-.092.034-.372.136-.58.7-.087.237-.143.618.378,1.183a4.529,4.529,0,0,0,.867.7,6.4,6.4,0,0,1,5.546-2.242,7.151,7.151,0,0,1,3.21.884A6.836,6.836,0,0,0,18.8,5.887Zm5.086,8.546c.066-.486-1.181-.989-2.3-1.347a16.786,16.786,0,0,1,.508,2.433C23.219,15.16,23.85,14.719,23.89,14.432ZM24,21.668c.549-.863-.188-2.026-.9-2.849A10.705,10.705,0,0,0,22.3,18a34.846,34.846,0,0,1-.19,4.575A2.064,2.064,0,0,0,24,21.668Zm0,0" transform="translate(18.634 0)" stroke="#000" stroke-width="0.5"/>
      <path id="Trazado_104411" data-name="Trazado 104411" d="M284.336,130.412a10.133,10.133,0,0,1,1.189-2.808,5.206,5.206,0,0,1,4.805-2.767c1.93.107,3.02,1.578,4.175,3.135,1.42,1.915,2.889,3.9,6.183,4.252a.706.706,0,1,1-.152,1.4c-3.908-.423-5.714-2.858-7.165-4.814-1.034-1.395-1.851-2.5-3.119-2.567a3.818,3.818,0,0,0-3.511,2.077,8.777,8.777,0,0,0-1.031,2.416c0,.011-.005.022-.008.033a16.388,16.388,0,0,0-.149,8.74,15.989,15.989,0,0,0,3.876,6.794.706.706,0,1,1-1.029.967,17.386,17.386,0,0,1-4.211-7.392A17.779,17.779,0,0,1,284.336,130.412Zm0,0" transform="translate(-283.616 -113.126)" stroke="#000" stroke-width="0.5"/>
      <path id="Trazado_104412" data-name="Trazado 104412" d="M162.928,256.516c4.153,1,7.513.29,9.988-2.121a10.461,10.461,0,0,0,2.537-4.016.706.706,0,0,1,1.355.4,11.7,11.7,0,0,1-2.86,4.586,10.5,10.5,0,0,1-7.614,3,16.024,16.024,0,0,1-3.737-.469c-5.067-1.224-7.687-5.618-7.209-8.986a.706.706,0,0,1,1.4.2,6.084,6.084,0,0,0,1.247,4.241A8.3,8.3,0,0,0,162.928,256.516Zm0,0" transform="translate(-147.107 -225.017)" stroke="#000" stroke-width="0.5"/>
      <path id="Trazado_104413" data-name="Trazado 104413" d="M106.663,132.4a1.477,1.477,0,1,1-1.443-1.794A1.63,1.63,0,0,1,106.663,132.4Zm0,0" transform="translate(-72.1 -118.357)"/>
    </g>
  </g>
</svg>
