<svg xmlns="http://www.w3.org/2000/svg" width="62.247" height="81.999" viewBox="0 0 62.247 81.999">
  <g id="filled_outline" data-name="filled outline" transform="translate(-72 -17.494)">
    <path id="Trazado_104556" data-name="Trazado 104556" d="M87.944,279.106A28.329,28.329,0,1,0,139.677,256H87.838A28.394,28.394,0,0,0,87.944,279.106Z" transform="translate(-11.132 -197.634)" fill="#e2f6c6"/>
    <path id="Trazado_104557" data-name="Trazado 104557" d="M351.315,70.717a6.273,6.273,0,0,0-1.42-6.467,4.881,4.881,0,1,0-8.994,0,6.274,6.274,0,0,0-1.42,6.467,7.67,7.67,0,1,0,11.833,0Z" transform="translate(-220.193 -33.128)" fill="#bdcca8"/>
    <path id="Trazado_104558" data-name="Trazado 104558" d="M93.587,72.172a6.273,6.273,0,0,0-1.419-6.467,4.881,4.881,0,1,0-8.994,0,6.274,6.274,0,0,0-1.42,6.467,7.67,7.67,0,1,0,11.833,0Z" transform="translate(-6.63 -34.333)" fill="#26e690"/>
    <path id="Trazado_104559" data-name="Trazado 104559" d="M220,40.127a6.94,6.94,0,0,0-1.571-7.154,5.4,5.4,0,1,0-9.95,0,6.94,6.94,0,0,0-1.571,7.154,8.485,8.485,0,1,0,13.091,0Z" transform="translate(-110.186 -6.613)" fill="#f1d54e"/>
    <path id="Trazado_104560" data-name="Trazado 104560" d="M207.621,428.38a2.36,2.36,0,0,1-2.36,2.361h-.339a2.018,2.018,0,0,0-2.02,2.02,3.88,3.88,0,0,1-3.787,3.878,28.224,28.224,0,0,1-10.217-1.995,2.952,2.952,0,0,1,2.792-3.9h.886a.886.886,0,0,0,.884-.886,3.835,3.835,0,0,1,3.836-3.835h7.965A2.361,2.361,0,0,1,207.621,428.38Z" transform="translate(-96.735 -338.52)" fill="#17c878"/>
    <path id="Trazado_104561" data-name="Trazado 104561" d="M318.6,350.26a28.189,28.189,0,0,1-5.941,13.13h-1.229a1.881,1.881,0,0,1-1.88-1.882,1.883,1.883,0,0,0-1.894-1.882l-1.649.01-.065,0a2.3,2.3,0,0,1-2.295-2.3,2.358,2.358,0,0,0-2.36-2.36,2.361,2.361,0,0,1,0-4.721Z" transform="translate(-188.039 -275.742)" fill="#17c878"/>
    <path id="Trazado_104562" data-name="Trazado 104562" d="M109.037,279.087a3.54,3.54,0,0,0,3.54-3.541h0a3.54,3.54,0,0,0-3.54-3.54h-1.18a2.36,2.36,0,1,1,0-4.721h16.522a3.54,3.54,0,1,0,0-7.081h-11.8a2.359,2.359,0,0,1-1.47-4.205H87.838a28.394,28.394,0,0,0,.106,23.107Z" transform="translate(-11.132 -197.635)" fill="#17c878"/>
    <path id="Trazado_104563" data-name="Trazado 104563" d="M128.545,56.994h-1.709V51.36a9.039,9.039,0,0,0,5.8-14.045,7.651,7.651,0,0,0-1.381-6.5,6.252,6.252,0,1,0-12.092,0,7.647,7.647,0,0,0-1.381,6.5,9.039,9.039,0,0,0,6.316,14.125v5.554H104.9V48.632a9.855,9.855,0,0,0,6.429-15.392,8.316,8.316,0,0,0-1.53-7.185,6.77,6.77,0,1,0-13.058,0,8.316,8.316,0,0,0-1.53,7.185A9.855,9.855,0,0,0,102.16,48.7v8.29H82.671V51.61a9.039,9.039,0,0,0,5.8-14.045,7.649,7.649,0,0,0-1.381-6.5,6.252,6.252,0,1,0-12.092,0,7.649,7.649,0,0,0-1.381,6.5,9.039,9.039,0,0,0,6.316,14.124v5.305H76.706a1.371,1.371,0,0,0-1.254.817A29.76,29.76,0,0,0,75.547,82l.007.017.009.021A29.7,29.7,0,0,0,129.8,57.811a1.371,1.371,0,0,0-1.254-.817ZM118.907,42.47a6.308,6.308,0,0,1,1.439-4.008,1.371,1.371,0,0,0,.235-1.329,4.9,4.9,0,0,1,1.11-5.054,1.371,1.371,0,0,0,.28-1.491,3.51,3.51,0,1,1,6.469,0,1.371,1.371,0,0,0,.28,1.491,4.9,4.9,0,0,1,1.11,5.054,1.371,1.371,0,0,0,.235,1.33,6.3,6.3,0,0,1-3.229,10.09V42.271l2.293-2.084a1.371,1.371,0,0,0-1.844-2.029l-.449.408V32.318a1.371,1.371,0,1,0-2.742,0v2.135l-.449-.408a1.371,1.371,0,1,0-1.844,2.029l2.293,2.084v4.561l-.4-.4a1.371,1.371,0,0,0-1.943,1.935l2.342,2.351v2.064A6.308,6.308,0,0,1,118.907,42.47Zm-22.75-3.557a7.124,7.124,0,0,1,1.626-4.526,1.371,1.371,0,0,0,.235-1.33,5.57,5.57,0,0,1,1.261-5.741,1.371,1.371,0,0,0,.28-1.491,4.029,4.029,0,1,1,7.424,0,1.371,1.371,0,0,0,.28,1.491,5.569,5.569,0,0,1,1.261,5.741,1.371,1.371,0,0,0,.235,1.33A7.113,7.113,0,0,1,104.9,45.836v-6.1l2.34-2.34a1.371,1.371,0,0,0-1.939-1.939l-.4.4V24.092a1.371,1.371,0,1,0-2.742,0V31.75l-.4-.4a1.371,1.371,0,0,0-1.939,1.939l2.34,2.34v4.387l-.355-.392a1.371,1.371,0,1,0-2.033,1.84L102.16,44.1v1.84A7.125,7.125,0,0,1,96.157,38.913ZM74.742,42.719a6.306,6.306,0,0,1,1.439-4.008,1.371,1.371,0,0,0,.235-1.33,4.9,4.9,0,0,1,1.11-5.054,1.371,1.371,0,0,0,.28-1.491,3.51,3.51,0,1,1,6.469,0,1.371,1.371,0,0,0,.28,1.491,4.9,4.9,0,0,1,1.11,5.054,1.371,1.371,0,0,0,.235,1.33A6.3,6.3,0,0,1,82.671,48.8V42.521l2.293-2.084a1.371,1.371,0,1,0-1.844-2.029l-.449.408V32.567a1.371,1.371,0,0,0-2.742,0V34.7l-.449-.408a1.371,1.371,0,1,0-1.844,2.029l2.293,2.084v4.56l-.4-.4A1.371,1.371,0,0,0,77.586,44.5l2.342,2.352v2.064a6.308,6.308,0,0,1-5.187-6.2Zm2.874,17.016H97.744a3.779,3.779,0,0,0-.03.474,3.736,3.736,0,0,0,3.731,3.731h11.8a2.169,2.169,0,1,1,0,4.339H96.725a3.731,3.731,0,1,0,0,7.462H97.9a2.17,2.17,0,1,1,0,4.339l-20.19.018A27.031,27.031,0,0,1,77.615,59.736ZM104.8,94.241a2.523,2.523,0,0,1-2.4,2.5c-.233,0-.466,0-.7-.013l-.154-.006A26.862,26.862,0,0,1,93.379,95.1a1.579,1.579,0,0,1,1.577-1.512h.886A2.257,2.257,0,0,0,98.1,91.335a2.468,2.468,0,0,1,2.466-2.464h7.965a.99.99,0,0,1,0,1.979h-.339a3.389,3.389,0,0,0-3.391,3.391Zm2.279,2.14a5.17,5.17,0,0,0,.463-2.14.641.641,0,0,1,.187-.457.654.654,0,0,1,.463-.192h.339a3.731,3.731,0,1,0,0-7.463h-7.965a5.214,5.214,0,0,0-5.185,4.721h-.422A4.327,4.327,0,0,0,90.8,94a27.02,27.02,0,0,1-11.76-11.162L97.9,82.823A4.911,4.911,0,1,0,97.9,73h-1.18a.989.989,0,1,1,0-1.979h16.522a4.911,4.911,0,1,0,0-9.823h-11.8a.99.99,0,0,1-.989-.989.979.979,0,0,1,.123-.474h27.057A26.759,26.759,0,0,1,129.578,69.8a27.1,27.1,0,0,1-.208,3.347l-16.123,0a3.732,3.732,0,1,0,0,7.463.987.987,0,0,1,.989.989,3.671,3.671,0,0,0,3.665,3.669c.027,0,.053,0,.083,0l1.637-.01h0a.514.514,0,0,1,.363.15.507.507,0,0,1,.15.361,3.23,3.23,0,0,0,.951,2.3,3.266,3.266,0,0,0,.784.579,26.913,26.913,0,0,1-14.8,7.737ZM128.121,78.54l-2.05,4.538a27.034,27.034,0,0,1-2.133,3.2h-.55a.5.5,0,0,1-.36-.15.507.507,0,0,1-.149-.361,3.254,3.254,0,0,0-3.258-3.252h-.016l-1.64.01c-.026,0-.051,0-.078,0a.926.926,0,0,1-.911-.927,3.729,3.729,0,0,0-3.731-3.73.99.99,0,1,1,0-1.979h15.637A26.688,26.688,0,0,1,128.121,78.54Z"/>
  </g>
</svg>
