<svg xmlns="http://www.w3.org/2000/svg" xmlns:xlink="http://www.w3.org/1999/xlink" width="233.281" height="207.732" viewBox="0 0 233.281 207.732">
  <defs>
    <radialGradient id="radial-gradient" cx="0.5" cy="0.5" r="0.707" gradientTransform="matrix(0.408, 0.707, -0.408, 0.707, 4.909, 40.617)" gradientUnits="objectBoundingBox">
      <stop offset="0" stop-color="#4f4130"/>
      <stop offset="1" stop-color="#fff"/>
    </radialGradient>
    <radialGradient id="radial-gradient-2" cx="0.5" cy="0.5" r="0.707" gradientTransform="matrix(0.408, 0.707, -0.408, 0.707, 5.272, 48.603)" gradientUnits="objectBoundingBox">
      <stop offset="0"/>
      <stop offset="1" stop-color="#fff"/>
    </radialGradient>
  </defs>
  <g id="Grupo_82781" data-name="Grupo 82781" transform="translate(-996.719 -3337.467)">
    <g id="Grupo_54677" data-name="Grupo 54677" transform="translate(1104.703 3379.1)">
      <ellipse id="Elipse_4069" data-name="Elipse 4069" cx="40.738" cy="23.52" rx="40.738" ry="23.52" transform="translate(15.392 17.502)" opacity="0.3" fill="url(#radial-gradient)" style="mix-blend-mode: multiply;isolation: isolate"/>
      <g id="Grupo_54676" data-name="Grupo 54676" transform="translate(0 0)">
        <path id="Trazado_105111" data-name="Trazado 105111" d="M413.889,249.512a28.56,28.56,0,0,0-9.83-6.211,61.213,61.213,0,0,0-6.949,16.3,107.247,107.247,0,0,0,13.649-2C411.824,254.918,412.831,252.2,413.889,249.512Z" transform="translate(-344.982 -233.418)" fill="#ebdaca"/>
        <path id="Trazado_105112" data-name="Trazado 105112" d="M360.212,263.225a37.208,37.208,0,0,0,19.505,19.889c.191-2.478.287-4.971.274-7.479A35.914,35.914,0,0,0,360.212,263.225Z" transform="translate(-341.894 -235.085)" fill="#c78049"/>
        <path id="Trazado_105113" data-name="Trazado 105113" d="M412.288,273.139c-5.642,2.316-10.479,5.572-13.864,10.068.278.2.548.4.832.586a38.09,38.09,0,0,0,11.63,5.193c2.016-2.721,4.136-5.35,6.371-7.857a36.846,36.846,0,0,1-3.813-5.468C413.048,274.822,412.667,273.981,412.288,273.139Z" transform="translate(-345.091 -235.915)" fill="#c78049"/>
        <path id="Trazado_105114" data-name="Trazado 105114" d="M440.377,258.854a60.791,60.791,0,0,0-4.335,5.728,106.749,106.749,0,0,0,10.869.9C444.937,263.2,442.554,261.118,440.377,258.854Z" transform="translate(-348.239 -234.72)" fill="#c78049"/>
        <path id="Trazado_105115" data-name="Trazado 105115" d="M374.446,248.935c-.687,2.373-1.266,4.718-1.714,6.991a28.093,28.093,0,0,0,4.485,2.061c.847-2.54,3.387-1.693,4.233-1.693,3.387,1.693,4.233,6.774,8.467,8.467a6.11,6.11,0,0,0,1.51.239c-.842-3.127-1.791-6.229-2.823-9.3C383.825,255.692,379.2,251.954,374.446,248.935Z" transform="translate(-342.942 -233.89)" fill="#c78049"/>
        <path id="Trazado_105116" data-name="Trazado 105116" d="M406.136,257.919c-.575-1.678-1.21-3.356-1.889-5.022-2.371.712-4.739,1.454-7.089,2.281a70.956,70.956,0,0,0,1.449,15.6C401.994,268.247,403.974,263.045,406.136,257.919Z" transform="translate(-344.985 -234.221)" fill="#c78049"/>
        <path id="Trazado_105117" data-name="Trazado 105117" d="M362.158,266.346c-4.233-1.694-5.08-6.774-8.467-8.468-.847,0-3.387-.847-4.233,1.693a28.008,28.008,0,0,1-4.485-2.061c-.38,1.934-.68,3.821-.875,5.625a119.611,119.611,0,0,1,21.693,12.5c-.6-3.031-1.315-6.052-2.123-9.052A6.153,6.153,0,0,1,362.158,266.346Z" transform="translate(-340.546 -234.607)" fill="#c78049"/>
        <path id="Trazado_105118" data-name="Trazado 105118" d="M387.6,276.143c.014,2.508-.088,5-.289,7.479a37.845,37.845,0,0,0,5.9,1.853A33.062,33.062,0,0,0,387.6,276.143Z" transform="translate(-344.161 -236.166)" fill="#db8d50"/>
        <path id="Trazado_105119" data-name="Trazado 105119" d="M384.031,268.842c-.339,1.33-.695,2.642-1.076,3.946-.288,1.024-.6,2.041-.923,3.048-5.723-4.682-11.481-9.2-18.018-11.913a37.771,37.771,0,0,1,2.218-8.593.067.067,0,0,1,.008-.043c.339-.863.712-1.718,1.118-2.573a47.48,47.48,0,0,1,2.456-4.479A119.75,119.75,0,0,1,384.031,268.842Z" transform="translate(-342.213 -233.831)" fill="#c78049"/>
        <path id="Trazado_105120" data-name="Trazado 105120" d="M384.123,268.842c-.339,1.33-.695,2.642-1.076,3.946-5.7-4.649-11.43-9.153-17.933-11.837a36.582,36.582,0,0,1,1.21-5.622.067.067,0,0,1,.008-.043c.339-.863.712-1.718,1.118-2.573a47.48,47.48,0,0,1,2.456-4.479A119.75,119.75,0,0,1,384.123,268.842Z" transform="translate(-342.305 -233.831)" fill="#db8d50"/>
        <path id="Trazado_105121" data-name="Trazado 105121" d="M388.976,264.972q.708,3.579,1.2,7.169c4.358,1.072,8.732,2.2,13.113,2.983C398.456,271.781,393.768,268.307,388.976,264.972Z" transform="translate(-344.301 -235.231)" fill="#db8d50"/>
        <path id="Trazado_105122" data-name="Trazado 105122" d="M362.937,269.258c-7.183-1.766-14.324-3.375-21.39-3.009a38.183,38.183,0,0,0,1.479,3.9,38.241,38.241,0,0,1,20.881,12.41A102.463,102.463,0,0,0,362.937,269.258Z" transform="translate(-340.333 -235.334)" fill="#ebdaca"/>
        <path id="Trazado_105123" data-name="Trazado 105123" d="M383,269.816c-2.849,3.419-6,6.659-9.086,9.915a102.475,102.475,0,0,1,12.038,5.745,33.067,33.067,0,0,1,10.888-.256,38.277,38.277,0,0,0,4.434-5.937c-4.72-3.065-8.3-7.665-11.007-13.132C387.858,267.44,385.431,268.647,383,269.816Z" transform="translate(-343.04 -235.33)" fill="#ebdaca"/>
        <path id="Trazado_105124" data-name="Trazado 105124" d="M428.2,275.7a32.908,32.908,0,0,1-13.417-1.074c-.471,3.325-.777,6.689-.948,10.07A38.154,38.154,0,0,0,428.2,275.7Z" transform="translate(-346.381 -236.039)" fill="#c78049"/>
        <path id="Trazado_105125" data-name="Trazado 105125" d="M377.865,299.358a75.224,75.224,0,0,1-8.509-7.738c.373-.948.771-1.9,1.177-2.845.449-1.041.914-2.065,1.406-3.09q1.829,3.847,3.539,7.848Q376.722,296.416,377.865,299.358Z" transform="translate(-342.659 -236.964)" fill="#c78049"/>
        <path id="Trazado_105126" data-name="Trazado 105126" d="M375.585,293.532c-1.693-1.5-3.31-3.107-4.945-4.759.449-1.041.914-2.065,1.406-3.09Q373.875,289.531,375.585,293.532Z" transform="translate(-342.767 -236.964)" fill="#db8d50"/>
        <path id="Trazado_105127" data-name="Trazado 105127" d="M351.067,255.166c2.1,4.408,4.1,8.978,5.924,13.672a34.076,34.076,0,0,0,6.587,3.917c-.847-7.62,7.62-9.314,8.467-16.087.306-4.584-1.6-7.955-4.231-10.989a106.772,106.772,0,0,1-10.869-.894A81.68,81.68,0,0,0,351.067,255.166Z" transform="translate(-341.129 -233.542)" fill="#f09a58"/>
        <path id="Trazado_105128" data-name="Trazado 105128" d="M392.69,244.39c-.313.516-.627,1.033-.932,1.558a62.363,62.363,0,0,0-6.011,14.749c-.729.06-1.448.126-2.176.17-4.047-2.354-6.917-5.893-10.262-8.95-.677-.627-1.372-1.22-2.1-1.787,4.708-4.208,9.916-6.807,15.393-6.807A18.532,18.532,0,0,1,392.69,244.39Z" transform="translate(-342.814 -233.42)" fill="#ebdaca"/>
        <path id="Trazado_105129" data-name="Trazado 105129" d="M391.949,246.153a62.363,62.363,0,0,0-6.011,14.749c-.729.06-1.448.126-2.176.17-4.047-2.354-6.917-5.893-10.262-8.95,4.563-3.937,9.585-6.342,14.859-6.342A17.569,17.569,0,0,1,391.949,246.153Z" transform="translate(-343.006 -233.626)" fill="#f09a58"/>
        <path id="Trazado_105130" data-name="Trazado 105130" d="M402.125,288.334c-.725.059-1.449.128-2.175.173a19.484,19.484,0,0,0,1.869.965C401.915,289.093,402.024,288.713,402.125,288.334Z" transform="translate(-345.219 -237.186)" fill="#db8d50"/>
        <path id="Trazado_105131" data-name="Trazado 105131" d="M381.048,257.191c-1.123,2.84-2.1,5.705-2.915,8.529,4.75,3.02,9.379,6.758,14.157,6.769q-1.287-3.821-2.733-7.561A75.362,75.362,0,0,1,381.048,257.191Z" transform="translate(-343.394 -234.58)" fill="#db8d50"/>
        <path id="Trazado_105132" data-name="Trazado 105132" d="M356.741,286.007q-4.978.3-9.982.135c-1.973-2.269-4.361-4.352-6.537-6.621.347-.407.7-.8,1.058-1.186q1.512-1.638,3.1-3.065c3.175,2.472,5.723,5.563,8.772,8.163A25.173,25.173,0,0,0,356.741,286.007Z" transform="translate(-340.222 -236.093)" fill="#c78049"/>
        <path id="Trazado_105133" data-name="Trazado 105133" d="M353.248,283.433c-2.278.068-4.573.068-6.867-.009-1.516-1.744-3.277-3.387-5-5.088q1.512-1.638,3.1-3.065C347.651,277.742,350.2,280.833,353.248,283.433Z" transform="translate(-340.319 -236.093)" fill="#db8d50"/>
        <path id="Trazado_105134" data-name="Trazado 105134" d="M403.937,232.516a68.147,68.147,0,0,1-1.846,15.757c-2.337,10.787-8.729,20.363-16.595,25.968a8.5,8.5,0,0,1-1.931.991c-.279-.347-.559-.695-.847-1.034-1.363-1.676-2.768-3.335-4.182-4.945-.051-.06-.1-.11-.153-.17.686.2,1.381.4,2.083.559a31.651,31.651,0,0,0,5.453.838c-3.437-6.858,3.92-11.38,2.371-18.026-1.295-4.4-4.25-6.909-7.772-8.84,3.167-1.058,6.282-2.244,9.322-3.59a18.356,18.356,0,0,0,2.091.263c-.042-.389-.076-.779-.11-1.177a104.092,104.092,0,0,0,9.915-5.25C402.48,233.422,403.208,232.973,403.937,232.516Z" transform="translate(-343.415 -232.516)" fill="#c78049"/>
        <path id="Trazado_105135" data-name="Trazado 105135" d="M401.539,233.985a63.212,63.212,0,0,1-1.8,13.97c-2.337,10.8-8.729,20.372-16.587,25.977-.212.144-.423.271-.635.389a8.131,8.131,0,0,1-1.3.6c-1.684-2.091-3.412-4.148-5.182-6.147.762.22,1.525.432,2.3.6.635.152,1.278.288,1.93.389a31.651,31.651,0,0,0,5.453.838c-3.437-6.858,3.92-11.38,2.371-18.026-1.295-4.4-4.25-6.909-7.772-8.84,3.167-1.058,6.282-2.244,9.322-3.59a18.356,18.356,0,0,0,2.091.263c-.042-.389-.076-.779-.11-1.177A104.092,104.092,0,0,0,401.539,233.985Z" transform="translate(-343.218 -232.639)" fill="#db8d50"/>
        <path id="Trazado_105136" data-name="Trazado 105136" d="M431.669,287.606c-.136,2.167-.38,4.368-.711,6.578a25.248,25.248,0,0,0-6.147,4.463c-1.05,1.2-2.125,2.5-3.2,3.861a72.993,72.993,0,0,0-8.679-2.345c.5-.4,1.008-.788,1.516-1.16,5.224-3.929,10.55-7.019,15.833-10.482C430.746,288.224,431.2,287.919,431.669,287.606Z" transform="translate(-346.305 -237.125)" fill="#c78049"/>
        <path id="Trazado_105137" data-name="Trazado 105137" d="M430.419,288.6c-.127,1.295-.3,2.6-.491,3.9a25.249,25.249,0,0,0-6.147,4.463c-1.05,1.2-2.125,2.5-3.2,3.861-1.965-.652-3.954-1.244-5.995-1.744C419.81,295.157,425.136,292.067,430.419,288.6Z" transform="translate(-346.444 -237.209)" fill="#db8d50"/>
        <path id="Trazado_105138" data-name="Trazado 105138" d="M406.99,302.158c-2.371.72-4.741,1.457-7.087,2.286,0-.737.017-1.456.043-2.167.025-.982.068-1.931.118-2.845a25.524,25.524,0,0,1,1.744-6.4c.127-.3.255-.593.389-.89A92.014,92.014,0,0,1,406.99,302.158Z" transform="translate(-345.215 -237.505)" fill="#c78049"/>
        <path id="Trazado_105139" data-name="Trazado 105139" d="M405.284,300.674c-1.787.542-3.565,1.092-5.334,1.685.025-.982.068-1.931.118-2.845a25.524,25.524,0,0,1,1.744-6.4C403.082,295.568,404.242,298.108,405.284,300.674Z" transform="translate(-345.219 -237.586)" fill="#db8d50"/>
        <path id="Trazado_105140" data-name="Trazado 105140" d="M390.378,290.216c-.347.966-.669,1.922-.974,2.9q-2.87.774-5.791,1.4c.279-.7.551-1.4.822-2.1.77-2,1.532-4.005,2.311-5.986a42.469,42.469,0,0,1,3.159,3.243C390.057,289.844,390.217,290.03,390.378,290.216Z" transform="translate(-343.852 -237.026)" fill="#c78049"/>
        <path id="Trazado_105141" data-name="Trazado 105141" d="M389.98,289.666c-.178.508-.339,1.007-.5,1.516q-2.463.674-4.969,1.228c.77-2,1.532-4.005,2.311-5.986A42.469,42.469,0,0,1,389.98,289.666Z" transform="translate(-343.927 -237.026)" fill="#db8d50"/>
        <path id="Trazado_105142" data-name="Trazado 105142" d="M419.935,237.432c-3.683,11.524-4.555,23.741-4.5,36.12-4.81-1.43-9.9-3.293-14.395-2.794-2.54.847.847,6.774,0,11.007-3.387-1.693-4.233-7.62-6.774-7.62-3.861.771-6.307,7.163-11.193,7.019-.847-3.133-1.8-6.232-2.82-9.3.178,0,.356-.009.533-.017a8.3,8.3,0,0,0,1.626-.246c9.314-2.54,18.627-9.314,24.554-18.627a67.906,67.906,0,0,0,7.18-14.14c1.084-.229,2.168-.483,3.251-.745C418.25,237.881,419.1,237.66,419.935,237.432Z" transform="translate(-343.572 -232.927)" fill="#c78049"/>
        <path id="Trazado_105143" data-name="Trazado 105143" d="M417.452,238.153c-2.4,9.881-3.014,20.193-2.963,30.625-4.809-1.44-9.9-3.3-14.4-2.794-2.54.847.847,6.774,0,11.007-3.387-1.693-4.233-7.62-6.774-7.62-3.852.771-6.308,7.155-11.193,7.011-.4-1.49-.83-2.981-1.279-4.471a8.3,8.3,0,0,0,1.626-.246c9.314-2.54,18.627-9.314,24.554-18.627a67.906,67.906,0,0,0,7.18-14.14C415.285,238.669,416.369,238.415,417.452,238.153Z" transform="translate(-343.62 -232.988)" fill="#db8d50"/>
        <path id="Trazado_105144" data-name="Trazado 105144" d="M408.207,252.2c-.349.958-.672,1.922-.98,2.889q1.355-.371,2.7-.775C409.363,253.587,408.791,252.878,408.207,252.2Z" transform="translate(-345.828 -234.163)" fill="#db8d50"/>
        <path id="Trazado_105145" data-name="Trazado 105145" d="M448.449,273.539c7.836-.34,15.031.5,22.544.752q1.351-1.648,2.549-3.335-.771-1.172-1.511-2.368c-12.1-.251-24.056,2.384-35.909,5.965-.006,3.478.146,6.772,1.266,9.331a7.716,7.716,0,0,0,2.188,2.454,71.078,71.078,0,0,1,14.547-5.827A71.409,71.409,0,0,0,448.449,273.539Z" transform="translate(-348.245 -235.533)" fill="#c78049"/>
        <path id="Trazado_105146" data-name="Trazado 105146" d="M427.92,242.392a63.412,63.412,0,0,0-5.359,10.781,121.4,121.4,0,0,1,11.348-8.356,36.787,36.787,0,0,1-2.333-6.188A15.935,15.935,0,0,0,427.92,242.392Z" transform="translate(-347.111 -233.027)" fill="#db8d50"/>
        <path id="Trazado_105147" data-name="Trazado 105147" d="M407.8,270.3a24.428,24.428,0,0,0-9.907,4.351,36.758,36.758,0,0,0,2.333,6.188c2.847-1.866,5.692-3.594,8.436-5.151C408.462,273.956,408.169,272.15,407.8,270.3Z" transform="translate(-345.047 -235.677)" fill="#db8d50"/>
        <path id="Trazado_105148" data-name="Trazado 105148" d="M398.452,275.893c.8-1.188,1.674-2.355,2.6-3.5a59.222,59.222,0,0,1-9.381-1C393.891,272.932,396.142,274.442,398.452,275.893Z" transform="translate(-344.526 -235.769)" fill="#db8d50"/>
        <path id="Trazado_105149" data-name="Trazado 105149" d="M437.549,269.02a69.887,69.887,0,0,0-7.163,7.579,59.826,59.826,0,0,1-9.381-1c-4.835-3.345-9.525-6.816-14.318-10.152-.4-2-.838-4-1.33-5.977q-.381-1.537-.787-3.074c4.877.145,7.332-6.239,11.185-7.01,2.54,0,3.387,5.927,6.774,7.62.847-4.233-2.54-10.16,0-11.007,4.022-.449,8.517.982,12.853,2.319.517.161,1.034.323,1.55.475C436.964,255.515,437.269,262.281,437.549,269.02Z" transform="translate(-345.606 -233.637)" fill="#c78049"/>
        <path id="Trazado_105150" data-name="Trazado 105150" d="M435.914,262.831a71.507,71.507,0,0,0-7.163,7.57,58.95,58.95,0,0,1-9.381-.991c-4.734-3.278-9.323-6.673-14.014-9.94q-.381-1.537-.787-3.074c4.877.145,7.332-6.239,11.185-7.01,2.54,0,3.387,5.927,6.774,7.62.847-4.233-2.54-10.16,0-11.007,4.022-.449,8.517.982,12.853,2.319C435.5,253.154,435.712,258.005,435.914,262.831Z" transform="translate(-345.606 -233.637)" fill="#db8d50"/>
        <path id="Trazado_105151" data-name="Trazado 105151" d="M427.559,237.061c-2.772.346-5.973-.445-9.306-1.44.034,6.722.336,13.494.615,20.232q1.623-1.5,3.333-2.931a63.411,63.411,0,0,1,5.359-10.781,15.935,15.935,0,0,1,3.656-3.763q-.379-1.343-.681-2.718A7.726,7.726,0,0,1,427.559,237.061Z" transform="translate(-346.75 -232.776)" fill="#c78049"/>
        <path id="Trazado_105152" data-name="Trazado 105152" d="M452.635,260.228c-4.19,3.659-8.251,7.466-12.405,8.259q-.331,1.368-.58,2.741a24.43,24.43,0,0,1,10.813.433A87.748,87.748,0,0,0,452.635,260.228Z" transform="translate(-348.541 -234.835)" fill="#ebdaca"/>
        <path id="Trazado_105153" data-name="Trazado 105153" d="M428.881,282.775A32.924,32.924,0,0,0,442.3,283.85a38.273,38.273,0,0,0,7.214-10c-6.412.13-12.7,1.058-19.228,1.33Q429.425,278.932,428.881,282.775Z" transform="translate(-347.64 -235.974)" fill="#f09a58"/>
        <path id="Trazado_105154" data-name="Trazado 105154" d="M382.78,268.162a38.07,38.07,0,0,0,1.057-8.928,48.328,48.328,0,0,0-.334-5.461c-2.743,1.557-5.589,3.285-8.436,5.151A23.316,23.316,0,0,0,382.78,268.162Z" transform="translate(-343.137 -234.294)" fill="#c78049"/>
        <path id="Trazado_105155" data-name="Trazado 105155" d="M442.1,261.625a121.4,121.4,0,0,0-11.348,8.356,75.034,75.034,0,0,0-3.121,10.309c6.528-.272,12.817-1.2,19.227-1.331a37.989,37.989,0,0,0,2.955-8.1A23.315,23.315,0,0,1,442.1,261.625Z" transform="translate(-347.535 -234.951)" fill="#db8d50"/>
        <path id="Trazado_105156" data-name="Trazado 105156" d="M398.637,280.983c-.924,1.149-1.8,2.316-2.6,3.5.782.491,1.565.98,2.361,1.457a36.855,36.855,0,0,0,6.2,2.437q.544-3.839,1.4-7.6c-1.118.047-2.24.079-3.374.079C401.3,280.97,399.969,281.006,398.637,280.983Z" transform="translate(-344.892 -236.554)" fill="#ebdaca"/>
        <path id="Trazado_105157" data-name="Trazado 105157" d="M418.5,277.909c1.331.023,2.664-.013,4-.119,1.133,0,2.257-.032,3.374-.079a75.065,75.065,0,0,1,3.121-10.309A76.508,76.508,0,0,0,418.5,277.909Z" transform="translate(-346.771 -235.435)" fill="#db8d50"/>
      </g>
    </g>
    <g id="Grupo_54682" data-name="Grupo 54682" transform="translate(996.719 3337.467)">
      <ellipse id="Elipse_4071" data-name="Elipse 4071" cx="35.216" cy="20.332" rx="35.216" ry="20.332" transform="translate(55.88 41.76)" opacity="0.2" fill="url(#radial-gradient-2)" style="mix-blend-mode: multiply;isolation: isolate"/>
      <g id="Grupo_54681" data-name="Grupo 54681" transform="translate(0 0)">
        <g id="Grupo_54678" data-name="Grupo 54678" transform="translate(45.154)">
          <path id="Trazado_105158" data-name="Trazado 105158" d="M305.262,98.764c-2.2,8.323-6.224,15.087-12.54,18.212-13.064,6.452-32.513-4.327-46.348-17.84C262.961,108.112,288.946,107.984,305.262,98.764Z" transform="translate(-235.063 -41.527)" fill="#f9cf9f"/>
          <path id="Trazado_105159" data-name="Trazado 105159" d="M302.183,48.062l-6.808,12.514L287.01,75.952l-31.235,7.832L246.648,78.3l-12.616-7.6,3.928-7.366,3.6-7.612,11.211-3.4,6.409-9.009,11.812-1.2L278.6,36.3l11.219,9.364,6.4-3.353Z" transform="translate(-234.03 -36.301)" fill="#d7b595"/>
          <path id="Trazado_105160" data-name="Trazado 105160" d="M296.527,62.245l-8.365,15.377-31.235,7.831L247.8,79.967l1.736-3.666a5.2,5.2,0,0,1,3.192-2.752l7.308-2.218a5.149,5.149,0,0,0,2.726-1.965l4.014-5.639a5.228,5.228,0,0,1,3.717-2.159l8-.813a5.234,5.234,0,0,0,2.634-1.042l3.133-2.4a5.206,5.206,0,0,1,6.494.144l5.35,4.47A4.893,4.893,0,0,0,296.527,62.245Z" transform="translate(-235.182 -37.97)" fill="#c7a587"/>
          <path id="Trazado_105161" data-name="Trazado 105161" d="M304.229,94.612c-16.316,9.22-42.3,9.348-58.888.372-2.209-2.159-4.284-4.386-6.155-6.621l1.058-1.566L234.03,71.776l8.7,5.232c.093.051,8.848-1.219,8.848-1.219l7.6,3.835,11.015-10.211,12.217,5.106,3.175-6.182h6.148l3.641-6.688,2.752-5.055,4.056-7.459a76.887,76.887,0,0,1,2.667,10.677C306.9,71.115,307.007,84.1,304.229,94.612Z" transform="translate(-234.03 -37.375)" fill="#ffdbb7"/>
        </g>
        <g id="Grupo_54680" data-name="Grupo 54680" transform="translate(0 40.906)">
          <path id="Trazado_105162" data-name="Trazado 105162" d="M259.178,100.407l-1.008,6-4.208,25.028-34.7,6.283-28.076-11.168-2.294-7.4-3.573-11.49,7.442-7.256,8.061-7.984,1.55-11.481h9.949L222.4,87.732l8.738-4.589,5.478,6.317,8.518,4.843,5.055-6.57Z" transform="translate(-184.801 -80.942)" fill="#d7b595"/>
          <path id="Trazado_105163" data-name="Trazado 105163" d="M258.5,107.777l-4.208,25.028-34.7,6.283L191.514,127.92l-2.294-7.4,2.083-2.032a1.936,1.936,0,0,1,3.031.423,1.891,1.891,0,0,0,1.668.965,1.921,1.921,0,0,0,1.905-1.507l4.445-19.576a1.947,1.947,0,0,1,1.9-1.516h7.807a1.914,1.914,0,0,1,1.084.339l8.619,5.809a1.952,1.952,0,0,0,1.989.11l6.35-3.336a1.956,1.956,0,0,1,2.371.449l4.25,4.9a2.035,2.035,0,0,0,.508.415l7.544,4.284a1.926,1.926,0,0,0,1.448.2l10.855-2.837A1.945,1.945,0,0,1,258.5,107.777Z" transform="translate(-185.127 -82.309)" fill="#c7a587"/>
          <path id="Trazado_105164" data-name="Trazado 105164" d="M261.05,116.333c0,.661-.017,1.312-.051,1.965v.008A38.148,38.148,0,0,1,184.8,118.3c-.034-.652-.051-1.3-.051-1.965a50.535,50.535,0,0,1,.517-6.892l9.966-.212,7.409,10.592,9.118,5.19L222.9,112.3l10.728,9.847,11.117-.533,11.659-2.278,1.083-16.223,1.643-.931A60.8,60.8,0,0,1,261.05,116.333Z" transform="translate(-184.753 -82.719)" fill="#ffe5cd"/>
          <path id="Trazado_105165" data-name="Trazado 105165" d="M261,118.652v.008a38.148,38.148,0,0,1-76.194-.008c.068-1.583.228-3.252.465-4.979l9.966-.212,7.409,10.593,9.118,5.19L222.9,116.535l10.728,9.847,11.117-.533,11.659-2.278,1.083-16.223,1.643-.931A63.653,63.653,0,0,1,261,118.652Z" transform="translate(-184.758 -83.073)" fill="#ffdbb7"/>
          <g id="Grupo_54679" data-name="Grupo 54679" transform="translate(25.939 33.133)">
            <path id="Trazado_105166" data-name="Trazado 105166" d="M215.024,117.1c.042,3.082-.154,6.143-.414,9.2l-.015-.155c.458,1.568.893,3.144,1.288,4.731.2.793.386,1.59.565,2.388.159.8.346,1.6.48,2.414-.323-.757-.592-1.529-.889-2.294-.277-.771-.547-1.543-.8-2.319-.518-1.551-1-3.115-1.449-4.684l-.023-.078.007-.078C214.067,123.17,214.426,120.124,215.024,117.1Z" transform="translate(-213.119 -117.1)" fill="#c7a587"/>
            <path id="Trazado_105167" data-name="Trazado 105167" d="M214.895,129.955a4.194,4.194,0,0,1-.546,1.893,4.147,4.147,0,0,1-1.288,1.49,4.145,4.145,0,0,1,.545-1.893A4.2,4.2,0,0,1,214.895,129.955Z" transform="translate(-213.06 -118.176)" fill="#c7a587"/>
            <path id="Trazado_105168" data-name="Trazado 105168" d="M240.241,117.1c.794,1.872,1.509,3.772,2.206,5.677s1.358,3.821,2,5.743l.047.141-.054.142c-.775,2.016-1.567,4.026-2.41,6.016l-1.276,2.981c-.455.982-.882,1.976-1.363,2.948.3-1.044.644-2.067.966-3.1l1.051-3.068c.71-2.042,1.471-4.063,2.248-6.079l-.007.283c-.624-1.929-1.247-3.859-1.807-5.809S240.716,119.077,240.241,117.1Z" transform="translate(-215.263 -117.1)" fill="#c7a587"/>
            <path id="Trazado_105169" data-name="Trazado 105169" d="M243.954,129.706a10.959,10.959,0,0,1-5.715,1.92,9.706,9.706,0,0,1,2.722-1.361A9.811,9.811,0,0,1,243.954,129.706Z" transform="translate(-215.167 -118.155)" fill="#c7a587"/>
            <path id="Trazado_105170" data-name="Trazado 105170" d="M251.175,120.332c.324.507.655.98.947,1.485s.568,1.013.829,1.531a14.032,14.032,0,0,1,1.188,3.31,12.041,12.041,0,0,1-1.949-2.94,14.042,14.042,0,0,1-.666-1.628A5.516,5.516,0,0,1,251.175,120.332Z" transform="translate(-216.249 -117.37)" fill="#c7a587"/>
          </g>
          <path id="Trazado_105171" data-name="Trazado 105171" d="M253.307,136.071a34.928,34.928,0,0,0,5.665-4.022,38.167,38.167,0,0,1-71.064,1.354,36.666,36.666,0,0,0,4.014,2.667C208.873,145.858,236.356,145.858,253.307,136.071Z" transform="translate(-185.017 -85.218)" fill="#f9cf9f"/>
        </g>
        <path id="Trazado_105172" data-name="Trazado 105172" d="M264.1,147.818,270.754,144l.932,5.715Z" transform="translate(-191.391 -45.312)" fill="#efcda9"/>
        <path id="Trazado_105173" data-name="Trazado 105173" d="M271.7,132.8l7.114,3.526-8.354,1.425-5.893-.473Z" transform="translate(-191.43 -44.375)" fill="#efcda9"/>
        <path id="Trazado_105174" data-name="Trazado 105174" d="M274.074,125.027l.96,2.833-3.39.36Z" transform="translate(-192.023 -43.724)" fill="#efcda9"/>
      </g>
    </g>
    <g id="Grupo_54689" data-name="Grupo 54689" transform="translate(1026.814 3421.848)">
      <g id="Grupo_54685" data-name="Grupo 54685" transform="translate(0 0)">
        <path id="Trazado_105175" data-name="Trazado 105175" d="M293.268,294.794c-2.506,4.513-17.061,4.759-16.3,11.278S286,318.1,279.983,324.615s-44.858,4.014-46.356-5.259-14.479-9.28-19.017-12.285,1.727-9.018,8.737-11.278,1.008-8.975,1.254-11.506,18.7-7.256,18.7-7.256l1.55-7.044s1.354.432,3.369.982a77.7,77.7,0,0,0,9.441,2.074c3.015.432,5.681.466,6.807-.414,3.285-2.574-1.109,4.6-1.109,4.6s11.752,7.544,17.7,8.551S295.774,290.281,293.268,294.794Z" transform="translate(-175.65 -204.911)" fill="#f6f6f6"/>
        <g id="Grupo_54683" data-name="Grupo 54683" transform="translate(0.004 2.377)">
          <path id="Trazado_105176" data-name="Trazado 105176" d="M212.755,201.566l14.682,11.555.77,9.865,10.548,8.069v16.59l6.231,7.918,2.716,2.378-4.918,13.368-35.917-32.35.918-28.431Z" transform="translate(-175.135 -201.563)" fill="#d7b595"/>
          <path id="Trazado_105177" data-name="Trazado 105177" d="M210.76,208.283l8.814,6.937a4.63,4.63,0,0,1,1.752,3.278l.451,5.781a4.628,4.628,0,0,0,1.8,3.316l7.089,5.423a4.63,4.63,0,0,1,1.817,3.677v12.7a4.629,4.629,0,0,0,.991,2.863l4.975,6.321a4.58,4.58,0,0,0,.587.619h0a4.63,4.63,0,0,1,1.295,5.081l-1.458,3.964a4.629,4.629,0,0,1-7.443,1.841L202.2,243.75a4.629,4.629,0,0,1-1.529-3.588L201.481,215a4.623,4.623,0,0,1,.578-2.1l1.79-3.226A4.63,4.63,0,0,1,210.76,208.283Z" transform="translate(-174.616 -202.042)" fill="#c7a587"/>
          <path id="Trazado_105178" data-name="Trazado 105178" d="M239.887,271.305c-20.524,6.647-58.787,4.454-66.322-14.105a18.023,18.023,0,0,1-1.193-4.793c-2.058-17.839,19.939-41.538,37.484-50.844l1,2.295-2.667,4.047,6.528,3.335.737,14.547,12.776,13.36,1.355,15.029.364.365,9.745,9.669Z" transform="translate(-172.237 -201.563)" fill="#f9cf9f"/>
        </g>
        <g id="Grupo_54684" data-name="Grupo 54684" transform="translate(83.425)">
          <path id="Trazado_105179" data-name="Trazado 105179" d="M299.065,221.608l-3.217,34.656-19.627,10.423-8.654,4.6s.982-6.071,1.211-6.993-2.524-7.8-2.524-7.8l4.361-11.846-7.341-6.714,4.292-9.195,3.277-7.045-5.732-6.554s13.759-6.6,13.987-7.281,2.294-6.511,2.294-6.511l9.323-2.371,1.583,4.3Z" transform="translate(-263.275 -198.97)" fill="#d7b595"/>
          <path id="Trazado_105180" data-name="Trazado 105180" d="M299.812,222l-3.217,34.656-19.627,10.423a47.761,47.761,0,0,0-2.058-6.215,3.341,3.341,0,0,1-.017-2.379l3.133-8.51a3.4,3.4,0,0,0-.9-3.675l-3.827-3.5a3.4,3.4,0,0,1-.787-3.928l3.242-6.943,2.346-5.046a3.383,3.383,0,0,0-.517-3.658l-1.363-1.558a3.384,3.384,0,0,1,1.058-5.266c4.09-2.007,9.863-4.911,10.016-5.351s1.058-3.031,1.685-4.8a3.387,3.387,0,0,1,2.362-2.151l1.7-.432Z" transform="translate(-264.022 -199.362)" fill="#c7a587"/>
          <path id="Trazado_105181" data-name="Trazado 105181" d="M319.412,248.729c-.364,1.05-.762,2.084-1.21,3.083a38.142,38.142,0,0,1-47.254,20.626c-.973-.331-1.973-.719-3-1.152l4.513-5.478-.338-4.691-.017-.237-.466-6.342-.212-2.938,3.107-4.293.246-.338,5.5-7.586-.008-.229-.017-.389-.8-17-.025-.465-.017-.381,6.833-8.7.406-.517,1.761-2.243-2.734-6.8,4.673-1.3.754-2.387a47.115,47.115,0,0,1,4.605,1.3A38.15,38.15,0,0,1,319.412,248.729Z" transform="translate(-263.666 -198.969)" fill="#f9cf9f"/>
        </g>
        <path id="Trazado_105182" data-name="Trazado 105182" d="M212.445,284.673l-8.678,4.061,8.678,4.4,1.385-7.221Z" transform="translate(-174.872 -206.139)" fill="#ffdbb7"/>
        <path id="Trazado_105183" data-name="Trazado 105183" d="M201.186,282.457l4.061,1.015-2.031,1.861Z" transform="translate(-174.656 -205.954)" fill="#ffdbb7"/>
        <path id="Trazado_105184" data-name="Trazado 105184" d="M275.241,299.66c-5.012,2.319-6.012,15.968-18.543,18.474s-26.281-4.462-32.827-12.776,9.271-6.265,7.519-11.024,4.005-6.765,11.041-9.509c3.534-1.371,5.226-3.379,6.023-5.383a4.633,4.633,0,0,1,4.751-2.985l.418.04a4.665,4.665,0,0,1,4.208,4.794,32.219,32.219,0,0,0,.12,3.533C258.45,291.117,280.253,297.34,275.241,299.66Z" transform="translate(-176.42 -205.45)" fill="#fff9f5"/>
        <path id="Trazado_105200" data-name="Trazado 105200" d="M17.551,0C27.244,0,35.1,4.537,35.1,10.133S27.244,20.266,17.551,20.266,0,15.729,0,10.133,7.858,0,17.551,0Z" transform="translate(55.02 85.257)" fill="#f1d54e"/>
        <path id="Trazado_105185" data-name="Trazado 105185" d="M319.73,248.729c-.364,1.05-.762,2.084-1.21,3.083a80.514,80.514,0,0,1-32.8,4.665c-.339-.008-.677-.034-1.016-.068a81.6,81.6,0,0,1-12.743-1.871l-.212-2.938,3.107-4.293.246-.338,5.5-7.586-.008-.229-.017-.389-.8-17-.025-.465-.017-.381,6.833-8.7.406-.517,1.761-2.243-2.734-6.8,4.673-1.3.754-2.387a47.115,47.115,0,0,1,4.605,1.3A38.15,38.15,0,0,1,319.73,248.729Z" transform="translate(-180.559 -198.969)" fill="#ffdbb7"/>
        <path id="Trazado_105186" data-name="Trazado 105186" d="M229.944,254.543c-1.092.356-2.21.695-3.336,1-1.9.517-3.818.974-5.791,1.347h-.008c-16.113,3.124-34.326,1.634-48.44-4.479-2.057-17.84,19.939-41.539,37.484-50.845l1,2.294-2.667,4.047,6.528,3.336.584,11.54.043.8.11,2.21,2.734,2.862.373.389,8.737,9.136.246.254.686.72,1.126,12.471.042.449.186,2.108Z" transform="translate(-172.233 -199.186)" fill="#ffdbb7"/>
      </g>
      <path id="Trazado_105187" data-name="Trazado 105187" d="M282.8,226.288l9-1.461Z" transform="translate(-181.484 -201.132)" fill="#ffe5cd"/>
      <path id="Trazado_105188" data-name="Trazado 105188" d="M215.652,226.421l-3.869,6.168Z" transform="translate(-175.542 -201.266)" fill="#ffe5cd"/>
      <g id="Grupo_54686" data-name="Grupo 54686" transform="translate(36.238 21.481)">
        <path id="Trazado_105189" data-name="Trazado 105189" d="M222.444,231.513c-.246.178-.491.347-.737.517-.652.423-1.312.829-1.989,1.21a25.062,25.062,0,0,1-.94,4.429,23.838,23.838,0,0,1,.136-4.733l.016-.212.2-.111c.728-.414,1.482-.813,2.252-1.177.228-.11.457-.212.694-.313Z" transform="translate(-212.36 -223.14)" fill="#c7a587"/>
        <path id="Trazado_105190" data-name="Trazado 105190" d="M218.647,225.323c-.94.407-1.88.8-2.845,1.144l-.254.093-.178-.178a38.177,38.177,0,0,1-3.59-3.97,36.919,36.919,0,0,1,3.954,3.2c.94-.389,1.905-.746,2.87-1.084Z" transform="translate(-211.78 -222.411)" fill="#c7a587"/>
        <path id="Trazado_105191" data-name="Trazado 105191" d="M231.272,241.773c-.3.788-.609,1.575-.931,2.354-.593,1.44-1.2,2.862-1.846,4.267l-.085.186-.194.051c-3.751.9-7.528,1.719-11.363,2.243,3.3-1.117,6.664-2,10.05-2.794.262-.059.524-.126.8-.186.042-.008.093-.026.136-.034.627-1.338,1.278-2.676,1.947-3.988.407-.787.813-1.575,1.244-2.354Z" transform="translate(-212.204 -224.01)" fill="#c7a587"/>
        <path id="Trazado_105192" data-name="Trazado 105192" d="M228.678,248.655a9.238,9.238,0,0,1-5.156-1.989,8.183,8.183,0,0,1,2.73.6A8.31,8.31,0,0,1,228.678,248.655Z" transform="translate(-212.762 -224.44)" fill="#c7a587"/>
        <path id="Trazado_105193" data-name="Trazado 105193" d="M234.5,255.1a64.751,64.751,0,0,1-4.216,5.376l-.073.084-.116.037a73.928,73.928,0,0,1-9.334,2.356,73.739,73.739,0,0,1,9.1-3.141l-.19.121A65.121,65.121,0,0,1,234.5,255.1Z" transform="translate(-212.531 -225.146)" fill="#c7a587"/>
      </g>
      <g id="Grupo_54688" data-name="Grupo 54688" transform="translate(91.866 12.725)">
        <g id="Grupo_54687" data-name="Grupo 54687">
          <path id="Trazado_105194" data-name="Trazado 105194" d="M294.33,240.771c-1.43.618-2.9,1.143-4.377,1.617-.737.236-1.473.465-2.227.677-.737.228-1.49.415-2.235.627l-.1.025-.093-.025c-1.312-.305-2.616-.644-3.9-1.042l-.017-.389c1.338.161,2.658.373,3.971.619a1.156,1.156,0,0,0,.16-.043c.136-.042.263-.076.4-.118.534-.152,1.058-.313,1.6-.449.745-.212,1.5-.406,2.252-.584C291.265,241.313,292.79,241,294.33,240.771Z" transform="translate(-273.231 -215.192)" fill="#c7a587"/>
          <path id="Trazado_105195" data-name="Trazado 105195" d="M293.155,229.837a70.769,70.769,0,0,1-7.079.407H285.9l-.126-.136c-1.11-1.21-2.176-2.447-3.226-3.708-.516-.635-1.033-1.27-1.532-1.922-.17-.228-.339-.448-.509-.677l-.025-.465c.3.279.584.559.881.838.584.575,1.151,1.16,1.727,1.752,1.083,1.144,2.151,2.312,3.175,3.506A67.359,67.359,0,0,1,293.155,229.837Z" transform="translate(-273.156 -213.733)" fill="#c7a587"/>
          <path id="Trazado_105196" data-name="Trazado 105196" d="M294.878,218.631a35.185,35.185,0,0,1-4.741-3.319c-.754-.627-1.5-1.262-2.218-1.939l.406-.517c.8.576,1.583,1.177,2.346,1.8A34.548,34.548,0,0,1,294.878,218.631Z" transform="translate(-273.778 -212.856)" fill="#c7a587"/>
          <path id="Trazado_105197" data-name="Trazado 105197" d="M290.5,253.16c-.635-.508-1.236-1.041-1.845-1.566-.551-.474-1.092-.974-1.626-1.448-1.236.728-2.481,1.414-3.742,2.091-1.321.711-2.658,1.4-4,2.075l-.212.11-.187-.126c-1.024-.72-2.023-1.473-3.022-2.21-.246-.178-.491-.364-.728-.559l.246-.338c.254.152.517.312.771.474.991.609,1.989,1.22,2.963,1.863q1.867-1.042,3.776-2.024c1.33-.685,2.667-1.363,4.03-2l.212-.1.144.152c.542.593,1.1,1.177,1.635,1.779S289.982,252.534,290.5,253.16Z" transform="translate(-272.709 -215.914)" fill="#c7a587"/>
          <path id="Trazado_105198" data-name="Trazado 105198" d="M288.058,260.175c-.712.482-1.457.923-2.185,1.372-.034.016-.06.034-.093.05-.711.415-1.431.821-2.142,1.22-1.506.821-3.022,1.626-4.563,2.371l-.06.026-.05.017c-2.142.407-4.285.771-6.46,1.008l-.017-.237c2.066-.619,4.157-1.118,6.258-1.567,1.5-.8,3.03-1.532,4.572-2.251.483-.221.965-.441,1.448-.652.3-.136.6-.262.9-.389C286.457,260.81,287.254,260.471,288.058,260.175Z" transform="translate(-272.487 -216.815)" fill="#c7a587"/>
        </g>
        <path id="Trazado_105199" data-name="Trazado 105199" d="M285.743,242.974a13.032,13.032,0,0,1,1.346-3.248,12.854,12.854,0,0,1,2.082-2.833,12.9,12.9,0,0,1-1.345,3.248A13.052,13.052,0,0,1,285.743,242.974Z" transform="translate(-273.596 -214.867)" fill="#c7a587"/>
      </g>
    </g>
  </g>
</svg>
