<svg xmlns="http://www.w3.org/2000/svg" width="82.261" height="82" viewBox="0 0 82.261 82">
  <g id="Grupo_82781" data-name="Grupo 82781" transform="translate(-373.604 -4914.293)">
    <g id="certificacion" transform="translate(373.604 4914.293)">
      <path id="Trazado_105223" data-name="Trazado 105223" d="M39.367,0A39.367,39.367,0,1,1,0,39.367,39.367,39.367,0,0,1,39.367,0Z" transform="translate(1.633 1.633)" fill="#26e690"/>
      <circle id="Elipse_4073" data-name="Elipse 4073" cx="31.036" cy="31.036" r="31.036" transform="translate(9.964 9.964)" fill="#eaf7d7"/>
      <path id="Trazado_105216" data-name="Trazado 105216" d="M46.778,51.057A13.02,13.02,0,0,1,28.365,32.644c10.56-10.56,33.45-.071,33.45-.071S51.862,45.972,46.778,51.057Z" fill="#26e690"/>
      <g id="Grupo_54697" data-name="Grupo 54697">
        <path id="Trazado_105217" data-name="Trazado 105217" d="M69.991,12.009A41,41,0,1,0,12.009,69.991,41,41,0,1,0,69.991,12.009ZM41,78.733A37.733,37.733,0,1,1,78.733,41,37.776,37.776,0,0,1,41,78.733Z" fill="#333"/>
        <path id="Trazado_105218" data-name="Trazado 105218" d="M41,8.331A32.669,32.669,0,1,0,73.669,41,32.706,32.706,0,0,0,41,8.331ZM41,70.4A29.4,29.4,0,1,1,70.4,41,29.436,29.436,0,0,1,41,70.4Z" fill="#333"/>
        <path id="Trazado_105219" data-name="Trazado 105219" d="M63.4,32.167a1.633,1.633,0,0,0-.9-1.079,61.925,61.925,0,0,0-13.149-4.046,36.5,36.5,0,0,0-11.524-.483,18.077,18.077,0,0,0-10.613,4.929A14.659,14.659,0,0,0,25.1,49.553a34.741,34.741,0,0,0-2.686,4.407,1.633,1.633,0,1,0,2.917,1.471,30.165,30.165,0,0,1,1.893-3.2,14.653,14.653,0,0,0,20.707-.016C53.044,47.1,62.717,34.1,63.127,33.547A1.635,1.635,0,0,0,63.4,32.167ZM45.623,49.9h0a11.387,11.387,0,1,1-16.1-16.1c3.17-3.17,7.654-4.236,12.252-4.236a48.138,48.138,0,0,1,14.257,2.575,68.477,68.477,0,0,0-12.742,3.923,1.634,1.634,0,1,0,1.319,2.989A68.154,68.154,0,0,1,57.856,35.1C54.563,39.408,48.97,46.555,45.623,49.9Z" fill="#333"/>
        <path id="Trazado_105220" data-name="Trazado 105220" d="M38.738,38.524a16.489,16.489,0,0,0-2.21,1.777A1.633,1.633,0,1,0,38.8,42.645a13.218,13.218,0,0,1,1.771-1.419,1.634,1.634,0,0,0-1.836-2.7Z" fill="#333"/>
        <path id="Trazado_105221" data-name="Trazado 105221" d="M41,17.151a24.027,24.027,0,0,1,4.894.5,1.633,1.633,0,1,0,.667-3.2A27.289,27.289,0,0,0,41,13.884a1.633,1.633,0,0,0,0,3.267Z" fill="#333"/>
        <path id="Trazado_105222" data-name="Trazado 105222" d="M34.425,18.069a1.633,1.633,0,1,0-.9-3.141,27.309,27.309,0,0,0-14.074,9.608A26.868,26.868,0,0,0,13.884,41a1.633,1.633,0,1,0,3.267,0A23.947,23.947,0,0,1,34.425,18.069Z" fill="#333"/>
      </g>
    </g>
    <g id="hen" transform="translate(411.358 4947.848)">
      <path id="Trazado_104401" data-name="Trazado 104401" d="M9.046,182.205a31.591,31.591,0,0,0,.157-6.717s4.609,3.22,3.094,5.6a3.045,3.045,0,0,1-3.258,1.16C9.042,182.236,9.044,182.221,9.046,182.205Zm0,0" transform="translate(30.842 -159.036)" fill="#ff4755"/>
      <path id="Trazado_104402" data-name="Trazado 104402" d="M9.267,210.562a2.984,2.984,0,0,0,2.958-1.074A2.326,2.326,0,0,1,12.3,211.9a3.046,3.046,0,0,1-3.258,1.159l.006-.046Q9.2,211.72,9.267,210.562Zm0,0" transform="translate(30.837 -189.848)" fill="#fc2b3a"/>
      <path id="Trazado_104403" data-name="Trazado 104403" d="M12.3,128.754c2.5.692,4.266,1.332,4.108,2.5-.145,1.073-2.179,1.67-3.084,1.883A15.172,15.172,0,0,0,12.3,128.754Zm0,0" transform="translate(26.721 -116.683)" fill="#ffa812"/>
      <path id="Trazado_104404" data-name="Trazado 104404" d="M14.836,141.938c.552.354.842.759.774,1.262-.145,1.073-2.179,1.67-3.084,1.883q-.084-.859-.225-1.611C13.217,143.213,14.528,142.716,14.836,141.938Zm0,0" transform="translate(27.519 -128.63)" fill="#ff9a00"/>
      <path id="Trazado_104405" data-name="Trazado 104405" d="M71.93,16.248a6.411,6.411,0,0,0-3.283-1.038c-2.8-.067-4.319.96-5.318,2.451-.859-.453-2.62-1.585-2.085-3.041.761-2.07,2.845-.858,2.845-.858a2.075,2.075,0,0,1,.7-2.42,2.893,2.893,0,0,1,2.9-.06c.4-3.038,4.669-3.7,6.314-.535C75.312,13.263,72.822,15.541,71.93,16.248Zm0,0" transform="translate(-35.816 -7.852)" fill="#ff4755"/>
      <path id="Trazado_104406" data-name="Trazado 104406" d="M72.08,62.388a5.519,5.519,0,0,1-1.759-1.376,8.933,8.933,0,0,1,5.792-2.967,11.151,11.151,0,0,1,6.155,1.283,8.382,8.382,0,0,1-1.586,1.646A6.41,6.41,0,0,0,77.4,59.937C74.6,59.87,73.079,60.9,72.08,62.388Zm0,0" transform="translate(-44.567 -52.58)" fill="#fc2b3a"/>
      <path id="Trazado_104407" data-name="Trazado 104407" d="M76.127,78.45c1.288.031,8.839.684,7.057,15.812-1.563,13.273-10.947,17.468-18.3,17.446-10.68-.033-24-9.006-20.1-23.126,0,0,1.18-5.247,5.246-5.021s3.934,8.222,12.708,7.342C71.649,90.011,66.845,78.226,76.127,78.45Zm0,0" transform="translate(-43.296 -71.092)" fill="#f1d54e"/>
      <path id="Trazado_104408" data-name="Trazado 104408" d="M64.891,208.547c7.348.023,16.732-4.173,18.3-17.446.126-1.073.2-2.071.242-3a34.145,34.145,0,0,1-.242,5.535c-1.563,13.273-10.947,17.468-18.3,17.446-9.728-.03-21.641-7.477-20.742-19.473C44.962,202.108,55.867,208.519,64.891,208.547Zm0,0" transform="translate(-43.298 -170.463)" fill="#baa53d"/>
      <path id="Trazado_104409" data-name="Trazado 104409" d="M64.454,329.681a22.853,22.853,0,0,0,13.775,4.95h.058a18.256,18.256,0,0,0,8.4-2.011,16.094,16.094,0,0,0,6.975-7.1.706.706,0,1,1,1.258.643,17.482,17.482,0,0,1-7.578,7.714,19.079,19.079,0,0,1-5.676,1.889v3.9l3.411-1.186a.706.706,0,1,1,.464,1.335l-2.277.792,2.246.665a.706.706,0,1,1-.4,1.354l-4.349-1.289a.707.707,0,0,1-.506-.677v-4.707c-.718.07-1.379.1-1.964.1h-.062a22.051,22.051,0,0,1-4.47-.488v4.106l3.411-1.186a.706.706,0,0,1,.464,1.335l-2.277.791,2.246.666a.706.706,0,1,1-.4,1.354l-4.349-1.29a.706.706,0,0,1-.505-.677v-5.441a24.492,24.492,0,0,1-8.772-4.431.706.706,0,1,1,.885-1.1Zm0,0" transform="translate(-56.636 -294.647)" stroke="#000" stroke-width="0.5"/>
      <path id="Trazado_104410" data-name="Trazado 104410" d="M19.479,28.287a25.137,25.137,0,0,0,1.153-5.2c.714-6.063-.035-10.566-2.166-13.022a5.835,5.835,0,0,0-4.238-2.072A5.139,5.139,0,0,0,9.934,9.555a12.047,12.047,0,0,0-1.956,3.994C6.943,16.48,5.771,19.8,1.305,20.442a.706.706,0,0,1-.2-1.4c3.619-.52,4.553-3.165,5.541-5.965A20.291,20.291,0,0,1,7.93,10c-1.6-1.029-2.245-2.3-1.785-3.549A2.408,2.408,0,0,1,7.576,4.9a2.528,2.528,0,0,1,1.254-.1A2.653,2.653,0,0,1,9.953,2.827a3.25,3.25,0,0,1,2.841-.433A3.684,3.684,0,0,1,15.657.064a4.319,4.319,0,0,1,4.6,2.409c1.281,2.464-.413,4.673-1.589,5.808a7.776,7.776,0,0,1,.868.856,9.425,9.425,0,0,1,1.447,2.292c2.117.589,4.559,1.358,4.31,3.193-.136,1-1.161,1.661-2.306,2.088l.129.115a9.458,9.458,0,0,1,1.982,2.368,3.006,3.006,0,0,1,.1,3.233,3.4,3.4,0,0,1-3.054,1.559c-.067,0-.134,0-.2,0a26.008,26.008,0,0,1-1.124,4.766.706.706,0,1,1-1.336-.459ZM18.8,5.887A2.69,2.69,0,0,0,19,3.124a2.923,2.923,0,0,0-3.1-1.669,2.267,2.267,0,0,0-1.918,1.972.709.709,0,0,1-1.042.527,2.222,2.222,0,0,0-2.156.013,1.359,1.359,0,0,0-.468,1.592.707.707,0,0,1-1,.881,1.778,1.778,0,0,0-1.263-.208c-.092.034-.372.136-.58.7-.087.237-.143.618.378,1.183a4.529,4.529,0,0,0,.867.7,6.4,6.4,0,0,1,5.546-2.242,7.151,7.151,0,0,1,3.21.884A6.836,6.836,0,0,0,18.8,5.887Zm5.086,8.546c.066-.486-1.181-.989-2.3-1.347a16.786,16.786,0,0,1,.508,2.433C23.219,15.16,23.85,14.719,23.89,14.432ZM24,21.668c.549-.863-.188-2.026-.9-2.849A10.705,10.705,0,0,0,22.3,18a34.846,34.846,0,0,1-.19,4.575A2.064,2.064,0,0,0,24,21.668Zm0,0" transform="translate(18.634 0)" stroke="#000" stroke-width="0.5"/>
      <path id="Trazado_104411" data-name="Trazado 104411" d="M284.336,130.412a10.133,10.133,0,0,1,1.189-2.808,5.206,5.206,0,0,1,4.805-2.767c1.93.107,3.02,1.578,4.175,3.135,1.42,1.915,2.889,3.9,6.183,4.252a.706.706,0,1,1-.152,1.4c-3.908-.423-5.714-2.858-7.165-4.814-1.034-1.395-1.851-2.5-3.119-2.567a3.818,3.818,0,0,0-3.511,2.077,8.777,8.777,0,0,0-1.031,2.416c0,.011-.005.022-.008.033a16.388,16.388,0,0,0-.149,8.74,15.989,15.989,0,0,0,3.876,6.794.706.706,0,1,1-1.029.967,17.386,17.386,0,0,1-4.211-7.392A17.779,17.779,0,0,1,284.336,130.412Zm0,0" transform="translate(-283.616 -113.126)" stroke="#000" stroke-width="0.5"/>
      <path id="Trazado_104412" data-name="Trazado 104412" d="M162.928,256.516c4.153,1,7.513.29,9.988-2.121a10.461,10.461,0,0,0,2.537-4.016.706.706,0,0,1,1.355.4,11.7,11.7,0,0,1-2.86,4.586,10.5,10.5,0,0,1-7.614,3,16.024,16.024,0,0,1-3.737-.469c-5.067-1.224-7.687-5.618-7.209-8.986a.706.706,0,0,1,1.4.2,6.084,6.084,0,0,0,1.247,4.241A8.3,8.3,0,0,0,162.928,256.516Zm0,0" transform="translate(-147.107 -225.017)" stroke="#000" stroke-width="0.5"/>
      <path id="Trazado_104413" data-name="Trazado 104413" d="M106.663,132.4a1.477,1.477,0,1,1-1.443-1.794A1.63,1.63,0,0,1,106.663,132.4Zm0,0" transform="translate(-72.1 -118.357)"/>
    </g>
  </g>
</svg>
