<svg xmlns="http://www.w3.org/2000/svg" width="74.999" height="75" viewBox="0 0 74.999 75">
  <g id="humedad" transform="translate(0 0.001)">
    <path id="Trazado_105721" data-name="Trazado 105721" d="M156.128,75A28.157,28.157,0,0,1,128,46.874C128,25.141,153.975,1.4,155.079.4a1.559,1.559,0,0,1,2.1,0c1.1,1,27.076,24.737,27.076,46.47A28.157,28.157,0,0,1,156.128,75Z" transform="translate(-109.253)" fill="#17c878"/>
    <path id="Trazado_105722" data-name="Trazado 105722" d="M174.336,25.339c-4.866,4.69-25,25.189-25,43.163a25,25,0,1,0,50,0C199.335,50.514,179.2,30.028,174.336,25.339Z" transform="translate(-127.461 -21.628)" fill="#e2f6c6"/>
    <g id="Grupo_54955" data-name="Grupo 54955" transform="translate(0 31.249)">
      <path id="Trazado_105724" data-name="Trazado 105724" d="M28.513,219.588a8.472,8.472,0,0,1-5.386-1.842,5.7,5.7,0,0,0-7.2,0,8.47,8.47,0,0,1-5.385,1.843,8.455,8.455,0,0,1-5.38-1.843,5.427,5.427,0,0,0-3.595-1.282,1.563,1.563,0,0,1,0-3.125,8.455,8.455,0,0,1,5.38,1.843,5.427,5.427,0,0,0,3.595,1.282,5.43,5.43,0,0,0,3.6-1.283,8.466,8.466,0,0,1,5.383-1.842,8.48,8.48,0,0,1,5.388,1.842,5.7,5.7,0,0,0,7.2,0,8.481,8.481,0,0,1,5.388-1.842,1.563,1.563,0,0,1,0,3.125,5.435,5.435,0,0,0-3.6,1.283A8.478,8.478,0,0,1,28.513,219.588Z" transform="translate(-0.002 -213.338)" fill="#17c878"/>
      <path id="Trazado_105725" data-name="Trazado 105725" d="M28.513,411.588a8.472,8.472,0,0,1-5.386-1.842,5.7,5.7,0,0,0-7.2,0,8.47,8.47,0,0,1-5.385,1.843,8.455,8.455,0,0,1-5.38-1.843,5.427,5.427,0,0,0-3.595-1.282,1.563,1.563,0,1,1,0-3.125,8.455,8.455,0,0,1,5.38,1.843,5.427,5.427,0,0,0,3.595,1.282,5.43,5.43,0,0,0,3.6-1.283,8.466,8.466,0,0,1,5.383-1.842,8.48,8.48,0,0,1,5.388,1.842,5.7,5.7,0,0,0,7.2,0,8.48,8.48,0,0,1,5.388-1.842,1.563,1.563,0,1,1,0,3.125,5.435,5.435,0,0,0-3.6,1.283A8.478,8.478,0,0,1,28.513,411.588Z" transform="translate(-0.002 -377.214)" fill="#17c878"/>
      <path id="Trazado_105726" data-name="Trazado 105726" d="M10.54,347.588a8.455,8.455,0,0,1-5.38-1.843,5.427,5.427,0,0,0-3.595-1.282,1.563,1.563,0,1,1,0-3.125,8.455,8.455,0,0,1,5.38,1.843,5.427,5.427,0,0,0,3.595,1.282,1.563,1.563,0,1,1,0,3.125Z" transform="translate(-0.002 -322.588)" fill="#17c878"/>
      <path id="Trazado_105727" data-name="Trazado 105727" d="M151.513,347.587a9.23,9.23,0,0,1-5.53-1.808,6.245,6.245,0,0,0-3.845-1.317,5.435,5.435,0,0,0-3.6,1.283,8.8,8.8,0,0,1-10.774,0,5.435,5.435,0,0,0-3.6-1.283,1.563,1.563,0,0,1,0-3.125,8.472,8.472,0,0,1,5.386,1.842,5.7,5.7,0,0,0,7.205,0,8.48,8.48,0,0,1,5.388-1.842,9.23,9.23,0,0,1,5.53,1.808,6.245,6.245,0,0,0,3.845,1.317,1.563,1.563,0,0,1,0,3.125Z" transform="translate(-104.638 -322.588)" fill="#17c878"/>
      <path id="Trazado_105728" data-name="Trazado 105728" d="M10.54,283.588a8.455,8.455,0,0,1-5.38-1.843,5.427,5.427,0,0,0-3.595-1.282,1.563,1.563,0,1,1,0-3.125,8.455,8.455,0,0,1,5.38,1.843,5.427,5.427,0,0,0,3.595,1.282,5.43,5.43,0,0,0,3.6-1.283,8.466,8.466,0,0,1,5.383-1.842,1.563,1.563,0,1,1,0,3.125,5.436,5.436,0,0,0-3.6,1.282A8.47,8.47,0,0,1,10.54,283.588Z" transform="translate(-0.002 -267.963)" fill="#17c878"/>
      <path id="Trazado_105729" data-name="Trazado 105729" d="M203.5,283.588a8.455,8.455,0,0,1-5.38-1.843,5.691,5.691,0,0,0-7.2,0,8.479,8.479,0,0,1-5.386,1.842,1.563,1.563,0,1,1,0-3.125,5.434,5.434,0,0,0,3.6-1.283,8.788,8.788,0,0,1,10.768,0,5.686,5.686,0,0,0,7.194,0,8.466,8.466,0,0,1,5.383-1.842,1.563,1.563,0,1,1,0,3.125,5.436,5.436,0,0,0-3.6,1.282A8.468,8.468,0,0,1,203.5,283.588Z" transform="translate(-157.022 -267.963)" fill="#17c878"/>
    </g>
  </g>
</svg>
