<svg xmlns="http://www.w3.org/2000/svg" width="400" height="292.969" viewBox="0 0 400 292.969">
  <g id="Grupo_82781" data-name="Grupo 82781" transform="translate(-390 -4370.219)">
    <path id="Trazado_107551" data-name="Trazado 107551" d="M30,0H370a30,30,0,0,1,30,30V262.969a30,30,0,0,1-30,30H30a30,30,0,0,1-30-30V30A30,30,0,0,1,30,0Z" transform="translate(390 4370.219)" fill="#e2f6c6"/>
    <path id="Trazado_107552" data-name="Trazado 107552" d="M138.452,13.971H136.6V19h-3.428V4.781h5.6A6.246,6.246,0,0,1,142.72,5.9a3.8,3.8,0,0,1,1.426,3.17,4.616,4.616,0,0,1-.6,2.458,4.263,4.263,0,0,1-1.88,1.58l2.969,5.741V19h-3.672ZM136.6,11.334h2.168a1.946,1.946,0,0,0,1.47-.514,1.987,1.987,0,0,0,.493-1.434,2.01,2.01,0,0,0-.5-1.444,1.928,1.928,0,0,0-1.465-.524H136.6Zm14.58,7.861a5.432,5.432,0,0,1-3.936-1.45,5.008,5.008,0,0,1-1.5-3.774V13.7a6.489,6.489,0,0,1,.6-2.861,4.395,4.395,0,0,1,1.753-1.919,5.292,5.292,0,0,1,2.734-.679,4.574,4.574,0,0,1,3.516,1.382,5.43,5.43,0,0,1,1.289,3.853v1.279h-6.543a2.372,2.372,0,0,0,.771,1.4,2.3,2.3,0,0,0,1.543.508,2.958,2.958,0,0,0,2.441-1.094l1.5,1.777a4.2,4.2,0,0,1-1.743,1.353A5.891,5.891,0,0,1,151.177,19.2Zm-.371-8.418q-1.445,0-1.719,1.914h3.32v-.254a1.63,1.63,0,0,0-.4-1.226A1.593,1.593,0,0,0,150.806,10.777Zm11.68,5.254a.76.76,0,0,0-.439-.674,6.685,6.685,0,0,0-1.67-.527,7.615,7.615,0,0,1-2.031-.718,3.4,3.4,0,0,1-1.221-1.079,2.577,2.577,0,0,1-.42-1.455,2.92,2.92,0,0,1,1.2-2.4,4.948,4.948,0,0,1,3.145-.942,5.482,5.482,0,0,1,3.359.947,2.962,2.962,0,0,1,1.27,2.49h-3.3q0-1.27-1.338-1.27a1.326,1.326,0,0,0-.869.288.892.892,0,0,0-.352.718.819.819,0,0,0,.43.713,4.06,4.06,0,0,0,1.372.449,11.857,11.857,0,0,1,1.655.42,3.007,3.007,0,0,1,2.383,2.939,2.767,2.767,0,0,1-1.284,2.354,5.632,5.632,0,0,1-3.325.908,5.747,5.747,0,0,1-2.422-.488,4.05,4.05,0,0,1-1.66-1.328,3.007,3.007,0,0,1-.6-1.768h3.076a1.272,1.272,0,0,0,.488,1.069,2.009,2.009,0,0,0,1.2.337,1.58,1.58,0,0,0,1.011-.273A.875.875,0,0,0,162.485,16.031ZM170.669,19h-3.3V8.434h3.3Zm-3.5-13.3a1.482,1.482,0,0,1,.508-1.159,2.149,2.149,0,0,1,2.637,0,1.482,1.482,0,0,1,.508,1.159,1.482,1.482,0,0,1-.508,1.159,2.149,2.149,0,0,1-2.637,0A1.482,1.482,0,0,1,167.173,5.7Zm5.107,7.939a6.455,6.455,0,0,1,1.084-3.955,3.568,3.568,0,0,1,3.027-1.445,3.035,3.035,0,0,1,2.383,1.113V4h3.3V19h-2.959l-.166-1.133a3.116,3.116,0,0,1-2.578,1.328,3.562,3.562,0,0,1-2.988-1.445A6.659,6.659,0,0,1,172.28,13.639Zm3.291.205q0,2.813,1.641,2.813a1.62,1.62,0,0,0,1.563-.918V11.715a1.576,1.576,0,0,0-1.543-.937q-1.523,0-1.65,2.461Zm14.668,4.014a3.393,3.393,0,0,1-2.822,1.338,3.328,3.328,0,0,1-2.632-1.011,4.251,4.251,0,0,1-.894-2.905V8.434h3.291V15.3a1.183,1.183,0,0,0,1.318,1.357,1.72,1.72,0,0,0,1.611-.811V8.434h3.311V19h-3.086Zm4.57-4.238a6.236,6.236,0,0,1,.615-2.817,4.4,4.4,0,0,1,1.768-1.9,5.323,5.323,0,0,1,2.705-.664,4.858,4.858,0,0,1,3.74,1.47,5.64,5.64,0,0,1,1.367,4v.117a5.472,5.472,0,0,1-1.372,3.921,4.871,4.871,0,0,1-3.716,1.45,4.927,4.927,0,0,1-3.623-1.353,5.29,5.29,0,0,1-1.475-3.667Zm3.291.205a3.932,3.932,0,0,0,.459,2.148,1.529,1.529,0,0,0,1.357.684q1.758,0,1.8-2.705v-.332q0-2.842-1.816-2.842-1.65,0-1.787,2.451ZM212.163,19V10.719H210.63V8.434h1.533v-.84a3.651,3.651,0,0,1,1.064-2.8,4.206,4.206,0,0,1,2.988-1A6.544,6.544,0,0,1,217.759,4l.01,2.422a3.007,3.007,0,0,0-.811-.088q-1.494,0-1.494,1.289v.811h2.061v2.285h-2.061V19Zm12.91-7.588-1.084-.078a1.947,1.947,0,0,0-1.992.977V19h-3.291V8.434h3.086l.107,1.357a2.548,2.548,0,0,1,2.314-1.553,3.209,3.209,0,0,1,.918.117Zm6.113,7.783a5.432,5.432,0,0,1-3.936-1.45,5.008,5.008,0,0,1-1.5-3.774V13.7a6.489,6.489,0,0,1,.6-2.861A4.395,4.395,0,0,1,228.1,8.917a5.292,5.292,0,0,1,2.734-.679,4.574,4.574,0,0,1,3.516,1.382,5.43,5.43,0,0,1,1.289,3.853v1.279H229.1a2.372,2.372,0,0,0,.771,1.4,2.3,2.3,0,0,0,1.543.508,2.958,2.958,0,0,0,2.441-1.094l1.5,1.777a4.2,4.2,0,0,1-1.743,1.353A5.891,5.891,0,0,1,231.187,19.2Zm-.371-8.418q-1.445,0-1.719,1.914h3.32v-.254a1.63,1.63,0,0,0-.4-1.226A1.593,1.593,0,0,0,230.815,10.777Zm11.68,5.254a.76.76,0,0,0-.439-.674,6.685,6.685,0,0,0-1.67-.527,7.615,7.615,0,0,1-2.031-.718,3.4,3.4,0,0,1-1.221-1.079,2.577,2.577,0,0,1-.42-1.455,2.92,2.92,0,0,1,1.2-2.4,4.948,4.948,0,0,1,3.145-.942,5.482,5.482,0,0,1,3.359.947,2.962,2.962,0,0,1,1.27,2.49h-3.3q0-1.27-1.338-1.27a1.326,1.326,0,0,0-.869.288.892.892,0,0,0-.352.718.819.819,0,0,0,.43.713,4.06,4.06,0,0,0,1.372.449,11.857,11.857,0,0,1,1.655.42,3.007,3.007,0,0,1,2.383,2.939,2.767,2.767,0,0,1-1.284,2.354,5.632,5.632,0,0,1-3.325.908,5.747,5.747,0,0,1-2.422-.488,4.05,4.05,0,0,1-1.66-1.328,3.007,3.007,0,0,1-.6-1.768h3.076a1.272,1.272,0,0,0,.488,1.069,2.009,2.009,0,0,0,1.2.337,1.58,1.58,0,0,0,1.011-.273A.875.875,0,0,0,242.5,16.031Zm9.18.625a1.464,1.464,0,0,0,1.074-.376,1.379,1.379,0,0,0,.371-1.05h3.086a3.653,3.653,0,0,1-1.245,2.852,4.631,4.631,0,0,1-3.208,1.113,4.689,4.689,0,0,1-3.633-1.445,5.7,5.7,0,0,1-1.328-4v-.137a6.436,6.436,0,0,1,.591-2.827,4.3,4.3,0,0,1,1.7-1.885,5.081,5.081,0,0,1,2.637-.659A4.573,4.573,0,0,1,255,9.381a4.053,4.053,0,0,1,1.211,3.1H253.12a1.807,1.807,0,0,0-.4-1.26,1.382,1.382,0,0,0-1.074-.439q-1.279,0-1.494,1.631a11.507,11.507,0,0,0-.068,1.426,4.52,4.52,0,0,0,.381,2.207A1.319,1.319,0,0,0,251.675,16.656Zm5.508-3.037A6.236,6.236,0,0,1,257.8,10.8a4.4,4.4,0,0,1,1.768-1.9,5.323,5.323,0,0,1,2.705-.664,4.859,4.859,0,0,1,3.74,1.47,5.64,5.64,0,0,1,1.367,4v.117a5.472,5.472,0,0,1-1.372,3.921,4.871,4.871,0,0,1-3.716,1.45,4.927,4.927,0,0,1-3.623-1.353,5.29,5.29,0,0,1-1.475-3.667Zm3.291.205a3.931,3.931,0,0,0,.459,2.148,1.529,1.529,0,0,0,1.357.684q1.758,0,1.8-2.705v-.332q0-2.842-1.816-2.842-1.65,0-1.787,2.451Z" transform="translate(390 4568.703)" fill="#12263f"/>
    <g id="biomasa" transform="translate(519.248 4380.307)">
      <path id="Trazado_105655" data-name="Trazado 105655" d="M137.493,442.609H11.467A3.967,3.967,0,0,1,7.5,438.643v-2.581a3.966,3.966,0,0,1,3.967-3.967H137.493a3.966,3.966,0,0,1,3.967,3.967v2.581A3.966,3.966,0,0,1,137.493,442.609Z" transform="translate(-5.478 -291.234)" fill="#bf7726"/>
      <path id="Trazado_105656" data-name="Trazado 105656" d="M467.869,432.094h-8.086a3.967,3.967,0,0,1,3.967,3.967v2.581a3.967,3.967,0,0,1-3.967,3.967h8.086a3.966,3.966,0,0,0,3.966-3.967v-2.581A3.966,3.966,0,0,0,467.869,432.094Z" transform="translate(-335.854 -291.233)" fill="#bd6629"/>
      <path id="Trazado_105657" data-name="Trazado 105657" d="M149.6,288.348l-5.266-21.827a5.2,5.2,0,0,0-1.291-2.368L125.9,246.17a5.2,5.2,0,0,0-4.848-1.5l-28.973,6.188a5.2,5.2,0,0,1-5.654-2.6l-4.556-8.388a5.2,5.2,0,0,0-6.592-2.307l-30.07,12.708a5.2,5.2,0,0,0-2.7,2.627L25.765,289.507" transform="translate(-18.82 -148.836)" fill="#e38e2f"/>
      <path id="Trazado_105658" data-name="Trazado 105658" d="M390.567,286.59a5.2,5.2,0,0,0-1.291-2.368l-17.145-17.983a5.2,5.2,0,0,0-4.848-1.5l-4.425.945a5.213,5.213,0,0,1,.621.551l17.145,17.983a5.2,5.2,0,0,1,1.291,2.368l5.266,21.827h8.652Z" transform="translate(-265.054 -168.905)" fill="#d99061"/>
      <g id="Grupo_54931" data-name="Grupo 54931" transform="translate(29.322 103.692)">
        <path id="Trazado_105659" data-name="Trazado 105659" d="M111.722,333.1l3.528-1.364" transform="translate(-110.93 -321.621)" fill="#f6c37b"/>
        <path id="Trazado_105660" data-name="Trazado 105660" d="M184.19,355.981l3.528-1.364" transform="translate(-163.866 -338.331)" fill="#f6c37b"/>
        <path id="Trazado_105661" data-name="Trazado 105661" d="M184.053,295.587l3.6-1.392" transform="translate(-163.765 -294.195)" fill="#f6c37b"/>
        <path id="Trazado_105662" data-name="Trazado 105662" d="M108.785,394.207l3.366-1.3" transform="translate(-108.785 -366.3)" fill="#f6c37b"/>
        <path id="Trazado_105663" data-name="Trazado 105663" d="M342.536,379.249l3.528-1.364" transform="translate(-279.531 -355.327)" fill="#f6c37b"/>
        <path id="Trazado_105664" data-name="Trazado 105664" d="M415.422,375.22l3.528-1.364" transform="translate(-332.772 -352.384)" fill="#f6c37b"/>
        <path id="Trazado_105665" data-name="Trazado 105665" d="M360.208,309.31l3.6-1.392" transform="translate(-292.44 -304.219)" fill="#f6c37b"/>
        <path id="Trazado_105666" data-name="Trazado 105666" d="M239.98,381.806l3.6-1.392" transform="translate(-204.618 -357.175)" fill="#f6c37b"/>
      </g>
      <path id="Trazado_105667" data-name="Trazado 105667" d="M290.956,132.646a4.773,4.773,0,0,1-.355,9.513l-7.131.269a9.172,9.172,0,0,0-8.349,6.087,8.73,8.73,0,0,0,2.279,9.716c.082.075.166.151.251.225a19.365,19.365,0,0,1-5,32.4,4.773,4.773,0,1,1-3.79-8.761,9.819,9.819,0,0,0,2.535-16.429q-.244-.212-.479-.429a18.237,18.237,0,0,1-4.749-20.037,18.993,18.993,0,0,1,6.251-8.51,18.619,18.619,0,0,1,10.69-3.8l7.131-.269a4.86,4.86,0,0,1,.714.026Z" transform="translate(-193.547 -72.476)" fill="#f1d54e"/>
      <g id="Grupo_54932" data-name="Grupo 54932" transform="translate(0 33.397)">
        <path id="Trazado_105668" data-name="Trazado 105668" d="M109.042,324.375l-3.528,1.364a2.021,2.021,0,1,0,1.457,3.771l3.528-1.364a2.021,2.021,0,1,0-1.457-3.771Z" transform="translate(-76.129 -245.846)"/>
        <path id="Trazado_105669" data-name="Trazado 105669" d="M181.51,347.251l-3.528,1.364a2.021,2.021,0,1,0,1.457,3.771l3.528-1.364a2.021,2.021,0,1,0-1.457-3.771Z" transform="translate(-129.064 -262.555)"/>
        <path id="Trazado_105670" data-name="Trazado 105670" d="M181.447,286.829l-3.6,1.392a2.021,2.021,0,1,0,1.457,3.771l3.6-1.392a2.021,2.021,0,0,0-1.457-3.771Z" transform="translate(-128.964 -218.42)"/>
        <path id="Trazado_105671" data-name="Trazado 105671" d="M105.942,385.541l-3.366,1.3a2.021,2.021,0,1,0,1.457,3.771l3.366-1.3a2.021,2.021,0,1,0-1.457-3.771Z" transform="translate(-73.983 -290.525)"/>
        <path id="Trazado_105672" data-name="Trazado 105672" d="M339.856,370.519l-3.528,1.364a2.021,2.021,0,1,0,1.457,3.771l3.528-1.364a2.021,2.021,0,1,0-1.457-3.771Z" transform="translate(-244.73 -279.552)"/>
        <path id="Trazado_105673" data-name="Trazado 105673" d="M412.742,366.491l-3.528,1.364a2.021,2.021,0,1,0,1.457,3.771l3.528-1.364a2.021,2.021,0,1,0-1.457-3.771Z" transform="translate(-297.971 -276.61)"/>
        <path id="Trazado_105674" data-name="Trazado 105674" d="M357.6,300.552l-3.6,1.392a2.022,2.022,0,1,0,1.458,3.771l3.6-1.392a2.022,2.022,0,0,0-1.458-3.771Z" transform="translate(-257.638 -228.444)"/>
        <path id="Trazado_105675" data-name="Trazado 105675" d="M237.374,373.048l-3.6,1.392a2.021,2.021,0,1,0,1.457,3.771l3.6-1.392a2.021,2.021,0,1,0-1.457-3.771Z" transform="translate(-169.817 -281.4)"/>
        <path id="Trazado_105676" data-name="Trazado 105676" d="M132.706,205.88l-5.228-21.67a7.227,7.227,0,0,0-1.793-3.289L108.54,162.938a7.265,7.265,0,0,0-6.734-2.079l-9.518,2.033a21.3,21.3,0,0,0-6.86-11.44c-.069-.06-.137-.121-.2-.181a6.683,6.683,0,0,1-1.757-7.531A7.178,7.178,0,0,1,90,138.971l7.131-.269a6.794,6.794,0,0,0,6.534-7.046,6.833,6.833,0,0,0-6.031-6.5h0a6.9,6.9,0,0,0-1.014-.037l-7.131.269a20.629,20.629,0,0,0-11.843,4.218,21.011,21.011,0,0,0-6.918,9.413A20.227,20.227,0,0,0,76,161.246q.259.239.526.471A7.7,7.7,0,0,1,79,165.73l-6.166,1.317a3.2,3.2,0,0,1-3.455-1.59l-4.556-8.388a7.194,7.194,0,0,0-9.155-3.2L25.6,166.573a7.2,7.2,0,0,0-3.755,3.648L5.551,205.856A6,6,0,0,0,0,211.827v2.581A6,6,0,0,0,5.988,220.4H15.76a2.022,2.022,0,1,0,0-4.043H5.988a1.947,1.947,0,0,1-1.945-1.945v-2.581a1.947,1.947,0,0,1,1.945-1.945H132.015a1.947,1.947,0,0,1,1.945,1.945v2.581a1.947,1.947,0,0,1-1.945,1.945H23.847a2.022,2.022,0,1,0,0,4.043H132.015A6,6,0,0,0,138,214.408v-2.581a6,6,0,0,0-5.3-5.947ZM80.643,175.068l4.689,2.908a17.308,17.308,0,0,1-7.029,5.549,2.751,2.751,0,1,1-2.185-5.05A11.822,11.822,0,0,0,80.643,175.068Zm16.127-45.9.106,0a2.808,2.808,0,0,1,.309.017,2.766,2.766,0,0,1,2.438,2.631,2.752,2.752,0,0,1-2.646,2.853l-3.65.138L92.3,129.332ZM74.517,140.427A16.971,16.971,0,0,1,80.1,132.82a16.5,16.5,0,0,1,8.127-3.276l1.018,5.426a11.17,11.17,0,0,0-9.568,7.367,10.7,10.7,0,0,0,2.8,11.9c.1.09.2.18.3.268a17.251,17.251,0,0,1,5.776,15.746,17.488,17.488,0,0,1-1.2,4.219L82.6,171.523a12.353,12.353,0,0,0,.519-2.11,11.627,11.627,0,0,0-3.944-10.751q-.22-.19-.43-.385A16.247,16.247,0,0,1,74.517,140.427Zm-49,31.476a3.169,3.169,0,0,1,1.652-1.605l30.069-12.708A3.166,3.166,0,0,1,61.269,159l4.556,8.388A7.262,7.262,0,0,0,73.678,171l5.2-1.11a7.631,7.631,0,0,1-4.361,4.873,6.794,6.794,0,1,0,5.4,12.472,21.271,21.271,0,0,0,12.643-16.367,21.614,21.614,0,0,0,.243-3.951l9.856-2.105a3.2,3.2,0,0,1,2.963.915l17.145,17.983a3.179,3.179,0,0,1,.789,1.447l4.944,20.491H10.092Z" transform="translate(0 -100.396)"/>
        <path id="Trazado_105677" data-name="Trazado 105677" d="M147.067,118.631a2.022,2.022,0,0,0,4.043,0c0-1.607.725-2.342,1.822-3.454a8.124,8.124,0,0,0,0-12.588c-1.1-1.112-1.822-1.847-1.822-3.454s.725-2.342,1.822-3.454a8.362,8.362,0,0,0,2.987-6.294,2.022,2.022,0,0,0-4.043,0c0,1.608-.725,2.342-1.822,3.454a8.124,8.124,0,0,0,0,12.588c1.1,1.112,1.822,1.847,1.822,3.454s-.725,2.342-1.822,3.454a8.36,8.36,0,0,0-2.988,6.293Z" transform="translate(-107.427 -72.819)"/>
        <path id="Trazado_105678" data-name="Trazado 105678" d="M93.243,64.663a2.022,2.022,0,0,0,4.043,0c0-1.607.725-2.342,1.822-3.454a8.123,8.123,0,0,0,0-12.588c-1.1-1.112-1.822-1.847-1.822-3.454s.725-2.342,1.822-3.454a8.361,8.361,0,0,0,2.988-6.294,2.022,2.022,0,0,0-4.043,0c0,1.608-.725,2.342-1.822,3.454a8.124,8.124,0,0,0,0,12.588c1.1,1.112,1.822,1.847,1.822,3.454s-.725,2.342-1.822,3.454A8.359,8.359,0,0,0,93.243,64.663Z" transform="translate(-68.111 -33.397)"/>
        <path id="Trazado_105679" data-name="Trazado 105679" d="M427.309,157.078a2.022,2.022,0,1,0,4.043,0c0-1.153.436-1.644,1.422-2.643a7.1,7.1,0,0,0,0-10.967c-.987-1-1.422-1.49-1.422-2.644s.436-1.644,1.422-2.644a7.261,7.261,0,0,0,2.588-5.484,2.022,2.022,0,1,0-4.043,0c0,1.154-.436,1.644-1.422,2.644a7.1,7.1,0,0,0,0,10.967c.987,1,1.422,1.49,1.422,2.644s-.436,1.644-1.422,2.643A7.258,7.258,0,0,0,427.309,157.078Z" transform="translate(-312.133 -104.455)"/>
      </g>
    </g>
  </g>
</svg>
