<svg xmlns="http://www.w3.org/2000/svg" width="816.905" height="221.619" viewBox="0 0 816.905 221.619">
  <g id="Grupo_82783" data-name="Grupo 82783" transform="translate(-393.604 -3802.523)">
    <path id="Trazado_105814" data-name="Trazado 105814" d="M821.809,367.959H117.162a41.138,41.138,0,0,0-41.136,41.133V527.725a41.14,41.14,0,0,0,41.136,41.141H821.809a41.141,41.141,0,0,0,41.138-41.141V409.092A41.139,41.139,0,0,0,821.809,367.959Z" transform="translate(317.578 3455.277)" fill="#e2f6c6"/>
    <g id="Grupo_55004" data-name="Grupo 55004" transform="translate(416.158 3802.523)">
      <g id="Grupo_55001" data-name="Grupo 55001">
        <g id="Grupo_55000" data-name="Grupo 55000">
          <g id="Grupo_54999" data-name="Grupo 54999">
            <g id="Grupo_54998" data-name="Grupo 54998">
              <g id="Grupo_54996" data-name="Grupo 54996">
                <path id="Trazado_105811" data-name="Trazado 105811" d="M525.067,567.933H129.976a44.9,44.9,0,0,1-44.847-44.854V404.449A44.9,44.9,0,0,1,129.976,359.6H444.332a3.716,3.716,0,1,1,0,7.433H129.976a37.458,37.458,0,0,0-37.414,37.417v118.63A37.459,37.459,0,0,0,129.976,560.5H525.067a3.716,3.716,0,0,1,0,7.433Z" transform="translate(-85.129 -359.599)" fill="#17c878"/>
              </g>
              <g id="Grupo_54997" data-name="Grupo 54997" transform="translate(424.019)">
                <path id="Trazado_105812" data-name="Trazado 105812" d="M581.75,567.933H259.986a3.716,3.716,0,1,1,0-7.433H581.75a37.462,37.462,0,0,0,37.419-37.422V404.449a37.461,37.461,0,0,0-37.419-37.417H269.1a3.716,3.716,0,1,1,0-7.433H581.75A44.9,44.9,0,0,1,626.6,404.449v118.63A44.9,44.9,0,0,1,581.75,567.933Z" transform="translate(-256.27 -359.599)" fill="#17c878"/>
              </g>
            </g>
          </g>
        </g>
      </g>
    </g>
  </g>
</svg>
