<svg xmlns="http://www.w3.org/2000/svg" width="64.815" height="75" viewBox="0 0 64.815 75">
  <g id="pollo" transform="translate(-34.763 0)">
    <g id="Grupo_54957" data-name="Grupo 54957" transform="translate(35.938 34.147)">
      <path id="Trazado_105779" data-name="Trazado 105779" d="M51.669,249.992a10.021,10.021,0,0,0,11.093-8.82L42.849,238.9A10.021,10.021,0,0,0,51.669,249.992Z" transform="translate(-42.783 -238.052)" fill="#f5e038"/>
      <path id="Trazado_105780" data-name="Trazado 105780" d="M345.791,245.01a10.021,10.021,0,0,0,7.7-11.9l-19.6,4.2A10.021,10.021,0,0,0,345.791,245.01Z" transform="translate(-291.251 -233.113)" fill="#f5e038"/>
    </g>
    <circle id="Elipse_4199" data-name="Elipse 4199" cx="16.284" cy="16.284" r="16.284" transform="translate(52.123 30.02)" fill="#f1d54e"/>
    <circle id="Elipse_4200" data-name="Elipse 4200" cx="12.526" cy="12.526" r="12.526" transform="translate(55.985 15.851)" fill="#f1d54e"/>
    <path id="Trazado_105782" data-name="Trazado 105782" d="M162.722,325.881l-5.01-10.021-5.01,10.021-5.01-5.01-5.01,7.516-5.01-10.021-5.01,7.516-4.712-6.283a26.114,26.114,0,0,0-.3,3.777,20.041,20.041,0,1,0,40.083,0,26.114,26.114,0,0,0-.3-3.777Z" transform="translate(-79.28 -269.592)" fill="#ffd4a5"/>
    <path id="Trazado_105783" data-name="Trazado 105783" d="M147.692,365.2a20.252,20.252,0,0,0,2.078-.107S136.624,365.2,147.692,365.2Z" transform="translate(-79.282 -291.373)" fill="#e3dcd2"/>
    <path id="Trazado_105784" data-name="Trazado 105784" d="M134.886,33.184l5.124,9.963,4.924-7.572L150,40.528l4.9-10.077,5.124,9.963,4.64-6.336C162.9,22.972,154.508,7.907,144.62,8.019s-17.93,15.365-19.442,26.508l4.783,6.228Z" transform="translate(-77.171 -6.845)" fill="#ffd4a5"/>
    <path id="Trazado_105785" data-name="Trazado 105785" d="M129.961,40.756l3.8-5.839Z" transform="translate(-77.171 -6.845)" fill="#e3dcd2"/>
    <path id="Trazado_105786" data-name="Trazado 105786" d="M99.326,33.9a1.174,1.174,0,0,0-1.394-.9L82.694,36.261a17.58,17.58,0,0,0-1.758-2.117q.218-.47.4-.952l.47.914a1.186,1.186,0,0,0,1.992.157l4.64-6.336a1.174,1.174,0,0,0,.212-.878,44.881,44.881,0,0,0-4.119-12.52,1.174,1.174,0,1,0-2.1,1.046,42.86,42.86,0,0,1,3.823,11.364l-3.225,4.4-4.255-8.273a1.185,1.185,0,0,0-2.1.024L72.486,31.7l-3.9-3.814a1.186,1.186,0,0,0-1.805.2l-3.821,5.876-4.2-8.164a1.185,1.185,0,0,0-2.029-.1l-4.02,6.181L49.24,27.36C50.837,16.824,58.4,2.452,67.463,2.349h.1c4.8,0,8.783,3.983,11.286,7.338a1.174,1.174,0,1,0,1.882-1.4C76.649,2.811,72.053-.056,67.436,0,56.565.124,48.359,16.354,46.843,27.525a1.174,1.174,0,0,0,.232.873l4.783,6.228a1.186,1.186,0,0,0,1.916-.075l1.563-2.4A13.684,13.684,0,0,0,56.013,34a17.341,17.341,0,0,0-1.635,1.905L36.136,33.828a1.174,1.174,0,0,0-1.3,1.034A11.195,11.195,0,0,0,44.69,47.253a11.17,11.17,0,0,0,6.262-1.1,17.49,17.49,0,0,0,1.22,6.571L49.607,49.3a1.184,1.184,0,0,0-2.1.533,27.294,27.294,0,0,0-.311,3.949,21.013,21.013,0,0,0,2.154,9.325,1.174,1.174,0,0,0,2.109-1.033,18.682,18.682,0,0,1-1.915-8.292q0-.314.01-.639l2.886,3.848a1.185,1.185,0,0,0,1.916-.053l3.888-5.832,4.105,8.211a1.185,1.185,0,0,0,2.027.126l4.216-6.324,4,4a1.186,1.186,0,0,0,1.881-.305l3.96-7.92,3.96,7.92a1.185,1.185,0,0,0,1.99.179l2.886-3.848q.01.325.01.639A18.867,18.867,0,0,1,55.217,67.27a1.174,1.174,0,1,0-1.643,1.679A21.216,21.216,0,0,0,89.626,53.784a27.28,27.28,0,0,0-.311-3.949,1.184,1.184,0,0,0-2.1-.533l-2.58,3.44a17.444,17.444,0,0,0,1.218-5.59A11.2,11.2,0,0,0,99.326,33.9ZM57.6,28.676l4.2,8.164a1.186,1.186,0,0,0,2.029.1l4.143-6.371,4.043,3.952a1.186,1.186,0,0,0,1.877-.327l3.87-7.965,1.979,3.848a11.353,11.353,0,0,1-22.524-.6,1.177,1.177,0,0,0-.03-.165ZM44.956,44.92A8.85,8.85,0,0,1,37.113,36.3l15.88,1.813c-.067.127-.136.252-.2.38a17.425,17.425,0,0,0-1.571,4.753c-.027.016-.054.033-.08.052A8.826,8.826,0,0,1,44.956,44.92Zm33.475.173a1.174,1.174,0,0,0-1.05.649L73.1,54.306l-3.858-3.859a1.186,1.186,0,0,0-1.807.179l-3.888,5.832L59.44,48.248a1.185,1.185,0,0,0-2.027-.126L54.574,52.38a15.124,15.124,0,0,1,2.642-16.232,13.713,13.713,0,0,0,18.663,3.786,13.6,13.6,0,0,0,3.831-3.661,15.051,15.051,0,0,1,2.782,15.493l-3.011-6.023A1.174,1.174,0,0,0,78.431,45.093Zm11.8-.2a8.828,8.828,0,0,1-4.426-.186,17.378,17.378,0,0,0-1.826-6.321L97.2,35.557A8.86,8.86,0,0,1,90.231,44.9Z"/>
  </g>
</svg>
