<svg xmlns="http://www.w3.org/2000/svg" width="55.059" height="50.004" viewBox="0 0 55.059 50.004">
  <g id="gas" transform="translate(0 -23.501)">
    <path id="Trazado_105607" data-name="Trazado 105607" d="M35,77h4.3v4.3H35Z" transform="translate(-31.236 -47.746)" fill="#fff"/>
    <path id="Trazado_105608" data-name="Trazado 105608" d="M19.678,148.186H10v-28.5A2.688,2.688,0,0,1,12.688,117h4.3a2.688,2.688,0,0,1,2.688,2.688Z" transform="translate(-8.925 -83.444)" fill="#e2f6c6"/>
    <path id="Trazado_105609" data-name="Trazado 105609" d="M122.483,38.57a6.99,6.99,0,0,0-10.654,5.952,6.99,6.99,0,0,0-6.99,6.99c0,3.19-4.839,5.269-4.839,5.269v5.592c7.133,0,8.979,1.317,8.979,4.839a8.873,8.873,0,0,0,12.661,8.023,8.873,8.873,0,0,0,17-5.091A8.872,8.872,0,0,0,139,54.815,6.99,6.99,0,0,0,136.24,41.4l-.083,0a7.033,7.033,0,0,0,.083-1.078c0-3.86-3.8-6.829-6.99-6.829a6.634,6.634,0,0,0-6.767,5.07Z" transform="translate(-89.246 -8.924)" fill="#afafaf"/>
    <path id="Trazado_105610" data-name="Trazado 105610" d="M59.839,232,55,236.947l4.839,4.517Z" transform="translate(-49.086 -186.078)" fill="#b3e9b7"/>
    <g id="Grupo_54924" data-name="Grupo 54924" transform="translate(0 23.501)">
      <path id="Trazado_105611" data-name="Trazado 105611" d="M54.521,36.569a8.079,8.079,0,0,0-6.452-5.093,7.427,7.427,0,0,0-.754-3.242,8.46,8.46,0,0,0-1.9-2.486,9.057,9.057,0,0,0-2.559-1.639A7.427,7.427,0,0,0,40,23.5a8.416,8.416,0,0,0-4.243,1.067,7.535,7.535,0,0,0-3.117,3.572,8.01,8.01,0,0,0-3.069-.607h0a8.066,8.066,0,0,0-8,7.053,8.066,8.066,0,0,0-7.053,8,2.683,2.683,0,0,1-.559,1.55,8.029,8.029,0,0,1-2.129,1.909v-9.8a3.77,3.77,0,0,0-2.688-3.606V29.254a1.075,1.075,0,0,0-1.075-1.075h-4.3a1.075,1.075,0,0,0-1.075,1.075v3.383A3.77,3.77,0,0,0,0,36.244v28.5a1.075,1.075,0,0,0,1.075,1.075h9.678a1.075,1.075,0,0,0,1.075-1.075v-10.2A25.2,25.2,0,0,1,15,54.774a8.432,8.432,0,0,1,1.95.5,2.5,2.5,0,0,1,1.325,1.072,3.975,3.975,0,0,1,.379,1.944,9.822,9.822,0,0,0,.783,3.847,10.047,10.047,0,0,0,5.289,5.308,9.864,9.864,0,0,0,3.876.793h0a9.913,9.913,0,0,0,3.171-.518,9.7,9.7,0,0,0,3.611,4.192,10.051,10.051,0,0,0,5.467,1.6h.01a10.068,10.068,0,0,0,3.863-.762,9.875,9.875,0,0,0,3.163-2.091,9.755,9.755,0,0,0,2.92-6.987,9.916,9.916,0,0,0-.19-1.935,9.969,9.969,0,0,0,3.053-3.217,1.075,1.075,0,0,0-.924-1.624,1.081,1.081,0,0,0-.926.527,7.825,7.825,0,0,1-2.952,2.863,1.076,1.076,0,0,0-.514,1.238,7.832,7.832,0,0,1,.3,2.149,7.827,7.827,0,0,1-14.929,3.148,9.954,9.954,0,0,0,1.907-1.491A1.075,1.075,0,1,0,34.118,63.8a7.778,7.778,0,0,1-2.167,1.532l-.016.007a7.817,7.817,0,0,1-11.126-7.051,6.326,6.326,0,0,0-.5-2.691,4.246,4.246,0,0,0-1.267-1.59,7.378,7.378,0,0,0-3.256-1.284,25.4,25.4,0,0,0-3.958-.339V48.531a14.309,14.309,0,0,0,1.995-1.255,8.764,8.764,0,0,0,1.892-1.9,4.787,4.787,0,0,0,.953-2.788,5.914,5.914,0,0,1,5.9-5.914,6.26,6.26,0,0,1,4.194,1.732,1.075,1.075,0,0,0,1.521-1.521,8.371,8.371,0,0,0-4.547-2.257,5.914,5.914,0,0,1,5.834-4.944,5.942,5.942,0,0,1,3.108.882,6.02,6.02,0,0,1,1.074.851A1.075,1.075,0,1,0,35.275,29.9a8.129,8.129,0,0,0-.755-.665,5.393,5.393,0,0,1,2.315-2.8,6.368,6.368,0,0,1,3.156-.779h.038a6.194,6.194,0,0,1,3.942,1.687A5.523,5.523,0,0,1,45.918,31.4a6.039,6.039,0,0,1-.07.913,1.073,1.073,0,0,0,.249.869,1.189,1.189,0,0,0,.866.37,5.966,5.966,0,0,1,4.212,1.732A5.915,5.915,0,0,1,49.331,44.9a1.075,1.075,0,0,0-.138,1.9,7.883,7.883,0,0,1,2.539,2.524,1.075,1.075,0,0,0,1.824-1.138,9.955,9.955,0,0,0-1.843-2.183,8.139,8.139,0,0,0,2.43-2.807,8.083,8.083,0,0,0,.377-6.635ZM4.839,30.329H6.99V32.48H4.839ZM9.678,52.911,7.453,50.834l2.225-2.275Zm0-15.889-4.03,1.03a1.075,1.075,0,1,0,.533,2.084l3.5-.894v6.242L5.146,50.117a1.075,1.075,0,0,0,.035,1.538l4.5,4.2v7.813H2.151V36.244a1.615,1.615,0,0,1,1.613-1.613h4.3a1.615,1.615,0,0,1,1.613,1.613Z" transform="translate(0 -23.501)"/>
      <path id="Trazado_105612" data-name="Trazado 105612" d="M322.209,167.84a3.471,3.471,0,0,0,3.281-2.538,4.61,4.61,0,0,0-.328-3.777,5.879,5.879,0,0,0-2.75-2.593c-2.16-.965-5.209-.592-7.289,3.351a1.075,1.075,0,1,0,1.9,1c1.2-2.266,2.839-3.138,4.509-2.391a3.184,3.184,0,0,1,1.939,3.659c-.262.706-.646,1.087-1.142,1.132a1.394,1.394,0,0,1-1.06-.373,1.075,1.075,0,0,0-2.14.176c.025,1.181,1.3,2.1,2.516,2.3A3.366,3.366,0,0,0,322.209,167.84Z" transform="translate(-281.125 -143.969)"/>
      <path id="Trazado_105613" data-name="Trazado 105613" d="M365.575,350.042a1.075,1.075,0,1,0-.606,2.064c1.851.544,2.728,1.7,2.407,3.166-.265,1.209-1.267,2.155-2.146,2.027a1.075,1.075,0,1,0-.313,2.128,3.2,3.2,0,0,0,.465.034,4.525,4.525,0,0,0,4.095-3.728C369.908,353.763,369.145,351.091,365.575,350.042Z" transform="translate(-324.855 -314.888)"/>
      <path id="Trazado_105614" data-name="Trazado 105614" d="M227.412,293.933c-2.16-.965-5.209-.592-7.289,3.351a1.075,1.075,0,1,0,1.9,1c1.2-2.266,2.839-3.138,4.509-2.391a3.184,3.184,0,0,1,1.939,3.659c-.262.706-.646,1.087-1.142,1.132a1.4,1.4,0,0,1-1.06-.373,1.075,1.075,0,0,0-2.14.176c.025,1.181,1.3,2.1,2.515,2.3a3.384,3.384,0,0,0,.562.047,3.47,3.47,0,0,0,3.281-2.538,4.61,4.61,0,0,0-.328-3.777,5.879,5.879,0,0,0-2.75-2.593Z" transform="translate(-196.341 -264.452)"/>
      <path id="Trazado_105615" data-name="Trazado 105615" d="M255.325,213.448a1.11,1.11,0,0,0,1.109-1,1.075,1.075,0,0,0-1-1.147,3.728,3.728,0,0,1-2.754-1.121,2.794,2.794,0,0,1-.531-1.946,1.075,1.075,0,0,0-2.125-.332,4.875,4.875,0,0,0,.959,3.6A5.809,5.809,0,0,0,255.325,213.448Z" transform="translate(-223.1 -187.265)"/>
      <path id="Trazado_105616" data-name="Trazado 105616" d="M386.149,272a1.075,1.075,0,0,0-.148,2.146,3.728,3.728,0,0,1,2.754,1.121,2.793,2.793,0,0,1,.531,1.946,1.147,1.147,0,0,0,.979,1.23,1.162,1.162,0,0,0,1.146-.9,4.874,4.874,0,0,0-.959-3.6A5.723,5.723,0,0,0,386.149,272Z" transform="translate(-343.598 -245.278)"/>
      <path id="Trazado_105617" data-name="Trazado 105617" d="M178.776,176.932a1.075,1.075,0,0,0,1.4-.822,2.377,2.377,0,0,1,.855-1.67,1.278,1.278,0,0,1,.951-.08l.023.007a1.065,1.065,0,1,0,.464-2.071,4.209,4.209,0,0,0-2.482.264,4.253,4.253,0,0,0-1.918,3.117A1.1,1.1,0,0,0,178.776,176.932Z" transform="translate(-158.907 -156.235)"/>
      <path id="Trazado_105618" data-name="Trazado 105618" d="M356.4,86.135a2.356,2.356,0,0,1,1.647.851,1.332,1.332,0,0,1,.068.982,1.1,1.1,0,0,0,.588,1.425,1.071,1.071,0,0,0,1.37-.553s.1-.242.126-.324a3.4,3.4,0,0,0-.271-2.574,4.277,4.277,0,0,0-3.16-1.926,1.075,1.075,0,0,0-1.258.894A1.1,1.1,0,0,0,356.4,86.135Z" transform="translate(-317.273 -77.492)"/>
      <path id="Trazado_105619" data-name="Trazado 105619" d="M160.452,245.516a4.85,4.85,0,0,0-2.887-2.374,5.6,5.6,0,0,0-4.569.972,1.075,1.075,0,1,0,1.157,1.813,3.615,3.615,0,0,1,2.818-.718,2.765,2.765,0,0,1,1.559,1.272,1.075,1.075,0,0,0,1.922-.965Z" transform="translate(-136.1 -219.379)"/>
      <circle id="Elipse_4145" data-name="Elipse 4145" cx="1.075" cy="1.075" r="1.075" transform="translate(52.908 28.772)"/>
    </g>
  </g>
</svg>
