<svg xmlns="http://www.w3.org/2000/svg" width="252.455" height="234.101" viewBox="0 0 252.455 234.101">
  <g id="Grupo_82781" data-name="Grupo 82781" transform="translate(-972.801 -964.899)">
    <g id="Grupo_54272" data-name="Grupo 54272" transform="translate(938.505 913.754)">
      <g id="Grupo_54246" data-name="Grupo 54246" transform="translate(37.923 85.946)">
        <g id="Grupo_54242" data-name="Grupo 54242">
          <g id="Grupo_54240" data-name="Grupo 54240" transform="translate(0 11.601)">
            <path id="Trazado_104466" data-name="Trazado 104466" d="M76.3,164.355l2.868-2.76a50.752,50.752,0,0,0-17.065-18.451l-2.395,1.461.905-2.33q-1.286-.714-2.585-1.284l-3.667,3.737,1.179-4.693a17.277,17.277,0,0,0-8.069-.843,10.815,10.815,0,0,0-6.429,3.494,11.816,11.816,0,0,0-2.855,5.673,14.026,14.026,0,0,0-.261,3.179,17.8,17.8,0,0,0,.436,3.366c1.019,4.57,3.768,9.485,7.688,14.089l4.5-1.527-2.19,4.071c.964.983,1.98,1.954,3.043,2.885l1.963-1.914-.5,3.162q.638.524,1.294,1.031c7.87,6.071,15.087,8.258,20.356,8.9a24.722,24.722,0,0,0,8.578-.232s3.007-9-2.784-21.481Z" transform="translate(-37.923 -139.021)" fill="#f1d54e"/>
          </g>
          <rect id="Rect치ngulo_30989" data-name="Rect치ngulo 30989" width="0.647" height="45.187" transform="translate(9.356 23.85) rotate(-46.929)" fill="#fff"/>
          <path id="Trazado_104467" data-name="Trazado 104467" d="M70.964,171.035c-1.722-2.661-3.222-9.337-3.284-9.62l.631-.141c.016.069,1.538,6.845,3.2,9.409Z" transform="translate(-50.543 -136.858)" fill="#fff"/>
          <path id="Trazado_104468" data-name="Trazado 104468" d="M68.846,186.024l-.244-.6c2.582-1.053,7.566-.365,7.777-.335l-.09.64C76.239,185.724,71.267,185.038,68.846,186.024Z" transform="translate(-50.934 -146.852)" fill="#fff"/>
          <path id="Trazado_104469" data-name="Trazado 104469" d="M95.238,192.612c-1.476-3.421-.617-8.754-.58-8.979l.638.105c-.009.053-.863,5.372.536,8.618Z" transform="translate(-61.864 -146.34)" fill="#fff"/>
          <g id="Grupo_54241" data-name="Grupo 54241" transform="translate(12.764)">
            <path id="Trazado_104470" data-name="Trazado 104470" d="M122.442,189.252s-7.009-19.476-6.133-38.357-4.672-33.058-13.725-31.957-16.938,35.27,17.522,72.358Z" transform="translate(-74.816 -118.879)" fill="#17c878"/>
            <path id="Trazado_104471" data-name="Trazado 104471" d="M127.7,207.931l.7-.443c-.127-.2-12.723-20.5-13.21-42.892l-.832.018C114.859,187.241,127.576,207.726,127.7,207.931Z" transform="translate(-83.105 -138.266)" fill="#fff"/>
            <path id="Trazado_104472" data-name="Trazado 104472" d="M106.133,227.563s-12.566-6.551-25.455-7.7-22-6.218-20.413-12.258,25.488-8.238,47.47,18.559Z" transform="translate(-60.086 -154.871)" fill="#15a564"/>
            <path id="Trazado_104473" data-name="Trazado 104473" d="M118.425,232.255l.533-.639c-.127-.106-12.879-10.645-28.218-13.071l-.13.822C105.717,221.756,118.3,232.15,118.425,232.255Z" transform="translate(-73.03 -161.145)" fill="#fff"/>
          </g>
        </g>
        <g id="Grupo_54245" data-name="Grupo 54245" transform="translate(183.866)">
          <g id="Grupo_54243" data-name="Grupo 54243" transform="translate(14.452 11.601)">
            <path id="Trazado_104474" data-name="Trazado 104474" d="M389.855,164.355l-2.867-2.76a50.751,50.751,0,0,1,17.065-18.451l2.395,1.461-.905-2.33q1.286-.714,2.585-1.284l3.667,3.737-1.18-4.693a17.277,17.277,0,0,1,8.069-.843,10.818,10.818,0,0,1,6.429,3.494,11.826,11.826,0,0,1,2.855,5.673,14.028,14.028,0,0,1,.261,3.179,17.8,17.8,0,0,1-.436,3.366c-1.019,4.57-3.768,9.485-7.688,14.089l-4.5-1.527,2.19,4.071c-.964.983-1.981,1.954-3.043,2.885l-1.964-1.914.5,3.162q-.638.524-1.294,1.031c-7.87,6.071-15.087,8.258-20.356,8.9a24.726,24.726,0,0,1-8.578-.232s-3.006-9,2.785-21.481Z" transform="translate(-382.273 -139.021)" fill="#f1d54e"/>
          </g>
          <rect id="Rect치ngulo_30990" data-name="Rect치ngulo 30990" width="45.187" height="0.647" transform="translate(17.605 54.235) rotate(-43.071)" fill="#fff"/>
          <path id="Trazado_104475" data-name="Trazado 104475" d="M426.217,171.035c1.723-2.661,3.222-9.337,3.285-9.62l-.631-.141c-.016.069-1.538,6.845-3.2,9.409Z" transform="translate(-386.226 -136.858)" fill="#fff"/>
          <path id="Trazado_104476" data-name="Trazado 104476" d="M425.427,186.024l.244-.6c-2.582-1.053-7.566-.365-7.777-.335l.09.64C418.035,185.724,423.006,185.038,425.427,186.024Z" transform="translate(-382.927 -146.852)" fill="#fff"/>
          <path id="Trazado_104477" data-name="Trazado 104477" d="M403.689,192.612c1.476-3.421.617-8.754.58-8.979l-.638.105c.009.053.863,5.372-.536,8.618Z" transform="translate(-376.651 -146.34)" fill="#fff"/>
          <g id="Grupo_54244" data-name="Grupo 54244">
            <path id="Trazado_104478" data-name="Trazado 104478" d="M357.218,189.252s7.009-19.476,6.133-38.357,4.672-33.058,13.725-31.957,16.938,35.27-17.522,72.358Z" transform="translate(-357.196 -118.879)" fill="#17c878"/>
            <path id="Trazado_104479" data-name="Trazado 104479" d="M361.955,207.931l-.7-.443c.127-.2,12.723-20.5,13.21-42.892l.832.018C374.8,187.241,362.084,207.726,361.955,207.931Z" transform="translate(-358.906 -138.266)" fill="#fff"/>
            <path id="Trazado_104480" data-name="Trazado 104480" d="M358.781,227.563s12.565-6.551,25.455-7.7,22-6.218,20.413-12.258-25.488-8.238-47.47,18.559Z" transform="translate(-357.179 -154.871)" fill="#127c4c"/>
            <path id="Trazado_104481" data-name="Trazado 104481" d="M360.7,232.255l-.533-.639c.127-.106,12.879-10.645,28.218-13.071l.13.822C373.409,221.756,360.826,232.15,360.7,232.255Z" transform="translate(-358.446 -161.145)" fill="#fff"/>
          </g>
        </g>
      </g>
      <g id="Grupo_54263" data-name="Grupo 54263" transform="translate(47.895 41.222)">
        <g id="Grupo_54248" data-name="Grupo 54248" transform="translate(95.528 194.973)">
          <g id="Grupo_54247" data-name="Grupo 54247" transform="translate(0 3.116)">
            <path id="Trazado_104482" data-name="Trazado 104482" d="M246.87,416.867l7.518-31.694H221.108l8.119,31.91h.1c.506.811,4.223,1.441,8.741,1.441s8.235-.63,8.741-1.441h.006l0-.01a.352.352,0,0,0,.056-.179C246.877,416.884,246.87,416.876,246.87,416.867Z" transform="translate(-221.108 -385.173)" fill="#bdcca8"/>
            <path id="Trazado_104483" data-name="Trazado 104483" d="M221.108,385.173l8.119,31.91h.1c.506.811,4.223,1.441,8.741,1.441.678,0,1.336-.016,1.97-.043l-6.411-33.308Z" transform="translate(-221.108 -385.173)" fill="#d1e2b9"/>
          </g>
          <path id="Trazado_104548" data-name="Trazado 104548" d="M16.639,0c9.19,0,16.639,1.439,16.639,3.214s-7.45,3.214-16.639,3.214S0,4.99,0,3.214,7.45,0,16.639,0Z" transform="translate(0)" fill="#12263f"/>
        </g>
        <g id="Grupo_54249" data-name="Grupo 54249" transform="translate(37.601 9.924)">
          <path id="Trazado_104547" data-name="Trazado 104547" d="M74.567,0A74.567,74.567,0,1,1,0,74.567,74.567,74.567,0,0,1,74.567,0Z" transform="translate(0)" fill="#e2f6c6"/>
          <path id="Trazado_104484" data-name="Trazado 104484" d="M266.757,155.293C255,174.228,257.8,186.424,266.757,155.293Z" transform="translate(-120.526 -60.065)" fill="#d1e2b9"/>
          <path id="Trazado_104485" data-name="Trazado 104485" d="M226.4,79.844c-2.968-.921-5.117-1.21-6.857-2.191A10.22,10.22,0,0,0,214.73,76c-1.33.056-4.094-.67-5.732,0s-3.371,4.042-5.881,4.659-8.815-.714-10.576-1.84a4.035,4.035,0,0,1-1.755-4.5,9.484,9.484,0,0,0,.608-3.87c-.1-.735,2.559-2.179,3.48-3.146s1.792-4.117-.387-5.692a74.234,74.234,0,0,0-28.334,13.1,4.582,4.582,0,0,0,.678,1.755c.614,1.023-.371,1.637-.339,1.944s.58.272.1.852.009.478-.44.887a13,13,0,0,1-1.165,1.023c-.307.205-.205.819-.819,1.535s-1.74,1.33-1.74,2.456-1.74,2.661-1.944,3.275-1.945,2.968-2.047,4.5a27.093,27.093,0,0,0,0,4.094,9.634,9.634,0,0,1-.077,3.071,23.9,23.9,0,0,0-.537,4.2c-.1,2.047.716,2.968,2.661,3.582s5.623,2.354,6.547,3.684,1.436,2.968,2.152,3.173,1.33,2.354,3.685,3.992,6.755,1.845,8.7,3.942,5.527,7.207,6.448,10.025,2.456,3.856,4.094,5.231,3.685,2.91,5.22,3.011,2.161-.541,2.1-1.089-2-2.186-2.309-2.6-.921-3.173-1.842-5.118-1.023-2.024-.716-2.957.921-2.976,1.842-3.49,1.637-.139,2.252-1.042a2.981,2.981,0,0,0,.773-1.977c-.057-.564-.978-.914-1.9-1s-1.228-.9-2.456-1.1-2.968-.716-3.378-1.433a1.932,1.932,0,0,0-1.944-.819,4.18,4.18,0,0,1-3.685-.818c-1.228-1.228-1.33-3.582-1.535-4.811s-.409-1.637-.1-2.559.307-1.643,1.74-2.305,3.787-1.18,5.22,0,4.3.259,4.913-.458,2.354-2.866,3.787-2.968,3.787,0,4.708-.819,4.4-2.545,5.015-3.934,2.968-5.416,2.968-6.728,4.3-3.871,5.527-3.462,2.866-1.535,3.48-1.535,2.456.307,3.48-.921,1.842-2.053,2.661-3.227S229.366,80.765,226.4,79.844Z" transform="translate(-136.34 -59.791)" fill="#15a564"/>
          <path id="Trazado_104486" data-name="Trazado 104486" d="M256.189,233.058a54.178,54.178,0,0,0-6.383-3.4c-2.933-1.235-5.093-5.6-5.865-6.506s-1.389-8.772,0-10.161a33.631,33.631,0,0,0,3.94-5.555c1.153-1.852,1.616-3.086,1.153-3.858s-.463-5.153,0-5.895,2.778-2.13,3.858-1.976,4.475-.8,5.864-.012,6.636,3.557,8.95,3.714,4.63,2.163,6.481,1.082,4.57.154,6.143,2.469a19.4,19.4,0,0,0,6.048,6.193c2.623,1.523,2.4,2.912,3.9,3.221a22.048,22.048,0,0,1,6.679,2.469c1.819,1.245,1.222,2.778-.279,4.63s-3.37,4.784-4.6,6.636-.78,4.629,0,5.4.162,4.012-.917,4.939-3.4,2.469-4.321,4.166-.837,2.957-2.964,3.716-6.912,2.92-9.844,3.615-5.4.859-7.408,2.551-2.289,6.288-4.177,7.077-7.551,4.333-9.712,4.1-2.157-.661-.924-2.22,4.353-4.3,6.112-6.805-.558-4.919.985-5.932,1.813-4.022,2.3-4.909S261.559,236,256.189,233.058Z" transform="translate(-172.514 -116.523)" fill="#15a564"/>
          <path id="Trazado_104487" data-name="Trazado 104487" d="M334.472,118.513c.308.629,1.954,1.349,3.189,1.966s2.395-.332,2.895-1.966,2.661-1.943,3.792-1.326a4.928,4.928,0,0,0,3.189.72c.813-.2,2.388-.809,2.429-.824a74.764,74.764,0,0,0-21.541-29.111,16.066,16.066,0,0,1-2.183,2.471,7.7,7.7,0,0,0-2.017,2.876c-.349.72-1.378,3.806-.966,5.144s.24,2.263,1.766,3.4,2.884,1.516,2.2,3.587-.164,4.284-.885,5.389a3.712,3.712,0,0,0,.885,4.706c1.687,1.44,3.848,1.132,4.363,1.234S334.163,117.884,334.472,118.513Z" transform="translate(-206.46 -70.971)" fill="#15a564"/>
          <path id="Trazado_104488" data-name="Trazado 104488" d="M252.9,164.409a3.44,3.44,0,0,1-1.029,2.34c-1.029.926-2.057,2.572-1.029,2.778a22.243,22.243,0,0,1,3.7.82c.514.311,3.189,1.751,3.909,1.237s1.234-1.749,1.955-1.852.926-1.927,1.543-2.507,2.778-2.637,2.984-4.283.411-4.116,0-4.732-3.293-1.029-3.6-1.852-2.144-1.44-3.541-.617-2.015,2.675-2.221,4.012S252.8,162.069,252.9,164.409Z" transform="translate(-175.611 -99.546)" fill="#15a564"/>
          <path id="Trazado_104489" data-name="Trazado 104489" d="M276.717,173.2a16.243,16.243,0,0,0-2.064,2.311c-.85,1.211,1.457.6,2.064.725s.729,1,1.943.681a6.859,6.859,0,0,0,1.214-.317,9.24,9.24,0,0,1,2.55-.365c1.093-.121.878-.915,1.471-1.611a1.229,1.229,0,0,0,0-1.91c-.621-.607-.985,1.214-2.2,0s-1.174-2.258-2.287-1.736-.824.7-1.333,1.16S276.717,173.2,276.717,173.2Z" transform="translate(-185.809 -106.113)" fill="#15a564"/>
        </g>
        <path id="Trazado_104490" data-name="Trazado 104490" d="M241.054,234.388c-20.929-.427-41.1,15.449-43.613,31.944-2.511-16.495-22.684-32.371-43.613-31.944a43.445,43.445,0,0,1-27.765-8.912,74.588,74.588,0,0,0,142.755,0A43.445,43.445,0,0,1,241.054,234.388Z" transform="translate(-85.274 -119.36)" fill="#727997" opacity="0.13" style="mix-blend-mode: multiply;isolation: isolate"/>
        <path id="Trazado_104491" data-name="Trazado 104491" d="M240.8,246.111c-20.929-.427-41.1,15.449-43.613,31.944-2.511-16.495-22.684-32.371-43.613-31.944-17.555.359-28.115-9.21-28.115-9.21,6.183,46.683,33.66,53.273,52.755,51.922a15.82,15.82,0,0,1,16.935,15.785v18.85h4.076v-18.85a15.82,15.82,0,0,1,16.935-15.785c19.095,1.351,46.572-5.239,52.755-51.922C268.911,236.9,258.351,246.47,240.8,246.111Z" transform="translate(-85.015 -124.205)" fill="#26e690"/>
        <path id="Trazado_104492" data-name="Trazado 104492" d="M219.519,303.511c15.954,1.147,37.794-3.24,48.163-31.961a44.741,44.741,0,0,1-23.452,5.971c-20.929-.427-41.1,15.449-43.613,31.944-2.511-16.495-22.684-32.371-43.613-31.944a44.747,44.747,0,0,1-23.452-5.97c10.369,28.721,32.21,33.107,48.163,31.961a15.832,15.832,0,0,1,16.863,15.852v18.788h0a4.292,4.292,0,0,0,3.908.081l.168-.081V319.363A15.832,15.832,0,0,1,219.519,303.511Z" transform="translate(-88.45 -138.899)" fill="#17c878"/>
      </g>
      <path id="Trazado_104505" data-name="Trazado 104505" d="M356.143,446.148a15.934,15.934,0,0,1,3,4.493c1.165,2.679,2.374,6.419,3.314,7.339s2.7.18,3.006-1.344,1.528-13.078,1.135-16.192-.644-4.074-1.062-4.245a77.24,77.24,0,0,0-8.132-.163C355.819,436.125,352.5,441.87,356.143,446.148Z" transform="translate(-79.921 -173.138)" fill="#bf7726"/>
      <g id="Grupo_54265" data-name="Grupo 54265" transform="translate(214.6 148.9)">
        <path id="Trazado_104506" data-name="Trazado 104506" d="M292.65,358.35s5.51,17.357,5.028,18.091c-1.2,1.822-10.784,12.075-10.784,12.075l4.713,2.863s14.073-11.117,13.449-16.83l-6.733-17.777Z" transform="translate(-279.221 -304.11)" fill="#ffd4a5"/>
        <g id="Grupo_54264" data-name="Grupo 54264" transform="translate(0 73.619)">
          <path id="Trazado_104507" data-name="Trazado 104507" d="M315.479,398.29s-24.23-16.457-31.64-14.222-7.51,6.844-6.261,9.745,24.41,36.712,24.41,36.712l7.663-1.167-9.459-17.178a2.159,2.159,0,0,1,3.045-2.319l2.37,1.111,13.04-4.152Z" transform="translate(-276.977 -383.859)" fill="#12263f"/>
        </g>
        <path id="Trazado_104508" data-name="Trazado 104508" d="M330.849,305.927a11.115,11.115,0,0,0-7.185-6.785,8.213,8.213,0,0,0-14.941-4.74,11.263,11.263,0,0,0-2.82.248,11.364,11.364,0,1,0-7.629,16.544c2.555,4.7,7.694,8.255,12.9,6.651,2.9,3.738,8.405,4.119,13.08,2.4A11.145,11.145,0,0,0,330.849,305.927Z" transform="translate(-278.692 -288.707)" fill="#12263f"/>
        <path id="Trazado_104509" data-name="Trazado 104509" d="M339.509,391.685s2.581,14.624-6.309,19.5-28.9,12.094-28.9,12.094l35.733,2.255-1.637,10.99s-51.937-.965-57.386-8.133,29.01-31.538,29.01-31.538Z" transform="translate(-277.758 -312.011)" fill="#12263f"/>
        <path id="Trazado_104510" data-name="Trazado 104510" d="M308.376,322.849s-9.139.419-11.747,8.242c-3.462,10.384.139,22.765,11.258,34.139,2.5,2.562,5.58,12.463,5.516,16.044,0,0,26.009-.386,29.486-5.167C342.889,376.107,334.407,329.491,308.376,322.849Z" transform="translate(-281.138 -296.433)" fill="#e38e2f"/>
        <path id="Trazado_104511" data-name="Trazado 104511" d="M297.647,329.437s-6.788,6.045-6.2,25.632c0,0,6.073-.849,6.646-3.716Z" transform="translate(-280.243 -297.924)" fill="#e38e2f"/>
        <path id="Trazado_104512" data-name="Trazado 104512" d="M327.866,353.645l-9.94,1.339s5.163,9.511,5.545,10.85-22.749,23.322-22.749,23.322-2.217,1.864-2.58,2.211v0a5.992,5.992,0,0,0-1.058,1.275,8.783,8.783,0,0,0-1.269,2.992c-.181.907.317,1.269.726,1.269s.952-.725.952-.725a2.964,2.964,0,0,0,0,1.314c.181.5,1.52-.318,1.858-1.133,0,0,.007,1.77.389,1.814s1.061-.454,1.2-1.633a11.211,11.211,0,0,0,3.284-2.357l.494-1.381c3.957-2.966,22.753-17.156,25.828-21.428C333.985,366.6,327.866,353.645,327.866,353.645Z" transform="translate(-281.231 -303.403)" fill="#ffd4a5"/>
        <path id="Trazado_104513" data-name="Trazado 104513" d="M290.628,310.87a14.4,14.4,0,0,1-.632-7.683c.922-3.749,6.194-4.994,10.09-1.747a15.6,15.6,0,0,1,4.428,5.448,1.612,1.612,0,0,1,1.92-.819c1.931.321,1.341,4.877-1.178,5.3a8.553,8.553,0,0,1-.84,3.154c1.318,2.846,1.088,3.875,1.088,3.875-.914,3.48-2.207,7.1-4.356,6.764s-.888-2.779-.746-3.908a1.009,1.009,0,0,0-.765-1.264C294.406,321.615,290.628,310.87,290.628,310.87Z" transform="translate(-279.857 -291.166)" fill="#ffd4a5"/>
        <path id="Trazado_104514" data-name="Trazado 104514" d="M290.691,299.146s7.956,6.787,10.908,5.129C301.6,304.275,296.529,291.885,290.691,299.146Z" transform="translate(-280.08 -290.553)" fill="#12263f"/>
        <path id="Trazado_104515" data-name="Trazado 104515" d="M309.17,405.571s-17.441,9.814-19.428,12.1" transform="translate(-279.866 -315.153)" fill="none" stroke="#fff" stroke-miterlimit="10" stroke-width="0.96"/>
        <path id="Trazado_104516" data-name="Trazado 104516" d="M312.182,322.849s15.682,3.506,21.7,21.858a15.666,15.666,0,0,1-14.911,4.015S314.768,332.612,312.182,322.849Z" transform="translate(-284.944 -296.433)" fill="#e38e2f"/>
        <path id="Trazado_104517" data-name="Trazado 104517" d="M290.287,298.459s-1.561,10.341-4.877,11.024C285.41,309.483,281.118,296.8,290.287,298.459Z" transform="translate(-278.658 -290.88)" fill="#12263f"/>
      </g>
      <path id="Trazado_104545" data-name="Trazado 104545" d="M230.847,403.121l.017,0a.823.823,0,0,0,.7-1l-1.289-5.752a.832.832,0,0,0-1.624.364l1.289,5.751A.823.823,0,0,0,230.847,403.121Z" transform="translate(-80.877 -150.335)" fill="#fff"/>
      <path id="Trazado_104546" data-name="Trazado 104546" d="M233.38,413.6l-.016,0a.824.824,0,0,0-.7,1l2.644,11.8a.832.832,0,0,0,1.624-.364l-2.643-11.794A.824.824,0,0,0,233.38,413.6Z" transform="translate(-82.575 -157.915)" fill="#fff"/>
    </g>
    <g id="Grupo_54239" data-name="Grupo 54239" transform="translate(824.011 1007.951)">
      <g id="Grupo_54236" data-name="Grupo 54236" transform="translate(148.79 86.61)">
        <path id="Trazado_104414" data-name="Trazado 104414" d="M483.727,669.708l7.767,4.653.393-.884-6.089-3.634,7.169.491-.1-.884-6.875-.393,4.518-1.277-.786-.589-5.893,1.768-.107.749Z" transform="translate(-434.437 -581.752)" fill="#fb9e36"/>
        <path id="Trazado_104415" data-name="Trazado 104415" d="M366.269,691.436l5.706,6.42.589-.687-4.321-4.91,6.58,1.178.1-1.08-6.482-.982,5.5-1.375-.687-.786-6.383,1.768-.6.454Z" transform="translate(-334.265 -600.533)" fill="#fb9e36"/>
        <path id="Trazado_104416" data-name="Trazado 104416" d="M360.041,594.105l.917,16.107.917.131.524-16.369Z" transform="translate(-328.952 -519.309)" fill="#fb9e36"/>
        <path id="Trazado_104417" data-name="Trazado 104417" d="M477.5,574.083l.917,16.107.917.131.524-16.369Z" transform="translate(-429.125 -502.233)" fill="#fb9e36"/>
        <path id="Trazado_104418" data-name="Trazado 104418" d="M333.97,515.1,321.333,513c1.258,4.26.851,9.321,3.486,13.16,1.22,1.777,3.107,3,5.273,2.078,1.941-.827,2.308-3.557,2.748-5.4.612-2.557.5-5.378,1.33-7.852C334.114,515.09,334.057,515.047,333.97,515.1Z" transform="translate(-295.941 -450.252)" fill="#f1d54e"/>
        <path id="Trazado_104419" data-name="Trazado 104419" d="M449.648,518.655l-12.637-2.1c1.258,4.26.851,9.322,3.487,13.16,1.22,1.777,3.107,3,5.273,2.078,1.941-.827,2.308-3.557,2.748-5.4.612-2.557.5-5.378,1.33-7.852C449.792,518.649,449.735,518.606,449.648,518.655Z" transform="translate(-394.596 -453.287)" fill="#f1d54e"/>
        <path id="Trazado_104420" data-name="Trazado 104420" d="M151.855,294.9s-3.536-5.369-3.012-5.369,4.845.131,4.845.131l-1.7-5.893,7.071,1.44-2.619-5.369,6.94-1.31.655,9.559Z" transform="translate(-148.79 -250.286)" fill="#fb9e36"/>
        <path id="Trazado_104421" data-name="Trazado 104421" d="M174.155,141.982l32.738,2.1s7.2-19.247,13.75-22.523c4.19-2.1,15.845-.655,15.714,9.3-.092,6.959-1.015,35.9-9.3,43.607-13.1,12.178-30.511,10.869-42.559,7.6-19.2-5.217-26.452-23.309-26.452-23.309l3.667-.393-2.357-5.238,6.678.393-1.964-5.762,5.107,1.31-1.571-7.333Z" transform="translate(-156.686 -115.702)" fill="#f1d54e"/>
        <path id="Trazado_104422" data-name="Trazado 104422" d="M285.294,332.177s11.463-7.783,20.952-9.952c9.167-2.1,19.161,7.574,12.833,14.536-6.548,7.2-26.452,5.762-26.452,5.762l2.1-4.714-6.548-.131,2.357-4.976Z" transform="translate(-265.206 -287.303)" fill="#ddc347"/>
        <path id="Trazado_104423" data-name="Trazado 104423" d="M558.764,95.6s2.084-2.331,7.857-2.881c5.5-.524,7.6,1.178,7.6,1.178s-.071-6.423-2.881-7.071c-3.4-.786-3.667.786-3.667.786s-.786-1.44-2.881-.655a3.372,3.372,0,0,0-2.357,2.226,3.366,3.366,0,0,0-2.881.786C558.24,91.152,558.764,95.6,558.764,95.6Z" transform="translate(-498.342 -86.61)" fill="#fb9e36"/>
        <path id="Trazado_104424" data-name="Trazado 104424" d="M681.905,178.868a11.55,11.55,0,0,0-.7,3.536,7.384,7.384,0,0,0,.8,3.667s6.265-2.488,6.265-3.667S681.905,178.868,681.905,178.868Z" transform="translate(-602.85 -165.291)" fill="#fb9e36"/>
        <path id="Trazado_104425" data-name="Trazado 104425" d="M632.828,162.878a.917.917,0,1,1-.917-.917A.917.917,0,0,1,632.828,162.878Z" transform="translate(-560.032 -150.872)" fill="#564336"/>
        <path id="Trazado_104426" data-name="Trazado 104426" d="M679.858,159.7a.851.851,0,1,1-.851-.851A.851.851,0,0,1,679.858,159.7Z" transform="translate(-600.253 -148.216)" fill="#564336"/>
        <path id="Trazado_104427" data-name="Trazado 104427" d="M565.566,109.08a1.234,1.234,0,0,0-.6.375,2.06,2.06,0,0,0-.823,2.826c.584-.6.612-1.108,1.557-1.368.557-.153,1.422-.283,1.441-1.046C567.161,109.06,566.193,108.9,565.566,109.08Z" transform="translate(-502.792 -105.718)" fill="#ffd4a5"/>
        <path id="Trazado_104428" data-name="Trazado 104428" d="M593.158,91.639a2.468,2.468,0,0,0-1.805.733,1.2,1.2,0,0,0-.5.9c-.031,1.269,1.538.331,2.126.016C593.739,92.885,594.546,91.765,593.158,91.639Z" transform="translate(-525.797 -90.895)" fill="#ffd4a5"/>
        <path id="Trazado_104429" data-name="Trazado 104429" d="M541.1,258.781l2.848-2.259-.982-.884-.982,1.178-.2-1.375h-1.277Z" transform="translate(-482.864 -230.596)" fill="#ddc347"/>
        <path id="Trazado_104430" data-name="Trazado 104430" d="M576.47,371.562l2.848-2.259-.982-.884-.982,1.178-.2-1.375H575.88Z" transform="translate(-513.029 -326.78)" fill="#ddc347"/>
        <path id="Trazado_104431" data-name="Trazado 104431" d="M589.894,262.115l.837,5.5,3.489-4.248-1.661-.427-.862,1.433-.443-2.117Z" transform="translate(-524.98 -236.287)" fill="#ddc347"/>
        <path id="Trazado_104432" data-name="Trazado 104432" d="M622.169,384.387l.805,4.754,3.192-4.475-1.686-.313-.762,1.489-.586-2.082Z" transform="translate(-552.505 -340.029)" fill="#ddc347"/>
        <path id="Trazado_104433" data-name="Trazado 104433" d="M644.854,325.6l1.38,4.62,2.622-4.831-1.712-.1-.575,1.57-.836-1.995Z" transform="translate(-571.852 -289.802)" fill="#ddc347"/>
        <path id="Trazado_104434" data-name="Trazado 104434" d="M604.935,321.374l1.38,4.62,2.622-4.831-1.712-.1-.575,1.57-.836-1.995Z" transform="translate(-537.807 -286.194)" fill="#ddc347"/>
        <path id="Trazado_104435" data-name="Trazado 104435" d="M556.887,303.356l1.38,4.62,2.622-4.831-1.712-.1-.575,1.571-.836-1.995Z" transform="translate(-496.83 -270.827)" fill="#ddc347"/>
        <path id="Trazado_104436" data-name="Trazado 104436" d="M635.554,280.5l1.342,4.283,2.494-4.479-1.6-.092-.6,1.464-.395-1.534Z" transform="translate(-563.921 -251.665)" fill="#ddc347"/>
        <path id="Trazado_104437" data-name="Trazado 104437" d="M582.3,428.561l-.478,4.463,4.074-3.112-1.427-.721-1.138,1.1.25-1.564Z" transform="translate(-518.095 -378.238)" fill="#ddc347"/>
        <path id="Trazado_104438" data-name="Trazado 104438" d="M402.452,338.86l-2.75,2.946,4.419.1-.786-1.179-1.375.2,1.08-1.178Z" transform="translate(-362.777 -301.738)" fill="#f1d54e"/>
        <path id="Trazado_104439" data-name="Trazado 104439" d="M413.149,373.561l-3.437,2.161,4.714,1.08-.491-.982-1.571-.393,1.179-.687Z" transform="translate(-371.314 -331.333)" fill="#f1d54e"/>
        <path id="Trazado_104440" data-name="Trazado 104440" d="M431.815,414.27l-2.75,1.964,4.027,1.08-.393-1.179-1.67-.2,1.277-.491Z" transform="translate(-387.819 -366.05)" fill="#f1d54e"/>
        <path id="Trazado_104441" data-name="Trazado 104441" d="M366.964,351.539,365,353.8l2.946.295-.1-1.08h-1.08l.589-.687Z" transform="translate(-333.182 -312.551)" fill="#f1d54e"/>
        <path id="Trazado_104442" data-name="Trazado 104442" d="M371.557,381.57,369,383.338l4.223.982-.393-1.179h-1.571l1.08-.884Z" transform="translate(-336.597 -338.163)" fill="#f1d54e"/>
        <path id="Trazado_104443" data-name="Trazado 104443" d="M386.337,414.27l-2.652,2.553,4.419.786-.393-1.277-1.768-.1,1.178-.786Z" transform="translate(-349.118 -366.05)" fill="#f1d54e"/>
        <path id="Trazado_104444" data-name="Trazado 104444" d="M437.035,326.18l-1.964,2.259,3.143.589-.393-1.08h-.982l.491-.786Z" transform="translate(-392.941 -290.924)" fill="#f1d54e"/>
        <path id="Trazado_104445" data-name="Trazado 104445" d="M453.739,362.217l-2.652,2.652,3.83.687-.393-1.08h-1.571l1.277-.884Z" transform="translate(-406.6 -321.658)" fill="#f1d54e"/>
        <path id="Trazado_104446" data-name="Trazado 104446" d="M468.048,399.588l-2.946,2.553,4.026.589-.393-1.277h-1.473l.982-.884Z" transform="translate(-418.552 -353.529)" fill="#f1d54e"/>
      </g>
      <g id="Grupo_54237" data-name="Grupo 54237" transform="translate(221.485 156.7)">
        <path id="Trazado_104447" data-name="Trazado 104447" d="M681.39,672.431l.348,6.11.348.05.2-6.209Z" transform="translate(-675.705 -656.267)" fill="#fb9e36"/>
        <path id="Trazado_104448" data-name="Trazado 104448" d="M705.89,678.431l.348,6.11.348.05.2-6.209Z" transform="translate(-696.6 -661.384)" fill="#fb9e36"/>
        <path id="Trazado_104449" data-name="Trazado 104449" d="M651.4,579.792a3.72,3.72,0,0,0-4.268-3.8c-3.385.265-4.04,3.961-4.275,6.152-.562,5.234,1.309,10.4,6.924,11.483,4.427.855,8.769-.98,9.569-5.891a6.692,6.692,0,0,0-2.093-6.027c-1.112-1.14-4.459-2.637-5.857-1.773Z" transform="translate(-642.764 -574.053)" fill="#ffe35c"/>
        <path id="Trazado_104450" data-name="Trazado 104450" d="M681.985,624.965a3.281,3.281,0,0,0-.221,4.709,9.876,9.876,0,0,0,4.194,2.207l-.368-1.03,2.281.147-.883-1.324,1.251-.221S686.032,622.316,681.985,624.965Z" transform="translate(-675.259 -615.326)" fill="#ffefa2"/>
        <path id="Trazado_104451" data-name="Trazado 104451" d="M666.965,565.015l2.134-2.134-.147.957,1.766-.368-.589.809.441.074-.736,1.472Z" transform="translate(-663.403 -562.881)" fill="#ffefa2"/>
        <path id="Trazado_104452" data-name="Trazado 104452" d="M648.317,579.187c-.7-.413-1.84-.669-1.951-.335s.527,1.884.862,1.884C647.842,580.737,648.97,579.573,648.317,579.187Z" transform="translate(-645.825 -576.371)" fill="#fb9e36"/>
        <path id="Trazado_104453" data-name="Trazado 104453" d="M673.446,585.59a.438.438,0,1,1-.438-.438A.438.438,0,0,1,673.446,585.59Z" transform="translate(-668.183 -581.875)" fill="#564336"/>
        <path id="Trazado_104454" data-name="Trazado 104454" d="M661.225,576.98a.328.328,0,1,1-.328-.328A.328.328,0,0,1,661.225,576.98Z" transform="translate(-657.949 -574.625)" fill="#564336"/>
        <path id="Trazado_104455" data-name="Trazado 104455" d="M669.584,708.607l-1.766-.392-.1.245,1.472.491-2.06.245.049.441,2.158-.245-1.373,1.079.491.147,1.469-1.468Z" transform="translate(-663.545 -686.827)" fill="#fb9e36"/>
        <path id="Trazado_104456" data-name="Trazado 104456" d="M694.251,713.94l-1.766-.392-.1.245,1.472.491-2.06.245.049.442,2.158-.245-1.374,1.079.491.147,1.469-1.468Z" transform="translate(-684.582 -691.375)" fill="#fb9e36"/>
      </g>
      <g id="Grupo_54238" data-name="Grupo 54238" transform="translate(240.813 161.332)">
        <path id="Trazado_104457" data-name="Trazado 104457" d="M800.89,679.431l.348,6.11.348.049.2-6.209Z" transform="translate(-796.947 -666.869)" fill="#fb9e36"/>
        <path id="Trazado_104458" data-name="Trazado 104458" d="M838.89,674.431l.348,6.11.348.05.2-6.209Z" transform="translate(-829.355 -662.604)" fill="#fb9e36"/>
        <path id="Trazado_104459" data-name="Trazado 104459" d="M785.119,594.655c-5.666-1.1-10.723.7-11.013,8.168-.2,5.053,6.349,8.725,10.775,5.741l.425-.119c.11.069.246.119.363.2,3.4,2.466,9.093,1.321,8.246-3.842C793.148,600.136,789.783,595.564,785.119,594.655Z" transform="translate(-774.102 -594.358)" fill="#ffe35c"/>
        <path id="Trazado_104460" data-name="Trazado 104460" d="M812.065,628.722a3.281,3.281,0,0,1-4,2.5,9.875,9.875,0,0,1-3.981-2.572l1.078-.185-1.247-1.916,1.587.12-.421-1.2S812.389,623.9,812.065,628.722Z" transform="translate(-799.532 -620.684)" fill="#ffefa2"/>
        <path id="Trazado_104461" data-name="Trazado 104461" d="M902.852,676.66l2.061.263-.633-.892,1.422-1.469-2.086.738Z" transform="translate(-883.905 -662.758)" fill="#ffefa2"/>
        <path id="Trazado_104462" data-name="Trazado 104462" d="M872.81,696.135c.141.8.691,1.832,1.017,1.7s1.086-1.628.868-1.881C874.3,695.486,872.678,695.388,872.81,696.135Z" transform="translate(-858.277 -680.691)" fill="#fb9e36"/>
        <path id="Trazado_104463" data-name="Trazado 104463" d="M878.53,680.34a.438.438,0,1,1-.438-.438A.438.438,0,0,1,878.53,680.34Z" transform="translate(-862.414 -667.313)" fill="#564336"/>
        <path id="Trazado_104464" data-name="Trazado 104464" d="M803.6,715.61l1.121,1.449.334-.275-.937-1.236,2.075.37.037-.368-1.984-.45,1.579-.323-.158-.19-2.042.381Z" transform="translate(-799.256 -696.894)" fill="#fb9e36"/>
        <path id="Trazado_104465" data-name="Trazado 104465" d="M841.373,711.005l1.02,1.318.3-.25-.852-1.124,1.887.337.033-.335-1.8-.409,1.436-.293-.143-.173-1.857.346Z" transform="translate(-831.473 -693.047)" fill="#fb9e36"/>
      </g>
    </g>
  </g>
</svg>
