<svg xmlns="http://www.w3.org/2000/svg" width="47.844" height="45.954" viewBox="0 0 47.844 45.954">
  <g id="pulmones" transform="translate(0 -9.48)">
    <path id="Trazado_105620" data-name="Trazado 105620" d="M285.081,150.653c-1.524-4.446-1.042-10.718-.174-15.764a2.366,2.366,0,0,1,2.383-1.978c13.529.372,17.5,16.337,14.674,30.073a2.368,2.368,0,0,1-1.657,1.8,26.475,26.475,0,0,1-14.134.034,2.383,2.383,0,0,1-1.713-1.979A34.244,34.244,0,0,1,285.081,150.653Z" transform="translate(-255.771 -111.125)" fill="#17c878"/>
    <path id="Trazado_105622" data-name="Trazado 105622" d="M26.006,149.649c-.2.744-.312,1-.3,1a34.177,34.177,0,0,1,.622,12.19,2.383,2.383,0,0,1-1.713,1.979,26.475,26.475,0,0,1-14.134-.034,2.368,2.368,0,0,1-1.657-1.8c-2.829-13.737,1.144-29.7,14.674-30.073a2.366,2.366,0,0,1,2.383,1.978C26.646,139.354,27.18,145.232,26.006,149.649Z" transform="translate(-7.169 -111.125)" fill="#17c878"/>
    <path id="Trazado_105623" data-name="Trazado 105623" d="M164.819,40.312l-1.492,2.269a.8.8,0,0,1-1.2.155,10.011,10.011,0,0,0-6.516-2.526,9.853,9.853,0,0,0-6.515,2.536.8.8,0,0,1-1.2-.158l-1.5-2.276a.8.8,0,0,1,.262-1.126c1.995-1.167,4.125-2.442,5.058-4.56C153.59,30.4,153.1,24,152.959,19.326a1.794,1.794,0,0,1,1.794-1.847h1.717a1.794,1.794,0,0,1,1.793,1.847c-.143,4.918-.61,11.115,1.236,15.3.933,2.117,3.064,3.393,5.058,4.56A.8.8,0,0,1,164.819,40.312Z" transform="translate(-131.688 -7.202)" fill="#f1d54e"/>
    <g id="Grupo_54925" data-name="Grupo 54925" transform="translate(0 9.48)">
      <path id="Trazado_105626" data-name="Trazado 105626" d="M19.291,148.1a.8.8,0,0,0-.734.856,30.9,30.9,0,0,1-.19,6.577,1.584,1.584,0,0,1-1.138,1.318,25.792,25.792,0,0,1-13.7-.033,1.565,1.565,0,0,1-1.1-1.2c-1.954-9.49-.525-18.721,3.731-24.092a12.886,12.886,0,0,1,10.184-5.024,1.563,1.563,0,0,1,1.495,1.02.8.8,0,0,0,1.493-.563,3.159,3.159,0,0,0-3.031-2.051c-14.21.39-18.33,16.968-15.433,31.031a3.156,3.156,0,0,0,2.218,2.411,27.432,27.432,0,0,0,14.57.035,3.178,3.178,0,0,0,2.288-2.641,32.463,32.463,0,0,0,.2-6.913.8.8,0,0,0-.856-.734Z" transform="translate(0 -113.403)"/>
      <path id="Trazado_105627" data-name="Trazado 105627" d="M280.781,124.912a3.172,3.172,0,0,0-3,1.972.8.8,0,0,0,1.477.6,1.568,1.568,0,0,1,1.479-.98,12.885,12.885,0,0,1,10.184,5.024c4.255,5.37,5.685,14.6,3.731,24.091a1.565,1.565,0,0,1-1.1,1.2,25.792,25.792,0,0,1-13.7.033,1.584,1.584,0,0,1-1.138-1.318,30.9,30.9,0,0,1-.189-6.587.8.8,0,0,0-1.59-.123,32.475,32.475,0,0,0,.2,6.923,3.178,3.178,0,0,0,2.288,2.64,27.431,27.431,0,0,0,14.57-.035,3.156,3.156,0,0,0,2.218-2.411C299.1,141.92,295.015,125.3,280.781,124.912Z" transform="translate(-249.241 -113.404)"/>
      <path id="Trazado_105628" data-name="Trazado 105628" d="M140.809,27.1c-.945,2.146-3.395,3.4-5.459,4.62a.8.8,0,1,0,.814,1.372c2.325-1.379,4.96-2.751,6.105-5.349,1.338-3.037,1.516-6.869,1.449-10.789h1.037a.8.8,0,0,0,0-1.6h-1.076c-.016-.541-.09-2.719-.106-3.26a1,1,0,0,1,1-1.026h1.716a1,1,0,0,1,1,1.026c-.089,3.035-.265,6.255-.065,9.242h-1.124a.8.8,0,1,0,0,1.6h1.271a17,17,0,0,0,1.222,4.808c1.148,2.6,3.812,3.989,6.105,5.349a.8.8,0,1,0,.813-1.372c-2.067-1.225-4.515-2.478-5.459-4.62a15.451,15.451,0,0,1-1.168-5.011c0-.019,0-.037-.005-.055a74.736,74.736,0,0,1,0-9.889,2.59,2.59,0,0,0-2.591-2.668h-1.716a2.59,2.59,0,0,0-2.591,2.668C142.128,17.279,142.557,23.135,140.809,27.1Z" transform="translate(-121.504 -9.48)"/>
      <path id="Trazado_105629" data-name="Trazado 105629" d="M137.979,239.885c.348,5.094,2.051,10.022,7.054,11.127a.8.8,0,0,0,.344-1.558c-3.239-.715-5.155-3.6-5.709-8.572A8.7,8.7,0,0,1,140.889,242a.8.8,0,0,0,1.184-1.069,10.468,10.468,0,0,0-15.54,0A.8.8,0,1,0,127.718,242a8.744,8.744,0,0,1,1.219-1.1c-.556,4.965-2.472,7.84-5.707,8.555a.8.8,0,0,0,.344,1.558c5.013-1.107,6.708-6.05,7.054-11.125A8.744,8.744,0,0,1,137.979,239.885Z" transform="translate(-110.381 -214.749)"/>
    </g>
  </g>
</svg>
