<svg id="tamiz" xmlns="http://www.w3.org/2000/svg" width="75" height="75" viewBox="0 0 75 75">
  <path id="Trazado_105777" data-name="Trazado 105777" d="M64.016,10.984A37.5,37.5,0,1,0,10.984,64.016,37.5,37.5,0,1,0,64.016,10.984ZM37.5,72.606A35.106,35.106,0,1,1,72.606,37.5,35.146,35.146,0,0,1,37.5,72.606Z" fill="#17c878"/>
  <path id="Trazado_105778" data-name="Trazado 105778" d="M62.713,30A32.713,32.713,0,1,0,95.426,62.713,32.75,32.75,0,0,0,62.713,30ZM90.418,75.023h-4V68.412h6.071A30.063,30.063,0,0,1,90.418,75.023ZM68.412,92.492V86.421h6.611v4A30.062,30.062,0,0,1,68.412,92.492ZM32.933,68.412H39v6.611h-4A30.062,30.062,0,0,1,32.933,68.412Zm-.54-5.7a30.48,30.48,0,0,1,.181-3.305H39v6.611h-6.43A30.485,30.485,0,0,1,32.394,62.713ZM35.008,50.4h4v6.611H32.933A30.062,30.062,0,0,1,35.008,50.4Zm22.006-17.47V39H50.4v-4A30.062,30.062,0,0,1,57.014,32.933ZM92.492,57.014H86.421V50.4h4A30.062,30.062,0,0,1,92.492,57.014ZM77.416,75.023V68.412h6.611v6.611Zm6.611,2.394v6.611H77.416V77.416ZM67.215,73.427a1.2,1.2,0,0,0-1.2,1.2v.4H59.407V68.412h6.611v1.425a1.2,1.2,0,0,0,2.394,0V68.412h6.611v6.611H68.412v-.4A1.2,1.2,0,0,0,67.215,73.427ZM41.4,75.023V68.412h6.611v6.611Zm6.611,2.394v6.611H41.4V77.416Zm18.009-20.4H59.407V50.4h6.611v6.611ZM68.412,50.4h6.611v6.611H68.412Zm-9,9h6.611v6.611H59.407V59.407Zm-2.394,6.611H50.4V59.407h6.611Zm0-9H50.4V50.4h6.611Zm-9,0H41.4V50.4h6.611Zm0,2.394v6.611H41.4V59.407Zm2.394,9h6.611v6.611H50.4Zm27.014-2.394V64.593a1.2,1.2,0,0,0-2.394,0v1.425H68.412V59.407h6.611v.4a1.2,1.2,0,1,0,2.394,0v-.4h6.611v6.611Zm0-9V50.4h6.611v6.611Zm0-9V41.4h6.611v6.611Zm9,0V43.837a30.438,30.438,0,0,1,2.8,4.173Zm-9-9v-2.8A30.425,30.425,0,0,1,81.589,39Zm-2.394,0H68.412V32.933a30.062,30.062,0,0,1,6.611,2.075Zm0,2.394v6.611H68.412V41.4h6.611Zm-9,6.611H59.407V41.4h6.611v6.611Zm-9,0H50.4v-1.5a1.2,1.2,0,1,0-2.394,0v1.5H41.4V41.4h6.611v.323a1.2,1.2,0,1,0,2.394,0V41.4h6.611Zm-9-9H43.837a30.439,30.439,0,0,1,4.173-2.8Zm-9,9h-2.8A30.438,30.438,0,0,1,39,43.837v4.173Zm0,29.407v4.173a30.438,30.438,0,0,1-2.8-4.173Zm9,9v2.8a30.425,30.425,0,0,1-4.173-2.8Zm2.394,0h6.611v6.071A30.062,30.062,0,0,1,50.4,90.418Zm0-2.394V77.416h6.611v6.611Zm9-6.611h6.611v6.611H59.407V77.416Zm9,0h6.611v6.611H68.412Zm9,9h4.173a30.439,30.439,0,0,1-4.173,2.8Zm9-9h2.8a30.438,30.438,0,0,1-2.8,4.173Zm0-11.4V59.407h6.43a30.281,30.281,0,0,1,0,6.611ZM66.018,39H59.407v-6.43a30.279,30.279,0,0,1,6.611,0ZM59.407,86.421h6.611v6.43a30.28,30.28,0,0,1-6.611,0Z" transform="translate(-25.213 -25.213)" fill="#17c878"/>
</svg>
