<svg xmlns="http://www.w3.org/2000/svg" xmlns:xlink="http://www.w3.org/1999/xlink" width="82" height="82" viewBox="0 0 82 82">
  <defs>
    <clipPath id="clip-path">
      <rect id="Rectángulo_30797" data-name="Rectángulo 30797" width="82" height="82" transform="translate(232 7814)" fill="#fb9e36"/>
    </clipPath>
  </defs>
  <g id="Enmascarar_grupo_48" data-name="Enmascarar grupo 48" transform="translate(-232 -7814)" clip-path="url(#clip-path)">
    <g id="aliento" transform="translate(231.152 7813.414)">
      <g id="Grupo_54724" data-name="Grupo 54724">
        <g id="Grupo_54717" data-name="Grupo 54717">
          <path id="Trazado_105276" data-name="Trazado 105276" d="M15.954,65.662a16.36,16.36,0,0,1,4.287,3.081A15.94,15.94,0,0,0,36.534,72.6l.577-.2a23.105,23.105,0,0,1,4.837,8.875h-23.6A14.311,14.311,0,0,0,8.3,69.6a15.706,15.706,0,0,1,1.979-1.455,7.822,7.822,0,0,0,2.648-2.753,8.748,8.748,0,0,0,.485-1Z" fill="#fcd770"/>
        </g>
        <g id="Grupo_54718" data-name="Grupo 54718">
          <path id="Trazado_105277" data-name="Trazado 105277" d="M21.682,10.487A5.539,5.539,0,0,1,22.508,9.4a5.276,5.276,0,0,1,3.71-1.534H36.7a7.872,7.872,0,0,1,7.865,7.865,7.877,7.877,0,0,1-5.912,7.616A7.388,7.388,0,0,1,36.7,23.6H26.781a7.875,7.875,0,0,0-7.826,7.079l-.6,6.03-1.534-1.534a3.71,3.71,0,0,0-6.332,2.622,7.584,7.584,0,0,0,5.191,7.2l2.674.891-1.573,1.966A14.4,14.4,0,0,0,13.7,58.282l.236,2.4a7.879,7.879,0,0,1-.524,3.71,8.747,8.747,0,0,1-.485,1,30.727,30.727,0,0,1-10.3-22.954v-14.9A17.041,17.041,0,0,1,19.663,10.487Z" fill="#b27946"/>
        </g>
        <g id="Grupo_54719" data-name="Grupo 54719">
          <path id="Trazado_105278" data-name="Trazado 105278" d="M18.352,81.275H2.622l.249-1.77A15.871,15.871,0,0,1,5.322,73,16.353,16.353,0,0,1,8.3,69.6,14.311,14.311,0,0,1,18.352,81.275Z" fill="#f0d0b4"/>
        </g>
        <g id="Grupo_54720" data-name="Grupo 54720">
          <path id="Trazado_105279" data-name="Trazado 105279" d="M38.737,49.814l-.039.433a8.056,8.056,0,0,1-1.639,4.195,8.212,8.212,0,0,1-5.047,3.107,7.744,7.744,0,0,1-1.468.131h-.092a8.184,8.184,0,0,1-2.923-.524v8.39l3.461,1.914A23.382,23.382,0,0,1,37.111,72.4l-.577.2A15.887,15.887,0,0,1,20.24,68.743a16.36,16.36,0,0,0-4.287-3.081L13.41,64.391a7.879,7.879,0,0,0,.524-3.71l-.236-2.4a14.4,14.4,0,0,1,3.081-10.435l1.573-1.966-2.674-.891a7.584,7.584,0,0,1-5.191-7.2,3.708,3.708,0,0,1,6.332-2.622L18.352,36.7l.6-6.03A7.875,7.875,0,0,1,26.781,23.6H36.7a7.388,7.388,0,0,0,1.953-.249l.184.315a21.791,21.791,0,0,1,3.107,11.221,14.672,14.672,0,0,0,.433,3.566l.878,3.5-2.307.773a2.616,2.616,0,0,0-1.783,2.242Z" fill="#f0d0b4"/>
        </g>
        <g id="Grupo_54721" data-name="Grupo 54721">
          <path id="Trazado_105280" data-name="Trazado 105280" d="M55.241,20.974l-.184-5.047a10.472,10.472,0,0,1,6.148-9.543l8.272-3.762V9.6a10.474,10.474,0,0,1-8.613,10.317Z" fill="#b4dd7f"/>
        </g>
        <g id="Grupo_54722" data-name="Grupo 54722">
          <path id="Trazado_105281" data-name="Trazado 105281" d="M70.788,27.529V24.776a6.559,6.559,0,0,1,4.968-6.358l5.519-1.376v3.4a6.564,6.564,0,0,1-5.742,6.5Z" fill="#b4dd7f"/>
        </g>
        <g id="Grupo_54723" data-name="Grupo 54723">
          <path id="Trazado_105282" data-name="Trazado 105282" d="M81.275,40.638v2.622H78.653a2.629,2.629,0,0,1-2.622-2.622V38.016h2.622A2.629,2.629,0,0,1,81.275,40.638Z" fill="#a0d468"/>
        </g>
      </g>
      <g id="Grupo_54725" data-name="Grupo 54725">
        <path id="Trazado_105283" data-name="Trazado 105283" d="M34.083,36.7a1.313,1.313,0,0,1-1.311-1.311H30.15a3.933,3.933,0,0,0,7.865,0H35.394A1.313,1.313,0,0,1,34.083,36.7Z"/>
        <path id="Trazado_105284" data-name="Trazado 105284" d="M55.656,64.749l-6.219-1.865a18.909,18.909,0,0,1-10.8-8.4A9.522,9.522,0,0,0,40,50.36l.48-5.274a1.31,1.31,0,0,1,.89-1.125l3.458-1.152-1.168-4.673a13.331,13.331,0,0,1-.4-3.254,23.138,23.138,0,0,0-2.7-10.834A9.169,9.169,0,0,0,36.7,6.554H26.218a6.524,6.524,0,0,0-5.209,2.622H19.663A18.373,18.373,0,0,0,1.311,27.529v14.9a32.04,32.04,0,0,0,9.9,23.135,6.586,6.586,0,0,1-1.626,1.455,17.364,17.364,0,0,0-8,12.3L1.11,82.586H82.586V79.964H70.492A21.937,21.937,0,0,0,55.656,64.749Zm-6.973.646L54.9,67.26a19.318,19.318,0,0,1,12.86,12.7H63.954a13.988,13.988,0,0,0-9.6-10.1l-9.018-2.7a20.115,20.115,0,0,1-11.356-8.8A9.435,9.435,0,0,0,36.86,56.6,21.505,21.505,0,0,0,48.684,65.395ZM50.452,74.5l-5.365-2.3-1.033,2.409,5.365,2.3a7.917,7.917,0,0,1,3.566,3.05h-10.1A24.159,24.159,0,0,0,31.621,66.318L28.84,64.774V58.846a10.364,10.364,0,0,0,1.7.144c.258,0,.511-.016.764-.035A22.748,22.748,0,0,0,44.581,69.67l9.018,2.7a11.406,11.406,0,0,1,7.667,7.59H55.949a10.555,10.555,0,0,0-5.5-5.46ZM40.638,34.883a16.045,16.045,0,0,0,.476,3.888l.579,2.318-1.154.384a3.93,3.93,0,0,0-2.673,3.376L37.533,48.5H35.7a3.413,3.413,0,0,1-3.069-1.9l-2.345,1.173A6.021,6.021,0,0,0,35.7,51.126h1.5a6.853,6.853,0,0,1-6.746,5.244,6.981,6.981,0,0,1-2.61-.5l-5.073-2.029L21.8,56.275l4.42,1.767v8.273l4.129,2.294a21.861,21.861,0,0,1,4.281,3.14A14.509,14.509,0,0,1,21.172,67.82a17.806,17.806,0,0,0-4.626-3.335l-1.555-.777a9.2,9.2,0,0,0,.248-3.158L15,58.155a13.036,13.036,0,0,1,2.808-9.493l2.745-3.431-4.461-1.487A6.264,6.264,0,0,1,11.8,37.792,2.4,2.4,0,0,1,15.891,36.1l3.492,3.492.877-8.779a6.534,6.534,0,0,1,6.522-5.9H36.7a9.065,9.065,0,0,0,1.274-.1,20.5,20.5,0,0,1,2.658,10.075Zm-36.7,7.551v-14.9A15.748,15.748,0,0,1,19.663,11.8H19.8a6.555,6.555,0,0,0,6.422,7.865h1.311V17.042H26.218a3.933,3.933,0,1,1,0-7.865H36.7a6.554,6.554,0,0,1,0,13.109H26.781a9.148,9.148,0,0,0-9.13,8.263l-.33,3.314a5.021,5.021,0,0,0-8.145,3.93,8.885,8.885,0,0,0,6.085,8.441l.894.3-.4.494a15.639,15.639,0,0,0-3.369,11.392l.24,2.395a6.584,6.584,0,0,1-.187,2.3,29.407,29.407,0,0,1-8.51-20.674ZM13.99,66.14l1.383.691a15.178,15.178,0,0,1,3.946,2.843,17.171,17.171,0,0,0,17.355,4.242,21.589,21.589,0,0,1,3.449,6.048H19.446a15.666,15.666,0,0,0-8.475-10.719A9.158,9.158,0,0,0,13.99,66.14ZM4.173,79.69a14.739,14.739,0,0,1,4.415-8.578,12.994,12.994,0,0,1,8.142,8.854H4.133Z"/>
        <path id="Trazado_105285" data-name="Trazado 105285" d="M69.477,48.5H48.5v2.622H69.477A10.5,10.5,0,0,1,79.964,61.612a5.244,5.244,0,0,1-10.487,0,2.622,2.622,0,1,1,5.244,0h2.622a5.244,5.244,0,0,0-10.487,0,7.865,7.865,0,1,0,15.731,0A13.124,13.124,0,0,0,69.477,48.5Z"/>
        <path id="Trazado_105286" data-name="Trazado 105286" d="M68.166,43.259H51.125v2.622H68.166a3.933,3.933,0,0,0,0-7.865H66.855v2.622h1.311a1.311,1.311,0,1,1,0,2.622Z"/>
        <path id="Trazado_105287" data-name="Trazado 105287" d="M45.881,53.746H48.5v2.622H45.881Z"/>
        <path id="Trazado_105288" data-name="Trazado 105288" d="M51.125,53.746h2.622v2.622H51.125Z"/>
        <path id="Trazado_105289" data-name="Trazado 105289" d="M56.368,53.746H58.99v2.622H56.368Z"/>
        <path id="Trazado_105290" data-name="Trazado 105290" d="M49.5,29.693l6.442-7.515,5.161-.97A11.791,11.791,0,0,0,70.788,9.6V.586l-10.127,4.6a11.842,11.842,0,0,0-6.915,10.789l.169,4.532-6.408,7.476ZM61.747,7.574l6.419-2.917V9.6a9.173,9.173,0,0,1-7.542,9.029l-4.125.775-.131-3.476a9.2,9.2,0,0,1,5.379-8.354Z"/>
        <path id="Trazado_105291" data-name="Trazado 105291" d="M75.434,17.15a7.855,7.855,0,0,0-5.957,7.631v2.2l-3.549,3.549,1.854,1.854L71.4,28.774l4.3-.537a7.878,7.878,0,0,0,6.89-7.805V15.362Zm4.53,3.281a5.251,5.251,0,0,1-4.593,5.2l-3.272.409V24.781a5.236,5.236,0,0,1,3.972-5.086l3.893-.974Z"/>
        <path id="Trazado_105292" data-name="Trazado 105292" d="M78.653,36.7H74.721v3.933a3.937,3.937,0,0,0,3.933,3.933h3.933V40.638A3.937,3.937,0,0,0,78.653,36.7Zm1.311,5.244H78.653a1.313,1.313,0,0,1-1.311-1.311V39.327h1.311a1.313,1.313,0,0,1,1.311,1.311Z"/>
      </g>
    </g>
  </g>
</svg>
