<svg xmlns="http://www.w3.org/2000/svg" width="57.692" height="85" viewBox="0 0 57.692 85">
  <g id="temperatura" transform="translate(-82.244 0)">
    <g id="Grupo_82402" data-name="Grupo 82402" transform="translate(92.599 1.66)">
      <g id="Grupo_82401" data-name="Grupo 82401">
        <path id="Trazado_106131" data-name="Trazado 106131" d="M175.438,59.419V22.327a12.327,12.327,0,1,0-24.655,0V59.419a18.491,18.491,0,1,0,24.655,0Z" transform="translate(-144.62 -10)" fill="#faf7f5"/>
        <path id="Trazado_106132" data-name="Trazado 106132" d="M239.468,63.609a4.109,4.109,0,0,0-8.218,0V84.265h8.218Z" transform="translate(-216.868 -51.282)" fill="#f1d54e"/>
        <path id="Trazado_106133" data-name="Trazado 106133" d="M208.5,229.463v-20.79h-8.218v20.79a10.273,10.273,0,1,0,8.218,0Z" transform="translate(-185.905 -175.69)" fill="#fb9e36"/>
      </g>
    </g>
    <g id="Grupo_82403" data-name="Grupo 82403" transform="translate(82.244 0)">
      <path id="Trazado_106134" data-name="Trazado 106134" d="M168.759,50.357V46.762a1.66,1.66,0,1,0-3.32,0v4.317a1.661,1.661,0,0,0,.552,1.236A16.858,16.858,0,0,1,171.6,64.849a16.851,16.851,0,0,1-17.5,16.818,16.822,16.822,0,0,1-10.553-29.351,1.66,1.66,0,0,0,.552-1.236V13.987a10.667,10.667,0,0,1,21.334,0V33.481a1.66,1.66,0,1,0,3.32,0V13.987a13.987,13.987,0,1,0-27.975,0V50.356a20.142,20.142,0,0,0,13.193,34.628q.4.016.8.016a20.172,20.172,0,0,0,20.141-20.151,20.18,20.18,0,0,0-6.164-14.492Z" transform="translate(-125.925 0)"/>
      <circle id="Elipse_4394" data-name="Elipse 4394" cx="1.66" cy="1.66" r="1.66" transform="translate(39.513 38.461)"/>
      <path id="Trazado_106135" data-name="Trazado 106135" d="M83.9,140.115h8.218a1.66,1.66,0,1,0,0-3.32H83.9a1.66,1.66,0,0,0,0,3.32Z" transform="translate(-82.244 -114.085)"/>
      <path id="Trazado_106136" data-name="Trazado 106136" d="M108.656,78.237h4.109a1.66,1.66,0,1,0,0-3.32h-4.109a1.66,1.66,0,1,0,0,3.32Z" transform="translate(-102.887 -62.48)"/>
      <path id="Trazado_106137" data-name="Trazado 106137" d="M93.783,262.211a1.66,1.66,0,0,0-1.66-1.66H83.9a1.66,1.66,0,1,0,0,3.32h8.218A1.66,1.66,0,0,0,93.783,262.211Z" transform="translate(-82.244 -217.296)"/>
      <path id="Trazado_106138" data-name="Trazado 106138" d="M112.765,198.673h-4.109a1.66,1.66,0,0,0,0,3.32h4.109a1.66,1.66,0,0,0,0-3.32Z" transform="translate(-102.887 -165.69)"/>
      <path id="Trazado_106139" data-name="Trazado 106139" d="M361.915,140.115h8.218a1.66,1.66,0,1,0,0-3.32h-8.218a1.66,1.66,0,1,0,0,3.32Z" transform="translate(-314.101 -114.085)"/>
      <path id="Trazado_106140" data-name="Trazado 106140" d="M361.915,78.237h4.109a1.66,1.66,0,1,0,0-3.32h-4.109a1.66,1.66,0,1,0,0,3.32Z" transform="translate(-314.101 -62.48)"/>
      <path id="Trazado_106141" data-name="Trazado 106141" d="M370.133,260.551h-8.218a1.66,1.66,0,1,0,0,3.32h8.218a1.66,1.66,0,1,0,0-3.32Z" transform="translate(-314.101 -217.296)"/>
      <path id="Trazado_106142" data-name="Trazado 106142" d="M361.915,201.993h4.109a1.66,1.66,0,0,0,0-3.32h-4.109a1.66,1.66,0,0,0,0,3.32Z" transform="translate(-314.101 -165.69)"/>
      <path id="Trazado_106143" data-name="Trazado 106143" d="M201.825,55.269a5.769,5.769,0,0,0-11.538,0V95.685a11.933,11.933,0,1,0,11.538,0Zm-5.769-2.449a2.452,2.452,0,0,1,2.449,2.449v19h-4.9v-19a2.452,2.452,0,0,1,2.449-2.449Zm8.613,53.311a8.613,8.613,0,1,1-12.057-7.894,1.66,1.66,0,0,0,1-1.521V77.585h4.9v19.13a1.66,1.66,0,0,0,1,1.521A8.617,8.617,0,0,1,204.668,106.131Z" transform="translate(-167.21 -41.282)"/>
    </g>
  </g>
</svg>
