<svg xmlns="http://www.w3.org/2000/svg" width="816.904" height="276.974" viewBox="0 0 816.904 276.974">
  <g id="Grupo_82782" data-name="Grupo 82782" transform="translate(-393.604 -2993.168)">
    <path id="Trazado_105798" data-name="Trazado 105798" d="M821.809,150.916H117.162a41.135,41.135,0,0,0-41.136,41.133v118.63a41.136,41.136,0,0,0,41.136,41.138H821.809a41.137,41.137,0,0,0,41.138-41.138V192.049A41.136,41.136,0,0,0,821.809,150.916Z" transform="translate(317.578 2867.602)" fill="#ffefa2"/>
    <g id="Grupo_54981" data-name="Grupo 54981" transform="translate(416.157 2993.168)">
      <g id="Grupo_54975" data-name="Grupo 54975">
        <g id="Grupo_54974" data-name="Grupo 54974">
          <g id="Grupo_54973" data-name="Grupo 54973">
            <g id="Grupo_54972" data-name="Grupo 54972">
              <g id="Grupo_54970" data-name="Grupo 54970">
                <path id="Trazado_105799" data-name="Trazado 105799" d="M446.609,349.017H129.976a44.9,44.9,0,0,1-44.847-44.852V185.535a44.9,44.9,0,0,1,44.847-44.85H444.332a3.716,3.716,0,0,1,0,7.433H129.976a37.456,37.456,0,0,0-37.414,37.417v118.63a37.458,37.458,0,0,0,37.414,37.419H446.609a3.716,3.716,0,1,1,0,7.433Z" transform="translate(-85.129 -140.685)" fill="#17c878"/>
              </g>
              <g id="Grupo_54971" data-name="Grupo 54971" transform="translate(424.019)">
                <path id="Trazado_105800" data-name="Trazado 105800" d="M581.75,349.017H259.986a3.716,3.716,0,0,1,0-7.433H581.75a37.461,37.461,0,0,0,37.419-37.419V185.535a37.459,37.459,0,0,0-37.419-37.417H269.1a3.716,3.716,0,0,1,0-7.433H581.75a44.9,44.9,0,0,1,44.852,44.85v118.63A44.9,44.9,0,0,1,581.75,349.017Z" transform="translate(-256.27 -140.685)" fill="#17c878"/>
              </g>
            </g>
          </g>
        </g>
      </g>
      <g id="Grupo_54980" data-name="Grupo 54980" transform="translate(356.834 200.958)">
        <g id="Grupo_54976" data-name="Grupo 54976">
          <path id="Trazado_105801" data-name="Trazado 105801" d="M269.957,294.9a3.718,3.718,0,0,1-3.716-3.716V262.6a33.408,33.408,0,0,0-33.371-33.371,3.716,3.716,0,0,1,0-7.433,40.85,40.85,0,0,1,40.8,40.8v28.587A3.718,3.718,0,0,1,269.957,294.9Z" transform="translate(-229.153 -221.795)" fill="#17c878"/>
        </g>
        <g id="Grupo_54979" data-name="Grupo 54979" transform="translate(11.708 39.996)">
          <g id="Grupo_54977" data-name="Grupo 54977" transform="translate(25.379)">
            <path id="Trazado_105802" data-name="Trazado 105802" d="M247.838,273.957a3.662,3.662,0,0,1-1.422-.285,3.711,3.711,0,0,1-2.294-3.431V241.654a3.716,3.716,0,0,1,7.433,0V261.27l19.008-19.008a3.716,3.716,0,0,1,5.255,5.255l-25.351,25.351A3.719,3.719,0,0,1,247.838,273.957Z" transform="translate(-244.122 -237.938)" fill="#17c878"/>
          </g>
          <g id="Grupo_54978" data-name="Grupo 54978" transform="translate(0 3.205)">
            <path id="Trazado_105803" data-name="Trazado 105803" d="M262.974,272.046a3.711,3.711,0,0,1-2.629-1.09l-25.378-25.381a3.717,3.717,0,0,1,5.258-5.255L265.6,265.7a3.718,3.718,0,0,1-2.629,6.345Z" transform="translate(-233.878 -239.232)" fill="#17c878"/>
          </g>
        </g>
      </g>
    </g>
  </g>
</svg>
