<svg xmlns="http://www.w3.org/2000/svg" width="82" height="73.298" viewBox="0 0 82 73.298">
  <g id="compost" transform="translate(0 -27.167)">
    <path id="Trazado_105201" data-name="Trazado 105201" d="M294.739,225.306l-15.362-5.838,1.059-2.786a1.793,1.793,0,0,1,2.314-1.039l12.009,4.564a1.793,1.793,0,0,1,1.039,2.314Z" transform="translate(-234.633 -158.19)" fill="#f4fbff"/>
    <path id="Trazado_105202" data-name="Trazado 105202" d="M359.967,238.921l-2.927-1.112a1.793,1.793,0,0,1,1.039,2.314l-1.059,2.786,2.927,1.112,1.059-2.786A1.794,1.794,0,0,0,359.967,238.921Z" transform="translate(-299.841 -176.906)" fill="#dfeaef"/>
    <path id="Trazado_105203" data-name="Trazado 105203" d="M0,0H4.407V31.879H0Z" transform="translate(63.402 29.138) rotate(20.791)" fill="#baa53d"/>
    <path id="Trazado_105204" data-name="Trazado 105204" d="M0,0H2.868V4.407H0Z" transform="translate(52.055 58.93) rotate(-69.209)" fill="#baa53d"/>
    <path id="Trazado_105205" data-name="Trazado 105205" d="M161.826,289.2v-2.44a3.785,3.785,0,0,0-3.785-3.785h-.353a3.785,3.785,0,0,1-2.556-.993l-2.633-2.41a3.785,3.785,0,0,0-1.836-.924l-5.681-1.1a3.786,3.786,0,0,0-2.506.379l-2.412,1.292a3.785,3.785,0,0,1-4.5-.7l-2.808-2.891a3.785,3.785,0,0,0-3.53-1.059l-.231.051a3.785,3.785,0,0,0-2.927,3.124,3.784,3.784,0,0,1-3.263,3.182l-2.053.262a3.785,3.785,0,0,0-3.284,4.164l.661,6.072,41.062,2.805Z" transform="translate(-98.636 -207.702)" fill="#ffb869"/>
    <g id="Grupo_54693" data-name="Grupo 54693" transform="translate(27.751 66.776)">
      <path id="Trazado_105206" data-name="Trazado 105206" d="M204.927,282.973h-.353a3.784,3.784,0,0,1-2.556-.993l-2.633-2.41a3.785,3.785,0,0,0-1.836-.924l-5.681-1.1a3.785,3.785,0,0,0-2.506.379l-2.412,1.291a3.784,3.784,0,0,1-4.5-.7l-2.808-2.891a3.785,3.785,0,0,0-3.53-1.059l-.231.051a3.783,3.783,0,0,0-2.608,2.085,3.784,3.784,0,0,1,2.409,1.134l2.808,2.891a3.785,3.785,0,0,0,4.5.7l2.412-1.291a3.785,3.785,0,0,1,2.506-.379l5.681,1.1a3.785,3.785,0,0,1,1.836.924l2.633,2.41a3.785,3.785,0,0,0,2.556.993h.353a3.785,3.785,0,0,1,3.785,3.785v2.44l-1.38,2.634,2.706.185,2.635-5.029v-2.441A3.785,3.785,0,0,0,204.927,282.973Z" transform="translate(-173.272 -274.477)" fill="#ffb869"/>
    </g>
    <path id="Trazado_105207" data-name="Trazado 105207" d="M49.61,363.009a9.8,9.8,0,0,1,4.858-8.777,15.87,15.87,0,0,1,9.137-2.279,37.072,37.072,0,0,1,8.045,1.224,42.511,42.511,0,0,0,22.03,0,37.069,37.069,0,0,1,8.045-1.224,15.871,15.871,0,0,1,9.137,2.279,9.8,9.8,0,0,1,4.858,8.777l-4.126,4.8H54.09Z" transform="translate(-41.665 -272.754)" fill="#bf7726"/>
    <path id="Trazado_105209" data-name="Trazado 105209" d="M86.522,430.087H8.074a.575.575,0,0,1-.575-.575v-7.86a.575.575,0,0,1,.575-.575H86.522a.575.575,0,0,1,.575.575v7.86A.575.575,0,0,1,86.522,430.087Z" transform="translate(-6.298 -330.822)" fill="#86a0af"/>
    <g id="Grupo_54695" data-name="Grupo 54695" transform="translate(0 27.167)">
      <path id="Trazado_105211" data-name="Trazado 105211" d="M197.842,444.108a1.2,1.2,0,0,0,0-2.4H173.4a1.2,1.2,0,0,0,0,2.4Z" transform="translate(-144.623 -375.315)"/>
      <path id="Trazado_105212" data-name="Trazado 105212" d="M80.224,89.054H75.2a10.716,10.716,0,0,0-3.311-7,1.2,1.2,0,1,0-1.657,1.74,8.237,8.237,0,0,1,2.555,5.264H9.213a8.436,8.436,0,0,1,4.233-6.561,13.952,13.952,0,0,1,5.686-1.982h.012l.016,0a16.068,16.068,0,0,1,2.726-.109,36.052,36.052,0,0,1,7.785,1.183,44,44,0,0,0,22.658,0A36.054,36.054,0,0,1,60.114,80.4a15.378,15.378,0,0,1,6.322,1.024,1.2,1.2,0,0,0,.886-2.233,16.923,16.923,0,0,0-2.986-.871,4.993,4.993,0,0,0-4.931-4.249,5.193,5.193,0,0,1-.65-.019l2.473-6.508h0l1.059-2.786a3,3,0,0,0-1.735-3.863L57.73,59.821,68.2,32.267l.937.356a1.2,1.2,0,0,0,.853-2.246l-8.239-3.131a1.2,1.2,0,0,0-.853,2.246l.937.356-3.01,7.919a1.2,1.2,0,1,0,2.246.853l3.01-7.919,1.874.712L55.485,58.967l-1.874-.712,5.718-15.045a1.2,1.2,0,0,0-2.246-.853L51.365,57.4l-2.822-1.073a3,3,0,0,0-3.863,1.736L43.621,60.85l-3.763,9.9a2.594,2.594,0,0,1-2.07-.773l-2.807-2.891a4.954,4.954,0,0,0-4.649-1.4l-.232.051a5.017,5.017,0,0,0-3.856,4.115,2.6,2.6,0,0,1-2.227,2.173l-2.053.262a5.011,5.011,0,0,0-4.326,5.486l.058.535a16.075,16.075,0,0,0-5.535,2.15A10.942,10.942,0,0,0,6.8,89.053H1.776A1.778,1.778,0,0,0,0,90.829v7.86a1.778,1.778,0,0,0,1.776,1.776h12.78a1.2,1.2,0,0,0,0-2.4H2.4V91.456H79.6v6.607H19.358a1.2,1.2,0,0,0,0,2.4H80.224A1.778,1.778,0,0,0,82,98.689v-7.86a1.778,1.778,0,0,0-1.776-1.776ZM45.44,62.827l5.435,2.066-1.63,4.289-2.67-.517a5,5,0,0,0-3.3.5l-.3.163Zm7.681,2.919,5.435,2.066-1.9,4.988-1.986-1.818a4.982,4.982,0,0,0-2.419-1.218l-.617-.119Zm-6.2-6.828a.592.592,0,0,1,.764-.343L59.7,63.138a.592.592,0,0,1,.343.764l-.632,1.664L46.294,60.581Zm-26.9,18.6a2.6,2.6,0,0,1,2.242-2.843l2.053-.262a5.007,5.007,0,0,0,4.3-4.193,2.6,2.6,0,0,1,2-2.132l.232-.051a2.568,2.568,0,0,1,2.409.723l2.808,2.891a5.008,5.008,0,0,0,5.93.922l2.412-1.292a2.587,2.587,0,0,1,1.71-.259l5.681,1.1a2.58,2.58,0,0,1,1.253.631l2.633,2.41a5.259,5.259,0,0,0,3.72,1.308A2.586,2.586,0,0,1,61.763,78c-.583-.029-1.17-.032-1.758-.006a38.449,38.449,0,0,0-8.3,1.264,41.561,41.561,0,0,1-21.4,0A38.452,38.452,0,0,0,21.994,78a18.539,18.539,0,0,0-1.914.014Z" transform="translate(0 -27.167)"/>
      <path id="Trazado_105213" data-name="Trazado 105213" d="M93.372,382.287a1.2,1.2,0,1,0-1.3,2.017l.987.639a1.2,1.2,0,0,0,1.3-2.017Z" transform="translate(-76.861 -325.251)"/>
      <path id="Trazado_105214" data-name="Trazado 105214" d="M350.633,376.685l-.792.87a1.2,1.2,0,0,0,1.776,1.618l.792-.87a1.2,1.2,0,0,0-1.776-1.618Z" transform="translate(-293.549 -320.378)"/>
      <path id="Trazado_105215" data-name="Trazado 105215" d="M211.965,386.145l-.444,1.089a1.2,1.2,0,1,0,2.224.908l.444-1.089a1.2,1.2,0,0,0-2.224-.908Z" transform="translate(-177.569 -328.025)"/>
    </g>
  </g>
</svg>
