<svg xmlns="http://www.w3.org/2000/svg" width="75.036" height="75.035" viewBox="0 0 75.036 75.035">
  <g id="XMLID_1068_" transform="translate(0 -0.002)">
    <path id="XMLID_1352_" d="M60.574,90H79.141a2.93,2.93,0,0,1,2.93,2.93V147.42a2.93,2.93,0,0,1-2.93,2.93H12.93A2.93,2.93,0,0,1,10,147.42V92.928A2.93,2.93,0,0,1,12.93,90H60.574Z" transform="translate(-8.535 -76.813)" fill="#fff"/>
    <path id="XMLID_1349_" d="M79.141,90H12.93A2.93,2.93,0,0,0,10,92.928v16.7H82.071v-16.7A2.93,2.93,0,0,0,79.141,90Z" transform="translate(-8.535 -76.813)" fill="#17c878"/>
    <path id="XMLID_1348_" d="M397,399.928v12.451L412.381,397H399.93A2.93,2.93,0,0,0,397,399.928Z" transform="translate(-338.845 -338.842)" fill="#f1d54e" stroke="#000" stroke-linejoin="round" stroke-width="3"/>
    <g id="XMLID_1329_" transform="translate(0 0.002)">
      <g id="XMLID_1341_" transform="translate(11.346 1.465)">
        <path id="XMLID_1345_" d="M86.539,29.764a2.925,2.925,0,0,1-4.288,2.6,9.09,9.09,0,0,1-4.794-8V19.221a9.083,9.083,0,1,1,18.164-.138v2.636H89.762V19.162a3.275,3.275,0,0,0-3.1-3.3,3.226,3.226,0,0,0-3.347,3.22v5.273a3.225,3.225,0,0,0,1.657,2.816,2.982,2.982,0,0,1,1.566,2.592Z" transform="translate(-77.457 -10.001)" fill="#e2f6c6"/>
      </g>
      <g id="XMLID_1330_" transform="translate(0 0)">
        <g id="XMLID_1333_" transform="translate(45.49 1.465)">
          <path id="XMLID_1337_" d="M319.625,29.764a2.925,2.925,0,0,1-4.288,2.6,9.09,9.09,0,0,1-4.794-8V19.221a9.083,9.083,0,1,1,18.164-.138v2.636h-5.859V19.162a3.275,3.275,0,0,0-3.1-3.3,3.226,3.226,0,0,0-3.347,3.22v5.273a3.225,3.225,0,0,0,1.657,2.816,2.982,2.982,0,0,1,1.566,2.592Z" transform="translate(-310.543 -10.001)" fill="#e2f6c6"/>
        </g>
        <path id="XMLID_1213_" d="M70.606,11.72H65.119V10.549A10.557,10.557,0,0,0,54.409,0,10.662,10.662,0,0,0,44.025,10.687v1.034H30.975V10.549A10.557,10.557,0,0,0,20.265,0,10.662,10.662,0,0,0,9.881,10.687V11.72H4.395A4.4,4.4,0,0,0,0,16.115V70.608A4.4,4.4,0,0,0,4.395,75H70.606A4.4,4.4,0,0,0,75,70.608V16.115a4.4,4.4,0,0,0-4.395-4.395ZM46.955,10.687a7.72,7.72,0,0,1,7.5-7.754h.119a7.628,7.628,0,0,1,7.617,7.617V11.72H59.26V10.628a4.713,4.713,0,0,0-4.508-4.763,4.691,4.691,0,0,0-4.867,4.684v5.273a4.7,4.7,0,0,0,2.408,4.1,1.51,1.51,0,0,1,.815,1.313,1.467,1.467,0,0,1-.723,1.269,1.405,1.405,0,0,1-1.407.037,7.619,7.619,0,0,1-4.023-6.715Zm5.859,1.034V10.549a1.762,1.762,0,0,1,1.827-1.757,1.815,1.815,0,0,1,1.689,1.836V11.72Zm-40-1.034a7.72,7.72,0,0,1,7.5-7.754h.119a7.628,7.628,0,0,1,7.617,7.617V11.72h-2.93V10.628a4.713,4.713,0,0,0-4.508-4.763,4.691,4.691,0,0,0-4.867,4.684v5.273a4.7,4.7,0,0,0,2.408,4.1,1.51,1.51,0,0,1,.815,1.313,1.467,1.467,0,0,1-.723,1.269,1.4,1.4,0,0,1-1.406.037,7.619,7.619,0,0,1-4.023-6.715V10.687Zm5.859,1.034V10.549A1.762,1.762,0,0,1,20.5,8.792a1.815,1.815,0,0,1,1.689,1.836V11.72Zm53.4,58.887a1.467,1.467,0,0,1-1.465,1.465H4.395A1.467,1.467,0,0,1,2.93,70.608V16.115A1.467,1.467,0,0,1,4.395,14.65H9.881v1.172a10.545,10.545,0,0,0,5.565,9.295,4.39,4.39,0,0,0,6.447-3.886,4.46,4.46,0,0,0-2.317-3.871,1.763,1.763,0,0,1-.906-1.537V14.65H44.025v1.172a10.545,10.545,0,0,0,5.565,9.295,4.389,4.389,0,0,0,6.446-3.886,4.46,4.46,0,0,0-2.317-3.871,1.764,1.764,0,0,1-.906-1.537V14.65H70.606a1.467,1.467,0,0,1,1.465,1.465Z" transform="translate(0 -0.002)"/>
      </g>
    </g>
    <g id="XMLID_437_" transform="translate(24.478 42.965)">
      <path id="XMLID_438_" d="M177.652,298.563a5.274,5.274,0,0,0-10.448-1.02,1.465,1.465,0,1,0,2.875.564,2.344,2.344,0,1,1,2.3,2.8,1.465,1.465,0,1,0,0,2.93,2.344,2.344,0,1,1-2.321,2.672,2.377,2.377,0,0,1-.023-.329,1.465,1.465,0,1,0-2.93,0,5.273,5.273,0,0,0,10.547,0,5.257,5.257,0,0,0-1.632-3.809A5.257,5.257,0,0,0,177.652,298.563Z" transform="translate(-167.105 -293.29)"/>
      <path id="XMLID_441_" d="M272.8,294.485a5.7,5.7,0,0,0-5.7,5.7v6.769a5.7,5.7,0,1,0,11.4,0v-6.769A5.7,5.7,0,0,0,272.8,294.485Zm2.768,12.467a2.768,2.768,0,1,1-5.536,0v-6.769a2.768,2.768,0,1,1,5.536,0Z" transform="translate(-252.456 -294.31)"/>
    </g>
    <line id="Línea_168" data-name="Línea 168" x2="72" transform="translate(1.5 32.502)" fill="none" stroke="#000" stroke-width="3"/>
  </g>
</svg>
