<svg xmlns="http://www.w3.org/2000/svg" width="1070" height="500" viewBox="0 0 1070 500">
  <g id="Grupo_82781" data-name="Grupo 82781" transform="translate(-265.496 -2668.949)">
    <path id="Trazado_107551" data-name="Trazado 107551" d="M0,0H1070V500H0Z" transform="translate(265.496 2668.949)" fill="#f1f5ec"/>
    <g id="Grupo_54916" data-name="Grupo 54916" transform="translate(35.34 -8238.051)">
      <g id="granero" transform="translate(285 11119.557)">
        <path id="Trazado_105022" data-name="Trazado 105022" d="M117.544,37.69l-12.454-17a12.109,12.109,0,0,0-5.273-4.089L64.58,2.511a12.116,12.116,0,0,0-9,0L20.342,16.605a12.107,12.107,0,0,0-5.273,4.089l-12.454,17a7.3,7.3,0,0,0,1.8,10.36l16.765-22.88a4.547,4.547,0,0,1,1.979-1.534L58.391,9.543a4.544,4.544,0,0,1,3.377,0L97,23.637a4.547,4.547,0,0,1,1.979,1.534l16.765,22.88A7.3,7.3,0,0,0,117.544,37.69Z" transform="translate(0.576 0.576)" fill="#e38e2f"/>
        <g id="Grupo_54630" data-name="Grupo 54630" transform="translate(2.432 9.794)">
          <path id="Trazado_105024" data-name="Trazado 105024" d="M89.827,26.081,57.491,13.147,25.154,26.081,6.6,51.4v61.177H108.38V51.4Z" transform="translate(0.733 -3.703)" fill="#bf7726"/>
          <path id="Trazado_105026" data-name="Trazado 105026" d="M110.756,54.46,92.2,29.141,59.867,16.207,27.531,29.141,8.979,54.46,1.644,49.085,20.966,22.716a4.547,4.547,0,0,1,1.979-1.534L58.179,7.089a4.543,4.543,0,0,1,3.377,0L96.79,21.183a4.548,4.548,0,0,1,1.979,1.534l19.322,26.369Z" transform="translate(-1.644 -6.764)" fill="#afafaf"/>
          <g id="Grupo_54628" data-name="Grupo 54628" transform="translate(58.223 73.844)">
            <path id="Trazado_105028" data-name="Trazado 105028" d="M41,56.678H69.4V91.707H41Z" transform="translate(-41 -56.678)" fill="#e38e2f"/>
          </g>
          <g id="Grupo_54629" data-name="Grupo 54629" transform="translate(29.822 73.844)">
            <path id="Trazado_105030" data-name="Trazado 105030" d="M21.8,56.678H50.2V91.707H21.8Z" transform="translate(-21.802 -56.678)" fill="#e38e2f"/>
          </g>
          <path id="Trazado_105032" data-name="Trazado 105032" d="M0,0H65.324V7.574H0Z" transform="translate(90.885 73.844) rotate(180)" fill="#afafaf"/>
          <path id="Trazado_105033" data-name="Trazado 105033" d="M21.642,54.013H78.919v-2.84a4.734,4.734,0,0,0-4.734-4.734H26.376a4.734,4.734,0,0,0-4.734,4.734v2.84Z" transform="translate(7.943 12.257)" fill="#e2f4f9"/>
          <path id="Trazado_105034" data-name="Trazado 105034" d="M59,46.439h-5.68a4.734,4.734,0,0,1,4.733,4.734v2.84h5.68v-2.84A4.733,4.733,0,0,0,59,46.439Z" transform="translate(23.129 12.257)" fill="#b1e4f9"/>
          <path id="Trazado_105036" data-name="Trazado 105036" d="M33,23.4H56.669V42.336H33Z" transform="translate(13.389 1.213)" fill="#12263f"/>
          <path id="Trazado_105038" data-name="Trazado 105038" d="M31.4,36.2H59.8v7.574H31.4Z" transform="translate(12.622 7.349)" fill="#afafaf"/>
        </g>
        <g id="Grupo_54631" data-name="Grupo 54631" transform="translate(0 0.443)">
          <path id="Trazado_105040" data-name="Trazado 105040" d="M119.554,37.217l-12.455-17a13.89,13.89,0,0,0-6.046-4.689l-4.184-1.673a1.777,1.777,0,1,0-1.319,3.3l4.182,1.672a10.341,10.341,0,0,1,4.5,3.49l12.455,17a5.531,5.531,0,0,1-.1,6.664L100.99,24.7a6.319,6.319,0,0,0-2.752-2.134L63,8.469a6.3,6.3,0,0,0-4.7,0L23.073,22.563A6.317,6.317,0,0,0,20.321,24.7L4.725,45.981a5.531,5.531,0,0,1-.1-6.664l12.456-17a10.336,10.336,0,0,1,4.5-3.489L56.814,4.737a10.34,10.34,0,0,1,7.683,0l23.354,9.34a1.777,1.777,0,0,0,1.32-3.3L65.818,1.438a13.9,13.9,0,0,0-10.324,0L20.256,15.531a13.89,13.89,0,0,0-6.044,4.688l-12.456,17a9.084,9.084,0,0,0,.817,11.7L1,51.065a1.777,1.777,0,0,0,.383,2.484L7.988,58.39v7.384a1.777,1.777,0,0,0,3.554,0v-7.7l17.909-24.44,31.2-12.482,31.2,12.482,17.909,24.44,0,40.5a1.777,1.777,0,1,0,3.554,0l0-40.185,6.607-4.841a1.777,1.777,0,0,0,.383-2.484l-1.576-2.15a9.084,9.084,0,0,0,.817-11.7Zm-7.626,17.789-17.5-23.885a1.776,1.776,0,0,0-.774-.6L61.316,17.587a1.778,1.778,0,0,0-1.32,0L27.659,30.521a1.776,1.776,0,0,0-.774.6L9.384,55.006,4.916,51.732,23.188,26.8a2.765,2.765,0,0,1,1.205-.934L59.628,11.768a2.755,2.755,0,0,1,2.056,0L96.918,25.862a2.768,2.768,0,0,1,1.206.934L116.4,51.732Z" transform="translate(0 -0.443)"/>
          <path id="Trazado_105041" data-name="Trazado 105041" d="M108.955,83.615h0a1.777,1.777,0,0,0-1.777,1.777l0,10.023H88.245V63.94h2.483a1.777,1.777,0,0,0,1.777-1.777V54.589a1.777,1.777,0,0,0-1.777-1.777H88.482V51.749a6.518,6.518,0,0,0-6.511-6.511H34.162a6.518,6.518,0,0,0-6.511,6.511v1.063H25.4a1.777,1.777,0,0,0-1.777,1.777v7.574A1.777,1.777,0,0,0,25.4,63.94h2.483V95.414H8.954V52.591a1.777,1.777,0,1,0-3.554,0v44.6a1.777,1.777,0,0,0,1.777,1.777H108.952a1.777,1.777,0,0,0,1.777-1.777l0-11.8a1.777,1.777,0,0,0-1.777-1.777ZM69.98,79.677l-10.136,12.5v-25Zm-13.69,12.5-10.136-12.5,10.136-12.5Zm-1.952,3.236H33.394L43.866,82.5Zm7.457,0L72.268,82.5,82.74,95.414ZM72.268,76.856,61.8,63.94H82.74Zm12.424-9.68v25l-10.136-12.5Zm-40.825,9.68L33.394,63.94H54.339Zm-2.288,2.821-10.136,12.5v-25ZM31.205,51.749a2.96,2.96,0,0,1,2.956-2.956h47.81a2.96,2.96,0,0,1,2.956,2.956v1.063H31.205Zm-4.024,4.617h61.77v4.02H27.182Z" transform="translate(2.589 21.032)"/>
          <path id="Trazado_105042" data-name="Trazado 105042" d="M58.012,22.2H34.344a1.777,1.777,0,0,0-1.777,1.777V41.135h-.59A1.777,1.777,0,0,0,30.2,42.912v7.574a1.777,1.777,0,0,0,1.777,1.777h28.4a1.777,1.777,0,0,0,1.777-1.777V42.912a1.777,1.777,0,0,0-1.777-1.777h-.59V23.978A1.777,1.777,0,0,0,58.012,22.2ZM36.121,25.754H56.235v15.38H36.121ZM58.6,48.709H33.754v-4.02H58.6Z" transform="translate(14.478 9.988)"/>
        </g>
      </g>
    </g>
    <g id="right-arrow" transform="translate(457.16 2881.076)">
      <g id="Grupo_54908" data-name="Grupo 54908" transform="translate(0 32.321)">
        <path id="Trazado_105528" data-name="Trazado 105528" d="M80.341,66.395l-33.7-33.586a1.7,1.7,0,0,0-1.835-.364A1.684,1.684,0,0,0,43.771,34V52.519H1.684A1.684,1.684,0,0,0,0,54.2V81.139a1.684,1.684,0,0,0,1.684,1.684H43.771v18.448a1.687,1.687,0,0,0,1.04,1.556,1.659,1.659,0,0,0,.643.128,1.7,1.7,0,0,0,1.192-.492l33.7-33.684a1.686,1.686,0,0,0,0-2.384Z" transform="translate(0 -32.321)" fill="#fb9e36"/>
      </g>
    </g>
    <g id="right-arrow-2" data-name="right-arrow" transform="translate(936.829 3025.316)">
      <g id="Grupo_54908-2" data-name="Grupo 54908" transform="translate(0 32.321)">
        <path id="Trazado_105528-2" data-name="Trazado 105528" d="M43.4,50.728,25.2,32.585a.92.92,0,0,0-.991-.2.91.91,0,0,0-.56.84v10H-61.333a.91.91,0,0,0-.909.909V58.693a.91.91,0,0,0,.909.909H23.646v9.966a.911.911,0,0,0,.562.84.9.9,0,0,0,.347.069.916.916,0,0,0,.644-.266l18.2-18.2a.911.911,0,0,0,0-1.288Z" transform="translate(0 -32.321)" fill="#17c878"/>
      </g>
    </g>
    <g id="right-arrow-3" data-name="right-arrow" transform="translate(1065.078 2881.076)">
      <g id="Grupo_54908-3" data-name="Grupo 54908" transform="translate(0 32.321)">
        <path id="Trazado_105528-3" data-name="Trazado 105528" d="M80.341,66.395l-33.7-33.586a1.7,1.7,0,0,0-1.835-.364A1.684,1.684,0,0,0,43.771,34V52.519H1.684A1.684,1.684,0,0,0,0,54.2V81.139a1.684,1.684,0,0,0,1.684,1.684H43.771v18.448a1.687,1.687,0,0,0,1.04,1.556,1.659,1.659,0,0,0,.643.128,1.7,1.7,0,0,0,1.192-.492l33.7-33.684a1.686,1.686,0,0,0,0-2.384Z" transform="translate(0 -32.321)" fill="#fb9e36"/>
      </g>
    </g>
    <g id="Grupo_54915" data-name="Grupo 54915" transform="translate(188.056 -8152.035)">
      <g id="Grupo_54912" data-name="Grupo 54912" transform="translate(0 -25)">
        <g id="viento" transform="translate(600.496 10950)">
          <path id="Trazado_105529" data-name="Trazado 105529" d="M37.179,89.7S8,85.323,8,52.74a39.019,39.019,0,0,1,38.9-38.9V27.452S60.521,8,81.919,8c0,0,1.945,3.89,0,11.671,0,0,17.507-8.51,33.069-1.945,0,0,5.836,31.124-27.233,35.014,0,0,5.836,3.89,7.781,7.781,0,0-13.617,13.617-25.288,11.671l5.836,5.836S64.412,97.481,46.9,93.59" transform="translate(-6.055 -6.055)" fill="#17c878"/>
          <path id="Trazado_105530" data-name="Trazado 105530" d="M113.507,154.769V102.248s-1.945-33.069,44.74-46.686l-2.675-5.836L140.74,55.076l3.89-13.13L140.74,40l-7.781,15.562c-11.671,7.781-19.452,19.452-19.452,19.452L101.836,56.291,96,59.452,107.671,78.9a68.884,68.884,0,0,0-3.89,23.343v52.521" transform="translate(-72.657 -30.274)" fill="#6b2f07"/>
          <path id="Trazado_105531" data-name="Trazado 105531" d="M409.507,259.89c0,2.149-5.632,3.89-7.781,3.89S392,259.89,392,259.89s7.577-3.89,9.726-3.89S409.507,257.742,409.507,259.89Z" transform="translate(-296.683 -193.752)" fill="#fb9e36"/>
          <path id="Trazado_105532" data-name="Trazado 105532" d="M304.444,364.379c-1.519-1.519,1.232-6.734,2.751-8.253S316.823,352,316.823,352s-2.607,8.109-4.127,9.629-6.733,4.27-8.253,2.751Z" transform="translate(-230.081 -266.41)" fill="#f1d54e"/>
          <path id="Trazado_105533" data-name="Trazado 105533" d="M250.285,207.33c-.617,2.058-6.512,2.111-8.57,1.494s-8.2-6.518-8.2-6.518,8.375-1.552,10.434-.936S250.9,205.271,250.285,207.33Z" transform="translate(-176.734 -152.296)" fill="#e2f6c6"/>
          <path id="Trazado_105534" data-name="Trazado 105534" d="M451.708,164.379c-1.519-1.519,1.232-6.734,2.751-8.253S464.087,152,464.087,152s-2.607,8.109-4.127,9.629S453.227,165.9,451.708,164.379Z" transform="translate(-341.538 -115.041)" fill="#17c878"/>
          <path id="Trazado_105535" data-name="Trazado 105535" d="M264.866,382.919a7.781,7.781,0,1,0-15.562,0h3.89a3.89,3.89,0,1,1,3.89,3.89L200,386.8v3.89l57.085.006a7.79,7.79,0,0,0,7.781-7.781Z" transform="translate(-151.369 -283.922)"/>
          <path id="Trazado_105536" data-name="Trazado 105536" d="M15.41,78.971a40.75,40.75,0,0,0,13.768,6.26v8.141H11.672v3.89H29.179V124.5h3.89V71.974a67.716,67.716,0,0,1,3.751-22.62,1.945,1.945,0,0,0-.138-1.723L25.011,28.178l-3.336,2L32.867,48.833a72.6,72.6,0,0,0-3.688,23.141v9.24A37.127,37.127,0,0,1,17.659,75.8C8.523,69.325,3.891,59.531,3.891,46.686A37.086,37.086,0,0,1,38.9,9.777V21.4a1.945,1.945,0,0,0,3.538,1.117,51.57,51.57,0,0,1,9.2-9.4c7.26-5.782,14.932-8.872,22.825-9.2a20.078,20.078,0,0,1-.486,9.225,1.945,1.945,0,0,0,2.736,2.223c.164-.079,16.159-7.673,30.453-2.306.372,3.2.955,13.21-4.876,21.137-4.331,5.889-11.335,9.44-20.818,10.556a1.945,1.945,0,0,0-.853,3.55,29.148,29.148,0,0,1,6.373,5.825c-3.367,3.029-13.741,11.548-22.48,10.091a1.945,1.945,0,0,0-1.7,3.295l4.71,4.71A41.9,41.9,0,0,1,60.659,79.8c-5.781,4.926-11.784,6.975-17.864,6.108V71.974c0-.035,0-.075,0-.109-.146-2.734.657-9.891,4.745-17.412a47.53,47.53,0,0,1,12.7-14.7c6.842-5.343,15.555-9.58,25.9-12.6l-1.088-3.735C74.157,26.6,64.958,31.1,57.7,36.8A51.246,51.246,0,0,0,44,52.818c-5.357,9.982-5.135,18.323-5.094,19.2V124.5H42.8V97.262H68.083v-3.89H42.8V89.834a22.8,22.8,0,0,0,2.642.155c6.122,0,12.2-2.474,17.833-7.3A44.183,44.183,0,0,0,71.7,72.975,1.945,1.945,0,0,0,71.4,70.6l-2.482-2.482c10.934-1.4,21.427-11.767,21.934-12.274a1.945,1.945,0,0,0,.365-2.246,20.674,20.674,0,0,0-4.811-5.709c8.367-1.769,14.75-5.587,19.015-11.385,7.992-10.865,5.53-24.61,5.421-25.191a1.945,1.945,0,0,0-1.156-1.435c-12.154-5.127-25.182-1.64-31.237.571.775-5.878-.653-8.984-.848-9.375A1.945,1.945,0,0,0,75.864,0c-9.2,0-18.444,3.511-26.747,10.152A58.932,58.932,0,0,0,42.8,16.028V7.781A1.945,1.945,0,0,0,40.85,5.836,40.964,40.964,0,0,0,0,46.686C0,64.348,8.38,73.992,15.41,78.971Z" transform="translate(0 0)"/>
          <path id="Trazado_105537" data-name="Trazado 105537" d="M405.4,253.836c0-1.824-1.439-3.353-4.277-4.545A15.99,15.99,0,0,0,395.671,248c-2.43,0-8.739,3.142-10.615,4.105a1.945,1.945,0,0,0,0,3.461c1.876.963,8.185,4.105,10.615,4.105a15.99,15.99,0,0,0,5.449-1.291C403.958,257.189,405.4,255.659,405.4,253.836Zm-9.725,1.945a23.445,23.445,0,0,1-5.256-1.945,23.448,23.448,0,0,1,5.254-1.945,12.057,12.057,0,0,1,5.671,1.945,12.056,12.056,0,0,1-5.67,1.945Z" transform="translate(-290.628 -187.698)"/>
          <path id="Trazado_105538" data-name="Trazado 105538" d="M299.7,360.717a9.61,9.61,0,0,0,3.541-.828,15.966,15.966,0,0,0,4.766-2.94c1.718-1.718,3.958-8.4,4.6-10.409a1.945,1.945,0,0,0-2.447-2.447c-2.007.645-8.69,2.885-10.408,4.6a15.988,15.988,0,0,0-2.94,4.766c-1.164,2.85-1.1,4.948.189,6.238A3.65,3.65,0,0,0,299.7,360.717Zm2.8-9.269a23.439,23.439,0,0,1,5.092-2.341,23.435,23.435,0,0,1-2.34,5.091,12.056,12.056,0,0,1-5.386,2.635A12.055,12.055,0,0,1,302.5,351.448Z" transform="translate(-224.013 -260.355)"/>
          <path id="Trazado_105539" data-name="Trazado 105539" d="M238.451,193.491c-2.328-.7-9.273.5-11.346.887a1.945,1.945,0,0,0-.993,3.315c1.52,1.461,6.662,6.282,8.99,6.979a13.642,13.642,0,0,0,3.652.427,18.369,18.369,0,0,0,1.939-.1c3.061-.327,4.878-1.379,5.4-3.126s-.416-3.625-2.793-5.581a15.994,15.994,0,0,0-4.85-2.8Zm-2.231,7.454a23.422,23.422,0,0,1-4.476-3.372,23.483,23.483,0,0,1,5.593-.356,12.065,12.065,0,0,1,4.875,3.491,12.062,12.062,0,0,1-5.99.236Z" transform="translate(-170.679 -146.281)"/>
          <path id="Trazado_105540" data-name="Trazado 105540" d="M455.342,156.949c1.718-1.718,3.958-8.4,4.6-10.409a1.945,1.945,0,0,0-2.447-2.447c-2.007.645-8.69,2.885-10.408,4.6-1.6,1.6-5.591,8.164-2.751,11a3.651,3.651,0,0,0,2.7,1.017,9.609,9.609,0,0,0,3.541-.828A15.983,15.983,0,0,0,455.342,156.949Zm-5.5-5.5a23.441,23.441,0,0,1,5.092-2.341,23.438,23.438,0,0,1-2.34,5.091,12.056,12.056,0,0,1-5.386,2.635A12.06,12.06,0,0,1,449.839,151.448Z" transform="translate(-335.544 -108.986)"/>
          <path id="Trazado_105541" data-name="Trazado 105541" d="M183.494,54.472a1.945,1.945,0,0,0,.661-.748l7.781-15.562-3.48-1.74-7.552,15.1a80.968,80.968,0,0,0-19.56,19.7l3.237,2.158c.076-.113,7.694-11.434,18.913-18.913Z" transform="translate(-122.112 -27.566)"/>
          <path id="Trazado_105542" data-name="Trazado 105542" d="M216,480h19.452v3.89H216Z" transform="translate(-163.479 -363.286)"/>
          <path id="Trazado_105543" data-name="Trazado 105543" d="M0,455H19.452v3.89H0Z" transform="translate(0 -344.365)"/>
          <path id="Trazado_105544" data-name="Trazado 105544" d="M400,475h27.233v3.89H400Z" transform="translate(-302.738 -359.502)"/>
        </g>
        <g id="Grupo_54911" data-name="Grupo 54911" transform="translate(724.991 11005.11)">
          <g id="viento-2" transform="translate(0)">
            <g id="Grupo_54910" data-name="Grupo 54910" transform="translate(0 0)">
              <g id="Grupo_54909" data-name="Grupo 54909" transform="translate(0 0)">
                <path id="Trazado_105545" data-name="Trazado 105545" d="M.771,194.868c3.345,2.869,7.136,6.121,14.47,6.121s11.125-3.252,14.47-6.121c3.163-2.713,5.9-5.057,11.594-5.057s8.431,2.343,11.594,5.057a2.209,2.209,0,1,0,2.876-3.353c-3.345-2.869-7.137-6.121-14.47-6.121s-11.125,3.252-14.47,6.121c-3.163,2.713-5.9,5.057-11.594,5.057s-8.43-2.343-11.593-5.057a2.209,2.209,0,1,0-2.876,3.353Z" transform="translate(0 -173.312)"/>
                <path id="Trazado_105546" data-name="Trazado 105546" d="M.771,85.474C4.115,88.344,7.907,91.6,15.24,91.6s11.125-3.252,14.47-6.121c3.163-2.713,5.9-5.057,11.594-5.057s8.43,2.343,11.594,5.057a2.209,2.209,0,0,0,2.876-3.353C52.429,79.252,48.638,76,41.3,76s-11.125,3.252-14.47,6.121c-3.163,2.713-5.9,5.057-11.594,5.057S6.81,84.835,3.647,82.121A2.209,2.209,0,1,0,.771,85.474Z" transform="translate(0 -76)"/>
                <path id="Trazado_105547" data-name="Trazado 105547" d="M55.775,300.908c-3.345-2.869-7.137-6.121-14.47-6.121s-11.125,3.252-14.47,6.121c-3.163,2.713-5.9,5.057-11.594,5.057s-8.43-2.343-11.593-5.057h0a2.209,2.209,0,0,0-2.876,3.353c3.345,2.869,7.136,6.121,14.469,6.121s11.125-3.252,14.47-6.121c3.163-2.713,5.9-5.057,11.594-5.057s8.431,2.343,11.594,5.057a2.209,2.209,0,1,0,2.876-3.353Z" transform="translate(-0.001 -270.624)"/>
              </g>
            </g>
          </g>
          <path id="Polígono_1" data-name="Polígono 1" d="M6.225,0,12.45,10.375H0Z" transform="translate(65.009 8.677) rotate(129)"/>
          <path id="Polígono_2" data-name="Polígono 2" d="M6.225,0,12.45,10.375H0Z" transform="translate(65.009 20.089) rotate(129)"/>
          <path id="Polígono_3" data-name="Polígono 3" d="M6.225,0,12.45,10.375H0Z" transform="translate(65.009 32.538) rotate(129)"/>
        </g>
      </g>
    </g>
    <path id="Trazado_105548" data-name="Trazado 105548" d="M-3680.5-13505.713H-3523v-48.306Z" transform="translate(4480.496 16527.494)" fill="#f1d54e" stroke="#000" stroke-linecap="round" stroke-linejoin="round" stroke-width="4"/>
    <g id="moleculas" transform="translate(772.21 3046.809)">
      <path id="Trazado_105549" data-name="Trazado 105549" d="M62.479,49.525A12.954,12.954,0,1,0,49.525,62.479,12.969,12.969,0,0,0,62.479,49.525ZM49.525,41.753a7.781,7.781,0,0,0-7.772,7.772,1.3,1.3,0,0,1-2.591,0A10.375,10.375,0,0,1,49.525,39.162a1.3,1.3,0,0,1,0,2.591Z" transform="translate(-15.694 -31.389)" fill="#f1d54e"/>
      <path id="Trazado_105550" data-name="Trazado 105550" d="M364.991,35.126a8.42,8.42,0,1,0-8.42-8.42A8.43,8.43,0,0,0,364.991,35.126Zm0-14.249a1.3,1.3,0,0,1,0,2.591,3.241,3.241,0,0,0-3.238,3.238,1.3,1.3,0,1,1-2.591,0A5.836,5.836,0,0,1,364.991,20.877Z" transform="translate(-290.356 -15.695)" fill="#fb9e36"/>
      <path id="Trazado_105551" data-name="Trazado 105551" d="M201.143,281.335a16.192,16.192,0,1,0,16.192-16.192A16.211,16.211,0,0,0,201.143,281.335Zm17.488-12.306a1.3,1.3,0,0,1-1.3,1.3,11.024,11.024,0,0,0-11.011,11.011,1.3,1.3,0,0,1-2.591,0,13.616,13.616,0,0,1,13.6-13.6A1.3,1.3,0,0,1,218.631,269.029Z" transform="translate(-156.949 -227.577)" fill="#17c878"/>
      <g id="Grupo_54913" data-name="Grupo 54913" transform="translate(18.286)">
        <path id="Trazado_105552" data-name="Trazado 105552" d="M65.22,54.857A10.375,10.375,0,0,0,54.857,65.22a1.3,1.3,0,1,0,2.591,0,7.781,7.781,0,0,1,7.772-7.772,1.3,1.3,0,1,0,0-2.591Z" transform="translate(-49.675 -47.085)" stroke="#000" stroke-width="1"/>
        <path id="Trazado_105553" data-name="Trazado 105553" d="M219.429,297.031a1.3,1.3,0,0,0,2.591,0,11.024,11.024,0,0,1,11.011-11.011,1.3,1.3,0,1,0,0-2.591A13.616,13.616,0,0,0,219.429,297.031Z" transform="translate(-190.93 -243.272)" stroke="#000" stroke-width="1"/>
        <path id="Trazado_105554" data-name="Trazado 105554" d="M74.636,22.022A11.011,11.011,0,1,0,63.625,11.011c0,.035,0,.068.005.1L48.819,14.076A15.558,15.558,0,1,0,41.51,31.633l6.038,8.452a18.766,18.766,0,1,0,21.852-2.8l5.091-15.273C74.54,22.015,74.587,22.022,74.636,22.022Zm0-19.431a8.42,8.42,0,1,1-8.42,8.42A8.43,8.43,0,0,1,74.636,2.591ZM20.877,18.135A12.954,12.954,0,1,1,33.831,31.089,12.969,12.969,0,0,1,20.877,18.135Zm55.7,35.623A16.192,16.192,0,1,1,60.386,37.566,16.211,16.211,0,0,1,76.579,53.759ZM67.029,36.212A18.593,18.593,0,0,0,49.555,38.44l-5.9-8.267a15.517,15.517,0,0,0,5.725-12.038c0-.511-.028-1.015-.077-1.514l14.669-2.934a11.033,11.033,0,0,0,7.913,7.971Z" transform="translate(-18.286)" stroke="#000" stroke-width="1"/>
        <path id="Trazado_105555" data-name="Trazado 105555" d="M376.152,43.7a1.3,1.3,0,0,0,1.3-1.3,3.241,3.241,0,0,1,3.238-3.238,1.3,1.3,0,0,0,0-2.591,5.836,5.836,0,0,0-5.829,5.829A1.3,1.3,0,0,0,376.152,43.7Z" transform="translate(-324.337 -31.389)" stroke="#000" stroke-width="1"/>
      </g>
    </g>
    <g id="_038---Improved-Sense-of-Smell" data-name="038---Improved-Sense-of-Smell" transform="translate(1173.526 2881.949)">
      <g id="Layer_3" transform="translate(3.063 2)">
        <circle id="Oval" cx="21.989" cy="21.989" r="21.989" transform="translate(71.93 0)" fill="#17c878"/>
        <path id="Shape" d="M7.989,27.13,6.93,30.808" transform="translate(6.889 27.104)" fill="#dfc49c"/>
        <path id="Shape-2" data-name="Shape" d="M35.6,30.808,34.54,27.13" transform="translate(34.472 27.104)" fill="#dfc49c"/>
        <path id="Shape-3" data-name="Shape" d="M83.942,71.965A17.991,17.991,0,0,1,60.333,89.057a27.916,27.916,0,0,1-36.742,0,17.991,17.991,0,1,1-8.7-34.823l12.314-43.1a15.34,15.34,0,0,1,29.506,0l12.314,43.1A17.991,17.991,0,0,1,83.942,71.965Z" transform="translate(-0.017 0)" fill="#ffd4a5"/>
        <g id="Grupo_54914" data-name="Grupo 54914" transform="translate(7.962 69.966)">
          <path id="Shape-4" data-name="Shape" d="M12.176,43.856A4.946,4.946,0,0,1,9,45,5,5,0,1,1,9,35a4.7,4.7,0,0,1,1.079.12Z" transform="translate(-4 -35)" fill="#bf7726"/>
          <path id="Shape-5" data-name="Shape" d="M36.009,35.12A4.7,4.7,0,0,1,37.088,35a5,5,0,0,1,0,10,4.946,4.946,0,0,1-3.178-1.139Z" transform="translate(25.881 -35)" fill="#bf7726"/>
        </g>
      </g>
      <g id="Layer_2" transform="translate(0.971 -0.001)">
        <path id="Shape-6" data-name="Shape" d="M60.988,1A23.988,23.988,0,1,0,84.976,24.988,23.988,23.988,0,0,0,60.988,1Zm0,43.978a19.99,19.99,0,1,1,19.99-19.99A19.99,19.99,0,0,1,60.988,44.978Z" transform="translate(35.024 -0.998)"/>
        <path id="Shape-7" data-name="Shape" d="M60.38,8.8,49.769,22.949,47.4,20.58a2,2,0,0,0-2.827,2.827c4.358,4.358,4.334,4.584,5.411,4.584a2,2,0,0,0,1.6-.8L63.578,11.2a2,2,0,0,0-3.2-2.4Z" transform="translate(42.029 5.995)"/>
        <path id="Shape-8" data-name="Shape" d="M73.68,55.54,61.686,13.585a17.353,17.353,0,0,0-33.372,0L16.32,55.54a19.978,19.978,0,1,0,9.833,38.723,29.865,29.865,0,0,0,37.678,0A19.978,19.978,0,1,0,73.664,55.54ZM67.409,90.831A30.043,30.043,0,0,0,71.7,84.56a6.983,6.983,0,1,0,3.3-13.493,2,2,0,1,0-4-.1,25.987,25.987,0,0,1-51.974,0,2,2,0,0,0-4,.1,6.983,6.983,0,1,0,3.3,13.493,30.043,30.043,0,0,0,4.288,6.263,15.964,15.964,0,0,1-7.584-30.681,2,2,0,1,0,3.786,1.309C47.395-38.6,19.171,60.184,32.17,14.684a13.353,13.353,0,0,1,25.679,0C70.937,60.49,42.573-38.779,71.211,61.462a2,2,0,1,0,3.846-1.1l-.064-.22a15.964,15.964,0,0,1-7.586,30.689Zm7.272-15.778a3,3,0,0,1,2.311,2.911,2.953,2.953,0,0,1-3.7,2.879,29.689,29.689,0,0,0,1.393-5.789ZM16.728,80.842a2.955,2.955,0,0,1-3.7-2.879,3,3,0,0,1,2.311-2.911,29.689,29.689,0,0,0,1.393,5.789Z" transform="translate(-0.971 -0.999)"/>
        <path id="Shape-9" data-name="Shape" d="M24.4,50.587a2,2,0,0,0-2.179-.434c-.536.222-.15-.068-6.647,6.429A2,2,0,0,0,18.4,59.409l2.587-2.585v3.17a8,8,0,0,1-8,8H3a2,2,0,1,0,0,4h10A12.006,12.006,0,0,0,24.988,59.994v-3.17l2.585,2.585A2,2,0,0,0,30.4,56.582Z" transform="translate(-0.941 47.955)"/>
        <path id="Shape-10" data-name="Shape" d="M57.975,67.991h-10a8,8,0,0,1-8-8v-3.17l2.585,2.585A2,2,0,0,0,45.4,56.583l-6-6a2,2,0,0,0-2.179-.434c-.536.222-.15-.068-6.647,6.429A2,2,0,0,0,33.4,59.408l2.587-2.583V60A12.006,12.006,0,0,0,47.98,71.989h10a2,2,0,0,0,0-4Z" transform="translate(28.042 47.954)"/>
        <path id="Shape-11" data-name="Shape" d="M28.4,53.587a2,2,0,0,0-2.179-.434c-.536.222-.15-.068-6.647,6.429A2,2,0,0,0,22.4,62.409l2.587-2.585v7.168a2,2,0,1,0,4,0V59.824l2.585,2.585A2,2,0,1,0,34.4,59.582Z" transform="translate(17.052 50.952)"/>
      </g>
    </g>
    <path id="Trazado_107559" data-name="Trazado 107559" d="M0,0H1070V63H0Z" transform="translate(265.496 2668.949)" fill="#e2f6c6"/>
    <path id="Trazado_107560" data-name="Trazado 107560" d="M10.029-5.664H4.5V0H1.074V-14.219h9.512v2.646H4.5V-8.3h5.527Zm7.91,4.521A3.393,3.393,0,0,1,15.117.2,3.328,3.328,0,0,1,12.485-.815a4.251,4.251,0,0,1-.894-2.905v-6.846h3.291V-3.7A1.183,1.183,0,0,0,16.2-2.344a1.72,1.72,0,0,0,1.611-.811v-7.412h3.311V0H18.037ZM28.037.2A5.432,5.432,0,0,1,24.1-1.255a5.008,5.008,0,0,1-1.5-3.774V-5.3a6.489,6.489,0,0,1,.6-2.861,4.395,4.395,0,0,1,1.753-1.919,5.292,5.292,0,0,1,2.734-.679A4.574,4.574,0,0,1,31.2-9.38,5.43,5.43,0,0,1,32.49-5.527v1.279H25.947a2.372,2.372,0,0,0,.771,1.4,2.3,2.3,0,0,0,1.543.508A2.958,2.958,0,0,0,30.7-3.437l1.5,1.777A4.2,4.2,0,0,1,30.464-.308,5.891,5.891,0,0,1,28.037.2Zm-.371-8.418q-1.445,0-1.719,1.914h3.32v-.254a1.63,1.63,0,0,0-.4-1.226A1.593,1.593,0,0,0,27.666-8.223Zm9.17-2.344.107,1.24a3.583,3.583,0,0,1,3.018-1.436,3.015,3.015,0,0,1,2.466.986,4.7,4.7,0,0,1,.845,2.969V0h-3.3V-6.67a1.783,1.783,0,0,0-.322-1.177,1.491,1.491,0,0,0-1.172-.376,1.569,1.569,0,0,0-1.436.762V0H33.75V-10.566Zm12.09-2.627v2.627h1.738v2.285H48.926v4.834a1.234,1.234,0,0,0,.215.83,1.152,1.152,0,0,0,.85.234,4.828,4.828,0,0,0,.82-.059V-.088A6.074,6.074,0,0,1,48.955.2a3.448,3.448,0,0,1-2.51-.8,3.282,3.282,0,0,1-.811-2.432V-8.281H44.287v-2.285h1.348v-2.627ZM57.07.2a5.432,5.432,0,0,1-3.936-1.45,5.008,5.008,0,0,1-1.5-3.774V-5.3a6.489,6.489,0,0,1,.6-2.861,4.395,4.395,0,0,1,1.753-1.919,5.292,5.292,0,0,1,2.734-.679A4.574,4.574,0,0,1,60.234-9.38a5.43,5.43,0,0,1,1.289,3.853v1.279H54.98a2.372,2.372,0,0,0,.771,1.4,2.3,2.3,0,0,0,1.543.508,2.958,2.958,0,0,0,2.441-1.094l1.5,1.777A4.2,4.2,0,0,1,59.5-.308,5.891,5.891,0,0,1,57.07.2ZM56.7-8.223q-1.445,0-1.719,1.914H58.3v-.254a1.63,1.63,0,0,0-.4-1.226A1.593,1.593,0,0,0,56.7-8.223Z" transform="translate(349.656 2705.01)" fill="#12263f"/>
    <path id="Trazado_107561" data-name="Trazado 107561" d="M5.576-14.219,8.75-4.326l3.164-9.893h4.512V0H12.988V-3.32l.332-6.8L9.883,0H7.617L4.17-10.127,4.5-3.32V0H1.074V-14.219ZM23.564.2a5.432,5.432,0,0,1-3.936-1.45,5.008,5.008,0,0,1-1.5-3.774V-5.3a6.489,6.489,0,0,1,.6-2.861,4.395,4.395,0,0,1,1.753-1.919,5.292,5.292,0,0,1,2.734-.679A4.574,4.574,0,0,1,26.729-9.38a5.43,5.43,0,0,1,1.289,3.853v1.279H21.475a2.372,2.372,0,0,0,.771,1.4,2.3,2.3,0,0,0,1.543.508A2.958,2.958,0,0,0,26.23-3.437l1.5,1.777A4.2,4.2,0,0,1,25.991-.308,5.891,5.891,0,0,1,23.564.2Zm-.371-8.418q-1.445,0-1.719,1.914h3.32v-.254a1.63,1.63,0,0,0-.4-1.226A1.593,1.593,0,0,0,23.193-8.223Zm5.732,2.861A6.455,6.455,0,0,1,30.01-9.316a3.568,3.568,0,0,1,3.027-1.445A3.035,3.035,0,0,1,35.42-9.648V-15h3.3V0H35.762L35.6-1.133A3.116,3.116,0,0,1,33.018.2,3.562,3.562,0,0,1,30.029-1.25,6.659,6.659,0,0,1,28.926-5.361Zm3.291.205q0,2.813,1.641,2.813a1.62,1.62,0,0,0,1.563-.918V-7.285a1.576,1.576,0,0,0-1.543-.937q-1.523,0-1.65,2.461ZM44.063,0h-3.3V-10.566h3.3Zm-3.5-13.3a1.482,1.482,0,0,1,.508-1.159,1.909,1.909,0,0,1,1.318-.452,1.909,1.909,0,0,1,1.318.452,1.482,1.482,0,0,1,.508,1.159,1.482,1.482,0,0,1-.508,1.159,1.909,1.909,0,0,1-1.318.452,1.909,1.909,0,0,1-1.318-.452A1.482,1.482,0,0,1,40.566-13.3Zm5.107,7.92A6.236,6.236,0,0,1,46.289-8.2a4.4,4.4,0,0,1,1.768-1.9,5.323,5.323,0,0,1,2.705-.664,4.858,4.858,0,0,1,3.74,1.47,5.64,5.64,0,0,1,1.367,4v.117A5.472,5.472,0,0,1,54.5-1.255,4.871,4.871,0,0,1,50.781.2a4.927,4.927,0,0,1-3.623-1.353,5.29,5.29,0,0,1-1.475-3.667Zm3.291.205a3.932,3.932,0,0,0,.459,2.148,1.529,1.529,0,0,0,1.357.684q1.758,0,1.8-2.705v-.332q0-2.842-1.816-2.842-1.65,0-1.787,2.451Z" transform="translate(772.496 2705.01)" fill="#12263f"/>
    <path id="Trazado_107562" data-name="Trazado 107562" d="M6.357-5.029H4.5V0H1.074V-14.219h5.6A6.246,6.246,0,0,1,10.625-13.1a3.8,3.8,0,0,1,1.426,3.17,4.616,4.616,0,0,1-.6,2.458,4.263,4.263,0,0,1-1.88,1.58L12.539-.147V0H8.867ZM4.5-7.666H6.67A1.946,1.946,0,0,0,8.14-8.18a1.987,1.987,0,0,0,.493-1.434,2.01,2.01,0,0,0-.5-1.444,1.928,1.928,0,0,0-1.465-.524H4.5ZM19.082.2a5.432,5.432,0,0,1-3.936-1.45,5.008,5.008,0,0,1-1.5-3.774V-5.3a6.489,6.489,0,0,1,.6-2.861A4.395,4.395,0,0,1,16-10.083a5.292,5.292,0,0,1,2.734-.679A4.574,4.574,0,0,1,22.246-9.38a5.43,5.43,0,0,1,1.289,3.853v1.279H16.992a2.372,2.372,0,0,0,.771,1.4,2.3,2.3,0,0,0,1.543.508,2.958,2.958,0,0,0,2.441-1.094l1.5,1.777A4.2,4.2,0,0,1,21.509-.308,5.891,5.891,0,0,1,19.082.2Zm-.371-8.418q-1.445,0-1.719,1.914h3.32v-.254a1.63,1.63,0,0,0-.4-1.226A1.593,1.593,0,0,0,18.711-8.223ZM29.326-2.344A1.464,1.464,0,0,0,30.4-2.72a1.379,1.379,0,0,0,.371-1.05h3.086A3.653,3.653,0,0,1,32.612-.918,4.631,4.631,0,0,1,29.4.2,4.689,4.689,0,0,1,25.771-1.25a5.7,5.7,0,0,1-1.328-4v-.137a6.436,6.436,0,0,1,.591-2.827,4.3,4.3,0,0,1,1.7-1.885,5.081,5.081,0,0,1,2.637-.659,4.573,4.573,0,0,1,3.271,1.143,4.053,4.053,0,0,1,1.211,3.1H30.771a1.807,1.807,0,0,0-.4-1.26A1.382,1.382,0,0,0,29.3-8.223q-1.279,0-1.494,1.631a11.508,11.508,0,0,0-.068,1.426,4.52,4.52,0,0,0,.381,2.207A1.319,1.319,0,0,0,29.326-2.344ZM40.361.2a5.432,5.432,0,0,1-3.936-1.45,5.008,5.008,0,0,1-1.5-3.774V-5.3a6.489,6.489,0,0,1,.6-2.861,4.395,4.395,0,0,1,1.753-1.919,5.292,5.292,0,0,1,2.734-.679A4.574,4.574,0,0,1,43.525-9.38a5.43,5.43,0,0,1,1.289,3.853v1.279H38.271a2.372,2.372,0,0,0,.771,1.4,2.3,2.3,0,0,0,1.543.508,2.958,2.958,0,0,0,2.441-1.094l1.5,1.777A4.2,4.2,0,0,1,42.788-.308,5.891,5.891,0,0,1,40.361.2ZM39.99-8.223q-1.445,0-1.719,1.914h3.32v-.254a1.63,1.63,0,0,0-.4-1.226A1.593,1.593,0,0,0,39.99-8.223ZM55.947-5.205a6.372,6.372,0,0,1-1.108,3.931A3.554,3.554,0,0,1,51.846.2,3.046,3.046,0,0,1,49.453-.869V4.063H46.162V-10.566h3.076l.1.977a3.046,3.046,0,0,1,2.49-1.172,3.582,3.582,0,0,1,3.037,1.44,6.45,6.45,0,0,1,1.084,3.96ZM52.656-5.41q0-2.812-1.641-2.812a1.549,1.549,0,0,0-1.562.84v4.16a1.6,1.6,0,0,0,1.582.879q1.572,0,1.621-2.715Zm8.574-7.783v2.627h1.738v2.285H61.23v4.834a1.234,1.234,0,0,0,.215.83,1.152,1.152,0,0,0,.85.234,4.828,4.828,0,0,0,.82-.059V-.088A6.074,6.074,0,0,1,61.26.2a3.448,3.448,0,0,1-2.51-.8,3.282,3.282,0,0,1-.811-2.432V-8.281H56.592v-2.285h1.348v-2.627Zm2.324,7.813A6.236,6.236,0,0,1,64.17-8.2a4.4,4.4,0,0,1,1.768-1.9,5.323,5.323,0,0,1,2.705-.664,4.858,4.858,0,0,1,3.74,1.47,5.64,5.64,0,0,1,1.367,4v.117a5.472,5.472,0,0,1-1.372,3.921A4.871,4.871,0,0,1,68.662.2a4.927,4.927,0,0,1-3.623-1.353,5.29,5.29,0,0,1-1.475-3.667Zm3.291.205A3.932,3.932,0,0,0,67.3-3.027a1.529,1.529,0,0,0,1.357.684q1.758,0,1.8-2.705v-.332q0-2.842-1.816-2.842-1.65,0-1.787,2.451ZM81.592-7.588l-1.084-.078a1.947,1.947,0,0,0-1.992.977V0H75.225V-10.566h3.086l.107,1.357a2.548,2.548,0,0,1,2.314-1.553,3.209,3.209,0,0,1,.918.117Z" transform="translate(1183.336 2705.01)" fill="#12263f"/>
    <path id="Trazado_107563" data-name="Trazado 107563" d="M0,0H70" transform="translate(345.996 2712.889)" fill="none" stroke="#fb9e36" stroke-linecap="round" stroke-width="2"/>
    <path id="Trazado_107564" data-name="Trazado 107564" d="M0,0H56" transform="translate(772.996 2712.889)" fill="none" stroke="#fb9e36" stroke-linecap="round" stroke-width="2"/>
    <path id="Trazado_107565" data-name="Trazado 107565" d="M0,0H82" transform="translate(1183.837 2712.889)" fill="none" stroke="#fb9e36" stroke-linecap="round" stroke-width="2"/>
    <path id="Trazado_107558" data-name="Trazado 107558" d="M1.143,0V-12.8H5.08a5.98,5.98,0,0,1,3.019.76,5.3,5.3,0,0,1,2.079,2.162,6.669,6.669,0,0,1,.747,3.186V-6.1a6.688,6.688,0,0,1-.734,3.173A5.256,5.256,0,0,1,8.121-.773,6.025,6.025,0,0,1,5.106,0ZM3.779-10.661v8.543H5.054A2.863,2.863,0,0,0,7.418-3.129a4.567,4.567,0,0,0,.835-2.892V-6.7a4.64,4.64,0,0,0-.809-2.958A2.854,2.854,0,0,0,5.08-10.661ZM15.354,0H12.806V-9.51h2.549Zm-2.7-11.971a1.251,1.251,0,0,1,.382-.94,1.436,1.436,0,0,1,1.042-.369,1.44,1.44,0,0,1,1.037.369,1.244,1.244,0,0,1,.387.94,1.247,1.247,0,0,1-.391.949,1.443,1.443,0,0,1-1.033.369,1.443,1.443,0,0,1-1.033-.369A1.247,1.247,0,0,1,12.656-11.971ZM22.6-2.628a.818.818,0,0,0-.461-.734,5.241,5.241,0,0,0-1.481-.479q-3.393-.712-3.393-2.883a2.613,2.613,0,0,1,1.05-2.114,4.237,4.237,0,0,1,2.747-.848,4.56,4.56,0,0,1,2.9.853A2.687,2.687,0,0,1,25.04-6.618H22.5a1.229,1.229,0,0,0-.352-.9,1.488,1.488,0,0,0-1.1-.356,1.52,1.52,0,0,0-.993.29.916.916,0,0,0-.352.738.783.783,0,0,0,.4.681,4.114,4.114,0,0,0,1.349.448,11.019,11.019,0,0,1,1.6.426,2.628,2.628,0,0,1,2.013,2.558,2.481,2.481,0,0,1-1.116,2.1,4.815,4.815,0,0,1-2.883.8A5.029,5.029,0,0,1,18.945-.25,3.561,3.561,0,0,1,17.49-1.419a2.716,2.716,0,0,1-.527-1.6h2.408a1.326,1.326,0,0,0,.5,1.037,1.987,1.987,0,0,0,1.248.36,1.839,1.839,0,0,0,1.1-.277A.861.861,0,0,0,22.6-2.628ZM35.262-4.667a5.7,5.7,0,0,1-1,3.52A3.2,3.2,0,0,1,31.57.176a2.963,2.963,0,0,1-2.329-1V3.656H26.7V-9.51h2.355l.088.932a2.985,2.985,0,0,1,2.408-1.107,3.22,3.22,0,0,1,2.733,1.3A5.858,5.858,0,0,1,35.262-4.8Zm-2.54-.194a3.763,3.763,0,0,0-.47-2.054,1.53,1.53,0,0,0-1.367-.723,1.662,1.662,0,0,0-1.644.917v3.906a1.691,1.691,0,0,0,1.661.943Q32.722-1.872,32.722-4.861ZM41.212.176a4.668,4.668,0,0,1-3.406-1.283,4.561,4.561,0,0,1-1.314-3.419v-.246a5.745,5.745,0,0,1,.554-2.562,4.064,4.064,0,0,1,1.569-1.74,4.4,4.4,0,0,1,2.316-.611A3.947,3.947,0,0,1,44-8.455a5,5,0,0,1,1.121,3.489v1.037H39.067a2.36,2.36,0,0,0,.743,1.494,2.245,2.245,0,0,0,1.569.563,2.742,2.742,0,0,0,2.294-1.063l1.248,1.4A3.813,3.813,0,0,1,43.374-.277,5.075,5.075,0,0,1,41.212.176Zm-.29-7.813a1.587,1.587,0,0,0-1.226.512,2.651,2.651,0,0,0-.6,1.466h3.533v-.2a1.891,1.891,0,0,0-.457-1.311A1.638,1.638,0,0,0,40.922-7.638Zm10.986.51a6.9,6.9,0,0,0-.914-.07,1.86,1.86,0,0,0-1.89.976V0h-2.54V-9.51h2.4l.07,1.134a2.354,2.354,0,0,1,2.118-1.31,2.662,2.662,0,0,1,.791.114Zm6.372,4.5a.818.818,0,0,0-.461-.734,5.241,5.241,0,0,0-1.481-.479q-3.393-.712-3.393-2.883A2.613,2.613,0,0,1,54-8.837a4.237,4.237,0,0,1,2.747-.848,4.56,4.56,0,0,1,2.9.853,2.687,2.687,0,0,1,1.085,2.215h-2.54a1.229,1.229,0,0,0-.352-.9,1.488,1.488,0,0,0-1.1-.356,1.52,1.52,0,0,0-.993.29.916.916,0,0,0-.352.738.783.783,0,0,0,.4.681,4.114,4.114,0,0,0,1.349.448,11.019,11.019,0,0,1,1.6.426A2.628,2.628,0,0,1,60.75-2.733a2.481,2.481,0,0,1-1.116,2.1,4.815,4.815,0,0,1-2.883.8A5.029,5.029,0,0,1,54.628-.25a3.561,3.561,0,0,1-1.455-1.169,2.716,2.716,0,0,1-.527-1.6h2.408a1.326,1.326,0,0,0,.5,1.037,1.987,1.987,0,0,0,1.248.36,1.839,1.839,0,0,0,1.1-.277A.861.861,0,0,0,58.28-2.628ZM65.065,0H62.517V-9.51h2.549Zm-2.7-11.971a1.251,1.251,0,0,1,.382-.94,1.436,1.436,0,0,1,1.042-.369,1.44,1.44,0,0,1,1.037.369,1.244,1.244,0,0,1,.387.94,1.247,1.247,0,0,1-.391.949,1.443,1.443,0,0,1-1.033.369,1.443,1.443,0,0,1-1.033-.369A1.247,1.247,0,0,1,62.367-11.971Zm4.395,7.128a5.64,5.64,0,0,1,.545-2.522,3.989,3.989,0,0,1,1.569-1.714,4.577,4.577,0,0,1,2.377-.606A4.33,4.33,0,0,1,74.4-8.508a4.727,4.727,0,0,1,1.358,3.2l.018.65a4.97,4.97,0,0,1-1.222,3.511A4.247,4.247,0,0,1,71.271.176a4.268,4.268,0,0,1-3.283-1.318,5.058,5.058,0,0,1-1.226-3.586Zm2.54.18a3.555,3.555,0,0,0,.51,2.073,1.682,1.682,0,0,0,1.459.717,1.686,1.686,0,0,0,1.441-.709,3.89,3.89,0,0,0,.519-2.267,3.519,3.519,0,0,0-.519-2.06,1.686,1.686,0,0,0-1.459-.731,1.658,1.658,0,0,0-1.441.726A3.955,3.955,0,0,0,69.3-4.662ZM71.754-13.5h2.769l-2.435,2.725H70.022Zm7.919,3.99.079,1.1a3.32,3.32,0,0,1,2.733-1.274,2.759,2.759,0,0,1,2.25.888,4.142,4.142,0,0,1,.756,2.654V0h-2.54V-6.1A1.654,1.654,0,0,0,82.6-7.272a1.572,1.572,0,0,0-1.169-.366,1.747,1.747,0,0,0-1.608.916V0h-2.54V-9.51Z" transform="translate(644.944 2840.713)" fill="#12263f"/>
    <path id="Trazado_107552" data-name="Trazado 107552" d="M1.143,0V-12.8H5.08a5.98,5.98,0,0,1,3.019.76,5.3,5.3,0,0,1,2.079,2.162,6.669,6.669,0,0,1,.747,3.186V-6.1a6.688,6.688,0,0,1-.734,3.173A5.256,5.256,0,0,1,8.121-.773,6.025,6.025,0,0,1,5.106,0ZM3.779-10.661v8.543H5.054A2.863,2.863,0,0,0,7.418-3.129a4.567,4.567,0,0,0,.835-2.892V-6.7a4.64,4.64,0,0,0-.809-2.958A2.854,2.854,0,0,0,5.08-10.661ZM15.354,0H12.806V-9.51h2.549Zm-2.7-11.971a1.251,1.251,0,0,1,.382-.94,1.436,1.436,0,0,1,1.042-.369,1.44,1.44,0,0,1,1.037.369,1.244,1.244,0,0,1,.387.94,1.247,1.247,0,0,1-.391.949,1.443,1.443,0,0,1-1.033.369,1.443,1.443,0,0,1-1.033-.369A1.247,1.247,0,0,1,12.656-11.971ZM18.141,0V-7.646H16.726V-9.51h1.415v-.809a3.283,3.283,0,0,1,.918-2.483,3.557,3.557,0,0,1,2.571-.883,5.987,5.987,0,0,1,1.292.174L22.9-11.558a3.238,3.238,0,0,0-.773-.079q-1.433,0-1.433,1.356v.771h1.89v1.863h-1.89V0ZM29.593-.967a3.185,3.185,0,0,1-2.6,1.143A3,3,0,0,1,24.658-.7a3.752,3.752,0,0,1-.822-2.575V-9.51h2.54v6.151q0,1.487,1.354,1.487a1.834,1.834,0,0,0,1.775-.9V-9.51h2.549V0H29.663ZM39.12-2.628a.818.818,0,0,0-.461-.734,5.241,5.241,0,0,0-1.481-.479q-3.393-.712-3.393-2.883a2.613,2.613,0,0,1,1.05-2.114,4.237,4.237,0,0,1,2.747-.848,4.56,4.56,0,0,1,2.9.853,2.687,2.687,0,0,1,1.085,2.215h-2.54a1.229,1.229,0,0,0-.352-.9,1.488,1.488,0,0,0-1.1-.356,1.52,1.52,0,0,0-.993.29.916.916,0,0,0-.352.738.783.783,0,0,0,.4.681,4.114,4.114,0,0,0,1.349.448,11.019,11.019,0,0,1,1.6.426A2.628,2.628,0,0,1,41.59-2.733a2.481,2.481,0,0,1-1.116,2.1,4.815,4.815,0,0,1-2.883.8A5.029,5.029,0,0,1,35.468-.25a3.561,3.561,0,0,1-1.455-1.169,2.716,2.716,0,0,1-.527-1.6h2.408a1.326,1.326,0,0,0,.5,1.037,1.987,1.987,0,0,0,1.248.36,1.839,1.839,0,0,0,1.1-.277A.861.861,0,0,0,39.12-2.628ZM45.905,0H43.356V-9.51h2.549Zm-2.7-11.971a1.251,1.251,0,0,1,.382-.94,1.436,1.436,0,0,1,1.042-.369,1.44,1.44,0,0,1,1.037.369,1.244,1.244,0,0,1,.387.94,1.247,1.247,0,0,1-.391.949,1.443,1.443,0,0,1-1.033.369,1.443,1.443,0,0,1-1.033-.369A1.247,1.247,0,0,1,43.207-11.971ZM47.6-4.843a5.64,5.64,0,0,1,.545-2.522,3.989,3.989,0,0,1,1.569-1.714,4.577,4.577,0,0,1,2.377-.606,4.33,4.33,0,0,1,3.142,1.178,4.727,4.727,0,0,1,1.358,3.2l.018.65a4.97,4.97,0,0,1-1.222,3.511A4.247,4.247,0,0,1,52.11.176a4.268,4.268,0,0,1-3.283-1.318A5.058,5.058,0,0,1,47.6-4.729Zm2.54.18a3.555,3.555,0,0,0,.51,2.073,1.682,1.682,0,0,0,1.459.717,1.686,1.686,0,0,0,1.441-.709,3.89,3.89,0,0,0,.519-2.267,3.519,3.519,0,0,0-.519-2.06,1.686,1.686,0,0,0-1.459-.731,1.658,1.658,0,0,0-1.441.726A3.955,3.955,0,0,0,50.142-4.662ZM52.594-13.5h2.769l-2.435,2.725H50.862Zm7.919,3.99.079,1.1a3.32,3.32,0,0,1,2.733-1.274,2.759,2.759,0,0,1,2.25.888,4.142,4.142,0,0,1,.756,2.654V0h-2.54V-6.1a1.654,1.654,0,0,0-.352-1.176,1.572,1.572,0,0,0-1.169-.366,1.747,1.747,0,0,0-1.608.916V0h-2.54V-9.51Z" transform="translate(644.944 3043.809)" fill="#12263f"/>
    <path id="Trazado_107553" data-name="Trazado 107553" d="M11.188-4.263A4.528,4.528,0,0,1,9.664-1.011,5.355,5.355,0,0,1,6.038.176,4.816,4.816,0,0,1,2.167-1.481,6.793,6.793,0,0,1,.756-6.029v-.782a7.671,7.671,0,0,1,.65-3.252,4.874,4.874,0,0,1,1.859-2.158,5.207,5.207,0,0,1,2.808-.751,5.217,5.217,0,0,1,3.568,1.187,4.866,4.866,0,0,1,1.564,3.331H8.569a2.673,2.673,0,0,0-.69-1.8,2.555,2.555,0,0,0-1.806-.558A2.24,2.24,0,0,0,4.1-9.866a5.3,5.3,0,0,0-.672,2.931v.967a5.667,5.667,0,0,0,.628,3.032,2.2,2.2,0,0,0,1.982.958,2.6,2.6,0,0,0,1.824-.558,2.521,2.521,0,0,0,.69-1.727Zm1.7-6.284a2.336,2.336,0,0,1,.712-1.714,2.3,2.3,0,0,1,1.679-.712,2.25,2.25,0,0,1,1.657.708,2.354,2.354,0,0,1,.7,1.718,2.3,2.3,0,0,1-.7,1.7,2.278,2.278,0,0,1-1.657.69,2.342,2.342,0,0,1-1.67-.69A2.261,2.261,0,0,1,12.885-10.547Zm2.391,1.09a1.027,1.027,0,0,0,.769-.312,1.072,1.072,0,0,0,.3-.778,1.138,1.138,0,0,0-.3-.791.993.993,0,0,0-.769-.334,1.034,1.034,0,0,0-.782.334,1.111,1.111,0,0,0-.316.791,1.045,1.045,0,0,0,.321.773A1.067,1.067,0,0,0,15.275-9.457Z" transform="translate(778.996 3025.893)" fill="#12263f"/>
    <path id="Trazado_107554" data-name="Trazado 107554" d="M11.188-4.263A4.528,4.528,0,0,1,9.664-1.011,5.355,5.355,0,0,1,6.038.176,4.816,4.816,0,0,1,2.167-1.481,6.793,6.793,0,0,1,.756-6.029v-.782a7.671,7.671,0,0,1,.65-3.252,4.874,4.874,0,0,1,1.859-2.158,5.207,5.207,0,0,1,2.808-.751,5.217,5.217,0,0,1,3.568,1.187,4.866,4.866,0,0,1,1.564,3.331H8.569a2.673,2.673,0,0,0-.69-1.8,2.555,2.555,0,0,0-1.806-.558A2.24,2.24,0,0,0,4.1-9.866a5.3,5.3,0,0,0-.672,2.931v.967a5.667,5.667,0,0,0,.628,3.032,2.2,2.2,0,0,0,1.982.958,2.6,2.6,0,0,0,1.824-.558,2.521,2.521,0,0,0,.69-1.727Zm6.5-.193H12.744V-6.5h4.948Z" transform="translate(963.496 3025.893)" fill="#12263f"/>
    <path id="Trazado_107555" data-name="Trazado 107555" d="M1.039-4.617a12.079,12.079,0,0,1,.473-3.391,9.85,9.85,0,0,1,1.41-2.953,6,6,0,0,1,1.945-1.875l.3.953A6.222,6.222,0,0,0,3.293-9.211a11.583,11.583,0,0,0-.8,4.023l-.008.664A11.643,11.643,0,0,0,3.586.711,6.252,6.252,0,0,0,5.164,2.789l-.3.883A6.192,6.192,0,0,1,2.883,1.734,10.859,10.859,0,0,1,1.039-4.617ZM13.07-2.977H8.3L7.234,0H5.688l4.344-11.375h1.313L15.7,0H14.156ZM8.758-4.2h3.867l-1.937-5.32Zm11.633,3.18a2.082,2.082,0,0,0,1.352-.469,1.649,1.649,0,0,0,.641-1.172H23.75a2.621,2.621,0,0,1-.5,1.383A3.293,3.293,0,0,1,22.02-.234a3.55,3.55,0,0,1-1.629.391A3.482,3.482,0,0,1,17.645-1a4.59,4.59,0,0,1-1.02-3.152v-.242a5.089,5.089,0,0,1,.453-2.2,3.451,3.451,0,0,1,1.3-1.492,3.7,3.7,0,0,1,2-.531,3.39,3.39,0,0,1,2.363.852,3.043,3.043,0,0,1,1,2.211H22.383a1.992,1.992,0,0,0-.621-1.348,1.932,1.932,0,0,0-1.379-.527,2.023,2.023,0,0,0-1.707.793,3.724,3.724,0,0,0-.605,2.293v.273a3.65,3.65,0,0,0,.6,2.25A2.033,2.033,0,0,0,20.391-1.023Zm8.375,0a2.082,2.082,0,0,0,1.352-.469,1.649,1.649,0,0,0,.641-1.172h1.367a2.621,2.621,0,0,1-.5,1.383,3.293,3.293,0,0,1-1.23,1.047,3.55,3.55,0,0,1-1.629.391A3.482,3.482,0,0,1,26.02-1,4.59,4.59,0,0,1,25-4.148v-.242a5.089,5.089,0,0,1,.453-2.2,3.451,3.451,0,0,1,1.3-1.492,3.7,3.7,0,0,1,2-.531,3.39,3.39,0,0,1,2.363.852,3.043,3.043,0,0,1,1,2.211H30.758a1.992,1.992,0,0,0-.621-1.348,1.932,1.932,0,0,0-1.379-.527,2.023,2.023,0,0,0-1.707.793,3.724,3.724,0,0,0-.605,2.293v.273a3.65,3.65,0,0,0,.6,2.25A2.033,2.033,0,0,0,28.766-1.023ZM35.32,0H33.875V-8.453H35.32ZM33.758-10.7a.863.863,0,0,1,.215-.594.807.807,0,0,1,.637-.242.819.819,0,0,1,.641.242.854.854,0,0,1,.219.594.826.826,0,0,1-.219.586.834.834,0,0,1-.641.234.821.821,0,0,1-.637-.234A.834.834,0,0,1,33.758-10.7ZM37.25-4.3a4.993,4.993,0,0,1,.488-2.234A3.643,3.643,0,0,1,39.1-8.07a3.7,3.7,0,0,1,1.988-.539,3.565,3.565,0,0,1,2.793,1.2,4.6,4.6,0,0,1,1.066,3.18v.1a5.036,5.036,0,0,1-.473,2.215A3.589,3.589,0,0,1,43.121-.391,3.743,3.743,0,0,1,41.1.156a3.556,3.556,0,0,1-2.785-1.2A4.575,4.575,0,0,1,37.25-4.2Zm1.453.172a3.616,3.616,0,0,0,.652,2.258,2.088,2.088,0,0,0,1.746.852,2.075,2.075,0,0,0,1.75-.863A3.955,3.955,0,0,0,43.5-4.3a3.61,3.61,0,0,0-.66-2.254,2.1,2.1,0,0,0-1.754-.863,2.075,2.075,0,0,0-1.727.852A3.925,3.925,0,0,0,38.7-4.133Zm3.039-7.852h1.75L41.4-9.687l-1.164,0Zm6.383,3.531.047,1.063A3.08,3.08,0,0,1,50.7-8.609q2.68,0,2.7,3.023V0H51.961V-5.594a1.946,1.946,0,0,0-.418-1.352,1.675,1.675,0,0,0-1.277-.437,2.086,2.086,0,0,0-1.234.375,2.546,2.546,0,0,0-.828.984V0H46.758V-8.453ZM59.2-4.3a4.952,4.952,0,0,1,.922-3.129,2.915,2.915,0,0,1,2.414-1.184,2.932,2.932,0,0,1,2.352,1.016V-12h1.445V0H65l-.07-.906A2.943,2.943,0,0,1,62.516.156a2.887,2.887,0,0,1-2.395-1.2A5.008,5.008,0,0,1,59.2-4.187Zm1.445.164a3.749,3.749,0,0,0,.594,2.25,1.92,1.92,0,0,0,1.641.813A2.108,2.108,0,0,0,64.883-2.3V-6.187a2.125,2.125,0,0,0-1.992-1.2,1.929,1.929,0,0,0-1.656.82A4.128,4.128,0,0,0,60.641-4.133ZM72.078.156a3.693,3.693,0,0,1-2.8-1.129A4.19,4.19,0,0,1,68.2-3.992v-.266a5.073,5.073,0,0,1,.48-2.246,3.748,3.748,0,0,1,1.344-1.547A3.378,3.378,0,0,1,71.9-8.609a3.166,3.166,0,0,1,2.563,1.086,4.7,4.7,0,0,1,.914,3.109v.6H69.648a3,3,0,0,0,.73,2.02,2.3,2.3,0,0,0,1.777.77,2.517,2.517,0,0,0,1.3-.312,3.259,3.259,0,0,0,.93-.828l.883.688A3.55,3.55,0,0,1,72.078.156ZM71.9-7.422a1.928,1.928,0,0,0-1.469.637A3.1,3.1,0,0,0,69.7-5H73.93v-.109a2.753,2.753,0,0,0-.594-1.707A1.815,1.815,0,0,0,71.9-7.422ZM78.617,0H77.172V-12h1.445ZM87.68-1.961l2.094-6.492H91.25L88.219,0h-1.1L84.055-8.453h1.477ZM94.211,0H92.766V-8.453h1.445ZM92.648-10.7a.863.863,0,0,1,.215-.594.807.807,0,0,1,.637-.242.819.819,0,0,1,.641.242.854.854,0,0,1,.219.594.826.826,0,0,1-.219.586.834.834,0,0,1-.641.234.821.821,0,0,1-.637-.234A.834.834,0,0,1,92.648-10.7ZM100.031.156a3.693,3.693,0,0,1-2.8-1.129,4.19,4.19,0,0,1-1.078-3.02v-.266a5.073,5.073,0,0,1,.48-2.246A3.748,3.748,0,0,1,97.98-8.051a3.378,3.378,0,0,1,1.871-.559,3.166,3.166,0,0,1,2.563,1.086,4.7,4.7,0,0,1,.914,3.109v.6H97.6a3,3,0,0,0,.73,2.02,2.3,2.3,0,0,0,1.777.77,2.517,2.517,0,0,0,1.3-.312,3.259,3.259,0,0,0,.93-.828l.883.688A3.55,3.55,0,0,1,100.031.156Zm-.18-7.578a1.928,1.928,0,0,0-1.469.637A3.1,3.1,0,0,0,97.648-5h4.234v-.109a2.753,2.753,0,0,0-.594-1.707A1.815,1.815,0,0,0,99.852-7.422Zm6.516-1.031.047,1.063a3.08,3.08,0,0,1,2.531-1.219q2.68,0,2.7,3.023V0H110.2V-5.594a1.946,1.946,0,0,0-.418-1.352,1.675,1.675,0,0,0-1.277-.437,2.086,2.086,0,0,0-1.234.375,2.546,2.546,0,0,0-.828.984V0H105V-8.453Zm9.422-2.047v2.047h1.578v1.117h-1.578v5.249a1.173,1.173,0,0,0,.211.763.888.888,0,0,0,.719.254,3.5,3.5,0,0,0,.688-.094V0A4.215,4.215,0,0,1,116.3.156a1.8,1.8,0,0,1-1.461-.586,2.517,2.517,0,0,1-.492-1.664V-7.336H112.8V-8.453h1.539V-10.5Zm2.727,6.2A4.993,4.993,0,0,1,119-6.539a3.643,3.643,0,0,1,1.359-1.531,3.7,3.7,0,0,1,1.988-.539,3.565,3.565,0,0,1,2.793,1.2,4.6,4.6,0,0,1,1.066,3.18v.1a5.036,5.036,0,0,1-.473,2.215,3.589,3.589,0,0,1-1.352,1.527,3.743,3.743,0,0,1-2.02.547,3.556,3.556,0,0,1-2.785-1.2A4.575,4.575,0,0,1,118.516-4.2Zm1.453.172a3.616,3.616,0,0,0,.652,2.258,2.088,2.088,0,0,0,1.746.852,2.075,2.075,0,0,0,1.75-.863,3.955,3.955,0,0,0,.648-2.418,3.61,3.61,0,0,0-.66-2.254,2.1,2.1,0,0,0-1.754-.863,2.075,2.075,0,0,0-1.727.852A3.925,3.925,0,0,0,119.969-4.133Zm11.391-.406A12.084,12.084,0,0,1,130.9-1.2a9.876,9.876,0,0,1-1.4,2.949,6.127,6.127,0,0,1-1.973,1.922l-.3-.883A6.281,6.281,0,0,0,129.16-.074a12.387,12.387,0,0,0,.746-4.309v-.25a12.861,12.861,0,0,0-.344-3.051,10.3,10.3,0,0,0-.957-2.527,5.838,5.838,0,0,0-1.379-1.742l.3-.883A6.1,6.1,0,0,1,129.5-10.93a9.9,9.9,0,0,1,1.4,2.945A12.364,12.364,0,0,1,131.359-4.539Z" transform="translate(621.944 2859.713)" fill="#12263f"/>
    <path id="Trazado_107556" data-name="Trazado 107556" d="M1.039-4.617a12.079,12.079,0,0,1,.473-3.391,9.85,9.85,0,0,1,1.41-2.953,6,6,0,0,1,1.945-1.875l.3.953A6.222,6.222,0,0,0,3.293-9.211a11.583,11.583,0,0,0-.8,4.023l-.008.664A11.643,11.643,0,0,0,3.586.711,6.252,6.252,0,0,0,5.164,2.789l-.3.883A6.192,6.192,0,0,1,2.883,1.734,10.859,10.859,0,0,1,1.039-4.617ZM15.188-1.492A3.465,3.465,0,0,1,13.574-.254a6.517,6.517,0,0,1-2.41.41A4.674,4.674,0,0,1,8.7-.5,4.346,4.346,0,0,1,7.027-2.352a6.408,6.408,0,0,1-.605-2.789v-.992a5.982,5.982,0,0,1,1.2-3.984,4.179,4.179,0,0,1,3.371-1.414,4.316,4.316,0,0,1,2.867.91,3.965,3.965,0,0,1,1.328,2.582h-1.5A2.48,2.48,0,0,0,11-10.3a2.655,2.655,0,0,0-2.285,1.06A5.173,5.173,0,0,0,7.93-6.176v.93A4.848,4.848,0,0,0,8.8-2.2a2.836,2.836,0,0,0,2.367,1.13,5.228,5.228,0,0,0,1.477-.187A2.283,2.283,0,0,0,13.7-1.889V-4.437H11.063V-5.664h4.125Zm6.359-5.664a4.331,4.331,0,0,0-.711-.055A1.9,1.9,0,0,0,18.906-6V0H17.461V-8.453h1.406l.023.977a2.251,2.251,0,0,1,2.016-1.133,1.477,1.477,0,0,1,.641.109ZM27.781,0a3.036,3.036,0,0,1-.2-.891A3.225,3.225,0,0,1,25.172.156a2.984,2.984,0,0,1-2.051-.707,2.287,2.287,0,0,1-.8-1.793,2.39,2.39,0,0,1,1-2.051,4.733,4.733,0,0,1,2.824-.73h1.406v-.664A1.623,1.623,0,0,0,27.1-7a1.821,1.821,0,0,0-1.336-.449,2.108,2.108,0,0,0-1.3.391,1.151,1.151,0,0,0-.523.945H22.492a2,2,0,0,1,.449-1.223,3.066,3.066,0,0,1,1.219-.934,4.1,4.1,0,0,1,1.691-.344,3.342,3.342,0,0,1,2.289.73A2.635,2.635,0,0,1,29-5.867v3.891a4.757,4.757,0,0,0,.3,1.852V0Zm-2.4-1.1a2.54,2.54,0,0,0,1.289-.352,2.127,2.127,0,0,0,.883-.914V-4.1H26.422q-2.656,0-2.656,1.555a1.316,1.316,0,0,0,.453,1.063A1.742,1.742,0,0,0,25.383-1.1Zm5.531-3.2a4.952,4.952,0,0,1,.922-3.129A2.915,2.915,0,0,1,34.25-8.609,2.932,2.932,0,0,1,36.6-7.594V-12h1.445V0H36.719l-.07-.906A2.943,2.943,0,0,1,34.234.156a2.887,2.887,0,0,1-2.395-1.2,5.008,5.008,0,0,1-.926-3.141Zm1.445.164a3.749,3.749,0,0,0,.594,2.25,1.92,1.92,0,0,0,1.641.813A2.108,2.108,0,0,0,36.6-2.3V-6.187a2.125,2.125,0,0,0-1.992-1.2,1.929,1.929,0,0,0-1.656.82A4.128,4.128,0,0,0,32.359-4.133ZM41.859,0H40.414V-8.453h1.445ZM40.3-10.7a.863.863,0,0,1,.215-.594.807.807,0,0,1,.637-.242.819.819,0,0,1,.641.242.854.854,0,0,1,.219.594.826.826,0,0,1-.219.586.834.834,0,0,1-.641.234.821.821,0,0,1-.637-.234A.834.834,0,0,1,40.3-10.7ZM47.68.156a3.693,3.693,0,0,1-2.8-1.129A4.19,4.19,0,0,1,43.8-3.992v-.266a5.073,5.073,0,0,1,.48-2.246,3.748,3.748,0,0,1,1.344-1.547A3.378,3.378,0,0,1,47.5-8.609a3.166,3.166,0,0,1,2.563,1.086,4.7,4.7,0,0,1,.914,3.109v.6H45.25a3,3,0,0,0,.73,2.02,2.3,2.3,0,0,0,1.777.77,2.517,2.517,0,0,0,1.3-.312,3.259,3.259,0,0,0,.93-.828l.883.688A3.55,3.55,0,0,1,47.68.156ZM47.5-7.422a1.928,1.928,0,0,0-1.469.637A3.1,3.1,0,0,0,45.3-5h4.234v-.109a2.753,2.753,0,0,0-.594-1.707A1.815,1.815,0,0,0,47.5-7.422Zm6.516-1.031.047,1.063a3.08,3.08,0,0,1,2.531-1.219q2.68,0,2.7,3.023V0H57.852V-5.594a1.946,1.946,0,0,0-.418-1.352,1.675,1.675,0,0,0-1.277-.437,2.086,2.086,0,0,0-1.234.375,2.546,2.546,0,0,0-.828.984V0H52.648V-8.453ZM63.438-10.5v2.047h1.578v1.117H63.438v5.249a1.173,1.173,0,0,0,.211.763.888.888,0,0,0,.719.254,3.5,3.5,0,0,0,.688-.094V0a4.215,4.215,0,0,1-1.109.155A1.8,1.8,0,0,1,62.484-.43a2.517,2.517,0,0,1-.492-1.664V-7.336H60.453V-8.453h1.539V-10.5ZM70.211.156a3.693,3.693,0,0,1-2.8-1.129,4.19,4.19,0,0,1-1.078-3.02v-.266a5.073,5.073,0,0,1,.48-2.246A3.748,3.748,0,0,1,68.16-8.051a3.378,3.378,0,0,1,1.871-.559,3.166,3.166,0,0,1,2.563,1.086,4.7,4.7,0,0,1,.914,3.109v.6H67.781a3,3,0,0,0,.73,2.02,2.3,2.3,0,0,0,1.777.77,2.517,2.517,0,0,0,1.3-.312,3.259,3.259,0,0,0,.93-.828l.883.688A3.55,3.55,0,0,1,70.211.156Zm-.18-7.578a1.928,1.928,0,0,0-1.469.637A3.1,3.1,0,0,0,67.828-5h4.234v-.109a2.753,2.753,0,0,0-.594-1.707A1.815,1.815,0,0,0,70.031-7.422ZM78.789-4.3a4.952,4.952,0,0,1,.922-3.129,2.915,2.915,0,0,1,2.414-1.184,2.932,2.932,0,0,1,2.352,1.016V-12h1.445V0H84.594l-.07-.906A2.943,2.943,0,0,1,82.109.156a2.887,2.887,0,0,1-2.395-1.2,5.008,5.008,0,0,1-.926-3.141Zm1.445.164a3.749,3.749,0,0,0,.594,2.25,1.92,1.92,0,0,0,1.641.813A2.109,2.109,0,0,0,84.477-2.3V-6.187a2.125,2.125,0,0,0-1.992-1.2,1.929,1.929,0,0,0-1.656.82A4.128,4.128,0,0,0,80.234-4.133ZM91.672.156a3.693,3.693,0,0,1-2.8-1.129A4.19,4.19,0,0,1,87.8-3.992v-.266a5.073,5.073,0,0,1,.48-2.246,3.748,3.748,0,0,1,1.344-1.547,3.378,3.378,0,0,1,1.871-.559,3.166,3.166,0,0,1,2.563,1.086,4.7,4.7,0,0,1,.914,3.109v.6H89.242a3,3,0,0,0,.73,2.02,2.3,2.3,0,0,0,1.777.77,2.517,2.517,0,0,0,1.3-.312,3.259,3.259,0,0,0,.93-.828l.883.688A3.55,3.55,0,0,1,91.672.156Zm-.18-7.578a1.928,1.928,0,0,0-1.469.637A3.1,3.1,0,0,0,89.289-5h4.234v-.109a2.753,2.753,0,0,0-.594-1.707A1.815,1.815,0,0,0,91.492-7.422ZM4.484,22.977a2.082,2.082,0,0,0,1.352-.469,1.649,1.649,0,0,0,.641-1.172H7.844a2.621,2.621,0,0,1-.5,1.383,3.293,3.293,0,0,1-1.23,1.047,3.55,3.55,0,0,1-1.629.391A3.482,3.482,0,0,1,1.738,23a4.59,4.59,0,0,1-1.02-3.152v-.242a5.089,5.089,0,0,1,.453-2.2,3.451,3.451,0,0,1,1.3-1.492,3.7,3.7,0,0,1,2-.531,3.39,3.39,0,0,1,2.363.852,3.043,3.043,0,0,1,1,2.211H6.477a1.992,1.992,0,0,0-.621-1.348,1.932,1.932,0,0,0-1.379-.527,2.023,2.023,0,0,0-1.707.793,3.724,3.724,0,0,0-.605,2.293v.273a3.65,3.65,0,0,0,.6,2.25A2.033,2.033,0,0,0,4.484,22.977Zm4.6-3.281a4.993,4.993,0,0,1,.488-2.234,3.643,3.643,0,0,1,1.359-1.531,3.7,3.7,0,0,1,1.988-.539,3.565,3.565,0,0,1,2.793,1.2,4.6,4.6,0,0,1,1.066,3.18v.1a5.036,5.036,0,0,1-.473,2.215,3.589,3.589,0,0,1-1.352,1.527,3.743,3.743,0,0,1-2.02.547,3.556,3.556,0,0,1-2.785-1.2A4.575,4.575,0,0,1,9.086,19.8Zm1.453.172a3.616,3.616,0,0,0,.652,2.258,2.211,2.211,0,0,0,3.5-.012,3.955,3.955,0,0,0,.648-2.418,3.61,3.61,0,0,0-.66-2.254,2.1,2.1,0,0,0-1.754-.863,2.075,2.075,0,0,0-1.727.852A3.925,3.925,0,0,0,10.539,19.867Zm9.422-4.32.047,1.063a3.08,3.08,0,0,1,2.531-1.219q2.68,0,2.7,3.023V24H23.8V18.406a1.946,1.946,0,0,0-.418-1.352,1.675,1.675,0,0,0-1.277-.437,2.086,2.086,0,0,0-1.234.375,2.546,2.546,0,0,0-.828.984V24H18.594V15.547Zm10.852,7.43a2.082,2.082,0,0,0,1.352-.469,1.649,1.649,0,0,0,.641-1.172h1.367a2.621,2.621,0,0,1-.5,1.383,3.293,3.293,0,0,1-1.23,1.047,3.55,3.55,0,0,1-1.629.391A3.482,3.482,0,0,1,28.066,23a4.59,4.59,0,0,1-1.02-3.152v-.242a5.089,5.089,0,0,1,.453-2.2,3.451,3.451,0,0,1,1.3-1.492,3.7,3.7,0,0,1,2-.531,3.39,3.39,0,0,1,2.363.852,3.043,3.043,0,0,1,1,2.211H32.8a1.992,1.992,0,0,0-.621-1.348,1.932,1.932,0,0,0-1.379-.527,2.023,2.023,0,0,0-1.707.793,3.724,3.724,0,0,0-.605,2.293v.273a3.65,3.65,0,0,0,.6,2.25A2.033,2.033,0,0,0,30.813,22.977Zm8.492,1.18a3.693,3.693,0,0,1-2.8-1.129,4.19,4.19,0,0,1-1.078-3.02v-.266a5.073,5.073,0,0,1,.48-2.246,3.748,3.748,0,0,1,1.344-1.547,3.378,3.378,0,0,1,1.871-.559,3.166,3.166,0,0,1,2.563,1.086,4.7,4.7,0,0,1,.914,3.109v.6H36.875a3,3,0,0,0,.73,2.02,2.3,2.3,0,0,0,1.777.77,2.517,2.517,0,0,0,1.3-.312,3.259,3.259,0,0,0,.93-.828l.883.688A3.55,3.55,0,0,1,39.3,24.156Zm-.18-7.578a1.928,1.928,0,0,0-1.469.637A3.1,3.1,0,0,0,36.922,19h4.234v-.109a2.753,2.753,0,0,0-.594-1.707A1.815,1.815,0,0,0,39.125,16.578Zm6.516-1.031.047,1.063a3.08,3.08,0,0,1,2.531-1.219q2.68,0,2.7,3.023V24H49.477V18.406a1.946,1.946,0,0,0-.418-1.352,1.675,1.675,0,0,0-1.277-.437,2.086,2.086,0,0,0-1.234.375,2.546,2.546,0,0,0-.828.984V24H44.273V15.547ZM55.063,13.5v2.047h1.578v1.117H55.063v5.249a1.173,1.173,0,0,0,.211.763.888.888,0,0,0,.719.254,3.5,3.5,0,0,0,.688-.094V24a4.215,4.215,0,0,1-1.109.155,1.8,1.8,0,0,1-1.461-.586,2.517,2.517,0,0,1-.492-1.664V16.664H52.078V15.547h1.539V13.5Zm7.352,3.344a4.331,4.331,0,0,0-.711-.055A1.9,1.9,0,0,0,59.773,18v6H58.328V15.547h1.406l.023.977a2.251,2.251,0,0,1,2.016-1.133,1.477,1.477,0,0,1,.641.109ZM68.648,24a3.036,3.036,0,0,1-.2-.891,3.225,3.225,0,0,1-2.406,1.047,2.984,2.984,0,0,1-2.051-.707,2.287,2.287,0,0,1-.8-1.793,2.39,2.39,0,0,1,1-2.051,4.733,4.733,0,0,1,2.824-.73h1.406v-.664A1.623,1.623,0,0,0,67.969,17a1.821,1.821,0,0,0-1.336-.449,2.108,2.108,0,0,0-1.3.391,1.151,1.151,0,0,0-.523.945H63.359a2,2,0,0,1,.449-1.223,3.066,3.066,0,0,1,1.219-.934,4.1,4.1,0,0,1,1.691-.344,3.342,3.342,0,0,1,2.289.73,2.635,2.635,0,0,1,.859,2.012v3.891a4.757,4.757,0,0,0,.3,1.852V24Zm-2.4-1.1a2.54,2.54,0,0,0,1.289-.352,2.127,2.127,0,0,0,.883-.914V19.9H67.289q-2.656,0-2.656,1.555a1.316,1.316,0,0,0,.453,1.063A1.742,1.742,0,0,0,66.25,22.9Zm9.273.078a2.082,2.082,0,0,0,1.352-.469,1.649,1.649,0,0,0,.641-1.172h1.367a2.621,2.621,0,0,1-.5,1.383,3.293,3.293,0,0,1-1.23,1.047,3.55,3.55,0,0,1-1.629.391A3.482,3.482,0,0,1,72.777,23a4.59,4.59,0,0,1-1.02-3.152v-.242a5.089,5.089,0,0,1,.453-2.2,3.451,3.451,0,0,1,1.3-1.492,3.7,3.7,0,0,1,2-.531,3.39,3.39,0,0,1,2.363.852,3.043,3.043,0,0,1,1,2.211H77.516a1.992,1.992,0,0,0-.621-1.348,1.932,1.932,0,0,0-1.379-.527,2.023,2.023,0,0,0-1.707.793,3.724,3.724,0,0,0-.605,2.293v.273a3.65,3.65,0,0,0,.6,2.25A2.033,2.033,0,0,0,75.523,22.977ZM82.078,24H80.633V15.547h1.445ZM80.516,13.3a.863.863,0,0,1,.215-.594.807.807,0,0,1,.637-.242.819.819,0,0,1,.641.242.854.854,0,0,1,.219.594.826.826,0,0,1-.219.586.834.834,0,0,1-.641.234.821.821,0,0,1-.637-.234A.834.834,0,0,1,80.516,13.3ZM84.008,19.7a4.993,4.993,0,0,1,.488-2.234,3.643,3.643,0,0,1,1.359-1.531,3.7,3.7,0,0,1,1.988-.539,3.565,3.565,0,0,1,2.793,1.2,4.6,4.6,0,0,1,1.066,3.18v.1a5.036,5.036,0,0,1-.473,2.215,3.589,3.589,0,0,1-1.352,1.527,3.743,3.743,0,0,1-2.02.547,3.556,3.556,0,0,1-2.785-1.2A4.575,4.575,0,0,1,84.008,19.8Zm1.453.172a3.616,3.616,0,0,0,.652,2.258,2.211,2.211,0,0,0,3.5-.012,3.955,3.955,0,0,0,.648-2.418,3.61,3.61,0,0,0-.66-2.254,2.1,2.1,0,0,0-1.754-.863,2.075,2.075,0,0,0-1.727.852A3.925,3.925,0,0,0,85.461,19.867ZM88.5,12.016h1.75l-2.094,2.3-1.164,0Zm6.383,3.531.047,1.063a3.08,3.08,0,0,1,2.531-1.219q2.68,0,2.7,3.023V24H98.719V18.406a1.946,1.946,0,0,0-.418-1.352,1.675,1.675,0,0,0-1.277-.437,2.086,2.086,0,0,0-1.234.375,2.546,2.546,0,0,0-.828.984V24H93.516V15.547Zm10.8,3.914a12.084,12.084,0,0,1-.457,3.34,9.876,9.876,0,0,1-1.4,2.949,6.127,6.127,0,0,1-1.973,1.922l-.3-.883a6.281,6.281,0,0,0,1.934-2.863,12.387,12.387,0,0,0,.746-4.309v-.25a12.861,12.861,0,0,0-.344-3.051,10.3,10.3,0,0,0-.957-2.527,5.838,5.838,0,0,0-1.379-1.742l.3-.883a6.1,6.1,0,0,1,1.965,1.906,9.9,9.9,0,0,1,1.4,2.945A12.363,12.363,0,0,1,105.68,19.461Z" transform="translate(621.944 3062.809)" fill="#12263f"/>
    <path id="Trazado_107557" data-name="Trazado 107557" d="M0,0H480" transform="translate(557.996 2948.449)" fill="none" stroke="#17c878" stroke-width="2" stroke-dasharray="2"/>
  </g>
</svg>
