<svg xmlns="http://www.w3.org/2000/svg" width="82" height="82" viewBox="0 0 82 82">
  <g id="Grupo_54715" data-name="Grupo 54715" transform="translate(-370 -8637.527)">
    <g id="XMLID_1159_" transform="translate(370 8637.527)">
      <path id="XMLID_1164_" d="M1.6,1.6H80.4v65.65H1.6Z" fill="#fb9e36"/>
    </g>
    <g id="XMLID_1157_" transform="translate(370 8637.527)">
      <circle id="XMLID_1163_" cx="17.457" cy="17.457" r="17.457" transform="translate(45.484 8.008)" fill="#ffd4a5"/>
    </g>
    <g id="XMLID_1156_" transform="translate(370 8637.527)">
      <circle id="XMLID_271_" cx="10.474" cy="10.474" r="10.474" transform="translate(52.467 14.991)" fill="#12263f"/>
    </g>
    <g id="XMLID_1149_" transform="translate(370 8637.527)">
      <circle id="XMLID_270_" cx="17.457" cy="17.457" r="17.457" transform="translate(1.602 8.008)" fill="#ffd4a5"/>
    </g>
    <g id="XMLID_1148_" transform="translate(370 8637.527)">
      <circle id="XMLID_264_" cx="10.474" cy="10.474" r="10.474" transform="translate(8.584 14.991)" fill="#12263f"/>
    </g>
    <g id="XMLID_1158_" transform="translate(370 8637.527)">
      <path id="XMLID_178_" d="M80.4,67.252a7.015,7.015,0,0,1-7.679-6.989V32.273a4.364,4.364,0,0,0-4.364-4.364H57.53a4.364,4.364,0,0,0-4.364,4.364V60.262A7.046,7.046,0,0,1,41,65.038h0a7.046,7.046,0,0,1-12.165-4.775V32.273a4.364,4.364,0,0,0-4.364-4.364H13.647a4.364,4.364,0,0,0-4.364,4.364V60.262A7.015,7.015,0,0,1,1.6,67.251L1.6,80.4a10.691,10.691,0,0,0,7.88-3.453,10.717,10.717,0,0,0,15.759,0,10.717,10.717,0,0,0,15.759,0,10.717,10.717,0,0,0,15.759,0,10.717,10.717,0,0,0,15.759,0A10.691,10.691,0,0,0,80.4,80.4Z" fill="#d2e1f1"/>
    </g>
    <g id="XMLID_1165_" transform="translate(370 8637.527)">
      <path id="XMLID_1433_" d="M80.4,0H48.207a1.6,1.6,0,0,0,0,3.2H78.8V14.9A19.055,19.055,0,1,0,51.564,40.754V60.262a5.446,5.446,0,0,1-9.272,3.808,1.586,1.586,0,0,0-1.278-.64H41a1.552,1.552,0,0,0-1.1.426,1.588,1.588,0,0,0-.191.213,5.445,5.445,0,0,1-9.272-3.808V40.754A19.056,19.056,0,1,0,3.2,14.9V3.2h30.59a1.6,1.6,0,1,0,0-3.2H1.6A1.6,1.6,0,0,0,0,1.6V25.465A19.046,19.046,0,0,0,7.681,40.754V60.262A5.211,5.211,0,0,1,5.97,64.22a5.619,5.619,0,0,1-4.222,1.436,1.6,1.6,0,0,0-.288,3.19,8.75,8.75,0,0,0,6.671-2.262,8.454,8.454,0,0,0,2.753-6.323V32.273a2.766,2.766,0,0,1,2.763-2.763h7.069V46.879a1.6,1.6,0,0,0,3.2,0V29.51h.551a2.766,2.766,0,0,1,2.763,2.763V60.262A8.659,8.659,0,0,0,41,67.181a8.659,8.659,0,0,0,13.768-6.918V32.273A2.766,2.766,0,0,1,57.53,29.51h.551V46.879a1.6,1.6,0,0,0,3.2,0V29.51h7.069a2.766,2.766,0,0,1,2.763,2.763V60.262a8.454,8.454,0,0,0,2.753,6.323,8.765,8.765,0,0,0,5.9,2.3q.386,0,.773-.035a1.6,1.6,0,0,0-.288-3.19,5.615,5.615,0,0,1-4.222-1.436,5.211,5.211,0,0,1-1.711-3.958V40.754A19.046,19.046,0,0,0,82,25.465V1.6A1.6,1.6,0,0,0,80.4,0ZM3.2,25.465A15.855,15.855,0,1,1,30.436,36.507V32.273a5.936,5.936,0,0,0-.325-1.939,12.076,12.076,0,1,0-22.1,0,5.937,5.937,0,0,0-.325,1.939v4.234A15.841,15.841,0,0,1,3.2,25.465Zm21.267.842H13.647a5.93,5.93,0,0,0-3.272.981,8.873,8.873,0,1,1,17.366,0A5.928,5.928,0,0,0,24.47,26.307Zm43.883,0H57.53a5.93,5.93,0,0,0-3.272.981,8.873,8.873,0,1,1,17.366,0A5.927,5.927,0,0,0,68.353,26.307Zm5.966,10.2V32.273a5.936,5.936,0,0,0-.325-1.939,12.075,12.075,0,1,0-22.1,0,5.939,5.939,0,0,0-.325,1.938v4.234a15.855,15.855,0,1,1,22.755,0Z"/>
      <path id="XMLID_1480_" d="M41,3.2a1.6,1.6,0,0,0,1.6-1.6,1.6,1.6,0,1,0-2.734,1.132A1.614,1.614,0,0,0,41,3.2Z"/>
      <path id="XMLID_1485_" d="M64.6,65.323a1.6,1.6,0,1,0,3.2,0v-6.3a1.6,1.6,0,1,0-3.2,0Z"/>
      <path id="XMLID_1493_" d="M66.2,48.7a1.6,1.6,0,0,0,1.6-1.6V42.517a1.6,1.6,0,1,0-3.2,0v4.578A1.6,1.6,0,0,0,66.2,48.7Z"/>
      <path id="XMLID_1499_" d="M14.2,66.7a1.6,1.6,0,0,0,3.2,0v-6.3a1.6,1.6,0,0,0-3.2,0Z"/>
      <path id="XMLID_1500_" d="M15.8,50.078a1.6,1.6,0,0,0,1.6-1.6V43.9a1.6,1.6,0,0,0-3.2,0v4.578A1.6,1.6,0,0,0,15.8,50.078Z"/>
      <path id="XMLID_1503_" d="M80.4,78.8a9.148,9.148,0,0,1-6.7-2.938,1.6,1.6,0,0,0-2.354,0,9.115,9.115,0,0,1-13.405,0,1.6,1.6,0,0,0-2.354,0,9.115,9.115,0,0,1-13.406,0,1.6,1.6,0,0,0-2.354,0,9.115,9.115,0,0,1-13.405,0,1.6,1.6,0,0,0-2.354,0,9.115,9.115,0,0,1-13.405,0,1.6,1.6,0,0,0-2.354,0A9.147,9.147,0,0,1,1.6,78.8a1.6,1.6,0,0,0,0,3.2,12.361,12.361,0,0,0,7.88-2.852,12.312,12.312,0,0,0,15.759,0,12.312,12.312,0,0,0,15.76,0,12.312,12.312,0,0,0,15.759,0,12.312,12.312,0,0,0,15.759,0A12.361,12.361,0,0,0,80.4,82a1.6,1.6,0,0,0,0-3.2Z"/>
    </g>
  </g>
</svg>
