<svg id="Page-1" xmlns="http://www.w3.org/2000/svg" width="48.667" height="73" viewBox="0 0 48.667 73">
  <g id="_005---Batteries" data-name="005---Batteries">
    <path id="Shape" d="M47.45,12.167c0,3.358-10.354,6.083-23.117,6.083S1.217,15.525,1.217,12.167c0-2.433,5.463-4.55,13.359-5.524L13.456,9.429a.506.506,0,0,0-.036.377c.426,1.314,5.159,2.36,10.914,2.36s10.488-1.046,10.914-2.36a.506.506,0,0,0-.037-.377L34.091,6.643C41.987,7.616,47.45,9.733,47.45,12.167Z" fill="#e8e8e8"/>
    <path id="Shape-2" data-name="Shape" d="M24.346,6.083h-.012" fill="none" stroke="#000" stroke-linecap="round" stroke-linejoin="round" stroke-width="2.433" fill-rule="evenodd"/>
    <g id="Grupo_82633" data-name="Grupo 82633">
      <path id="Shape-3" data-name="Shape" d="M47.45,35.283V65.7c0,3.358-10.354,6.083-23.117,6.083S1.217,69.058,1.217,65.7V35.283c0,3.358,10.354,6.083,23.117,6.083S47.45,38.641,47.45,35.283Z" fill="#fb9e36"/>
      <path id="Shape-4" data-name="Shape" d="M47.45,29.2v6.083c0,3.358-10.354,6.083-23.117,6.083S1.217,38.641,1.217,35.283V29.2c0,3.358,10.354,6.083,23.117,6.083S47.45,32.558,47.45,29.2Z" fill="#f1d54e"/>
      <path id="Shape-5" data-name="Shape" d="M47.45,12.167V29.2c0,3.358-10.354,6.083-23.117,6.083S1.217,32.558,1.217,29.2V12.167c0,3.358,10.354,6.083,23.117,6.083S47.45,15.525,47.45,12.167Z" fill="#ff9801"/>
      <path id="Shape-6" data-name="Shape" d="M32.85,3.65c0,1.351-3.8,2.433-8.5,2.433h-.012c-4.708,0-8.517-1.083-8.517-2.433a.337.337,0,0,1,.012-.109.324.324,0,0,1,.036-.146c.426-1.217,4.051-2.178,8.468-2.178s8.042.961,8.468,2.178a.324.324,0,0,1,.036.146A.337.337,0,0,1,32.85,3.65Z" fill="#e8e8e8"/>
      <path id="Shape-7" data-name="Shape" d="M35.247,9.806c-.426,1.314-5.159,2.36-10.913,2.36S13.846,11.12,13.42,9.806a.506.506,0,0,1,.036-.377l1.119-2.786,1.253-3.1a.337.337,0,0,0-.012.109c0,1.351,3.808,2.433,8.517,2.433h.012c4.709,0,8.5-1.083,8.5-2.433a.337.337,0,0,0-.012-.109h.012l1.241,3.1L35.21,9.429a.506.506,0,0,1,.037.377Z" fill="#afafaf"/>
      <path id="Shape-8" data-name="Shape" d="M14.679,67.54a1.419,1.419,0,0,1-.159-.01,32.406,32.406,0,0,1-8.978-2.222,1.217,1.217,0,0,1-.675-1.089v-11.9a1.217,1.217,0,1,1,2.433,0V63.424a34.57,34.57,0,0,0,7.536,1.694,1.217,1.217,0,0,1-.157,2.422Z"/>
      <path id="Shape-9" data-name="Shape" d="M6.083,48.667A1.217,1.217,0,0,1,4.867,47.45V45.017a1.217,1.217,0,0,1,2.433,0V47.45A1.217,1.217,0,0,1,6.083,48.667Z"/>
      <path id="Shape-10" data-name="Shape" d="M24.333,73c12.092,0,24.333-2.508,24.333-7.3V12.167c0-4.243-9.075-6.012-13.709-6.638l-.973-2.442c0-.01-.012-.016-.017-.026s0-.051-.012-.073C32.933.084,25.211,0,24.333,0s-8.6.084-9.612,2.96c-.013.036-.009.073-.019.109l-.01.016-.982,2.443C9.082,6.154,0,7.923,0,12.167V65.7C0,70.492,12.241,73,24.333,73Zm0-2.433c-14.169,0-21.9-3.216-21.9-4.867V38.656c4.163,2.589,13.068,3.927,21.9,3.927s17.737-1.338,21.9-3.927V65.7C46.233,67.351,38.5,70.567,24.333,70.567ZM16.213,5.84c2.562,1.394,7.357,1.46,8.12,1.46h.012c.73,0,5.547-.061,8.114-1.46L33.919,9.5c-.933.573-4.258,1.449-9.586,1.449-5.446,0-8.8-.915-9.612-1.406Zm8.12-3.407A16.072,16.072,0,0,1,31.445,3.64c-.8.5-3.257,1.226-7.111,1.226-3.828,0-6.285-.713-7.1-1.217.81-.5,3.272-1.217,7.1-1.217ZM12.664,8.143l-.326.81a1.726,1.726,0,0,0-.077,1.236c1.006,3.04,10.232,3.194,12.072,3.194S35.4,13.23,36.406,10.19a1.716,1.716,0,0,0-.071-1.217L36,8.144c7.593,1.2,10.23,3.214,10.23,4.022,0,1.651-7.731,4.867-21.9,4.867s-21.9-3.216-21.9-4.867C2.433,11.359,5.071,9.343,12.664,8.143Zm-10.231,7.4c4.163,2.589,13.068,3.927,21.9,3.927s17.737-1.338,21.9-3.927V29.2c0,1.651-7.731,4.867-21.9,4.867s-21.9-3.216-21.9-4.867Zm0,17.033C6.6,35.162,15.5,36.5,24.333,36.5s17.737-1.338,21.9-3.927v2.711c0,1.651-7.731,4.867-21.9,4.867s-21.9-3.216-21.9-4.867Z"/>
      <path id="Shape-11" data-name="Shape" d="M20.683,27.983h2.433v2.433a1.217,1.217,0,1,0,2.433,0V27.983h2.433a1.217,1.217,0,1,0,0-2.433H25.55V23.117a1.217,1.217,0,0,0-2.433,0V25.55H20.683a1.217,1.217,0,1,0,0,2.433Z"/>
    </g>
  </g>
</svg>
