<svg xmlns="http://www.w3.org/2000/svg" xmlns:xlink="http://www.w3.org/1999/xlink" width="1282.756" height="934.486" viewBox="0 0 1282.756 934.486">
  <defs>
    <clipPath id="clip-path">
      <path id="Path_105327" data-name="Path 105327" d="M1252.166,615.491l2.444,12.1s15.423,3.35,16.354,6.887-32.385,1.116-32.385,1.116l-3.537-20.1" transform="translate(-1235.042 -615.491)" fill="#12263f"/>
    </clipPath>
    <clipPath id="clip-path-2">
      <path id="Path_105330" data-name="Path 105330" d="M1394.7,615.491l.386,12.1s-15.423,3.35-16.354,6.887,32.386,1.116,32.386,1.116l.706-20.1" transform="translate(-1378.717 -615.491)" fill="#12263f"/>
    </clipPath>
    <clipPath id="clip-path-3">
      <path id="Path_105335" data-name="Path 105335" d="M1334.326,377.523s15.886,89.975,23.568,143.816c-16.507,1.815-19.978.709-19.978.709l-30.654-110H1293.8c-.992,1.062-4.026,110-4.026,110s-13.849,2.049-19.3-.78c0,0-6.229-83.844-7.9-129.309Z" transform="translate(-1262.571 -377.523)" fill="#fb9e36"/>
    </clipPath>
    <clipPath id="clip-path-4">
      <path id="Path_105338" data-name="Path 105338" d="M1331.053,221.589s17.415,1,22.248,5.666,15.152,36.42,21.651,87.076c-25.941,27.356-71.755,14.436-71.755,14.436s-2.331-92.3.13-96.939C1308.03,222.951,1331.053,221.589,1331.053,221.589Z" transform="translate(-1302.198 -221.589)" fill="#17c878"/>
    </clipPath>
    <clipPath id="clip-path-5">
      <path id="Rectangle_31026" data-name="Rectangle 31026" d="M7.384,0H22.856a7.384,7.384,0,0,1,7.384,7.384V179.125a0,0,0,0,1,0,0H0a0,0,0,0,1,0,0V7.384A7.384,7.384,0,0,1,7.384,0Z" transform="matrix(-0.276, 0.961, -0.961, -0.276, 180.522, 49.363)" fill="#f1d54e"/>
    </clipPath>
    <clipPath id="clip-path-6">
      <path id="Path_105341" data-name="Path 105341" d="M1493.556,269.273l-28.1,7.674,19.764,21.394Z" transform="translate(-1465.459 -269.273)" fill="#12263f"/>
    </clipPath>
    <clipPath id="clip-path-7">
      <path id="Path_105348" data-name="Path 105348" d="M1382.388,185.44l-3.422,26.211-13.481,11.477-11.231-11.477V194.758" transform="translate(-1354.254 -185.44)" fill="#ffd1bb"/>
    </clipPath>
  </defs>
  <g id="bg-slides-dots" transform="translate(-158.33 -11979.47)">
    <circle id="Ellipse_4105" data-name="Ellipse 4105" cx="200" cy="200" r="200" transform="translate(180.496 12422)" fill="#e2f6c6"/>
    <circle id="Ellipse_4106" data-name="Ellipse 4106" cx="199.5" cy="199.5" r="199.5" transform="translate(1020.496 12423)" fill="#e2f6c6"/>
    <ellipse id="Ellipse_4096" data-name="Ellipse 4096" cx="114.264" cy="9.889" rx="114.264" ry="9.889" transform="translate(1191.472 12894.178)" fill="#1d262d" opacity="0.1" style="mix-blend-mode: multiply;isolation: isolate"/>
    <ellipse id="Ellipse_4107" data-name="Ellipse 4107" cx="117.264" cy="10.389" rx="117.264" ry="10.389" transform="translate(207.671 12893.178)" fill="#1d262d" opacity="0.1" style="mix-blend-mode: multiply;isolation: isolate"/>
    <g id="Group_54737" data-name="Group 54737" transform="translate(377.211 12212.21)">
      <path id="Path_105359" data-name="Path 105359" d="M327.915,0c181.1,0,327.915,15.591,327.915,34.823S509.018,69.646,327.915,69.646,0,54.055,0,34.823,146.813,0,327.915,0Z" transform="translate(94.112 632.099)" fill="#e8e8e8"/>
      <g id="Group_54736" data-name="Group 54736" transform="translate(0 0)">
        <g id="Group_54735" data-name="Group 54735">
          <g id="Group_54734" data-name="Group 54734">
            <g id="Group_54732" data-name="Group 54732" transform="translate(263.231 -232.74)">
              <path id="Path_105313" data-name="Path 105313" d="M1987.192,1327.62H1669.6l72.738-862.16h172.117Z" transform="translate(-1669.6 -465.46)" fill="#e8e8e8"/>
            </g>
            <g id="Group_54733" data-name="Group 54733" transform="translate(176.2 629.42)">
              <path id="Path_105314" data-name="Path 105314" d="M1986.092,557.231H1668.5l-87.031,34.69h491.654Z" transform="translate(-1581.469 -557.231)" fill="#afafaf"/>
            </g>
            <rect id="Rectangle_31018" data-name="Rectangle 31018" width="491.654" height="8.464" transform="translate(176.2 664.109)" fill="#636363"/>
          </g>
        </g>
      </g>
    </g>
    <g id="Group_54766" data-name="Group 54766" transform="translate(1219.996 12563.083)">
      <g id="Group_54751" data-name="Group 54751" transform="translate(150 319.844)">
        <path id="Path_105325" data-name="Path 105325" d="M1252.166,615.491l2.444,12.1s15.423,3.35,16.354,6.887-32.385,1.116-32.385,1.116l-3.537-20.1" transform="translate(-1235.042 -615.491)" fill="#12263f"/>
        <g id="Group_54750" data-name="Group 54750" transform="translate(0)" clip-path="url(#clip-path)">
          <path id="Path_105326" data-name="Path 105326" d="M1286.143,601.766a3.687,3.687,0,0,1,1.308,3.34,6.545,6.545,0,0,1-1.561,3.357,16.156,16.156,0,0,1-7.821,4.775,31.23,31.23,0,0,1-8.673,1.438c-3.659.083-7.517-.562-10.359-2.866s-4.273-6.606-2.459-9.784a10.535,10.535,0,0,1,4.53-3.813,32.407,32.407,0,0,1,10.253-3.288" transform="translate(-1263.862 -607.156)" fill="#12263f" opacity="0.1" style="mix-blend-mode: multiply;isolation: isolate"/>
        </g>
      </g>
      <g id="Group_54753" data-name="Group 54753" transform="translate(67.38 319.844)">
        <path id="Path_105328" data-name="Path 105328" d="M1394.7,615.491l.386,12.1s-15.423,3.35-16.354,6.887,32.386,1.116,32.386,1.116l.706-20.1" transform="translate(-1378.717 -615.491)" fill="#12263f"/>
        <g id="Group_54752" data-name="Group 54752" clip-path="url(#clip-path-2)">
          <path id="Path_105329" data-name="Path 105329" d="M1389.64,600.739a15.927,15.927,0,0,1,5.7,5.629,8.672,8.672,0,0,1,1.362,4.07,4.587,4.587,0,0,1-1.661,3.827,5.478,5.478,0,0,1-2.487.92,42.6,42.6,0,0,1-7.436.569,20.665,20.665,0,0,1-12.036-4.872,13.9,13.9,0,0,1-4.093-15.952" transform="translate(-1357.208 -607.158)" fill="#12263f" opacity="0.1" style="mix-blend-mode: multiply;isolation: isolate"/>
        </g>
      </g>
      <g id="Group_54758" data-name="Group 54758" transform="translate(0 14.105)">
        <path id="Path_105331" data-name="Path 105331" d="M1518.681,126.882s11.451-3.566,11.209-6.887-7.96-.608-7.96-.608,4.3-15.81,2.45-17.1-4.634,8.6-4.634,8.6-.533-9.644-3.024-9.464-2.014,7.91-2.014,7.91-2.782-6.142-5.214-5.13,1.569,7.711,1.569,7.711-6.174-3.5-7.144-1.818,3.881,7.259,3.881,7.259-5.994,5.652,1.231,16.495c1.98-.832,7.6-3.43,10.538-2.821Z" transform="translate(-1503.791 -101.426)" fill="#ffd1bb"/>
        <path id="Path_105332" data-name="Path 105332" d="M1483.513,193.615s-51.812,4.58-71.621-45.66c-14.15-2.131-14.15,7.862-14.15,7.862s19.593,73.569,80.377,63.932" transform="translate(-1394.339 -120.161)" fill="#17c878"/>
        <g id="Group_54755" data-name="Group 54755" transform="translate(74.245 164.208)">
          <path id="Path_105333" data-name="Path 105333" d="M1334.326,377.523s15.886,89.975,23.568,143.816c-16.507,1.815-19.978.709-19.978.709l-30.654-110H1293.8c-.992,1.062-4.026,110-4.026,110s-13.849,2.049-19.3-.78c0,0-6.229-83.844-7.9-129.309Z" transform="translate(-1262.571 -377.523)" fill="#fb9e36"/>
          <g id="Group_54754" data-name="Group 54754" clip-path="url(#clip-path-3)">
            <path id="Path_105334" data-name="Path 105334" d="M1403.023,368.893A115.628,115.628,0,0,1,1248.68,356.7c48.3-3.513,98.165-6.331,143.924,9.54" transform="translate(-1299.439 -367.977)" fill="#fb9e36" opacity="0.1" style="mix-blend-mode: multiply;isolation: isolate"/>
          </g>
        </g>
        <g id="Group_54757" data-name="Group 54757" transform="translate(73.246 71.467)">
          <path id="Path_105336" data-name="Path 105336" d="M1331.053,221.589s17.415,1,22.248,5.666,15.152,36.42,21.651,87.076c-25.941,27.356-71.755,14.436-71.755,14.436s-2.331-92.3.13-96.939C1308.03,222.951,1331.053,221.589,1331.053,221.589Z" transform="translate(-1302.198 -221.589)" fill="#17c878"/>
          <g id="Group_54756" data-name="Group 54756" clip-path="url(#clip-path-4)">
            <path id="Path_105337" data-name="Path 105337" d="M1358.619,354.259c-26.923,2.168-49.513-11.491-59.23-19.024-1.909-1.48-4.6-1.674-6.438-3.238s-3.126-4.015-2.635-6.38c.772-3.723,5.147-5.3,8.881-6.011,17.8-3.4,36.149-2.1,53.757,1.782,7.839,1.728,43.558,7.4,31.417,21.714C1379.144,349.266,1366.444,353.629,1358.619,354.259Z" transform="translate(-1306.983 -260.517)" fill="#17c878" opacity="0.2" style="mix-blend-mode: multiply;isolation: isolate"/>
          </g>
        </g>
        <path id="Path_105339" data-name="Path 105339" d="M1422.846,401.8" transform="translate(-1348.601 -223.151)" fill="#798ec9"/>
      </g>
      <g id="Group_54763" data-name="Group 54763" transform="translate(20.804 113.931)">
        <g id="Group_54760" data-name="Group 54760" transform="translate(19.763 0)">
          <path id="Rectangle_31020" data-name="Rectangle 31020" d="M7.384,0H22.856a7.384,7.384,0,0,1,7.384,7.384V179.125a0,0,0,0,1,0,0H0a0,0,0,0,1,0,0V7.384A7.384,7.384,0,0,1,7.384,0Z" transform="matrix(-0.276, 0.961, -0.961, -0.276, 180.522, 49.363)" fill="#f1d54e"/>
          <g id="Group_54759" data-name="Group 54759" transform="translate(0 0)" clip-path="url(#clip-path-5)">
            <rect id="Rectangle_31021" data-name="Rectangle 31021" width="63.651" height="5.63" transform="translate(35.976 -11.201) rotate(105.996)" fill="#f1d54e" opacity="0.43"/>
            <rect id="Rectangle_31022" data-name="Rectangle 31022" width="63.651" height="5.63" transform="translate(168.174 26.697) rotate(105.997)" fill="#f1d54e" opacity="0.43"/>
            <rect id="Rectangle_31023" data-name="Rectangle 31023" width="63.651" height="45.472" transform="translate(211.039 40.733) rotate(105.996)" fill="#f1d54e"/>
            <rect id="Rectangle_31024" data-name="Rectangle 31024" width="30.542" height="212.075" transform="matrix(-0.276, 0.961, -0.961, -0.276, 186.63, 73.413)" fill="#f1d54e" opacity="0.5" style="mix-blend-mode: multiply;isolation: isolate"/>
            <rect id="Rectangle_31025" data-name="Rectangle 31025" width="30.542" height="212.075" transform="translate(198.855 30.77) rotate(105.997)" fill="#f1d54e" opacity="0.2" style="mix-blend-mode: multiply;isolation: isolate"/>
          </g>
        </g>
        <g id="Group_54762" data-name="Group 54762" transform="translate(0)">
          <path id="Path_105340" data-name="Path 105340" d="M1493.556,269.273l-28.1,7.674,19.764,21.394Z" transform="translate(-1465.459 -269.273)" fill="#ffeaaa"/>
          <g id="Group_54761" data-name="Group 54761" clip-path="url(#clip-path-6)">
            <path id="Path_105360" data-name="Path 105360" d="M18.213,0A18.213,18.213,0,1,1,0,18.213,18.213,18.213,0,0,1,18.213,0Z" transform="translate(1.73 29.727) rotate(-156.948)" fill="#12263f"/>
          </g>
        </g>
      </g>
      <path id="Path_105342" data-name="Path 105342" d="M1354.924,345.052s-8.6-.445-12.461,1.186-5.724,2.595-5.724,2.595l-7.7-2.206S1330.9,356.76,1340.1,357.5a47.343,47.343,0,0,0,17.05-1.917Z" transform="translate(-1227.115 -186.029)" fill="#ffd1bb"/>
      <path id="Path_105343" data-name="Path 105343" d="M1259.931,223.879s54.338,3.35,58.927,51.326C1322.014,308.2,1276,309.866,1276,309.866l-2.155-14.623s19.317-8,19.317-19.816-20.943-20.553-20.943-20.553Z" transform="translate(-1147.875 -136.945)" fill="#17c878"/>
      <path id="Path_105344" data-name="Path 105344" d="M1366.927,220.258a63.092,63.092,0,0,1,18.9,3.376l-22.448,19.06L1345.3,222.9S1351.474,220.258,1366.927,220.258Z" transform="translate(-1265.461 -135.478)" fill="#fb9e36"/>
      <path id="Path_105345" data-name="Path 105345" d="M1365.17,149.027s8.125.615,10.955-1.956c5.713-5.189,9.773-34.956,9.987-41.209s-7.231-15.1-15.871-15.15c-1.236-9.2-6.373-6.362-6.373-6.362s2.418-3.866-.62-6.64a63.522,63.522,0,0,0-2.709,5.835s-4.8-3.941-15.665-1.934-17.585-3.2-20.153,2.05-6.788,21.348.244,24.413S1368.406,130.351,1365.17,149.027Z" transform="translate(-1251.358 -77.71)" fill="#12263f"/>
      <g id="Group_54765" data-name="Group 54765" transform="translate(86.906 64.072)">
        <path id="Path_105346" data-name="Path 105346" d="M1382.388,185.44l-3.422,26.211-13.481,11.477-11.231-11.477V194.758" transform="translate(-1354.254 -185.44)" fill="#ffd1bb"/>
        <g id="Group_54764" data-name="Group 54764" transform="translate(0 0)" clip-path="url(#clip-path-7)">
          <path id="Path_105347" data-name="Path 105347" d="M1380.135,163.81c3.247.065,6.151,2.374,7.654,5.253a18.84,18.84,0,0,1,1.677,9.484,21.171,21.171,0,0,1-1.532,7.681,19.8,19.8,0,0,1-18.432,11.011c-4.315-.423-8.514-3.081-10.125-7.106-1.8-4.492-.174-9.686,2.473-13.737,3.047-4.663,7.654-8.536,13.113-9.64,2.335-.472,5.018-.332,6.741,1.312" transform="translate(-1363.954 -176.675)" fill="#d15579" opacity="0.2" style="mix-blend-mode: multiply;isolation: isolate"/>
        </g>
      </g>
      <path id="Path_105349" data-name="Path 105349" d="M1386.39,106.621c9.032,3.863,17.631,37.232,6.379,51.615s-38.2,11.658-47.577.693C1337.56,150,1348.757,90.525,1386.39,106.621Z" transform="translate(-1276.351 -88.313)" fill="#ffd1bb"/>
      <path id="Path_105350" data-name="Path 105350" d="M1416.865,142.18c1.584.756-1.251,16.382-1.251,16.382-2.14.276-8.8-3.282-8.8-4.679C1406.811,153.883,1413.851,140.74,1416.865,142.18Z" transform="translate(-1333.564 -103.792)" fill="#ffa690"/>
      <path id="Path_105351" data-name="Path 105351" d="M1383.95,136.095c-.146-2.614-2.387-4.666-4.779-5.733s-6.141,5.05-8.756,4.911c-4.262-.225-7.749-2.312-8.221-4.047-.333-1.228-.049-15.665-1.857-17.734-3.077-3.52-8.387-3.711-13.063-3.676s-10.013-.268-12.964-3.895a5.882,5.882,0,0,1-1.331-2.9,6.753,6.753,0,0,1,1.5-4.73c3.43-4.689,9.815-6.266,15.616-5.943a35.4,35.4,0,0,1,24.567,12.49,41.046,41.046,0,0,1,9.435,26.106" transform="translate(-1256.383 -83.627)" fill="#12263f"/>
      <path id="Path_105352" data-name="Path 105352" d="M1335.913,158.4s-1.122-17.447,7.835-14.926,6.837,20.078-3.356,19.739" transform="translate(-1223.423 -104.262)" fill="#ffd1bb"/>
      <path id="Path_105353" data-name="Path 105353" d="M1392.9,139.44c.4.884-.75,3.232-2.008,3.041s-7.413-.987-8.029-2.433a2.948,2.948,0,0,1,1.3-3.52C1385.013,136.232,1392.4,138.343,1392.9,139.44Z" transform="translate(-1294.839 -101.535)" fill="#27305c"/>
      <path id="Path_105354" data-name="Path 105354" d="M1424.063,132.173c.447.834-.33,3.3-1.464,3.246s-6.664-.154-7.36-1.523a3.162,3.162,0,0,1,.788-3.643C1416.752,129.863,1423.507,131.138,1424.063,132.173Z" transform="translate(-1345.259 -98.974)" fill="#27305c"/>
      <path id="Path_105355" data-name="Path 105355" d="M1397.09,154.515a2.088,2.088,0,0,1-1.459.013,2.046,2.046,0,0,1-1.655-1.57,4.753,4.753,0,0,1,.511-2.695,5.351,5.351,0,0,1,.745-1.251,1.638,1.638,0,0,1,2.733-.022C1398.774,150.2,1398.685,153.8,1397.09,154.515Z" transform="translate(-1307.022 -106.304)" fill="#0a303e"/>
      <path id="Path_105356" data-name="Path 105356" d="M1422.621,148.342a2.088,2.088,0,0,1-1.458.013,2.049,2.049,0,0,1-1.656-1.57,4.753,4.753,0,0,1,.511-2.695,5.372,5.372,0,0,1,.745-1.252,1.638,1.638,0,0,1,2.733-.021C1424.305,144.025,1424.216,147.628,1422.621,148.342Z" transform="translate(-1347.738 -103.802)" fill="#0a303e"/>
      <path id="Path_105357" data-name="Path 105357" d="M1341.7,153.162a5.287,5.287,0,0,1,2.8-4.294,3.619,3.619,0,0,1,3.6.066,2.386,2.386,0,0,1,.658,3.3c-.4.5-1.052.817-1.239,1.425a2.6,2.6,0,0,0,.4,1.753c.524,1.167.687,2.682-.2,3.607a2.2,2.2,0,0,1-2.131.573C1343.3,158.963,1341.542,155.323,1341.7,153.162Z" transform="translate(-1226.647 -106.367)" fill="#ffa690"/>
      <path id="Path_105358" data-name="Path 105358" d="M1357.652,344.962s-7.193-3.3-9.021-3.538-2.771,1.4-2.3,2.351,5.6,4.016,5.6,4.016" transform="translate(-1237.829 -184.572)" fill="#ffd1bb"/>
    </g>
    <rect id="Rectangle_31027" data-name="Rectangle 31027" width="1.203" height="1.203" transform="translate(241.185 12360.916)" fill="#fff"/>
    <path id="Rectangle_31027_-_Outline" data-name="Rectangle 31027 - Outline" d="M0,0H1.2V1.2H0Z" transform="translate(241.185 12360.916)" fill="#707070"/>
    <g id="Group_54836" data-name="Group 54836" transform="translate(-586.887 11403.721)">
      <path id="Path_105361" data-name="Path 105361" d="M916.2,1267.511l17.516-4.027c6.242,0,20.939.4,20.939.4s7.852-14.9,1.006-18.12c-7.918-3.726-10.268.8-10.268.8s-1.611-6.04-9.664-5.436c-9.656.724-11.275,8.054-11.275,8.054s-3.825-5.638-10.671-1.611C908.015,1250.972,916.2,1267.511,916.2,1267.511Z" transform="translate(-100.04 0)" fill="#ef5c3f"/>
      <path id="Path_105362" data-name="Path 105362" d="M1277.653,1489.124c1.359,0,25.346-3.056,25.346-3.056l-6.04,8.758,21.745,3.02-15.23,15.739,25.5,4.5-14.173,20.872-24.461-9.512-28.538-31.709Z" transform="translate(-310.369 -147.184)" fill="#d35133"/>
      <path id="Path_105363" data-name="Path 105363" d="M830.59,1715.189c9.179,12.238,9.732,30.752,21.743,41.321,14.245,12.535,37.062,14.334,54.923,15.2,37.459,1.818,78.719,5.317,114.016-8.506,6.2-2.429,12.9-4.777,17.336-9.967,5.17-6.053,7.442-15.051,10.43-22.194,2.855-6.824,6.4-14.846,7.689-22.1,1.633-9.162-8.118-12.347-15.954-13.237Z" transform="translate(-51.293 -273.14)" fill="#bf7726"/>
      <path id="Path_105364" data-name="Path 105364" d="M790.072,1669.2c-12.439,8.569-29.073,11.214-40.516,22.4a65.134,65.134,0,0,1,13.867-.041c-7.04,4.619-13.681,9.626-18.207,16.742a170.6,170.6,0,0,1,56.2-3.075,67.119,67.119,0,0,0-16.629,24.314c3.493-1.309,7.018-2.646,10.61-3.821,5.618-1.836,23.783-6.678,23.783-6.678s3,10,3.439,13.871c3.776-3.793,8.338-7.177,12.494-10.66a120.549,120.549,0,0,1,22.378,21.894c.529-4.439.374-9.034.826-13.483,5.505,2.112,7.364,8.3,11.592,11.916,4.547-3.852,8.094-9.242,13.2-12.484,2.628,4.21,3.1,9.659,5.877,13.768,5.326-2.572,10.418-7.156,15.516-10.412,3.584-2.289,18.641-6.913,14.284-7.583-1.322-.2,9.269,4.039,12.686,5.661,4.785,2.272,10.113,4.079,14.784,6.1.75-3.263-.328-6.986-.717-9.99,5.226-1.441,25.606,1.159,29.583,2.014,4.662,1,9.36,3.683,13.976,4.168.706-7-6.979-10.774-10.971-14.871,10.969-3.445,22.719-2.074,33.964-2.134-3.879-5.346-13.315-7.167-19.169-9.926a134.845,134.845,0,0,0-24.524-8.94,224.23,224.23,0,0,1,32.943.817c8.368.773,16.8,2.988,25.2,2.864-3.53-5.66-8.652-9.052-13.8-12.732,5.394-.107,11.456,2.55,16.358,4.375-9.791-12.109-25.63-24.273-41.471-26.476-13.232-1.84-28.618-2.582-41.866-1.171-19.066,2.033-35.94,9.339-54.081,14.5-18.537,5.273-37.04.711-54.853-4.418-5.435-1.565-10.873-1.932-16.417-2.762-2.974-.445-10.815-.244-12.7-2.429Z" transform="translate(0 -254.624)" fill="#e38e2f"/>
      <path id="Path_105365" data-name="Path 105365" d="M1223.476,1438.781l.714,12.539.713.1.408-12.742Z" transform="translate(-287.344 -118.712)" fill="#ef5c3f"/>
      <path id="Path_105366" data-name="Path 105366" d="M1242.011,1443.321l.714,12.539.714.1.408-12.743Z" transform="translate(-298.48 -121.439)" fill="#ef5c3f"/>
      <path id="Path_105367" data-name="Path 105367" d="M1211.982,1373.571c.294-4.616-3.7-8.188-8.758-7.792-6.946.544-8.291,8.129-8.774,12.624-1.154,10.741,2.688,21.339,14.21,23.564,9.084,1.755,18-2.01,19.637-12.089.792-4.863-.869-8.857-4.3-12.367-2.282-2.339-9.149-5.413-12.02-3.639Z" transform="translate(-269.787 -74.894)" fill="#f1d54e"/>
      <path id="Path_105368" data-name="Path 105368" d="M1225.375,1403.571c-1.966,1.286-3.775,6.342-.453,9.664s8.607,4.529,8.607,4.529l-.755-2.114,4.681.3-1.812-2.718,2.567-.454S1233.68,1398.134,1225.375,1403.571Z" transform="translate(-287.106 -96.891)" fill="#ffefa2"/>
      <path id="Path_105369" data-name="Path 105369" d="M1212.563,1360.217l4.379-4.379-.3,1.963,3.624-.755-1.208,1.661.906.151-1.51,3.02Z" transform="translate(-280.787 -68.94)" fill="#ffefa2"/>
      <path id="Path_105370" data-name="Path 105370" d="M1201,1368.807c-1.43-.846-3.775-1.373-4-.686s1.082,3.867,1.769,3.867C1200.023,1371.987,1202.339,1369.6,1201,1368.807Z" transform="translate(-271.418 -76.13)" fill="#ef5c3f"/>
      <path id="Path_105371" data-name="Path 105371" d="M1218.6,1373.587a.9.9,0,1,1-.9-.9A.9.9,0,0,1,1218.6,1373.587Z" transform="translate(-283.335 -79.064)" fill="#564336"/>
      <path id="Path_105372" data-name="Path 105372" d="M1209.071,1366.929a.673.673,0,1,1-.673-.673A.673.673,0,0,1,1209.071,1366.929Z" transform="translate(-277.88 -75.199)" fill="#564336"/>
      <path id="Path_105373" data-name="Path 105373" d="M1217.722,1466.594l-3.624-.805-.2.5,3.02,1.007-4.228.5.1.906,4.429-.5-2.819,2.215,1.007.3,3.015-3.012Z" transform="translate(-280.862 -135)" fill="#ef5c3f"/>
      <path id="Path_105374" data-name="Path 105374" d="M1236.384,1470.63l-3.624-.805-.2.5,3.02,1.006-4.228.5.1.906,4.429-.5-2.819,2.214,1.007.3,3.015-3.012Z" transform="translate(-292.075 -137.424)" fill="#ef5c3f"/>
      <path id="Path_105375" data-name="Path 105375" d="M1013.735,1667.676c9.467-2.4,10.639-2.273,20.44-1.624-5.134-4.495-11.687-6.068-17.394-8.6,14.037-1.792,27.43.747,40.864,3.785-.547-7.649-20.484-14.973-26.39-17.468-15.817-6.684-34.073-10.708-51.1-12.248-28.965-2.62-57.282,4.13-83.6,15.408.392-.376.936-1.216,1.384-1.674l.089-1.81c-5.623-.211-11.442-2.269-17.08-3.122-8.887-1.344-18.234.774-27.085-.77-13.8-2.407-30.414-4.522-47.93,4.841,5.578.2,19.01,4.8,23.254,9.966-1.005,2.069-9.06,5.134-16.825,14.064-4.429,5.094-9.766,10.266-12.453,16.4,14.431-6.721,33.5-10.688,49.386-10.576-4.48,7.219-8.169,15.547-11.818,23.3a150.249,150.249,0,0,0,14.26-4.786c3.068-1.137,19.026-9.481,22.473-7.444,2.931,1.732,2.032,16.594,3.617,20.582,4.955-3.034,8.228-8.594,12.651-12.323,4.314,4.323,4.368,11.984,8.837,15.965,2.76-2.784,4.113-6.976,6.814-9.7,2.781-2.806,1.276-2.571,5.046-1.694,6.812,1.584,14.34,8.234,20.34,11.83,4.371,2.62,8.607,6.037,13.088,8.277,2.846-6.213.151-15.312-.608-21.674,9.452,0,20.451,3.186,29.019,6.738-2.449-3.123-6.468-5.156-8.9-8.467,11.7-.869,23.761,6.094,35.274,7.045.186-5.227-11.111-10.357-14.186-13.693a206.933,206.933,0,0,1,25.06-2.582c9.006-.334,18.73,2.159,27.514,1.387C1036.932,1681.857,1017.358,1671.27,1013.735,1667.676Z" transform="translate(-32.861 -234.233)" fill="#ffb869"/>
      <path id="Path_105376" data-name="Path 105376" d="M919.407,1667.567c-13.317,15.859,14.175,22.369,24.891,24.461,17.328,3.382,35.67,3.265,53.465,4.078,16.112.737,32.757.816,48.479-.931,10.069-1.119,39.734-2.38,28.89-20.361-6.222-10.318-21.309-13.34-32.084-15.071-16.214-2.6-34.368-5.765-50.71-3.048Z" transform="translate(-102.513 -249.072)" fill="#bf7726"/>
      <path id="Path_105377" data-name="Path 105377" d="M938.693,1356.218s10.872-74.293-33.22-69.461c-16.854,1.847-33.824,19.328-38.657,68.253-4.407,44.626-15.747,112.051,83.957,114.157C1036.542,1470.98,1045,1458.3,1045,1458.3c25.972-18.12,47.112-50.133,47.112-50.133l-21.14,1.208,7.852-19.932-22.952,1.208,12.684-9.664-24.764-1.812,10.268-16.912s-46.43-4.826-61-4.832C957.834,1357.413,938.693,1356.218,938.693,1356.218Z" transform="translate(-71.394 -27.3)" fill="#ffe35c"/>
      <path id="Path_105378" data-name="Path 105378" d="M878.138,1365.122s10.872-12.986,11.174-12.08,4.228,9.06,4.228,9.06l16.912-12.685,11.174,12.382.3-13.892,11.476,9.362,3.322-12.684,6.96,3.685c1.489-17.274,2.767-67.795-33.838-63.783-16.854,1.847-33.824,19.328-38.657,68.253q-.177,1.787-.366,3.623C874.76,1361.148,878.138,1365.122,878.138,1365.122Z" transform="translate(-75.467 -25.936)" fill="#fb9e36"/>
      <path id="Path_105379" data-name="Path 105379" d="M1098.76,1530.286s-40.469-31.106-67.347-22.348c-16.37,5.334-31.409,28.993-9.967,50.435,13.447,13.447,73.085,16.308,73.085,16.308l-6.04-10.571,15.1,2.114-9.362-11.174,10.268-1.812-7.55-11.778,13.59-2.718Z" transform="translate(-159.584 -159.389)" fill="#ffefa2"/>
      <path id="Path_105380" data-name="Path 105380" d="M1021.536,1343.04s-3.12,1.626-3.288,7.869c-.2,7.449,3.533,9.912,3.533,9.912s15.467-6.143,15.467-9.052S1021.536,1343.04,1021.536,1343.04Z" transform="translate(-164.036 -61.251)" fill="#f1d54e"/>
      <path id="Path_105381" data-name="Path 105381" d="M981.054,1328.328a2.263,2.263,0,1,1-2.263-2.263A2.263,2.263,0,0,1,981.054,1328.328Z" transform="translate(-138.974 -51.052)" fill="#564336"/>
      <path id="Path_105382" data-name="Path 105382" d="M1037.121,1322.518a2.1,2.1,0,1,1-2.1-2.1A2.1,2.1,0,0,1,1037.121,1322.518Z" transform="translate(-172.854 -47.659)" fill="#564336"/>
      <g id="Group_54767" data-name="Group 54767" transform="translate(813.627 1248.098)">
        <path id="Path_105383" data-name="Path 105383" d="M922.746,1259.531l.2-.6a4.751,4.751,0,0,0-6.252,3.624c-.5,2.559.841,5.888,2.377,7.863,2.83,3.639,4.075-.5,3.271-3.221-.755-2.552-2.037-5.747.584-7.687A.214.214,0,0,0,922.746,1259.531Z" transform="translate(-916.589 -1258.641)" fill="#ed7454"/>
        <path id="Path_105384" data-name="Path 105384" d="M932.465,1260.594c.1.021.18.063.2-.141C932.593,1260.5,932.529,1260.547,932.465,1260.594Z" transform="translate(-926.128 -1259.73)" fill="#ed7454"/>
      </g>
      <path id="Path_105385" data-name="Path 105385" d="M958.091,1245.234a10.677,10.677,0,0,0-6.118,1.665,9.4,9.4,0,0,0-2.13,1.2c-2.579,1.956-2.865,6.522,1.2,6.393,3.315-.1,4.553-3.521,7.052-5.184.861-.573,3.037-1.022,3.265-2.216C961.67,1245.483,959.349,1245.238,958.091,1245.234Z" transform="translate(-121.798 -2.488)" fill="#ed7454"/>
      <g id="Group_54786" data-name="Group 54786" transform="translate(859.166 1355.241)">
        <g id="Group_54768" data-name="Group 54768" transform="translate(2.719 32.16)">
          <path id="Path_105386" data-name="Path 105386" d="M1037.86,1609c2.05,1.064,3.838,2.56,5.889,3.624.863.448,1.626-.855.762-1.3-2.051-1.063-3.838-2.56-5.889-3.624-.863-.447-1.627.855-.762,1.3Z" transform="translate(-1037.48 -1607.605)" fill="#fb9e36"/>
        </g>
        <g id="Group_54769" data-name="Group 54769" transform="translate(0 20.836)">
          <path id="Path_105387" data-name="Path 105387" d="M1031.05,1580.634c1.868.962,3.568,2.209,5.436,3.171.864.445,1.628-.858.762-1.3-1.867-.962-3.568-2.209-5.436-3.171-.864-.445-1.628.858-.762,1.3Z" transform="translate(-1030.669 -1579.239)" fill="#fb9e36"/>
        </g>
        <g id="Group_54770" data-name="Group 54770" transform="translate(3.213 8.575)">
          <path id="Path_105388" data-name="Path 105388" d="M1039.236,1550.026c1.538.532,2.991,1.28,4.53,1.812.923.319,1.316-1.14.4-1.456-1.539-.532-2.991-1.28-4.53-1.812-.922-.319-1.316,1.14-.4,1.456Z" transform="translate(-1038.716 -1548.525)" fill="#fb9e36"/>
        </g>
        <g id="Group_54771" data-name="Group 54771" transform="translate(15.416)">
          <path id="Path_105389" data-name="Path 105389" d="M1069.834,1528.512c2.6.466,5.1,1.346,7.7,1.812.952.171,1.359-1.285.4-1.456-2.6-.466-5.1-1.346-7.7-1.812-.952-.17-1.359,1.285-.4,1.456Z" transform="translate(-1069.287 -1527.042)" fill="#fb9e36"/>
        </g>
        <g id="Group_54772" data-name="Group 54772" transform="translate(18.151 11.311)">
          <path id="Path_105390" data-name="Path 105390" d="M1076.869,1556.889a10.531,10.531,0,0,1,5.961,2.162c.791.572,1.543-.739.762-1.3a11.9,11.9,0,0,0-6.723-2.367.755.755,0,0,0,0,1.51Z" transform="translate(-1076.14 -1555.378)" fill="#fb9e36"/>
        </g>
        <g id="Group_54773" data-name="Group 54773" transform="translate(17.685 24.002)">
          <path id="Path_105391" data-name="Path 105391" d="M1075.513,1588.645a17.867,17.867,0,0,1,6.615,3.095c.788.575,1.541-.736.762-1.3a18.939,18.939,0,0,0-6.975-3.247c-.949-.21-1.352,1.246-.4,1.456Z" transform="translate(-1074.971 -1587.168)" fill="#fb9e36"/>
        </g>
        <g id="Group_54774" data-name="Group 54774" transform="translate(18.623 39.823)">
          <path id="Path_105392" data-name="Path 105392" d="M1077.832,1628.312c2.3.877,4.833,1.144,7.067,2.189.877.41,1.644-.891.762-1.3-2.362-1.105-5-1.415-7.428-2.341-.911-.347-1.3,1.113-.4,1.456Z" transform="translate(-1077.322 -1626.803)" fill="#fb9e36"/>
        </g>
        <g id="Group_54775" data-name="Group 54775" transform="translate(37.176 47.55)">
          <path id="Path_105393" data-name="Path 105393" d="M1124.529,1647.67c2.116.018,4.891-.051,6.866.8.884.382,1.654-.919.762-1.3-2.248-.972-5.221-.988-7.629-1.009a.755.755,0,0,0,0,1.51Z" transform="translate(-1123.799 -1646.16)" fill="#fb9e36"/>
        </g>
        <g id="Group_54776" data-name="Group 54776" transform="translate(33.988 36.241)">
          <path id="Path_105394" data-name="Path 105394" d="M1116.358,1619.3c2.713.449,5.545.815,7.973,2.189a.756.756,0,0,0,.763-1.3c-2.554-1.445-5.48-1.869-8.334-2.341-.952-.158-1.361,1.3-.4,1.456Z" transform="translate(-1115.811 -1617.828)" fill="#fb9e36"/>
        </g>
        <g id="Group_54777" data-name="Group 54777" transform="translate(42.613 28.524)">
          <path id="Path_105395" data-name="Path 105395" d="M1138.148,1600.008a9.9,9.9,0,0,1,2.449.631,8.458,8.458,0,0,1,2.453.96c.739.624,1.813-.439,1.068-1.068a8.247,8.247,0,0,0-2.644-1.19,12.231,12.231,0,0,0-3.325-.843c-.974-.043-.97,1.467,0,1.51Z" transform="translate(-1137.419 -1598.498)" fill="#fb9e36"/>
        </g>
        <g id="Group_54778" data-name="Group 54778" transform="translate(32.637 15.843)">
          <path id="Path_105396" data-name="Path 105396" d="M1112.965,1568.212c1.957.482,3.933.878,5.889,1.359.946.233,1.347-1.223.4-1.456-1.957-.481-3.932-.877-5.889-1.359-.946-.233-1.346,1.224-.4,1.456Z" transform="translate(-1112.426 -1566.731)" fill="#fb9e36"/>
        </g>
        <g id="Group_54779" data-name="Group 54779" transform="translate(35.365 5.875)">
          <path id="Path_105397" data-name="Path 105397" d="M1119.991,1543.271c1.7.053,3.127.961,4.6,1.708.866.44,1.631-.863.762-1.3-1.732-.878-3.373-1.853-5.364-1.915-.974-.031-.972,1.48,0,1.51Z" transform="translate(-1119.261 -1541.761)" fill="#fb9e36"/>
        </g>
        <g id="Group_54780" data-name="Group 54780" transform="translate(53.96 8.111)">
          <path id="Path_105398" data-name="Path 105398" d="M1166.349,1548.874a51.466,51.466,0,0,1,7.067,3.095.756.756,0,0,0,.762-1.3,54.21,54.21,0,0,0-7.428-3.247c-.906-.359-1.3,1.1-.4,1.456Z" transform="translate(-1165.843 -1547.362)" fill="#fb9e36"/>
        </g>
        <g id="Group_54781" data-name="Group 54781" transform="translate(57.561 18.559)">
          <path id="Path_105399" data-name="Path 105399" d="M1175.593,1575.044a6.779,6.779,0,0,1,5.354,2.5c.607.761,1.668-.315,1.068-1.068a8.231,8.231,0,0,0-6.422-2.939.755.755,0,0,0,0,1.51Z" transform="translate(-1174.863 -1573.534)" fill="#fb9e36"/>
        </g>
        <g id="Group_54782" data-name="Group 54782" transform="translate(57.561 36.226)">
          <path id="Path_105400" data-name="Path 105400" d="M1175.594,1619.3c1.782.035,4.409.345,5.808,1.591.725.645,1.8-.419,1.068-1.068-1.736-1.546-4.637-1.99-6.875-2.033a.755.755,0,0,0,0,1.51Z" transform="translate(-1174.864 -1617.791)" fill="#fb9e36"/>
        </g>
        <g id="Group_54783" data-name="Group 54783" transform="translate(56.192 50.27)">
          <path id="Path_105401" data-name="Path 105401" d="M1171.973,1654.454a29.314,29.314,0,0,1,5.708,1.736c.874.417,1.641-.885.762-1.3a31.094,31.094,0,0,0-6.069-1.888.756.756,0,0,0-.4,1.456Z" transform="translate(-1171.434 -1652.973)" fill="#fb9e36"/>
        </g>
        <g id="Group_54784" data-name="Group 54784" transform="translate(69.303 28.994)">
          <path id="Path_105402" data-name="Path 105402" d="M1204.663,1601.065a26.764,26.764,0,0,0,3.351,1.435c.925.314,1.318-1.144.4-1.456a23.824,23.824,0,0,1-2.991-1.282c-.868-.434-1.633.868-.762,1.3Z" transform="translate(-1204.279 -1599.674)" fill="#fb9e36"/>
        </g>
        <g id="Group_54785" data-name="Group 54785" transform="translate(72.026 17.21)">
          <path id="Path_105403" data-name="Path 105403" d="M1211.48,1571.552a20.763,20.763,0,0,1,4.83,3.959.755.755,0,0,0,1.068-1.068,22.094,22.094,0,0,0-5.136-4.195c-.861-.451-1.625.852-.762,1.3Z" transform="translate(-1211.101 -1570.154)" fill="#fb9e36"/>
        </g>
      </g>
      <g id="Group_54835" data-name="Group 54835" transform="translate(796.485 1333.601)">
        <g id="Group_54787" data-name="Group 54787" transform="translate(0 11.206)">
          <path id="Path_105404" data-name="Path 105404" d="M874.246,1501.625c-.263,2.449-.039,4.932-.577,7.349-.211.949,1.245,1.352,1.456.4.568-2.555.353-5.165.631-7.751.1-.968-1.407-.957-1.51,0Z" transform="translate(-873.649 -1500.904)" fill="#fb9e36"/>
        </g>
        <g id="Group_54788" data-name="Group 54788" transform="translate(11.47 7.573)">
          <path id="Path_105405" data-name="Path 105405" d="M902.382,1492.534v4.832a.755.755,0,0,0,1.51,0v-4.832a.755.755,0,0,0-1.51,0Z" transform="translate(-902.382 -1491.804)" fill="#fb9e36"/>
        </g>
        <g id="Group_54789" data-name="Group 54789" transform="translate(19.926 9.385)">
          <path id="Path_105406" data-name="Path 105406" d="M923.565,1497.073a21.286,21.286,0,0,0,.329,4.731c.216.949,1.672.547,1.456-.4a19.537,19.537,0,0,1-.275-4.33.755.755,0,0,0-1.51,0Z" transform="translate(-923.565 -1496.343)" fill="#fb9e36"/>
        </g>
        <g id="Group_54790" data-name="Group 54790" transform="translate(33.818 7.271)">
          <path id="Path_105407" data-name="Path 105407" d="M958.366,1491.778a34.338,34.338,0,0,0,.329,5.335c.151.96,1.605.551,1.456-.4a31.705,31.705,0,0,1-.275-4.933.755.755,0,0,0-1.51,0Z" transform="translate(-958.366 -1491.048)" fill="#fb9e36"/>
        </g>
        <g id="Group_54791" data-name="Group 54791" transform="translate(51.327 7.573)">
          <path id="Path_105408" data-name="Path 105408" d="M1002.536,1492.534a45.3,45.3,0,0,1-.3,6.04c-.129.963,1.382.95,1.51,0a45.3,45.3,0,0,0,.3-6.04.755.755,0,0,0-1.51,0Z" transform="translate(-1002.226 -1491.804)" fill="#fb9e36"/>
        </g>
        <g id="Group_54792" data-name="Group 54792" transform="translate(20.555 26.575)">
          <path id="Path_105409" data-name="Path 105409" d="M925.871,1540.915a.756.756,0,0,0,0-1.51.756.756,0,0,0,0,1.51Z" transform="translate(-925.141 -1539.404)" fill="#fb9e36"/>
        </g>
        <g id="Group_54793" data-name="Group 54793" transform="translate(19.618 26.6)">
          <path id="Path_105410" data-name="Path 105410" d="M923.706,1540.2a76.411,76.411,0,0,1-.906,7.852c-.115.966,1.4.954,1.51,0a76.18,76.18,0,0,0,.906-7.852.755.755,0,0,0-1.51,0Z" transform="translate(-922.793 -1539.467)" fill="#fb9e36"/>
        </g>
        <g id="Group_54794" data-name="Group 54794" transform="translate(9.054 29.922)">
          <path id="Path_105411" data-name="Path 105411" d="M896.33,1548.519v4.832a.755.755,0,0,0,1.51,0v-4.832a.755.755,0,0,0-1.51,0Z" transform="translate(-896.33 -1547.789)" fill="#fb9e36"/>
        </g>
        <g id="Group_54795" data-name="Group 54795" transform="translate(2.41 39.888)">
          <path id="Path_105412" data-name="Path 105412" d="M879.686,1573.485a75.919,75.919,0,0,0,.6,7.852c.107.956,1.618.967,1.51,0a76,76,0,0,1-.6-7.852.756.756,0,0,0-1.51,0Z" transform="translate(-879.686 -1572.755)" fill="#fb9e36"/>
        </g>
        <g id="Group_54796" data-name="Group 54796" transform="translate(5.145 59.802)">
          <path id="Path_105413" data-name="Path 105413" d="M886.547,1623.59a51.542,51.542,0,0,0,1.51,6.342.756.756,0,0,0,1.456-.4,51.512,51.512,0,0,1-1.51-6.342c-.147-.96-1.6-.551-1.456.4Z" transform="translate(-886.536 -1622.641)" fill="#fb9e36"/>
        </g>
        <g id="Group_54797" data-name="Group 54797" transform="translate(13.282 48.646)">
          <path id="Path_105414" data-name="Path 105414" d="M906.921,1595.424a35.842,35.842,0,0,0,1.235,8.053.756.756,0,0,0,1.456-.4,33.984,33.984,0,0,1-1.181-7.652.755.755,0,0,0-1.51,0Z" transform="translate(-906.921 -1594.694)" fill="#fb9e36"/>
        </g>
        <g id="Group_54798" data-name="Group 54798" transform="translate(25.362 44.418)">
          <path id="Path_105415" data-name="Path 105415" d="M937.183,1584.833a17.535,17.535,0,0,0,.631,5.334c.29.926,1.748.531,1.456-.4a16.114,16.114,0,0,1-.577-4.933.756.756,0,0,0-1.51,0Z" transform="translate(-937.183 -1584.103)" fill="#fb9e36"/>
        </g>
        <g id="Group_54799" data-name="Group 54799" transform="translate(40.512 39.215)">
          <path id="Path_105416" data-name="Path 105416" d="M975.305,1572.4a27.214,27.214,0,0,1,3.2,5.887c.386.892,1.687.122,1.3-.762a28.5,28.5,0,0,0-3.44-6.193c-.595-.769-1.655.308-1.068,1.068Z" transform="translate(-975.134 -1571.07)" fill="#fb9e36"/>
        </g>
        <g id="Group_54800" data-name="Group 54800" transform="translate(59.784 16.008)">
          <path id="Path_105417" data-name="Path 105417" d="M1023.64,1514.219c.566.551,1.247.96,1.812,1.51.7.679,1.766-.388,1.068-1.068-.566-.551-1.246-.96-1.812-1.51-.7-.679-1.766.388-1.068,1.068Z" transform="translate(-1023.413 -1512.934)" fill="#fb9e36"/>
        </g>
        <g id="Group_54801" data-name="Group 54801" transform="translate(68.543 3.021)">
          <path id="Path_105418" data-name="Path 105418" d="M1045.582,1481.687a21.4,21.4,0,0,0,5.287,3.742c.866.441,1.63-.862.762-1.3a20.034,20.034,0,0,1-4.981-3.506c-.7-.681-1.765.386-1.068,1.068Z" transform="translate(-1045.355 -1480.401)" fill="#fb9e36"/>
        </g>
        <g id="Group_54802" data-name="Group 54802" transform="translate(91.214 0)">
          <path id="Path_105419" data-name="Path 105419" d="M1102.687,1474.314a62.979,62.979,0,0,0,7.751,1.537c.966.115.955-1.4,0-1.51a59.728,59.728,0,0,1-7.349-1.483.755.755,0,0,0-.4,1.456Z" transform="translate(-1102.149 -1472.832)" fill="#fb9e36"/>
        </g>
        <g id="Group_54803" data-name="Group 54803" transform="translate(97.248 10.578)">
          <path id="Path_105420" data-name="Path 105420" d="M1117.809,1500.806a24.932,24.932,0,0,0,4.429.631.755.755,0,0,0,0-1.51,22.59,22.59,0,0,1-4.027-.577c-.951-.19-1.356,1.266-.4,1.456Z" transform="translate(-1117.264 -1499.332)" fill="#fb9e36"/>
        </g>
        <g id="Group_54804" data-name="Group 54804" transform="translate(127.748 18.738)">
          <path id="Path_105421" data-name="Path 105421" d="M1194.217,1521.241c2.273.367,4.422,1.235,6.644,1.812a.755.755,0,0,0,.4-1.456c-2.222-.578-4.371-1.446-6.644-1.812-.952-.153-1.361,1.3-.4,1.456Z" transform="translate(-1193.669 -1519.774)" fill="#fb9e36"/>
        </g>
        <g id="Group_54805" data-name="Group 54805" transform="translate(119.008 2.103)">
          <path id="Path_105422" data-name="Path 105422" d="M1172.5,1480.223a21.125,21.125,0,0,0,6.24-.631c.928-.285.532-1.742-.4-1.456a19.735,19.735,0,0,1-5.839.577.755.755,0,0,0,0,1.51Z" transform="translate(-1171.774 -1478.099)" fill="#fb9e36"/>
        </g>
        <g id="Group_54806" data-name="Group 54806" transform="translate(148 8.455)">
          <path id="Path_105423" data-name="Path 105423" d="M1245.132,1495.522a27.664,27.664,0,0,1,7.047.577.756.756,0,0,0,.4-1.456,29.267,29.267,0,0,0-7.449-.631.755.755,0,0,0,0,1.51Z" transform="translate(-1244.402 -1494.012)" fill="#fb9e36"/>
        </g>
        <g id="Group_54807" data-name="Group 54807" transform="translate(154.645 23.271)">
          <path id="Path_105424" data-name="Path 105424" d="M1261.777,1533.224a45.427,45.427,0,0,0,5.939-.631c.961-.138.55-1.593-.4-1.456a42.226,42.226,0,0,1-5.537.577.756.756,0,0,0,0,1.51Z" transform="translate(-1261.046 -1531.127)" fill="#fb9e36"/>
        </g>
        <g id="Group_54808" data-name="Group 54808" transform="translate(161.904 52.238)">
          <path id="Path_105425" data-name="Path 105425" d="M1279.95,1606.117l7.248-.906c.953-.119.964-1.63,0-1.51l-7.248.906c-.953.119-.965,1.631,0,1.51Z" transform="translate(-1279.231 -1603.694)" fill="#fb9e36"/>
        </g>
        <g id="Group_54809" data-name="Group 54809" transform="translate(179.729 38.039)">
          <path id="Path_105426" data-name="Path 105426" d="M1324.8,1571.128c1.855-.7,3.852-.91,5.738-1.51.925-.294.529-1.752-.4-1.456-1.886.6-3.883.813-5.739,1.51-.9.339-.512,1.8.4,1.456Z" transform="translate(-1323.884 -1568.122)" fill="#fb9e36"/>
        </g>
        <g id="Group_54810" data-name="Group 54810" transform="translate(173.967 25.968)">
          <path id="Path_105427" data-name="Path 105427" d="M1310.387,1540.579c1.143-.308,2.179-.9,3.322-1.208a.756.756,0,0,0-.4-1.456c-1.143.308-2.179.9-3.322,1.208a.756.756,0,0,0,.4,1.456Z" transform="translate(-1309.45 -1537.885)" fill="#fb9e36"/>
        </g>
        <g id="Group_54811" data-name="Group 54811" transform="translate(158.268 36.541)">
          <path id="Path_105428" data-name="Path 105428" d="M1270.855,1565.881h2.114a.755.755,0,0,0,0-1.51h-2.114a.755.755,0,0,0,0,1.51Z" transform="translate(-1270.125 -1564.371)" fill="#fb9e36"/>
        </g>
        <g id="Group_54812" data-name="Group 54812" transform="translate(175.168 77.58)">
          <path id="Path_105429" data-name="Path 105429" d="M1313.4,1670.506a28.783,28.783,0,0,0,4.53-1.812c.887-.365.5-1.827-.4-1.456a28.8,28.8,0,0,1-4.53,1.812c-.95.214-.547,1.671.4,1.457Z" transform="translate(-1312.46 -1667.178)" fill="#fb9e36"/>
        </g>
        <g id="Group_54813" data-name="Group 54813" transform="translate(198.704 61.04)">
          <path id="Path_105430" data-name="Path 105430" d="M1372.564,1630.737a30.9,30.9,0,0,0,5.589-3.742c.752-.62-.323-1.682-1.068-1.068a29.131,29.131,0,0,1-5.283,3.506c-.868.443-.1,1.745.762,1.3Z" transform="translate(-1371.42 -1625.742)" fill="#fb9e36"/>
        </g>
        <g id="Group_54814" data-name="Group 54814" transform="translate(186.365 55.566)">
          <path id="Path_105431" data-name="Path 105431" d="M1341.43,1614.722c1.116-.386,2.177-.9,3.322-1.208a.756.756,0,0,0-.4-1.456c-1.145.3-2.206.822-3.322,1.208-.914.317-.521,1.775.4,1.456Z" transform="translate(-1340.509 -1612.029)" fill="#fb9e36"/>
        </g>
        <g id="Group_54815" data-name="Group 54815" transform="translate(159.477 73.708)">
          <path id="Path_105432" data-name="Path 105432" d="M1273.881,1659.872a9.5,9.5,0,0,0,4.005-1.009c.877-.423.111-1.725-.762-1.3a7.687,7.687,0,0,1-3.243.8.755.755,0,0,0,0,1.51Z" transform="translate(-1273.151 -1657.477)" fill="#fb9e36"/>
        </g>
        <g id="Group_54816" data-name="Group 54816" transform="translate(25.387 80.331)">
          <path id="Path_105433" data-name="Path 105433" d="M937.975,1675.58a.756.756,0,0,0,0-1.511.756.756,0,0,0,0,1.511Z" transform="translate(-937.245 -1674.069)" fill="#fb9e36"/>
        </g>
        <g id="Group_54817" data-name="Group 54817" transform="translate(25.391 80.319)">
          <path id="Path_105434" data-name="Path 105434" d="M937.78,1675.534c2.19.7,3.908,2.394,5.86,3.548a.756.756,0,0,0,.762-1.3c-2.082-1.23-3.88-2.953-6.22-3.7-.93-.3-1.325,1.162-.4,1.456Z" transform="translate(-937.255 -1674.038)" fill="#fb9e36"/>
        </g>
        <g id="Group_54818" data-name="Group 54818" transform="translate(31.663 62.26)">
          <path id="Path_105435" data-name="Path 105435" d="M953.111,1629.887c.947,1.28,1.771,2.645,2.718,3.926.572.774,1.883.022,1.3-.762-.947-1.281-1.771-2.646-2.718-3.927-.572-.773-1.884-.021-1.3.763Z" transform="translate(-952.966 -1628.8)" fill="#fb9e36"/>
        </g>
        <g id="Group_54819" data-name="Group 54819" transform="translate(14.187 73.082)">
          <path id="Path_105436" data-name="Path 105436" d="M909.41,1657.2l1.812,1.812a.755.755,0,0,0,1.068-1.068l-1.812-1.812a.755.755,0,0,0-1.068,1.068Z" transform="translate(-909.187 -1655.909)" fill="#fb9e36"/>
        </g>
        <g id="Group_54820" data-name="Group 54820" transform="translate(46.498 74.897)">
          <path id="Path_105437" data-name="Path 105437" d="M990.355,1661.744a14.335,14.335,0,0,0,3.475,2.534c.864.445,1.629-.859.762-1.3a12.979,12.979,0,0,1-3.17-2.3c-.695-.683-1.763.385-1.068,1.068Z" transform="translate(-990.129 -1660.457)" fill="#fb9e36"/>
        </g>
        <g id="Group_54821" data-name="Group 54821" transform="translate(49.214 56.778)">
          <path id="Path_105438" data-name="Path 105438" d="M997.162,1616.353a3.737,3.737,0,0,0,2.648,1.127.755.755,0,0,0,0-1.51,2.169,2.169,0,0,1-1.58-.685c-.7-.68-1.766.387-1.068,1.068Z" transform="translate(-996.934 -1615.067)" fill="#fb9e36"/>
        </g>
        <g id="Group_54822" data-name="Group 54822" transform="translate(69.461 78.838)">
          <path id="Path_105439" data-name="Path 105439" d="M1048.2,1671.8a21.606,21.606,0,0,1,6.162,1.736c.873.419,1.64-.883.762-1.3a22.818,22.818,0,0,0-6.522-1.888c-.952-.143-1.362,1.312-.4,1.456Z" transform="translate(-1047.655 -1670.329)" fill="#fb9e36"/>
        </g>
        <g id="Group_54823" data-name="Group 54823" transform="translate(49.834 92.707)">
          <path id="Path_105440" data-name="Path 105440" d="M998.852,1706.484a26.493,26.493,0,0,0,5.013,2.191c.925.311,1.319-1.147.4-1.457a24.481,24.481,0,0,1-4.651-2.038.756.756,0,0,0-.762,1.3Z" transform="translate(-998.487 -1705.071)" fill="#fb9e36"/>
        </g>
        <g id="Group_54824" data-name="Group 54824" transform="translate(78.237 98.452)">
          <path id="Path_105441" data-name="Path 105441" d="M1070.371,1720.972a.755.755,0,0,0,0-1.51.755.755,0,0,0,0,1.51Z" transform="translate(-1069.64 -1719.462)" fill="#fb9e36"/>
        </g>
        <g id="Group_54825" data-name="Group 54825" transform="translate(78.534 98.449)">
          <path id="Path_105442" data-name="Path 105442" d="M1070.918,1720.941a15.039,15.039,0,0,0,7.347.3c.95-.213.547-1.668-.4-1.456a13.36,13.36,0,0,1-6.544-.3.756.756,0,0,0-.4,1.456Z" transform="translate(-1070.383 -1719.455)" fill="#fb9e36"/>
        </g>
        <g id="Group_54826" data-name="Group 54826" transform="translate(90.016 88.184)">
          <path id="Path_105443" data-name="Path 105443" d="M1099.876,1695.25h4.832a.755.755,0,0,0,0-1.51h-4.832a.755.755,0,0,0,0,1.51Z" transform="translate(-1099.146 -1693.74)" fill="#fb9e36"/>
        </g>
        <g id="Group_54827" data-name="Group 54827" transform="translate(116.592 87.886)">
          <path id="Path_105444" data-name="Path 105444" d="M1166.452,1694.8a16.814,16.814,0,0,0,3.825-.329c.949-.22.546-1.675-.4-1.456a15.078,15.078,0,0,1-3.423.275.755.755,0,0,0,0,1.51Z" transform="translate(-1165.722 -1692.995)" fill="#fb9e36"/>
        </g>
        <g id="Group_54828" data-name="Group 54828" transform="translate(112.666 102.092)">
          <path id="Path_105445" data-name="Path 105445" d="M1156.616,1730.378a39.058,39.058,0,0,0,5.939-.329c.96-.147.551-1.6-.4-1.456a36.572,36.572,0,0,1-5.537.275.755.755,0,0,0,0,1.51Z" transform="translate(-1155.886 -1728.582)" fill="#fb9e36"/>
        </g>
        <g id="Group_54829" data-name="Group 54829" transform="translate(135.618 95.447)">
          <path id="Path_105446" data-name="Path 105446" d="M1214.114,1714.033a38.4,38.4,0,0,0,5.939-.631c.959-.159.551-1.615-.4-1.456a35.878,35.878,0,0,1-5.538.577.755.755,0,0,0,0,1.51Z" transform="translate(-1213.384 -1711.935)" fill="#fb9e36"/>
        </g>
        <g id="Group_54830" data-name="Group 54830" transform="translate(147.397 83.674)">
          <path id="Path_105447" data-name="Path 105447" d="M1243.62,1684.536a6.723,6.723,0,0,0,2.8-.708c.876-.424.11-1.726-.762-1.3a4.922,4.922,0,0,1-2.035.5.756.756,0,0,0,0,1.51Z" transform="translate(-1242.89 -1682.442)" fill="#fb9e36"/>
        </g>
        <g id="Group_54831" data-name="Group 54831" transform="translate(158.554 94.509)">
          <path id="Path_105448" data-name="Path 105448" d="M1271.787,1712.6a36.494,36.494,0,0,0,5.134-1.51c.918-.309.524-1.768-.4-1.456a36.42,36.42,0,0,1-5.134,1.51c-.957.172-.551,1.627.4,1.456Z" transform="translate(-1270.839 -1709.586)" fill="#fb9e36"/>
        </g>
        <g id="Group_54832" data-name="Group 54832" transform="translate(42.903 22.045)">
          <path id="Path_105449" data-name="Path 105449" d="M981.855,1529.567a.755.755,0,0,0,0-1.51.755.755,0,0,0,0,1.51Z" transform="translate(-981.125 -1528.057)" fill="#fb9e36"/>
        </g>
        <g id="Group_54833" data-name="Group 54833" transform="translate(42.884 22.036)">
          <path id="Path_105450" data-name="Path 105450" d="M981.293,1529.332a7.53,7.53,0,0,1,1.92,3.593c.212.95,1.668.547,1.456-.4a9.022,9.022,0,0,0-2.308-4.259c-.676-.7-1.742.367-1.068,1.068Z" transform="translate(-981.077 -1528.035)" fill="#fb9e36"/>
        </g>
        <g id="Group_54834" data-name="Group 54834" transform="translate(32.288 31.141)">
          <path id="Path_105451" data-name="Path 105451" d="M954.58,1551.764c.332.938.877,1.781,1.208,2.718.322.911,1.781.519,1.456-.4-.331-.938-.877-1.782-1.208-2.718-.322-.912-1.782-.519-1.456.4Z" transform="translate(-954.533 -1550.844)" fill="#fb9e36"/>
        </g>
      </g>
    </g>
  </g>
</svg>
