<svg id="chicken-right" xmlns="http://www.w3.org/2000/svg" width="224.217" height="304.992" viewBox="0 0 224.217 304.992">
  <path id="Path_106701" data-name="Path 106701" d="M413.713,318.483a22.787,22.787,0,0,1-5.2,4.741c-12.447,8.171-28.038.031-32.9,6.839-.738,1.035-1.5,2.794-1.158,5.855A225.678,225.678,0,0,0,402.375,331c2.858-.727,6.793-1.819,9.246-5.35A12.588,12.588,0,0,0,413.713,318.483Z" transform="translate(-318.822 -65.886)" fill="#e89c5f"/>
  <path id="Path_106702" data-name="Path 106702" d="M415.7,317.427a17.611,17.611,0,0,1-3.622,6.429c-.89.989-4.228,4.461-13.951,6.4-10.75,2.14-14.783-.489-19.823,3.019a15.353,15.353,0,0,0-5.348,7.2c5.236-.65,13.081-1.634,22.683-2.891,14.037-1.836,18.586-2.519,20.887-6.2C419.2,327.106,417.34,321.179,415.7,317.427Z" transform="translate(-320.516 -67.156)" fill="#f2b07b"/>
  <path id="Path_106703" data-name="Path 106703" d="M422.79,300.737a56.92,56.92,0,0,0-5.047,11.483,58.54,58.54,0,0,0-1.982,25.823,6.571,6.571,0,0,0,3.776,3.074c2.426.588,4.109-1.088,5.6-.28.868.471,1.673,1.777,1.535,5.359a5.181,5.181,0,0,0-2.955-1.121c-2.032-.044-2.944,1.411-5,1.515a5.734,5.734,0,0,1-3.686-1.266,11.042,11.042,0,0,1,.176,7.237c-1.5,4.1-5.786,6.152-15.342,9.241-5.78,1.867-13.482,4.113-22.794,6.156a9.1,9.1,0,0,1,1.358-5.5c2.046-3.041,5.685-3.481,9.836-4.428,6.9-1.574,16.228-3.7,19.649-9.261,2.118-3.444,1.409-7.3.993-10.1-1.222-8.259-1.951-20.435.3-37.616Z" transform="translate(-315.576 -87.215)" fill="#f2b07b"/>
  <path id="Path_106704" data-name="Path 106704" d="M422.864,314.345a19.064,19.064,0,0,1-8.693,7.762c-9.888,4.15-19.8-2.962-21.73-4.346a29.49,29.49,0,0,1-10.866-15.833Z" transform="translate(-310.156 -85.784)" fill="#e38e2f"/>
  <path id="Path_106705" data-name="Path 106705" d="M462.714,309.294a167.509,167.509,0,0,0,12.108-30.269c3.532-12.152,8.772-35.355,4.19-37.255-1.444-.6-4.338.727-10.71,9.314,2.6-10.591,3.287-19.064.931-20.024-2.415-.984-8.081,5.908-13.971,16.3-.768-7.618-2.57-9.8-4.19-10.245-1.363-.376-5.143-.238-20.955,25.147-5.817,9.338-10.331,17.388-13.506,23.285Q439.665,297.418,462.714,309.294Z" transform="translate(-268.047 -171.068)" fill="#bf7726"/>
  <path id="Path_106706" data-name="Path 106706" d="M437.474,323.773a25.415,25.415,0,0,1-5.8,5.291c-13.892,9.12-31.291.035-36.72,7.634-.826,1.154-1.678,3.118-1.295,6.533a251.532,251.532,0,0,0,31.167-5.487c3.188-.808,7.579-2.028,10.318-5.969A14.075,14.075,0,0,0,437.474,323.773Z" transform="translate(-295.752 -59.529)" fill="#f2b07b"/>
  <path id="Path_106707" data-name="Path 106707" d="M446.63,302.93A63.664,63.664,0,0,0,441,315.745a65.338,65.338,0,0,0-2.211,28.818A7.327,7.327,0,0,0,443,347.993c2.706.658,4.584-1.213,6.251-.31.969.526,1.865,1.984,1.713,5.982a5.765,5.765,0,0,0-3.3-1.253c-2.268-.048-3.285,1.577-5.577,1.691a6.4,6.4,0,0,1-4.113-1.411,12.32,12.32,0,0,1,.2,8.076c-1.988,5.456-8.409,7.348-17.122,10.311-5.98,2.035-14.843,5.183-25.909,9.624-.24-2.55-.125-6.071,1.986-8.893,2.314-3.089,5.648-3.723,10.976-4.941,7.7-1.755,18.112-4.133,21.928-10.335,2.365-3.844,1.574-8.145,1.11-11.276-1.365-9.217-2.178-22.807.339-41.983Q439.057,303.1,446.63,302.93Z" transform="translate(-293.956 -84.579)" fill="#f2b07b"/>
  <path id="Path_106708" data-name="Path 106708" d="M545.448,293.2a72.389,72.389,0,0,1-3.794,27.177c-18.736,54-98.084,63.713-102.637,64.208a146.741,146.741,0,0,1-61.35-36.372,95.58,95.58,0,0,1-13.09-22.056,99.137,99.137,0,0,1-6.795-50.645c11.971-9.025,34.8-23.441,66.337-27.279C490.864,240.106,538.671,286.42,545.448,293.2Z" transform="translate(-339.692 -151.462)" fill="#ffb869"/>
  <path id="Path_106709" data-name="Path 106709" d="M513.859,320.814c-7.775,6.242-14.763,7.629-18.562,7.991-17.641,1.669-36.441-12.2-46.076-34.99a16.046,16.046,0,0,1-5.483,6.055c-7.577,4.851-16.481.925-17.324.539a21.866,21.866,0,0,1-9.362,5.6c-12.112,3.466-22.556-5.729-23.459-6.548a35.937,35.937,0,0,1-9.664-.484c-15.734-2.97-24.725-15.8-27.332-19.852,5.524-3.408,47.712-28.463,96.818-10.9C491.834,281.961,509.6,312.881,513.859,320.814Z" transform="translate(-340.175 -133.723)" fill="#e38e2f"/>
  <path id="Path_106710" data-name="Path 106710" d="M437.916,254.734c3.144-.328,7.623-.859,12.982-1.713,10.283-1.64,13.057-2.757,14.946-.956,3.71,3.536-.8,13.737-1.2,14.625a25.829,25.829,0,0,1-4.789,7.092,18.645,18.645,0,0,1,2.688,6.722c1.9,10.415-6.242,18.74-7.37,19.859a30.913,30.913,0,0,1-2.708,10.2c-5.615,12.13-17.564,16.644-20.755,17.736Q434.814,291.521,437.916,254.734Z" transform="translate(-249.902 -146.819)" fill="#ffd191"/>
  <path id="Path_106711" data-name="Path 106711" d="M399.088,296.56a60.467,60.467,0,0,0,7.471,21.05c3.316,5.674,12.736,21.781,31.7,25.847,11.262,2.418,28.994,1.253,38.852-11.351a32.481,32.481,0,0,0,6.46-16.6A17.166,17.166,0,0,0,490,307.048c3.012-9.019-3.422-16.857-3.86-17.373a41.365,41.365,0,0,0-4.538-31.048,163.46,163.46,0,0,1-54.161-12.311,43.326,43.326,0,0,0-16.606,10.677C396.2,272.263,398.648,293.244,399.088,296.56Z" transform="translate(-289.617 -152.621)" fill="#ffb869"/>
  <path id="Path_106712" data-name="Path 106712" d="M425.911,325.713a15.363,15.363,0,0,1,2.145,6.566c.374,4.659-1.669,8.123-4.241,12.341a51.77,51.77,0,0,1-12.227,13.343,70.127,70.127,0,0,1-5.7,4.225,13.143,13.143,0,0,1-.443-5.892c.784-4.822,4.335-7.9,5.615-9.072C414.662,343.914,419.689,337.858,425.911,325.713Z" transform="translate(-281.662 -57.197)" fill="#f2b07b"/>
  <path id="Path_106713" data-name="Path 106713" d="M437.823,285.2c16.283,2.862,20.948,5.853,21.094,8.431.159,2.854-5.205,5.546-8.869,6.469-11,2.774-20.484-6.929-21.349-7.843a9.914,9.914,0,0,0,6.473-2.618A9.651,9.651,0,0,0,437.823,285.2Z" transform="translate(-253.52 -105.889)" fill="#bf7726"/>
  <path id="Path_106714" data-name="Path 106714" d="M435.951,263.049c22.849-9.785,30.377-9.567,32.4-6.773,2.519,3.479-2.812,11.91-3.384,12.8a23.921,23.921,0,0,1-11.32,9.175c4.322-1.638,8.4-1.643,10.069.363,2.627,3.166-1.847,10.054-2.869,11.628-6.379,9.818-18.5,12.643-24.6,13.566.537-.443,6.1-5.185,5.419-12.328a13.863,13.863,0,0,0-3.547-7.865,22.3,22.3,0,0,0,1.563-8.979A22.582,22.582,0,0,0,435.951,263.049Z" transform="translate(-244.804 -142.656)" fill="#bf7726"/>
  <path id="Path_106715" data-name="Path 106715" d="M485.015,315.854a25.044,25.044,0,0,1-10.972,7.916,26.193,26.193,0,0,1-4.824,12.722c-8.176,11.139-22.5,11.029-24.159,10.992a25.064,25.064,0,0,1-8.792,8.345c-9.908,5.513-20.191,1.955-21.961,1.321a21.156,21.156,0,0,1-26.339-.447,32.877,32.877,0,0,1-10.115.447,33.348,33.348,0,0,1-16.241-6.594,13.032,13.032,0,0,1-3.95-3.519c-2.869-3.9-2.832-8.607-2.217-12.053a22.408,22.408,0,0,1,1.341-4.637,279.651,279.651,0,0,1,4.826-66.76,55.481,55.481,0,0,1-6.148-17.117c-1.211-6.669-3.633-20.081,4.135-28.668a22.325,22.325,0,0,1,9.631-5.905c14.49-5.289,33.547-.112,45.021,12.425a43.513,43.513,0,0,1,9.314,16.448,84.88,84.88,0,0,1,21.495,15.367c10.767,10.655,12.835,18.46,23.285,25.911a40.14,40.14,0,0,0,3.613,2.31,48.5,48.5,0,0,0,16.578,5.586C488.983,291.249,493.455,305.07,485.015,315.854Z" transform="translate(-343.137 -196.461)" fill="#f1d54e"/>
  <path id="Path_106716" data-name="Path 106716" d="M358.289,239.314c-2.16-.346-3.213-4.062-3.8-6.15-.317-1.116-1.962-6.918.293-8.49,2.1-1.462,4.855,2.625,9.076,1.757,4.567-.94,4.954-6.436,8.931-6.736.907-.068,1.075.2,7.319,4.1,5.016,3.129,7.524,4.692,8.345,4.978,2.55.883,4.8,1.105,5.271,2.633a2.149,2.149,0,0,1-.44,2.05c-1.2,1.2-3.325-.663-6.881-.293-.573.059-3.825.4-5.562,2.783-.341.465-.912,1.4-1.171,4.831-.319,4.19.366,5.007.145,7.759-.057.724-.592,7.444-3.952,8.343-2.5.669-5.225-2.248-5.709-2.781-3.677-.1-4.976-1.66-5.271-2.05-2.138-2.829-.6-9.006,5.271-14.054-.683-1.651-1.872-3.882-3.659-4.1C363.327,233.512,361.239,239.785,358.289,239.314Z" transform="translate(-343.768 -184.624)" fill="#15a564"/>
  <path id="Path_106717" data-name="Path 106717" d="M459.593,294.318a28.8,28.8,0,0,1-1.242,15.523c-4.313,11.251-16.2,18.945-30.423,20.18a21.189,21.189,0,0,1-10.866,1.242c-9.158-1.42-14.046-8.627-14.9-9.935a57.5,57.5,0,0,1,8.072-9.624C427.594,295.118,450.715,294.188,459.593,294.318Z" transform="translate(-285.416 -94.941)" fill="#ffb869"/>
  <path id="Path_106718" data-name="Path 106718" d="M402.654,320.228a27.167,27.167,0,0,1,3.492-9.778c8.2-13.685,26.061-14.792,28.406-14.9a78.939,78.939,0,0,0-31.9,24.681Z" transform="translate(-284.822 -93.452)" fill="#bf7726"/>
  <path id="Path_106719" data-name="Path 106719" d="M370.7,228.641c.343-2.893,5.784-4.34,7.288-4.741,3.56-.947,9.7-1.319,11.163,1.636.861,1.737-.174,4.049-.33,4.395a6.632,6.632,0,0,1-2.724,3.008,6.214,6.214,0,0,1-2.73,2.871C378.524,238.161,370.247,232.412,370.7,228.641Z" transform="translate(-323.251 -180.385)" fill="#17c878"/>
  <path id="Path_106720" data-name="Path 106720" d="M368.771,231.578a11.338,11.338,0,0,1-2.182-4.287c-.857-4.368,2.319-10.067,7.44-11.883a11.034,11.034,0,0,1,14.567,9.58c.388,7.616-9.03,13.887-14.092,12.216C372.028,236.385,370.07,233.5,368.771,231.578Z" transform="translate(-328.334 -190.48)" fill="#17c878"/>
  <path id="Path_106721" data-name="Path 106721" d="M382.835,226.939c-1.876,4.294-6.4,6.462-10.1,4.846s-5.188-6.41-3.312-10.7,6.4-6.465,10.1-4.846S384.711,222.645,382.835,226.939Z" transform="translate(-325.739 -189.417)" fill="#fff"/>
  <path id="Path_106722" data-name="Path 106722" d="M380.379,225.923c-1.444,3.307-4.86,5.007-7.627,3.8s-3.84-4.871-2.4-8.178,4.859-5.009,7.627-3.8S381.823,222.616,380.379,225.923Z" transform="translate(-324.412 -187.426)" fill="#203245"/>
  <path id="Path_106723" data-name="Path 106723" d="M375.807,219.284a2.578,2.578,0,1,1-2.689-2.29A2.5,2.5,0,0,1,375.807,219.284Z" transform="translate(-323.269 -187.865)" fill="#fff"/>
  <path id="Path_106724" data-name="Path 106724" d="M354.562,231.085c-1.944-6.795,1.759-15.27,6.438-16.14a5.063,5.063,0,0,1,2.807.328c3.382,1.389,4.419,6.148,4.527,9.224.269,7.614-6.273,13.885-9.789,12.214C356.2,235.594,354.923,232.346,354.562,231.085Z" transform="translate(-343.258 -190.414)" fill="#17c878"/>
  <path id="Path_106725" data-name="Path 106725" d="M364.923,226.745c-1.3,4.294-4.443,6.465-7.017,4.846s-3.6-6.41-2.3-10.7,4.446-6.465,7.019-4.846S366.226,222.451,364.923,226.745Z" transform="translate(-342.046 -189.65)" fill="#fff"/>
  <path id="Path_106726" data-name="Path 106726" d="M363.217,225.729c-1,3.307-3.375,5.009-5.3,3.8s-2.669-4.87-1.665-8.178,3.375-5.007,5.3-3.8S364.221,222.421,363.217,225.729Z" transform="translate(-341.124 -187.658)" fill="#203245"/>
  <path id="Path_106727" data-name="Path 106727" d="M360.04,219.09c.046,1.337-.716,2.475-1.7,2.545s-1.823-.956-1.869-2.29.716-2.475,1.7-2.545S360,217.755,360.04,219.09Z" transform="translate(-340.33 -188.099)" fill="#fff"/>
  <path id="Path_106728" data-name="Path 106728" d="M382.048,228.448a5.233,5.233,0,0,1-5.177,3.589,15.323,15.323,0,0,1-1.2,2.281,16.122,16.122,0,0,1-5.3,5.113c-.942-1.066-2-2.169-3.193-3.276a46.983,46.983,0,0,0-7.66-5.782c-1.174.416-2.211.4-2.528-.077-.432-.645.581-1.951.986-2.473a9.253,9.253,0,0,1,3.206-2.583c5.641-2.821,5.9-5.238,8.537-5.071,1.511.1,2.065.927,5.218,3.378A74.548,74.548,0,0,0,382.048,228.448Z" transform="translate(-339.832 -184.055)" fill="#fb9e36"/>
  <path id="Path_106729" data-name="Path 106729" d="M378.878,225.733a17.581,17.581,0,0,1-4.648.5c-3.448-.095-4.606-1.171-7.933-1.638a17.321,17.321,0,0,0-8.028.6,23.9,23.9,0,0,1,6.493-.119c3.4.458,6.967,2.169,9.855,2.151a6.941,6.941,0,0,0,2.283-.383A6.738,6.738,0,0,0,378.878,225.733Z" transform="translate(-338.166 -178.948)" fill="#8f6e5b"/>
  <path id="Path_106730" data-name="Path 106730" d="M365.415,221.817c-1.607,1.189-1.83,1.649-1.737,1.845.238.5,2.834.057,2.946-.687C366.683,222.581,366.038,222.147,365.415,221.817Z" transform="translate(-331.688 -182.065)" fill="#8f6e5b"/>
  <path id="Path_106731" data-name="Path 106731" d="M367,236.59c-2.667-2.268-5.115-5.044-4.5-7.451.506-1.993,2.763-2.356,2.794-4.036.048-2.693-5.712-3.43-6.055-6.674-.161-1.521,1.074-1.632,2.587-5.4,1.255-3.127,1.182-4.985,2.05-5.124,1.246-.2,2.153,3.593,3.8,3.514,1.132-.055,1.266-1.858,3.076-3.952,2.087-2.418,5.828-4.551,7.9-3.367.405.231,1.27.887,1.61,2.926a17.332,17.332,0,0,1,8.492-2.343c1.264,0,4.142,0,4.831,1.464.509,1.086-.634,2-.148,2.928.7,1.328,3.411.214,7.028,1.171,2.4.636,5.89,2.369,6.148,4.686.22,1.957-2.013,3.065-1.464,4.391.6,1.438,3.391.683,4.833,2.05,1.174,1.114,1.667,3.858-1.392,11.025a27.923,27.923,0,0,0-7.687-6.487c-1.625-.925-14.068-7.74-24.755-1.275A22.186,22.186,0,0,0,367,236.59Z" transform="translate(-337.023 -203.763)" fill="#15a564"/>
  <path id="Path_106732" data-name="Path 106732" d="M425.187,280.567c1.588-1.9,8.858-.9,9.82,3.272.661,2.871-1.863,6.405-4.21,6.546C427.162,290.605,423.394,282.714,425.187,280.567Z" transform="translate(-258.295 -112.565)" fill="#e38e2f"/>
  <path id="Path_106733" data-name="Path 106733" d="M423.562,269.671c1.215-2.279,9.221-2.973,11.456,1.636,1.482,3.056-.051,7.455-2.338,8.182C428.947,280.676,422.086,272.436,423.562,269.671Z" transform="translate(-259.94 -126.687)" fill="#e38e2f"/>
  <path id="Path_106734" data-name="Path 106734" d="M438.143,265.312c1.028,1.535,1.237,4.164,0,5.144-2.548,2.021-11.232-2.964-10.754-5.144C427.806,263.407,435.66,261.6,438.143,265.312Z" transform="translate(-255.117 -132.382)" fill="#e38e2f"/>
  <path id="Path_106735" data-name="Path 106735" d="M437.245,255.9c2.75,1.444,3.435,5.978,1.863,7.685-2.252,2.44-9.748-.251-10.014-3.028C428.867,258.18,433.762,254.067,437.245,255.9Z" transform="translate(-253.054 -141.653)" fill="#e38e2f"/>
  <path id="Path_106736" data-name="Path 106736" d="M420.66,258.83c.918-2.061,7.253-3.19,9.353.233,1.552,2.532.165,6.531-1.872,7.248C425.057,267.4,419.57,261.277,420.66,258.83Z" transform="translate(-263.351 -139.928)" fill="#e38e2f"/>
  <path id="Path_106737" data-name="Path 106737" d="M415.653,270.346c1.746-1.856,10.025.194,10.523,4.91.289,2.754-2.123,5.985-4.443,6.079C417.743,281.5,413.718,272.407,415.653,270.346Z" transform="translate(-269.801 -124.557)" fill="#e38e2f"/>
  <path id="Path_106738" data-name="Path 106738" d="M415.676,280.583c1.744-1.352,8.495,1.07,8.884,6.079.251,3.219-2.193,6.656-4.208,6.546C416.907,293.019,413.371,282.371,415.676,280.583Z" transform="translate(-270.057 -111.882)" fill="#e38e2f"/>
  <path id="Path_106739" data-name="Path 106739" d="M408.506,270.023c1.524-.608,4.948,2.023,5.377,5.61.484,4.04-3.05,7.429-4.675,7.015C406.63,281.992,405.954,271.042,408.506,270.023Z" transform="translate(-279.72 -124.234)" fill="#e38e2f"/>
  <path id="Path_106740" data-name="Path 106740" d="M413.922,260.562c1.814-1.493,7.348-.46,8.415,3.508,1.055,3.908-3.056,7.579-5.377,7.248C413.789,270.864,411.473,262.579,413.922,260.562Z" transform="translate(-272.51 -136.282)" fill="#e38e2f"/>
  <path id="Path_106741" data-name="Path 106741" d="M398.813,291.625c2.959-1.125,10.276,6.967,8.693,10.243-.984,2.041-5.74,2.882-8.693.621C394.8,299.415,396.567,292.477,398.813,291.625Z" transform="translate(-292.314 -98.294)" fill="#bf7726"/>
  <path id="Path_106742" data-name="Path 106742" d="M390.039,290.122c2.241-1.019,8.1,2.068,7.762,6.83-.288,4.067-4.908,6.76-7.141,5.9C387.324,301.563,387.049,291.479,390.039,290.122Z" transform="translate(-302.476 -100.206)" fill="#bf7726"/>
  <path id="Path_106743" data-name="Path 106743" d="M380.531,288.376c2.354-.848,8.239,4.124,6.83,8.07-.916,2.563-4.721,4.181-6.83,3.1C377.18,297.844,377.99,289.29,380.531,288.376Z" transform="translate(-314.079 -102.185)" fill="#bf7726"/>
  <path id="Path_106744" data-name="Path 106744" d="M372.411,285.956c2.255-.586,7.284,3.717,5.9,7.762-1.041,3.039-5.243,4.578-7.141,3.415C368.283,295.36,369.665,286.67,372.411,285.956Z" transform="translate(-324.587 -105.043)" fill="#bf7726"/>
  <path id="Path_106745" data-name="Path 106745" d="M390.227,282.494c2.711-1.015,7.429,2.783,6.83,5.9-.564,2.924-5.749,4.873-8.072,3.1C386.482,289.592,387.483,283.52,390.227,282.494Z" transform="translate(-302.974 -109.342)" fill="#bf7726"/>
  <path id="Path_106746" data-name="Path 106746" d="M363.089,279.1c2.294-1.072,8.785,4.036,8.07,8.693-.273,1.784-1.658,3.84-3.415,4.036-2.777.31-4.778-4.217-4.965-4.657C361.515,284.225,361.4,279.885,363.089,279.1Z" transform="translate(-333.891 -113.396)" fill="#bf7726"/>
  <path id="Path_106747" data-name="Path 106747" d="M393.815,304.484c.967-1.909-2.008-5.908-5.588-7.141-1.755-.6-4.859-.956-5.9.621-1.088,1.649.559,4.683,2.484,6.209C387.8,306.541,392.849,306.391,393.815,304.484Z" transform="translate(-309.668 -91.906)" fill="#bf7726"/>
  <path id="Path_106748" data-name="Path 106748" d="M410.846,301.767a5.273,5.273,0,0,0,5.3-3.741c.951-4.553-8.149-10.265-10.285-8.728S406.162,301.192,410.846,301.767Z" transform="translate(-281.903 -101.27)" fill="#bf7726"/>
  <path id="Path_106749" data-name="Path 106749" d="M404.176,309.664c1.566-.557,2.184-3.162,1.863-4.967-.953-5.357-10.862-7.4-12.106-5.588C392.507,301.178,400.574,310.948,404.176,309.664Z" transform="translate(-295.504 -89.946)" fill="#bf7726"/>
  <path id="Path_106750" data-name="Path 106750" d="M398.291,283.087c2.083-1.22,8.021,1.579,7.792,5.61-.176,3.131-4,5.69-6.233,4.987C396.613,292.665,395.855,284.514,398.291,283.087Z" transform="translate(-291.792 -108.773)" fill="#bf7726"/>
  <path id="Path_106751" data-name="Path 106751" d="M484.483,275.18a25.044,25.044,0,0,1-10.972,7.916,26.193,26.193,0,0,1-4.824,12.722c-8.176,11.139-22.5,11.029-24.159,10.992a25.063,25.063,0,0,1-8.792,8.345c-9.908,5.513-20.191,1.955-21.961,1.321a21.156,21.156,0,0,1-26.339-.447,32.875,32.875,0,0,1-10.115.447,33.347,33.347,0,0,1-16.241-6.595,13.032,13.032,0,0,1-3.95-3.519c-2.869-3.9-2.832-8.607-2.217-12.053a8.079,8.079,0,0,0,2.292,1.416c3.446,1.361,7.394.057,10.877-1.863a9.772,9.772,0,0,0,18.628,5.886,9.585,9.585,0,0,0,8.68,8.382c5.031.225,9.818-4.34,9.631-10.245a13.5,13.5,0,0,0,16.151,6.222A13.358,13.358,0,0,0,429.551,292c.989.242,11.326,2.739,18.628-3.726,7.191-6.39,8.495-18.925,1.546-28.871,8.887,1.136,17.3-3.616,20.49-11.177a17.171,17.171,0,0,0,1.211-4.545A48.5,48.5,0,0,0,488,249.268C488.451,250.574,492.922,264.395,484.483,275.18Z" transform="translate(-342.604 -155.786)" fill="#ddc347"/>
  <path id="Path_106752" data-name="Path 106752" d="M366.911,249.428c3.673.055,20.09-.084,30.969-12.341a34.209,34.209,0,0,0,6.053-9.778c2.193,5.679,1.365,9.358.7,11.177C401.264,247.684,385.972,253.206,366.911,249.428Z" transform="translate(-327.78 -175.465)" fill="#baa53d"/>
  <path id="Path_106753" data-name="Path 106753" d="M359.089,255.049a24.381,24.381,0,0,1-.31,13.66c-.339,1.022-2.721,8.222-5.9,8.07-1.766-.084-3.545-2.424-3.726-4.657-.22-2.715,2.006-4.322,4.967-8.38A45.942,45.942,0,0,0,359.089,255.049Z" transform="translate(-349.139 -142.125)" fill="#f2c3a3"/>
  <path id="Path_106754" data-name="Path 106754" d="M365.008,220.191a13.315,13.315,0,0,1,3.415-7.759c6.227-6.412,18.606-3.239,18.628-2.484.013.489-5.157-.172-11.8,2.794A31.553,31.553,0,0,0,365.008,220.191Z" transform="translate(-330.067 -198.075)" fill="#530040" opacity="0.39" style="mix-blend-mode: multiply;isolation: isolate"/>
  <path id="Path_106755" data-name="Path 106755" d="M378.9,249.559c5.771-.3,10.012,3.345,10.245,7.141.161,2.631-1.574,5.853-3.415,5.9C384.02,262.638,381.743,259.959,378.9,249.559Z" transform="translate(-313.376 -148.743)" fill="#baa53d"/>
  <path id="Path_106756" data-name="Path 106756" d="M368.726,246.589a35.755,35.755,0,0,1,4.657,9.314c1.044,3.2,1.8,5.606.621,6.83-1.378,1.431-5,.815-6.83-.931C364.4,259.146,364.857,253,368.726,246.589Z" transform="translate(-329.595 -152.292)" fill="#baa53d"/>
  <path id="Path_106757" data-name="Path 106757" d="M387.92,237.19c5.716-.665,9.93,2.561,10.245,5.9.214,2.281-1.341,5.148-3.1,5.278C393.867,248.455,391.447,247.376,387.92,237.19Z" transform="translate(-302.53 -163.694)" fill="#baa53d"/>
</svg>
