<svg xmlns="http://www.w3.org/2000/svg" width="73" height="69.008" viewBox="0 0 73 69.008">
  <g id="cocina" transform="translate(0 0)">
    <g id="Grupo_82624" data-name="Grupo 82624">
      <path id="Trazado_107081" data-name="Trazado 107081" d="M61.592,48.445c-1-4.256-4.333-6.252-8.513-6.988a23.577,23.577,0,0,0-2.99-.322,4.773,4.773,0,0,1-1.925-.435c-3,5.693-16.73,5.291-19.021,0v-.04a4.745,4.745,0,0,1-2.01.475,23.938,23.938,0,0,0-2.906.306c-4.063.7-7.336,2.571-8.477,6.534,1.765,1.694,16.091,14.613,16.2,15.321H62.03V56.054a2.534,2.534,0,0,1,.9-1.935Zm0,0" fill="#17c878" fill-rule="evenodd"/>
      <path id="Trazado_107082" data-name="Trazado 107082" d="M27.132,41.135a23.827,23.827,0,0,0-2.906.306v6.534l2.183,1.959,2.733-1.959V40.66A4.745,4.745,0,0,1,27.132,41.135Zm0,0" fill="#e6e6e6" fill-rule="evenodd"/>
      <path id="Trazado_107083" data-name="Trazado 107083" d="M24.017,61.513H29.87A2.115,2.115,0,0,1,31.952,63.3h25.03L55.065,52.2A2.136,2.136,0,0,0,53.079,50.2V41.457a23.577,23.577,0,0,0-2.99-.322,4.773,4.773,0,0,1-1.925-.435v9.5H33.134C33.166,50.445,25.77,60.793,24.017,61.513Zm0,0" fill="#e6e6e6" fill-rule="evenodd"/>
      <path id="Trazado_107084" data-name="Trazado 107084" d="M45.812,38.166l-6.845-2.16-7.537,2.12-.02.036a5.087,5.087,0,0,1-2.267,2.5v.04c2.291,5.291,16.018,5.693,19.021,0A5.276,5.276,0,0,1,45.812,38.166Zm0,0" fill="#ffd4a5" fill-rule="evenodd"/>
      <path id="Trazado_107085" data-name="Trazado 107085" d="M46.84,17.559a55.513,55.513,0,0,0-16.448,0q-2.388.356-4.779.925V28.973c0,3.713,2.705,6.992,5.817,9.153,2.54,1.77,5.354,2.788,7.167,2.692a14.849,14.849,0,0,0,7.215-2.652c3.264-2.229,5.852-5.689,5.852-9.753V18.48Q49.258,17.919,46.84,17.559Zm0,0" fill="#ffd4a5" fill-rule="evenodd"/>
      <path id="Trazado_107086" data-name="Trazado 107086" d="M38.978,1.079a7.261,7.261,0,0,0-6.471,3.858H28.977c-5.1,0-8.14,5.609-3.365,8.582v7.8q2.393-.567,4.779-.926a55.532,55.532,0,0,1,16.448,0q2.418.363,4.824.926v-7.8c4.775-2.973,1.869-8.582-3.232-8.582H44.638a5.56,5.56,0,0,0-5.611-3.858Zm0,0" fill="#e6e6e6" fill-rule="evenodd"/>
      <path id="Trazado_107092" data-name="Trazado 107092" d="M71.035,58.025a4.517,4.517,0,0,0-4.5-4.506H64.563a2.539,2.539,0,0,0-2.532,2.535V64.2a2.545,2.545,0,0,0,2.532,2.539h1.969a4.518,4.518,0,0,0,4.5-4.506Zm0,0" fill="#ffd4a5" fill-rule="evenodd"/>
      <path id="Trazado_107093" data-name="Trazado 107093" d="M68.82,20.681H64.245a3.114,3.114,0,0,0-3.1,3.106v9.382a3.112,3.112,0,0,0,3.1,3.106H68.82a3.116,3.116,0,0,0,3.1-3.106V23.787a3.121,3.121,0,0,0-3.1-3.106Zm0,0" fill="#e6e6e6" fill-rule="evenodd"/>
      <path id="Trazado_107096" data-name="Trazado 107096" d="M41.073,50.2a2.576,2.576,0,0,0-2.545-2.229H34.211c-1.515,0-1.773,1.428-2.1,2.9-.165.732,3.143,1.557,2.882,2.241h3.533A2.573,2.573,0,0,0,41.1,50.546,2.478,2.478,0,0,0,41.073,50.2Zm0,0" fill="#fb9e36" fill-rule="evenodd"/>
      <path id="Trazado_107097" data-name="Trazado 107097" d="M7.959,47.975H3.642a2.569,2.569,0,0,0,0,5.138H7.167l3.348-3.178Zm0,0" fill="#fb9e36" fill-rule="evenodd"/>
      <path id="Trazado_107098" data-name="Trazado 107098" d="M29.142,47.975H7.959c-1.515,0-1.748,1.537-1.422,3.009a16.018,16.018,0,0,0,.631,2.129,14.337,14.337,0,0,0,8.264,8.4l4.892,3.058,6.532-3.058a14.821,14.821,0,0,0,8.14-8.4,15,15,0,0,0,.639-2.129c.326-1.472.1-3.009-1.423-3.009Zm0,0" fill="#fb9e36" fill-rule="evenodd"/>
      <path id="Trazado_107099" data-name="Trazado 107099" d="M26.855,61.513H10.266A2.112,2.112,0,0,0,8.16,63.622v2.2a2.112,2.112,0,0,0,2.106,2.108H32.708a2.115,2.115,0,0,0,2.106-2.108v-2.2a1.761,1.761,0,0,0-.028-.326,2.113,2.113,0,0,0-2.078-1.782Zm0,0" fill="gray" fill-rule="evenodd"/>
      <path id="Trazado_107101" data-name="Trazado 107101" d="M34.786,63.3a2.113,2.113,0,0,0-2.078-1.783h-4.4A2.118,2.118,0,0,1,30.393,63.3a2.168,2.168,0,0,1,.024.326v2.2A2.114,2.114,0,0,1,28.31,67.93h4.4a2.115,2.115,0,0,0,2.106-2.108v-2.2A1.8,1.8,0,0,0,34.786,63.3Zm0,0" fill="#666" fill-rule="evenodd"/>
      <path id="Trazado_107103" data-name="Trazado 107103" d="M51.664,21.32q-2.406-.567-4.824-.925c-.566,5.109,4.5,6.087,4.824,6.144Zm0,0" fill="gray" fill-rule="evenodd"/>
      <path id="Trazado_107104" data-name="Trazado 107104" d="M30.392,20.4q-2.388.362-4.779.925v5.21C26.308,26.394,30.931,25.275,30.392,20.4Zm0,0" fill="gray" fill-rule="evenodd"/>
      <path id="Trazado_107105" data-name="Trazado 107105" d="M51.664,21.32q-1.483-.35-2.975-.619v4.486a7.261,7.261,0,0,0,2.975,1.352Zm0,0" fill="#666" fill-rule="evenodd"/>
    </g>
    <path id="Trazado_107106" data-name="Trazado 107106" d="M10.314,39.092a1.078,1.078,0,0,0,1.5,1.543c2.154-2.1,1.272-3.827.687-4.97-.549-1.073-.775-1.517.38-2.6a1.077,1.077,0,0,0-1.477-1.569c-2.334,2.2-1.425,3.977-.823,5.155C11.113,37.676,11.331,38.1,10.314,39.092Zm0,0"/>
    <path id="Trazado_107107" data-name="Trazado 107107" d="M16.279,33.315a1.078,1.078,0,0,0,1.5,1.543c2.155-2.1,1.27-3.828.685-4.971-.549-1.073-.776-1.517.379-2.6a1.077,1.077,0,1,0-1.477-1.569c-2.334,2.2-1.423,3.977-.82,5.155C17.077,31.9,17.295,32.325,16.279,33.315Zm0,0"/>
    <path id="Trazado_107108" data-name="Trazado 107108" d="M32.112,27.208a1.072,1.072,0,0,0,.769-.324,2.866,2.866,0,0,1,2.266,0,1.077,1.077,0,0,0,1.529-1.519A3.957,3.957,0,0,0,34,24.5h-.022a3.915,3.915,0,0,0-2.641.879,1.078,1.078,0,0,0,.77,1.833Zm0,0"/>
    <path id="Trazado_107109" data-name="Trazado 107109" d="M40.839,27.208a1.07,1.07,0,0,0,.768-.324,2.867,2.867,0,0,1,2.267,0A1.077,1.077,0,0,0,45.4,25.369a3.958,3.958,0,0,0-2.671-.873H42.71a3.915,3.915,0,0,0-2.641.879,1.078,1.078,0,0,0,.77,1.833Zm0,0"/>
    <path id="Trazado_107110" data-name="Trazado 107110" d="M38.48,13.993a1.077,1.077,0,0,0,1.077-1.078V7.967a1.077,1.077,0,0,0-2.155,0v4.948A1.077,1.077,0,0,0,38.48,13.993Zm0,0"/>
    <path id="Trazado_107111" data-name="Trazado 107111" d="M31.164,9.127A1.077,1.077,0,0,0,30.087,10.2v4.945a1.077,1.077,0,0,0,2.155,0V10.2A1.077,1.077,0,0,0,31.164,9.127Zm0,0"/>
    <path id="Trazado_107112" data-name="Trazado 107112" d="M45.8,16.226a1.077,1.077,0,0,0,1.077-1.078V10.2a1.077,1.077,0,0,0-2.155,0v4.945A1.077,1.077,0,0,0,45.8,16.226Zm0,0"/>
    <path id="Trazado_107113" data-name="Trazado 107113" d="M68.82,37.353A4.187,4.187,0,0,0,73,33.169V23.787A4.187,4.187,0,0,0,68.82,19.6H64.245a4.187,4.187,0,0,0-4.18,4.183v9.382a4.187,4.187,0,0,0,4.18,4.184h1.21V52.441h-.892a3.61,3.61,0,0,0-.894.112L62.641,48.2c-1.195-5.064-5.4-7.8-12.5-8.139h-.015a3.7,3.7,0,0,1-1.492-.327c-.017-.008-.033-.017-.05-.024a3.547,3.547,0,0,1-1.347-1.247c.229-.177.457-.357.677-.545a12.611,12.611,0,0,0,4.83-9.5V21.477a1.038,1.038,0,0,0,0-.314V14.091a5.2,5.2,0,0,0,2.232-5.755A6.632,6.632,0,0,0,48.432,3.86H45.393a6.525,6.525,0,0,0-5.6-3.822A8.43,8.43,0,0,0,31.881,3.86h-2.9A6.729,6.729,0,0,0,22.341,8.4a5.139,5.139,0,0,0,2.195,5.689V28.973c0,3.633,2.213,6.491,4.07,8.248.445.422.916.823,1.405,1.2a3.573,3.573,0,0,1-1.38,1.289l0,0a3.681,3.681,0,0,1-1.53.344h-.015a24.946,24.946,0,0,0-3.064.325l-.012,0c-4.689.814-7.719,3-9.034,6.511H3.642a3.646,3.646,0,0,0,0,7.293h2.8a15.411,15.411,0,0,0,4.872,6.246H10.266a3.188,3.188,0,0,0-3.184,3.186v2.2a3.188,3.188,0,0,0,3.184,3.186h6.311a1.077,1.077,0,0,0,0-2.155H10.266a1.031,1.031,0,0,1-1.029-1.031v-2.2a1.031,1.031,0,0,1,1.029-1.031H32.707a1.032,1.032,0,0,1,1.008.82.971.971,0,0,0,.016.106.938.938,0,0,1,.006.105v2.2a1.031,1.031,0,0,1-1.029,1.031H21.485a1.077,1.077,0,0,0,0,2.155H32.707a3.188,3.188,0,0,0,3.184-3.186V64.373H60.957a3.617,3.617,0,0,0,3.605,3.444h1.97a5.588,5.588,0,0,0,5.579-5.583V58.025a5.59,5.59,0,0,0-4.5-5.478V37.353ZM60.543,48.693l1.2,5.1a3.6,3.6,0,0,0-.794,2.257v6.164H57.889l-1.762-10.2a3.383,3.383,0,0,0-1.971-2.684v-6.55C57.723,43.7,59.825,45.649,60.543,48.693ZM52,42.381v6.746H49.24v-6.99a6.689,6.689,0,0,0,.8.075C50.731,42.244,51.382,42.3,52,42.381ZM41.887,49.127A3.652,3.652,0,0,0,38.528,46.9H30.219V43.614a14.423,14.423,0,0,0,7.649,2.27q.343.013.7.013a14.8,14.8,0,0,0,8.52-2.377v5.606Zm-5.2,2.09a5.325,5.325,0,0,0,.076-2.165h1.766a1.492,1.492,0,0,1,0,2.983H36.481Q36.593,51.63,36.686,51.217Zm13.9-29.035v2.9A4.165,4.165,0,0,1,47.9,21.66Q49.247,21.888,50.586,22.182Zm-21.259-.521a4.164,4.164,0,0,1-2.637,3.4V22.18Q28.006,21.888,29.327,21.661Zm-2.637,7.312V27.357a8.157,8.157,0,0,0,2.433-1.263,5.98,5.98,0,0,0,2.388-4.765c1.623-.214,3.244-.355,4.853-.421a1.077,1.077,0,1,0-.087-2.153,56.444,56.444,0,0,0-5.977.568l-.027,0c-.038,0-.076.011-.113.018q-1.737.262-3.471.632V13.519a1.076,1.076,0,0,0-.508-.915c-1.533-.955-2.162-2.237-1.769-3.611a4.619,4.619,0,0,1,4.564-2.979h3.529a1.077,1.077,0,0,0,.959-.586,6.236,6.236,0,0,1,6.123-3.245A4.373,4.373,0,0,1,43.6,5.239a1.077,1.077,0,0,0,1.035.776h3.794A4.459,4.459,0,0,1,52.9,8.928c.393,1.376-.265,2.716-1.807,3.676a1.076,1.076,0,0,0-.508.915v6.456q-1.742-.366-3.49-.625a1.1,1.1,0,0,0-.137-.025l-.043,0c-1.815-.266-3.63-.448-5.43-.541a1.077,1.077,0,1,0-.111,2.152c1.441.074,2.893.211,4.346.4a5.978,5.978,0,0,0,2.569,4.9,8.225,8.225,0,0,0,2.3,1.137v1.04a10.507,10.507,0,0,1-4.074,7.863,14.353,14.353,0,0,1-7.975,3.465c-.063,0-.128.006-.2.006A12.616,12.616,0,0,1,32.1,37.281a1.143,1.143,0,0,0-.11-.076,16.869,16.869,0,0,1-1.9-1.548C28.538,34.19,26.691,31.839,26.691,28.973ZM38.342,41.9c.106,0,.212,0,.314-.009a15.363,15.363,0,0,0,6.794-2.222,6.21,6.21,0,0,0,1.2,1.334c-1.759,2.038-5.486,2.849-8.7,2.726C34.61,43.6,31.8,42.536,30.575,41a6.253,6.253,0,0,0,1.211-1.351A13.609,13.609,0,0,0,38.342,41.9Zm-11.166.31a6.741,6.741,0,0,0,.889-.09V46.9H25.3V42.37Q26.194,42.26,27.176,42.212Zm-4.027.549V46.9H17.322C18.364,44.844,20.291,43.474,23.149,42.761ZM3.642,52.035a1.492,1.492,0,0,1,0-2.983H5.409a5.314,5.314,0,0,0,.075,2.165v0c.061.276.131.547.2.816Zm12,8.4a13.408,13.408,0,0,1-8.051-9.684,2.26,2.26,0,0,1,.06-1.606c.023-.028.075-.093.311-.093H34.211c.237,0,.29.065.312.093a2.265,2.265,0,0,1,.058,1.606,13.755,13.755,0,0,1-7.945,9.685Zm19.925,1.782a3.187,3.187,0,0,0-2.857-1.782H30.849a15.943,15.943,0,0,0,4.867-6.246h2.811A3.652,3.652,0,0,0,42.1,51.281H53.079c.719,0,.9.981.924,1.1l1.7,9.84Zm34.392-4.193v4.209a3.43,3.43,0,0,1-3.425,3.429H64.563A1.46,1.46,0,0,1,63.108,64.2V56.054a1.454,1.454,0,0,1,.515-1.111l.029-.024a1.445,1.445,0,0,1,.911-.323h1.97A3.43,3.43,0,0,1,69.957,58.025ZM62.219,33.169V23.787a2.03,2.03,0,0,1,2.026-2.028H68.82a2.03,2.03,0,0,1,2.026,2.028v9.382A2.03,2.03,0,0,1,68.82,35.2H64.245A2.03,2.03,0,0,1,62.219,33.169Zm0,0"/>
  </g>
</svg>
