<svg xmlns="http://www.w3.org/2000/svg" width="72.912" height="73" viewBox="0 0 72.912 73">
  <g id="filled_outline" data-name="filled outline" transform="translate(-2.433 -2.433)">
    <path id="Trazado_106988" data-name="Trazado 106988" d="M30.417,26.462V36.5A1.217,1.217,0,0,1,29.2,37.717H12.167A1.217,1.217,0,0,1,10.95,36.5V23.117H7A3.346,3.346,0,0,0,3.65,26.462V72.087a2.129,2.129,0,0,0,2.129,2.129H35.587a2.129,2.129,0,0,0,2.129-2.129V23.117H33.762A3.346,3.346,0,0,0,30.417,26.462Z" fill="#ffe35c"/>
    <path id="Trazado_106989" data-name="Trazado 106989" d="M10.95,23.117h1.825a3.042,3.042,0,0,1,3.042,3.042V37.717h-3.65A1.217,1.217,0,0,1,10.95,36.5Z" fill="#ffe35c"/>
    <path id="Trazado_106990" data-name="Trazado 106990" d="M36.5,23.117h1.217V42.583H36.5Z" fill="#8ed2ff"/>
    <path id="Trazado_106991" data-name="Trazado 106991" d="M68.933,74.217H57.5a5.171,5.171,0,0,1-5.056-6.254l.476-1.72A28.877,28.877,0,0,0,53.4,52.876l-.249-1.245a43.063,43.063,0,0,1-.836-8.444V32.016a8.821,8.821,0,0,1,.562-3.1L59.617,10.95h7.3l6.738,17.969a8.821,8.821,0,0,1,.562,3.1V43.567a43.05,43.05,0,0,1-.695,7.7l-.472,2.6a28.878,28.878,0,0,0,.832,13.727l.09.289a5.171,5.171,0,0,1-5.039,6.333Z" fill="#fb9e36"/>
    <path id="Trazado_106992" data-name="Trazado 106992" d="M52.317,30.417h21.9V46.233h-21.9Z" fill="#17c878"/>
    <path id="Trazado_106993" data-name="Trazado 106993" d="M58.4,3.65h9.733v7.3H58.4Z" fill="#17c878"/>
    <path id="Trazado_106994" data-name="Trazado 106994" d="M69.35,66.917a1.217,1.217,0,0,1-1.154-.832L67.834,65a19.126,19.126,0,0,1,.386-13.136,1.217,1.217,0,0,1,2.259.9,16.69,16.69,0,0,0-.337,11.463l.361,1.084a1.218,1.218,0,0,1-1.154,1.6Z" fill="#a86545"/>
    <path id="Trazado_106995" data-name="Trazado 106995" d="M67.4,26.767A1.217,1.217,0,0,1,66.273,26l-.487-1.217a1.217,1.217,0,1,1,2.259-.9l.487,1.217A1.217,1.217,0,0,1,67.4,26.767Z" fill="#a86545"/>
    <path id="Trazado_106996" data-name="Trazado 106996" d="M65.457,21.9a1.217,1.217,0,0,1-1.13-.765L63.353,18.7a1.217,1.217,0,1,1,2.259-.9l.973,2.433A1.217,1.217,0,0,1,65.457,21.9Z" fill="#a86545"/>
    <path id="Trazado_106997" data-name="Trazado 106997" d="M8.517,58.4A1.217,1.217,0,0,1,7.3,57.183V51.1a1.217,1.217,0,1,1,2.433,0v6.083A1.217,1.217,0,0,1,8.517,58.4Z" fill="#8ed2ff"/>
    <path id="Trazado_106998" data-name="Trazado 106998" d="M8.517,64.483A1.217,1.217,0,0,1,7.3,63.267V62.05a1.217,1.217,0,0,1,2.433,0v1.217A1.217,1.217,0,0,1,8.517,64.483Z" fill="#8ed2ff"/>
    <path id="Trazado_106999" data-name="Trazado 106999" d="M49.883,26.767h-7.3l-4.458,8.025A12.912,12.912,0,0,0,36.5,41.062a1.521,1.521,0,0,0,1.521,1.521H54.446a1.521,1.521,0,0,0,1.521-1.521,12.912,12.912,0,0,0-1.625-6.271Z" fill="#f1f5ec"/>
    <path id="Trazado_107000" data-name="Trazado 107000" d="M55.936,41.367a1.523,1.523,0,0,1-1.49,1.217H38.021a1.522,1.522,0,0,1-1.49-1.217Z" fill="#bce1ff"/>
    <path id="Trazado_107001" data-name="Trazado 107001" d="M42.583,19.467h7.3A1.217,1.217,0,0,1,51.1,20.683v6.083H41.367V20.683A1.217,1.217,0,0,1,42.583,19.467Z" fill="#fb9e36"/>
    <g id="Grupo_82615" data-name="Grupo 82615">
      <rect id="Rectángulo_31384" data-name="Rectángulo 31384" width="19.467" height="7.3" rx="1.521" transform="translate(36.5 57.183)" fill="#f1f5ec"/>
      <rect id="Rectángulo_31385" data-name="Rectángulo 31385" width="19.467" height="7.3" rx="1.521" transform="translate(36.5 49.883)" fill="#f1f5ec"/>
      <rect id="Rectángulo_31386" data-name="Rectángulo 31386" width="19.467" height="7.3" rx="1.521" transform="translate(36.5 42.583)" fill="#f1f5ec"/>
      <path id="Trazado_107002" data-name="Trazado 107002" d="M52.925,74.217H39.542A3.042,3.042,0,0,1,36.5,71.175V66a1.521,1.521,0,0,1,1.521-1.521H54.446A1.521,1.521,0,0,1,55.967,66v5.171A3.042,3.042,0,0,1,52.925,74.217Z" fill="#f1f5ec"/>
    </g>
    <path id="Trazado_107003" data-name="Trazado 107003" d="M55.936,41.367a1.523,1.523,0,0,1-1.49,1.217H38.021a1.522,1.522,0,0,1-1.49-1.217Z" fill="#8ed2ff"/>
    <path id="Trazado_107004" data-name="Trazado 107004" d="M55.906,48.667a1.523,1.523,0,0,1-1.49,1.217H37.99a1.522,1.522,0,0,1-1.49-1.217Z" fill="#8ed2ff"/>
    <path id="Trazado_107005" data-name="Trazado 107005" d="M55.967,55.967a1.523,1.523,0,0,1-1.49,1.217H38.051a1.522,1.522,0,0,1-1.49-1.217Z" fill="#8ed2ff"/>
    <path id="Trazado_107006" data-name="Trazado 107006" d="M55.967,63.267a1.523,1.523,0,0,1-1.49,1.217H38.051a1.522,1.522,0,0,1-1.49-1.217Z" fill="#8ed2ff"/>
    <path id="Trazado_107007" data-name="Trazado 107007" d="M41.367,25.55H51.1v1.217H41.367Z" fill="#85c4ee"/>
    <path id="Trazado_107008" data-name="Trazado 107008" d="M37.717,74.217h-14.6l-2.433-21.9H40.15Z" fill="#f1f5ec"/>
    <path id="Trazado_107009" data-name="Trazado 107009" d="M20.683,47.45,21.9,42.583H38.933L40.15,47.45Z" fill="#26e690"/>
    <circle id="Elipse_4399" data-name="Elipse 4399" cx="3.65" cy="3.65" r="3.65" transform="translate(26.767 58.4)" fill="#15a564"/>
    <path id="Trazado_107010" data-name="Trazado 107010" d="M19.467,47.45h21.9v4.867h-21.9Z" fill="#15a564"/>
    <path id="Trazado_107011" data-name="Trazado 107011" d="M30.417,66.917A4.867,4.867,0,1,0,25.55,62.05,4.867,4.867,0,0,0,30.417,66.917Zm0-7.3a2.433,2.433,0,1,1-2.433,2.433,2.433,2.433,0,0,1,2.433-2.433Z"/>
    <path id="Trazado_107012" data-name="Trazado 107012" d="M74.795,28.492,68.632,12.059a1.217,1.217,0,0,0,.718-1.109V3.65a1.217,1.217,0,0,0-1.217-1.217H58.4A1.217,1.217,0,0,0,57.183,3.65v7.3a1.217,1.217,0,0,0,.718,1.109L52.287,27.03a1.223,1.223,0,0,0,.029-.263V20.683a2.436,2.436,0,0,0-2.433-2.433h-7.3a2.436,2.436,0,0,0-2.433,2.433v6.083a1.213,1.213,0,0,0,.5.98l-1.714,3.085V23.117A1.217,1.217,0,0,0,37.717,21.9H33.762A4.568,4.568,0,0,0,29.2,26.462V36.5H17.033V26.158A4.263,4.263,0,0,0,12.775,21.9H7a4.568,4.568,0,0,0-4.562,4.562V72.087a3.35,3.35,0,0,0,3.346,3.346H37.717a1.212,1.212,0,0,0,.626-.174,4.263,4.263,0,0,0,1.2.174H52.925a4.232,4.232,0,0,0,2.039-.521,6.33,6.33,0,0,0,2.532.521H68.933a6.387,6.387,0,0,0,6.224-7.824c-.007-.029-.015-.058-.024-.087l-.09-.288a27.773,27.773,0,0,1-.8-13.149l.471-2.6a44.369,44.369,0,0,0,.6-4.737c.074-.157.007-16.909-.173-17.122a10.04,10.04,0,0,0-.348-1.138ZM59.617,4.867h7.3V9.733h-7.3Zm.843,7.3h5.614L72.461,29.2H54.072ZM42.583,20.683h7.3V25.55h-7.3ZM37.983,43.8l.608,2.433H22.242L22.85,43.8Zm2.167,4.867V51.1H20.683V48.667ZM12.167,24.333h.608A1.827,1.827,0,0,1,14.6,26.158V36.5H12.167ZM5.779,73a.913.913,0,0,1-.912-.912V26.462A2.131,2.131,0,0,1,7,24.333H9.733V36.5a2.436,2.436,0,0,0,2.433,2.433H29.2A2.436,2.436,0,0,0,31.633,36.5V26.462a2.131,2.131,0,0,1,2.129-2.129H36.5V41.367H21.9a1.217,1.217,0,0,0-1.18.922l-.986,3.945h-.267A1.217,1.217,0,0,0,18.25,47.45v4.867a1.217,1.217,0,0,0,1.217,1.217h.128L21.757,73Zm30.849,0H24.206L22.043,53.533H38.791ZM54.75,71.175A1.827,1.827,0,0,1,52.925,73H39.542a1.829,1.829,0,0,1-.459-.06l.8-7.24H54.446a.3.3,0,0,1,.3.3Zm0-8.212a.3.3,0,0,1-.3.3H40.157L40.7,58.4H54.446a.3.3,0,0,1,.3.3Zm0-7.3a.3.3,0,0,1-.3.3H40.969l.27-2.433h.128a1.217,1.217,0,0,0,1.217-1.217V51.1H54.446a.3.3,0,0,1,.3.3Zm0-7.3a.3.3,0,0,1-.3.3H42.583V47.45a1.217,1.217,0,0,0-1.217-1.217H41.1L40.492,43.8H54.446a.3.3,0,0,1,.3.3Zm-.3-7H38.933v-5.5c.082-.165.166-.329.255-.488l4.111-7.4h5.868l4.111,7.4a11.723,11.723,0,0,1,1.472,5.68A.3.3,0,0,1,54.446,41.367ZM72.028,71.507A3.933,3.933,0,0,1,68.933,73H57.5a4.025,4.025,0,0,1-.7-.061,4.231,4.231,0,0,0,.384-1.764V66a2.721,2.721,0,0,0-.463-1.521,2.721,2.721,0,0,0,.463-1.521V58.7a2.721,2.721,0,0,0-.463-1.521,2.721,2.721,0,0,0,.463-1.521V51.4a2.721,2.721,0,0,0-.463-1.521,2.721,2.721,0,0,0,.463-1.521V47.45H72.817c-.113,1.208-.276,2.412-.493,3.6l-.472,2.6a30.216,30.216,0,0,0,.867,14.305l.076.242a3.933,3.933,0,0,1-.768,3.309Zm.944-26.491H57.183V44.1a2.721,2.721,0,0,0-.463-1.521,2.721,2.721,0,0,0,.463-1.521A14.163,14.163,0,0,0,55.405,34.2l-1.427-2.568h19.01C73,31.761,72.989,44.533,72.972,45.017Z"/>
    <path id="Trazado_107013" data-name="Trazado 107013" d="M8.517,49.883A1.217,1.217,0,0,0,7.3,51.1v6.083a1.217,1.217,0,1,0,2.433,0V51.1A1.217,1.217,0,0,0,8.517,49.883Z"/>
    <path id="Trazado_107014" data-name="Trazado 107014" d="M8.517,60.833A1.217,1.217,0,0,0,7.3,62.05v1.217a1.217,1.217,0,0,0,2.433,0V62.05A1.217,1.217,0,0,0,8.517,60.833Z"/>
    <path id="Trazado_107015" data-name="Trazado 107015" d="M69.8,51.187a1.217,1.217,0,0,0-1.582.678A19.126,19.126,0,0,0,67.834,65l.362,1.084a1.217,1.217,0,1,0,2.308-.77l-.361-1.084a16.69,16.69,0,0,1,.337-11.463,1.217,1.217,0,0,0-.678-1.582Z"/>
    <path id="Trazado_107016" data-name="Trazado 107016" d="M68.533,25.1l-.487-1.217a1.217,1.217,0,1,0-2.259.9L66.274,26a1.217,1.217,0,1,0,2.259-.9Z"/>
    <path id="Trazado_107017" data-name="Trazado 107017" d="M66.586,20.231,65.613,17.8a1.217,1.217,0,0,0-2.259.9l.973,2.433a1.217,1.217,0,1,0,2.259-.9Z"/>
  </g>
</svg>
