<svg xmlns="http://www.w3.org/2000/svg" xmlns:xlink="http://www.w3.org/1999/xlink" width="73" height="73" viewBox="0 0 73 73">
  <defs>
    <clipPath id="clip-path">
      <rect id="Rectángulo_31343" data-name="Rectángulo 31343" width="73" height="73" transform="translate(764 1345.492)" fill="#da269c" stroke="#707070" stroke-width="1"/>
    </clipPath>
  </defs>
  <g id="Enmascarar_grupo_50" data-name="Enmascarar grupo 50" transform="translate(-764 -1345.492)" clip-path="url(#clip-path)">
    <g id="gas" transform="translate(764 1345.492)">
      <g id="Grupo_82631" data-name="Grupo 82631">
        <g id="Grupo_82630" data-name="Grupo 82630">
          <path id="Trazado_107114" data-name="Trazado 107114" d="M25.523,71.931H22.078A2.382,2.382,0,0,1,19.7,69.549V64.795h5.827Z" fill="#f8c52d"/>
          <path id="Trazado_107115" data-name="Trazado 107115" d="M50.922,71.931H47.477V64.795H53.3v4.754a2.382,2.382,0,0,1-2.382,2.382Z" fill="#f8c52d"/>
          <g id="Grupo_82625" data-name="Grupo 82625">
            <path id="Trazado_107116" data-name="Trazado 107116" d="M26.719,2.638H46.281V18.19H26.719Z" fill="#fb9e36"/>
            <path id="Trazado_107118" data-name="Trazado 107118" d="M38.678,14.559H34.322V9.028A1.588,1.588,0,0,1,35.909,7.44H37.09a1.588,1.588,0,0,1,1.588,1.588Z" fill="#5a5a5a"/>
            <path id="Trazado_107119" data-name="Trazado 107119" d="M26.551,1.069h.322a1.039,1.039,0,0,1,1.039,1.039V18.19H20.794V6.827a5.757,5.757,0,0,1,5.757-5.757Z" fill="#f1d54e"/>
            <path id="Trazado_107121" data-name="Trazado 107121" d="M52.206,6.829V18.19H45.087V2.109a1.039,1.039,0,0,1,1.039-1.039h.32a5.76,5.76,0,0,1,5.76,5.76Z" fill="#f1d54e"/>
          </g>
          <g id="Grupo_82626" data-name="Grupo 82626">
            <path id="Trazado_107123" data-name="Trazado 107123" d="M50.491,67.037H22.509a5.725,5.725,0,0,1-5.725-5.725V20.285a5.725,5.725,0,0,1,5.725-5.725H50.491a5.725,5.725,0,0,1,5.725,5.725V61.311A5.725,5.725,0,0,1,50.491,67.037Z" fill="#f1d54e"/>
            <path id="Trazado_107125" data-name="Trazado 107125" d="M16.783,55.779H56.217v4.4H16.783Z" fill="#f1d54e"/>
            <path id="Trazado_107126" data-name="Trazado 107126" d="M51.613,55.779h4.6v4.4h-4.6Z" fill="#f1d54e"/>
          </g>
          <g id="Grupo_82629" data-name="Grupo 82629">
            <g id="Grupo_82627" data-name="Grupo 82627">
              <path id="Trazado_107127" data-name="Trazado 107127" d="M41.988,22.949,39.35,27.517a5.745,5.745,0,0,0-5.7,0l-2.637-4.568a10.989,10.989,0,0,1,10.977,0Z" fill="#fb9e36"/>
              <path id="Trazado_107128" data-name="Trazado 107128" d="M33.617,37.451l-2.606,4.513a10.971,10.971,0,0,1-5.488-9.507h5.243v.037A5.731,5.731,0,0,0,33.617,37.451Z" fill="#fb9e36"/>
              <path id="Trazado_107129" data-name="Trazado 107129" d="M47.477,32.457a10.969,10.969,0,0,1-5.489,9.507l-2.606-4.513a5.733,5.733,0,0,0,2.852-4.957v-.037Z" fill="#fb9e36"/>
            </g>
            <g id="Grupo_82628" data-name="Grupo 82628">
              <circle id="Elipse_4401" data-name="Elipse 4401" cx="2.292" cy="2.292" r="2.292" transform="translate(34.207 30.201)" fill="#fb9e36"/>
            </g>
          </g>
        </g>
      </g>
      <g id="Grupo_82632" data-name="Grupo 82632">
        <path id="Trazado_107130" data-name="Trazado 107130" d="M56.217,35.094a1.069,1.069,0,0,0,1.069-1.069V20.285a6.8,6.8,0,0,0-4.01-6.2V6.829A6.837,6.837,0,0,0,46.447,0h-.32a2.111,2.111,0,0,0-2.036,1.568H28.909A2.111,2.111,0,0,0,26.873,0h-.322a6.835,6.835,0,0,0-6.827,6.827v7.262a6.8,6.8,0,0,0-4.01,6.2V61.311a6.79,6.79,0,0,0,2.913,5.572v2.665A3.455,3.455,0,0,0,22.078,73H50.922a3.455,3.455,0,0,0,3.451-3.451V66.883a6.791,6.791,0,0,0,2.913-5.572V39.2a1.069,1.069,0,0,0-2.139,0V50.308H17.853V20.285a4.661,4.661,0,0,1,4.656-4.656H50.491a4.661,4.661,0,0,1,4.656,4.656v13.74a1.069,1.069,0,0,0,1.069,1.069ZM55.147,59.112H17.853V56.849H55.147ZM20.766,69.549v-1.67a6.778,6.778,0,0,0,1.743.228h1.945v2.755H22.079a1.314,1.314,0,0,1-1.313-1.312Zm31.468,0a1.314,1.314,0,0,1-1.313,1.312H48.546V68.106h1.945a6.786,6.786,0,0,0,1.743-.228v1.67Zm-1.743-3.581H34.351a1.069,1.069,0,0,0,0,2.139H46.407v2.755H26.593V68.106h2.584a1.069,1.069,0,1,0,0-2.139H22.509a4.661,4.661,0,0,1-4.656-4.656v-.06H55.147v.06A4.661,4.661,0,0,1,50.491,65.967Zm4.656-13.521V54.71H17.853V52.446ZM21.863,13.521V6.827a4.693,4.693,0,0,1,4.688-4.688h.292V6.6a1.069,1.069,0,1,0,2.139,0v-2.9H44.018V13.49h-4.27V10.914h.9a1.069,1.069,0,1,0,0-2.139h-.91a2.66,2.66,0,0,0-2.644-2.4H35.91a2.66,2.66,0,0,0-2.657,2.657V13.49h-4.27V11.778a1.069,1.069,0,0,0-2.139,0V13.49H22.509C22.291,13.49,22.076,13.5,21.863,13.521Zm15.746-.032H35.391V9.028a.519.519,0,0,1,.519-.519H37.09a.519.519,0,0,1,.519.519Zm8.548,0V2.139h.29a4.7,4.7,0,0,1,4.69,4.69v6.692c-.213-.02-.428-.032-.646-.032Z"/>
        <path id="Trazado_107131" data-name="Trazado 107131" d="M33.649,28.587a1.065,1.065,0,0,0,.531-.142,4.675,4.675,0,0,1,4.638,0,1.07,1.07,0,0,0,1.458-.393l2.637-4.568a1.069,1.069,0,0,0-.391-1.46,12.058,12.058,0,0,0-12.047,0,1.069,1.069,0,0,0-.391,1.46l2.637,4.568a1.069,1.069,0,0,0,.927.535ZM36.5,22.55a9.923,9.923,0,0,1,4,.841l-1.583,2.742a6.9,6.9,0,0,0-4.831,0L32.5,23.39A9.93,9.93,0,0,1,36.5,22.55Z"/>
        <path id="Trazado_107132" data-name="Trazado 107132" d="M31.011,43.033a1.07,1.07,0,0,0,.926-.535l2.606-4.513a1.069,1.069,0,0,0-.388-1.459,4.685,4.685,0,0,1-2.319-4.034v-.036a1.069,1.069,0,0,0-1.069-1.069H25.523a1.069,1.069,0,0,0-1.069,1.069,12.089,12.089,0,0,0,6.022,10.432,1.067,1.067,0,0,0,.536.144Zm-4.36-9.506h3.126A6.847,6.847,0,0,0,32.2,37.765l-1.551,2.686a9.957,9.957,0,0,1-4-6.925Z"/>
        <path id="Trazado_107133" data-name="Trazado 107133" d="M41.062,42.5a1.069,1.069,0,0,0,1.461.391,12.087,12.087,0,0,0,6.023-10.432,1.069,1.069,0,0,0-1.069-1.069H42.234a1.069,1.069,0,0,0-1.069,1.069v.036a4.686,4.686,0,0,1-2.321,4.034,1.069,1.069,0,0,0-.388,1.459Zm2.162-8.972h3.126a9.957,9.957,0,0,1-4,6.925L40.8,37.765a6.847,6.847,0,0,0,2.425-4.239Z"/>
        <path id="Trazado_107134" data-name="Trazado 107134" d="M39.861,32.494A3.362,3.362,0,1,0,36.5,35.855,3.366,3.366,0,0,0,39.861,32.494Zm-4.585,0A1.223,1.223,0,1,1,36.5,33.717,1.224,1.224,0,0,1,35.276,32.494Z"/>
        <path id="Trazado_107135" data-name="Trazado 107135" d="M21.784,44.666h2.343a1.069,1.069,0,1,0,0-2.139H21.784a1.069,1.069,0,0,0,0,2.139Z"/>
        <path id="Trazado_107136" data-name="Trazado 107136" d="M21.784,47.9h5.925a1.069,1.069,0,1,0,0-2.139H21.784a1.069,1.069,0,0,0,0,2.139Z"/>
      </g>
    </g>
  </g>
</svg>
