<svg xmlns="http://www.w3.org/2000/svg" width="610" height="151.581" viewBox="0 0 610 151.581">
  <g id="grass" transform="translate(-495 -452.441)">
    <path id="Path_106700" data-name="Path 106700" d="M168.014,413.142Q85.375,407.4,85.244,400.2q-.095-5.336,45.235-11.483l-63.929-40.5,56.656,20.71-19.1-24.6q18.718,9.511,37.431,19.03-45.866-47.608-41.07-53.426,7.275-8.822,131.158,78.527Q199.819,400.8,168.014,413.142Z" transform="translate(428.449 170.211)" fill="#bf7726"/>
    <path id="Path_106810" data-name="Path 106810" d="M225.746,411.9q66.1-33.5,63.7-39.48-1.783-4.438-41.273,6.282,19.292-27.816,38.58-55.628L247.28,359.86l7.178-26.92q-12.112,14.361-24.228,28.712,21.231-55.193,15.253-58.316-9.065-4.742-80.748,110.355Q195.24,412.793,225.746,411.9Z" transform="translate(772.415 149.293)" fill="#bf7726"/>
    <path id="Path_106811" data-name="Path 106811" d="M601.884,399.531,562.4,412.316l16.8,15.934H86.853l21.533-10.767-16.15-5.168,19.757-12.786L90.46,382.493h10.767L76.086,349.3l85.246,13.458L155.061,349.3l34.077,11.655,42.179-21.533V352l85.838-8.99L305.8,360.96l73.564-10.767-8.963-16.15,47.536,24.225L402.7,334.043l39.46,24.225V337.623L453.84,352l35.881-41.29-8.075,35.906,67.293-26.97-56.526,48.5,78.948-26.029-7.16,13h43.067L592,365.455l51.142,11.655-54.722,14.347Z" transform="translate(461.853 175.77)" fill="#e38e2f"/>
    <path id="Path_106812" data-name="Path 106812" d="M487.439,376.679H86.4c7.187-7.43,20.292-15.423,34.049-18.274,18.063-3.742,33.914,2.071,42.394,6.052q-12.8-7.383-25.57-14.8c59.083,9.448,75.93,9.258,76.713,6.057.914-3.742-20.4-11.01-19.517-14.131,1.076-3.85,34.968,2.18,72.678,10.092q-9.41-8.761-18.842-17.495,24.223,10.416,48.451,20.859c-.216-4.71-.459-9.421-.676-14.131,12.6,8.106,30.014,16.473,43.74,10.1,8.372-3.877,9.664-10.6,16.824-15.477,9.016-6.165,26.164-8.534,61.907,10.092-1.558-6.728-3.148-13.455-4.71-20.188,32.869,29.338,50.473,32.22,60.565,27.591,9.718-4.44,15.613-17.2,17.5-16.149,1.7.941-2.5,11.735-6.728,21.534q34.079-19.947,36.337-16.824Q524.021,345.013,487.439,376.679Z" transform="translate(497.997 227.344)" fill="#bf7726"/>
  </g>
</svg>
