<svg xmlns="http://www.w3.org/2000/svg" width="82.267" height="75.002" viewBox="0 0 82.267 75.002">
  <g id="olor" transform="translate(0.001 -22.604)">
    <path id="Trazado_105293" data-name="Trazado 105293" d="M86.154,351.129c-3.369-3.369-5.4,1.541-10.168,1.541s-4.765-1.806-9.529-1.806-4.764,1.806-9.528,1.806-4.764-1.806-9.528-1.806-4.764,1.806-9.528,1.806-4.764-1.806-9.528-1.806-4.764,1.806-9.528,1.806-6.8-4.91-10.166-1.541,1.541,5.4,1.541,10.168-1.806,4.765-1.806,9.529v0a.314.314,0,0,0,.315.313H86.1a.314.314,0,0,0,.315-.313v-.006c0-4.764-1.806-4.764-1.806-9.528S89.523,354.5,86.154,351.129Z" transform="translate(-6.27 -274.741)" fill="#52ffb1"/>
    <path id="Trazado_105299" data-name="Trazado 105299" d="M23.149,0A23.149,23.149,0,1,1,0,23.149,23.149,23.149,0,0,1,23.149,0Z" transform="translate(17.983 23.809)" fill="#f1d54e"/>
    <g id="Grupo_54730" data-name="Grupo 54730" transform="translate(-0.001 22.604)">
      <path id="Trazado_105296" data-name="Trazado 105296" d="M137.816,355.025a8.439,8.439,0,0,1,1.448-4.235c1.048-1.859,2.353-4.172-.259-6.784s-4.926-1.308-6.785-.259a8.441,8.441,0,0,1-4.235,1.448,13.827,13.827,0,0,1-1.408-.067,1.205,1.205,0,0,0-.245,2.4,16.15,16.15,0,0,0,1.652.079,10.661,10.661,0,0,0,5.419-1.758c1.958-1.1,2.638-1.394,3.9-.136s.969,1.937-.136,3.9a10.66,10.66,0,0,0-1.759,5.419,12.815,12.815,0,0,0,.981,5.191,10.144,10.144,0,0,1,.8,3.45H119.91a13.953,13.953,0,0,1,.524-1.59,12.9,12.9,0,0,0,.978-5.2,1.205,1.205,0,1,0-2.41,0,10.436,10.436,0,0,1-.823,4.351,14.219,14.219,0,0,0-.738,2.441H100a13.961,13.961,0,0,1,.524-1.59,12.9,12.9,0,0,0,.978-5.2,1.205,1.205,0,0,0-2.41,0,10.436,10.436,0,0,1-.823,4.351,14.218,14.218,0,0,0-.738,2.441H80.1a13.93,13.93,0,0,1,.524-1.59,12.9,12.9,0,0,0,.978-5.2,1.205,1.205,0,0,0-2.41,0,10.437,10.437,0,0,1-.823,4.351,14.211,14.211,0,0,0-.738,2.44h-7a1.205,1.205,0,1,0,0,2.41H138.1a1.522,1.522,0,0,0,1.52-1.524,12.814,12.814,0,0,0-.981-5.191,10.353,10.353,0,0,1-.825-4.338Z" transform="translate(-58.267 -291.075)"/>
      <path id="Trazado_105297" data-name="Trazado 105297" d="M7.541,363.666h-4.2a10.145,10.145,0,0,1,.8-3.448,12.818,12.818,0,0,0,.981-5.192,10.662,10.662,0,0,0-1.758-5.419c-1.1-1.958-1.394-2.638-.136-3.9s1.937-.968,3.9.136a10.659,10.659,0,0,0,5.419,1.758,12.819,12.819,0,0,0,5.191-.981,10.352,10.352,0,0,1,4.337-.825,10.35,10.35,0,0,1,4.337.825,12.816,12.816,0,0,0,5.191.981,12.817,12.817,0,0,0,5.191-.981,10.351,10.351,0,0,1,4.337-.825,10.351,10.351,0,0,1,4.337.825,12.818,12.818,0,0,0,5.191.981,12.817,12.817,0,0,0,5.191-.981,10.351,10.351,0,0,1,4.337-.825,10.958,10.958,0,0,1,2.871.329,1.205,1.205,0,1,0,.62-2.329,13.293,13.293,0,0,0-3.491-.41A12.814,12.814,0,0,0,55,344.37a10.351,10.351,0,0,1-4.337.825,10.351,10.351,0,0,1-4.337-.825,12.818,12.818,0,0,0-5.191-.981,12.814,12.814,0,0,0-5.191.981,10.351,10.351,0,0,1-4.337.825,10.349,10.349,0,0,1-4.337-.825,12.816,12.816,0,0,0-5.191-.981,12.818,12.818,0,0,0-5.191.981,10.351,10.351,0,0,1-4.337.825,8.439,8.439,0,0,1-4.235-1.448c-1.858-1.049-4.172-2.354-6.784.259s-1.308,4.926-.259,6.785a8.44,8.44,0,0,1,1.448,4.235,10.353,10.353,0,0,1-.825,4.337,12.823,12.823,0,0,0-.981,5.2,1.521,1.521,0,0,0,1.52,1.518h5.11a1.205,1.205,0,1,0,0-2.41Z" transform="translate(0.001 -291.075)"/>
      <path id="Trazado_105298" data-name="Trazado 105298" d="M99.872,62.958a1.2,1.2,0,0,0,.63-.179l3.357-2.063A24.347,24.347,0,0,0,145.3,35.253l3.353-2.061a1.205,1.205,0,1,0-1.262-2.054L144.031,33.2a24.343,24.343,0,0,0-39.354-1.138,1.205,1.205,0,0,0,1.906,1.475,21.933,21.933,0,0,1,35.392.925l-7.857,4.828a5.66,5.66,0,0,1,.6-1.651,7.607,7.607,0,0,0,.926-3.812,1.205,1.205,0,0,0-2.41,0,5.271,5.271,0,0,1-.681,2.752,7.607,7.607,0,0,0-.926,3.812c0,.148,0,.289.009.426l-6.024,3.7a9.753,9.753,0,0,0-.581-1.376,5.9,5.9,0,0,1,0-5.5,7.607,7.607,0,0,0,.926-3.812,1.205,1.205,0,0,0-2.41,0,5.271,5.271,0,0,1-.681,2.752,8.307,8.307,0,0,0,0,7.624,5.68,5.68,0,0,1,.594,1.639L115.3,50.858l.043-.088a8.308,8.308,0,0,0,0-7.624,5.9,5.9,0,0,1,0-5.5,7.607,7.607,0,0,0,.926-3.812,1.205,1.205,0,0,0-2.41,0,5.271,5.271,0,0,1-.681,2.752,8.307,8.307,0,0,0,0,7.624,5.9,5.9,0,0,1,0,5.5,7.564,7.564,0,0,0-.893,3L104.649,57.4a21.951,21.951,0,0,1-.528-19.864,1.205,1.205,0,1,0-2.176-1.036,24.353,24.353,0,0,0,.649,22.163l-3.353,2.061a1.206,1.206,0,0,0,.631,2.233Zm12.578-7.521a8.375,8.375,0,0,0,.725,1.9,5.272,5.272,0,0,1,.681,2.753,1.205,1.205,0,0,0,2.41,0,7.609,7.609,0,0,0-.926-3.812,5.245,5.245,0,0,1-.662-2.207l8.59-5.279a8.475,8.475,0,0,1-.407.921,8.309,8.309,0,0,0,0,7.625,5.272,5.272,0,0,1,.681,2.753,1.205,1.205,0,0,0,2.41,0,7.609,7.609,0,0,0-.926-3.812,5.905,5.905,0,0,1,0-5.5,7.582,7.582,0,0,0,.923-3.629l6.2-3.809c.128.318.267.6.4.874a5.9,5.9,0,0,1,0,5.5,8.309,8.309,0,0,0,0,7.625,5.273,5.273,0,0,1,.681,2.753,1.205,1.205,0,0,0,2.41,0,7.609,7.609,0,0,0-.926-3.812,5.905,5.905,0,0,1,0-5.5,8.308,8.308,0,0,0,0-7.624,7.287,7.287,0,0,1-.466-1.1l8.993-5.526a21.938,21.938,0,0,1-37.326,22.937Z" transform="translate(-82.811 -22.604)"/>
    </g>
  </g>
</svg>
