<svg xmlns="http://www.w3.org/2000/svg" width="73" height="65.073" viewBox="0 0 73 65.073">
  <g id="tablero-de-madera" transform="translate(0 -0.003)">
    <path id="Trazado_107051" data-name="Trazado 107051" d="M1.143,1.147H71.856V28.81H1.143Zm0,0" fill="#fb9e36"/>
    <path id="Trazado_107053" data-name="Trazado 107053" d="M12.538,2.219a34.867,34.867,0,0,1,7.093,3.754c2.96,1.905,5.592,3.6,9.765,3.6a18.648,18.648,0,0,0,3.2-.3A37.713,37.713,0,0,0,43.623,5.194c3.07-1.558,5.726-2.9,8.752-2.9V1.147H46.9c-1.445.564-2.86,1.273-4.311,2.008A35.4,35.4,0,0,1,32.2,7.026c-5.282.922-7.817-.713-11.329-2.974a44.778,44.778,0,0,0-5.02-2.9H12.934Zm0,0" fill="#ea8c46"/>
    <path id="Trazado_107054" data-name="Trazado 107054" d="M23.175,2a20.107,20.107,0,0,0,7.3,3.891l.594-2.208a18.828,18.828,0,0,1-5.3-2.537H23.935Zm0,0" fill="#ea8c46"/>
    <path id="Trazado_107055" data-name="Trazado 107055" d="M36.819,24.843c-6.6-1.916-24.518-3.827-35.676,2.641v1.324H3.5c10.811-5.407,27.505-3.272,32.68-1.771,6.745,1.96,22.55,2.781,31.961-.385l-.728-2.166C58.553,27.468,43.131,26.675,36.819,24.843Zm0,0" fill="#ea8c46"/>
    <path id="Trazado_107057" data-name="Trazado 107057" d="M16.822,16.9l.1-2.286C12.2,14.4,6.215,13.683,1.886,9.983L1.143,9.2v3.113C5.907,15.949,11.984,16.681,16.822,16.9Zm0,0" fill="#ea8c46"/>
    <path id="Trazado_107058" data-name="Trazado 107058" d="M46.55,11.85l.512,2.228c5.067-1.162,12.371-2.362,17.3.63l1.186-1.953C59.909,9.33,52.007,10.6,46.55,11.85Zm0,0" fill="#ea8c46"/>
    <path id="Trazado_107059" data-name="Trazado 107059" d="M71.564,15.665c-10.124,2.683-36.572.115-36.839.089L34.5,18.028c.714.071,11.859,1.153,22.49,1.153,5.652,0,11.153-.309,14.866-1.236V16.77Zm0,0" fill="#ea8c46"/>
    <path id="Trazado_107060" data-name="Trazado 107060" d="M71.857,21.446l-.2-1.126c-.149.027-15.171,2.542-29.126.216-15.172-2.529-27.412-3.315-41.394.541V23.51l.307-.15c13.765-3.853,25.352-3.128,40.71-.568a83,83,0,0,0,13.508,1.031,107.518,107.518,0,0,0,16.188-1.216Zm0,0" fill="#ea8c46"/>
    <path id="Trazado_107061" data-name="Trazado 107061" d="M1.143,36.271H71.856V63.933H1.143Zm0,0" fill="#f1d54e"/>
    <path id="Trazado_107072" data-name="Trazado 107072" d="M1.143,29.952H71.857A1.143,1.143,0,0,0,73,28.809V1.146A1.143,1.143,0,0,0,71.857,0H68.232V2.289h2.482V8.65A25.494,25.494,0,0,1,66.6,7.339c-2.892-1.088-6.488-2.445-10.68-2.254-3.535.159-7.512,1.835-11.728,3.609-5.422,2.286-11.019,4.651-16.65,4.388a19.287,19.287,0,0,1-3.175-.42L23.883,14.9a21.484,21.484,0,0,0,3.552.469q.469.021.938.021c5.813,0,11.584-2.429,16.7-4.586C49.1,9.108,52.9,7.508,56.022,7.368c3.723-.163,6.935,1.045,9.772,2.109a24.3,24.3,0,0,0,4.923,1.479v4.91c-10.672,2.343-35.729-.089-35.99-.115L34.5,18.027c.714.071,11.859,1.153,22.49,1.153a75.627,75.627,0,0,0,13.723-.98v2.261c-3.51.506-16.23,2.062-28.176.071-14.755-2.459-26.742-3.262-40.251.242V13.124C6.853,16.064,12.365,16.7,16.823,16.9l.1-2.286c-4.585-.2-10.344-.893-14.638-4.311V6.722C6.23,6.843,9.8,8.7,13.559,10.669a62.838,62.838,0,0,0,6.309,3l.829-2.131a61.211,61.211,0,0,1-6.079-2.9C10.765,6.629,6.795,4.56,2.287,4.436V2.289H12.717a35.339,35.339,0,0,1,6.915,3.683c2.96,1.905,5.592,3.6,9.765,3.6a18.648,18.648,0,0,0,3.2-.3A37.713,37.713,0,0,0,43.623,5.193c3.07-1.558,5.726-2.9,8.752-2.9h7.106V0H1.143A1.143,1.143,0,0,0,0,1.146V28.809A1.143,1.143,0,0,0,1.143,29.952Zm41.445-26.8A35.4,35.4,0,0,1,32.2,7.025c-5.282.922-7.817-.713-11.329-2.974-.882-.568-1.82-1.167-2.854-1.764h5.5a20.44,20.44,0,0,0,6.955,3.6l.594-2.208a19.159,19.159,0,0,1-3.419-1.394H44.324C43.751,2.57,43.171,2.859,42.589,3.154ZM6.149,27.666c10.713-3.934,25.264-2.011,30.033-.626.778.226,1.681.436,2.678.626Zm36.012-4.875a83,83,0,0,0,13.508,1.031,110.314,110.314,0,0,0,15.045-1.045v4.887h-6.4a32.525,32.525,0,0,0,3.829-1.012l-.728-2.166c-8.861,2.98-24.283,2.189-30.595.356-6.376-1.851-23.33-3.7-34.533,2.019V23.138C15.685,19.546,27.116,20.284,42.161,22.791ZM63.3,0h2.877V2.289H63.3ZM47.062,14.078,46.55,11.85c5.457-1.252,13.359-2.519,19,.9l-1.186,1.953C59.433,11.716,52.129,12.916,47.062,14.078Zm-45.919,51H71.857A1.143,1.143,0,0,0,73,63.933V36.271a1.143,1.143,0,0,0-1.143-1.143H16.873v2.286H48.6a17.062,17.062,0,0,0,10.752,3.5,18.093,18.093,0,0,0,11-3.5h.369v3.4c-6.416,1.829-16.535.734-27.238-.431-13.368-1.456-28.447-3.085-41.192.152V37.414H6.573V35.128H1.143A1.143,1.143,0,0,0,0,36.271V63.933A1.143,1.143,0,0,0,1.143,65.076ZM53.011,37.414H65.775A17.529,17.529,0,0,1,53.011,37.414ZM2.286,62.79V60.582A19.124,19.124,0,0,0,6.219,62.79Zm68.428-5.278c-8.828-.191-19.25,4.465-21,5.278H33.267c2.432-.61,4.942-1.294,7.5-1.991,9.655-2.632,20.548-5.59,29.948-5.16Zm-14.9,5.278c4.089-1.466,9.858-3.112,14.9-2.992V62.79ZM43.228,42.649a182.614,182.614,0,0,0,18.653,1.437,36.512,36.512,0,0,0,8.83-.908v1.107a56.625,56.625,0,0,1-6.092.25l-.031,2.286c.042,0,.283,0,.659,0,1.149,0,3.559-.029,5.463-.239v1.654a58.284,58.284,0,0,0-12.933-.908l.065,2.286a54.969,54.969,0,0,1,12.868.96v2.773c-9.741-.424-20.766,2.575-30.549,5.241-7.917,2.155-15.4,4.2-21.137,4.2-11.039,0-15.714-4.156-16.741-5.234V52.933a34.916,34.916,0,0,0,10.963,1.495c6.68,0,14.269-1.14,22.112-2.317,6.584-.989,13.39-2.011,19.885-2.381l-.131-2.282c-6.6.374-13.455,1.405-20.094,2.4-12.684,1.9-24.673,3.692-32.733.646V47.212c2.3.135,4.813.2,7.487.2,5.268,0,11.095-.208,16.8-.411,5.675-.2,11.544-.411,16.736-.411V44.3c-5.234,0-11.122.209-16.818.413-8.6.306-17.475.622-24.206.217V42.89C14.74,39.558,29.855,41.192,43.228,42.649ZM9.008,37.414V35.128h5.565v2.286ZM29.837,55.949l.56,2.217A53.705,53.705,0,0,1,17.381,60.1a26.012,26.012,0,0,1-9.834-1.784l.858-2.12C15.341,59,23.133,57.644,29.837,55.949Zm17.528-3.8.312,2.265a115.2,115.2,0,0,0-12.914,2.664l-.6-2.2a117.807,117.807,0,0,1,13.209-2.727Zm0,0" fill="#0c282d"/>
  </g>
</svg>
