<svg id="caja" xmlns="http://www.w3.org/2000/svg" width="75" height="62.5" viewBox="0 0 75 62.5">
  <g id="Grupo_54956" data-name="Grupo 54956" transform="translate(3.75 15)">
    <path id="Trazado_105731" data-name="Trazado 105731" d="M25.6,248.918H38.1v12.075H25.6Zm0,0" transform="translate(-25.602 -227.455)" fill="#fb9e36"/>
    <path id="Trazado_105732" data-name="Trazado 105732" d="M25.6,102.4H38.1v10H25.6Zm0,0" transform="translate(-25.602 -102.398)" fill="#fb9e36"/>
    <path id="Trazado_105733" data-name="Trazado 105733" d="M401.066,248.918h12.5v12.075h-12.5Zm0,0" transform="translate(-346.067 -227.455)" fill="#fb9e36"/>
    <path id="Trazado_105734" data-name="Trazado 105734" d="M401.066,102.4h12.5v10h-12.5Zm0,0" transform="translate(-346.067 -102.398)" fill="#fb9e36"/>
  </g>
  <path id="Trazado_105739" data-name="Trazado 105739" d="M11.035,315.734h67.5a2.5,2.5,0,0,1,2.5,2.5v10a2.5,2.5,0,0,1-2.5,2.5h-67.5a2.5,2.5,0,0,1-2.5-2.5v-10A2.5,2.5,0,0,1,11.035,315.734Zm0,0" transform="translate(-7.285 -269.484)" fill="#f1d54e"/>
  <path id="Trazado_105740" data-name="Trazado 105740" d="M81.035,11.035v10a2.507,2.507,0,0,1-2.5,2.5H57.91a3.126,3.126,0,0,1-3.125-3.125,3.115,3.115,0,0,0-3.125-3.125H37.91a3.126,3.126,0,0,0-3.125,3.125,3.116,3.116,0,0,1-3.125,3.125H11.035a2.507,2.507,0,0,1-2.5-2.5v-10a2.507,2.507,0,0,1,2.5-2.5h67.5A2.507,2.507,0,0,1,81.035,11.035Zm0,0" transform="translate(-7.285 -7.285)" fill="#f1d54e"/>
  <path id="Trazado_105741" data-name="Trazado 105741" d="M11.035,162.133h67.5a2.5,2.5,0,0,1,2.5,2.5v10a2.5,2.5,0,0,1-2.5,2.5h-67.5a2.5,2.5,0,0,1-2.5-2.5v-10A2.5,2.5,0,0,1,11.035,162.133Zm0,0" transform="translate(-7.285 -138.383)" fill="#f1d54e"/>
  <path id="Trazado_105745" data-name="Trazado 105745" d="M71.25,324.7H3.75A3.754,3.754,0,0,1,0,320.949v-10a3.754,3.754,0,0,1,3.75-3.75h67.5a3.754,3.754,0,0,1,3.75,3.75v10A3.754,3.754,0,0,1,71.25,324.7Zm-67.5-15a1.252,1.252,0,0,0-1.25,1.25v10a1.252,1.252,0,0,0,1.25,1.25h67.5a1.252,1.252,0,0,0,1.25-1.25v-10a1.252,1.252,0,0,0-1.25-1.25Zm0,0" transform="translate(0 -262.199)"/>
  <path id="Trazado_105746" data-name="Trazado 105746" d="M36.633,342.582a1.25,1.25,0,1,1-1.25-1.25A1.25,1.25,0,0,1,36.633,342.582Zm0,0" transform="translate(-29.133 -291.332)"/>
  <path id="Trazado_105747" data-name="Trazado 105747" d="M36.633,376.715a1.25,1.25,0,1,1-1.25-1.25A1.25,1.25,0,0,1,36.633,376.715Zm0,0" transform="translate(-29.133 -320.465)"/>
  <path id="Trazado_105748" data-name="Trazado 105748" d="M463.3,342.582a1.25,1.25,0,1,1-1.25-1.25A1.25,1.25,0,0,1,463.3,342.582Zm0,0" transform="translate(-393.301 -291.332)"/>
  <path id="Trazado_105749" data-name="Trazado 105749" d="M463.3,376.715a1.25,1.25,0,1,1-1.25-1.25A1.25,1.25,0,0,1,463.3,376.715Zm0,0" transform="translate(-393.301 -320.465)"/>
  <path id="Trazado_105750" data-name="Trazado 105750" d="M71.25,17.5H50.625a4.38,4.38,0,0,1-4.375-4.375,1.877,1.877,0,0,0-1.875-1.875H30.625a1.877,1.877,0,0,0-1.875,1.875A4.38,4.38,0,0,1,24.375,17.5H3.75A3.754,3.754,0,0,1,0,13.75v-10A3.754,3.754,0,0,1,3.75,0h67.5A3.754,3.754,0,0,1,75,3.75v10A3.754,3.754,0,0,1,71.25,17.5ZM30.625,8.75h13.75a4.38,4.38,0,0,1,4.375,4.375A1.877,1.877,0,0,0,50.625,15H71.25a1.251,1.251,0,0,0,1.25-1.25v-10A1.252,1.252,0,0,0,71.25,2.5H3.75A1.252,1.252,0,0,0,2.5,3.75v10A1.251,1.251,0,0,0,3.75,15H24.375a1.877,1.877,0,0,0,1.875-1.875A4.38,4.38,0,0,1,30.625,8.75Zm0,0"/>
  <path id="Trazado_105751" data-name="Trazado 105751" d="M36.633,35.383a1.25,1.25,0,1,1-1.25-1.25A1.25,1.25,0,0,1,36.633,35.383Zm0,0" transform="translate(-29.133 -29.133)"/>
  <path id="Trazado_105752" data-name="Trazado 105752" d="M36.633,69.516a1.25,1.25,0,1,1-1.25-1.25A1.25,1.25,0,0,1,36.633,69.516Zm0,0" transform="translate(-29.133 -58.266)"/>
  <path id="Trazado_105753" data-name="Trazado 105753" d="M463.3,35.383a1.25,1.25,0,1,1-1.25-1.25A1.25,1.25,0,0,1,463.3,35.383Zm0,0" transform="translate(-393.301 -29.133)"/>
  <path id="Trazado_105754" data-name="Trazado 105754" d="M463.3,69.516a1.25,1.25,0,1,1-1.25-1.25A1.25,1.25,0,0,1,463.3,69.516Zm0,0" transform="translate(-393.301 -58.266)"/>
  <path id="Trazado_105755" data-name="Trazado 105755" d="M71.25,171.1H3.75A3.754,3.754,0,0,1,0,167.351v-10a3.754,3.754,0,0,1,3.75-3.75h67.5a3.754,3.754,0,0,1,3.75,3.75v10A3.754,3.754,0,0,1,71.25,171.1Zm-67.5-15a1.251,1.251,0,0,0-1.25,1.25v10a1.251,1.251,0,0,0,1.25,1.25h67.5a1.251,1.251,0,0,0,1.25-1.25v-10a1.251,1.251,0,0,0-1.25-1.25Zm0,0" transform="translate(0 -131.101)"/>
  <path id="Trazado_105756" data-name="Trazado 105756" d="M36.633,188.984a1.25,1.25,0,1,1-1.25-1.25A1.25,1.25,0,0,1,36.633,188.984Zm0,0" transform="translate(-29.133 -160.234)"/>
  <path id="Trazado_105757" data-name="Trazado 105757" d="M36.633,223.117a1.25,1.25,0,1,1-1.25-1.25A1.25,1.25,0,0,1,36.633,223.117Zm0,0" transform="translate(-29.133 -189.367)"/>
  <path id="Trazado_105758" data-name="Trazado 105758" d="M463.3,188.984a1.25,1.25,0,1,1-1.25-1.25A1.25,1.25,0,0,1,463.3,188.984Zm0,0" transform="translate(-393.301 -160.234)"/>
  <path id="Trazado_105759" data-name="Trazado 105759" d="M463.3,223.117a1.25,1.25,0,1,1-1.25-1.25A1.25,1.25,0,0,1,463.3,223.117Zm0,0" transform="translate(-393.301 -189.367)"/>
  <path id="Trazado_105760" data-name="Trazado 105760" d="M103.649,266a1.25,1.25,0,0,1-1.25-1.25v-7.5a1.25,1.25,0,1,1,2.5,0v7.5A1.25,1.25,0,0,1,103.649,266Zm0,0" transform="translate(-87.399 -218.5)"/>
  <path id="Trazado_105761" data-name="Trazado 105761" d="M18.317,266a1.25,1.25,0,0,1-1.25-1.25v-7.5a1.25,1.25,0,1,1,2.5,0v7.5A1.25,1.25,0,0,1,18.317,266Zm0,0" transform="translate(-14.566 -218.5)"/>
  <path id="Trazado_105762" data-name="Trazado 105762" d="M30.816,2.5h-12.5a1.25,1.25,0,1,1,0-2.5h12.5a1.25,1.25,0,0,1,0,2.5Zm0,0" transform="translate(-14.566)"/>
  <path id="Trazado_105763" data-name="Trazado 105763" d="M103.649,112.4a1.25,1.25,0,0,1-1.25-1.25v-7.5a1.25,1.25,0,1,1,2.5,0v7.5A1.25,1.25,0,0,1,103.649,112.4Zm0,0" transform="translate(-87.399 -87.399)"/>
  <path id="Trazado_105764" data-name="Trazado 105764" d="M18.317,112.4a1.25,1.25,0,0,1-1.25-1.25v-7.5a1.25,1.25,0,1,1,2.5,0v7.5A1.25,1.25,0,0,1,18.317,112.4Zm0,0" transform="translate(-14.566 -87.399)"/>
  <path id="Trazado_105765" data-name="Trazado 105765" d="M30.816,412.1h-12.5a1.25,1.25,0,1,1,0-2.5h12.5a1.25,1.25,0,0,1,0,2.5Zm0,0" transform="translate(-14.566 -349.601)"/>
  <path id="Trazado_105766" data-name="Trazado 105766" d="M479.117,266a1.25,1.25,0,0,1-1.25-1.25v-7.5a1.25,1.25,0,1,1,2.5,0v7.5A1.25,1.25,0,0,1,479.117,266Zm0,0" transform="translate(-407.867 -218.5)"/>
  <path id="Trazado_105767" data-name="Trazado 105767" d="M393.785,266a1.25,1.25,0,0,1-1.25-1.25v-7.5a1.25,1.25,0,1,1,2.5,0v7.5A1.25,1.25,0,0,1,393.785,266Zm0,0" transform="translate(-335.035 -218.5)"/>
  <path id="Trazado_105768" data-name="Trazado 105768" d="M406.285,2.5h-12.5a1.25,1.25,0,0,1,0-2.5h12.5a1.25,1.25,0,1,1,0,2.5Zm0,0" transform="translate(-335.035)"/>
  <path id="Trazado_105769" data-name="Trazado 105769" d="M479.117,112.4a1.25,1.25,0,0,1-1.25-1.25v-7.5a1.25,1.25,0,1,1,2.5,0v7.5A1.25,1.25,0,0,1,479.117,112.4Zm0,0" transform="translate(-407.867 -87.399)"/>
  <path id="Trazado_105770" data-name="Trazado 105770" d="M393.785,112.4a1.25,1.25,0,0,1-1.25-1.25v-7.5a1.25,1.25,0,1,1,2.5,0v7.5A1.25,1.25,0,0,1,393.785,112.4Zm0,0" transform="translate(-335.035 -87.399)"/>
  <path id="Trazado_105771" data-name="Trazado 105771" d="M406.285,412.1h-12.5a1.25,1.25,0,0,1,0-2.5h12.5a1.25,1.25,0,1,1,0,2.5Zm0,0" transform="translate(-335.035 -349.601)"/>
  <path id="Trazado_105772" data-name="Trazado 105772" d="M70.766,343.832h-1.25a1.25,1.25,0,1,1,0-2.5h1.25a1.25,1.25,0,1,1,0,2.5Zm0,0" transform="translate(-58.266 -291.332)"/>
  <path id="Trazado_105773" data-name="Trazado 105773" d="M123.433,343.832h-11.25a1.25,1.25,0,0,1,0-2.5h11.25a1.25,1.25,0,1,1,0,2.5Zm0,0" transform="translate(-94.684 -291.332)"/>
  <path id="Trazado_105774" data-name="Trazado 105774" d="M309.7,36.633h-1.25a1.25,1.25,0,1,1,0-2.5h1.25a1.25,1.25,0,1,1,0,2.5Zm0,0" transform="translate(-262.199 -29.133)"/>
  <path id="Trazado_105775" data-name="Trazado 105775" d="M362.367,36.633h-11.25a1.25,1.25,0,0,1,0-2.5h11.25a1.25,1.25,0,1,1,0,2.5Zm0,0" transform="translate(-298.617 -29.133)"/>
</svg>
