<svg xmlns="http://www.w3.org/2000/svg" width="56.25" height="75" viewBox="0 0 56.25 75">
  <g id="Fill_out_line" data-name="Fill out line" transform="translate(-72 -16)">
    <path id="Trazado_105791" data-name="Trazado 105791" d="M89.5,36h15a1.25,1.25,0,0,0,1.25-1.25v-2.5H107A3.754,3.754,0,0,1,110.75,36,1.25,1.25,0,0,0,112,37.25h16.25v-2.5H113.124a6.261,6.261,0,0,0-6.124-5h-.86a7.5,7.5,0,0,0,3.36-6.25V20.375a4.372,4.372,0,0,0-5-4.33V16h-5a5.006,5.006,0,0,0-5,5v1.869a3.119,3.119,0,0,1-1.25-2.494,4.375,4.375,0,0,0-8.75,0V23.5a7.509,7.509,0,0,0,4.308,6.785,3.738,3.738,0,0,0-.293,3.347A3.756,3.756,0,0,0,85.75,37.25v12.5a3.733,3.733,0,0,0,.879,2.409A26.59,26.59,0,0,0,72,75.91v4A11.106,11.106,0,0,0,83.094,91h27.812A11.106,11.106,0,0,0,122,79.906v-4a26.6,26.6,0,0,0-13.657-23.238l4.175-4.173H128.25V46H112a1.25,1.25,0,0,0-.884.366L106.482,51H89.5a1.251,1.251,0,0,1-1.25-1.25V37.25A1.251,1.251,0,0,1,89.5,36Zm10-17.5h1.673a4.349,4.349,0,0,0-.423,1.875A3.128,3.128,0,0,1,97.625,23.5H97V21a2.5,2.5,0,0,1,2.5-2.5ZM87,23.5V20.375a1.875,1.875,0,1,1,3.75,0A5.631,5.631,0,0,0,96.375,26h1.25a5.631,5.631,0,0,0,5.625-5.625,1.875,1.875,0,0,1,3.75,0V23.5a5.006,5.006,0,0,1-5,5H92A5.006,5.006,0,0,1,87,23.5ZM103.25,31v2.5H92A1.25,1.25,0,0,1,92,31Zm12.016,31.266A24,24,0,0,1,119.5,75.91v4a8.6,8.6,0,0,1-8.594,8.594H83.094A8.6,8.6,0,0,1,74.5,79.906v-4A24.092,24.092,0,0,1,89.746,53.5h1.738a28.222,28.222,0,0,0-8.234,20h2.5a25.74,25.74,0,0,1,7.589-18.321L95.018,53.5h3.964l1.679,1.679a25.869,25.869,0,0,1,4.682,6.4l2.22-1.151a28.374,28.374,0,0,0-5.046-6.925h1.74a23.994,23.994,0,0,1,11.01,8.766Z" transform="translate(0 0)" fill="#17c878"/>
    <path id="Trazado_105792" data-name="Trazado 105792" d="M300.246,348.715h2.5a28.436,28.436,0,0,0-.762-6.534l-2.434.572A25.944,25.944,0,0,1,300.246,348.715Z" transform="translate(-191.996 -275.215)"/>
  </g>
</svg>
