<svg xmlns="http://www.w3.org/2000/svg" width="82" height="78.458" viewBox="0 0 82 78.458">
  <g id="pollo" transform="translate(0 -1.771)">
    <path id="Trazado_105249" data-name="Trazado 105249" d="M18.173,73.1h-.006a.544.544,0,0,1-.555-.538v-9.5H12.854v9.5a.544.544,0,0,1-.555.538h-.006a2.969,2.969,0,1,0,0,5.93,3.207,3.207,0,0,0,2.226-.881,1.039,1.039,0,0,1,1.428,0,3.207,3.207,0,0,0,2.226.881,2.969,2.969,0,1,0,0-5.93Z" fill="#ffefa2"/>
    <path id="Trazado_105250" data-name="Trazado 105250" d="M13.824,78.648a2.513,2.513,0,0,1-.334-4.576,1.718,1.718,0,0,0,.959-1.539C14.435,70.752,14.4,69.1,14.4,68a9.041,9.041,0,0,0,3.214-.113V63.064H12.854v9.478a.557.557,0,0,1-.555.555h-.006a2.969,2.969,0,1,0,0,5.93A3.247,3.247,0,0,0,13.824,78.648Z" opacity="0.05"/>
    <path id="Trazado_105251" data-name="Trazado 105251" d="M25.7,49.049a10.471,10.471,0,1,0-17.1,8.1,4.264,4.264,0,0,1,1.531,3.307v.59a5.1,5.1,0,0,0,5.1,5.1h0a5.1,5.1,0,0,0,5.1-5.1v-.6a4.394,4.394,0,0,1,1.611-3.364A10.445,10.445,0,0,0,25.7,49.049Z" fill="#ffd4a5"/>
    <path id="Trazado_105252" data-name="Trazado 105252" d="M21.941,57.086a10.47,10.47,0,0,0-7.117-18.5,10.321,10.321,0,0,0-2.875.523,25.471,25.471,0,0,0,.021,6.6,26.741,26.741,0,0,0,8.312,16.027,5.141,5.141,0,0,0,.048-.689v-.6A4.394,4.394,0,0,1,21.941,57.086Z" fill="#bf7726" opacity="0.2"/>
    <path id="Trazado_105253" data-name="Trazado 105253" d="M60.692,76.063a3.053,3.053,0,0,0,3.135,2.965,3.207,3.207,0,0,0,2.226-.881,1.039,1.039,0,0,1,1.428,0,3.207,3.207,0,0,0,2.226.881,2.969,2.969,0,1,0,0-5.93H69.7a.544.544,0,0,1-.555-.538v-9.5H64.388v9.5a.544.544,0,0,1-.555.538h-.006A3.053,3.053,0,0,0,60.692,76.063Z" fill="#ffefa2"/>
    <path id="Trazado_105254" data-name="Trazado 105254" d="M65.358,78.648a2.513,2.513,0,0,1-.334-4.576,1.718,1.718,0,0,0,.959-1.539c-.014-1.78-.051-3.433-.051-4.538a9.041,9.041,0,0,0,3.214-.113V63.064H64.388v9.478a.557.557,0,0,1-.555.555h-.006a2.969,2.969,0,1,0,0,5.93A3.247,3.247,0,0,0,65.358,78.648Z" opacity="0.05"/>
    <path id="Trazado_105255" data-name="Trazado 105255" d="M56.3,49.049a10.471,10.471,0,1,1,17.1,8.1,4.264,4.264,0,0,0-1.531,3.307v.59a5.1,5.1,0,0,1-5.1,5.1h0a5.1,5.1,0,0,1-5.1-5.1v-.6a4.394,4.394,0,0,0-1.611-3.364A10.444,10.444,0,0,1,56.3,49.049Z" fill="#ffd4a5"/>
    <path id="Trazado_105256" data-name="Trazado 105256" d="M60.059,57.086a10.47,10.47,0,0,1,7.117-18.5,10.322,10.322,0,0,1,2.875.523,25.478,25.478,0,0,1-.021,6.6,26.741,26.741,0,0,1-8.312,16.027,5.141,5.141,0,0,1-.048-.689v-.6A4.394,4.394,0,0,0,60.059,57.086Z" fill="#bf7726" opacity="0.2"/>
    <path id="Trazado_105257" data-name="Trazado 105257" d="M19.74,18.361l.561-2.57A4.853,4.853,0,0,0,15.4,9.9L3.275,10.31A2.146,2.146,0,0,0,1.2,12.454h0A2.146,2.146,0,0,0,3,14.571l7.9,1.312a1.257,1.257,0,0,1,.993,1.618l-1.153,3.656a6.872,6.872,0,0,0,6.554,8.938h6.53a5.057,5.057,0,0,0,5.057-5.057h0a5.057,5.057,0,0,0-5.057-5.057H21.044A1.334,1.334,0,0,1,19.74,18.361Z" fill="#ffd4a5"/>
    <path id="Trazado_105258" data-name="Trazado 105258" d="M23.818,19.98H21.044a1.336,1.336,0,0,1-.378-.056A22,22,0,0,1,17.13,26.56a25.293,25.293,0,0,0-2.092,3.158,6.874,6.874,0,0,0,2.25.377h6.53a5.057,5.057,0,0,0,5.057-5.057h0A5.058,5.058,0,0,0,23.818,19.98Z" fill="#bf7726" opacity="0.2"/>
    <path id="Trazado_105259" data-name="Trazado 105259" d="M62.26,18.361l-.561-2.57A4.853,4.853,0,0,1,66.6,9.9l12.122.405A2.146,2.146,0,0,1,80.8,12.454h0A2.146,2.146,0,0,1,79,14.571l-7.9,1.312a1.257,1.257,0,0,0-.993,1.618l1.153,3.656A6.872,6.872,0,0,1,64.712,30.1h-6.53a5.057,5.057,0,0,1-5.057-5.057h0a5.057,5.057,0,0,1,5.057-5.057h2.774A1.335,1.335,0,0,0,62.26,18.361Z" fill="#ffd4a5"/>
    <path id="Trazado_105260" data-name="Trazado 105260" d="M58.182,19.98h2.774a1.336,1.336,0,0,0,.378-.056A22,22,0,0,0,64.87,26.56a25.293,25.293,0,0,1,2.092,3.158,6.874,6.874,0,0,1-2.25.377h-6.53a5.057,5.057,0,0,1-5.057-5.057h0A5.057,5.057,0,0,1,58.182,19.98Z" fill="#bf7726" opacity="0.2"/>
    <path id="Trazado_105261" data-name="Trazado 105261" d="M57.148,19.48,55.3,12.321A12.46,12.46,0,0,0,43.238,2.972H38.762A12.459,12.459,0,0,0,26.7,12.321L24.852,19.48A26.024,26.024,0,0,1,20.2,28.948h0a21.738,21.738,0,0,0-4.376,16.243h0a22.858,22.858,0,0,0,22.652,19.8h5.042a22.858,22.858,0,0,0,22.652-19.8h0A21.738,21.738,0,0,0,61.8,28.948h0A26.024,26.024,0,0,1,57.148,19.48Z" fill="#ffd4a5"/>
    <path id="Trazado_105262" data-name="Trazado 105262" d="M31.185,25.331C29.9,16.486,29.86,8.244,35.227,3.484a12.461,12.461,0,0,0-8.53,8.837L24.852,19.48A26.024,26.024,0,0,1,20.2,28.948h0a21.739,21.739,0,0,0-4.376,16.243h0a22.858,22.858,0,0,0,22.652,19.8h5.042a22.782,22.782,0,0,0,10.288-2.445C16.335,62.086,33.272,39.733,31.185,25.331Z" fill="#bf7726" opacity="0.1"/>
    <g id="Grupo_54710" data-name="Grupo 54710" opacity="0.1">
      <circle id="Elipse_4079" data-name="Elipse 4079" cx="1.155" cy="1.155" r="1.155" transform="translate(24.548 35.263)"/>
      <circle id="Elipse_4080" data-name="Elipse 4080" cx="1.155" cy="1.155" r="1.155" transform="translate(35.582 22.079)"/>
      <circle id="Elipse_4081" data-name="Elipse 4081" cx="1.155" cy="1.155" r="1.155" transform="translate(43.133 8.746)"/>
      <circle id="Elipse_4082" data-name="Elipse 4082" cx="1.155" cy="1.155" r="1.155" transform="translate(70.532 48.581)"/>
      <circle id="Elipse_4083" data-name="Elipse 4083" cx="1.155" cy="1.155" r="1.155" transform="translate(65.214 23.02)"/>
      <circle id="Elipse_4084" data-name="Elipse 4084" cx="1.155" cy="1.155" r="1.155" transform="translate(15.234 14.884)"/>
      <circle id="Elipse_4085" data-name="Elipse 4085" cx="1.155" cy="1.155" r="1.155" transform="translate(58.381 38.578)"/>
      <circle id="Elipse_4086" data-name="Elipse 4086" cx="1.155" cy="1.155" r="1.155" transform="translate(48.597 54.672)"/>
      <circle id="Elipse_4087" data-name="Elipse 4087" cx="1.155" cy="1.155" r="1.155" transform="translate(9.434 44.392)"/>
      <circle id="Elipse_4088" data-name="Elipse 4088" cx="1.155" cy="1.155" r="1.155" transform="translate(14.476 58.306)"/>
    </g>
    <g id="Grupo_54711" data-name="Grupo 54711">
      <circle id="Elipse_4089" data-name="Elipse 4089" cx="1.155" cy="1.155" r="1.155" transform="translate(28.876 52.363)" fill="#f3e5b7"/>
      <circle id="Elipse_4090" data-name="Elipse 4090" cx="1.155" cy="1.155" r="1.155" transform="translate(56.296 31.672)" fill="#f3e5b7"/>
      <circle id="Elipse_4091" data-name="Elipse 4091" cx="1.155" cy="1.155" r="1.155" transform="translate(51.969 39.733)" fill="#f3e5b7"/>
      <circle id="Elipse_4092" data-name="Elipse 4092" cx="1.155" cy="1.155" r="1.155" transform="translate(64.458 14.111)" fill="#f3e5b7"/>
      <circle id="Elipse_4093" data-name="Elipse 4093" cx="1.155" cy="1.155" r="1.155" transform="translate(60.044 43.721)" fill="#f3e5b7"/>
      <circle id="Elipse_4094" data-name="Elipse 4094" cx="1.155" cy="1.155" r="1.155" transform="translate(33.272 10.36)" fill="#f3e5b7"/>
      <circle id="Elipse_4095" data-name="Elipse 4095" cx="1.155" cy="1.155" r="1.155" transform="translate(66.368 58.306)" fill="#f3e5b7"/>
    </g>
    <path id="Trazado_105263" data-name="Trazado 105263" d="M78.765,9.109,66.643,8.7a6.055,6.055,0,0,0-6.118,7.343l.561,2.57a.133.133,0,0,1-.13.162H58.208l-1.5-5.817a1.2,1.2,0,1,0-2.326.6l1.6,6.218a27.076,27.076,0,0,0,4.863,9.906A20.659,20.659,0,0,1,64.983,45.03,21.656,21.656,0,0,1,43.521,63.791H38.479A21.656,21.656,0,0,1,17.017,45.03a20.661,20.661,0,0,1,4.134-15.345,27.054,27.054,0,0,0,4.7-9.3h0c.057-.2.112-.4.164-.6l1.846-7.159a11.256,11.256,0,0,1,10.9-8.447h4.475a11.3,11.3,0,0,1,9.107,4.637A1.2,1.2,0,1,0,54.286,7.4,13.707,13.707,0,0,0,43.237,1.771H38.762a13.658,13.658,0,0,0-13.228,10.25l-1.743,6.758H21.043a.133.133,0,0,1-.13-.162l.561-2.57A6.055,6.055,0,0,0,15.357,8.7L3.235,9.109A3.347,3.347,0,0,0,2.8,15.756l7.9,1.312a.056.056,0,0,1,.044.072L9.588,20.8a8.072,8.072,0,0,0,7.653,10.5,23.161,23.161,0,0,0-2.269,6.089c-.064,0-.129,0-.193,0a11.746,11.746,0,0,0-11.2,11.026,11.578,11.578,0,0,0,4.266,9.671,2.906,2.906,0,0,1,.8,1.05,1.2,1.2,0,1,0,2.184-1,5.364,5.364,0,0,0-1.466-1.907A9.2,9.2,0,0,1,5.977,48.54a9.328,9.328,0,0,1,8.6-8.735,22.78,22.78,0,0,0,.062,5.547,24.052,24.052,0,0,0,5.348,12.17,5.477,5.477,0,0,0-.855,2.929v.6a3.9,3.9,0,0,1-7.058,2.276,1.2,1.2,0,0,0-1.948,1.406,6.289,6.289,0,0,0,1.53,1.5v5.715a4.158,4.158,0,0,0,.64,8.287,4.4,4.4,0,0,0,2.94-1.107,4.4,4.4,0,0,0,2.94,1.107,4.158,4.158,0,0,0,.64-8.286V66.227a6.3,6.3,0,0,0,2.718-5.177v-.6a3.028,3.028,0,0,1,.193-1.052q.449.436.921.85a24.052,24.052,0,0,0,15.834,5.945h5.042a24.053,24.053,0,0,0,15.834-5.945q.473-.413.921-.85a3.027,3.027,0,0,1,.193,1.052v.6a6.294,6.294,0,0,0,2.718,5.177v5.715a4.158,4.158,0,0,0,.64,8.287,4.4,4.4,0,0,0,2.94-1.107,4.4,4.4,0,0,0,2.94,1.107,4.158,4.158,0,0,0,.64-8.286V66.227a6.3,6.3,0,0,0,2.718-5.177v-.59a3.046,3.046,0,0,1,1.091-2.378,11.577,11.577,0,0,0,4.266-9.671,11.745,11.745,0,0,0-11.2-11.026c-.064,0-.129,0-.193,0a23.161,23.161,0,0,0-2.269-6.089,8.072,8.072,0,0,0,7.653-10.5L71.258,17.14a.051.051,0,0,1,.006-.046.051.051,0,0,1,.038-.026l7.9-1.312a3.347,3.347,0,0,0-.436-6.647ZM12.715,26.576a5.615,5.615,0,0,1-.835-5.058l1.153-3.656A2.458,2.458,0,0,0,11.091,14.7l-7.9-1.312a.945.945,0,0,1,.123-1.876L15.438,11.1a3.652,3.652,0,0,1,3.69,4.429l-.561,2.57a2.536,2.536,0,0,0,2.477,3.077h2.037a24.671,24.671,0,0,1-3.827,7.03c-.174.224-.342.453-.508.683H17.288A5.616,5.616,0,0,1,12.715,26.576Zm7.392,49.487a1.857,1.857,0,0,1-1.934,1.764,2,2,0,0,1-1.4-.547,2.228,2.228,0,0,0-3.091,0,2,2,0,0,1-1.4.547,1.771,1.771,0,1,1,0-3.527h0a1.753,1.753,0,0,0,1.247-.513,1.72,1.72,0,0,0,.508-1.226V67.235a6.21,6.21,0,0,0,2.356,0V72.56a1.72,1.72,0,0,0,.508,1.226,1.755,1.755,0,0,0,1.25.513h0A1.857,1.857,0,0,1,20.107,76.063Zm51.534,0a1.857,1.857,0,0,1-1.934,1.764,2,2,0,0,1-1.4-.547,2.228,2.228,0,0,0-3.091,0,2,2,0,0,1-1.4.547,1.771,1.771,0,1,1,0-3.527h0a1.753,1.753,0,0,0,1.247-.513,1.72,1.72,0,0,0,.508-1.226V67.236a6.244,6.244,0,0,0,2.356,0V72.56a1.72,1.72,0,0,0,.508,1.226,1.755,1.755,0,0,0,1.25.513h0A1.857,1.857,0,0,1,71.641,76.063ZM67.364,45.351a22.779,22.779,0,0,0,.062-5.547,9.327,9.327,0,0,1,8.6,8.735,9.2,9.2,0,0,1-3.389,7.684,5.439,5.439,0,0,0-1.972,4.237v.59a3.9,3.9,0,1,1-7.791,0v-.6a5.477,5.477,0,0,0-.855-2.929A24.055,24.055,0,0,0,67.364,45.351ZM78.808,13.386l-7.9,1.312a2.458,2.458,0,0,0-1.941,3.164l1.153,3.656a5.671,5.671,0,0,1-5.408,7.376H63.253c-.165-.23-.333-.458-.508-.683a24.665,24.665,0,0,1-3.827-7.03h2.037A2.536,2.536,0,0,0,63.433,18.1l-.561-2.57a3.652,3.652,0,0,1,3.69-4.43l12.122.405a.945.945,0,0,1,.123,1.876Z"/>
  </g>
</svg>
