<svg xmlns="http://www.w3.org/2000/svg" width="43.864" height="48.931" viewBox="0 0 43.864 48.931">
  <g id="matraz" transform="translate(-26.511)">
    <g id="Grupo_54919" data-name="Grupo 54919" transform="translate(27.468 0.956)">
      <circle id="Elipse_4141" data-name="Elipse 4141" cx="2.867" cy="2.867" r="2.867" transform="translate(36.217)" fill="#ffe35c"/>
      <path id="Trazado_105560" data-name="Trazado 105560" d="M198.42,23.619h0a7.646,7.646,0,1,1-9.553,7.406,7.646,7.646,0,0,1-7.645-7.645,1.911,1.911,0,0,0-1.911-1.911h-3.763v-.059l-.06-1.852a5.685,5.685,0,0,1,7.682-5.372c-.011-.12-.036-.238-.036-.362a3.823,3.823,0,1,1,7.645,0,3.63,3.63,0,0,1-.553,1.93,7.646,7.646,0,0,1,8.2,7.626C198.424,23.46,198.423,23.54,198.42,23.619Z" transform="translate(-162.207 -10)" fill="#ffefa2"/>
      <path id="Trazado_105561" data-name="Trazado 105561" d="M62.91,336.283a1.911,1.911,0,0,1-1.74,2.7H38.436a1.911,1.911,0,0,1-1.74-2.7L43.83,321.76l.047.023h11.85l.047-.023Z" transform="translate(-36.522 -291.966)" fill="#f1d54e"/>
    </g>
    <g id="Grupo_54920" data-name="Grupo 54920" transform="translate(34.777 12.424)">
      <path id="Trazado_105562" data-name="Trazado 105562" d="M115.147,133.823a1.911,1.911,0,1,1,0-3.823h7.645a1.911,1.911,0,1,1,0,3.823v10.13l2.149,4.373-.047.023h-11.85l-.047-.023,2.149-4.373Z" transform="translate(-112.998 -130)" fill="#d4e9ff"/>
      <path id="Trazado_105563" data-name="Trazado 105563" d="M157.4,362a1.911,1.911,0,1,1-1.911,1.911A1.911,1.911,0,0,1,157.4,362Z" transform="translate(-151.427 -339.828)" fill="#d4e9ff"/>
    </g>
    <path id="Trazado_105564" data-name="Trazado 105564" d="M346.444,121.911a.956.956,0,1,0-.956-.956A.956.956,0,0,0,346.444,121.911Z" transform="translate(-288.493 -108.532)"/>
    <path id="Trazado_105565" data-name="Trazado 105565" d="M306.444,161.911a.956.956,0,1,0-.956-.956A.956.956,0,0,0,306.444,161.911Z" transform="translate(-252.315 -144.709)"/>
    <path id="Trazado_105566" data-name="Trazado 105566" d="M266.444,101.911a.956.956,0,1,0-.956-.956A.956.956,0,0,0,266.444,101.911Z" transform="translate(-216.138 -90.443)"/>
    <path id="Trazado_105567" data-name="Trazado 105567" d="M226.444,453.911a.956.956,0,1,0-.956-.956A.956.956,0,0,0,226.444,453.911Z" transform="translate(-179.961 -408.803)"/>
    <path id="Trazado_105568" data-name="Trazado 105568" d="M29.382,48.931H52.115a2.867,2.867,0,0,0,2.61-4.054l-.012-.026-9.187-18.7V17.04a2.833,2.833,0,0,0,.384-.168,8.622,8.622,0,0,0,7.309,6.018,8.6,8.6,0,1,0,11.407-9.025,8.6,8.6,0,0,0-7.741-8.087,4.605,4.605,0,0,0,.109-1,4.779,4.779,0,0,0-9.478-.867,6.176,6.176,0,0,0-1.034-.089,6.7,6.7,0,0,0-6.69,6.69c0,.01,0,.021,0,.031l.03.925h-2.9a2.867,2.867,0,0,0-.956,5.57v9.117l-9.187,18.7-.012.026A2.867,2.867,0,0,0,29.382,48.931ZM41.7,10.5a4.784,4.784,0,0,1,4.778-4.764,4.7,4.7,0,0,1,1.622.3.956.956,0,0,0,1.278-.989,2.839,2.839,0,0,1,2.835-3.139,2.87,2.87,0,0,1,2.867,2.867A2.676,2.676,0,0,1,54.676,6.2a.956.956,0,0,0,.877,1.461,6.691,6.691,0,0,1,5.217,11.4.956.956,0,0,0,1.352,1.352A8.559,8.559,0,0,0,64.5,15.87a6.691,6.691,0,1,1-9.419,6.111.956.956,0,0,0-.956-.956,6.7,6.7,0,0,1-6.69-6.69,2.87,2.87,0,0,0-2.867-2.867H41.736ZM36.926,13.38h7.645a.956.956,0,0,1,0,1.911H42.66a.956.956,0,0,0,0,1.911h.956v9.175a.956.956,0,0,0,.1.422L45.2,29.817H36.3L37.784,26.8a.955.955,0,0,0,.1-.422V17.2h.956a.956.956,0,0,0,0-1.911H36.926a.956.956,0,1,1,0-1.911Zm-8.419,32.3,6.854-13.95H46.137l6.854,13.95a.955.955,0,0,1-.875,1.341H29.382A.955.955,0,0,1,28.507,45.679Z"/>
    <path id="Trazado_105569" data-name="Trazado 105569" d="M148.355,357.734a2.867,2.867,0,1,0-2.867-2.867A2.87,2.87,0,0,0,148.355,357.734Zm0-3.823a.956.956,0,1,1-.956.956A.957.957,0,0,1,148.355,353.911Z" transform="translate(-107.606 -318.36)"/>
    <path id="Trazado_105570" data-name="Trazado 105570" d="M409.311,7.645a3.823,3.823,0,1,0-3.823-3.823A3.827,3.827,0,0,0,409.311,7.645Zm0-5.734A1.911,1.911,0,1,1,407.4,3.823,1.914,1.914,0,0,1,409.311,1.911Z" transform="translate(-342.759 0)"/>
    <path id="Trazado_105571" data-name="Trazado 105571" d="M126.444,453.911h5.734a.956.956,0,1,0,0-1.911h-5.734a.956.956,0,0,0,0,1.911Z" transform="translate(-89.518 -408.803)"/>
  </g>
</svg>
