<svg xmlns="http://www.w3.org/2000/svg" width="82" height="76.559" viewBox="0 0 82 76.559">
  <g id="reciclar" transform="translate(0 -16.987)">
    <g id="Grupo_54274" data-name="Grupo 54274" transform="translate(1.601 18.588)">
      <path id="Trazado_104564" data-name="Trazado 104564" d="M222.54,50.282,238.8,56.009l3.172-16.949-3.239,1.87-6.123-10.605c-1.333-2.309-2.508-3.339-5.561-3.339H213.409L220.23,38.8l5.548,9.61Z" transform="translate(-180.832 -26.987)" fill="#e2f6c6" fill-rule="evenodd"/>
      <path id="Trazado_104565" data-name="Trazado 104565" d="M134.587,53.27,142.941,38.8,136.12,26.986c-3.054,0-4.228,1.029-5.561,3.339L121.63,45.789a1.876,1.876,0,0,0,.685,2.555l9.718,5.611A1.876,1.876,0,0,0,134.587,53.27Z" transform="translate(-103.542 -26.986)" fill="#127c4c" fill-rule="evenodd"/>
      <path id="Trazado_104566" data-name="Trazado 104566" d="M357.65,231.215a1.876,1.876,0,0,0-.685,2.555l8.354,14.469h13.642c1.527-2.645,1.223-4.176-.11-6.486l-8.928-15.465a1.876,1.876,0,0,0-2.555-.684Z" transform="translate(-301.188 -193.585)" fill="#127c4c" fill-rule="evenodd"/>
      <path id="Trazado_104567" data-name="Trazado 104567" d="M283.591,348.625h-11.1v-3.74L259.4,356.106l13.092,11.221v-3.74H284.74c2.667,0,4.145-.5,5.672-3.147l6.821-11.815Z" transform="translate(-219.459 -293.971)" fill="#e2f6c6" fill-rule="evenodd"/>
      <path id="Trazado_104568" data-name="Trazado 104568" d="M84.377,381.333V370.111a1.876,1.876,0,0,0-1.87-1.87H65.8l-6.821,11.815C60.5,382.7,61.984,383.2,64.65,383.2H82.507a1.876,1.876,0,0,0,1.87-1.87Z" transform="translate(-51.134 -313.587)" fill="#127c4c" fill-rule="evenodd"/>
      <path id="Trazado_104569" data-name="Trazado 104569" d="M24.665,238.777l5.548-9.61,3.239,1.87-3.172-16.949-16.264,5.727,3.239,1.87-6.123,10.605c-1.333,2.309-1.637,3.841-.111,6.486l6.821,11.815Z" transform="translate(-10 -184.123)" fill="#e2f6c6" fill-rule="evenodd"/>
    </g>
    <g id="Grupo_54275" data-name="Grupo 54275" transform="translate(0 16.987)">
      <path id="Trazado_104570" data-name="Trazado 104570" d="M113.108,41.333l9.718,5.611a3.442,3.442,0,0,0,1.726.465,3.508,3.508,0,0,0,.908-.12,3.448,3.448,0,0,0,2.109-1.615l6.967-12.067,3.361,5.821L136.044,40.5a1.6,1.6,0,0,0,.269,2.9l16.264,5.727a1.6,1.6,0,0,0,2.106-1.216l3.172-16.948a1.6,1.6,0,0,0-2.375-1.682l-1.852,1.069-5.322-9.218c-1.514-2.622-3.136-4.139-6.949-4.139H127.714c-3.813,0-5.435,1.518-6.949,4.14l-.6,1.046a1.6,1.6,0,1,0,2.774,1.6l.6-1.046c.959-1.661,1.627-2.339,3.272-2.5L132.686,30.4l-7.892,13.669a.274.274,0,0,1-.367.1l-9.718-5.611a.274.274,0,0,1-.1-.367l1.117-1.934a1.6,1.6,0,0,0-2.774-1.6l-1.117,1.934a3.477,3.477,0,0,0,1.271,4.742ZM141.357,20.19c2.336,0,3.057.6,4.174,2.538l6.123,10.605a1.6,1.6,0,0,0,2.188.586l.224-.129-2.188,11.689-11.217-3.95.224-.129a1.6,1.6,0,0,0,.586-2.188L130.488,20.19Z" transform="translate(-93.535 -16.987)"/>
      <path id="Trazado_104571" data-name="Trazado 104571" d="M32.974,228.776H19.041l3.361-5.821,1.852,1.069a1.6,1.6,0,0,0,2.375-1.682l-3.172-16.949a1.6,1.6,0,0,0-2.106-1.216L5.086,209.906a1.6,1.6,0,0,0-.269,2.9l1.852,1.07-5.322,9.218c-1.514,2.622-2.017,4.785-.111,8.087l6.821,11.815c1.906,3.3,4.032,3.948,7.059,3.948H32.974a3.476,3.476,0,0,0,3.472-3.472V232.248a3.476,3.476,0,0,0-3.472-3.472ZM4.122,224.693l6.123-10.605a1.6,1.6,0,0,0-.586-2.188l-.224-.129,11.217-3.95L22.84,219.51l-.224-.129a1.6,1.6,0,0,0-2.188.586L9.445,238.989l-5.434-9.412c-1.168-2.023-1.007-2.949.111-4.884Zm29.121,18.777a.275.275,0,0,1-.269.269H15.117c-1.917,0-2.839-.239-3.8-1.585l5.874-10.174H32.974a.276.276,0,0,1,.269.269Z" transform="translate(0 -174.122)"/>
      <path id="Trazado_104572" data-name="Trazado 104572" d="M290.109,232.552l-8.928-15.465a3.476,3.476,0,0,0-4.742-1.271l-9.718,5.611a3.476,3.476,0,0,0-1.271,4.742l6.967,12.067h-6.721V236.1a1.6,1.6,0,0,0-2.644-1.216L249.959,246.1a1.6,1.6,0,0,0,0,2.432l13.092,11.221a1.6,1.6,0,0,0,2.644-1.216V256.4h10.645c3.027,0,5.153-.646,7.059-3.948l6.821-11.815h0c1.906-3.3,1.4-5.465-.111-8.087Zm-21.886-7.983a.276.276,0,0,1,.1-.367l9.718-5.611a.275.275,0,0,1,.367.1l8.928,15.465c.958,1.66,1.21,2.579.526,4.083H276.115Zm12.4,26.284c-1.168,2.023-2.05,2.346-4.285,2.346H264.094a1.6,1.6,0,0,0-1.6,1.6v.259l-9.029-7.739,9.029-7.739v.258a1.6,1.6,0,0,0,1.6,1.6h21.965Z" transform="translate(-209.457 -183.583)"/>
      <path id="Trazado_104573" data-name="Trazado 104573" d="M144.015,86.545a1.6,1.6,0,1,0,0-3.2h0a1.6,1.6,0,0,0,0,3.2Z" transform="translate(-119.605 -72.715)"/>
    </g>
  </g>
</svg>
