<svg xmlns="http://www.w3.org/2000/svg" width="40.315" height="50.398" viewBox="0 0 40.315 50.398">
  <g id="Page-1" transform="translate(0.001 0.002)">
    <g id="_011---Apple-Core" data-name="011---Apple-Core" transform="translate(-0.001 -0.002)">
      <path id="Shape" d="M40.629,17.491a.845.845,0,0,1-1.31.815,6.642,6.642,0,0,0-5.644-.748,5.94,5.94,0,0,0-2.066,1.126.84.84,0,0,1-1.092,0,6.359,6.359,0,0,0-4.107-1.445h-.034a6.252,6.252,0,0,0-4.485,1.806.84.84,0,0,1-1.176,0,6.252,6.252,0,0,0-4.485-1.806,6.359,6.359,0,0,0-4.107,1.445.84.84,0,0,1-1.092,0,5.94,5.94,0,0,0-2.066-1.126,6.642,6.642,0,0,0-5.644.748.845.845,0,0,1-1.31-.815C2.848,11.922,6.855,8,12.844,8c6.77,0,8.458,2.52,8.458,2.52h.034S23.024,8,29.793,8c5.989,0,10,3.922,10.835,9.491Z" transform="translate(-1.16 -2.119)" fill="#17c878"/>
      <path id="Shape-2" data-name="Shape" d="M8.045,15.2A.84.84,0,0,1,7.4,13.825,7.918,7.918,0,0,1,13.752,11a.84.84,0,1,1,0,1.68,6.292,6.292,0,0,0-5.058,2.215.84.84,0,0,1-.649.3Z" transform="translate(-1.993 -2.598)" fill="#f5f5f5"/>
      <path id="Shape-3" data-name="Shape" d="M40.319,46.532c-1.05,3.88-4.88,10.995-18.932,10.995S3.505,50.413,2.455,46.532a.84.84,0,0,1,1.26-.916,6.2,6.2,0,0,0,3.393.991,6.284,6.284,0,0,0,1.26-.126,6.032,6.032,0,0,0,2.814-1.319.84.84,0,0,1,1.092,0,6.436,6.436,0,0,0,8.534-.361.792.792,0,0,1,1.159,0,6.436,6.436,0,0,0,8.534.361.84.84,0,0,1,1.092,0,6.032,6.032,0,0,0,2.814,1.319,6.284,6.284,0,0,0,1.26.126,6.2,6.2,0,0,0,3.393-.991.84.84,0,0,1,1.26.916Z" transform="translate(-1.228 -7.969)" fill="#17c878"/>
      <path id="Shape-4" data-name="Shape" d="M35.538,42.392a6.032,6.032,0,0,1-2.814-1.319.84.84,0,0,0-1.092,0,6.436,6.436,0,0,1-8.534-.361.793.793,0,0,0-1.159,0,6.436,6.436,0,0,1-8.534.361.84.84,0,0,0-1.092,0A6.032,6.032,0,0,1,9.5,42.392a34.173,34.173,0,0,0,2.1-12.473,37.143,37.143,0,0,0-1.436-10.6,5.94,5.94,0,0,1,2.066,1.126.84.84,0,0,0,1.092,0A6.359,6.359,0,0,1,17.429,19a6.252,6.252,0,0,1,4.485,1.806.84.84,0,0,0,1.176,0A6.252,6.252,0,0,1,27.575,19h.034a6.359,6.359,0,0,1,4.107,1.445.84.84,0,0,0,1.092,0,5.94,5.94,0,0,1,2.066-1.126,37.143,37.143,0,0,0-1.436,10.6,34.173,34.173,0,0,0,2.1,12.473Z" transform="translate(-2.36 -3.879)" fill="#ffefa2"/>
      <path id="Shape-5" data-name="Shape" d="M16.022,39.114a.869.869,0,0,1-.16-.015.84.84,0,0,1-.666-.984,39.266,39.266,0,0,0,.673-7.4,40.842,40.842,0,0,0-.4-5.76.84.84,0,1,1,1.662-.239,42.456,42.456,0,0,1,.416,6,40.936,40.936,0,0,1-.7,7.718.84.84,0,0,1-.824.681Z" transform="translate(-3.269 -4.676)" fill="#f1d54e"/>
      <path id="Shape-6" data-name="Shape" d="M33.527,39.114a.84.84,0,0,1-.824-.681,40.937,40.937,0,0,1-.7-7.718,42.456,42.456,0,0,1,.416-6,.84.84,0,1,1,1.662.239,40.842,40.842,0,0,0-.4,5.76,39.266,39.266,0,0,0,.672,7.4.84.84,0,0,1-.666.984A.869.869,0,0,1,33.527,39.114Z" transform="translate(-5.961 -4.676)" fill="#f1d54e"/>
      <g id="Grupo_82594" data-name="Grupo 82594" transform="translate(16.799 22.69)">
        <path id="Shape-7" data-name="Shape" d="M22.682,30.522a.84.84,0,0,1-.594-.246l-.84-.84a.84.84,0,0,1,1.188-1.188l.84.84a.84.84,0,0,1-.594,1.434Z" transform="translate(-21.002 -28.012)" fill="sienna"/>
        <path id="Shape-8" data-name="Shape" d="M21.84,35.522a.84.84,0,0,1-.594-1.434l.84-.84a.84.84,0,0,1,1.188,1.188l-.84.84a.84.84,0,0,1-.594.246Z" transform="translate(-21 -28.813)" fill="sienna"/>
        <path id="Shape-9" data-name="Shape" d="M27.682,35.522a.84.84,0,0,1-.594-.246l-.84-.84a.84.84,0,0,1,1.188-1.188l.84.84a.84.84,0,0,1-.594,1.434Z" transform="translate(-21.802 -28.813)" fill="sienna"/>
        <path id="Shape-10" data-name="Shape" d="M26.84,30.522a.84.84,0,0,1-.594-1.434l.84-.84a.84.84,0,0,1,1.188,1.188l-.84.84a.84.84,0,0,1-.594.246Z" transform="translate(-21.801 -28.012)" fill="sienna"/>
      </g>
      <circle id="Oval" cx="0.84" cy="0.84" r="0.84" transform="translate(14.279 8.401)" fill="#f5f5f5"/>
      <path id="Shape-11" data-name="Shape" d="M1.777,17.9a1.694,1.694,0,0,0,1.848-.02,5.6,5.6,0,0,1,3.135-.923,5.843,5.843,0,0,1,1.367.179,36.606,36.606,0,0,1,1.272,9.9,33.95,33.95,0,0,1-1.871,11.7,5.735,5.735,0,0,1-.649.055,5.356,5.356,0,0,1-2.94-.858,1.68,1.68,0,0,0-2.52,1.848C2.587,44.12,6.7,51.4,21.158,51.4S39.73,44.12,40.9,39.783a1.68,1.68,0,0,0-2.52-1.848,5.356,5.356,0,0,1-2.94.861,5.735,5.735,0,0,1-.649-.055,33.95,33.95,0,0,1-1.871-11.7,36.606,36.606,0,0,1,1.272-9.9,5.842,5.842,0,0,1,1.367-.179,5.6,5.6,0,0,1,3.134.924,1.694,1.694,0,0,0,1.848.02,1.645,1.645,0,0,0,.756-1.653c-.933-6.2-5.511-10.21-11.66-10.21-4.095,0-6.461.884-7.761,1.68a8.284,8.284,0,0,0-4.6-6.66.84.84,0,0,0-.629,1.558A6.541,6.541,0,0,1,20.15,7.551a15.33,15.33,0,0,0-7.468-1.512c-6.149,0-10.727,4.007-11.663,10.209A1.645,1.645,0,0,0,1.777,17.9Zm37.5,21.445c-1.042,3.873-4.781,10.369-18.116,10.369S4.083,43.22,3.033,39.353a7,7,0,0,0,3.847,1.124,7.106,7.106,0,0,0,4.62-1.649,7.113,7.113,0,0,0,4.62,1.649,6.872,6.872,0,0,0,5.017-2.061,7.269,7.269,0,0,0,9.681.412,7.113,7.113,0,0,0,4.62,1.649,6.909,6.909,0,0,0,3.838-1.13Zm-6.475-1.2a5.025,5.025,0,0,1-.9-.595,1.671,1.671,0,0,0-2.174,0A5.437,5.437,0,0,1,26.2,38.8a5.366,5.366,0,0,1-3.856-1.551,1.68,1.68,0,0,0-2.367,0A5.366,5.366,0,0,1,16.119,38.8a5.437,5.437,0,0,1-3.533-1.249,1.671,1.671,0,0,0-2.174,0,5.025,5.025,0,0,1-.9.595,37.312,37.312,0,0,0,1.562-11.1A39.745,39.745,0,0,0,10.1,18.05c.073.055.156.1.227.157a1.68,1.68,0,0,0,2.177,0,5.514,5.514,0,0,1,3.565-1.249,5.431,5.431,0,0,1,3.89,1.553,1.668,1.668,0,0,0,2.372,0,5.719,5.719,0,0,1,7.486-.3,1.68,1.68,0,0,0,2.177,0c.071-.06.154-.1.227-.157a39.745,39.745,0,0,0-.981,8.986A37.312,37.312,0,0,0,32.8,38.142ZM12.682,7.719c6.113,0,7.757,2.141,7.763,2.149a.886.886,0,0,0,.7.37h.032a.821.821,0,0,0,.293-.062l.029-.012a.889.889,0,0,0,.365-.283c.018-.021,1.661-2.162,7.774-2.162,5.352,0,9.185,3.364,9.991,8.766a7.435,7.435,0,0,0-8.727.439,7.217,7.217,0,0,0-4.68-1.646,6.987,6.987,0,0,0-5.06,2.06,7.118,7.118,0,0,0-5.092-2.06,7.24,7.24,0,0,0-4.658,1.646A7.193,7.193,0,0,0,6.76,15.278,7.241,7.241,0,0,0,2.68,16.5C3.5,11.083,7.33,7.719,12.682,7.719Z" transform="translate(-0.999 -0.998)"/>
    </g>
  </g>
</svg>
