<svg xmlns="http://www.w3.org/2000/svg" xmlns:xlink="http://www.w3.org/1999/xlink" width="299.028" height="308.652" viewBox="0 0 299.028 308.652">
  <defs>
    <clipPath id="clip-path">
      <rect id="Rectángulo_31110" data-name="Rectángulo 31110" width="299.028" height="308.652" fill="none"/>
    </clipPath>
  </defs>
  <g id="Grupo_82781" data-name="Grupo 82781" transform="translate(-1143.001 -2262.818)">
    <g id="Grupo_54906" data-name="Grupo 54906" transform="translate(1143.001 2262.818)" clip-path="url(#clip-path)">
      <g id="Grupo_54900" data-name="Grupo 54900" transform="translate(7.467 10.653)">
        <g id="Grupo_54886" data-name="Grupo 54886" transform="translate(4.929 2.817)" opacity="0.05" style="mix-blend-mode: multiply;isolation: isolate">
          <path id="Trazado_105461" data-name="Trazado 105461" d="M193.505,294.323l-.941-6.489a3.209,3.209,0,0,0-3.637-2.717l-1.368-9.443a3.3,3.3,0,0,0-3.738-2.792l-.442.064-1.227-8.472a5.35,5.35,0,0,0-6.063-4.528l-26.781,3.88a4.346,4.346,0,0,0-1.424.468l-24.285,13-1.76,5.778,40.319,30.442a4.581,4.581,0,0,1,3.333-2.3l19.474-2.821a6.307,6.307,0,0,0,5.354-7.029l-.278-2.215a1.1,1.1,0,0,1,.885-1.216A3.21,3.21,0,0,0,193.505,294.323Z" transform="translate(-75.435 -133.781)"/>
          <line id="Línea_147" data-name="Línea 147" y1="9.928" x2="19.92" transform="translate(62.335 141.616)" fill="none" stroke="#000" stroke-linecap="round" stroke-linejoin="round" stroke-width="4.147" opacity="0.5" style="mix-blend-mode: multiply;isolation: isolate"/>
          <rect id="Rectángulo_31076" data-name="Rectángulo 31076" width="132.553" height="175.217" rx="9.717" transform="translate(75.757 18.783)"/>
          <path id="Trazado_105462" data-name="Trazado 105462" d="M292.63,123.943V253.421l-22.016,25.3h-91.9a6.755,6.755,0,0,1-6.754-6.756V123.943a6.755,6.755,0,0,1,6.754-6.756H285.877A6.755,6.755,0,0,1,292.63,123.943Z" transform="translate(-90.264 -91.562)"/>
          <path id="Trazado_105463" data-name="Trazado 105463" d="M198.447,165.812a9.242,9.242,0,1,0,9.242,9.242A9.242,9.242,0,0,0,198.447,165.812Zm0,14.674a5.433,5.433,0,1,1,5.433-5.433A5.432,5.432,0,0,1,198.447,180.486Z" transform="translate(-95.365 -105.947)"/>
          <path id="Trazado_105464" data-name="Trazado 105464" d="M198.447,206.486a9.242,9.242,0,1,0,9.242,9.242A9.242,9.242,0,0,0,198.447,206.486Zm0,14.674a5.432,5.432,0,1,1,5.433-5.432A5.432,5.432,0,0,1,198.447,221.16Z" transform="translate(-95.365 -117.981)"/>
          <path id="Trazado_105465" data-name="Trazado 105465" d="M198.447,247.4a9.242,9.242,0,1,0,9.242,9.242A9.242,9.242,0,0,0,198.447,247.4Zm0,14.674a5.433,5.433,0,1,1,5.433-5.432A5.432,5.432,0,0,1,198.447,262.077Z" transform="translate(-95.365 -130.086)"/>
          <text id="Registration" transform="translate(135.488 47.259)" font-size="13" font-family="YanoneKaffeesatz-Bold, Yanone Kaffeesatz" font-weight="700"><tspan x="-23.491" y="0">Registration</tspan></text>
          <rect id="Rectángulo_31077" data-name="Rectángulo 31077" width="63.815" height="3.642" transform="translate(125.545 60.874)"/>
          <rect id="Rectángulo_31078" data-name="Rectángulo 31078" width="63.815" height="3.642" transform="translate(125.545 67.286)"/>
          <rect id="Rectángulo_31079" data-name="Rectángulo 31079" width="63.815" height="3.642" transform="translate(125.545 73.697)"/>
          <rect id="Rectángulo_31080" data-name="Rectángulo 31080" width="63.815" height="3.642" transform="translate(125.545 89.515)"/>
          <rect id="Rectángulo_31081" data-name="Rectángulo 31081" width="63.815" height="3.642" transform="translate(125.545 95.926)"/>
          <rect id="Rectángulo_31082" data-name="Rectángulo 31082" width="63.815" height="3.642" transform="translate(125.545 102.338)"/>
          <rect id="Rectángulo_31083" data-name="Rectángulo 31083" width="63.815" height="3.642" transform="translate(125.545 118.326)"/>
          <rect id="Rectángulo_31084" data-name="Rectángulo 31084" width="63.815" height="3.642" transform="translate(125.545 124.738)"/>
          <rect id="Rectángulo_31085" data-name="Rectángulo 31085" width="63.815" height="3.642" transform="translate(125.545 131.149)"/>
          <path id="Trazado_105466" data-name="Trazado 105466" d="M197.971,179.929l-8.083-8.083,2.923-2.923,5.057,5.056,11.423-12.245,3.023,2.82Z" transform="translate(-95.567 -104.741)"/>
          <path id="Trazado_105467" data-name="Trazado 105467" d="M197.971,218.367l-8.083-8.083,2.923-2.923,5.057,5.056,11.423-12.245,3.023,2.82Z" transform="translate(-95.567 -116.113)"/>
          <path id="Trazado_105468" data-name="Trazado 105468" d="M197.971,259.373l-8.083-8.083,2.923-2.923,5.057,5.056,11.423-12.245,3.023,2.82Z" transform="translate(-95.567 -128.245)"/>
          <path id="Trazado_105469" data-name="Trazado 105469" d="M265.439,93.943a13.447,13.447,0,0,0-26.886,0c0,.1,0,.2,0,.3v5.335h26.9V94.244C265.445,94.141,265.445,94.042,265.439,93.943Zm-18.053-2.367a4.61,4.61,0,1,1,9.219,0v1.83h-9.219Z" transform="translate(-109.963 -80.795)"/>
          <rect id="Rectángulo_31086" data-name="Rectángulo 31086" width="9.22" height="0.47" transform="translate(137.424 12.611)"/>
          <path id="Trazado_105470" data-name="Trazado 105470" d="M265.439,93.943a13.447,13.447,0,0,0-26.886,0c0,.1,0,.2,0,.3v.47c0-.1,0-.2,0-.3a13.447,13.447,0,0,1,26.886,0c.006.1.006.2.006.3v-.47C265.445,94.141,265.445,94.042,265.439,93.943Z" transform="translate(-109.963 -80.795)"/>
          <path id="Trazado_105471" data-name="Trazado 105471" d="M265.445,99.768V105.1h-26.9V99.768c0-.1,0-.2,0-.3h26.886C265.445,99.566,265.445,99.666,265.445,99.768Z" transform="translate(-109.963 -86.319)"/>
          <rect id="Rectángulo_31087" data-name="Rectángulo 31087" width="59.746" height="17.978" rx="3.968" transform="translate(112.16 14.221)"/>
          <path id="Trazado_105472" data-name="Trazado 105472" d="M272.375,100.991h-54.56a2.594,2.594,0,0,0-2.593,2.594v.47a2.594,2.594,0,0,1,2.593-2.594h54.56a2.594,2.594,0,0,1,2.593,2.594v-.47A2.594,2.594,0,0,0,272.375,100.991Z" transform="translate(-103.062 -86.77)"/>
          <path id="Trazado_105473" data-name="Trazado 105473" d="M272.375,120.86h-54.56a2.593,2.593,0,0,1-2.593-2.593v3.219a2.594,2.594,0,0,0,2.593,2.594h54.56a2.594,2.594,0,0,0,2.593-2.594v-3.219A2.593,2.593,0,0,1,272.375,120.86Z" transform="translate(-103.062 -91.881)"/>
          <path id="Trazado_105474" data-name="Trazado 105474" d="M271.349,106.926H223.114a.673.673,0,0,1-.67-.671h0a.673.673,0,0,1,.67-.671h48.235a.673.673,0,0,1,.671.671h0A.673.673,0,0,1,271.349,106.926Z" transform="translate(-105.198 -88.129)"/>
          <path id="Trazado_105475" data-name="Trazado 105475" d="M271.349,112.737H223.114a.673.673,0,0,1-.67-.671h0a.672.672,0,0,1,.67-.67h48.235a.673.673,0,0,1,.671.67h0A.673.673,0,0,1,271.349,112.737Z" transform="translate(-105.198 -89.848)"/>
          <path id="Trazado_105476" data-name="Trazado 105476" d="M271.349,118.548H223.114a.672.672,0,0,1-.67-.671h0a.672.672,0,0,1,.67-.67h48.235a.673.673,0,0,1,.671.67h0A.673.673,0,0,1,271.349,118.548Z" transform="translate(-105.198 -91.568)"/>
          <rect id="Rectángulo_31088" data-name="Rectángulo 31088" width="49.576" height="1.342" rx="0.671" transform="translate(117.245 16.89)"/>
          <path id="Trazado_105477" data-name="Trazado 105477" d="M271.349,111.934H223.114a.672.672,0,0,1-.67-.67h0a.673.673,0,0,1,.67-.671h48.235a.673.673,0,0,1,.671.671h0A.673.673,0,0,1,271.349,111.934Z" transform="translate(-105.198 -89.611)"/>
          <path id="Trazado_105478" data-name="Trazado 105478" d="M271.349,117.746H223.114a.673.673,0,0,1-.67-.671h0a.673.673,0,0,1,.67-.671h48.235a.673.673,0,0,1,.671.671h0A.673.673,0,0,1,271.349,117.746Z" transform="translate(-105.198 -91.33)"/>
          <rect id="Rectángulo_31089" data-name="Rectángulo 31089" width="39.818" height="17.62" transform="translate(95.948 151.79)" fill="none" stroke="#000" stroke-linecap="round" stroke-miterlimit="10" stroke-width="6.662"/>
          <rect id="Rectángulo_31090" data-name="Rectángulo 31090" width="39.818" height="17.62" transform="translate(146.643 151.79)" fill="none" stroke="#000" stroke-linecap="round" stroke-miterlimit="10" stroke-width="6.662"/>
          <path id="Trazado_105479" data-name="Trazado 105479" d="M331.033,310.661l-22.016,25.3h-3.743L301.766,320.6a8.578,8.578,0,0,1,7.411-8.5c.467-.064.936-.126,1.4-.2,1.64-.236,3.287-.411,4.94-.491Z" transform="translate(-128.666 -148.801)" opacity="0.2"/>
          <path id="Trazado_105480" data-name="Trazado 105480" d="M334.081,310.66H318.82a6.756,6.756,0,0,0-6.756,6.756v18.542Z" transform="translate(-131.713 -148.801)"/>
          <circle id="Elipse_4139" data-name="Elipse 4139" cx="14.515" cy="14.515" r="14.515" transform="translate(96.182 168.638) rotate(-67.425)" fill="none" stroke="#000" stroke-miterlimit="10" stroke-width="3.466"/>
          <path id="Trazado_105481" data-name="Trazado 105481" d="M221.95,297.148a10.248,10.248,0,0,0-16.988,6.876Z" transform="translate(-100.026 -144.047)" fill="none" stroke="#000" stroke-miterlimit="10" stroke-width="3.466"/>
          <path id="Trazado_105482" data-name="Trazado 105482" d="M209.8,317.15a10.247,10.247,0,0,0,17.04-6.9Z" transform="translate(-101.458 -148.68)" fill="none" stroke="#000" stroke-miterlimit="10" stroke-width="3.466"/>
          <line id="Línea_148" data-name="Línea 148" x1="26.532" y2="10.739" transform="translate(103.659 159.264)" fill="none" stroke="#000" stroke-miterlimit="10" stroke-width="3.466"/>
          <line id="Línea_149" data-name="Línea 149" y1="10.739" x2="26.531" transform="translate(100.5 151.458)" fill="none" stroke="#000" stroke-miterlimit="10" stroke-width="3.466"/>
          <path id="Trazado_105483" data-name="Trazado 105483" d="M172.4,281.082a7.322,7.322,0,0,0-11.566-8.948l-19.062,22.014a4.666,4.666,0,0,1-5.728,1.06l-9.414-5.037a19.816,19.816,0,0,1-6.608-5.723l-3.15-4.28-7.86,4.207a4.333,4.333,0,0,0-2.2,2.967l-7.621,37.93a3.8,3.8,0,0,0-.011,1.433l4.993,27.193-2.763,18.241,31.245-4.088c4.469-6.286,5.973-7.765,7.965-10.889a73.169,73.169,0,0,0,9.21-20.382l5.164-19.333a4.6,4.6,0,0,1,.442-1.06l1.912-13.459Z" transform="translate(-68.712 -136.655)"/>
          <path id="Trazado_105484" data-name="Trazado 105484" d="M78.892,421.416,127,429.867a4.876,4.876,0,0,1,3.89,5.632l-17.307,99.357L55.937,524.814,73.4,424.573C73.922,421.949,76.262,420.915,78.892,421.416Z" transform="translate(-55.937 -181.532)"/>
          <path id="Trazado_105485" data-name="Trazado 105485" d="M133.77,423.285l2.193-12.4a2.313,2.313,0,0,0-1.874-2.68l-38.506-6.811a2.313,2.313,0,0,0-2.68,1.874l-2.193,12.4Z" transform="translate(-66.224 -175.634)"/>
          <rect id="Rectángulo_31091" data-name="Rectángulo 31091" width="3.411" height="43.729" transform="translate(24.485 240.035) rotate(-79.971)"/>
        </g>
        <g id="Grupo_54899" data-name="Grupo 54899">
          <g id="Grupo_54898" data-name="Grupo 54898">
            <path id="Trazado_105486" data-name="Trazado 105486" d="M186.505,290.323l-.941-6.489a3.209,3.209,0,0,0-3.637-2.717l-1.368-9.443a3.3,3.3,0,0,0-3.738-2.792l-.441.064-1.227-8.472a5.35,5.35,0,0,0-6.063-4.528l-26.781,3.88a4.345,4.345,0,0,0-1.424.468l-24.285,13-1.76,5.778,40.319,30.442a4.581,4.581,0,0,1,3.333-2.3l19.474-2.822a6.307,6.307,0,0,0,5.354-7.029l-.278-2.215a1.1,1.1,0,0,1,.885-1.216A3.21,3.21,0,0,0,186.505,290.323Z" transform="translate(-68.435 -129.781)" fill="#f4c4a4"/>
            <line id="Línea_150" data-name="Línea 150" y1="9.928" x2="19.92" transform="translate(62.335 141.616)" fill="none" stroke="#f4c4a4" stroke-linecap="round" stroke-linejoin="round" stroke-width="4.147" opacity="0.5" style="mix-blend-mode: multiply;isolation: isolate"/>
            <g id="Grupo_54896" data-name="Grupo 54896" transform="translate(75.757)">
              <path id="Trazado_105527" data-name="Trazado 105527" d="M9.717,0H122.836a9.717,9.717,0,0,1,9.717,9.717V165.5a9.717,9.717,0,0,1-9.717,9.717H9.717A9.717,9.717,0,0,1,0,165.5V9.717A9.717,9.717,0,0,1,9.717,0Z" transform="translate(0 18.783)" fill="#fb9e36"/>
              <path id="Trazado_105487" data-name="Trazado 105487" d="M285.63,119.943V249.421l-22.016,25.3h-91.9a6.755,6.755,0,0,1-6.754-6.756V119.943a6.755,6.755,0,0,1,6.754-6.756H278.877A6.754,6.754,0,0,1,285.63,119.943Z" transform="translate(-159.021 -87.562)" fill="#fff"/>
              <path id="Trazado_105488" data-name="Trazado 105488" d="M191.447,161.812a9.242,9.242,0,1,0,9.242,9.242A9.242,9.242,0,0,0,191.447,161.812Zm0,14.674a5.433,5.433,0,1,1,5.433-5.432A5.432,5.432,0,0,1,191.447,176.486Z" transform="translate(-164.122 -101.947)" fill="#e0e0e0"/>
              <path id="Trazado_105489" data-name="Trazado 105489" d="M191.447,202.486a9.242,9.242,0,1,0,9.242,9.242A9.242,9.242,0,0,0,191.447,202.486Zm0,14.674a5.432,5.432,0,1,1,5.433-5.432A5.432,5.432,0,0,1,191.447,217.16Z" transform="translate(-164.122 -113.981)" fill="#e0e0e0"/>
              <path id="Trazado_105490" data-name="Trazado 105490" d="M191.447,243.4a9.242,9.242,0,1,0,9.242,9.242A9.242,9.242,0,0,0,191.447,243.4Zm0,14.674a5.433,5.433,0,1,1,5.433-5.432A5.432,5.432,0,0,1,191.447,258.077Z" transform="translate(-164.122 -126.086)" fill="#e0e0e0"/>
              <text id="Registration-2" data-name="Registration" transform="translate(59.731 47.259)" fill="#616161" font-size="13" font-family="YanoneKaffeesatz-Bold, Yanone Kaffeesatz" font-weight="700"><tspan x="-23.491" y="0">Registration</tspan></text>
              <g id="Grupo_54887" data-name="Grupo 54887" transform="translate(49.788 60.874)">
                <rect id="Rectángulo_31093" data-name="Rectángulo 31093" width="63.815" height="3.642" fill="#bdbdbd"/>
                <rect id="Rectángulo_31094" data-name="Rectángulo 31094" width="63.815" height="3.642" transform="translate(0 6.412)" fill="#bdbdbd"/>
                <rect id="Rectángulo_31095" data-name="Rectángulo 31095" width="63.815" height="3.642" transform="translate(0 12.823)" fill="#bdbdbd"/>
              </g>
              <g id="Grupo_54888" data-name="Grupo 54888" transform="translate(49.788 89.515)">
                <rect id="Rectángulo_31096" data-name="Rectángulo 31096" width="63.815" height="3.642" fill="#bdbdbd"/>
                <rect id="Rectángulo_31097" data-name="Rectángulo 31097" width="63.815" height="3.642" transform="translate(0 6.412)" fill="#bdbdbd"/>
                <rect id="Rectángulo_31098" data-name="Rectángulo 31098" width="63.815" height="3.642" transform="translate(0 12.823)" fill="#bdbdbd"/>
              </g>
              <g id="Grupo_54889" data-name="Grupo 54889" transform="translate(49.788 118.326)">
                <rect id="Rectángulo_31099" data-name="Rectángulo 31099" width="63.815" height="3.642" fill="#bdbdbd"/>
                <rect id="Rectángulo_31100" data-name="Rectángulo 31100" width="63.815" height="3.642" transform="translate(0 6.412)" fill="#bdbdbd"/>
                <rect id="Rectángulo_31101" data-name="Rectángulo 31101" width="63.815" height="3.642" transform="translate(0 12.823)" fill="#bdbdbd"/>
              </g>
              <g id="Grupo_54890" data-name="Grupo 54890" transform="translate(18.564 56.993)">
                <path id="Trazado_105491" data-name="Trazado 105491" d="M190.971,175.929l-8.083-8.083,2.923-2.923,5.057,5.056,11.423-12.245,3.023,2.82Z" transform="translate(-182.888 -157.733)" fill="#17c878"/>
              </g>
              <g id="Grupo_54891" data-name="Grupo 54891" transform="translate(18.564 84.059)">
                <path id="Trazado_105492" data-name="Trazado 105492" d="M190.971,214.367l-8.083-8.083,2.923-2.923,5.057,5.056,11.423-12.245,3.023,2.82Z" transform="translate(-182.888 -196.171)" fill="#17c878"/>
              </g>
              <g id="Grupo_54892" data-name="Grupo 54892" transform="translate(18.564 112.933)">
                <path id="Trazado_105493" data-name="Trazado 105493" d="M190.971,255.374l-8.083-8.083,2.923-2.923,5.057,5.056,11.423-12.245,3.023,2.82Z" transform="translate(-182.888 -237.178)" fill="#17c878"/>
              </g>
              <g id="Grupo_54894" data-name="Grupo 54894" transform="translate(36.403)">
                <path id="Trazado_105494" data-name="Trazado 105494" d="M258.439,89.943a13.447,13.447,0,0,0-26.887,0c0,.1,0,.2,0,.3v5.335h26.9V90.244C258.445,90.141,258.445,90.042,258.439,89.943Zm-18.053-2.367a4.61,4.61,0,1,1,9.219,0v1.83h-9.219Z" transform="translate(-215.123 -76.795)" fill="#bdbdbd"/>
                <g id="Grupo_54893" data-name="Grupo 54893" transform="translate(16.425)">
                  <rect id="Rectángulo_31102" data-name="Rectángulo 31102" width="9.22" height="0.47" transform="translate(8.839 12.611)" fill="#bdbdbd"/>
                  <path id="Trazado_105495" data-name="Trazado 105495" d="M258.439,89.943a13.447,13.447,0,0,0-26.887,0c0,.1,0,.2,0,.3v.47c0-.1,0-.2,0-.3a13.447,13.447,0,0,1,26.887,0c.006.1.006.2.006.3v-.47C258.445,90.141,258.445,90.042,258.439,89.943Z" transform="translate(-231.548 -76.795)" fill="#e0e0e0"/>
                </g>
                <path id="Trazado_105496" data-name="Trazado 105496" d="M258.445,95.768V101.1h-26.9V95.768c0-.1,0-.2,0-.3h26.887C258.445,95.566,258.445,95.666,258.445,95.768Z" transform="translate(-215.123 -82.319)" fill="#9a9b9c"/>
                <rect id="Rectángulo_31103" data-name="Rectángulo 31103" width="59.746" height="17.978" rx="3.968" transform="translate(0 14.221)" fill="#bdbdbd"/>
                <path id="Trazado_105497" data-name="Trazado 105497" d="M265.375,96.991h-54.56a2.594,2.594,0,0,0-2.593,2.594v.47a2.594,2.594,0,0,1,2.593-2.594h54.56a2.594,2.594,0,0,1,2.593,2.594v-.47A2.594,2.594,0,0,0,265.375,96.991Z" transform="translate(-208.222 -82.77)" fill="#e0e0e0"/>
                <path id="Trazado_105498" data-name="Trazado 105498" d="M265.375,116.86h-54.56a2.593,2.593,0,0,1-2.593-2.593v3.219a2.594,2.594,0,0,0,2.593,2.594h54.56a2.594,2.594,0,0,0,2.593-2.594v-3.219A2.593,2.593,0,0,1,265.375,116.86Z" transform="translate(-208.222 -87.881)" fill="#9a9b9c"/>
                <path id="Trazado_105499" data-name="Trazado 105499" d="M264.349,102.926H216.114a.673.673,0,0,1-.67-.671h0a.673.673,0,0,1,.67-.671h48.235a.673.673,0,0,1,.671.671h0A.673.673,0,0,1,264.349,102.926Z" transform="translate(-210.359 -84.129)" fill="#e0e0e0"/>
                <path id="Trazado_105500" data-name="Trazado 105500" d="M264.349,108.737H216.114a.673.673,0,0,1-.67-.671h0a.672.672,0,0,1,.67-.67h48.235a.673.673,0,0,1,.671.67h0A.673.673,0,0,1,264.349,108.737Z" transform="translate(-210.359 -85.848)" fill="#e0e0e0"/>
                <path id="Trazado_105501" data-name="Trazado 105501" d="M264.349,114.548H216.114a.672.672,0,0,1-.67-.671h0a.672.672,0,0,1,.67-.67h48.235a.673.673,0,0,1,.671.67h0A.673.673,0,0,1,264.349,114.548Z" transform="translate(-210.359 -87.568)" fill="#e0e0e0"/>
                <rect id="Rectángulo_31104" data-name="Rectángulo 31104" width="49.576" height="1.342" rx="0.671" transform="translate(5.085 16.89)" fill="#9a9b9c"/>
                <path id="Trazado_105502" data-name="Trazado 105502" d="M264.349,107.934H216.114a.672.672,0,0,1-.67-.67h0a.673.673,0,0,1,.67-.671h48.235a.673.673,0,0,1,.671.671h0A.673.673,0,0,1,264.349,107.934Z" transform="translate(-210.359 -85.611)" fill="#9a9b9c"/>
                <path id="Trazado_105503" data-name="Trazado 105503" d="M264.349,113.746H216.114a.673.673,0,0,1-.67-.671h0a.673.673,0,0,1,.67-.671h48.235a.673.673,0,0,1,.671.671h0A.673.673,0,0,1,264.349,113.746Z" transform="translate(-210.359 -87.33)" fill="#9a9b9c"/>
              </g>
              <rect id="Rectángulo_31105" data-name="Rectángulo 31105" width="39.818" height="17.62" transform="translate(20.191 151.79)" fill="none" stroke="#e0e0e0" stroke-linecap="round" stroke-miterlimit="10" stroke-width="6.662"/>
              <rect id="Rectángulo_31106" data-name="Rectángulo 31106" width="39.818" height="17.62" transform="translate(70.886 151.79)" fill="none" stroke="#e0e0e0" stroke-linecap="round" stroke-miterlimit="10" stroke-width="6.662"/>
              <path id="Trazado_105504" data-name="Trazado 105504" d="M324.033,306.661l-22.016,25.3h-3.743L294.766,316.6a8.578,8.578,0,0,1,7.411-8.5c.467-.064.937-.126,1.4-.2,1.64-.236,3.287-.411,4.94-.491Z" transform="translate(-197.423 -144.801)" opacity="0.2"/>
              <path id="Trazado_105505" data-name="Trazado 105505" d="M327.081,306.66H311.82a6.756,6.756,0,0,0-6.756,6.756v18.542Z" transform="translate(-200.47 -144.801)" fill="#e0e0e0"/>
              <g id="Grupo_54895" data-name="Grupo 54895" transform="translate(20.425 141.833)">
                <circle id="Elipse_4140" data-name="Elipse 4140" cx="14.515" cy="14.515" r="14.515" transform="translate(0 26.805) rotate(-67.425)" fill="none" stroke="#12263f" stroke-miterlimit="10" stroke-width="2"/>
                <path id="Trazado_105506" data-name="Trazado 105506" d="M214.95,293.148a10.248,10.248,0,0,0-16.988,6.876Z" transform="translate(-189.209 -281.879)" fill="none" stroke="#12263f" stroke-miterlimit="10" stroke-width="2"/>
                <path id="Trazado_105507" data-name="Trazado 105507" d="M202.8,313.15a10.247,10.247,0,0,0,17.04-6.9Z" transform="translate(-190.64 -286.513)" fill="none" stroke="#12263f" stroke-miterlimit="10" stroke-width="2"/>
                <line id="Línea_151" data-name="Línea 151" x1="26.532" y2="10.739" transform="translate(7.477 17.432)" fill="none" stroke="#12263f" stroke-miterlimit="10" stroke-width="2"/>
                <line id="Línea_152" data-name="Línea 152" y1="10.739" x2="26.531" transform="translate(4.317 9.626)" fill="none" stroke="#12263f" stroke-miterlimit="10" stroke-width="2"/>
              </g>
            </g>
            <path id="Trazado_105508" data-name="Trazado 105508" d="M165.4,277.082a7.322,7.322,0,0,0-11.566-8.948l-19.062,22.014a4.666,4.666,0,0,1-5.728,1.06l-9.414-5.037a19.815,19.815,0,0,1-6.608-5.723l-3.15-4.28-7.86,4.207a4.333,4.333,0,0,0-2.2,2.967l-7.621,37.93a3.8,3.8,0,0,0-.011,1.433L97.175,349.9l-2.763,18.241,31.245-4.088c4.469-6.286,5.973-7.765,7.965-10.889a73.169,73.169,0,0,0,9.21-20.382l5.163-19.333a4.6,4.6,0,0,1,.442-1.06l1.912-13.459Z" transform="translate(-61.712 -132.655)" fill="#ffd7b7"/>
            <g id="Grupo_54897" data-name="Grupo 54897" transform="translate(0 225.724)">
              <path id="Trazado_105509" data-name="Trazado 105509" d="M71.892,417.416,120,425.867a4.876,4.876,0,0,1,3.89,5.632l-17.307,99.357L48.937,520.814,66.4,420.573C66.922,417.949,69.262,416.915,71.892,417.416Z" transform="translate(-48.937 -403.256)" fill="#bf7726"/>
              <path id="Trazado_105510" data-name="Trazado 105510" d="M126.77,419.285l2.193-12.4a2.313,2.313,0,0,0-1.874-2.68l-38.506-6.81a2.313,2.313,0,0,0-2.68,1.874l-2.193,12.4Z" transform="translate(-59.224 -397.358)" fill="#e0e0e0"/>
              <rect id="Rectángulo_31107" data-name="Rectángulo 31107" width="3.411" height="43.729" transform="translate(24.485 14.311) rotate(-79.971)" fill="#bdbdbd"/>
            </g>
          </g>
        </g>
      </g>
      <g id="Grupo_54905" data-name="Grupo 54905" transform="translate(183.847 130.341)">
        <g id="Grupo_54901" data-name="Grupo 54901" transform="translate(4.929 2.817)" opacity="0.05" style="mix-blend-mode: multiply;isolation: isolate">
          <path id="Trazado_105511" data-name="Trazado 105511" d="M351.658,301.228l8.382,8.748c-.147-.571,18.555,10.971,18.555,10.971l8.555-13.119-5.359-12.88-33.044-15.861-5.741-.149C342.929,279.863,351.658,301.228,351.658,301.228Z" transform="translate(-317.247 -259.105)"/>
          <path id="Trazado_105512" data-name="Trazado 105512" d="M362.6,421.954l-1.962-13.7a2.287,2.287,0,0,1,1.94-2.588l38.281-5.484a2.287,2.287,0,0,1,2.588,1.94l1.962,13.7Z" transform="translate(-322.458 -294.969)"/>
          <rect id="Rectángulo_31108" data-name="Rectángulo 31108" width="43.246" height="4.758" transform="translate(39.472 122.276) rotate(-8.152)"/>
          <path id="Trazado_105513" data-name="Trazado 105513" d="M404.421,421.126,356.6,427.92a4.823,4.823,0,0,0-4.028,5.442l14.61,103.916,57.3-8.057-14.734-104.8C409.316,421.814,407.036,420.716,404.421,421.126Z" transform="translate(-320.062 -301.147)"/>
          <path id="Trazado_105514" data-name="Trazado 105514" d="M391.107,276.926a1.223,1.223,0,0,0-.834-.7l-44.566-10.814a3.309,3.309,0,0,0-4.043,3.769l1.117,6.579a2.34,2.34,0,0,1,.017.594l5.34.139,30.73,14.75,4.984,11.978-4.961,7.608-3,4.593.847.778a.92.92,0,0,1-.1,1.435l-6.247,4.3a.921.921,0,0,1-.653.153l-.971-.139c2,11.681,11.438,21.979,22.633,27.036a3.533,3.533,0,0,1,.421-.964l10.819-16.764,3.407-5.279a7.184,7.184,0,0,0,1.078-4.9L405.615,310.3Z" transform="translate(-316.836 -255.074)"/>
          <path id="Trazado_105515" data-name="Trazado 105515" d="M390.885,315.7l-68.987-60.6-7.61,8.506L383.2,324.721a3.641,3.641,0,0,0,5.254-.444l2.862-3.564A3.641,3.641,0,0,0,390.885,315.7Z" transform="translate(-308.751 -252.051)"/>
          <path id="Trazado_105516" data-name="Trazado 105516" d="M311.962,262.322l-5.538-11.55,13.148,3.044Z" transform="translate(-306.425 -250.772)"/>
          <path id="Trazado_105517" data-name="Trazado 105517" d="M306.425,250.772l2.146,4.475,2.758-3.34Z" transform="translate(-306.425 -250.772)"/>
          <path id="Trazado_105518" data-name="Trazado 105518" d="M366.422,327.429l-4.374-.629a.921.921,0,0,1-.7-.518l-2.261-4.8-.059-.162-1.672-6.492-3.9-14.015-4.5-11.737a8.178,8.178,0,0,0-8.775-5.173l-2,.281a7.839,7.839,0,0,0-3.85,10.247l1.99,4.531,2.6,12.941.753,21.62a5.791,5.791,0,0,0,.155,1.144l3.281,13.729a6.931,6.931,0,0,0,1.457,2.872l7.267,8.554a3.506,3.506,0,0,1,.756,1.536l2.093,9.774,35.693-5.018-1.436-10.212a3.52,3.52,0,0,1,.108-1.442C377.86,349.407,368.418,339.11,366.422,327.429Z" transform="translate(-314.486 -260.551)"/>
        </g>
        <g id="Grupo_54904" data-name="Grupo 54904">
          <g id="Grupo_54903" data-name="Grupo 54903">
            <path id="Trazado_105519" data-name="Trazado 105519" d="M344.658,297.228l8.382,8.748c-.147-.571,18.555,10.971,18.555,10.971l8.555-13.119-5.359-12.88-33.044-15.861-5.741-.149C335.929,275.863,344.658,297.228,344.658,297.228Z" transform="translate(-310.247 -255.105)" fill="#f4c4a4"/>
            <path id="Trazado_105520" data-name="Trazado 105520" d="M355.6,417.954l-1.962-13.7a2.287,2.287,0,0,1,1.94-2.588l38.281-5.484a2.287,2.287,0,0,1,2.588,1.94l1.962,13.7Z" transform="translate(-315.458 -290.968)" fill="#e0e0e0"/>
            <rect id="Rectángulo_31109" data-name="Rectángulo 31109" width="43.246" height="4.758" transform="translate(39.472 122.276) rotate(-8.152)" fill="#bdbdbd"/>
            <path id="Trazado_105521" data-name="Trazado 105521" d="M397.421,417.126,349.6,423.92a4.823,4.823,0,0,0-4.028,5.442l14.61,103.916,57.3-8.057-14.734-104.8C402.316,417.814,400.036,416.716,397.421,417.126Z" transform="translate(-313.062 -297.147)" fill="#bf7726"/>
            <path id="Trazado_105522" data-name="Trazado 105522" d="M384.107,272.926a1.223,1.223,0,0,0-.834-.7l-44.566-10.814a3.309,3.309,0,0,0-4.043,3.769l1.117,6.579a2.339,2.339,0,0,1,.017.594l5.34.139,30.73,14.751,4.984,11.978-4.961,7.608-3,4.593.847.778a.92.92,0,0,1-.1,1.435l-6.246,4.3a.921.921,0,0,1-.653.153l-.971-.139c2,11.681,11.438,21.979,22.633,27.036a3.537,3.537,0,0,1,.421-.964l10.819-16.764,3.407-5.279a7.184,7.184,0,0,0,1.078-4.9L398.615,306.3Z" transform="translate(-309.836 -251.074)" fill="#ffd7b7"/>
            <path id="Trazado_105523" data-name="Trazado 105523" d="M383.886,311.7l-68.987-60.6-7.61,8.506L376.2,320.721a3.641,3.641,0,0,0,5.254-.444l2.862-3.564A3.641,3.641,0,0,0,383.886,311.7Z" transform="translate(-301.751 -248.051)" fill="#f1d54e"/>
            <path id="Trazado_105524" data-name="Trazado 105524" d="M304.962,258.322l-5.538-11.55,13.148,3.044Z" transform="translate(-299.425 -246.772)" fill="#ffd7b7"/>
            <g id="Grupo_54902" data-name="Grupo 54902">
              <path id="Trazado_105525" data-name="Trazado 105525" d="M299.425,246.772l2.146,4.475,2.758-3.34Z" transform="translate(-299.425 -246.772)" fill="#17c878"/>
            </g>
            <path id="Trazado_105526" data-name="Trazado 105526" d="M359.422,323.429l-4.374-.629a.921.921,0,0,1-.7-.518l-2.261-4.8-.058-.162-1.672-6.492-3.9-14.015-4.5-11.737a8.178,8.178,0,0,0-8.775-5.173l-2,.281a7.839,7.839,0,0,0-3.85,10.247l1.99,4.531,2.6,12.941.753,21.62a5.8,5.8,0,0,0,.155,1.143l3.281,13.729a6.931,6.931,0,0,0,1.457,2.872l7.268,8.554a3.506,3.506,0,0,1,.756,1.536l2.093,9.774,35.693-5.018-1.436-10.212a3.52,3.52,0,0,1,.108-1.442C370.86,345.407,361.418,335.11,359.422,323.429Z" transform="translate(-307.486 -256.551)" fill="#ffd7b7"/>
          </g>
        </g>
      </g>
    </g>
  </g>
</svg>
