<svg xmlns="http://www.w3.org/2000/svg" width="52.127" height="48.668" viewBox="0 0 52.127 48.668">
  <g id="reciclar" transform="translate(0 -16.987)">
    <g id="Grupo_54274" data-name="Grupo 54274" transform="translate(1.018 18.005)">
      <path id="Trazado_104564" data-name="Trazado 104564" d="M219.213,41.8l10.339,3.641,2.016-10.774-2.059,1.189-3.892-6.742a3.45,3.45,0,0,0-3.535-2.122h-8.672l4.336,7.51,3.527,6.109Z" transform="translate(-192.7 -26.987)" fill="#e2f6c6" fill-rule="evenodd"/>
      <path id="Trazado_104565" data-name="Trazado 104565" d="M129.776,43.695l5.31-9.2-4.336-7.511a3.45,3.45,0,0,0-3.535,2.122l-5.676,9.831a1.192,1.192,0,0,0,.435,1.624l6.178,3.567A1.192,1.192,0,0,0,129.776,43.695Z" transform="translate(-110.041 -26.986)" fill="#127c4c" fill-rule="evenodd"/>
      <path id="Trazado_104566" data-name="Trazado 104566" d="M357.31,229.081a1.192,1.192,0,0,0-.435,1.624l5.311,9.2h8.672a3.45,3.45,0,0,0-.07-4.123l-5.676-9.831a1.193,1.193,0,0,0-1.624-.435Z" transform="translate(-321.417 -205.16)" fill="#127c4c" fill-rule="evenodd"/>
      <path id="Trazado_104567" data-name="Trazado 104567" d="M274.779,347.263h-7.054v-2.378l-8.322,7.133,8.322,7.133v-2.378h7.785a3.45,3.45,0,0,0,3.606-2l4.336-7.51Z" transform="translate(-234.01 -312.52)" fill="#e2f6c6" fill-rule="evenodd"/>
      <path id="Trazado_104568" data-name="Trazado 104568" d="M75.124,376.563V369.43a1.192,1.192,0,0,0-1.189-1.189H63.314l-4.336,7.51a3.45,3.45,0,0,0,3.606,2H73.935A1.192,1.192,0,0,0,75.124,376.563Z" transform="translate(-53.992 -333.498)" fill="#127c4c" fill-rule="evenodd"/>
      <path id="Trazado_104569" data-name="Trazado 104569" d="M19.322,229.783l3.527-6.109,2.059,1.189-2.016-10.774L12.553,217.73l2.059,1.189L10.72,225.66a3.45,3.45,0,0,0-.07,4.123l4.336,7.511Z" transform="translate(-10 -195.04)" fill="#e2f6c6" fill-rule="evenodd"/>
    </g>
    <g id="Grupo_54275" data-name="Grupo 54275" transform="translate(0 16.987)">
      <path id="Trazado_104570" data-name="Trazado 104570" d="M112.476,32.464l6.178,3.567a2.188,2.188,0,0,0,1.1.3,2.23,2.23,0,0,0,.577-.076,2.192,2.192,0,0,0,1.34-1.027l4.429-7.671,2.136,3.7-1.178.68a1.018,1.018,0,0,0,.171,1.842l10.339,3.641a1.018,1.018,0,0,0,1.339-.773l2.016-10.774a1.018,1.018,0,0,0-1.51-1.069l-1.177.68-3.383-5.86a4.44,4.44,0,0,0-4.417-2.631h-8.672a4.44,4.44,0,0,0-4.417,2.631l-.384.665a1.018,1.018,0,1,0,1.763,1.018l.384-.665c.609-1.056,1.034-1.487,2.08-1.588l3.734,6.468L119.9,34.2a.174.174,0,0,1-.233.063L113.494,30.7a.174.174,0,0,1-.063-.233l.71-1.229a1.018,1.018,0,0,0-1.763-1.018l-.71,1.229a2.21,2.21,0,0,0,.808,3.014Zm17.957-13.441a2.484,2.484,0,0,1,2.654,1.613l3.892,6.742a1.018,1.018,0,0,0,1.391.373l.142-.082L137.121,35.1l-7.13-2.511.142-.082a1.018,1.018,0,0,0,.373-1.391l-6.981-12.092Z" transform="translate(-100.033 -16.987)"/>
      <path id="Trazado_104571" data-name="Trazado 104571" d="M20.961,219.782H12.1l2.136-3.7,1.178.68a1.018,1.018,0,0,0,1.51-1.069l-2.017-10.774a1.018,1.018,0,0,0-1.339-.773L3.233,207.786a1.018,1.018,0,0,0-.171,1.842l1.177.68-3.383,5.86a4.44,4.44,0,0,0-.07,5.141l4.336,7.511a4.44,4.44,0,0,0,4.487,2.51H20.961a2.209,2.209,0,0,0,2.207-2.207v-7.133a2.21,2.21,0,0,0-2.207-2.207Zm-18.341-2.6,3.892-6.742a1.018,1.018,0,0,0-.373-1.391L6,208.972l7.131-2.511,1.391,7.431-.142-.082a1.018,1.018,0,0,0-1.391.373L6,226.274,2.55,220.291a2.484,2.484,0,0,1,.07-3.1Zm18.512,11.936a.175.175,0,0,1-.171.171H9.61c-1.219,0-1.8-.152-2.416-1.007l3.734-6.468H20.961a.175.175,0,0,1,.171.171Z" transform="translate(0 -185.039)"/>
      <path id="Trazado_104572" data-name="Trazado 104572" d="M275.279,226.286l-5.676-9.831a2.21,2.21,0,0,0-3.015-.808l-6.178,3.567a2.21,2.21,0,0,0-.808,3.015l4.429,7.671h-4.273v-1.36a1.018,1.018,0,0,0-1.681-.773l-8.322,7.133a1.018,1.018,0,0,0,0,1.546l8.322,7.133a1.018,1.018,0,0,0,1.681-.773v-1.36h6.767a4.44,4.44,0,0,0,4.487-2.51l4.336-7.511h0a4.439,4.439,0,0,0-.07-5.141Zm-13.912-5.075a.175.175,0,0,1,.062-.233l6.178-3.567a.175.175,0,0,1,.233.063l5.676,9.831a2.416,2.416,0,0,1,.335,2.6h-7.467Zm7.883,16.708a2.484,2.484,0,0,1-2.724,1.491h-7.785a1.018,1.018,0,0,0-1.018,1.018v.164l-5.74-4.92,5.74-4.92v.164a1.018,1.018,0,0,0,1.018,1.018H272.7Z" transform="translate(-224.009 -195.156)"/>
      <path id="Trazado_104573" data-name="Trazado 104573" d="M143.431,85.378a1.018,1.018,0,1,0,0-2.036h0a1.018,1.018,0,0,0,0,2.036Z" transform="translate(-127.914 -76.586)"/>
    </g>
  </g>
</svg>
