<svg xmlns="http://www.w3.org/2000/svg" width="816.905" height="276.974" viewBox="0 0 816.905 276.974">
  <g id="Grupo_82784" data-name="Grupo 82784" transform="translate(-393.604 -3259.723)">
    <path id="Trazado_105804" data-name="Trazado 105804" d="M821.809,259.438H117.162a41.135,41.135,0,0,0-41.136,41.133V419.2a41.136,41.136,0,0,0,41.136,41.136H821.809A41.136,41.136,0,0,0,862.947,419.2V300.571A41.136,41.136,0,0,0,821.809,259.438Z" transform="translate(317.578 3027.955)" fill="#e2f6c6"/>
    <g id="Grupo_54994" data-name="Grupo 54994" transform="translate(416.158 3259.723)">
      <g id="Grupo_54988" data-name="Grupo 54988">
        <g id="Grupo_54987" data-name="Grupo 54987">
          <g id="Grupo_54986" data-name="Grupo 54986">
            <g id="Grupo_54985" data-name="Grupo 54985">
              <g id="Grupo_54983" data-name="Grupo 54983">
                <path id="Trazado_105805" data-name="Trazado 105805" d="M446.609,456.6H129.976a44.9,44.9,0,0,1-44.847-44.852V293.122a44.9,44.9,0,0,1,44.847-44.852H444.332a3.718,3.718,0,0,1,0,7.435H129.976a37.458,37.458,0,0,0-37.414,37.417v118.63a37.458,37.458,0,0,0,37.414,37.419H446.609a3.716,3.716,0,1,1,0,7.433Z" transform="translate(-85.129 -248.27)" fill="#17c878"/>
              </g>
              <g id="Grupo_54984" data-name="Grupo 54984" transform="translate(424.019)">
                <path id="Trazado_105806" data-name="Trazado 105806" d="M581.75,456.6H259.986a3.716,3.716,0,1,1,0-7.433H581.75a37.461,37.461,0,0,0,37.419-37.419V293.122a37.461,37.461,0,0,0-37.419-37.417H269.1a3.718,3.718,0,0,1,0-7.435H581.75A44.9,44.9,0,0,1,626.6,293.122v118.63A44.9,44.9,0,0,1,581.75,456.6Z" transform="translate(-256.27 -248.27)" fill="#17c878"/>
              </g>
            </g>
          </g>
        </g>
      </g>
      <g id="Grupo_54993" data-name="Grupo 54993" transform="translate(356.834 200.963)">
        <g id="Grupo_54989" data-name="Grupo 54989">
          <path id="Trazado_105807" data-name="Trazado 105807" d="M269.957,402.486a3.718,3.718,0,0,1-3.716-3.716V370.183a33.408,33.408,0,0,0-33.371-33.368,3.716,3.716,0,1,1,0-7.433,40.849,40.849,0,0,1,40.8,40.8V398.77A3.718,3.718,0,0,1,269.957,402.486Z" transform="translate(-229.153 -329.382)" fill="#17c878"/>
        </g>
        <g id="Grupo_54992" data-name="Grupo 54992" transform="translate(11.708 39.993)">
          <g id="Grupo_54990" data-name="Grupo 54990" transform="translate(25.379)">
            <path id="Trazado_105808" data-name="Trazado 105808" d="M247.838,381.541a3.715,3.715,0,0,1-3.716-3.716V349.24a3.716,3.716,0,1,1,7.433,0v19.613l19.008-19a3.716,3.716,0,0,1,5.255,5.255l-25.351,25.348A3.716,3.716,0,0,1,247.838,381.541Z" transform="translate(-244.122 -345.524)" fill="#17c878"/>
          </g>
          <g id="Grupo_54991" data-name="Grupo 54991" transform="translate(0 3.205)">
            <path id="Trazado_105809" data-name="Trazado 105809" d="M262.974,379.63a3.709,3.709,0,0,1-2.629-1.088l-25.378-25.381a3.717,3.717,0,0,1,5.258-5.255L265.6,373.287a3.715,3.715,0,0,1-2.629,6.343Z" transform="translate(-233.878 -346.818)" fill="#17c878"/>
          </g>
        </g>
      </g>
    </g>
  </g>
</svg>
