<svg xmlns="http://www.w3.org/2000/svg" width="150" height="150" viewBox="0 0 150 150">
  <g id="Grupo_82781" data-name="Grupo 82781" transform="translate(-515.496 -2468.234)">
    <circle id="Elipse_4146" data-name="Elipse 4146" cx="75" cy="75" r="75" transform="translate(515.496 2468.234)" fill="#fff"/>
    <g id="hand-hands-clean-protect-protection" transform="translate(543.197 2496.234)">
      <path id="Trazado_105680" data-name="Trazado 105680" d="M58.55,48.6c.735-.39,1.2-.6,1.2-.6l9-15.585a4.5,4.5,0,0,1,7.8,4.5l-9,15.585v6l-7.5,15V90h-30V73.5l-.15-.315,1.5-1.545A20.422,20.422,0,0,0,37.55,57V42h3V7.5a4.5,4.5,0,1,1,9,0v9a4.5,4.5,0,0,1,9,0Z" transform="translate(13.95 0.5)" fill="#ffd4a5"/>
      <path id="Trazado_105682" data-name="Trazado 105682" d="M40,13.5V39H37V36l-6-2.25V13.5a4.5,4.5,0,1,1,9,0Z" transform="translate(14.5 3.5)" fill="#ffd4a5"/>
      <path id="Trazado_105683" data-name="Trazado 105683" d="M51,30V48a20.422,20.422,0,0,1-6.15,14.64l-1.5,1.545L27,81,9.15,62.64A20.422,20.422,0,0,1,3,48V30l24-9Z" transform="translate(0.501 9.5)" fill="#17c878"/>
      <path id="Trazado_105684" data-name="Trazado 105684" d="M43,32.5V45.79A14.988,14.988,0,0,1,38.6,56.4L25,70l-13.6-13.6A14.986,14.986,0,0,1,7,45.79V32.5L25,25Z" transform="translate(2.501 11.5)" fill="#f1d54e"/>
      <path id="Trazado_105686" data-name="Trazado 105686" d="M34,19.5V30.75l-9-3.375V19.5a4.5,4.5,0,1,1,9,0Z" transform="translate(11.5 6.5)" fill="#ffd4a5"/>
      <path id="Trazado_105687" data-name="Trazado 105687" d="M21,12l-6.885,2.115L12,21,9.885,14.115,3,12,9.885,9.885,12,3l2.115,6.885Z" transform="translate(0.501 0.5)" fill="#f1d54e"/>
      <path id="Trazado_105689" data-name="Trazado 105689" d="M45,33a1.5,1.5,0,0,0-.923-1.385l-18-7.5a1.51,1.51,0,0,0-1.155,0l-18,7.5A1.5,1.5,0,0,0,6,33V46.287a16.4,16.4,0,0,0,4.833,11.667L24.439,71.56a1.5,1.5,0,0,0,2.121,0L40.167,57.953A16.4,16.4,0,0,0,45,46.287ZM42,46.287a13.417,13.417,0,0,1-3.954,9.546L25.5,68.378,12.954,55.832A13.417,13.417,0,0,1,9,46.287V34l16.5-6.876L42,34Z" transform="translate(2.001 11)"/>
      <path id="Trazado_105690" data-name="Trazado 105690" d="M16.879,41.231l-2.121,2.121,5.3,5.3a1.5,1.5,0,0,0,2.121,0L34.909,35.929l-2.121-2.121L21.121,45.475Z" transform="translate(6.38 15.904)"/>
      <path id="Trazado_105691" data-name="Trazado 105691" d="M89.6,29.96a6.009,6.009,0,0,0-8.2,2.2L74,44.975V17a5.992,5.992,0,0,0-6-6,5.859,5.859,0,0,0-3,.84V8A6,6,0,1,0,53,8v3.825A5.929,5.929,0,0,0,50,11a6,6,0,0,0-6,6v3.825A5.929,5.929,0,0,0,41,20a6,6,0,0,0-6,6v5.715L28.025,29.09a1.576,1.576,0,0,0-1.05,0l-24,9A1.51,1.51,0,0,0,2,39.5v18a21.807,21.807,0,0,0,6.585,15.69L26.42,91.549a1.521,1.521,0,0,0,2.16,0L42.5,77.224V90.5A1.5,1.5,0,0,0,44,92H74a1.5,1.5,0,0,0,1.5-1.5V74.359l7.335-14.685A1.5,1.5,0,0,0,83,59V53.4l8.8-15.24a6.028,6.028,0,0,0-2.2-8.2ZM47,17a3,3,0,0,1,6,0V39.5a1.51,1.51,0,0,0-.975-1.41L47,36.215Zm-9,9a3,3,0,1,1,6,0v9.09l-6-2.25ZM27.5,88.354,10.73,71.089a.015.015,0,0,1-.015-.015A18.873,18.873,0,0,1,5,57.5V40.535L27.5,32.1,50,40.535V57.5a18.886,18.886,0,0,1-5.73,13.59ZM89.194,36.665l-9,15.585A1.594,1.594,0,0,0,80,53v5.64L72.664,73.324A1.5,1.5,0,0,0,72.5,74V89h-27V74.134l.915-.945A21.807,21.807,0,0,0,53,57.5v-15h3V8a3,3,0,0,1,6,0V42.5h3V17a3,3,0,0,1,6,0V48.2c-3.63,1.995-10.5,6.54-10.5,12.3h3c0-4.635,7.815-9.255,10.83-10.635A1.574,1.574,0,0,0,75,49.25l9-15.585a3,3,0,0,1,5.595,1.5A2.923,2.923,0,0,1,89.194,36.665Z" transform="translate(0.001 0)"/>
      <path id="Trazado_105692" data-name="Trazado 105692" d="M3.058,13.934,9.18,15.821l1.887,6.12a1.5,1.5,0,0,0,2.868,0l1.887-6.12,6.129-1.887a1.5,1.5,0,0,0,0-2.868L15.822,9.179l-1.887-6.12a1.5,1.5,0,0,0-2.868,0L9.18,9.179,3.058,11.066a1.5,1.5,0,0,0,0,2.868Zm7.764-2.121a1.5,1.5,0,0,0,.991-.993L12.5,8.591l.687,2.229a1.5,1.5,0,0,0,.991.993l2.23.687-2.23.687a1.5,1.5,0,0,0-.991.993L12.5,16.409l-.687-2.229a1.5,1.5,0,0,0-.991-.993L8.592,12.5Z" transform="translate(0 0)"/>
      <path id="Trazado_105693" data-name="Trazado 105693" d="M58,2h3V5H58Z" transform="translate(28 0)"/>
      <path id="Trazado_105694" data-name="Trazado 105694" d="M56,4h3V7H56Z" transform="translate(27 1)"/>
      <path id="Trazado_105695" data-name="Trazado 105695" d="M60,4h3V7H60Z" transform="translate(29 1)"/>
      <path id="Trazado_105696" data-name="Trazado 105696" d="M58,6h3V9H58Z" transform="translate(28 2)"/>
      <path id="Trazado_105697" data-name="Trazado 105697" d="M25,2h3V5H25Z" transform="translate(11.5 0)"/>
      <path id="Trazado_105698" data-name="Trazado 105698" d="M23,4h3V7H23Z" transform="translate(10.5 1)"/>
      <path id="Trazado_105699" data-name="Trazado 105699" d="M27,4h3V7H27Z" transform="translate(12.5 1)"/>
      <path id="Trazado_105700" data-name="Trazado 105700" d="M25,6h3V9H25Z" transform="translate(11.5 2)"/>
      <path id="Trazado_105701" data-name="Trazado 105701" d="M18,12h3v3H18Z" transform="translate(8.001 5)"/>
      <path id="Trazado_105702" data-name="Trazado 105702" d="M16,14h3v3H16Z" transform="translate(7.001 6)"/>
      <path id="Trazado_105703" data-name="Trazado 105703" d="M20,14h3v3H20Z" transform="translate(9.001 6)"/>
      <path id="Trazado_105704" data-name="Trazado 105704" d="M18,16h3v3H18Z" transform="translate(8.001 7)"/>
      <path id="Trazado_105705" data-name="Trazado 105705" d="M54,12h3v3H54Z" transform="translate(26 5)"/>
      <path id="Trazado_105706" data-name="Trazado 105706" d="M52,14h3v3H52Z" transform="translate(25 6)"/>
      <path id="Trazado_105707" data-name="Trazado 105707" d="M56,14h3v3H56Z" transform="translate(27 6)"/>
      <path id="Trazado_105708" data-name="Trazado 105708" d="M54,16h3v3H54Z" transform="translate(26 7)"/>
    </g>
  </g>
</svg>
