<svg id="radioactividad" xmlns="http://www.w3.org/2000/svg" width="42.5" height="51" viewBox="0 0 42.5 51">
  <path id="Trazado_106913" data-name="Trazado 106913" d="M34.133,34.133h35.7v44.2h-35.7Zm0,0" transform="translate(-30.733 -30.733)" fill="#fb9e36"/>
  <g id="Grupo_82595" data-name="Grupo 82595" transform="translate(0.85 0.85)">
    <path id="Trazado_106915" data-name="Trazado 106915" d="M49.335,10.235a1.713,1.713,0,0,1-1.7,1.7h-37.4a1.705,1.705,0,0,1-1.7-1.7,1.711,1.711,0,0,1,1.7-1.7h37.4A1.7,1.7,0,0,1,49.335,10.235Zm0,0" transform="translate(-8.535 -8.535)" fill="#f57c00"/>
    <path id="Trazado_106916" data-name="Trazado 106916" d="M49.335,163.833a1.713,1.713,0,0,1-1.7,1.7h-37.4a1.7,1.7,0,1,1,0-3.4h37.4A1.7,1.7,0,0,1,49.335,163.833Zm0,0" transform="translate(-8.535 -146.833)" fill="#f57c00"/>
    <path id="Trazado_106917" data-name="Trazado 106917" d="M49.335,317.434a1.713,1.713,0,0,1-1.7,1.7h-37.4a1.7,1.7,0,0,1,0-3.4h37.4A1.7,1.7,0,0,1,49.335,317.434Zm0,0" transform="translate(-8.535 -285.134)" fill="#f57c00"/>
    <path id="Trazado_106918" data-name="Trazado 106918" d="M49.335,471.032a1.712,1.712,0,0,1-1.7,1.7h-37.4a1.7,1.7,0,1,1,0-3.4h37.4A1.705,1.705,0,0,1,49.335,471.032Zm0,0" transform="translate(-8.535 -423.432)" fill="#f57c00"/>
  </g>
  <path id="Trazado_106919" data-name="Trazado 106919" d="M46.785,10.235a1.713,1.713,0,0,1-1.7,1.7H10.235a1.705,1.705,0,0,1-1.7-1.7,1.711,1.711,0,0,1,1.7-1.7h34.85A1.706,1.706,0,0,1,46.785,10.235Zm0,0" transform="translate(-7.685 -7.685)" fill="#bf7726"/>
  <path id="Trazado_106920" data-name="Trazado 106920" d="M46.785,163.833a1.713,1.713,0,0,1-1.7,1.7H10.235a1.7,1.7,0,1,1,0-3.4h34.85A1.706,1.706,0,0,1,46.785,163.833Zm0,0" transform="translate(-7.685 -145.983)" fill="#bf7726"/>
  <path id="Trazado_106921" data-name="Trazado 106921" d="M46.785,317.434a1.713,1.713,0,0,1-1.7,1.7H10.235a1.7,1.7,0,0,1,0-3.4h34.85A1.706,1.706,0,0,1,46.785,317.434Zm0,0" transform="translate(-7.685 -284.284)" fill="#bf7726"/>
  <path id="Trazado_106922" data-name="Trazado 106922" d="M46.785,471.032a1.713,1.713,0,0,1-1.7,1.7H10.235a1.7,1.7,0,1,1,0-3.4h34.85A1.706,1.706,0,0,1,46.785,471.032Zm0,0" transform="translate(-7.685 -422.582)" fill="#bf7726"/>
  <path id="Trazado_106923" data-name="Trazado 106923" d="M138.165,171.483a9.35,9.35,0,1,1-9.35-9.35A9.35,9.35,0,0,1,138.165,171.483Zm0,0" transform="translate(-107.565 -145.983)" fill="#ffe35c"/>
  <path id="Trazado_106924" data-name="Trazado 106924" d="M42.5,2.55A2.55,2.55,0,0,0,39.95,0H2.55a2.55,2.55,0,1,0,0,5.1V15.3a2.55,2.55,0,1,0,0,5.1V30.6a2.55,2.55,0,1,0,0,5.1V45.9a2.55,2.55,0,1,0,0,5.1h37.4a2.55,2.55,0,1,0,0-5.1V35.7a2.55,2.55,0,1,0,0-5.1V20.4a2.55,2.55,0,1,0,0-5.1V5.1A2.55,2.55,0,0,0,42.5,2.55Zm-40.8,0a.85.85,0,0,1,.85-.85h37.4a.85.85,0,1,1,0,1.7H2.55A.85.85,0,0,1,1.7,2.55Zm0,15.3a.83.83,0,0,1,.26-.605A.812.812,0,0,1,2.55,17H15.624a10.258,10.258,0,0,0-1.955,1.7H2.55A.85.85,0,0,1,1.7,17.85ZM29.75,25.5a8.5,8.5,0,1,1-8.5-8.5A8.5,8.5,0,0,1,29.75,25.5ZM4.25,20.4h8.18a10.113,10.113,0,0,0,0,10.2H4.25ZM1.7,33.15a.831.831,0,0,1,.26-.605.815.815,0,0,1,.59-.245H13.669A10.259,10.259,0,0,0,15.624,34H2.55A.85.85,0,0,1,1.7,33.15Zm39.1,15.3a.85.85,0,0,1-.85.85H2.55a.85.85,0,1,1,0-1.7h37.4A.85.85,0,0,1,40.8,48.45ZM38.25,45.9h-34V35.7h34ZM40.8,33.15a.832.832,0,0,1-.26.605.812.812,0,0,1-.59.245H26.876a10.268,10.268,0,0,0,1.955-1.7H39.95A.85.85,0,0,1,40.8,33.15ZM38.25,30.6H30.07a10.115,10.115,0,0,0,0-10.2h8.18ZM40.8,17.85a.833.833,0,0,1-.26.605.815.815,0,0,1-.59.245H28.831A10.268,10.268,0,0,0,26.876,17H39.95A.85.85,0,0,1,40.8,17.85ZM38.25,15.3h-34V5.1h34Zm0,0"/>
  <path id="Trazado_106925" data-name="Trazado 106925" d="M60.582,70.061a.85.85,0,0,0,.6-1.453.889.889,0,0,0-1.207,0,.862.862,0,0,0,0,1.207A.893.893,0,0,0,60.582,70.061Zm0,0" transform="translate(-53.782 -61.562)"/>
  <path id="Trazado_106926" data-name="Trazado 106926" d="M60.584,98.117a.85.85,0,0,0,.85-.85v-2.55a.85.85,0,0,0-1.7,0v2.55A.85.85,0,0,0,60.584,98.117Zm0,0" transform="translate(-53.784 -84.517)"/>
  <path id="Trazado_106927" data-name="Trazado 106927" d="M59.978,222.112a.862.862,0,0,0,0,1.207.85.85,0,1,0,0-1.207Zm0,0" transform="translate(-53.782 -199.766)"/>
  <path id="Trazado_106928" data-name="Trazado 106928" d="M60.584,247.465a.85.85,0,0,0-.85.85v2.55a.85.85,0,0,0,1.7,0v-2.55A.85.85,0,0,0,60.584,247.465Zm0,0" transform="translate(-53.784 -222.815)"/>
  <path id="Trazado_106929" data-name="Trazado 106929" d="M61.043,375.635a.489.489,0,0,0-.145-.077.527.527,0,0,0-.162-.051.879.879,0,0,0-.765.23.85.85,0,1,0,1.207,0C61.136,375.7,61.093,375.669,61.043,375.635Zm0,0" transform="translate(-53.775 -338.091)"/>
  <path id="Trazado_106930" data-name="Trazado 106930" d="M60.584,401.066a.85.85,0,0,0-.85.85v2.55a.85.85,0,1,0,1.7,0v-2.55A.85.85,0,0,0,60.584,401.066Zm0,0" transform="translate(-53.784 -361.116)"/>
  <path id="Trazado_106931" data-name="Trazado 106931" d="M156.55,207.746c-.04,0-.077.009-.117.01a3.359,3.359,0,0,0-.352-.85,3.1,3.1,0,0,0,.41-1.072,3.429,3.429,0,0,0-.207-1.96.851.851,0,0,0-1.568.661,1.692,1.692,0,0,1,.133.661,1.778,1.778,0,0,1-.029.318c-.009.041-.024.08-.035.12a3.277,3.277,0,0,0-3.273,0c-.01-.039-.026-.077-.034-.116a1.82,1.82,0,0,1-.03-.321,1.7,1.7,0,0,1,.133-.663.851.851,0,0,0-1.567-.661,3.425,3.425,0,0,0-.206,1.964,3.484,3.484,0,0,0,.17.595,3.376,3.376,0,0,0,.237.469,3.363,3.363,0,0,0-.352.85c-.04,0-.077-.01-.117-.01a3.4,3.4,0,0,0-3.207,2.267.853.853,0,1,0,1.606.573,1.7,1.7,0,0,1,1.6-1.133c.047,0,.085.019.128.022a3.393,3.393,0,0,0,1.518,2.026,1.683,1.683,0,0,1-1.078,1.256.85.85,0,1,0,.565,1.6,3.394,3.394,0,0,0,2.153-2.369c.039,0,.076.012.115.012s.076-.01.115-.012a3.4,3.4,0,0,0,2.153,2.369.85.85,0,0,0,.564-1.6,1.683,1.683,0,0,1-1.074-1.259,3.393,3.393,0,0,0,1.514-2.023c.045,0,.081-.022.127-.022a1.7,1.7,0,0,1,1.6,1.133.85.85,0,0,0,.8.567.852.852,0,0,0,.767-.483.85.85,0,0,0,.035-.65A3.405,3.405,0,0,0,156.55,207.746Zm-1.7.85a1.7,1.7,0,1,1-1.7-1.7A1.7,1.7,0,0,1,154.85,208.6Zm0,0" transform="translate(-131.901 -183.096)"/>
</svg>
