<svg xmlns="http://www.w3.org/2000/svg" width="100" height="100" viewBox="0 0 100 100">
  <path id="Trazado_106109" data-name="Trazado 106109" d="M100.333,2H3.667A1.667,1.667,0,0,0,2,3.667v96.667A1.667,1.667,0,0,0,3.667,102h96.667A1.667,1.667,0,0,0,102,100.333V3.667A1.667,1.667,0,0,0,100.333,2ZM18.667,29.875,30.333,41.542V85.333H18.667Zm15,15,10,10V85.333h-10ZM47,58.208l10,10V85.333H47ZM60.333,71.542,74.11,85.333H60.333Zm18.49,13.792L18.667,25.167v-6.5H26.31L85.333,77.69v7.643Zm6.51-12.357L73.667,61.31V18.667H85.333Zm-15-15-10-10V18.667h10ZM57,44.643l-10-10V18.667H57ZM43.667,31.31,31.023,18.667H43.667ZM86.31,15.333H17.69l-10-10H96.31ZM15.333,17.69V86.31l-10,10V7.69ZM17.69,88.667H86.31l10,10H7.69ZM88.667,86.31V17.69l10-10V96.31Z" transform="translate(-2 -2)" fill="#12263f"/>
</svg>
