<svg xmlns="http://www.w3.org/2000/svg" width="82.253" height="81.284" viewBox="0 0 82.253 81.284">
  <g id="Grupo_82781" data-name="Grupo 82781" transform="translate(-370 -2102.972)">
    <g id="planta" transform="translate(370 2102.965)">
      <path id="Trazado_104549" data-name="Trazado 104549" d="M83.536,93.646a17.537,17.537,0,0,0,21.183,21.183A17.537,17.537,0,0,0,83.536,93.646Z" transform="translate(-72.257 -81.059)" fill="#d1e2b9"/>
      <path id="Trazado_104550" data-name="Trazado 104550" d="M319.853,111.057a18.472,18.472,0,0,0-22.312,22.312,18.472,18.472,0,0,0,22.312-22.312Z" transform="translate(-258.643 -96.195)" fill="#46c373"/>
      <path id="Trazado_104551" data-name="Trazado 104551" d="M256.047,23.874l0,0c-.005-.03-.7-6.955,3.149-10.731s10.656-3.107,10.686-3.1h0c.005.058.856,7.126-2.985,10.9C263.041,24.719,256.047,23.874,256.047,23.874Z" transform="translate(-222.989 -8.695)" fill="#d7fa91"/>
      <path id="Trazado_104552" data-name="Trazado 104552" d="M41.718,345.32a10.1,10.1,0,0,0-8.993,5.5A20.485,20.485,0,0,0,10,365.521H73.437a20.485,20.485,0,0,0-22.727-14.7A10.1,10.1,0,0,0,41.718,345.32Z" transform="translate(-8.709 -300.788)" fill="#c88c64"/>
      <path id="Trazado_104553" data-name="Trazado 104553" d="M65.969,64.385a21.905,21.905,0,0,0-7.7-11.362A21.584,21.584,0,0,0,50.814,49.3,2.6,2.6,0,0,1,53.4,46.918a1.289,1.289,0,0,0,0-2.579,5.167,5.167,0,0,0-3.89,1.765,5.167,5.167,0,0,0-3.89-1.765,1.289,1.289,0,1,0,0,2.579,2.6,2.6,0,0,1,2.48,1.82,22.076,22.076,0,0,0-5.405-.091,11.334,11.334,0,0,0-8.153-5.3l.026-.023,4.71-4.71a18.355,18.355,0,0,0,4.15.461c.4,0,.813-.012,1.244-.04A19.314,19.314,0,0,0,57.234,33.2,19.315,19.315,0,0,0,63.07,20.639a17.491,17.491,0,0,0-.639-6.189,1.29,1.29,0,0,0-.9-.838l-.014,0a17.839,17.839,0,0,0-4.649-.649H56.85a1.289,1.289,0,0,0-.014,2.579,15.727,15.727,0,0,1,3.321.381,16.28,16.28,0,0,1,.332,4.662A16.619,16.619,0,0,1,55.41,31.375a16.56,16.56,0,0,1-13.9,5.009l9.455-9.455a1.289,1.289,0,0,0-1.824-1.824L39.688,34.56a16.628,16.628,0,0,1,5.009-13.9,18.746,18.746,0,0,1,3.214-2.59,1.289,1.289,0,0,0-1.379-2.179,21.343,21.343,0,0,0-3.658,2.946A19.314,19.314,0,0,0,37.037,31.4a18.7,18.7,0,0,0,.421,5.393L34.3,39.95v-23.4c.149,0,.306.006.474.006,2.528,0,7.051-.457,10.041-3.392,4.019-3.944,3.481-10.832,3.371-11.89a1.289,1.289,0,0,0-1.2-1.214C46.368,0,39.413-.5,35.306,3.526c-3.7,3.63-3.659,9.615-3.556,11.374a1.29,1.29,0,0,0-.031.279v4.927a19.892,19.892,0,0,0-2.985-3.791,18.4,18.4,0,0,0-11.965-5.56,16.678,16.678,0,0,0-5.9.61,1.289,1.289,0,0,0-.838.9l0,.012a18.122,18.122,0,0,0,4.981,17.762A18.4,18.4,0,0,0,26.973,35.6c.41.026.805.038,1.184.038a17.806,17.806,0,0,0,3.562-.353v8.03a11.333,11.333,0,0,0-8.4,5.331,22.075,22.075,0,0,0-5.405.091,2.6,2.6,0,0,1,2.48-1.82,1.289,1.289,0,1,0,0-2.579A5.167,5.167,0,0,0,16.5,46.1a5.167,5.167,0,0,0-3.89-1.765,1.289,1.289,0,0,0,0,2.579A2.6,2.6,0,0,1,15.2,49.3a21.586,21.586,0,0,0-7.459,3.725,21.9,21.9,0,0,0-7.7,11.362,1.289,1.289,0,0,0,1.241,1.638H64.728a1.289,1.289,0,0,0,1.241-1.638ZM37.112,5.366c2.507-2.459,6.614-2.778,8.568-2.778.054,2-.161,6.264-2.674,8.731-1.887,1.852-4.725,2.439-6.861,2.6l3.884-3.884a1.289,1.289,0,1,0-1.824-1.823l-3.818,3.819A10.864,10.864,0,0,1,37.112,5.366ZM16.831,28.218A15.576,15.576,0,0,1,12.339,13.64a15.4,15.4,0,0,1,4.371-.3,15.716,15.716,0,0,1,10.2,4.8,15.715,15.715,0,0,1,4.8,10.2c0,.035,0,.069.006.1v2.036c-.015.234-.035.457-.057.667l-7.525-7.525a1.289,1.289,0,1,0-1.824,1.824l7.526,7.526A15.724,15.724,0,0,1,16.831,28.218ZM10.216,63.444a11.774,11.774,0,0,1,6.032-5.98A1.289,1.289,0,1,0,15.21,55.1a14.34,14.34,0,0,0-7.77,8.341H3.072A19.2,19.2,0,0,1,23.827,51.311a1.29,1.29,0,0,0,1.336-.688,8.81,8.81,0,0,1,15.69,0,1.29,1.29,0,0,0,1.336.688A19.2,19.2,0,0,1,62.945,63.444Z" transform="translate(0 0)"/>
      <path id="Trazado_104554" data-name="Trazado 104554" d="M393.053,108.056a1.284,1.284,0,0,0,.356-.05l.084-.024a1.289,1.289,0,0,0-.692-2.484l-.1.029a1.29,1.29,0,0,0,.355,2.529Z" transform="translate(-341.25 -91.847)"/>
      <path id="Trazado_104555" data-name="Trazado 104555" d="M153.611,417.92h-.08a1.289,1.289,0,0,0,.007,2.579h.074a1.289,1.289,0,1,0,0-2.579Z" transform="translate(-132.617 -364.026)"/>
    </g>
    <g id="hen" transform="translate(407.255 2135.98)">
      <path id="Trazado_104401" data-name="Trazado 104401" d="M12.6,182.205a31.592,31.592,0,0,1-.157-6.717s-4.609,3.22-3.094,5.6a3.045,3.045,0,0,0,3.258,1.16C12.6,182.236,12.6,182.221,12.6,182.205Zm0,0" transform="translate(-7.741 -159.035)" fill="#ff4755"/>
      <path id="Trazado_104402" data-name="Trazado 104402" d="M12.386,210.562a2.984,2.984,0,0,1-2.958-1.074A2.327,2.327,0,0,0,9.35,211.9a3.046,3.046,0,0,0,3.258,1.159l-.006-.046Q12.449,211.72,12.386,210.562Zm0,0" transform="translate(-7.745 -189.848)" fill="#fc2b3a"/>
      <path id="Trazado_104403" data-name="Trazado 104403" d="M16.419,128.754c-2.5.692-4.266,1.332-4.108,2.5.145,1.073,2.179,1.67,3.084,1.884A15.172,15.172,0,0,1,16.419,128.754Zm0,0" transform="translate(-10.696 -116.683)" fill="#ffa812"/>
      <path id="Trazado_104404" data-name="Trazado 104404" d="M13.086,141.938c-.552.354-.842.759-.774,1.262.145,1.073,2.179,1.67,3.084,1.884q.084-.859.225-1.611C14.705,143.213,13.394,142.716,13.086,141.938Zm0,0" transform="translate(-10.696 -128.63)" fill="#ff9a00"/>
      <path id="Trazado_104405" data-name="Trazado 104405" d="M63.59,16.248a6.411,6.411,0,0,1,3.283-1.038c2.8-.067,4.319.96,5.318,2.451.859-.453,2.62-1.585,2.085-3.041-.761-2.07-2.845-.858-2.845-.858a2.075,2.075,0,0,0-.7-2.42,2.893,2.893,0,0,0-2.9-.06c-.4-3.038-4.669-3.7-6.314-.535C60.208,13.263,62.7,15.541,63.59,16.248Zm0,0" transform="translate(-54.96 -7.853)" fill="#ff4755"/>
      <path id="Trazado_104406" data-name="Trazado 104406" d="M80.508,62.388a5.52,5.52,0,0,0,1.759-1.376,8.933,8.933,0,0,0-5.792-2.967,11.151,11.151,0,0,0-6.155,1.283,8.382,8.382,0,0,0,1.586,1.646,6.41,6.41,0,0,1,3.283-1.038C77.991,59.87,79.509,60.9,80.508,62.388Zm0,0" transform="translate(-63.275 -52.58)" fill="#fc2b3a"/>
      <path id="Trazado_104407" data-name="Trazado 104407" d="M51.426,78.45c-1.288.031-8.839.684-7.057,15.812,1.563,13.273,10.947,17.469,18.3,17.446,10.68-.033,24-9.006,20.1-23.126,0,0-1.18-5.247-5.246-5.021S73.579,91.782,64.8,90.9C55.9,90.011,60.707,78.226,51.426,78.45Zm0,0" transform="translate(-39.512 -71.092)" fill="#f1d54e"/>
      <path id="Trazado_104408" data-name="Trazado 104408" d="M62.667,208.547c-7.348.023-16.732-4.173-18.3-17.446-.126-1.073-.2-2.071-.242-3a34.147,34.147,0,0,0,.242,5.535c1.563,13.273,10.947,17.469,18.3,17.446,9.728-.03,21.641-7.477,20.742-19.474C82.6,202.109,71.69,208.519,62.667,208.547Zm0,0" transform="translate(-39.514 -170.463)" fill="#baa53d"/>
      <path id="Trazado_104409" data-name="Trazado 104409" d="M93.845,329.681a22.853,22.853,0,0,1-13.775,4.95h-.058a18.256,18.256,0,0,1-8.4-2.011,16.1,16.1,0,0,1-6.975-7.1.706.706,0,1,0-1.258.643,17.482,17.482,0,0,0,7.578,7.714,19.08,19.08,0,0,0,5.676,1.889v3.9l-3.411-1.186a.706.706,0,1,0-.464,1.335l2.277.792-2.246.665a.706.706,0,1,0,.4,1.354l4.349-1.289a.707.707,0,0,0,.506-.677v-4.707c.718.07,1.379.1,1.964.1h.062a22.051,22.051,0,0,0,4.47-.488v4.106l-3.411-1.186a.706.706,0,0,0-.464,1.335l2.277.791-2.246.666a.706.706,0,1,0,.4,1.354l4.349-1.29a.706.706,0,0,0,.505-.677v-5.442a24.492,24.492,0,0,0,8.772-4.431.706.706,0,1,0-.885-1.1Zm0,0" transform="translate(-56.918 -294.647)" stroke="#000" stroke-width="0.5"/>
      <path id="Trazado_104410" data-name="Trazado 104410" d="M6.632,28.288a25.138,25.138,0,0,1-1.153-5.2c-.714-6.063.035-10.566,2.166-13.022A5.835,5.835,0,0,1,11.883,7.99a5.139,5.139,0,0,1,4.293,1.566,12.047,12.047,0,0,1,1.956,3.994c1.035,2.931,2.207,6.252,6.672,6.893a.706.706,0,0,0,.2-1.4c-3.619-.52-4.553-3.165-5.541-5.965A20.291,20.291,0,0,0,18.18,10c1.6-1.029,2.245-2.3,1.785-3.549A2.408,2.408,0,0,0,18.535,4.9a2.528,2.528,0,0,0-1.254-.1,2.653,2.653,0,0,0-1.124-1.976,3.25,3.25,0,0,0-2.841-.433A3.685,3.685,0,0,0,10.453.064a4.319,4.319,0,0,0-4.6,2.409C4.577,4.937,6.271,7.146,7.447,8.28a7.776,7.776,0,0,0-.868.856,9.425,9.425,0,0,0-1.447,2.292c-2.117.589-4.559,1.358-4.31,3.194.136,1,1.161,1.661,2.306,2.088L3,16.825a9.458,9.458,0,0,0-1.982,2.368,3.006,3.006,0,0,0-.1,3.233,3.4,3.4,0,0,0,3.054,1.559c.067,0,.134,0,.2,0A26.009,26.009,0,0,0,5.3,28.747a.706.706,0,1,0,1.336-.459Zm.675-22.4a2.69,2.69,0,0,1-.2-2.763,2.923,2.923,0,0,1,3.1-1.669,2.267,2.267,0,0,1,1.918,1.973.709.709,0,0,0,1.042.527,2.222,2.222,0,0,1,2.156.013,1.359,1.359,0,0,1,.468,1.592.707.707,0,0,0,1,.881,1.778,1.778,0,0,1,1.263-.208c.092.034.372.136.58.7.087.237.143.618-.378,1.183a4.529,4.529,0,0,1-.867.7,6.4,6.4,0,0,0-5.546-2.242,7.151,7.151,0,0,0-3.21.884A6.836,6.836,0,0,1,7.307,5.887ZM2.221,14.432c-.066-.486,1.181-.989,2.3-1.347a16.786,16.786,0,0,0-.508,2.433C2.891,15.16,2.26,14.719,2.221,14.432Zm-.114,7.236c-.549-.863.188-2.026.9-2.849a10.706,10.706,0,0,1,.8-.824A34.847,34.847,0,0,0,4,22.571,2.064,2.064,0,0,1,2.107,21.669Zm0,0" transform="translate(0 0)" stroke="#000" stroke-width="0.5"/>
      <path id="Trazado_104411" data-name="Trazado 104411" d="M300.6,130.413a10.133,10.133,0,0,0-1.189-2.808,5.206,5.206,0,0,0-4.805-2.767c-1.93.107-3.02,1.578-4.175,3.135-1.42,1.915-2.889,3.9-6.183,4.252a.706.706,0,1,0,.152,1.4c3.908-.423,5.714-2.858,7.165-4.815,1.034-1.395,1.851-2.5,3.119-2.567a3.818,3.818,0,0,1,3.511,2.077,8.777,8.777,0,0,1,1.031,2.416c0,.011.005.022.008.033a16.389,16.389,0,0,1,.149,8.74,15.99,15.99,0,0,1-3.876,6.794.706.706,0,1,0,1.029.967,17.387,17.387,0,0,0,4.211-7.392A17.779,17.779,0,0,0,300.6,130.413Zm0,0" transform="translate(-256.574 -113.126)" stroke="#000" stroke-width="0.5"/>
      <path id="Trazado_104412" data-name="Trazado 104412" d="M169.24,256.517c-4.153,1-7.513.29-9.988-2.121a10.461,10.461,0,0,1-2.537-4.016.706.706,0,0,0-1.355.4,11.7,11.7,0,0,0,2.86,4.586,10.5,10.5,0,0,0,7.614,3,16.024,16.024,0,0,0,3.737-.469c5.067-1.224,7.687-5.618,7.209-8.987a.706.706,0,0,0-1.4.2,6.084,6.084,0,0,1-1.247,4.241A8.3,8.3,0,0,1,169.24,256.517Zm0,0" transform="translate(-140.317 -225.017)" stroke="#000" stroke-width="0.5"/>
      <path id="Trazado_104413" data-name="Trazado 104413" d="M103.777,132.4a1.477,1.477,0,1,0,1.443-1.794A1.63,1.63,0,0,0,103.777,132.4Zm0,0" transform="translate(-93.596 -118.357)"/>
    </g>
  </g>
</svg>
