<svg xmlns="http://www.w3.org/2000/svg" width="82" height="79.267" viewBox="0 0 82 79.267">
  <g id="recycling" transform="translate(-16 -32)">
    <path id="Trazado_104574" data-name="Trazado 104574" d="M24,280H48.6v5.467H24Z" transform="translate(-6.633 -205.633)" fill="#26e690"/>
    <path id="Trazado_104575" data-name="Trazado 104575" d="M184,280h24.6v5.467H184Z" transform="translate(-139.3 -205.633)" fill="#fb9e36"/>
    <path id="Trazado_104576" data-name="Trazado 104576" d="M344,280h24.6v5.467H344Z" transform="translate(-271.967 -205.633)" fill="#f1d54e"/>
    <path id="Trazado_104577" data-name="Trazado 104577" d="M47.233,184H25.367L24,200.4H48.6Z" transform="translate(-6.633 -126.033)" fill="#26e690"/>
    <path id="Trazado_104578" data-name="Trazado 104578" d="M33.367,342.067H52.5L53.867,312H32Z" transform="translate(-13.267 -232.167)" fill="#26e690"/>
    <path id="Trazado_104579" data-name="Trazado 104579" d="M193.367,342.067H212.5L213.867,312H192Z" transform="translate(-145.933 -232.167)" fill="#fb9e36"/>
    <path id="Trazado_104580" data-name="Trazado 104580" d="M353.367,342.067H372.5L373.867,312H352Z" transform="translate(-278.6 -232.167)" fill="#f1d54e"/>
    <path id="Trazado_104581" data-name="Trazado 104581" d="M68.3,216H57.367L56,226.933H69.667Z" transform="translate(-33.167 -152.567)" fill="#127c4c"/>
    <path id="Trazado_104582" data-name="Trazado 104582" d="M207.233,184H185.367L184,200.4h24.6Z" transform="translate(-139.3 -126.033)" fill="#fb9e36"/>
    <path id="Trazado_104583" data-name="Trazado 104583" d="M228.3,216H217.367L216,226.933h13.667Z" transform="translate(-165.833 -152.567)" fill="#bf7726"/>
    <path id="Trazado_104584" data-name="Trazado 104584" d="M367.233,184H345.367L344,200.4h24.6Z" transform="translate(-271.967 -126.033)" fill="#f1d54e"/>
    <path id="Trazado_104585" data-name="Trazado 104585" d="M388.3,216H377.367L376,226.933h13.667Z" transform="translate(-298.5 -152.567)" fill="#baa53d"/>
    <g id="Grupo_54277" data-name="Grupo 54277" transform="translate(25.841 90.491)">
      <ellipse id="Elipse_4056" data-name="Elipse 4056" cx="3.5" cy="4.5" rx="3.5" ry="4.5" transform="translate(55.159 0)" fill="#e9eef2"/>
      <ellipse id="Elipse_4057" data-name="Elipse 4057" cx="4" cy="4.5" rx="4" ry="4.5" transform="translate(27.159 0)" fill="#e9eef2"/>
      <ellipse id="Elipse_4058" data-name="Elipse 4058" cx="3.5" cy="4.5" rx="3.5" ry="4.5" transform="translate(0.159 0)" fill="#e9eef2"/>
    </g>
    <path id="Trazado_104586" data-name="Trazado 104586" d="M400,40h5.467v5.467H400Z" transform="translate(-318.4 -6.633)" fill="#52ffb1"/>
    <path id="Trazado_104587" data-name="Trazado 104587" d="M390.978,90.522l-1.511-.755-1.511.755A2.733,2.733,0,0,1,384,88.077V74.733A2.733,2.733,0,0,1,386.733,72H392.2a2.733,2.733,0,0,1,2.733,2.733V88.077a2.733,2.733,0,0,1-3.956,2.445Z" transform="translate(-305.133 -33.167)" fill="#dadcde"/>
    <path id="Trazado_104588" data-name="Trazado 104588" d="M384,104h10.933v6.833H384Z" transform="translate(-305.133 -59.7)" fill="#52ffb1"/>
    <path id="Trazado_104589" data-name="Trazado 104589" d="M5.467,0a5.467,5.467,0,0,1,5.467,5.467H0A5.467,5.467,0,0,1,5.467,0Z" transform="translate(62.467 57.967) rotate(180)" fill="#ffb869"/>
    <path id="Trazado_104590" data-name="Trazado 104590" d="M229.467,88a5.467,5.467,0,0,1,5.467,5.467H224A5.467,5.467,0,0,1,229.467,88Z" transform="translate(-172.467 -46.433)" fill="#ffb869"/>
    <path id="Trazado_104591" data-name="Trazado 104591" d="M232,125.467l1.367-2.733V120h5.467v2.733l1.367,2.733Z" transform="translate(-179.1 -72.967)" fill="#dadcde"/>
    <path id="Trazado_104592" data-name="Trazado 104592" d="M48,104H64.4v13.667H48Z" transform="translate(-26.533 -59.7)" fill="#f1d54e"/>
    <path id="Trazado_104593" data-name="Trazado 104593" d="M80,104h5.467v5.467H80Z" transform="translate(-53.067 -59.7)" fill="#dadcde"/>
    <path id="Trazado_104594" data-name="Trazado 104594" d="M97.994,74.253h0l-1.367-16.4A1.367,1.367,0,0,0,95.267,56.6H90.8a4.106,4.106,0,0,0,.362-1.689V41.567A4.107,4.107,0,0,0,88.433,37.7V33.367A1.367,1.367,0,0,0,87.067,32H81.6a1.367,1.367,0,0,0-1.367,1.367V37.7A4.107,4.107,0,0,0,77.5,41.567V54.911a4.107,4.107,0,0,0,.362,1.689H73.4a1.367,1.367,0,0,0-1.362,1.253l-1.367,16.4h0c0,.038-.006.075-.006.113,0-.038,0-.076-.006-.113h0L69.3,57.853A1.367,1.367,0,0,0,67.933,56.6h-5.47a6.8,6.8,0,0,0,1.37-4.1,1.367,1.367,0,0,0-1.367-1.367h-.522L61.1,49.444V48.4h1.367a1.367,1.367,0,0,0,1.367-1.367,6.845,6.845,0,0,0-5.467-6.7v-1.5a1.367,1.367,0,1,0-2.733,0v1.5a6.845,6.845,0,0,0-5.467,6.7A1.367,1.367,0,0,0,51.533,48.4H52.9v1.044l-.845,1.689h-.522A1.367,1.367,0,0,0,50.167,52.5a6.8,6.8,0,0,0,1.37,4.1h-5.47A1.367,1.367,0,0,0,44.7,57.853l-1.367,16.4h0c0,.038-.006.075-.006.113,0-.038,0-.076-.006-.113h0l-1.367-16.4A1.367,1.367,0,0,0,40.6,56.6H39.233V44.3a1.359,1.359,0,0,0-.23-.758l0,0,0,0-5.461-8.192a1.367,1.367,0,1,0-2.274,1.516l4.05,6.075h-9.95L29.154,39.9a1.367,1.367,0,0,0-1.708-2.134l-6.833,5.467A1.364,1.364,0,0,0,20.1,44.3V56.6H18.733a1.367,1.367,0,0,0-1.362,1.253L16,74.253h0c0,.038-.006.075-.006.113v5.467A1.367,1.367,0,0,0,17.367,81.2h.061l1.307,28.762a1.367,1.367,0,0,0,1.365,1.3H39.233a1.367,1.367,0,0,0,1.365-1.3L41.906,81.2h.061a1.367,1.367,0,0,0,1.367-1.367A1.367,1.367,0,0,0,44.7,81.2h.061l1.307,28.762a1.367,1.367,0,0,0,1.365,1.3H66.567a1.367,1.367,0,0,0,1.365-1.3L69.239,81.2H69.3a1.367,1.367,0,0,0,1.367-1.367A1.367,1.367,0,0,0,72.033,81.2h.061L73.4,109.962a1.367,1.367,0,0,0,1.365,1.3H93.9a1.367,1.367,0,0,0,1.365-1.3L96.573,81.2h.061A1.367,1.367,0,0,0,98,79.833V74.367c0-.038,0-.076-.006-.113ZM82.967,34.733H85.7v2.733H82.967Zm-2.733,6.833A1.368,1.368,0,0,1,81.6,40.2h5.467a1.368,1.368,0,0,1,1.367,1.367v1.367h-8.2Zm0,4.1h8.2v4.1h-8.2Zm0,6.833h8.2v2.411a1.367,1.367,0,0,1-1.978,1.222l-1.511-.755a1.365,1.365,0,0,0-1.222,0l-1.511.755a1.367,1.367,0,0,1-1.978-1.222ZM28.3,45.667h2.733V48.4H28.3Zm-5.467,0h2.733v4.1a1.367,1.367,0,0,0,1.367,1.367H32.4a1.367,1.367,0,0,0,1.367-1.367v-4.1H36.5V56.6H22.833ZM19.991,59.333H39.343L40.481,73H37.706l-1.217-9.736a1.367,1.367,0,0,0-1.356-1.2H24.2a1.367,1.367,0,0,0-1.356,1.2L21.627,73H18.853ZM34.952,73H24.381l1.025-8.2h8.52Zm2.975,35.533H21.406L20.164,81.2H39.17ZM40.6,78.467H18.733V75.733H40.6ZM57,42.933a4.107,4.107,0,0,1,3.866,2.733H53.134A4.107,4.107,0,0,1,57,42.933Zm1.511,7.445.378.755H55.111l.378-.755a1.366,1.366,0,0,0,.144-.611V48.4h2.733v1.367a1.366,1.366,0,0,0,.144.611Zm-5.377,3.489h7.732a4.1,4.1,0,0,1-7.732,0Zm-5.81,5.467H66.676L67.815,73H65.04l-1.217-9.736a1.367,1.367,0,0,0-1.356-1.2H51.533a1.367,1.367,0,0,0-1.356,1.2L48.96,73H46.186ZM62.285,73H51.715l1.025-8.2h8.52Zm2.975,35.533H48.739L47.5,81.2H66.5Zm2.673-30.067H46.067V75.733H67.933Zm6.724-19.133H94.009L95.148,73H92.373l-1.217-9.736a1.367,1.367,0,0,0-1.356-1.2H78.867a1.367,1.367,0,0,0-1.356,1.2L76.294,73H73.52ZM89.619,73H79.048l1.025-8.2h8.52Zm2.975,35.533H76.073L74.83,81.2H93.836Zm2.673-30.067H73.4V75.733H95.267Z"/>
    <path id="Trazado_104595" data-name="Trazado 104595" d="M389.467,378.933A5.467,5.467,0,1,0,384,373.467,5.467,5.467,0,0,0,389.467,378.933Zm0-8.2a2.733,2.733,0,1,1-2.733,2.733A2.733,2.733,0,0,1,389.467,370.733Z" transform="translate(-305.133 -278.6)"/>
    <path id="Trazado_104596" data-name="Trazado 104596" d="M229.467,378.933A5.467,5.467,0,1,0,224,373.467,5.467,5.467,0,0,0,229.467,378.933Zm0-8.2a2.733,2.733,0,1,1-2.733,2.733A2.733,2.733,0,0,1,229.467,370.733Z" transform="translate(-172.467 -278.6)"/>
    <path id="Trazado_104597" data-name="Trazado 104597" d="M69.467,378.933A5.467,5.467,0,1,0,64,373.467,5.467,5.467,0,0,0,69.467,378.933Zm0-8.2a2.733,2.733,0,1,1-2.733,2.733A2.733,2.733,0,0,1,69.467,370.733Z" transform="translate(-39.8 -278.6)"/>
  </g>
</svg>
