<svg xmlns="http://www.w3.org/2000/svg" width="816.905" height="276.974" viewBox="0 0 816.905 276.974">
  <g id="Grupo_82781" data-name="Grupo 82781" transform="translate(-393.603 -2631.295)">
    <path id="Trazado_105793" data-name="Trazado 105793" d="M821.809,42.4H117.162A41.135,41.135,0,0,0,76.026,83.528V202.156a41.136,41.136,0,0,0,41.136,41.138H821.809a41.137,41.137,0,0,0,41.138-41.138V83.528A41.136,41.136,0,0,0,821.809,42.4Z" transform="translate(317.577 2614.25)" fill="#e2f6c6"/>
    <g id="Grupo_54968" data-name="Grupo 54968" transform="translate(416.157 2631.295)">
      <g id="Grupo_54962" data-name="Grupo 54962">
        <g id="Grupo_54961" data-name="Grupo 54961">
          <g id="Grupo_54960" data-name="Grupo 54960">
            <g id="Grupo_54959" data-name="Grupo 54959">
              <g id="Grupo_54958" data-name="Grupo 54958">
                <path id="Trazado_105794" data-name="Trazado 105794" d="M834.628,240.495H512.865a3.716,3.716,0,0,1,0-7.433H834.628a37.461,37.461,0,0,0,37.419-37.419V77.013A37.46,37.46,0,0,0,834.628,39.6H129.976A37.458,37.458,0,0,0,92.562,77.013v118.63a37.458,37.458,0,0,0,37.414,37.419H446.609a3.716,3.716,0,1,1,0,7.433H129.976a44.9,44.9,0,0,1-44.847-44.852V77.013a44.9,44.9,0,0,1,44.847-44.85H834.628a44.9,44.9,0,0,1,44.852,44.85v118.63A44.9,44.9,0,0,1,834.628,240.495Z" transform="translate(-85.129 -32.163)" fill="#17c878"/>
              </g>
            </g>
          </g>
        </g>
      </g>
      <g id="Grupo_54967" data-name="Grupo 54967" transform="translate(356.834 200.958)">
        <g id="Grupo_54963" data-name="Grupo 54963">
          <path id="Trazado_105795" data-name="Trazado 105795" d="M269.957,186.38a3.718,3.718,0,0,1-3.716-3.716V154.077a33.408,33.408,0,0,0-33.371-33.371,3.716,3.716,0,0,1,0-7.433,40.85,40.85,0,0,1,40.8,40.8v28.587A3.718,3.718,0,0,1,269.957,186.38Z" transform="translate(-229.153 -113.273)" fill="#17c878"/>
        </g>
        <g id="Grupo_54966" data-name="Grupo 54966" transform="translate(11.708 39.996)">
          <g id="Grupo_54964" data-name="Grupo 54964" transform="translate(25.379)">
            <path id="Trazado_105796" data-name="Trazado 105796" d="M247.838,165.435a3.715,3.715,0,0,1-3.716-3.716V133.132a3.716,3.716,0,1,1,7.433,0v19.615l19.008-19.008a3.716,3.716,0,0,1,5.255,5.255l-25.351,25.353A3.716,3.716,0,0,1,247.838,165.435Z" transform="translate(-244.122 -129.416)" fill="#17c878"/>
          </g>
          <g id="Grupo_54965" data-name="Grupo 54965" transform="translate(0 3.205)">
            <path id="Trazado_105797" data-name="Trazado 105797" d="M262.974,163.524a3.709,3.709,0,0,1-2.629-1.088l-25.378-25.383a3.717,3.717,0,0,1,5.258-5.255L265.6,157.181a3.715,3.715,0,0,1-2.629,6.343Z" transform="translate(-233.878 -130.71)" fill="#17c878"/>
          </g>
        </g>
      </g>
    </g>
  </g>
</svg>
