<svg xmlns="http://www.w3.org/2000/svg" width="66.406" height="85" viewBox="0 0 66.406 85">
  <g id="la-temperatura" transform="translate(-56)">
    <path id="Trazado_106904" data-name="Trazado 106904" d="M95.871,74.406A15.938,15.938,0,1,1,70.637,61.46V17.3a9.3,9.3,0,1,1,18.594,0V61.46a15.914,15.914,0,0,1,6.641,12.946Z" transform="translate(-6.668 -6.672)" fill="#f1f5ec"/>
    <path id="Trazado_106906" data-name="Trazado 106906" d="M122.593,241.2a9.3,9.3,0,1,1-11.953-8.91V210.656a2.656,2.656,0,0,1,5.313,0v21.637A9.313,9.313,0,0,1,122.593,241.2Z" transform="translate(-40.031 -173.469)" fill="#17c878"/>
    <path id="Trazado_106907" data-name="Trazado 106907" d="M302.238,80s-17.421.517-26.3,9.391c-4.2,4.2-3.262,11.764.939,15.965s11.764,5.14,15.965.939C301.721,97.421,302.238,80,302.238,80Z" transform="translate(-181.16 -66.719)" fill="#e2f6c6"/>
    <path id="Trazado_106910" data-name="Trazado 106910" d="M83.89,54.125v-43.5a10.625,10.625,0,1,0-21.25,0v43.5a17.266,17.266,0,1,0,21.25,0Zm-.369,24.014a14.53,14.53,0,0,1-10.469,4.2,14.61,14.61,0,0,1-8.308-26.476,1.328,1.328,0,0,0,.553-1.078V10.625a7.969,7.969,0,0,1,15.938,0V54.789a1.328,1.328,0,0,0,.553,1.078A14.617,14.617,0,0,1,83.522,78.139Z"/>
    <path id="Trazado_106911" data-name="Trazado 106911" d="M294.507,72c-.733.022-18.053.637-27.2,9.779-4.448,4.448-3.854,12.049.05,16.854l-2.974,2.974a1.328,1.328,0,1,0,1.878,1.878l2.974-2.974c4.827,3.922,12.424,4.48,16.854.05,9.142-9.142,9.758-26.462,9.78-27.2A1.328,1.328,0,0,0,294.507,72ZM284.216,98.684c-3.433,3.433-9.374,2.771-13.083-.065l6.7-6.7h4.762a1.328,1.328,0,1,0,0-2.656h-2.106l3.045-3.045a1.328,1.328,0,1,0-1.878-1.878l-6.366,6.366.647-3.881a1.328,1.328,0,1,0-2.62-.437l-1.258,7.549-2.8,2.8c-2.919-3.779-3.437-9.711-.062-13.085,6.936-6.936,19.642-8.553,23.935-8.908C292.773,79.042,291.162,91.738,284.216,98.684Z" transform="translate(-173.468 -60.047)"/>
    <path id="Trazado_106912" data-name="Trazado 106912" d="M110.612,224.682v-20.7a3.984,3.984,0,0,0-7.969,0v20.7a10.627,10.627,0,1,0,7.969,0Zm1.511,15.614a7.967,7.967,0,1,1-7.772-13.4,1.328,1.328,0,0,0,.948-1.273V203.984a1.328,1.328,0,0,1,2.656,0v21.637a1.328,1.328,0,0,0,.948,1.273A7.978,7.978,0,0,1,112.123,240.3Z" transform="translate(-33.362 -166.797)"/>
  </g>
</svg>
