<svg xmlns="http://www.w3.org/2000/svg" width="150" height="150" viewBox="0 0 150 150">
  <g id="Grupo_82782" data-name="Grupo 82782" transform="translate(-935.496 -2468.234)">
    <circle id="Elipse_4147" data-name="Elipse 4147" cx="75" cy="75" r="75" transform="translate(935.496 2468.234)" fill="#fff"/>
    <g id="pulgar-arriba" transform="translate(963.517 2498.23)">
      <path id="Trazado_105709" data-name="Trazado 105709" d="M57.225,14.528l8.321-4.067A4.742,4.742,0,0,1,71.817,12.5l4.341,8.182a4.742,4.742,0,0,0,3.369,2.448l9.122,1.6a4.742,4.742,0,0,1,3.876,5.335l-1.3,9.17a4.741,4.741,0,0,0,1.287,3.961l6.44,6.656a4.741,4.741,0,0,1,0,6.594L92.515,63.1a4.739,4.739,0,0,0-1.287,3.961l1.3,9.17a4.741,4.741,0,0,1-3.876,5.335l-9.122,1.6a4.742,4.742,0,0,0-3.369,2.448L71.817,93.8a4.742,4.742,0,0,1-6.272,2.038l-8.321-4.067a4.742,4.742,0,0,0-4.165,0l-8.321,4.067A4.742,4.742,0,0,1,38.468,93.8l-4.341-8.182a4.745,4.745,0,0,0-3.37-2.448l-9.122-1.6a4.741,4.741,0,0,1-3.875-5.335l1.3-9.17A4.741,4.741,0,0,0,17.771,63.1l-6.44-6.657a4.741,4.741,0,0,1,0-6.594l6.44-6.656a4.744,4.744,0,0,0,1.287-3.961l-1.3-9.17a4.742,4.742,0,0,1,3.875-5.335l9.122-1.6a4.743,4.743,0,0,0,3.37-2.448L38.468,12.5a4.742,4.742,0,0,1,6.271-2.037l8.321,4.067A4.737,4.737,0,0,0,57.225,14.528Zm0,0" transform="translate(-8.163 -8.147)" fill="#17c878"/>
      <path id="Trazado_105710" data-name="Trazado 105710" d="M126.857,94.867l4.969-2.429a3.459,3.459,0,0,1,4.574,1.486l2.592,4.885a3.459,3.459,0,0,0,2.457,1.786l5.447.956a3.459,3.459,0,0,1,2.827,3.891l-.774,5.476a3.457,3.457,0,0,0,.938,2.89l3.845,3.974a3.459,3.459,0,0,1,0,4.81l-3.845,3.975a3.455,3.455,0,0,0-.938,2.889l.774,5.476a3.458,3.458,0,0,1-2.827,3.891l-5.447.956a3.459,3.459,0,0,0-2.457,1.786L136.4,146.45a3.458,3.458,0,0,1-4.574,1.486l-4.969-2.429a3.457,3.457,0,0,0-3.038,0l-4.969,2.429a3.459,3.459,0,0,1-4.574-1.486l-2.591-4.885a3.459,3.459,0,0,0-2.458-1.786l-5.447-.956a3.459,3.459,0,0,1-2.827-3.891l.775-5.476a3.458,3.458,0,0,0-.939-2.889l-3.845-3.975a3.46,3.46,0,0,1,0-4.81l3.845-3.974a3.458,3.458,0,0,0,.939-2.89l-.775-5.476a3.46,3.46,0,0,1,2.827-3.891l5.447-.956a3.459,3.459,0,0,0,2.458-1.786l2.591-4.885a3.459,3.459,0,0,1,4.574-1.486l4.969,2.429A3.457,3.457,0,0,0,126.857,94.867Zm0,0" transform="translate(-78.359 -75.186)" fill="#fff"/>
      <path id="Trazado_105711" data-name="Trazado 105711" d="M177.419,226.467h-6.36V207.855h6.36Zm0,0" transform="translate(-139.667 -169.71)" fill="#f1d54e"/>
      <path id="Trazado_105712" data-name="Trazado 105712" d="M227.4,171.859h-9.731a20.533,20.533,0,0,1-11.39-3.449l-.752-.5V152.053l2.594-.84a14.573,14.573,0,0,0,5.808-3.556,8.4,8.4,0,0,0,2.46-5.939v-.47s0-2.963,1.975-2.963,1.975,2.963,1.975,2.963v7.529a2.344,2.344,0,0,0,2.345,2.345H227.4a2.813,2.813,0,0,1,2.814,2.813v15.11A2.813,2.813,0,0,1,227.4,171.859Zm0,0" transform="translate(-167.814 -112.907)" fill="#ffd4a5"/>
      <path id="Trazado_105713" data-name="Trazado 105713" d="M92.1,49.566a6.538,6.538,0,0,0,0-9.13l-6.44-6.657a2.9,2.9,0,0,1-.792-2.437l1.3-9.17A6.54,6.54,0,0,0,80.8,14.785l-9.122-1.6a2.9,2.9,0,0,1-2.073-1.507L65.265,3.5A6.54,6.54,0,0,0,56.582.676L48.261,4.744a2.9,2.9,0,0,1-2.563,0L37.378.676A6.54,6.54,0,0,0,28.694,3.5l-4.341,8.181a2.9,2.9,0,0,1-2.073,1.507l-9.123,1.6a6.538,6.538,0,0,0-5.366,7.387l1.3,9.17A2.9,2.9,0,0,1,8.3,33.779l-6.44,6.657a6.538,6.538,0,0,0,0,9.13L8.3,56.222a2.9,2.9,0,0,1,.792,2.438l-1.3,9.17a6.538,6.538,0,0,0,5.366,7.387l9.122,1.6a2.9,2.9,0,0,1,2.073,1.507L28.694,86.5a6.54,6.54,0,0,0,8.683,2.822l8.32-4.067a2.9,2.9,0,0,1,2.563,0l8.321,4.067A6.54,6.54,0,0,0,65.265,86.5l4.341-8.181a2.9,2.9,0,0,1,2.074-1.507l9.122-1.6a6.539,6.539,0,0,0,5.366-7.387l-1.3-9.17a2.9,2.9,0,0,1,.792-2.437Zm-9.061,4.121a6.526,6.526,0,0,0-1.782,5.485l1.3,9.17a2.906,2.906,0,0,1-2.385,3.282l-9.123,1.6a6.525,6.525,0,0,0-4.665,3.39l-4.341,8.181a2.905,2.905,0,0,1-3.86,1.254l-8.321-4.067a6.524,6.524,0,0,0-5.766,0l-8.321,4.067a2.906,2.906,0,0,1-3.86-1.253l-4.341-8.182a6.527,6.527,0,0,0-4.665-3.39l-9.123-1.6A2.906,2.906,0,0,1,11.4,68.341l1.3-9.17a6.526,6.526,0,0,0-1.782-5.485L4.478,47.03a2.9,2.9,0,0,1,0-4.057l6.44-6.656A6.526,6.526,0,0,0,12.7,30.831l-1.3-9.171a2.906,2.906,0,0,1,2.385-3.282l9.123-1.6a6.526,6.526,0,0,0,4.665-3.389l4.341-8.182a2.907,2.907,0,0,1,3.86-1.254L44.1,8.02a6.518,6.518,0,0,0,5.766,0h0l8.321-4.067a2.906,2.906,0,0,1,3.86,1.254l4.341,8.182a6.524,6.524,0,0,0,4.665,3.389l9.122,1.6a2.907,2.907,0,0,1,2.386,3.283l-1.3,9.17a6.526,6.526,0,0,0,1.782,5.485l6.44,6.656a2.906,2.906,0,0,1,0,4.057Zm0,0" transform="translate(0 0)"/>
      <path id="Trazado_105714" data-name="Trazado 105714" d="M143.046,104.4a1.625,1.625,0,0,1-.444-1.366l.774-5.476a5.26,5.26,0,0,0-4.318-5.943l-5.447-.956a1.626,1.626,0,0,1-1.161-.844l-2.592-4.885a5.261,5.261,0,0,0-6.987-2.27L117.9,85.087a1.626,1.626,0,0,1-1.437,0L111.5,82.658a5.261,5.261,0,0,0-6.986,2.27l-2.592,4.885a1.623,1.623,0,0,1-1.162.844l-5.447.956a5.261,5.261,0,0,0-4.318,5.943l.775,5.476a1.624,1.624,0,0,1-.444,1.366l-3.845,3.975a5.261,5.261,0,0,0,0,7.346l3.846,3.975a1.628,1.628,0,0,1,.444,1.366l-.775,5.475a5.262,5.262,0,0,0,4.318,5.943l5.447.955a1.626,1.626,0,0,1,1.162.844l2.592,4.885a5.26,5.26,0,0,0,6.986,2.27L116.466,139a1.626,1.626,0,0,1,1.437,0l4.969,2.429a5.261,5.261,0,0,0,6.986-2.27l2.592-4.885a1.625,1.625,0,0,1,1.162-.844l5.447-.956a5.261,5.261,0,0,0,4.318-5.943l-.774-5.476a1.623,1.623,0,0,1,.444-1.366l3.845-3.975a5.261,5.261,0,0,0,0-7.346Zm1.224,8.784-3.845,3.975a5.246,5.246,0,0,0-1.434,4.412l.774,5.476a1.628,1.628,0,0,1-1.336,1.839l-5.447.956a5.247,5.247,0,0,0-3.753,2.727l-2.592,4.885a1.628,1.628,0,0,1-2.162.7l-4.969-2.429a5.25,5.25,0,0,0-4.64,0l-4.969,2.429a1.628,1.628,0,0,1-2.162-.7l-2.592-4.885a5.249,5.249,0,0,0-3.753-2.727l-5.447-.956a1.629,1.629,0,0,1-1.336-1.839l.774-5.476a5.246,5.246,0,0,0-1.434-4.412L90.1,113.182a1.629,1.629,0,0,1,0-2.274l3.845-3.974a5.248,5.248,0,0,0,1.434-4.413L94.6,97.045a1.629,1.629,0,0,1,1.336-1.839l5.447-.956a5.249,5.249,0,0,0,3.753-2.727l2.592-4.885a1.628,1.628,0,0,1,2.162-.7l4.969,2.429a5.251,5.251,0,0,0,4.64,0l4.969-2.429a1.628,1.628,0,0,1,2.162.7l2.592,4.885a5.247,5.247,0,0,0,3.753,2.727l5.447.956a1.629,1.629,0,0,1,1.336,1.839l-.774,5.476a5.248,5.248,0,0,0,1.434,4.413l3.845,3.974A1.629,1.629,0,0,1,144.269,113.182Zm0,0" transform="translate(-70.205 -67.044)"/>
      <path id="Trazado_105715" data-name="Trazado 105715" d="M191.144,141.184h-4.716a.521.521,0,0,1-.521-.52v-7.53a7.138,7.138,0,0,0-.34-2.058,3.556,3.556,0,0,0-6.917,0,7.152,7.152,0,0,0-.341,2.058v.47a6.531,6.531,0,0,1-1.926,4.65,12.79,12.79,0,0,1-5.08,3.11l-.753.244a1.814,1.814,0,0,0-1.244-.493h-6.36a1.824,1.824,0,0,0-1.824,1.824V161.55a1.824,1.824,0,0,0,1.824,1.824h6.36a1.819,1.819,0,0,0,1.33-.578,22.278,22.278,0,0,0,10.779,2.772h9.731a4.642,4.642,0,0,0,4.637-4.637V145.821A4.642,4.642,0,0,0,191.144,141.184Zm-26.375,3.578h2.679v14.964h-2.679Zm26.375,17.159h-9.731a18.653,18.653,0,0,1-10.285-3.081V145.255l1.3-.421a16.47,16.47,0,0,0,6.536-4,10.024,10.024,0,0,0,2.951-7.19l0-.508c0-.251-.031-.9.256-.9.272,0,.265.615.268.9l-.182,7.53a4.173,4.173,0,0,0,4.169,4.169h4.716a.99.99,0,0,1,.989.989v.249h-3.721a1.824,1.824,0,1,0,0,3.648h3.721V151.5h-3.721a1.824,1.824,0,1,0,0,3.648h3.721V156.8h-3.721a1.824,1.824,0,1,0,0,3.647h3.721v.485A.99.99,0,0,1,191.144,161.921Zm0,0" transform="translate(-131.554 -104.793)"/>
    </g>
  </g>
</svg>
