<svg xmlns="http://www.w3.org/2000/svg" width="82.254" height="68.274" viewBox="0 0 82.254 68.274">
  <g id="Grupo_54273" data-name="Grupo 54273" transform="translate(-308 -3322)">
    <g id="precaucion" transform="translate(308 3304)">
      <g id="Grupo_54233" data-name="Grupo 54233" transform="translate(1.274 19.274)">
        <path id="Trazado_104395" data-name="Trazado 104395" d="M72.014,77.653a5.736,5.736,0,0,1-5.046,8.462H15.735a5.736,5.736,0,0,1-5.046-8.462L36.306,31.008a5.736,5.736,0,0,1,10.091,0Z" transform="translate(-10 -28)" fill="#fb9e36"/>
        <g id="Grupo_54232" data-name="Grupo 54232" transform="translate(27.528 16.058)">
          <path id="Trazado_104396" data-name="Trazado 104396" d="M226,364h7.647v7.647H226Z" transform="translate(-226 -337.237)" fill="#f1d54e"/>
          <path id="Trazado_104397" data-name="Trazado 104397" d="M226,154h7.647v19.117H226Z" transform="translate(-226 -154)" fill="#f1d54e"/>
        </g>
      </g>
      <g id="Grupo_54234" data-name="Grupo 54234" transform="translate(0 18)">
        <path id="Trazado_104398" data-name="Trazado 104398" d="M216,362.921a1.275,1.275,0,0,0,1.274,1.274h7.647a1.275,1.275,0,0,0,1.274-1.274v-7.647A1.274,1.274,0,0,0,224.921,354h-7.647A1.274,1.274,0,0,0,216,355.274Zm2.549-6.372h5.1v5.1h-5.1Z" transform="translate(-188.472 -311.178)"/>
        <path id="Trazado_104399" data-name="Trazado 104399" d="M217.274,165.666h7.647a1.275,1.275,0,0,0,1.274-1.274V145.274A1.275,1.275,0,0,0,224.921,144h-7.647A1.275,1.275,0,0,0,216,145.274v19.117A1.275,1.275,0,0,0,217.274,165.666Zm1.274-19.117h5.1v16.568h-5.1Z" transform="translate(-188.472 -127.942)"/>
        <circle id="Elipse_4055" data-name="Elipse 4055" cx="1.338" cy="1.338" r="1.338" transform="translate(31.288 57.987)"/>
        <path id="Trazado_104400" data-name="Trazado 104400" d="M38.792,21.676a7.01,7.01,0,0,0-12.329-.007L.844,68.319A7.01,7.01,0,0,0,7.009,78.664H26.891a1.274,1.274,0,1,0,0-2.549H7.009a4.461,4.461,0,0,1-3.928-6.574L28.7,22.889a4.461,4.461,0,0,1,7.853.007L62.168,69.535a4.461,4.461,0,0,1-3.925,6.58H38.361a1.274,1.274,0,0,0,0,2.549H58.242a7.01,7.01,0,0,0,6.163-10.35Z" transform="translate(0 -18)"/>
      </g>
    </g>
    <g id="hen" transform="translate(345.256 3341.998)">
      <path id="Trazado_104401" data-name="Trazado 104401" d="M12.6,182.205a31.592,31.592,0,0,1-.157-6.717s-4.609,3.22-3.094,5.6a3.045,3.045,0,0,0,3.258,1.16C12.6,182.236,12.6,182.221,12.6,182.205Zm0,0" transform="translate(-7.741 -159.035)" fill="#ff4755"/>
      <path id="Trazado_104402" data-name="Trazado 104402" d="M12.386,210.562a2.984,2.984,0,0,1-2.958-1.074A2.327,2.327,0,0,0,9.35,211.9a3.046,3.046,0,0,0,3.258,1.159l-.006-.046Q12.449,211.72,12.386,210.562Zm0,0" transform="translate(-7.745 -189.848)" fill="#fc2b3a"/>
      <path id="Trazado_104403" data-name="Trazado 104403" d="M16.419,128.754c-2.5.692-4.266,1.332-4.108,2.5.145,1.073,2.179,1.67,3.084,1.884A15.172,15.172,0,0,1,16.419,128.754Zm0,0" transform="translate(-10.696 -116.683)" fill="#ffa812"/>
      <path id="Trazado_104404" data-name="Trazado 104404" d="M13.086,141.938c-.552.354-.842.759-.774,1.262.145,1.073,2.179,1.67,3.084,1.884q.084-.859.225-1.611C14.705,143.213,13.394,142.716,13.086,141.938Zm0,0" transform="translate(-10.696 -128.63)" fill="#ff9a00"/>
      <path id="Trazado_104405" data-name="Trazado 104405" d="M63.59,16.248a6.411,6.411,0,0,1,3.283-1.038c2.8-.067,4.319.96,5.318,2.451.859-.453,2.62-1.585,2.085-3.041-.761-2.07-2.845-.858-2.845-.858a2.075,2.075,0,0,0-.7-2.42,2.893,2.893,0,0,0-2.9-.06c-.4-3.038-4.669-3.7-6.314-.535C60.208,13.263,62.7,15.541,63.59,16.248Zm0,0" transform="translate(-54.96 -7.853)" fill="#ff4755"/>
      <path id="Trazado_104406" data-name="Trazado 104406" d="M80.508,62.388a5.52,5.52,0,0,0,1.759-1.376,8.933,8.933,0,0,0-5.792-2.967,11.151,11.151,0,0,0-6.155,1.283,8.382,8.382,0,0,0,1.586,1.646,6.41,6.41,0,0,1,3.283-1.038C77.991,59.87,79.509,60.9,80.508,62.388Zm0,0" transform="translate(-63.275 -52.58)" fill="#fc2b3a"/>
      <path id="Trazado_104407" data-name="Trazado 104407" d="M51.426,78.45c-1.288.031-8.839.684-7.057,15.812,1.563,13.273,10.947,17.469,18.3,17.446,10.68-.033,24-9.006,20.1-23.126,0,0-1.18-5.247-5.246-5.021S73.579,91.782,64.8,90.9C55.9,90.011,60.707,78.226,51.426,78.45Zm0,0" transform="translate(-39.512 -71.092)" fill="#f1d54e"/>
      <path id="Trazado_104408" data-name="Trazado 104408" d="M62.667,208.547c-7.348.023-16.732-4.173-18.3-17.446-.126-1.073-.2-2.071-.242-3a34.147,34.147,0,0,0,.242,5.535c1.563,13.273,10.947,17.469,18.3,17.446,9.728-.03,21.641-7.477,20.742-19.474C82.6,202.109,71.69,208.519,62.667,208.547Zm0,0" transform="translate(-39.514 -170.463)" fill="#baa53d"/>
      <path id="Trazado_104409" data-name="Trazado 104409" d="M93.845,329.681a22.853,22.853,0,0,1-13.775,4.95h-.058a18.256,18.256,0,0,1-8.4-2.011,16.1,16.1,0,0,1-6.975-7.1.706.706,0,1,0-1.258.643,17.482,17.482,0,0,0,7.578,7.714,19.08,19.08,0,0,0,5.676,1.889v3.9l-3.411-1.186a.706.706,0,1,0-.464,1.335l2.277.792-2.246.665a.706.706,0,1,0,.4,1.354l4.349-1.289a.707.707,0,0,0,.506-.677v-4.707c.718.07,1.379.1,1.964.1h.062a22.051,22.051,0,0,0,4.47-.488v4.106l-3.411-1.186a.706.706,0,0,0-.464,1.335l2.277.791-2.246.666a.706.706,0,1,0,.4,1.354l4.349-1.29a.706.706,0,0,0,.505-.677v-5.442a24.492,24.492,0,0,0,8.772-4.431.706.706,0,1,0-.885-1.1Zm0,0" transform="translate(-56.918 -294.647)" stroke="#000" stroke-width="0.5"/>
      <path id="Trazado_104410" data-name="Trazado 104410" d="M6.632,28.288a25.138,25.138,0,0,1-1.153-5.2c-.714-6.063.035-10.566,2.166-13.022A5.835,5.835,0,0,1,11.883,7.99a5.139,5.139,0,0,1,4.293,1.566,12.047,12.047,0,0,1,1.956,3.994c1.035,2.931,2.207,6.252,6.672,6.893a.706.706,0,0,0,.2-1.4c-3.619-.52-4.553-3.165-5.541-5.965A20.291,20.291,0,0,0,18.18,10c1.6-1.029,2.245-2.3,1.785-3.549A2.408,2.408,0,0,0,18.535,4.9a2.528,2.528,0,0,0-1.254-.1,2.653,2.653,0,0,0-1.124-1.976,3.25,3.25,0,0,0-2.841-.433A3.685,3.685,0,0,0,10.453.064a4.319,4.319,0,0,0-4.6,2.409C4.577,4.937,6.271,7.146,7.447,8.28a7.776,7.776,0,0,0-.868.856,9.425,9.425,0,0,0-1.447,2.292c-2.117.589-4.559,1.358-4.31,3.194.136,1,1.161,1.661,2.306,2.088L3,16.825a9.458,9.458,0,0,0-1.982,2.368,3.006,3.006,0,0,0-.1,3.233,3.4,3.4,0,0,0,3.054,1.559c.067,0,.134,0,.2,0A26.009,26.009,0,0,0,5.3,28.747a.706.706,0,1,0,1.336-.459Zm.675-22.4a2.69,2.69,0,0,1-.2-2.763,2.923,2.923,0,0,1,3.1-1.669,2.267,2.267,0,0,1,1.918,1.973.709.709,0,0,0,1.042.527,2.222,2.222,0,0,1,2.156.013,1.359,1.359,0,0,1,.468,1.592.707.707,0,0,0,1,.881,1.778,1.778,0,0,1,1.263-.208c.092.034.372.136.58.7.087.237.143.618-.378,1.183a4.529,4.529,0,0,1-.867.7,6.4,6.4,0,0,0-5.546-2.242,7.151,7.151,0,0,0-3.21.884A6.836,6.836,0,0,1,7.307,5.887ZM2.221,14.432c-.066-.486,1.181-.989,2.3-1.347a16.786,16.786,0,0,0-.508,2.433C2.891,15.16,2.26,14.719,2.221,14.432Zm-.114,7.236c-.549-.863.188-2.026.9-2.849a10.706,10.706,0,0,1,.8-.824A34.847,34.847,0,0,0,4,22.571,2.064,2.064,0,0,1,2.107,21.669Zm0,0" transform="translate(0 0)" stroke="#000" stroke-width="0.5"/>
      <path id="Trazado_104411" data-name="Trazado 104411" d="M300.6,130.413a10.133,10.133,0,0,0-1.189-2.808,5.206,5.206,0,0,0-4.805-2.767c-1.93.107-3.02,1.578-4.175,3.135-1.42,1.915-2.889,3.9-6.183,4.252a.706.706,0,1,0,.152,1.4c3.908-.423,5.714-2.858,7.165-4.815,1.034-1.395,1.851-2.5,3.119-2.567a3.818,3.818,0,0,1,3.511,2.077,8.777,8.777,0,0,1,1.031,2.416c0,.011.005.022.008.033a16.389,16.389,0,0,1,.149,8.74,15.99,15.99,0,0,1-3.876,6.794.706.706,0,1,0,1.029.967,17.387,17.387,0,0,0,4.211-7.392A17.779,17.779,0,0,0,300.6,130.413Zm0,0" transform="translate(-256.574 -113.126)" stroke="#000" stroke-width="0.5"/>
      <path id="Trazado_104412" data-name="Trazado 104412" d="M169.24,256.517c-4.153,1-7.513.29-9.988-2.121a10.461,10.461,0,0,1-2.537-4.016.706.706,0,0,0-1.355.4,11.7,11.7,0,0,0,2.86,4.586,10.5,10.5,0,0,0,7.614,3,16.024,16.024,0,0,0,3.737-.469c5.067-1.224,7.687-5.618,7.209-8.987a.706.706,0,0,0-1.4.2,6.084,6.084,0,0,1-1.247,4.241A8.3,8.3,0,0,1,169.24,256.517Zm0,0" transform="translate(-140.317 -225.017)" stroke="#000" stroke-width="0.5"/>
      <path id="Trazado_104413" data-name="Trazado 104413" d="M103.777,132.4a1.477,1.477,0,1,0,1.443-1.794A1.63,1.63,0,0,0,103.777,132.4Zm0,0" transform="translate(-93.596 -118.357)"/>
    </g>
  </g>
</svg>
