<svg xmlns="http://www.w3.org/2000/svg" width="82.261" height="82" viewBox="0 0 82.261 82">
  <g id="Grupo_82781" data-name="Grupo 82781" transform="translate(-369.739 -3025.5)">
    <g id="huella-de-carbono" transform="translate(378.986 3025.5)">
      <path id="Trazado_105224" data-name="Trazado 105224" d="M30.658,67.959A11.569,11.569,0,0,1,19.179,57.827L15.342,27.184A5.135,5.135,0,0,1,19.2,21.6l20.526-4.837a5.139,5.139,0,0,1,6.363,5.493l-3.934,35.41A11.568,11.568,0,0,1,30.658,67.959Z" fill="#ffd4a5"/>
      <g id="Grupo_54704" data-name="Grupo 54704">
        <g id="Grupo_54701" data-name="Grupo 54701">
          <path id="Trazado_105225" data-name="Trazado 105225" d="M24.311,41.08h2.568v2.407H24.311Z" fill="#fff"/>
        </g>
        <g id="Grupo_54702" data-name="Grupo 54702">
          <path id="Trazado_105226" data-name="Trazado 105226" d="M29.446,41.08h2.568v2.407H29.446Z" fill="#fff"/>
        </g>
        <g id="Grupo_54703" data-name="Grupo 54703">
          <path id="Trazado_105227" data-name="Trazado 105227" d="M34.581,41.08h2.568v2.407H34.581Z" fill="#fff"/>
        </g>
      </g>
      <path id="Trazado_105229" data-name="Trazado 105229" d="M30.73,64.108a19.339,19.339,0,0,0,.384,3.841A11.568,11.568,0,0,0,42.156,57.668l1.3-11.679A19.263,19.263,0,0,0,30.73,64.108Z" fill="#ffcdbe"/>
      <ellipse id="Elipse_4074" data-name="Elipse 4074" cx="5.135" cy="6.419" rx="5.135" ry="6.419" transform="translate(41 1.204)" fill="#ffd4a5"/>
      <ellipse id="Elipse_4075" data-name="Elipse 4075" cx="3.851" cy="5.135" rx="3.851" ry="5.135" transform="translate(33.297 2.487)" fill="#ffd4a5"/>
      <ellipse id="Elipse_4076" data-name="Elipse 4076" cx="3.851" cy="5.135" rx="3.851" ry="5.135" transform="translate(25.595 3.771)" fill="#ffd4a5"/>
      <ellipse id="Elipse_4077" data-name="Elipse 4077" cx="3.851" cy="5.135" rx="3.851" ry="5.135" transform="translate(17.892 6.339)" fill="#ffd4a5"/>
      <ellipse id="Elipse_4078" data-name="Elipse 4078" cx="3.851" cy="5.135" rx="3.851" ry="5.135" transform="translate(10.19 8.906)" fill="#ffd4a5"/>
      <path id="Trazado_105248" data-name="Trazado 105248" d="M16.689,0A16.689,16.689,0,1,1,0,16.689,16.689,16.689,0,0,1,16.689,0Z" transform="translate(33.297 47.419)" fill="#52ffb1"/>
      <g id="Grupo_54708" data-name="Grupo 54708">
        <g id="Grupo_54705" data-name="Grupo 54705">
          <path id="Trazado_105236" data-name="Trazado 105236" d="M46.135,73.174H48.7v2.407H46.135Z" fill="#fff"/>
        </g>
        <g id="Grupo_54706" data-name="Grupo 54706">
          <path id="Trazado_105237" data-name="Trazado 105237" d="M51.27,73.174h2.568v2.407H51.27Z" fill="#fff"/>
        </g>
        <g id="Grupo_54707" data-name="Grupo 54707">
          <path id="Trazado_105238" data-name="Trazado 105238" d="M18.692,16.522a4.413,4.413,0,0,0,3.052,1.29c2.085,0,3.879-1.592,4.651-3.857a4.413,4.413,0,0,0,3.052,1.29,4.931,4.931,0,0,0,4.277-2.966,4.538,4.538,0,0,0,3.426,1.683,4.661,4.661,0,0,0,3.736-2.073,6.134,6.134,0,0,0,5.251,3.357c3.5,0,6.339-3.419,6.339-7.622S49.63,0,46.135,0a6.134,6.134,0,0,0-5.251,3.357,4.661,4.661,0,0,0-3.736-2.073A4.931,4.931,0,0,0,32.872,4.25a4.538,4.538,0,0,0-3.426-1.683c-2.085,0-3.879,1.592-4.651,3.857a4.413,4.413,0,0,0-3.052-1.29c-2.085,0-3.879,1.592-4.651,3.857A4.413,4.413,0,0,0,14.041,7.7c-2.787,0-5.055,2.844-5.055,6.339s2.268,6.339,5.055,6.339C16.126,20.38,17.92,18.788,18.692,16.522ZM46.135,2.407c2.168,0,3.932,2.34,3.932,5.215s-1.764,5.215-3.932,5.215S42.2,10.5,42.2,7.622,43.967,2.407,46.135,2.407ZM37.149,3.691c1.435,0,2.648,1.8,2.648,3.932s-1.213,3.932-2.648,3.932S34.5,9.753,34.5,7.622,35.713,3.691,37.149,3.691Zm-7.7,1.284c1.435,0,2.648,1.8,2.648,3.932s-1.213,3.932-2.648,3.932S26.8,11.037,26.8,8.906,28.011,4.975,29.446,4.975Zm-7.7,2.568c1.435,0,2.648,1.8,2.648,3.932s-1.213,3.932-2.648,3.932S19.1,13.6,19.1,11.474,20.308,7.542,21.744,7.542Zm-10.35,6.5c0-2.131,1.213-3.932,2.648-3.932s2.648,1.8,2.648,3.932-1.213,3.932-2.648,3.932S11.393,16.172,11.393,14.041Z"/>
          <path id="Trazado_105239" data-name="Trazado 105239" d="M49.986,46.215A17.893,17.893,0,0,0,32.272,66.627a10.349,10.349,0,0,1-11.9-8.948L16.537,27.043a3.937,3.937,0,0,1,2.94-4.269l20.542-4.841a3.936,3.936,0,0,1,4.875,4.192l-2.51,22.593,2.392.266,2.512-22.606a6.26,6.26,0,0,0-2.161-5.423,6.349,6.349,0,0,0-5.675-1.361l-20.542,4.84a6.355,6.355,0,0,0-4.762,6.9l3.837,30.644A12.774,12.774,0,0,0,32.77,68.987a17.894,17.894,0,0,0,28.915,8.659l-1.575-1.821A15.485,15.485,0,1,1,61.7,74.232l1.821,1.575A17.893,17.893,0,0,0,49.986,46.215Z"/>
          <path id="Trazado_105240" data-name="Trazado 105240" d="M64.336,46.1A22.782,22.782,0,0,0,49.986,41.08v2.407A20.552,20.552,0,0,1,70.033,59.255l2.34-.564A23.136,23.136,0,0,0,64.336,46.1Z"/>
          <path id="Trazado_105241" data-name="Trazado 105241" d="M72.856,61.4l-2.391.28a20.946,20.946,0,0,1,.141,2.427h2.407A23.383,23.383,0,0,0,72.856,61.4Z"/>
          <path id="Trazado_105242" data-name="Trazado 105242" d="M50.628,57.769a3.775,3.775,0,0,0-3.771,3.771v2.568a3.771,3.771,0,1,0,7.542,0V61.54A3.775,3.775,0,0,0,50.628,57.769Zm1.364,6.339a1.364,1.364,0,1,1-2.728,0V61.54a1.364,1.364,0,0,1,2.728,0Z"/>
          <path id="Trazado_105243" data-name="Trazado 105243" d="M41.642,60.176a1.366,1.366,0,0,1,1.364,1.364h2.407a3.771,3.771,0,0,0-7.542,0v2.568a3.771,3.771,0,1,0,7.542,0H43.006a1.364,1.364,0,1,1-2.728,0V61.54A1.366,1.366,0,0,1,41.642,60.176Z"/>
          <path id="Trazado_105244" data-name="Trazado 105244" d="M55.843,67.46v2.986H60.9V68.039h-2.23l1.265-1.265A3.019,3.019,0,1,0,55.664,62.5l-.752.752,1.7,1.7.752-.752a.612.612,0,0,1,.865.865Z"/>
          <path id="Trazado_105245" data-name="Trazado 105245" d="M27.061,71.094l-.384,2.376a16.766,16.766,0,0,0,2.67.214V71.278a14.355,14.355,0,0,1-2.286-.183Z"/>
          <path id="Trazado_105246" data-name="Trazado 105246" d="M15.235,58.823l-2.388.3A16.633,16.633,0,0,0,23.908,72.773L24.7,70.5a14.135,14.135,0,0,1-9.46-11.675Z"/>
          <path id="Trazado_105247" data-name="Trazado 105247" d="M53.838,52.634h2.568v2.407H53.838Z"/>
        </g>
      </g>
    </g>
    <g id="hen" transform="translate(370 3061.74)">
      <path id="Trazado_104401" data-name="Trazado 104401" d="M12.362,181.759a29.494,29.494,0,0,1-.147-6.271s-4.3,3.006-2.889,5.231a2.843,2.843,0,0,0,3.041,1.083C12.365,181.788,12.363,181.774,12.362,181.759Zm0,0" transform="translate(-8.293 -160.128)" fill="#ff4755"/>
      <path id="Trazado_104402" data-name="Trazado 104402" d="M12.164,210.491a2.786,2.786,0,0,1-2.762-1,2.172,2.172,0,0,0-.072,2.256,2.844,2.844,0,0,0,3.042,1.082l-.006-.043Q12.223,211.572,12.164,210.491Zm0,0" transform="translate(-8.297 -191.152)" fill="#fc2b3a"/>
      <path id="Trazado_104403" data-name="Trazado 104403" d="M16.146,128.754c-2.338.646-3.982,1.244-3.835,2.332.136,1,2.035,1.559,2.88,1.758A14.165,14.165,0,0,1,16.146,128.754Zm0,0" transform="translate(-11.268 -117.484)" fill="#ffa812"/>
      <path id="Trazado_104404" data-name="Trazado 104404" d="M13.034,141.938c-.516.33-.786.708-.723,1.178.135,1,2.035,1.559,2.88,1.758q.078-.8.21-1.5C14.546,143.128,13.322,142.664,13.034,141.938Zm0,0" transform="translate(-11.269 -129.514)" fill="#ff9a00"/>
      <path id="Trazado_104405" data-name="Trazado 104405" d="M63.428,15.745a5.986,5.986,0,0,1,3.065-.969c2.616-.063,4.033.9,4.965,2.288.8-.423,2.446-1.479,1.946-2.839-.711-1.933-2.656-.8-2.656-.8a1.937,1.937,0,0,0-.655-2.26,2.7,2.7,0,0,0-2.708-.056c-.372-2.836-4.359-3.456-5.895-.5C60.271,12.958,62.6,15.085,63.428,15.745Zm0,0" transform="translate(-55.836 -7.906)" fill="#ff4755"/>
      <path id="Trazado_104406" data-name="Trazado 104406" d="M79.832,62.1a5.153,5.153,0,0,0,1.643-1.285,8.34,8.34,0,0,0-5.407-2.77,10.411,10.411,0,0,0-5.747,1.2A7.825,7.825,0,0,0,71.8,60.779a5.985,5.985,0,0,1,3.065-.969C77.482,59.747,78.9,60.706,79.832,62.1Zm0,0" transform="translate(-64.209 -52.941)" fill="#fc2b3a"/>
      <path id="Trazado_104407" data-name="Trazado 104407" d="M50.939,78.45c-1.2.029-8.252.638-6.589,14.762C45.81,105.6,54.571,109.521,61.431,109.5c9.971-.031,22.4-8.408,18.762-21.591,0,0-1.1-4.9-4.9-4.688S71.622,90.9,63.43,90.076C55.12,89.243,59.6,78.241,50.939,78.45Zm0,0" transform="translate(-40.282 -71.58)" fill="#f1d54e"/>
      <path id="Trazado_104408" data-name="Trazado 104408" d="M61.434,207.189c-6.86.021-15.621-3.9-17.081-16.288-.118-1-.191-1.934-.226-2.8a31.878,31.878,0,0,0,.226,5.167c1.459,12.392,10.22,16.309,17.081,16.288,9.082-.028,20.2-6.981,19.365-18.181C80.04,201.178,69.859,207.163,61.434,207.189Zm0,0" transform="translate(-40.284 -171.633)" fill="#baa53d"/>
      <path id="Trazado_104409" data-name="Trazado 104409" d="M91.818,329.379A21.336,21.336,0,0,1,78.958,334H78.9a17.045,17.045,0,0,1-7.841-1.878,15.026,15.026,0,0,1-6.512-6.633.659.659,0,0,0-1.174.6,16.321,16.321,0,0,0,7.075,7.2,17.814,17.814,0,0,0,5.3,1.764V338.7l-3.185-1.108a.66.66,0,1,0-.433,1.246l2.126.739-2.1.621a.659.659,0,1,0,.375,1.264l4.061-1.2a.66.66,0,0,0,.472-.633v-4.394c.67.065,1.288.09,1.833.09h.057a20.589,20.589,0,0,0,4.174-.455V338.7l-3.185-1.108a.66.66,0,0,0-.433,1.246l2.126.739-2.1.622a.659.659,0,1,0,.375,1.264l4.061-1.2a.659.659,0,0,0,.472-.632v-5.08a22.866,22.866,0,0,0,8.19-4.137.659.659,0,1,0-.826-1.028Zm0,0" transform="translate(-57.808 -296.671)" stroke="#000" stroke-width="0.5"/>
      <path id="Trazado_104410" data-name="Trazado 104410" d="M6.225,26.41a23.469,23.469,0,0,1-1.076-4.859c-.666-5.66.033-9.864,2.022-12.157a5.448,5.448,0,0,1,3.956-1.935,4.8,4.8,0,0,1,4.008,1.462,11.247,11.247,0,0,1,1.827,3.729c.966,2.736,2.061,5.837,6.23,6.435a.659.659,0,0,0,.188-1.305c-3.379-.485-4.25-2.955-5.174-5.569a18.944,18.944,0,0,0-1.2-2.879c1.49-.96,2.1-2.145,1.667-3.313a2.248,2.248,0,0,0-1.336-1.442,2.36,2.36,0,0,0-1.17-.093,2.477,2.477,0,0,0-1.049-1.845,3.035,3.035,0,0,0-2.653-.4A3.44,3.44,0,0,0,9.793.06,4.032,4.032,0,0,0,5.5,2.308c-1.2,2.3.385,4.363,1.483,5.422a7.26,7.26,0,0,0-.811.8,8.8,8.8,0,0,0-1.351,2.14C2.847,11.219.568,11.937.8,13.651c.127.936,1.084,1.551,2.153,1.95l-.12.108a8.83,8.83,0,0,0-1.85,2.211,2.806,2.806,0,0,0-.095,3.018,3.175,3.175,0,0,0,2.852,1.455c.062,0,.125,0,.189,0a24.281,24.281,0,0,0,1.05,4.449.659.659,0,1,0,1.247-.428ZM6.855,5.5a2.511,2.511,0,0,1-.183-2.579A2.729,2.729,0,0,1,9.564,1.359,2.116,2.116,0,0,1,11.355,3.2a.662.662,0,0,0,.972.492A2.075,2.075,0,0,1,14.34,3.7a1.269,1.269,0,0,1,.437,1.486.66.66,0,0,0,.938.823,1.66,1.66,0,0,1,1.179-.194c.086.031.347.127.541.655.081.221.133.577-.353,1.1a4.228,4.228,0,0,1-.809.655A5.973,5.973,0,0,0,11.1,6.141a6.677,6.677,0,0,0-3,.825A6.382,6.382,0,0,1,6.855,5.5ZM2.106,13.474c-.061-.454,1.1-.923,2.146-1.258a15.671,15.671,0,0,0-.474,2.272C2.732,14.154,2.143,13.742,2.106,13.474ZM2,20.23c-.512-.806.175-1.891.842-2.659a9.995,9.995,0,0,1,.749-.769,32.533,32.533,0,0,0,.177,4.271A1.927,1.927,0,0,1,2,20.23Zm0,0" transform="translate(-0.499 0)" stroke="#000" stroke-width="0.5"/>
      <path id="Trazado_104411" data-name="Trazado 104411" d="M299.471,130.042a9.461,9.461,0,0,0-1.11-2.621,4.861,4.861,0,0,0-4.486-2.584c-1.8.1-2.82,1.473-3.9,2.927-1.326,1.788-2.7,3.637-5.772,3.969a.659.659,0,1,0,.142,1.311c3.649-.395,5.335-2.668,6.69-4.495.966-1.3,1.728-2.331,2.912-2.4a3.565,3.565,0,0,1,3.278,1.939,8.2,8.2,0,0,1,.963,2.256c0,.01,0,.021.008.031a15.3,15.3,0,0,1,.14,8.16,14.928,14.928,0,0,1-3.619,6.343.659.659,0,1,0,.961.9,16.232,16.232,0,0,0,3.931-6.9A16.6,16.6,0,0,0,299.471,130.042Zm0,0" transform="translate(-258.834 -113.903)" stroke="#000" stroke-width="0.5"/>
      <path id="Trazado_104412" data-name="Trazado 104412" d="M168.317,255.971c-3.877.937-7.015.271-9.325-1.98a9.766,9.766,0,0,1-2.368-3.749.659.659,0,0,0-1.265.37,10.925,10.925,0,0,0,2.67,4.281,9.8,9.8,0,0,0,7.109,2.8,14.96,14.96,0,0,0,3.489-.438c4.73-1.143,7.177-5.245,6.73-8.39a.659.659,0,0,0-1.306.186,5.68,5.68,0,0,1-1.164,3.959A7.752,7.752,0,0,1,168.317,255.971Zm0,0" transform="translate(-141.779 -226.562)" stroke="#000" stroke-width="0.5"/>
      <path id="Trazado_104413" data-name="Trazado 104413" d="M103.777,132.277a1.379,1.379,0,1,0,1.347-1.675A1.522,1.522,0,0,0,103.777,132.277Zm0,0" transform="translate(-94.737 -119.17)"/>
    </g>
  </g>
</svg>
