<svg xmlns="http://www.w3.org/2000/svg" width="55.873" height="82" viewBox="0 0 55.873 82">
  <g id="planta" transform="translate(0)">
    <path id="Trazado_105264" data-name="Trazado 105264" d="M21.762,19.219a15.238,15.238,0,0,1-.491-3.774c0-5.983,3.859-11.1,5.707-13.214a1.282,1.282,0,0,1,1.929,0c1.848,2.11,5.707,7.231,5.707,13.214,0,7.867-6.672,14.244-6.672,14.244a51.926,51.926,0,0,1-3.37-4.224A19,19,0,0,1,21.762,19.219Zm0,0" fill="#26e690"/>
    <path id="Trazado_105266" data-name="Trazado 105266" d="M50.845,20.4c.85-.126,1.6-.2,2.185-.235a1.281,1.281,0,0,1,1.363,1.364c-.185,2.8-1.077,9.149-5.308,13.379-5.563,5.563-14.79,5.355-14.79,5.355s-.208-9.227,5.355-14.789a14.949,14.949,0,0,1,4.15-2.938A27.351,27.351,0,0,1,50.845,20.4Zm0,0" fill="#26e690"/>
    <path id="Trazado_105268" data-name="Trazado 105268" d="M16.543,36.887C22.106,42.45,21.9,51.676,21.9,51.676s-9.228.208-14.791-5.355C2.876,42.091,1.984,35.741,1.8,32.942a1.281,1.281,0,0,1,1.364-1.363C5.961,31.764,12.312,32.656,16.543,36.887Zm0,0" fill="#26e690"/>
    <path id="Trazado_105270" data-name="Trazado 105270" d="M1.213,80.8s-.671-5.865,7.373-6.7c4.8-.5,3.352-6.87,8.212-8.379,5.166-1.6,6.672,3.317,10.725,2.849,4.357-.5,5.866-3.017,9.552-2.178s3.536,6.481,9.384,7.038c7.039.67,8.045,3.854,8.212,7.373H1.213Zm0,0" fill="#e38e2f"/>
    <path id="Trazado_105272" data-name="Trazado 105272" d="M46.574,72.23c-2.784-.265-3.913-1.872-5.107-3.575-1.027-1.463-2.089-2.976-4.125-3.438a8.562,8.562,0,0,0-5.853.908,18.373,18.373,0,0,1-2.345.9V46.7l5.385-5.232c1.621-.008,10.015-.319,15.4-5.707,5.859-5.858,5.716-15.268,5.706-15.666a1.2,1.2,0,0,0-1.174-1.174,24.611,24.611,0,0,0-3.8.294,1.2,1.2,0,0,0,.352,2.376c.856-.127,1.6-.194,2.178-.23-.162,2.581-.973,8.71-4.964,12.7-3.272,3.271-8,4.4-11.019,4.8l9.412-9.144a1.2,1.2,0,0,0-1.674-1.724l-9.2,8.939c.438-3.018,1.61-7.47,4.745-10.6a14.66,14.66,0,0,1,3.838-2.713,1.2,1.2,0,0,0-1.074-2.15A17.071,17.071,0,0,0,38.8,24.625c-4.951,4.951-5.615,12.438-5.7,14.879l-3.958,3.845V30.183c1.466-1.528,6.672-7.465,6.672-14.738C35.816,7.16,29.06.607,28.773.333a1.2,1.2,0,0,0-1.66,0c-.287.275-7.043,6.827-7.043,15.112a16.465,16.465,0,0,0,.529,4.071,1.2,1.2,0,0,0,2.327-.594,14.09,14.09,0,0,1-.454-3.477c0-5.625,3.762-10.543,5.472-12.488,1.712,1.941,5.47,6.847,5.47,12.488,0,4.519-2.428,8.582-4.27,11.013V13.1a1.2,1.2,0,0,0-2.4,0V26.466c-.372-.489-.765-1.04-1.159-1.651a1.2,1.2,0,0,0-2.019,1.3,27.872,27.872,0,0,0,3.178,4.066V55.188L23.1,51.44c-.008-1.619-.318-10.014-5.708-15.4-5.858-5.858-15.27-5.715-15.667-5.706A1.2,1.2,0,0,0,.552,31.505C.543,31.9.4,41.313,6.258,47.171c4.952,4.951,12.439,5.615,14.88,5.7l5.6,5.768v8.75a6.452,6.452,0,0,1-2.977-1.333c-2.276-1.486-4.605-2.343-7.322-1.483-2.5.791-3.774,2.832-4.807,5.087-.9,1.954-1.484,3.068-3.174,3.244-3.145.328-5.477,1.413-6.932,3.226A6.983,6.983,0,0,0,.02,80.935,1.2,1.2,0,0,0,1.214,82h7.83a1.2,1.2,0,0,0,0-2.4H2.49A4.568,4.568,0,0,1,3.4,77.631c1.039-1.294,2.825-2.081,5.308-2.34,3.137-.327,4.23-2.715,5.109-4.633.739-1.612,1.531-3.207,3.335-3.793,2.022-.658,3.625.108,5.3,1.2,1.4.914,2.987,1.95,5.209,1.694a15.633,15.633,0,0,0,4.79-1.433c1.536-.672,2.645-1.157,4.359-.768,1.078.245,1.725,1.1,2.69,2.476,1.319,1.878,2.96,4.216,6.847,4.586,5.45.519,6.688,2.494,7.021,4.976H15.61a1.2,1.2,0,0,0,0,2.4H54.673a1.212,1.212,0,0,0,1.2-1.258C55.692,76.954,54.446,72.98,46.574,72.23ZM7.957,45.473c-3.977-3.976-4.8-10.112-4.962-12.7,2.588.167,8.722.985,12.7,4.962,3.272,3.272,4.406,8,4.8,11.019l-9.145-9.412a1.2,1.2,0,1,0-1.723,1.674l8.934,9.195C15.535,49.771,11.08,48.6,7.957,45.473Zm0,0"/>
    <path id="Trazado_105273" data-name="Trazado 105273" d="M17.887,71.638a1.2,1.2,0,0,0,0,2.4A1.2,1.2,0,0,0,17.887,71.638Zm0,0"/>
    <path id="Trazado_105274" data-name="Trazado 105274" d="M30.289,75.157a1.2,1.2,0,0,0,0,2.4A1.2,1.2,0,0,0,30.289,75.157Zm0,0"/>
    <path id="Trazado_105275" data-name="Trazado 105275" d="M36.825,70.8a1.2,1.2,0,0,0,0,2.4A1.2,1.2,0,0,0,36.825,70.8Zm0,0"/>
  </g>
</svg>
