<svg xmlns="http://www.w3.org/2000/svg" width="68.679" height="83.168" viewBox="0 0 68.679 83.168">
  <g id="caliente" transform="translate(-0.001)">
    <path id="Trazado_106144" data-name="Trazado 106144" d="M20.771,42.9a4.143,4.143,0,0,0,6.775,2.2.5.5,0,0,1,.787.572,4.143,4.143,0,0,0,4.187,5.763.5.5,0,0,1,.3.925,4.143,4.143,0,0,0,0,7.124.5.5,0,0,1-.3.925,4.143,4.143,0,0,0-4.187,5.763.5.5,0,0,1-.787.572,4.144,4.144,0,0,0-6.775,2.2.5.5,0,0,1-.973,0,4.144,4.144,0,0,0-6.775-2.2.5.5,0,0,1-.787-.572,4.144,4.144,0,0,0-4.187-5.763.5.5,0,0,1-.3-.925,4.144,4.144,0,0,0,0-7.124.5.5,0,0,1,.3-.925,4.144,4.144,0,0,0,4.187-5.763.5.5,0,0,1,.787-.572A4.144,4.144,0,0,0,19.8,42.9.5.5,0,0,1,20.771,42.9Zm0,0" transform="translate(-6.283 -35.604)" fill="#fb9e36"/>
    <path id="Trazado_106146" data-name="Trazado 106146" d="M63.337,96.725a5.5,5.5,0,1,1-5.5-5.5A5.5,5.5,0,0,1,63.337,96.725Zm0,0" transform="translate(-43.837 -76.408)" fill="#f1d54e"/>
    <path id="Trazado_106147" data-name="Trazado 106147" d="M193.267,57.224V17.3a9.8,9.8,0,1,0-19.6,0V57.224a17.052,17.052,0,1,0,19.6,0Zm0,0" transform="translate(-139.382 -6.282)" fill="#d8d8d8"/>
    <path id="Trazado_106148" data-name="Trazado 106148" d="M210.663,111.968a11.777,11.777,0,0,1-4.114-22.811V46.623a4.115,4.115,0,1,1,8.229,0V89.157a11.777,11.777,0,0,1-4.115,22.811Zm0,0" transform="translate(-166.58 -35.603)" fill="#f3e8d7"/>
    <path id="Trazado_106149" data-name="Trazado 106149" d="M206.549,114.152v35.012a11.776,11.776,0,1,0,8.229,0V114.152Zm0,0" transform="translate(-166.58 -95.61)" fill="#fb9e36"/>
    <path id="Trazado_106151" data-name="Trazado 106151" d="M372.575,167.438h-7.068a1.218,1.218,0,1,0,0,2.437h7.068a1.218,1.218,0,1,0,0-2.437Zm0,0" transform="translate(-305.114 -140.239)"/>
    <path id="Trazado_106152" data-name="Trazado 106152" d="M365.507,109.089h3.209a1.218,1.218,0,1,0,0-2.437h-3.209a1.218,1.218,0,1,0,0,2.437Zm0,0" transform="translate(-305.114 -89.328)"/>
    <path id="Trazado_106153" data-name="Trazado 106153" d="M365.507,48.3h4.346a1.218,1.218,0,1,0,0-2.437h-4.346a1.218,1.218,0,1,0,0,2.437Zm0,0" transform="translate(-305.114 -38.413)"/>
    <path id="Trazado_106154" data-name="Trazado 106154" d="M369.854,289.012h-4.346a1.218,1.218,0,1,0,0,2.437h4.346a1.218,1.218,0,0,0,0-2.437Zm0,0" transform="translate(-305.114 -242.065)"/>
    <path id="Trazado_106155" data-name="Trazado 106155" d="M365.507,230.659h3.209a1.218,1.218,0,1,0,0-2.437h-3.209a1.218,1.218,0,1,0,0,2.437Zm0,0" transform="translate(-305.114 -191.151)"/>
    <path id="Trazado_106156" data-name="Trazado 106156" d="M188.2,50.324V11.02a11.019,11.019,0,1,0-22.039,0v39.3a18.271,18.271,0,1,0,22.039,0Zm-11.02,30.408a15.834,15.834,0,0,1-9.1-28.792,1.219,1.219,0,0,0,.517-1V11.02a8.583,8.583,0,1,1,17.166,0V50.943a1.219,1.219,0,0,0,.517,1,15.834,15.834,0,0,1-9.1,28.792Zm0,0" transform="translate(-133.097 0)"/>
    <path id="Trazado_106157" data-name="Trazado 106157" d="M209.715,82.059V40.341a5.333,5.333,0,1,0-10.666,0V71.629a1.218,1.218,0,1,0,2.437,0V49.082h5.793V82.875a1.219,1.219,0,0,0,.793,1.142,10.558,10.558,0,1,1-7.378,0,1.219,1.219,0,0,0,.793-1.142V76.5a1.218,1.218,0,0,0-2.437,0v5.556a12.995,12.995,0,1,0,10.666,0Zm-8.229-35.414v-6.3a2.9,2.9,0,1,1,5.793,0v6.3Zm0,0" transform="translate(-160.298 -29.321)"/>
    <path id="Trazado_106158" data-name="Trazado 106158" d="M26.124,55.358a1.718,1.718,0,0,0,1.036-3.185,2.925,2.925,0,0,1,0-5.029,1.718,1.718,0,0,0-1.036-3.186,2.925,2.925,0,0,1-2.956-4.069,1.718,1.718,0,0,0-2.709-1.969,2.925,2.925,0,0,1-4.784-1.554,1.718,1.718,0,0,0-3.349,0A2.925,2.925,0,0,1,7.542,37.92a1.718,1.718,0,0,0-2.709,1.969,2.925,2.925,0,0,1-2.956,4.069A1.718,1.718,0,0,0,.842,47.143a2.925,2.925,0,0,1,0,5.029,1.718,1.718,0,0,0,1.036,3.185,2.925,2.925,0,0,1,2.956,4.069A1.718,1.718,0,0,0,7.542,61.4a2.925,2.925,0,0,1,4.784,1.554,1.718,1.718,0,0,0,3.349,0A2.925,2.925,0,0,1,20.459,61.4a1.718,1.718,0,0,0,2.709-1.969A2.925,2.925,0,0,1,26.124,55.358Zm-1.61-2.284A5.384,5.384,0,0,0,20.5,58.6,5.384,5.384,0,0,0,14,60.712,5.384,5.384,0,0,0,7.5,58.6a5.383,5.383,0,0,0-4.016-5.527,5.383,5.383,0,0,0,0-6.832A5.383,5.383,0,0,0,7.5,40.714,5.384,5.384,0,0,0,14,38.6a5.383,5.383,0,0,0,6.5,2.111,5.383,5.383,0,0,0,4.016,5.527A5.382,5.382,0,0,0,24.515,53.073Zm0,0" transform="translate(0 -29.34)"/>
    <path id="Trazado_106159" data-name="Trazado 106159" d="M51.556,83.727a6.717,6.717,0,1,0,6.717,6.717A6.724,6.724,0,0,0,51.556,83.727Zm0,11a4.28,4.28,0,1,1,4.28-4.28A4.285,4.285,0,0,1,51.556,94.723Zm0,0" transform="translate(-37.556 -70.126)"/>
  </g>
</svg>
