<svg xmlns="http://www.w3.org/2000/svg" width="57" height="85" viewBox="0 0 57 85">
  <g id="termometro" transform="translate(-84.329)">
    <path id="Trazado_106128" data-name="Trazado 106128" d="M271.092,76.818v45.811a8.5,8.5,0,1,0,5.667,0V76.8Z" transform="translate(-151.029 -64.05)" fill="#dee4f0"/>
    <path id="Trazado_106129" data-name="Trazado 106129" d="M224.048,85a18.417,18.417,0,0,1-9.917-33.945V9.917a9.917,9.917,0,0,1,19.833,0v4.25h-2.833V9.917a7.083,7.083,0,0,0-14.167,0V51.85a1.419,1.419,0,0,1-.708,1.227,15.583,15.583,0,1,0,15.583,0,1.419,1.419,0,0,1-.708-1.227V45.364h2.833v5.691A18.417,18.417,0,0,1,224.048,85Zm-.016-8.5a10.4,10.4,0,0,1-2.094-.217A9.917,9.917,0,0,1,219.8,57.627V12.768a1.417,1.417,0,0,1,1.417-1.417l5.667-.018h0A1.417,1.417,0,0,1,228.3,12.75V57.629A9.917,9.917,0,0,1,224.032,76.5Zm-1.4-62.319v44.4a1.416,1.416,0,0,1-.952,1.337,7.093,7.093,0,1,0,4.737,0,1.416,1.416,0,0,1-.952-1.337V14.167Z" transform="translate(-101.152)" fill="#231f20"/>
    <path id="Trazado_106130" data-name="Trazado 106130" d="M108.637,14.875l-4.906,1.315-3.5-2.023,3.5-2.022,4.906,1.315a1.417,1.417,0,0,0,.732-2.737l-2.169-.581,1.945-1.123a1.417,1.417,0,0,0-1.4-2.464.058.058,0,0,1-.016.01l-1.945,1.123.581-2.17a1.417,1.417,0,0,0-2.736-.734l-1.313,4.907-3.5,2.022V7.67L102.4,4.077a1.417,1.417,0,0,0-2-2L98.813,3.662V1.417a1.417,1.417,0,1,0-2.833,0V3.662L94.391,2.074a1.417,1.417,0,0,0-2,2L95.98,7.67v4.043l-3.5-2.022L91.163,4.784a1.417,1.417,0,1,0-2.735.741l.581,2.17L87.063,6.565a1.416,1.416,0,1,0-1.432,2.444.058.058,0,0,1,.016.01l1.945,1.123-2.169.581a1.417,1.417,0,0,0,.647,2.758c.028-.007.058-.014.086-.023l4.906-1.315,3.5,2.023-3.5,2.022-4.906-1.313a1.417,1.417,0,0,0-.732,2.737l2.169.581-1.945,1.123a1.417,1.417,0,1,0,1.4,2.464.058.058,0,0,0,.016-.01l1.945-1.123-.581,2.17a1.417,1.417,0,0,0,1,1.735h0a1.418,1.418,0,0,0,1.736-1l1.313-4.907,3.5-2.023v4.043l-3.591,3.593a1.417,1.417,0,0,0,2,2l1.588-1.588v2.245a1.417,1.417,0,0,0,2.833,0V24.671l1.588,1.588a1.417,1.417,0,0,0,2-2l-3.591-3.593V16.62l3.5,2.022,1.313,4.907a1.417,1.417,0,0,0,2.737-.734h0l-.581-2.17,1.945,1.123a1.416,1.416,0,0,0,1.432-2.444.059.059,0,0,1-.016-.01L107.2,18.191l2.169-.581a1.417,1.417,0,0,0-.732-2.737v0Z" transform="translate(0)" fill="#d2e1f1"/>
    <g id="Grupo_82400" data-name="Grupo 82400" transform="translate(129.985 17)">
      <rect id="Rectángulo_31352" data-name="Rectángulo 31352" width="5.667" height="2.833" fill="#231f20"/>
      <rect id="Rectángulo_31353" data-name="Rectángulo 31353" width="5.667" height="2.833" transform="translate(0 5.667)" fill="#231f20"/>
      <rect id="Rectángulo_31354" data-name="Rectángulo 31354" width="5.667" height="2.833" transform="translate(0 11.333)" fill="#231f20"/>
      <rect id="Rectángulo_31355" data-name="Rectángulo 31355" width="5.667" height="2.833" transform="translate(0 17)" fill="#231f20"/>
      <rect id="Rectángulo_31356" data-name="Rectángulo 31356" width="5.667" height="2.833" transform="translate(0 22.667)" fill="#231f20"/>
    </g>
  </g>
</svg>
