<svg id="co2" xmlns="http://www.w3.org/2000/svg" width="44.991" height="44.991" viewBox="0 0 44.991 44.991">
  <path id="Trazado_105598" data-name="Trazado 105598" d="M91.539,60.269a6.708,6.708,0,0,0-3.072-5.64,12.983,12.983,0,0,0-1.429-18.215,13,13,0,0,0-15.751,5.1,11.424,11.424,0,0,0-3.627-2.337c-.021.032-.043.064-.063.1q-.11-.105-.223-.206a11.414,11.414,0,0,0-12.3,18.5,10.328,10.328,0,0,0,.207,14.835,10.344,10.344,0,0,0,9.409-1.363,12.152,12.152,0,0,0,2.665,2.888,10.284,10.284,0,0,0,1.026-.648A12.16,12.16,0,0,0,70.474,75.7,12.093,12.093,0,0,0,86.655,66.73,6.717,6.717,0,0,0,91.539,60.269Zm0,0" transform="translate(-47.427 -32.381)" fill="#afafaf"/>
  <path id="Trazado_105599" data-name="Trazado 105599" d="M36.719,74.38a.879.879,0,0,1-.636-1.485l.024-.026a.879.879,0,1,1,1.27,1.215l-.021.022A.877.877,0,0,1,36.719,74.38Zm0,0" transform="translate(-32.691 -66.219)"/>
  <path id="Trazado_105600" data-name="Trazado 105600" d="M27.366,44.991a12.935,12.935,0,0,1-10.326-5.125A11.209,11.209,0,0,1,2.774,22.932,12.3,12.3,0,0,1,1.2,9.843a.879.879,0,0,1,1.584.761A10.542,10.542,0,0,0,4.6,22.351a.879.879,0,0,1-.021,1.223A9.45,9.45,0,0,0,16.753,37.95a.879.879,0,0,1,1.246.23,11.209,11.209,0,0,0,20.367-4,.878.878,0,0,1,.623-.677,5.836,5.836,0,0,0,1.574-10.518.879.879,0,0,1-.193-1.306A12.105,12.105,0,1,0,20.911,7.369a.879.879,0,0,1-1.348.164A10.541,10.541,0,0,0,7.288,5.882a.879.879,0,1,1-.836-1.546A12.3,12.3,0,0,1,20.007,5.585a13.863,13.863,0,0,1,22.283,16.5,7.593,7.593,0,0,1-2.31,12.947A12.984,12.984,0,0,1,27.366,44.991Zm0,0"/>
  <path id="Trazado_105601" data-name="Trazado 105601" d="M345.057,55.757h-.007A.879.879,0,1,1,345.057,54h0a.879.879,0,1,1,0,1.757Zm0,0" transform="translate(-313.928 -49.255)"/>
  <path id="Trazado_105602" data-name="Trazado 105602" d="M390.611,72.513a.879.879,0,0,1-.879-.879,7.408,7.408,0,0,0-4.154-6.628.879.879,0,0,1,.766-1.581,9.118,9.118,0,0,1,5.145,8.209A.879.879,0,0,1,390.611,72.513Zm0,0" transform="translate(-351.244 -57.772)"/>
  <path id="Trazado_105603" data-name="Trazado 105603" d="M60.919,341.8a6.47,6.47,0,0,1-6.462-6.462.879.879,0,0,1,1.757,0,4.71,4.71,0,0,0,4.7,4.7.879.879,0,0,1,0,1.757Zm0,0" transform="translate(-49.672 -305.067)"/>
  <path id="Trazado_105604" data-name="Trazado 105604" d="M236.479,177.412a6.151,6.151,0,1,1,6.151-6.151A6.158,6.158,0,0,1,236.479,177.412Zm0-10.545a4.394,4.394,0,1,0,4.394,4.394A4.4,4.4,0,0,0,236.479,166.867Zm0,0" transform="translate(-210.088 -150.601)"/>
  <path id="Trazado_105605" data-name="Trazado 105605" d="M94.5,177.44a6.15,6.15,0,1,1,4.35-10.5.879.879,0,0,1-1.243,1.243,4.394,4.394,0,1,0,0,6.213.879.879,0,0,1,1.243,1.243A6.133,6.133,0,0,1,94.5,177.44Zm0,0" transform="translate(-80.587 -150.632)"/>
  <path id="Trazado_105606" data-name="Trazado 105606" d="M375.242,273.094h-2.825a.879.879,0,0,1-.52-1.587c.8-.594,2.466-2.166,2.466-3.232,0-.338-.087-.533-.533-.533a.534.534,0,0,0-.533.533.879.879,0,0,1-1.758,0,2.294,2.294,0,0,1,2.291-2.291,2.169,2.169,0,0,1,2.291,2.291,4.985,4.985,0,0,1-1.456,3.061h.578a.879.879,0,0,1,0,1.758Zm0,0" transform="translate(-338.891 -242.612)"/>
</svg>
